<?xml version="1.0" encoding="utf-8" standalone="no"?>
<!DOCTYPE svg PUBLIC "-//W3C//DTD SVG 1.1//EN"
  "http://www.w3.org/Graphics/SVG/1.1/DTD/svg11.dtd">
<!-- Created with matplotlib (https://matplotlib.org/) -->
<svg height="345.6pt" version="1.1" viewBox="0 0 460.8 345.6" width="460.8pt" xmlns="http://www.w3.org/2000/svg" xmlns:xlink="http://www.w3.org/1999/xlink">
 <defs>
  <style type="text/css">
*{stroke-linecap:butt;stroke-linejoin:round;white-space:pre;}
  </style>
 </defs>
 <g id="figure_1">
  <g id="patch_1">
   <path d="M 0 345.6 
L 460.8 345.6 
L 460.8 0 
L 0 0 
z
" style="fill:#ffffff;"/>
  </g>
  <g id="axes_1">
   <g id="patch_2">
    <path d="M 57.6 307.584 
L 414.72 307.584 
L 414.72 41.472 
L 57.6 41.472 
z
" style="fill:#ffffff;"/>
   </g>
   <g id="PolyCollection_1">
    <path clip-path="url(#pfdaf0478f0)" d="M 73.832727 278.481508 
L 73.832727 295.264279 
L 77.145529 259.020508 
L 80.45833 232.353736 
L 83.771132 211.265509 
L 87.083933 193.983151 
L 90.396735 179.546644 
L 93.709536 167.350431 
L 97.022338 156.965499 
L 100.335139 148.065283 
L 103.647941 140.3921 
L 106.960742 133.739387 
L 110.273544 127.940222 
L 113.586345 122.859186 
L 116.899147 118.386187 
L 120.211948 114.431407 
L 123.52475 110.921326 
L 126.837551 107.795546 
L 130.150353 105.004263 
L 133.463154 102.506338 
L 136.775955 100.267705 
L 140.088757 98.260098 
L 143.401558 96.460043 
L 146.71436 94.848019 
L 150.027161 93.40783 
L 153.339963 92.126143 
L 156.652764 90.992052 
L 159.965566 89.996746 
L 163.278367 89.133252 
L 166.591169 88.396314 
L 169.90397 87.78223 
L 173.216772 87.288626 
L 176.529573 86.914378 
L 179.842375 86.659586 
L 183.155176 86.525634 
L 186.467978 86.515145 
L 189.780779 86.63184 
L 193.093581 86.880374 
L 196.406382 87.266134 
L 199.719184 87.794864 
L 203.031985 88.471875 
L 206.344787 89.300574 
L 209.657588 90.279932 
L 212.97039 91.400359 
L 216.283191 92.637839 
L 219.595993 93.947858 
L 222.908794 95.263736 
L 226.221596 96.505281 
L 229.534397 97.596854 
L 232.847199 98.484281 
L 236.16 99.140998 
L 239.472801 99.564046 
L 242.785603 99.765942 
L 246.098404 99.767215 
L 249.411206 99.591389 
L 252.724007 99.262139 
L 256.036809 98.801875 
L 259.34961 98.231122 
L 262.662412 97.568301 
L 265.975213 96.829692 
L 269.288015 96.029516 
L 272.600816 95.180066 
L 275.913618 94.291871 
L 279.226419 93.373914 
L 282.539221 92.433824 
L 285.852022 91.478072 
L 289.164824 90.51213 
L 292.477625 89.540605 
L 295.790427 88.567369 
L 299.103228 87.595667 
L 302.41603 86.628224 
L 305.728831 85.667336 
L 309.041633 84.714939 
L 312.354434 83.772678 
L 315.667236 82.841964 
L 318.980037 81.924013 
L 322.292839 81.01987 
L 325.60564 80.130432 
L 328.918442 79.256475 
L 332.231243 78.398681 
L 335.544045 77.557657 
L 338.856846 76.733954 
L 342.169647 75.92809 
L 345.482449 75.140559 
L 348.79525 74.371864 
L 352.108052 73.622529 
L 355.420853 72.893112 
L 358.733655 72.184211 
L 362.046456 71.496487 
L 365.359258 70.83067 
L 368.672059 70.18758 
L 371.984861 69.568153 
L 375.297662 68.973455 
L 378.610464 68.404711 
L 381.923265 67.863326 
L 385.236067 67.350923 
L 388.548868 66.869367 
L 391.86167 66.420823 
L 395.174471 66.007783 
L 398.487273 65.633139 
L 398.487273 53.568 
L 398.487273 53.568 
L 395.174471 53.918679 
L 391.86167 54.297975 
L 388.548868 54.703923 
L 385.236067 55.134833 
L 381.923265 55.589246 
L 378.610464 56.065896 
L 375.297662 56.563679 
L 371.984861 57.081628 
L 368.672059 57.618891 
L 365.359258 58.174709 
L 362.046456 58.748403 
L 358.733655 59.339355 
L 355.420853 59.946981 
L 352.108052 60.570734 
L 348.79525 61.21008 
L 345.482449 61.864495 
L 342.169647 62.533457 
L 338.856846 63.216424 
L 335.544045 63.912833 
L 332.231243 64.62207 
L 328.918442 65.343461 
L 325.60564 66.076248 
L 322.292839 66.819568 
L 318.980037 67.572434 
L 315.667236 68.333702 
L 312.354434 69.102048 
L 309.041633 69.875926 
L 305.728831 70.653526 
L 302.41603 71.432715 
L 299.103228 72.210974 
L 295.790427 72.985318 
L 292.477625 73.752205 
L 289.164824 74.50742 
L 285.852022 75.24595 
L 282.539221 75.961841 
L 279.226419 76.648026 
L 275.913618 77.296115 
L 272.600816 77.896187 
L 269.288015 78.436555 
L 265.975213 78.903541 
L 262.662412 79.281273 
L 259.34961 79.551586 
L 256.036809 79.694119 
L 252.724007 79.686737 
L 249.411206 79.50657 
L 246.098404 79.132154 
L 242.785603 78.547414 
L 239.472801 77.748353 
L 236.16 76.751906 
L 232.847199 75.60287 
L 229.534397 74.371114 
L 226.221596 73.135682 
L 222.908794 71.964949 
L 219.595993 70.90559 
L 216.283191 69.982861 
L 212.97039 69.206438 
L 209.657588 68.576686 
L 206.344787 68.089311 
L 203.031985 67.73813 
L 199.719184 67.516484 
L 196.406382 67.417962 
L 193.093581 67.436775 
L 189.780779 67.567887 
L 186.467978 67.807094 
L 183.155176 68.151108 
L 179.842375 68.597545 
L 176.529573 69.144921 
L 173.216772 69.792702 
L 169.90397 70.541465 
L 166.591169 71.392996 
L 163.278367 72.3504 
L 159.965566 73.418248 
L 156.652764 74.602632 
L 153.339963 75.911191 
L 150.027161 77.353272 
L 146.71436 78.940243 
L 143.401558 80.685826 
L 140.088757 82.606409 
L 136.775955 84.721506 
L 133.463154 87.054378 
L 130.150353 89.632808 
L 126.837551 92.490118 
L 123.52475 95.66636 
L 120.211948 99.209785 
L 116.899147 103.178781 
L 113.586345 107.644355 
L 110.273544 112.693491 
L 106.960742 118.433399 
L 103.647941 124.996924 
L 100.335139 132.549583 
L 97.022338 141.298828 
L 93.709536 151.506711 
L 90.396735 163.508796 
L 87.083933 177.74781 
L 83.771132 194.845911 
L 80.45833 215.777919 
L 77.145529 242.324245 
L 73.832727 278.481508 
z
" style="fill:#ff0000;fill-opacity:0.4;"/>
   </g>
   <g id="PolyCollection_2">
    <path clip-path="url(#pfdaf0478f0)" d="M 73.832727 277.88525 
L 73.832727 291.841839 
L 77.145529 255.656558 
L 80.45833 229.034743 
L 83.771132 207.976989 
L 87.083933 190.70963 
L 90.396735 176.27324 
L 93.709536 164.064469 
L 97.022338 153.656889 
L 100.335139 144.726432 
L 103.647941 137.017634 
L 106.960742 130.325861 
L 110.273544 124.485931 
L 113.586345 119.363914 
L 116.899147 114.850735 
L 120.211948 110.857304 
L 123.52475 107.310577 
L 126.837551 104.150425 
L 130.150353 101.327149 
L 133.463154 98.799497 
L 136.775955 96.533188 
L 140.088757 94.499747 
L 143.401558 92.675454 
L 146.71436 91.040489 
L 150.027161 89.57835 
L 153.339963 88.275316 
L 156.652764 87.120038 
L 159.965566 86.103308 
L 163.278367 85.217924 
L 166.591169 84.458411 
L 169.90397 83.820773 
L 173.216772 83.302298 
L 176.529573 82.901527 
L 179.842375 82.618277 
L 183.155176 82.453618 
L 186.467978 82.409816 
L 189.780779 82.490256 
L 193.093581 82.699306 
L 196.406382 83.042183 
L 199.719184 83.524676 
L 203.031985 84.1526 
L 206.344787 84.930747 
L 209.657588 85.861061 
L 212.97039 86.939486 
L 216.283191 88.151114 
L 219.595993 89.463859 
L 222.908794 90.823525 
L 226.221596 92.155719 
L 229.534397 93.379265 
L 232.847199 94.425927 
L 236.16 95.253782 
L 239.472801 95.848265 
L 242.785603 96.215085 
L 246.098404 96.371611 
L 249.411206 96.340371 
L 252.724007 96.145191 
L 256.036809 95.809165 
L 259.34961 95.353677 
L 262.662412 94.79799 
L 265.975213 94.159147 
L 269.288015 93.452024 
L 272.600816 92.689507 
L 275.913618 91.882706 
L 279.226419 91.041152 
L 282.539221 90.172982 
L 285.852022 89.285116 
L 289.164824 88.383415 
L 292.477625 87.47284 
L 295.790427 86.557581 
L 299.103228 85.641182 
L 302.41603 84.726647 
L 305.728831 83.816529 
L 309.041633 82.913 
L 312.354434 82.017915 
L 315.667236 81.132855 
L 318.980037 80.259181 
L 322.292839 79.398068 
L 325.60564 78.55055 
L 328.918442 77.717553 
L 332.231243 76.899926 
L 335.544045 76.098463 
L 338.856846 75.313928 
L 342.169647 74.547065 
L 345.482449 73.798626 
L 348.79525 73.069387 
L 352.108052 72.360152 
L 355.420853 71.671766 
L 358.733655 71.005135 
L 362.046456 70.361261 
L 365.359258 69.741263 
L 368.672059 69.146397 
L 371.984861 68.578071 
L 375.297662 68.037863 
L 378.610464 67.527558 
L 381.923265 67.049174 
L 385.236067 66.604995 
L 388.548868 66.197612 
L 391.86167 65.829953 
L 395.174471 65.505323 
L 398.487273 65.227426 
L 398.487273 54.059257 
L 398.487273 54.059257 
L 395.174471 54.413874 
L 391.86167 54.799281 
L 388.548868 55.213201 
L 385.236067 55.653678 
L 381.923265 56.119026 
L 378.610464 56.607789 
L 375.297662 57.118708 
L 371.984861 57.650684 
L 368.672059 58.202749 
L 365.359258 58.774052 
L 362.046456 59.363841 
L 358.733655 59.971443 
L 355.420853 60.596252 
L 352.108052 61.237704 
L 348.79525 61.895255 
L 345.482449 62.568359 
L 342.169647 63.256469 
L 338.856846 63.959032 
L 335.544045 64.675465 
L 332.231243 65.40516 
L 328.918442 66.147456 
L 325.60564 66.901617 
L 322.292839 67.666807 
L 318.980037 68.442067 
L 315.667236 69.226288 
L 312.354434 70.018177 
L 309.041633 70.81622 
L 305.728831 71.618636 
L 302.41603 72.42333 
L 299.103228 73.227821 
L 295.790427 74.029172 
L 292.477625 74.823886 
L 289.164824 75.6078 
L 285.852022 76.375951 
L 282.539221 77.122424 
L 279.226419 77.840175 
L 275.913618 78.520843 
L 272.600816 79.154541 
L 269.288015 79.729615 
L 265.975213 80.232403 
L 262.662412 80.647043 
L 259.34961 80.955316 
L 256.036809 81.136658 
L 252.724007 81.16842 
L 249.411206 81.026703 
L 246.098404 80.688261 
L 242.785603 80.13424 
L 239.472801 79.35667 
L 236.16 78.367601 
L 232.847199 77.207651 
L 229.534397 75.945909 
L 226.221596 74.665086 
L 222.908794 73.439517 
L 219.595993 72.321121 
L 216.283191 71.338399 
L 212.97039 70.502776 
L 209.657588 69.815472 
L 206.344787 69.272429 
L 203.031985 68.867392 
L 199.719184 68.593501 
L 196.406382 68.444149 
L 193.093581 68.413367 
L 189.780779 68.495949 
L 186.467978 68.687542 
L 183.155176 68.984741 
L 179.842375 69.385042 
L 176.529573 69.886824 
L 173.216772 70.489402 
L 169.90397 71.193192 
L 166.591169 71.999886 
L 163.278367 72.912584 
L 159.965566 73.935844 
L 156.652764 75.075753 
L 153.339963 76.339992 
L 150.027161 77.737976 
L 146.71436 79.281076 
L 143.401558 80.982952 
L 140.088757 82.859936 
L 136.775955 84.931492 
L 133.463154 87.220857 
L 130.150353 89.755822 
L 126.837551 92.569659 
L 123.52475 95.702281 
L 120.211948 99.201729 
L 116.899147 103.126227 
L 113.586345 107.546791 
L 110.273544 112.550539 
L 106.960742 118.244874 
L 103.647941 124.7628 
L 100.335139 132.270048 
L 97.022338 140.97433 
L 93.709536 151.13806 
L 90.396735 163.09713 
L 87.083933 177.294687 
L 83.771132 194.353506 
L 80.45833 215.248792 
L 77.145529 241.760813 
L 73.832727 277.88525 
z
" style="fill:#0000ff;fill-opacity:0.4;"/>
   </g>
   <g id="PolyCollection_3">
    <path clip-path="url(#pfdaf0478f0)" d="M 73.832727 280.649989 
L 73.832727 295.488 
L 77.145529 259.129663 
L 80.45833 232.338924 
L 83.771132 211.118842 
L 87.083933 193.698432 
L 90.396735 179.119881 
L 93.709536 166.780325 
L 97.022338 156.253693 
L 100.335139 147.215744 
L 103.647941 139.410361 
L 106.960742 132.631857 
L 110.273544 126.713647 
L 113.586345 121.520082 
L 116.899147 116.94025 
L 120.211948 112.88332 
L 123.52475 109.274766 
L 126.837551 106.053334 
L 130.150353 103.168625 
L 133.463154 100.578944 
L 136.775955 98.249762 
L 140.088757 96.152407 
L 143.401558 94.263041 
L 146.71436 92.561886 
L 150.027161 91.032541 
L 153.339963 89.661316 
L 156.652764 88.436805 
L 159.965566 87.34961 
L 163.278367 86.392105 
L 166.591169 85.558268 
L 169.90397 84.843513 
L 173.216772 84.244581 
L 176.529573 83.759473 
L 179.842375 83.387359 
L 183.155176 83.128512 
L 186.467978 82.984305 
L 189.780779 82.957234 
L 193.093581 83.050928 
L 196.406382 83.27012 
L 199.719184 83.620527 
L 203.031985 84.108654 
L 206.344787 84.741528 
L 209.657588 85.526084 
L 212.97039 86.467845 
L 216.283191 87.568555 
L 219.595993 88.821898 
L 222.908794 90.206776 
L 226.221596 91.679069 
L 229.534397 93.167644 
L 232.847199 94.583865 
L 236.16 95.844744 
L 239.472801 96.894127 
L 242.785603 97.708309 
L 246.098404 98.288558 
L 249.411206 98.650532 
L 252.724007 98.816347 
L 256.036809 98.809967 
L 259.34961 98.654827 
L 262.662412 98.372694 
L 265.975213 97.983206 
L 269.288015 97.503789 
L 272.600816 96.949744 
L 275.913618 96.33439 
L 279.226419 95.669256 
L 282.539221 94.964262 
L 285.852022 94.227906 
L 289.164824 93.46744 
L 292.477625 92.689033 
L 295.790427 91.897938 
L 299.103228 91.098634 
L 302.41603 90.294961 
L 305.728831 89.490235 
L 309.041633 88.687336 
L 312.354434 87.888777 
L 315.667236 87.096779 
L 318.980037 86.313327 
L 322.292839 85.540211 
L 325.60564 84.779072 
L 328.918442 84.031445 
L 332.231243 83.298794 
L 335.544045 82.582572 
L 338.856846 81.884243 
L 342.169647 81.205309 
L 345.482449 80.547324 
L 348.79525 79.911917 
L 352.108052 79.300808 
L 355.420853 78.715811 
L 358.733655 78.158847 
L 362.046456 77.631968 
L 365.359258 77.137367 
L 368.672059 76.677377 
L 371.984861 76.25448 
L 375.297662 75.871306 
L 378.610464 75.530628 
L 381.923265 75.235386 
L 385.236067 74.988709 
L 388.548868 74.793931 
L 391.86167 74.654565 
L 395.174471 74.574252 
L 398.487273 74.556678 
L 398.487273 60.702953 
L 398.487273 60.702953 
L 395.174471 60.925297 
L 391.86167 61.188282 
L 388.548868 61.489094 
L 385.236067 61.825162 
L 381.923265 62.194137 
L 378.610464 62.593866 
L 375.297662 63.022377 
L 371.984861 63.477852 
L 368.672059 63.958614 
L 365.359258 64.463112 
L 362.046456 64.989916 
L 358.733655 65.537712 
L 355.420853 66.105277 
L 352.108052 66.691468 
L 348.79525 67.295201 
L 345.482449 67.915424 
L 342.169647 68.551115 
L 338.856846 69.20125 
L 335.544045 69.864779 
L 332.231243 70.540599 
L 328.918442 71.227534 
L 325.60564 71.924314 
L 322.292839 72.629541 
L 318.980037 73.341661 
L 315.667236 74.058942 
L 312.354434 74.779455 
L 309.041633 75.500996 
L 305.728831 76.221022 
L 302.41603 76.936571 
L 299.103228 77.644182 
L 295.790427 78.339804 
L 292.477625 79.018678 
L 289.164824 79.675217 
L 285.852022 80.302849 
L 282.539221 80.893825 
L 279.226419 81.439013 
L 275.913618 81.927664 
L 272.600816 82.347166 
L 269.288015 82.682775 
L 265.975213 82.917401 
L 262.662412 83.031512 
L 259.34961 83.003259 
L 256.036809 82.809105 
L 252.724007 82.425454 
L 249.411206 81.832061 
L 246.098404 81.018176 
L 242.785603 79.99164 
L 239.472801 78.787815 
L 236.16 77.470405 
L 232.847199 76.118288 
L 229.534397 74.805169 
L 226.221596 73.585416 
L 222.908794 72.491212 
L 219.595993 71.537104 
L 216.283191 70.726475 
L 212.97039 70.056727 
L 209.657588 69.522487 
L 206.344787 69.117436 
L 203.031985 68.835236 
L 199.719184 68.669957 
L 196.406382 68.616296 
L 193.093581 68.669659 
L 189.780779 68.826253 
L 186.467978 69.083169 
L 183.155176 69.438394 
L 179.842375 69.890833 
L 176.529573 70.44027 
L 173.216772 71.087425 
L 169.90397 71.833972 
L 166.591169 72.682574 
L 163.278367 73.637 
L 159.965566 74.702273 
L 156.652764 75.884845 
L 153.339963 77.192655 
L 150.027161 78.63521 
L 146.71436 80.223807 
L 143.401558 81.971905 
L 140.088757 83.895633 
L 136.775955 86.014332 
L 133.463154 88.351195 
L 130.150353 90.934012 
L 126.837551 93.796179 
L 123.52475 96.977958 
L 120.211948 100.528047 
L 116.899147 104.505647 
L 113.586345 108.983035 
L 110.273544 114.048885 
L 106.960742 119.812214 
L 103.647941 126.40749 
L 100.335139 134.001603 
L 97.022338 142.803248 
L 93.709536 153.075205 
L 90.396735 165.153055 
L 87.083933 179.479088 
L 83.771132 196.674701 
L 80.45833 217.713473 
L 77.145529 244.374006 
L 73.832727 280.649989 
z
" style="fill:#00ffff;fill-opacity:0.4;"/>
   </g>
   <g id="matplotlib.axis_1">
    <g id="xtick_1">
     <g id="line2d_1">
      <path clip-path="url(#pfdaf0478f0)" d="M 70.519926 307.584 
L 70.519926 41.472 
" style="fill:none;stroke:#b0b0b0;stroke-linecap:square;stroke-width:0.8;"/>
     </g>
     <g id="line2d_2">
      <defs>
       <path d="M 0 0 
L 0 3.5 
" id="m2c8cae7fe1" style="stroke:#000000;stroke-width:0.8;"/>
      </defs>
      <g>
       <use style="stroke:#000000;stroke-width:0.8;" x="70.519926" xlink:href="#m2c8cae7fe1" y="307.584"/>
      </g>
     </g>
     <g id="text_1">
      <!-- 0.0 -->
      <defs>
       <path d="M 31.78125 66.40625 
Q 24.171875 66.40625 20.328125 58.90625 
Q 16.5 51.421875 16.5 36.375 
Q 16.5 21.390625 20.328125 13.890625 
Q 24.171875 6.390625 31.78125 6.390625 
Q 39.453125 6.390625 43.28125 13.890625 
Q 47.125 21.390625 47.125 36.375 
Q 47.125 51.421875 43.28125 58.90625 
Q 39.453125 66.40625 31.78125 66.40625 
z
M 31.78125 74.21875 
Q 44.046875 74.21875 50.515625 64.515625 
Q 56.984375 54.828125 56.984375 36.375 
Q 56.984375 17.96875 50.515625 8.265625 
Q 44.046875 -1.421875 31.78125 -1.421875 
Q 19.53125 -1.421875 13.0625 8.265625 
Q 6.59375 17.96875 6.59375 36.375 
Q 6.59375 54.828125 13.0625 64.515625 
Q 19.53125 74.21875 31.78125 74.21875 
z
" id="DejaVuSans-48"/>
       <path d="M 10.6875 12.40625 
L 21 12.40625 
L 21 0 
L 10.6875 0 
z
" id="DejaVuSans-46"/>
      </defs>
      <g transform="translate(62.568363 322.182437)scale(0.1 -0.1)">
       <use xlink:href="#DejaVuSans-48"/>
       <use x="63.623047" xlink:href="#DejaVuSans-46"/>
       <use x="95.410156" xlink:href="#DejaVuSans-48"/>
      </g>
     </g>
    </g>
    <g id="xtick_2">
     <g id="line2d_3">
      <path clip-path="url(#pfdaf0478f0)" d="M 136.775955 307.584 
L 136.775955 41.472 
" style="fill:none;stroke:#b0b0b0;stroke-linecap:square;stroke-width:0.8;"/>
     </g>
     <g id="line2d_4">
      <g>
       <use style="stroke:#000000;stroke-width:0.8;" x="136.775955" xlink:href="#m2c8cae7fe1" y="307.584"/>
      </g>
     </g>
     <g id="text_2">
      <!-- 0.2 -->
      <defs>
       <path d="M 19.1875 8.296875 
L 53.609375 8.296875 
L 53.609375 0 
L 7.328125 0 
L 7.328125 8.296875 
Q 12.9375 14.109375 22.625 23.890625 
Q 32.328125 33.6875 34.8125 36.53125 
Q 39.546875 41.84375 41.421875 45.53125 
Q 43.3125 49.21875 43.3125 52.78125 
Q 43.3125 58.59375 39.234375 62.25 
Q 35.15625 65.921875 28.609375 65.921875 
Q 23.96875 65.921875 18.8125 64.3125 
Q 13.671875 62.703125 7.8125 59.421875 
L 7.8125 69.390625 
Q 13.765625 71.78125 18.9375 73 
Q 24.125 74.21875 28.421875 74.21875 
Q 39.75 74.21875 46.484375 68.546875 
Q 53.21875 62.890625 53.21875 53.421875 
Q 53.21875 48.921875 51.53125 44.890625 
Q 49.859375 40.875 45.40625 35.40625 
Q 44.1875 33.984375 37.640625 27.21875 
Q 31.109375 20.453125 19.1875 8.296875 
z
" id="DejaVuSans-50"/>
      </defs>
      <g transform="translate(128.824393 322.182437)scale(0.1 -0.1)">
       <use xlink:href="#DejaVuSans-48"/>
       <use x="63.623047" xlink:href="#DejaVuSans-46"/>
       <use x="95.410156" xlink:href="#DejaVuSans-50"/>
      </g>
     </g>
    </g>
    <g id="xtick_3">
     <g id="line2d_5">
      <path clip-path="url(#pfdaf0478f0)" d="M 203.031985 307.584 
L 203.031985 41.472 
" style="fill:none;stroke:#b0b0b0;stroke-linecap:square;stroke-width:0.8;"/>
     </g>
     <g id="line2d_6">
      <g>
       <use style="stroke:#000000;stroke-width:0.8;" x="203.031985" xlink:href="#m2c8cae7fe1" y="307.584"/>
      </g>
     </g>
     <g id="text_3">
      <!-- 0.4 -->
      <defs>
       <path d="M 37.796875 64.3125 
L 12.890625 25.390625 
L 37.796875 25.390625 
z
M 35.203125 72.90625 
L 47.609375 72.90625 
L 47.609375 25.390625 
L 58.015625 25.390625 
L 58.015625 17.1875 
L 47.609375 17.1875 
L 47.609375 0 
L 37.796875 0 
L 37.796875 17.1875 
L 4.890625 17.1875 
L 4.890625 26.703125 
z
" id="DejaVuSans-52"/>
      </defs>
      <g transform="translate(195.080423 322.182437)scale(0.1 -0.1)">
       <use xlink:href="#DejaVuSans-48"/>
       <use x="63.623047" xlink:href="#DejaVuSans-46"/>
       <use x="95.410156" xlink:href="#DejaVuSans-52"/>
      </g>
     </g>
    </g>
    <g id="xtick_4">
     <g id="line2d_7">
      <path clip-path="url(#pfdaf0478f0)" d="M 269.288015 307.584 
L 269.288015 41.472 
" style="fill:none;stroke:#b0b0b0;stroke-linecap:square;stroke-width:0.8;"/>
     </g>
     <g id="line2d_8">
      <g>
       <use style="stroke:#000000;stroke-width:0.8;" x="269.288015" xlink:href="#m2c8cae7fe1" y="307.584"/>
      </g>
     </g>
     <g id="text_4">
      <!-- 0.6 -->
      <defs>
       <path d="M 33.015625 40.375 
Q 26.375 40.375 22.484375 35.828125 
Q 18.609375 31.296875 18.609375 23.390625 
Q 18.609375 15.53125 22.484375 10.953125 
Q 26.375 6.390625 33.015625 6.390625 
Q 39.65625 6.390625 43.53125 10.953125 
Q 47.40625 15.53125 47.40625 23.390625 
Q 47.40625 31.296875 43.53125 35.828125 
Q 39.65625 40.375 33.015625 40.375 
z
M 52.59375 71.296875 
L 52.59375 62.3125 
Q 48.875 64.0625 45.09375 64.984375 
Q 41.3125 65.921875 37.59375 65.921875 
Q 27.828125 65.921875 22.671875 59.328125 
Q 17.53125 52.734375 16.796875 39.40625 
Q 19.671875 43.65625 24.015625 45.921875 
Q 28.375 48.1875 33.59375 48.1875 
Q 44.578125 48.1875 50.953125 41.515625 
Q 57.328125 34.859375 57.328125 23.390625 
Q 57.328125 12.15625 50.6875 5.359375 
Q 44.046875 -1.421875 33.015625 -1.421875 
Q 20.359375 -1.421875 13.671875 8.265625 
Q 6.984375 17.96875 6.984375 36.375 
Q 6.984375 53.65625 15.1875 63.9375 
Q 23.390625 74.21875 37.203125 74.21875 
Q 40.921875 74.21875 44.703125 73.484375 
Q 48.484375 72.75 52.59375 71.296875 
z
" id="DejaVuSans-54"/>
      </defs>
      <g transform="translate(261.336452 322.182437)scale(0.1 -0.1)">
       <use xlink:href="#DejaVuSans-48"/>
       <use x="63.623047" xlink:href="#DejaVuSans-46"/>
       <use x="95.410156" xlink:href="#DejaVuSans-54"/>
      </g>
     </g>
    </g>
    <g id="xtick_5">
     <g id="line2d_9">
      <path clip-path="url(#pfdaf0478f0)" d="M 335.544045 307.584 
L 335.544045 41.472 
" style="fill:none;stroke:#b0b0b0;stroke-linecap:square;stroke-width:0.8;"/>
     </g>
     <g id="line2d_10">
      <g>
       <use style="stroke:#000000;stroke-width:0.8;" x="335.544045" xlink:href="#m2c8cae7fe1" y="307.584"/>
      </g>
     </g>
     <g id="text_5">
      <!-- 0.8 -->
      <defs>
       <path d="M 31.78125 34.625 
Q 24.75 34.625 20.71875 30.859375 
Q 16.703125 27.09375 16.703125 20.515625 
Q 16.703125 13.921875 20.71875 10.15625 
Q 24.75 6.390625 31.78125 6.390625 
Q 38.8125 6.390625 42.859375 10.171875 
Q 46.921875 13.96875 46.921875 20.515625 
Q 46.921875 27.09375 42.890625 30.859375 
Q 38.875 34.625 31.78125 34.625 
z
M 21.921875 38.8125 
Q 15.578125 40.375 12.03125 44.71875 
Q 8.5 49.078125 8.5 55.328125 
Q 8.5 64.0625 14.71875 69.140625 
Q 20.953125 74.21875 31.78125 74.21875 
Q 42.671875 74.21875 48.875 69.140625 
Q 55.078125 64.0625 55.078125 55.328125 
Q 55.078125 49.078125 51.53125 44.71875 
Q 48 40.375 41.703125 38.8125 
Q 48.828125 37.15625 52.796875 32.3125 
Q 56.78125 27.484375 56.78125 20.515625 
Q 56.78125 9.90625 50.3125 4.234375 
Q 43.84375 -1.421875 31.78125 -1.421875 
Q 19.734375 -1.421875 13.25 4.234375 
Q 6.78125 9.90625 6.78125 20.515625 
Q 6.78125 27.484375 10.78125 32.3125 
Q 14.796875 37.15625 21.921875 38.8125 
z
M 18.3125 54.390625 
Q 18.3125 48.734375 21.84375 45.5625 
Q 25.390625 42.390625 31.78125 42.390625 
Q 38.140625 42.390625 41.71875 45.5625 
Q 45.3125 48.734375 45.3125 54.390625 
Q 45.3125 60.0625 41.71875 63.234375 
Q 38.140625 66.40625 31.78125 66.40625 
Q 25.390625 66.40625 21.84375 63.234375 
Q 18.3125 60.0625 18.3125 54.390625 
z
" id="DejaVuSans-56"/>
      </defs>
      <g transform="translate(327.592482 322.182437)scale(0.1 -0.1)">
       <use xlink:href="#DejaVuSans-48"/>
       <use x="63.623047" xlink:href="#DejaVuSans-46"/>
       <use x="95.410156" xlink:href="#DejaVuSans-56"/>
      </g>
     </g>
    </g>
    <g id="xtick_6">
     <g id="line2d_11">
      <path clip-path="url(#pfdaf0478f0)" d="M 401.800074 307.584 
L 401.800074 41.472 
" style="fill:none;stroke:#b0b0b0;stroke-linecap:square;stroke-width:0.8;"/>
     </g>
     <g id="line2d_12">
      <g>
       <use style="stroke:#000000;stroke-width:0.8;" x="401.800074" xlink:href="#m2c8cae7fe1" y="307.584"/>
      </g>
     </g>
     <g id="text_6">
      <!-- 1.0 -->
      <defs>
       <path d="M 12.40625 8.296875 
L 28.515625 8.296875 
L 28.515625 63.921875 
L 10.984375 60.40625 
L 10.984375 69.390625 
L 28.421875 72.90625 
L 38.28125 72.90625 
L 38.28125 8.296875 
L 54.390625 8.296875 
L 54.390625 0 
L 12.40625 0 
z
" id="DejaVuSans-49"/>
      </defs>
      <g transform="translate(393.848512 322.182437)scale(0.1 -0.1)">
       <use xlink:href="#DejaVuSans-49"/>
       <use x="63.623047" xlink:href="#DejaVuSans-46"/>
       <use x="95.410156" xlink:href="#DejaVuSans-48"/>
      </g>
     </g>
    </g>
    <g id="text_7">
     <!-- $\mathrm{Time \ (seconds)}$ -->
     <defs>
      <path d="M -0.296875 72.90625 
L 61.375 72.90625 
L 61.375 64.59375 
L 35.5 64.59375 
L 35.5 0 
L 25.59375 0 
L 25.59375 64.59375 
L -0.296875 64.59375 
z
" id="DejaVuSans-84"/>
      <path d="M 9.421875 54.6875 
L 18.40625 54.6875 
L 18.40625 0 
L 9.421875 0 
z
M 9.421875 75.984375 
L 18.40625 75.984375 
L 18.40625 64.59375 
L 9.421875 64.59375 
z
" id="DejaVuSans-105"/>
      <path d="M 52 44.1875 
Q 55.375 50.25 60.0625 53.125 
Q 64.75 56 71.09375 56 
Q 79.640625 56 84.28125 50.015625 
Q 88.921875 44.046875 88.921875 33.015625 
L 88.921875 0 
L 79.890625 0 
L 79.890625 32.71875 
Q 79.890625 40.578125 77.09375 44.375 
Q 74.3125 48.1875 68.609375 48.1875 
Q 61.625 48.1875 57.5625 43.546875 
Q 53.515625 38.921875 53.515625 30.90625 
L 53.515625 0 
L 44.484375 0 
L 44.484375 32.71875 
Q 44.484375 40.625 41.703125 44.40625 
Q 38.921875 48.1875 33.109375 48.1875 
Q 26.21875 48.1875 22.15625 43.53125 
Q 18.109375 38.875 18.109375 30.90625 
L 18.109375 0 
L 9.078125 0 
L 9.078125 54.6875 
L 18.109375 54.6875 
L 18.109375 46.1875 
Q 21.1875 51.21875 25.484375 53.609375 
Q 29.78125 56 35.6875 56 
Q 41.65625 56 45.828125 52.96875 
Q 50 49.953125 52 44.1875 
z
" id="DejaVuSans-109"/>
      <path d="M 56.203125 29.59375 
L 56.203125 25.203125 
L 14.890625 25.203125 
Q 15.484375 15.921875 20.484375 11.0625 
Q 25.484375 6.203125 34.421875 6.203125 
Q 39.59375 6.203125 44.453125 7.46875 
Q 49.3125 8.734375 54.109375 11.28125 
L 54.109375 2.78125 
Q 49.265625 0.734375 44.1875 -0.34375 
Q 39.109375 -1.421875 33.890625 -1.421875 
Q 20.796875 -1.421875 13.15625 6.1875 
Q 5.515625 13.8125 5.515625 26.8125 
Q 5.515625 40.234375 12.765625 48.109375 
Q 20.015625 56 32.328125 56 
Q 43.359375 56 49.78125 48.890625 
Q 56.203125 41.796875 56.203125 29.59375 
z
M 47.21875 32.234375 
Q 47.125 39.59375 43.09375 43.984375 
Q 39.0625 48.390625 32.421875 48.390625 
Q 24.90625 48.390625 20.390625 44.140625 
Q 15.875 39.890625 15.1875 32.171875 
z
" id="DejaVuSans-101"/>
      <path d="M 31 75.875 
Q 24.46875 64.65625 21.28125 53.65625 
Q 18.109375 42.671875 18.109375 31.390625 
Q 18.109375 20.125 21.3125 9.0625 
Q 24.515625 -2 31 -13.1875 
L 23.1875 -13.1875 
Q 15.875 -1.703125 12.234375 9.375 
Q 8.59375 20.453125 8.59375 31.390625 
Q 8.59375 42.28125 12.203125 53.3125 
Q 15.828125 64.359375 23.1875 75.875 
z
" id="DejaVuSans-40"/>
      <path d="M 44.28125 53.078125 
L 44.28125 44.578125 
Q 40.484375 46.53125 36.375 47.5 
Q 32.28125 48.484375 27.875 48.484375 
Q 21.1875 48.484375 17.84375 46.4375 
Q 14.5 44.390625 14.5 40.28125 
Q 14.5 37.15625 16.890625 35.375 
Q 19.28125 33.59375 26.515625 31.984375 
L 29.59375 31.296875 
Q 39.15625 29.25 43.1875 25.515625 
Q 47.21875 21.78125 47.21875 15.09375 
Q 47.21875 7.46875 41.1875 3.015625 
Q 35.15625 -1.421875 24.609375 -1.421875 
Q 20.21875 -1.421875 15.453125 -0.5625 
Q 10.6875 0.296875 5.421875 2 
L 5.421875 11.28125 
Q 10.40625 8.6875 15.234375 7.390625 
Q 20.0625 6.109375 24.8125 6.109375 
Q 31.15625 6.109375 34.5625 8.28125 
Q 37.984375 10.453125 37.984375 14.40625 
Q 37.984375 18.0625 35.515625 20.015625 
Q 33.0625 21.96875 24.703125 23.78125 
L 21.578125 24.515625 
Q 13.234375 26.265625 9.515625 29.90625 
Q 5.8125 33.546875 5.8125 39.890625 
Q 5.8125 47.609375 11.28125 51.796875 
Q 16.75 56 26.8125 56 
Q 31.78125 56 36.171875 55.265625 
Q 40.578125 54.546875 44.28125 53.078125 
z
" id="DejaVuSans-115"/>
      <path d="M 48.78125 52.59375 
L 48.78125 44.1875 
Q 44.96875 46.296875 41.140625 47.34375 
Q 37.3125 48.390625 33.40625 48.390625 
Q 24.65625 48.390625 19.8125 42.84375 
Q 14.984375 37.3125 14.984375 27.296875 
Q 14.984375 17.28125 19.8125 11.734375 
Q 24.65625 6.203125 33.40625 6.203125 
Q 37.3125 6.203125 41.140625 7.25 
Q 44.96875 8.296875 48.78125 10.40625 
L 48.78125 2.09375 
Q 45.015625 0.34375 40.984375 -0.53125 
Q 36.96875 -1.421875 32.421875 -1.421875 
Q 20.0625 -1.421875 12.78125 6.34375 
Q 5.515625 14.109375 5.515625 27.296875 
Q 5.515625 40.671875 12.859375 48.328125 
Q 20.21875 56 33.015625 56 
Q 37.15625 56 41.109375 55.140625 
Q 45.0625 54.296875 48.78125 52.59375 
z
" id="DejaVuSans-99"/>
      <path d="M 30.609375 48.390625 
Q 23.390625 48.390625 19.1875 42.75 
Q 14.984375 37.109375 14.984375 27.296875 
Q 14.984375 17.484375 19.15625 11.84375 
Q 23.34375 6.203125 30.609375 6.203125 
Q 37.796875 6.203125 41.984375 11.859375 
Q 46.1875 17.53125 46.1875 27.296875 
Q 46.1875 37.015625 41.984375 42.703125 
Q 37.796875 48.390625 30.609375 48.390625 
z
M 30.609375 56 
Q 42.328125 56 49.015625 48.375 
Q 55.71875 40.765625 55.71875 27.296875 
Q 55.71875 13.875 49.015625 6.21875 
Q 42.328125 -1.421875 30.609375 -1.421875 
Q 18.84375 -1.421875 12.171875 6.21875 
Q 5.515625 13.875 5.515625 27.296875 
Q 5.515625 40.765625 12.171875 48.375 
Q 18.84375 56 30.609375 56 
z
" id="DejaVuSans-111"/>
      <path d="M 54.890625 33.015625 
L 54.890625 0 
L 45.90625 0 
L 45.90625 32.71875 
Q 45.90625 40.484375 42.875 44.328125 
Q 39.84375 48.1875 33.796875 48.1875 
Q 26.515625 48.1875 22.3125 43.546875 
Q 18.109375 38.921875 18.109375 30.90625 
L 18.109375 0 
L 9.078125 0 
L 9.078125 54.6875 
L 18.109375 54.6875 
L 18.109375 46.1875 
Q 21.34375 51.125 25.703125 53.5625 
Q 30.078125 56 35.796875 56 
Q 45.21875 56 50.046875 50.171875 
Q 54.890625 44.34375 54.890625 33.015625 
z
" id="DejaVuSans-110"/>
      <path d="M 45.40625 46.390625 
L 45.40625 75.984375 
L 54.390625 75.984375 
L 54.390625 0 
L 45.40625 0 
L 45.40625 8.203125 
Q 42.578125 3.328125 38.25 0.953125 
Q 33.9375 -1.421875 27.875 -1.421875 
Q 17.96875 -1.421875 11.734375 6.484375 
Q 5.515625 14.40625 5.515625 27.296875 
Q 5.515625 40.1875 11.734375 48.09375 
Q 17.96875 56 27.875 56 
Q 33.9375 56 38.25 53.625 
Q 42.578125 51.265625 45.40625 46.390625 
z
M 14.796875 27.296875 
Q 14.796875 17.390625 18.875 11.75 
Q 22.953125 6.109375 30.078125 6.109375 
Q 37.203125 6.109375 41.296875 11.75 
Q 45.40625 17.390625 45.40625 27.296875 
Q 45.40625 37.203125 41.296875 42.84375 
Q 37.203125 48.484375 30.078125 48.484375 
Q 22.953125 48.484375 18.875 42.84375 
Q 14.796875 37.203125 14.796875 27.296875 
z
" id="DejaVuSans-100"/>
      <path d="M 8.015625 75.875 
L 15.828125 75.875 
Q 23.140625 64.359375 26.78125 53.3125 
Q 30.421875 42.28125 30.421875 31.390625 
Q 30.421875 20.453125 26.78125 9.375 
Q 23.140625 -1.703125 15.828125 -13.1875 
L 8.015625 -13.1875 
Q 14.5 -2 17.703125 9.0625 
Q 20.90625 20.125 20.90625 31.390625 
Q 20.90625 42.671875 17.703125 53.65625 
Q 14.5 64.65625 8.015625 75.875 
z
" id="DejaVuSans-41"/>
     </defs>
     <g transform="translate(197.76 335.860562)scale(0.1 -0.1)">
      <use transform="translate(0 0.015625)" xlink:href="#DejaVuSans-84"/>
      <use transform="translate(61.083984 0.015625)" xlink:href="#DejaVuSans-105"/>
      <use transform="translate(88.867188 0.015625)" xlink:href="#DejaVuSans-109"/>
      <use transform="translate(186.279297 0.015625)" xlink:href="#DejaVuSans-101"/>
      <use transform="translate(280.273113 0.015625)" xlink:href="#DejaVuSans-40"/>
      <use transform="translate(319.286785 0.015625)" xlink:href="#DejaVuSans-115"/>
      <use transform="translate(371.386394 0.015625)" xlink:href="#DejaVuSans-101"/>
      <use transform="translate(432.909832 0.015625)" xlink:href="#DejaVuSans-99"/>
      <use transform="translate(487.8903 0.015625)" xlink:href="#DejaVuSans-111"/>
      <use transform="translate(549.071941 0.015625)" xlink:href="#DejaVuSans-110"/>
      <use transform="translate(612.450847 0.015625)" xlink:href="#DejaVuSans-100"/>
      <use transform="translate(675.92741 0.015625)" xlink:href="#DejaVuSans-115"/>
      <use transform="translate(728.027019 0.015625)" xlink:href="#DejaVuSans-41"/>
     </g>
    </g>
   </g>
   <g id="matplotlib.axis_2">
    <g id="ytick_1">
     <g id="line2d_13">
      <path clip-path="url(#pfdaf0478f0)" d="M 57.6 206.590462 
L 414.72 206.590462 
" style="fill:none;stroke:#b0b0b0;stroke-linecap:square;stroke-width:0.8;"/>
     </g>
     <g id="line2d_14">
      <defs>
       <path d="M 0 0 
L -3.5 0 
" id="m61b56191e7" style="stroke:#000000;stroke-width:0.8;"/>
      </defs>
      <g>
       <use style="stroke:#000000;stroke-width:0.8;" x="57.6" xlink:href="#m61b56191e7" y="206.590462"/>
      </g>
     </g>
     <g id="text_8">
      <!-- $\mathdefault{10^{-1}}$ -->
      <defs>
       <path d="M 10.59375 35.5 
L 73.1875 35.5 
L 73.1875 27.203125 
L 10.59375 27.203125 
z
" id="DejaVuSans-8722"/>
      </defs>
      <g transform="translate(27.1 210.389681)scale(0.1 -0.1)">
       <use transform="translate(0 0.684375)" xlink:href="#DejaVuSans-49"/>
       <use transform="translate(63.623047 0.684375)" xlink:href="#DejaVuSans-48"/>
       <use transform="translate(128.203125 38.965625)scale(0.7)" xlink:href="#DejaVuSans-8722"/>
       <use transform="translate(186.855469 38.965625)scale(0.7)" xlink:href="#DejaVuSans-49"/>
      </g>
     </g>
    </g>
    <g id="ytick_2">
     <g id="line2d_15">
      <defs>
       <path d="M 0 0 
L -2 0 
" id="mcbb41133bf" style="stroke:#000000;stroke-width:0.6;"/>
      </defs>
      <g>
       <use style="stroke:#000000;stroke-width:0.6;" x="57.6" xlink:href="#mcbb41133bf" y="294.715301"/>
      </g>
     </g>
    </g>
    <g id="ytick_3">
     <g id="line2d_16">
      <g>
       <use style="stroke:#000000;stroke-width:0.6;" x="57.6" xlink:href="#mcbb41133bf" y="273.254329"/>
      </g>
     </g>
    </g>
    <g id="ytick_4">
     <g id="line2d_17">
      <g>
       <use style="stroke:#000000;stroke-width:0.6;" x="57.6" xlink:href="#mcbb41133bf" y="255.719438"/>
      </g>
     </g>
    </g>
    <g id="ytick_5">
     <g id="line2d_18">
      <g>
       <use style="stroke:#000000;stroke-width:0.6;" x="57.6" xlink:href="#mcbb41133bf" y="240.8939"/>
      </g>
     </g>
    </g>
    <g id="ytick_6">
     <g id="line2d_19">
      <g>
       <use style="stroke:#000000;stroke-width:0.6;" x="57.6" xlink:href="#mcbb41133bf" y="228.051434"/>
      </g>
     </g>
    </g>
    <g id="ytick_7">
     <g id="line2d_20">
      <g>
       <use style="stroke:#000000;stroke-width:0.6;" x="57.6" xlink:href="#mcbb41133bf" y="216.723576"/>
      </g>
     </g>
    </g>
    <g id="ytick_8">
     <g id="line2d_21">
      <g>
       <use style="stroke:#000000;stroke-width:0.6;" x="57.6" xlink:href="#mcbb41133bf" y="139.926595"/>
      </g>
     </g>
    </g>
    <g id="ytick_9">
     <g id="line2d_22">
      <g>
       <use style="stroke:#000000;stroke-width:0.6;" x="57.6" xlink:href="#mcbb41133bf" y="100.930732"/>
      </g>
     </g>
    </g>
    <g id="ytick_10">
     <g id="line2d_23">
      <g>
       <use style="stroke:#000000;stroke-width:0.6;" x="57.6" xlink:href="#mcbb41133bf" y="73.262728"/>
      </g>
     </g>
    </g>
    <g id="ytick_11">
     <g id="line2d_24">
      <g>
       <use style="stroke:#000000;stroke-width:0.6;" x="57.6" xlink:href="#mcbb41133bf" y="51.801756"/>
      </g>
     </g>
    </g>
    <g id="text_9">
     <!-- $\mathrm{Relative \ error}$ ($N_{\mathrm{train}}=1$) -->
     <defs>
      <path d="M 44.390625 34.1875 
Q 47.5625 33.109375 50.5625 29.59375 
Q 53.5625 26.078125 56.59375 19.921875 
L 66.609375 0 
L 56 0 
L 46.6875 18.703125 
Q 43.0625 26.03125 39.671875 28.421875 
Q 36.28125 30.8125 30.421875 30.8125 
L 19.671875 30.8125 
L 19.671875 0 
L 9.8125 0 
L 9.8125 72.90625 
L 32.078125 72.90625 
Q 44.578125 72.90625 50.734375 67.671875 
Q 56.890625 62.453125 56.890625 51.90625 
Q 56.890625 45.015625 53.6875 40.46875 
Q 50.484375 35.9375 44.390625 34.1875 
z
M 19.671875 64.796875 
L 19.671875 38.921875 
L 32.078125 38.921875 
Q 39.203125 38.921875 42.84375 42.21875 
Q 46.484375 45.515625 46.484375 51.90625 
Q 46.484375 58.296875 42.84375 61.546875 
Q 39.203125 64.796875 32.078125 64.796875 
z
" id="DejaVuSans-82"/>
      <path d="M 9.421875 75.984375 
L 18.40625 75.984375 
L 18.40625 0 
L 9.421875 0 
z
" id="DejaVuSans-108"/>
      <path d="M 34.28125 27.484375 
Q 23.390625 27.484375 19.1875 25 
Q 14.984375 22.515625 14.984375 16.5 
Q 14.984375 11.71875 18.140625 8.90625 
Q 21.296875 6.109375 26.703125 6.109375 
Q 34.1875 6.109375 38.703125 11.40625 
Q 43.21875 16.703125 43.21875 25.484375 
L 43.21875 27.484375 
z
M 52.203125 31.203125 
L 52.203125 0 
L 43.21875 0 
L 43.21875 8.296875 
Q 40.140625 3.328125 35.546875 0.953125 
Q 30.953125 -1.421875 24.3125 -1.421875 
Q 15.921875 -1.421875 10.953125 3.296875 
Q 6 8.015625 6 15.921875 
Q 6 25.140625 12.171875 29.828125 
Q 18.359375 34.515625 30.609375 34.515625 
L 43.21875 34.515625 
L 43.21875 35.40625 
Q 43.21875 41.609375 39.140625 45 
Q 35.0625 48.390625 27.6875 48.390625 
Q 23 48.390625 18.546875 47.265625 
Q 14.109375 46.140625 10.015625 43.890625 
L 10.015625 52.203125 
Q 14.9375 54.109375 19.578125 55.046875 
Q 24.21875 56 28.609375 56 
Q 40.484375 56 46.34375 49.84375 
Q 52.203125 43.703125 52.203125 31.203125 
z
" id="DejaVuSans-97"/>
      <path d="M 18.3125 70.21875 
L 18.3125 54.6875 
L 36.8125 54.6875 
L 36.8125 47.703125 
L 18.3125 47.703125 
L 18.3125 18.015625 
Q 18.3125 11.328125 20.140625 9.421875 
Q 21.96875 7.515625 27.59375 7.515625 
L 36.8125 7.515625 
L 36.8125 0 
L 27.59375 0 
Q 17.1875 0 13.234375 3.875 
Q 9.28125 7.765625 9.28125 18.015625 
L 9.28125 47.703125 
L 2.6875 47.703125 
L 2.6875 54.6875 
L 9.28125 54.6875 
L 9.28125 70.21875 
z
" id="DejaVuSans-116"/>
      <path d="M 2.984375 54.6875 
L 12.5 54.6875 
L 29.59375 8.796875 
L 46.6875 54.6875 
L 56.203125 54.6875 
L 35.6875 0 
L 23.484375 0 
z
" id="DejaVuSans-118"/>
      <path d="M 41.109375 46.296875 
Q 39.59375 47.171875 37.8125 47.578125 
Q 36.03125 48 33.890625 48 
Q 26.265625 48 22.1875 43.046875 
Q 18.109375 38.09375 18.109375 28.8125 
L 18.109375 0 
L 9.078125 0 
L 9.078125 54.6875 
L 18.109375 54.6875 
L 18.109375 46.1875 
Q 20.953125 51.171875 25.484375 53.578125 
Q 30.03125 56 36.53125 56 
Q 37.453125 56 38.578125 55.875 
Q 39.703125 55.765625 41.0625 55.515625 
z
" id="DejaVuSans-114"/>
      <path id="DejaVuSans-32"/>
      <path d="M 16.890625 72.90625 
L 30.171875 72.90625 
L 50.296875 10.40625 
L 62.5 72.90625 
L 72.125 72.90625 
L 57.90625 0 
L 44.578125 0 
L 24.515625 62.890625 
L 12.3125 0 
L 2.6875 0 
z
" id="DejaVuSans-Oblique-78"/>
      <path d="M 10.59375 45.40625 
L 73.1875 45.40625 
L 73.1875 37.203125 
L 10.59375 37.203125 
z
M 10.59375 25.484375 
L 73.1875 25.484375 
L 73.1875 17.1875 
L 10.59375 17.1875 
z
" id="DejaVuSans-61"/>
     </defs>
     <g transform="translate(21.020312 235.678)rotate(-90)scale(0.1 -0.1)">
      <use transform="translate(0 0.015625)" xlink:href="#DejaVuSans-82"/>
      <use transform="translate(69.482422 0.015625)" xlink:href="#DejaVuSans-101"/>
      <use transform="translate(131.005859 0.015625)" xlink:href="#DejaVuSans-108"/>
      <use transform="translate(158.789062 0.015625)" xlink:href="#DejaVuSans-97"/>
      <use transform="translate(220.068359 0.015625)" xlink:href="#DejaVuSans-116"/>
      <use transform="translate(259.277344 0.015625)" xlink:href="#DejaVuSans-105"/>
      <use transform="translate(287.060547 0.015625)" xlink:href="#DejaVuSans-118"/>
      <use transform="translate(346.240234 0.015625)" xlink:href="#DejaVuSans-101"/>
      <use transform="translate(440.23405 0.015625)" xlink:href="#DejaVuSans-101"/>
      <use transform="translate(501.757488 0.015625)" xlink:href="#DejaVuSans-114"/>
      <use transform="translate(542.870769 0.015625)" xlink:href="#DejaVuSans-114"/>
      <use transform="translate(583.98405 0.015625)" xlink:href="#DejaVuSans-111"/>
      <use transform="translate(645.165691 0.015625)" xlink:href="#DejaVuSans-114"/>
      <use transform="translate(686.278972 0.015625)" xlink:href="#DejaVuSans-32"/>
      <use transform="translate(718.066082 0.015625)" xlink:href="#DejaVuSans-40"/>
      <use transform="translate(757.079753 0.015625)" xlink:href="#DejaVuSans-Oblique-78"/>
      <use transform="translate(831.884441 -16.390625)scale(0.7)" xlink:href="#DejaVuSans-116"/>
      <use transform="translate(859.33073 -16.390625)scale(0.7)" xlink:href="#DejaVuSans-114"/>
      <use transform="translate(888.110027 -16.390625)scale(0.7)" xlink:href="#DejaVuSans-97"/>
      <use transform="translate(931.005535 -16.390625)scale(0.7)" xlink:href="#DejaVuSans-105"/>
      <use transform="translate(950.453777 -16.390625)scale(0.7)" xlink:href="#DejaVuSans-110"/>
      <use transform="translate(1017.035808 0.015625)" xlink:href="#DejaVuSans-61"/>
      <use transform="translate(1120.307292 0.015625)" xlink:href="#DejaVuSans-49"/>
      <use transform="translate(1183.930339 0.015625)" xlink:href="#DejaVuSans-41"/>
     </g>
    </g>
   </g>
   <g id="line2d_25">
    <path clip-path="url(#pfdaf0478f0)" d="M 73.832724 286.507292 
L 77.145522 250.31053 
L 80.458321 223.70916 
L 83.771119 202.705714 
L 87.083917 185.523317 
L 90.396716 171.193831 
L 93.709554 159.102672 
L 97.022352 148.813508 
L 100.33515 139.994877 
L 103.647949 132.38679 
L 106.960747 125.782237 
L 110.273545 120.015039 
L 113.586344 114.951218 
L 116.899142 110.482205 
L 120.21194 106.519767 
L 123.524738 102.9917 
L 126.837537 99.838679 
L 130.150375 97.011778 
L 133.463173 94.470381 
L 136.775971 92.180824 
L 140.08877 90.115116 
L 143.401568 88.249905 
L 146.714366 86.565609 
L 150.027165 85.04594 
L 153.339963 83.67735 
L 156.652761 82.448657 
L 159.96556 81.350735 
L 163.278358 80.376209 
L 166.591156 79.519371 
L 169.903955 78.77602 
L 173.216753 78.143365 
L 176.529551 77.619845 
L 179.842389 77.205163 
L 183.155187 76.900227 
L 186.467986 76.706963 
L 189.780784 76.628292 
L 193.093582 76.668046 
L 196.406381 76.830931 
L 199.719179 77.12222 
L 203.031977 77.547354 
L 206.344776 78.111369 
L 209.657574 78.817416 
L 212.970412 79.664619 
L 216.28321 80.644822 
L 219.596008 81.738276 
L 232.847202 86.364712 
L 236.16 87.296421 
L 239.472798 88.038978 
L 242.785597 88.572718 
L 246.098395 88.897319 
L 249.411193 89.025616 
L 252.723992 88.977257 
L 256.03679 88.774245 
L 259.349588 88.438554 
L 262.662387 87.990795 
L 265.975185 87.44956 
L 272.600821 86.150378 
L 279.226418 84.647844 
L 289.164852 82.177247 
L 322.292835 73.657876 
L 332.23123 71.263919 
L 342.169625 68.99776 
L 352.10806 66.875395 
L 362.046455 64.911374 
L 371.984889 63.122403 
L 378.610486 62.037558 
L 385.236083 61.049061 
L 391.861679 60.168521 
L 398.487276 59.411495 
" style="fill:none;stroke:#ff0000;stroke-linecap:square;stroke-width:1.5;"/>
   </g>
   <g id="line2d_26">
    <path clip-path="url(#pfdaf0478f0)" d="M 73.832724 284.610613 
L 77.145522 248.457967 
L 80.458321 221.894975 
L 83.771119 200.924215 
L 87.083917 183.768453 
L 90.396716 169.459714 
L 93.709554 157.384245 
L 97.022352 147.106717 
L 100.33515 138.296727 
L 103.647949 130.695154 
L 106.960747 124.0958 
L 110.273545 118.333201 
L 113.586344 113.27397 
L 116.899142 108.809918 
L 120.21194 104.853056 
L 123.524738 101.331395 
L 126.837537 98.18583 
L 130.150375 95.367553 
L 133.463173 92.836027 
L 136.775971 90.557511 
L 140.08877 88.503862 
L 143.401568 86.65162 
L 146.714366 84.981157 
L 150.027165 83.476055 
L 153.339963 82.122624 
L 156.652761 80.909477 
L 159.96556 79.827292 
L 163.278358 78.868575 
L 166.591156 78.02755 
L 169.903955 77.299887 
L 173.216753 76.682643 
L 176.529551 76.174194 
L 179.842389 75.774225 
L 183.155187 75.483596 
L 186.467986 75.304155 
L 189.780784 75.238794 
L 193.093582 75.291325 
L 196.406381 75.46646 
L 199.719179 75.769628 
L 203.031977 76.206638 
L 206.344776 76.783282 
L 209.657574 77.50403 
L 212.970412 78.370426 
L 216.28321 79.377847 
L 219.596008 80.511028 
L 226.221605 83.013357 
L 229.534403 84.268114 
L 232.847202 85.431972 
L 236.16 86.440558 
L 239.472798 87.249429 
L 242.785597 87.838977 
L 246.098395 88.210622 
L 249.411193 88.379076 
L 252.723992 88.365585 
L 256.03679 88.193389 
L 259.349588 87.885307 
L 262.662387 87.462466 
L 265.975185 86.943913 
L 269.288023 86.346287 
L 275.913619 84.969907 
L 282.539216 83.426504 
L 292.477651 80.940547 
L 318.980037 74.169254 
L 328.918432 71.758615 
L 338.856827 69.46901 
L 348.795222 67.320139 
L 358.733656 65.330141 
L 368.672051 63.519002 
L 375.297688 62.423407 
L 381.923284 61.428897 
L 388.548881 60.548667 
L 395.174478 59.7998 
L 398.487276 59.481322 
" style="fill:none;stroke:#0000ff;stroke-linecap:square;stroke-width:1.5;"/>
   </g>
   <g id="line2d_27">
    <path clip-path="url(#pfdaf0478f0)" d="M 73.832724 287.783112 
L 77.145522 251.469135 
L 80.458321 224.74847 
L 83.771119 203.625886 
L 87.083917 186.326224 
L 90.396716 171.883162 
L 93.709554 159.683828 
L 97.022352 149.293525 
L 100.33515 140.381892 
L 103.647949 132.689348 
L 106.960747 126.008582 
L 110.273545 120.172932 
L 113.586344 115.047422 
L 116.899142 110.52212 
L 120.21194 106.507414 
L 123.524738 102.929971 
L 126.837537 99.729626 
L 130.150375 96.856893 
L 133.463173 94.270879 
L 136.775971 91.937612 
L 140.08877 89.828897 
L 143.401568 87.921261 
L 146.714366 86.195123 
L 150.027165 84.634269 
L 153.339963 83.225081 
L 156.652761 81.956205 
L 159.96556 80.818185 
L 163.278358 79.803267 
L 166.591156 78.905118 
L 169.903955 78.11895 
L 173.216753 77.441175 
L 176.529551 76.869497 
L 179.842389 76.402526 
L 183.155187 76.040064 
L 186.467986 75.782801 
L 189.780784 75.632462 
L 193.093582 75.591753 
L 196.406381 75.6644 
L 199.719179 75.855034 
L 203.031977 76.169076 
L 206.344776 76.612554 
L 209.657574 77.191808 
L 212.970412 77.912665 
L 216.28321 78.779321 
L 219.596008 79.791709 
L 222.908807 80.941657 
L 226.221605 82.207369 
L 236.16 86.219438 
L 239.472798 87.415509 
L 242.785597 88.44259 
L 246.098395 89.266221 
L 249.411193 89.874144 
L 252.723992 90.272138 
L 256.03679 90.477158 
L 259.349588 90.510999 
L 262.662387 90.396529 
L 265.975185 90.155612 
L 269.288023 89.808069 
L 272.600821 89.371583 
L 279.226418 88.291197 
L 285.852014 87.013579 
L 292.477651 85.611177 
L 305.728844 82.62698 
L 325.605634 78.137086 
L 335.544029 76.013611 
L 345.482424 74.024137 
L 355.420858 72.203997 
L 362.046455 71.103356 
L 368.672051 70.107899 
L 375.297688 69.232419 
L 381.923284 68.493875 
L 388.548881 67.911614 
L 395.174478 67.50784 
L 398.487276 67.380596 
" style="fill:none;stroke:#00ffff;stroke-linecap:square;stroke-width:1.5;"/>
   </g>
   <g id="patch_3">
    <path d="M 57.6 307.584 
L 57.6 41.472 
" style="fill:none;stroke:#000000;stroke-linecap:square;stroke-linejoin:miter;stroke-width:0.8;"/>
   </g>
   <g id="patch_4">
    <path d="M 414.72 307.584 
L 414.72 41.472 
" style="fill:none;stroke:#000000;stroke-linecap:square;stroke-linejoin:miter;stroke-width:0.8;"/>
   </g>
   <g id="patch_5">
    <path d="M 57.6 307.584 
L 414.72 307.584 
" style="fill:none;stroke:#000000;stroke-linecap:square;stroke-linejoin:miter;stroke-width:0.8;"/>
   </g>
   <g id="patch_6">
    <path d="M 57.6 41.472 
L 414.72 41.472 
" style="fill:none;stroke:#000000;stroke-linecap:square;stroke-linejoin:miter;stroke-width:0.8;"/>
   </g>
   <g id="legend_1">
    <g id="patch_7">
     <path d="M 282.559063 302.584 
L 407.72 302.584 
Q 409.72 302.584 409.72 300.584 
L 409.72 257.549625 
Q 409.72 255.549625 407.72 255.549625 
L 282.559063 255.549625 
Q 280.559063 255.549625 280.559063 257.549625 
L 280.559063 300.584 
Q 280.559063 302.584 282.559063 302.584 
z
" style="fill:#ffffff;opacity:0.8;stroke:#cccccc;stroke-linejoin:miter;"/>
    </g>
    <g id="line2d_28">
     <path d="M 284.559063 263.648062 
L 304.559063 263.648062 
" style="fill:none;stroke:#ff0000;stroke-linecap:square;stroke-width:1.5;"/>
    </g>
    <g id="line2d_29"/>
    <g id="text_10">
     <!-- No denoising -->
     <defs>
      <path d="M 9.8125 72.90625 
L 23.09375 72.90625 
L 55.421875 11.921875 
L 55.421875 72.90625 
L 64.984375 72.90625 
L 64.984375 0 
L 51.703125 0 
L 19.390625 60.984375 
L 19.390625 0 
L 9.8125 0 
z
" id="DejaVuSans-78"/>
      <path d="M 45.40625 27.984375 
Q 45.40625 37.75 41.375 43.109375 
Q 37.359375 48.484375 30.078125 48.484375 
Q 22.859375 48.484375 18.828125 43.109375 
Q 14.796875 37.75 14.796875 27.984375 
Q 14.796875 18.265625 18.828125 12.890625 
Q 22.859375 7.515625 30.078125 7.515625 
Q 37.359375 7.515625 41.375 12.890625 
Q 45.40625 18.265625 45.40625 27.984375 
z
M 54.390625 6.78125 
Q 54.390625 -7.171875 48.1875 -13.984375 
Q 42 -20.796875 29.203125 -20.796875 
Q 24.46875 -20.796875 20.265625 -20.09375 
Q 16.0625 -19.390625 12.109375 -17.921875 
L 12.109375 -9.1875 
Q 16.0625 -11.328125 19.921875 -12.34375 
Q 23.78125 -13.375 27.78125 -13.375 
Q 36.625 -13.375 41.015625 -8.765625 
Q 45.40625 -4.15625 45.40625 5.171875 
L 45.40625 9.625 
Q 42.625 4.78125 38.28125 2.390625 
Q 33.9375 0 27.875 0 
Q 17.828125 0 11.671875 7.65625 
Q 5.515625 15.328125 5.515625 27.984375 
Q 5.515625 40.671875 11.671875 48.328125 
Q 17.828125 56 27.875 56 
Q 33.9375 56 38.28125 53.609375 
Q 42.625 51.21875 45.40625 46.390625 
L 45.40625 54.6875 
L 54.390625 54.6875 
z
" id="DejaVuSans-103"/>
     </defs>
     <g transform="translate(312.559063 267.148062)scale(0.1 -0.1)">
      <use xlink:href="#DejaVuSans-78"/>
      <use x="74.804688" xlink:href="#DejaVuSans-111"/>
      <use x="135.986328" xlink:href="#DejaVuSans-32"/>
      <use x="167.773438" xlink:href="#DejaVuSans-100"/>
      <use x="231.25" xlink:href="#DejaVuSans-101"/>
      <use x="292.773438" xlink:href="#DejaVuSans-110"/>
      <use x="356.152344" xlink:href="#DejaVuSans-111"/>
      <use x="417.333984" xlink:href="#DejaVuSans-105"/>
      <use x="445.117188" xlink:href="#DejaVuSans-115"/>
      <use x="497.216797" xlink:href="#DejaVuSans-105"/>
      <use x="525" xlink:href="#DejaVuSans-110"/>
      <use x="588.378906" xlink:href="#DejaVuSans-103"/>
     </g>
    </g>
    <g id="line2d_30">
     <path d="M 284.559063 278.326188 
L 304.559063 278.326188 
" style="fill:none;stroke:#0000ff;stroke-linecap:square;stroke-width:1.5;"/>
    </g>
    <g id="line2d_31"/>
    <g id="text_11">
     <!-- With denoising -->
     <defs>
      <path d="M 3.328125 72.90625 
L 13.28125 72.90625 
L 28.609375 11.28125 
L 43.890625 72.90625 
L 54.984375 72.90625 
L 70.3125 11.28125 
L 85.59375 72.90625 
L 95.609375 72.90625 
L 77.296875 0 
L 64.890625 0 
L 49.515625 63.28125 
L 33.984375 0 
L 21.578125 0 
z
" id="DejaVuSans-87"/>
      <path d="M 54.890625 33.015625 
L 54.890625 0 
L 45.90625 0 
L 45.90625 32.71875 
Q 45.90625 40.484375 42.875 44.328125 
Q 39.84375 48.1875 33.796875 48.1875 
Q 26.515625 48.1875 22.3125 43.546875 
Q 18.109375 38.921875 18.109375 30.90625 
L 18.109375 0 
L 9.078125 0 
L 9.078125 75.984375 
L 18.109375 75.984375 
L 18.109375 46.1875 
Q 21.34375 51.125 25.703125 53.5625 
Q 30.078125 56 35.796875 56 
Q 45.21875 56 50.046875 50.171875 
Q 54.890625 44.34375 54.890625 33.015625 
z
" id="DejaVuSans-104"/>
     </defs>
     <g transform="translate(312.559063 281.826188)scale(0.1 -0.1)">
      <use xlink:href="#DejaVuSans-87"/>
      <use x="98.845703" xlink:href="#DejaVuSans-105"/>
      <use x="126.628906" xlink:href="#DejaVuSans-116"/>
      <use x="165.837891" xlink:href="#DejaVuSans-104"/>
      <use x="229.216797" xlink:href="#DejaVuSans-32"/>
      <use x="261.003906" xlink:href="#DejaVuSans-100"/>
      <use x="324.480469" xlink:href="#DejaVuSans-101"/>
      <use x="386.003906" xlink:href="#DejaVuSans-110"/>
      <use x="449.382812" xlink:href="#DejaVuSans-111"/>
      <use x="510.564453" xlink:href="#DejaVuSans-105"/>
      <use x="538.347656" xlink:href="#DejaVuSans-115"/>
      <use x="590.447266" xlink:href="#DejaVuSans-105"/>
      <use x="618.230469" xlink:href="#DejaVuSans-110"/>
      <use x="681.609375" xlink:href="#DejaVuSans-103"/>
     </g>
    </g>
    <g id="line2d_32">
     <path d="M 284.559063 293.004312 
L 304.559063 293.004312 
" style="fill:none;stroke:#00ffff;stroke-linecap:square;stroke-width:1.5;"/>
    </g>
    <g id="line2d_33"/>
    <g id="text_12">
     <!-- With big denoising -->
     <defs>
      <path d="M 48.6875 27.296875 
Q 48.6875 37.203125 44.609375 42.84375 
Q 40.53125 48.484375 33.40625 48.484375 
Q 26.265625 48.484375 22.1875 42.84375 
Q 18.109375 37.203125 18.109375 27.296875 
Q 18.109375 17.390625 22.1875 11.75 
Q 26.265625 6.109375 33.40625 6.109375 
Q 40.53125 6.109375 44.609375 11.75 
Q 48.6875 17.390625 48.6875 27.296875 
z
M 18.109375 46.390625 
Q 20.953125 51.265625 25.265625 53.625 
Q 29.59375 56 35.59375 56 
Q 45.5625 56 51.78125 48.09375 
Q 58.015625 40.1875 58.015625 27.296875 
Q 58.015625 14.40625 51.78125 6.484375 
Q 45.5625 -1.421875 35.59375 -1.421875 
Q 29.59375 -1.421875 25.265625 0.953125 
Q 20.953125 3.328125 18.109375 8.203125 
L 18.109375 0 
L 9.078125 0 
L 9.078125 75.984375 
L 18.109375 75.984375 
z
" id="DejaVuSans-98"/>
     </defs>
     <g transform="translate(312.559063 296.504312)scale(0.1 -0.1)">
      <use xlink:href="#DejaVuSans-87"/>
      <use x="98.845703" xlink:href="#DejaVuSans-105"/>
      <use x="126.628906" xlink:href="#DejaVuSans-116"/>
      <use x="165.837891" xlink:href="#DejaVuSans-104"/>
      <use x="229.216797" xlink:href="#DejaVuSans-32"/>
      <use x="261.003906" xlink:href="#DejaVuSans-98"/>
      <use x="324.480469" xlink:href="#DejaVuSans-105"/>
      <use x="352.263672" xlink:href="#DejaVuSans-103"/>
      <use x="415.740234" xlink:href="#DejaVuSans-32"/>
      <use x="447.527344" xlink:href="#DejaVuSans-100"/>
      <use x="511.003906" xlink:href="#DejaVuSans-101"/>
      <use x="572.527344" xlink:href="#DejaVuSans-110"/>
      <use x="635.90625" xlink:href="#DejaVuSans-111"/>
      <use x="697.087891" xlink:href="#DejaVuSans-105"/>
      <use x="724.871094" xlink:href="#DejaVuSans-115"/>
      <use x="776.970703" xlink:href="#DejaVuSans-105"/>
      <use x="804.753906" xlink:href="#DejaVuSans-110"/>
      <use x="868.132812" xlink:href="#DejaVuSans-103"/>
     </g>
    </g>
   </g>
  </g>
 </g>
 <defs>
  <clipPath id="pfdaf0478f0">
   <rect height="266.112" width="357.12" x="57.6" y="41.472"/>
  </clipPath>
 </defs>
</svg>
