<?xml version="1.0" encoding="utf-8" standalone="no"?>
<!DOCTYPE svg PUBLIC "-//W3C//DTD SVG 1.1//EN"
  "http://www.w3.org/Graphics/SVG/1.1/DTD/svg11.dtd">
<!-- Created with matplotlib (https://matplotlib.org/) -->
<svg height="345.6pt" version="1.1" viewBox="0 0 460.8 345.6" width="460.8pt" xmlns="http://www.w3.org/2000/svg" xmlns:xlink="http://www.w3.org/1999/xlink">
 <defs>
  <style type="text/css">
*{stroke-linecap:butt;stroke-linejoin:round;white-space:pre;}
  </style>
 </defs>
 <g id="figure_1">
  <g id="patch_1">
   <path d="M 0 345.6 
L 460.8 345.6 
L 460.8 0 
L 0 0 
z
" style="fill:#ffffff;"/>
  </g>
  <g id="axes_1">
   <g id="patch_2">
    <path d="M 57.6 307.584 
L 414.72 307.584 
L 414.72 41.472 
L 57.6 41.472 
z
" style="fill:#ffffff;"/>
   </g>
   <g id="PolyCollection_1">
    <path clip-path="url(#p7cd7376c09)" d="M 73.832727 213.11925 
L 73.832727 257.770091 
L 77.145529 235.708035 
L 80.45833 219.082212 
L 83.771132 205.746579 
L 87.083933 194.799617 
L 90.396735 185.668627 
L 93.709536 177.952738 
L 97.022338 171.357723 
L 100.335139 165.636958 
L 103.647941 160.59823 
L 106.960742 156.095056 
L 110.273544 152.017049 
L 113.586345 148.282673 
L 116.899147 144.825849 
L 120.211948 141.590494 
L 123.52475 138.531197 
L 126.837551 135.61589 
L 130.150353 132.829651 
L 133.463154 130.168562 
L 136.775955 127.629125 
L 140.088757 125.203247 
L 143.401558 122.882504 
L 146.71436 120.663833 
L 150.027161 118.543119 
L 153.339963 116.516188 
L 156.652764 114.584809 
L 159.965566 112.754523 
L 163.278367 111.037889 
L 166.591169 109.443496 
L 169.90397 107.979453 
L 173.216772 106.649244 
L 176.529573 105.44628 
L 179.842375 104.357008 
L 183.155176 103.36866 
L 186.467978 102.47363 
L 189.780779 101.668446 
L 193.093581 100.939871 
L 196.406382 100.278052 
L 199.719184 99.679848 
L 203.031985 99.136245 
L 206.344787 98.643042 
L 209.657588 98.198797 
L 212.97039 97.802625 
L 216.283191 97.450719 
L 219.595993 97.141547 
L 222.908794 96.873376 
L 226.221596 96.641236 
L 229.534397 96.440206 
L 232.847199 96.264952 
L 236.16 96.10857 
L 239.472801 95.963313 
L 242.785603 95.821349 
L 246.098404 95.681871 
L 249.411206 95.5485 
L 252.724007 95.422186 
L 256.036809 95.300959 
L 259.34961 95.18033 
L 262.662412 95.055001 
L 265.975213 94.919945 
L 269.288015 94.771344 
L 272.600816 94.607973 
L 275.913618 94.431982 
L 279.226419 94.245248 
L 282.539221 94.049136 
L 285.852022 93.845538 
L 289.164824 93.636772 
L 292.477625 93.425445 
L 295.790427 93.214327 
L 299.103228 93.006162 
L 302.41603 92.803307 
L 305.728831 92.607494 
L 309.041633 92.41964 
L 312.354434 92.240248 
L 315.667236 92.068768 
L 318.980037 91.906108 
L 322.292839 91.753992 
L 325.60564 91.613124 
L 328.918442 91.484669 
L 332.231243 91.370744 
L 335.544045 91.270811 
L 338.856846 91.182183 
L 342.169647 91.104942 
L 345.482449 91.041703 
L 348.79525 90.994544 
L 352.108052 90.96825 
L 355.420853 90.968595 
L 358.733655 90.999389 
L 362.046456 91.060445 
L 365.359258 91.151094 
L 368.672059 91.27204 
L 371.984861 91.422189 
L 375.297662 91.596174 
L 378.610464 91.784985 
L 381.923265 91.980487 
L 385.236067 92.174948 
L 388.548868 92.359069 
L 391.86167 92.522195 
L 395.174471 92.657282 
L 398.487273 92.760039 
L 398.487273 57.206943 
L 398.487273 57.206943 
L 395.174471 57.06711 
L 391.86167 56.861389 
L 388.548868 56.594555 
L 385.236067 56.277012 
L 381.923265 55.924639 
L 378.610464 55.555532 
L 375.297662 55.186976 
L 371.984861 54.835169 
L 368.672059 54.513578 
L 365.359258 54.232211 
L 362.046456 53.998804 
L 358.733655 53.816163 
L 355.420853 53.684606 
L 352.108052 53.603138 
L 348.79525 53.568 
L 345.482449 53.575494 
L 342.169647 53.62307 
L 338.856846 53.708583 
L 335.544045 53.829349 
L 332.231243 53.982685 
L 328.918442 54.167087 
L 325.60564 54.382211 
L 322.292839 54.628175 
L 318.980037 54.904902 
L 315.667236 55.212407 
L 312.354434 55.551069 
L 309.041633 55.921656 
L 305.728831 56.325359 
L 302.41603 56.763552 
L 299.103228 57.237669 
L 295.790427 57.749138 
L 292.477625 58.299324 
L 289.164824 58.889641 
L 285.852022 59.52131 
L 282.539221 60.195202 
L 279.226419 60.912213 
L 275.913618 61.673093 
L 272.600816 62.478336 
L 269.288015 63.328076 
L 265.975213 64.221757 
L 262.662412 65.15807 
L 259.34961 66.135013 
L 256.036809 67.149938 
L 252.724007 68.199614 
L 249.411206 69.280432 
L 246.098404 70.388792 
L 242.785603 71.521083 
L 239.472801 72.673523 
L 236.16 73.842316 
L 232.847199 75.024102 
L 229.534397 76.216022 
L 226.221596 77.415888 
L 222.908794 78.622408 
L 219.595993 79.835051 
L 216.283191 81.054009 
L 212.97039 82.280016 
L 209.657588 83.514629 
L 206.344787 84.760191 
L 203.031985 86.020015 
L 199.719184 87.297548 
L 196.406382 88.595025 
L 193.093581 89.913731 
L 189.780779 91.253482 
L 186.467978 92.616217 
L 183.155176 94.005036 
L 179.842375 95.422592 
L 176.529573 96.870452 
L 173.216772 98.345629 
L 169.90397 99.839071 
L 166.591169 101.336398 
L 163.278367 102.816565 
L 159.965566 104.2602 
L 156.652764 105.656392 
L 153.339963 106.997264 
L 150.027161 108.28283 
L 146.71436 109.512546 
L 143.401558 110.696165 
L 140.088757 111.849571 
L 136.775955 112.997377 
L 133.463154 114.163883 
L 130.150353 115.362307 
L 126.837551 116.600714 
L 123.52475 117.889094 
L 120.211948 119.254925 
L 116.899147 120.742063 
L 113.586345 122.402949 
L 110.273544 124.303362 
L 106.960742 126.526899 
L 103.647941 129.183642 
L 100.335139 132.422997 
L 97.022338 136.440787 
L 93.709536 141.453518 
L 90.396735 147.699612 
L 87.083933 155.465509 
L 83.771132 165.106028 
L 80.45833 177.119389 
L 77.145529 192.395926 
L 73.832727 213.11925 
z
" style="fill:#ff0000;fill-opacity:0.4;"/>
   </g>
   <g id="PolyCollection_2">
    <path clip-path="url(#p7cd7376c09)" d="M 73.832727 206.415659 
L 73.832727 245.884047 
L 77.145529 224.714447 
L 80.45833 209.175395 
L 83.771132 197.006141 
L 87.083933 187.234505 
L 90.396735 179.306228 
L 93.709536 172.830116 
L 97.022338 167.495774 
L 100.335139 163.048051 
L 103.647941 159.274564 
L 106.960742 156.004026 
L 110.273544 153.103787 
L 113.586345 150.47251 
L 116.899147 148.032607 
L 120.211948 145.740301 
L 123.52475 143.569086 
L 126.837551 141.50241 
L 130.150353 139.523198 
L 133.463154 137.613417 
L 136.775955 135.753392 
L 140.088757 133.925435 
L 143.401558 132.123162 
L 146.71436 130.345625 
L 150.027161 128.593975 
L 153.339963 126.86923 
L 156.652764 125.171848 
L 159.965566 123.505609 
L 163.278367 121.874737 
L 166.591169 120.283909 
L 169.90397 118.735692 
L 173.216772 117.232409 
L 176.529573 115.775191 
L 179.842375 114.36207 
L 183.155176 112.988107 
L 186.467978 111.648267 
L 189.780779 110.338806 
L 193.093581 109.057168 
L 196.406382 107.803203 
L 199.719184 106.577219 
L 203.031985 105.378852 
L 206.344787 104.208055 
L 209.657588 103.065319 
L 212.97039 101.950583 
L 216.283191 100.862643 
L 219.595993 99.79881 
L 222.908794 98.754937 
L 226.221596 97.726786 
L 229.534397 96.710886 
L 232.847199 95.704062 
L 236.16 94.704192 
L 239.472801 93.711594 
L 242.785603 92.728067 
L 246.098404 91.756495 
L 249.411206 90.80066 
L 252.724007 89.865603 
L 256.036809 88.957029 
L 259.34961 88.080493 
L 262.662412 87.241301 
L 265.975213 86.444146 
L 269.288015 85.693544 
L 272.600816 84.993294 
L 275.913618 84.346157 
L 279.226419 83.753702 
L 282.539221 83.21603 
L 285.852022 82.731636 
L 289.164824 82.297477 
L 292.477625 81.909179 
L 295.790427 81.561372 
L 299.103228 81.24812 
L 302.41603 80.963401 
L 305.728831 80.701291 
L 309.041633 80.456101 
L 312.354434 80.222534 
L 315.667236 79.995815 
L 318.980037 79.772518 
L 322.292839 79.549944 
L 325.60564 79.32609 
L 328.918442 79.100259 
L 332.231243 78.871955 
L 335.544045 78.640371 
L 338.856846 78.405096 
L 342.169647 78.166203 
L 345.482449 77.923586 
L 348.79525 77.67959 
L 352.108052 77.436903 
L 355.420853 77.196512 
L 358.733655 76.957312 
L 362.046456 76.718558 
L 365.359258 76.481362 
L 368.672059 76.246805 
L 371.984861 76.015395 
L 375.297662 75.787611 
L 378.610464 75.563628 
L 381.923265 75.343813 
L 385.236067 75.127737 
L 388.548868 74.91534 
L 391.86167 74.707335 
L 395.174471 74.504184 
L 398.487273 74.306166 
L 398.487273 68.474058 
L 398.487273 68.474058 
L 395.174471 68.450782 
L 391.86167 68.451136 
L 388.548868 68.478405 
L 385.236067 68.534405 
L 381.923265 68.619889 
L 378.610464 68.73478 
L 375.297662 68.878473 
L 371.984861 69.049941 
L 368.672059 69.247758 
L 365.359258 69.469756 
L 362.046456 69.713876 
L 358.733655 69.977867 
L 355.420853 70.259686 
L 352.108052 70.558022 
L 348.79525 70.871749 
L 345.482449 71.199724 
L 342.169647 71.540851 
L 338.856846 71.894288 
L 335.544045 72.25925 
L 332.231243 72.634053 
L 328.918442 73.01677 
L 325.60564 73.405327 
L 322.292839 73.797107 
L 318.980037 74.189526 
L 315.667236 74.580227 
L 312.354434 74.966595 
L 309.041633 75.346004 
L 305.728831 75.716347 
L 302.41603 76.075497 
L 299.103228 76.421179 
L 295.790427 76.750889 
L 292.477625 77.06213 
L 289.164824 77.353015 
L 285.852022 77.622729 
L 282.539221 77.871829 
L 279.226419 78.102376 
L 275.913618 78.317563 
L 272.600816 78.521373 
L 269.288015 78.718624 
L 265.975213 78.914821 
L 262.662412 79.115931 
L 259.34961 79.328339 
L 256.036809 79.559191 
L 252.724007 79.815208 
L 249.411206 80.101264 
L 246.098404 80.420175 
L 242.785603 80.773251 
L 239.472801 81.16062 
L 236.16 81.580789 
L 232.847199 82.030467 
L 229.534397 82.505567 
L 226.221596 83.002101 
L 222.908794 83.51753 
L 219.595993 84.05243 
L 216.283191 84.607731 
L 212.97039 85.184453 
L 209.657588 85.784522 
L 206.344787 86.410998 
L 203.031985 87.067164 
L 199.719184 87.758481 
L 196.406382 88.492607 
L 193.093581 89.275248 
L 189.780779 90.103667 
L 186.467978 90.975141 
L 183.155176 91.889459 
L 179.842375 92.845382 
L 176.529573 93.84512 
L 173.216772 94.884155 
L 169.90397 95.957976 
L 166.591169 97.064449 
L 163.278367 98.203653 
L 159.965566 99.36415 
L 156.652764 100.534163 
L 153.339963 101.70298 
L 150.027161 102.868838 
L 146.71436 104.035976 
L 143.401558 105.204933 
L 140.088757 106.363652 
L 136.775955 107.489771 
L 133.463154 108.557692 
L 130.150353 109.573213 
L 126.837551 110.564591 
L 123.52475 111.570634 
L 120.211948 112.643683 
L 116.899147 113.853766 
L 113.586345 115.284629 
L 110.273544 117.021096 
L 106.960742 119.153646 
L 103.647941 121.78949 
L 100.335139 125.059523 
L 97.022338 129.121463 
L 93.709536 134.171598 
L 90.396735 140.454719 
L 87.083933 148.272057 
L 83.771132 157.9983 
L 80.45833 170.152803 
L 77.145529 185.605132 
L 73.832727 206.415659 
z
" style="fill:#0000ff;fill-opacity:0.4;"/>
   </g>
   <g id="PolyCollection_3">
    <path clip-path="url(#p7cd7376c09)" d="M 73.832727 223.191342 
L 73.832727 295.488 
L 77.145529 273.27684 
L 80.45833 256.473711 
L 83.771132 242.982838 
L 87.083933 231.885997 
L 90.396735 222.683212 
L 93.709536 215.037987 
L 97.022338 208.651548 
L 100.335139 203.254066 
L 103.647941 198.613802 
L 106.960742 194.54314 
L 110.273544 190.89654 
L 113.586345 187.579591 
L 116.899147 184.546772 
L 120.211948 181.780481 
L 123.52475 179.277255 
L 126.837551 177.034002 
L 130.150353 175.04992 
L 133.463154 173.322924 
L 136.775955 171.845058 
L 140.088757 170.614855 
L 143.401558 169.638739 
L 146.71436 168.928446 
L 150.027161 168.491066 
L 153.339963 168.31146 
L 156.652764 168.338619 
L 159.965566 168.498623 
L 163.278367 168.700792 
L 166.591169 168.857751 
L 169.90397 168.909397 
L 173.216772 168.828567 
L 176.529573 168.610845 
L 179.842375 168.259508 
L 183.155176 167.777369 
L 186.467978 167.174859 
L 189.780779 166.471528 
L 193.093581 165.697728 
L 196.406382 164.881826 
L 199.719184 164.042562 
L 203.031985 163.187403 
L 206.344787 162.317058 
L 209.657588 161.427283 
L 212.97039 160.510485 
L 216.283191 159.560429 
L 219.595993 158.572403 
L 222.908794 157.542789 
L 226.221596 156.469387 
L 229.534397 155.353345 
L 232.847199 154.197771 
L 236.16 153.008587 
L 239.472801 151.792894 
L 242.785603 150.557829 
L 246.098404 149.311774 
L 249.411206 148.064294 
L 252.724007 146.824986 
L 256.036809 145.602912 
L 259.34961 144.406359 
L 262.662412 143.242442 
L 265.975213 142.116675 
L 269.288015 141.033175 
L 272.600816 139.994732 
L 275.913618 139.002627 
L 279.226419 138.056805 
L 282.539221 137.156022 
L 285.852022 136.297546 
L 289.164824 135.476955 
L 292.477625 134.688788 
L 295.790427 133.926804 
L 299.103228 133.18423 
L 302.41603 132.454454 
L 305.728831 131.731648 
L 309.041633 131.011068 
L 312.354434 130.289493 
L 315.667236 129.565622 
L 318.980037 128.839649 
L 322.292839 128.113084 
L 325.60564 127.38877 
L 328.918442 126.671589 
L 332.231243 125.967546 
L 335.544045 125.282506 
L 338.856846 124.620895 
L 342.169647 123.985783 
L 345.482449 123.379811 
L 348.79525 122.805496 
L 352.108052 122.264103 
L 355.420853 121.755348 
L 358.733655 121.278225 
L 362.046456 120.832122 
L 365.359258 120.416743 
L 368.672059 120.032735 
L 371.984861 119.680546 
L 375.297662 119.361105 
L 378.610464 119.074773 
L 381.923265 118.819981 
L 385.236067 118.592219 
L 388.548868 118.383563 
L 391.86167 118.183686 
L 395.174471 117.981015 
L 398.487273 117.763517 
L 398.487273 89.55361 
L 398.487273 89.55361 
L 395.174471 89.623895 
L 391.86167 89.692425 
L 388.548868 89.763436 
L 385.236067 89.840643 
L 381.923265 89.927172 
L 378.610464 90.02547 
L 375.297662 90.136834 
L 371.984861 90.26118 
L 368.672059 90.397357 
L 365.359258 90.543656 
L 362.046456 90.697816 
L 358.733655 90.856989 
L 355.420853 91.018323 
L 352.108052 91.179661 
L 348.79525 91.340464 
L 345.482449 91.500163 
L 342.169647 91.658094 
L 338.856846 91.814016 
L 335.544045 91.968812 
L 332.231243 92.123979 
L 328.918442 92.280487 
L 325.60564 92.438719 
L 322.292839 92.598505 
L 318.980037 92.759151 
L 315.667236 92.919719 
L 312.354434 93.078862 
L 309.041633 93.235313 
L 305.728831 93.388021 
L 302.41603 93.536404 
L 299.103228 93.680399 
L 295.790427 93.820102 
L 292.477625 93.955758 
L 289.164824 94.087634 
L 285.852022 94.215913 
L 282.539221 94.34119 
L 279.226419 94.464184 
L 275.913618 94.585352 
L 272.600816 94.705482 
L 269.288015 94.826216 
L 265.975213 94.950025 
L 262.662412 95.08043 
L 259.34961 95.221365 
L 256.036809 95.377359 
L 252.724007 95.553409 
L 249.411206 95.754961 
L 246.098404 95.98755 
L 242.785603 96.256235 
L 239.472801 96.56465 
L 236.16 96.916153 
L 232.847199 97.313401 
L 229.534397 97.75879 
L 226.221596 98.256341 
L 222.908794 98.810325 
L 219.595993 99.42409 
L 216.283191 100.099757 
L 212.97039 100.837782 
L 209.657588 101.636868 
L 206.344787 102.494277 
L 203.031985 103.405625 
L 199.719184 104.363684 
L 196.406382 105.360265 
L 193.093581 106.38716 
L 189.780779 107.434467 
L 186.467978 108.490866 
L 183.155176 109.544192 
L 179.842375 110.58182 
L 176.529573 111.592406 
L 173.216772 112.564049 
L 169.90397 113.481125 
L 166.591169 114.325493 
L 163.278367 115.083466 
L 159.965566 115.758522 
L 156.652764 116.374207 
L 153.339963 116.964667 
L 150.027161 117.560678 
L 146.71436 118.185564 
L 143.401558 118.850466 
L 140.088757 119.561547 
L 136.775955 120.323921 
L 133.463154 121.147311 
L 130.150353 122.048522 
L 126.837551 123.053105 
L 123.52475 124.185532 
L 120.211948 125.471569 
L 116.899147 126.94171 
L 113.586345 128.63005 
L 110.273544 130.586353 
L 106.960742 132.89182 
L 103.647941 135.659935 
L 100.335139 139.034351 
L 97.022338 143.187626 
L 93.709536 148.335129 
L 90.396735 154.742946 
L 87.083933 162.736034 
L 83.771132 172.718197 
L 80.45833 185.254324 
L 77.145529 201.332851 
L 73.832727 223.191342 
z
" style="fill:#00ffff;fill-opacity:0.4;"/>
   </g>
   <g id="matplotlib.axis_1">
    <g id="xtick_1">
     <g id="line2d_1">
      <path clip-path="url(#p7cd7376c09)" d="M 70.519926 307.584 
L 70.519926 41.472 
" style="fill:none;stroke:#b0b0b0;stroke-linecap:square;stroke-width:0.8;"/>
     </g>
     <g id="line2d_2">
      <defs>
       <path d="M 0 0 
L 0 3.5 
" id="mdd89e306fc" style="stroke:#000000;stroke-width:0.8;"/>
      </defs>
      <g>
       <use style="stroke:#000000;stroke-width:0.8;" x="70.519926" xlink:href="#mdd89e306fc" y="307.584"/>
      </g>
     </g>
     <g id="text_1">
      <!-- 0.0 -->
      <defs>
       <path d="M 31.78125 66.40625 
Q 24.171875 66.40625 20.328125 58.90625 
Q 16.5 51.421875 16.5 36.375 
Q 16.5 21.390625 20.328125 13.890625 
Q 24.171875 6.390625 31.78125 6.390625 
Q 39.453125 6.390625 43.28125 13.890625 
Q 47.125 21.390625 47.125 36.375 
Q 47.125 51.421875 43.28125 58.90625 
Q 39.453125 66.40625 31.78125 66.40625 
z
M 31.78125 74.21875 
Q 44.046875 74.21875 50.515625 64.515625 
Q 56.984375 54.828125 56.984375 36.375 
Q 56.984375 17.96875 50.515625 8.265625 
Q 44.046875 -1.421875 31.78125 -1.421875 
Q 19.53125 -1.421875 13.0625 8.265625 
Q 6.59375 17.96875 6.59375 36.375 
Q 6.59375 54.828125 13.0625 64.515625 
Q 19.53125 74.21875 31.78125 74.21875 
z
" id="DejaVuSans-48"/>
       <path d="M 10.6875 12.40625 
L 21 12.40625 
L 21 0 
L 10.6875 0 
z
" id="DejaVuSans-46"/>
      </defs>
      <g transform="translate(62.568363 322.182437)scale(0.1 -0.1)">
       <use xlink:href="#DejaVuSans-48"/>
       <use x="63.623047" xlink:href="#DejaVuSans-46"/>
       <use x="95.410156" xlink:href="#DejaVuSans-48"/>
      </g>
     </g>
    </g>
    <g id="xtick_2">
     <g id="line2d_3">
      <path clip-path="url(#p7cd7376c09)" d="M 136.775955 307.584 
L 136.775955 41.472 
" style="fill:none;stroke:#b0b0b0;stroke-linecap:square;stroke-width:0.8;"/>
     </g>
     <g id="line2d_4">
      <g>
       <use style="stroke:#000000;stroke-width:0.8;" x="136.775955" xlink:href="#mdd89e306fc" y="307.584"/>
      </g>
     </g>
     <g id="text_2">
      <!-- 0.2 -->
      <defs>
       <path d="M 19.1875 8.296875 
L 53.609375 8.296875 
L 53.609375 0 
L 7.328125 0 
L 7.328125 8.296875 
Q 12.9375 14.109375 22.625 23.890625 
Q 32.328125 33.6875 34.8125 36.53125 
Q 39.546875 41.84375 41.421875 45.53125 
Q 43.3125 49.21875 43.3125 52.78125 
Q 43.3125 58.59375 39.234375 62.25 
Q 35.15625 65.921875 28.609375 65.921875 
Q 23.96875 65.921875 18.8125 64.3125 
Q 13.671875 62.703125 7.8125 59.421875 
L 7.8125 69.390625 
Q 13.765625 71.78125 18.9375 73 
Q 24.125 74.21875 28.421875 74.21875 
Q 39.75 74.21875 46.484375 68.546875 
Q 53.21875 62.890625 53.21875 53.421875 
Q 53.21875 48.921875 51.53125 44.890625 
Q 49.859375 40.875 45.40625 35.40625 
Q 44.1875 33.984375 37.640625 27.21875 
Q 31.109375 20.453125 19.1875 8.296875 
z
" id="DejaVuSans-50"/>
      </defs>
      <g transform="translate(128.824393 322.182437)scale(0.1 -0.1)">
       <use xlink:href="#DejaVuSans-48"/>
       <use x="63.623047" xlink:href="#DejaVuSans-46"/>
       <use x="95.410156" xlink:href="#DejaVuSans-50"/>
      </g>
     </g>
    </g>
    <g id="xtick_3">
     <g id="line2d_5">
      <path clip-path="url(#p7cd7376c09)" d="M 203.031985 307.584 
L 203.031985 41.472 
" style="fill:none;stroke:#b0b0b0;stroke-linecap:square;stroke-width:0.8;"/>
     </g>
     <g id="line2d_6">
      <g>
       <use style="stroke:#000000;stroke-width:0.8;" x="203.031985" xlink:href="#mdd89e306fc" y="307.584"/>
      </g>
     </g>
     <g id="text_3">
      <!-- 0.4 -->
      <defs>
       <path d="M 37.796875 64.3125 
L 12.890625 25.390625 
L 37.796875 25.390625 
z
M 35.203125 72.90625 
L 47.609375 72.90625 
L 47.609375 25.390625 
L 58.015625 25.390625 
L 58.015625 17.1875 
L 47.609375 17.1875 
L 47.609375 0 
L 37.796875 0 
L 37.796875 17.1875 
L 4.890625 17.1875 
L 4.890625 26.703125 
z
" id="DejaVuSans-52"/>
      </defs>
      <g transform="translate(195.080423 322.182437)scale(0.1 -0.1)">
       <use xlink:href="#DejaVuSans-48"/>
       <use x="63.623047" xlink:href="#DejaVuSans-46"/>
       <use x="95.410156" xlink:href="#DejaVuSans-52"/>
      </g>
     </g>
    </g>
    <g id="xtick_4">
     <g id="line2d_7">
      <path clip-path="url(#p7cd7376c09)" d="M 269.288015 307.584 
L 269.288015 41.472 
" style="fill:none;stroke:#b0b0b0;stroke-linecap:square;stroke-width:0.8;"/>
     </g>
     <g id="line2d_8">
      <g>
       <use style="stroke:#000000;stroke-width:0.8;" x="269.288015" xlink:href="#mdd89e306fc" y="307.584"/>
      </g>
     </g>
     <g id="text_4">
      <!-- 0.6 -->
      <defs>
       <path d="M 33.015625 40.375 
Q 26.375 40.375 22.484375 35.828125 
Q 18.609375 31.296875 18.609375 23.390625 
Q 18.609375 15.53125 22.484375 10.953125 
Q 26.375 6.390625 33.015625 6.390625 
Q 39.65625 6.390625 43.53125 10.953125 
Q 47.40625 15.53125 47.40625 23.390625 
Q 47.40625 31.296875 43.53125 35.828125 
Q 39.65625 40.375 33.015625 40.375 
z
M 52.59375 71.296875 
L 52.59375 62.3125 
Q 48.875 64.0625 45.09375 64.984375 
Q 41.3125 65.921875 37.59375 65.921875 
Q 27.828125 65.921875 22.671875 59.328125 
Q 17.53125 52.734375 16.796875 39.40625 
Q 19.671875 43.65625 24.015625 45.921875 
Q 28.375 48.1875 33.59375 48.1875 
Q 44.578125 48.1875 50.953125 41.515625 
Q 57.328125 34.859375 57.328125 23.390625 
Q 57.328125 12.15625 50.6875 5.359375 
Q 44.046875 -1.421875 33.015625 -1.421875 
Q 20.359375 -1.421875 13.671875 8.265625 
Q 6.984375 17.96875 6.984375 36.375 
Q 6.984375 53.65625 15.1875 63.9375 
Q 23.390625 74.21875 37.203125 74.21875 
Q 40.921875 74.21875 44.703125 73.484375 
Q 48.484375 72.75 52.59375 71.296875 
z
" id="DejaVuSans-54"/>
      </defs>
      <g transform="translate(261.336452 322.182437)scale(0.1 -0.1)">
       <use xlink:href="#DejaVuSans-48"/>
       <use x="63.623047" xlink:href="#DejaVuSans-46"/>
       <use x="95.410156" xlink:href="#DejaVuSans-54"/>
      </g>
     </g>
    </g>
    <g id="xtick_5">
     <g id="line2d_9">
      <path clip-path="url(#p7cd7376c09)" d="M 335.544045 307.584 
L 335.544045 41.472 
" style="fill:none;stroke:#b0b0b0;stroke-linecap:square;stroke-width:0.8;"/>
     </g>
     <g id="line2d_10">
      <g>
       <use style="stroke:#000000;stroke-width:0.8;" x="335.544045" xlink:href="#mdd89e306fc" y="307.584"/>
      </g>
     </g>
     <g id="text_5">
      <!-- 0.8 -->
      <defs>
       <path d="M 31.78125 34.625 
Q 24.75 34.625 20.71875 30.859375 
Q 16.703125 27.09375 16.703125 20.515625 
Q 16.703125 13.921875 20.71875 10.15625 
Q 24.75 6.390625 31.78125 6.390625 
Q 38.8125 6.390625 42.859375 10.171875 
Q 46.921875 13.96875 46.921875 20.515625 
Q 46.921875 27.09375 42.890625 30.859375 
Q 38.875 34.625 31.78125 34.625 
z
M 21.921875 38.8125 
Q 15.578125 40.375 12.03125 44.71875 
Q 8.5 49.078125 8.5 55.328125 
Q 8.5 64.0625 14.71875 69.140625 
Q 20.953125 74.21875 31.78125 74.21875 
Q 42.671875 74.21875 48.875 69.140625 
Q 55.078125 64.0625 55.078125 55.328125 
Q 55.078125 49.078125 51.53125 44.71875 
Q 48 40.375 41.703125 38.8125 
Q 48.828125 37.15625 52.796875 32.3125 
Q 56.78125 27.484375 56.78125 20.515625 
Q 56.78125 9.90625 50.3125 4.234375 
Q 43.84375 -1.421875 31.78125 -1.421875 
Q 19.734375 -1.421875 13.25 4.234375 
Q 6.78125 9.90625 6.78125 20.515625 
Q 6.78125 27.484375 10.78125 32.3125 
Q 14.796875 37.15625 21.921875 38.8125 
z
M 18.3125 54.390625 
Q 18.3125 48.734375 21.84375 45.5625 
Q 25.390625 42.390625 31.78125 42.390625 
Q 38.140625 42.390625 41.71875 45.5625 
Q 45.3125 48.734375 45.3125 54.390625 
Q 45.3125 60.0625 41.71875 63.234375 
Q 38.140625 66.40625 31.78125 66.40625 
Q 25.390625 66.40625 21.84375 63.234375 
Q 18.3125 60.0625 18.3125 54.390625 
z
" id="DejaVuSans-56"/>
      </defs>
      <g transform="translate(327.592482 322.182437)scale(0.1 -0.1)">
       <use xlink:href="#DejaVuSans-48"/>
       <use x="63.623047" xlink:href="#DejaVuSans-46"/>
       <use x="95.410156" xlink:href="#DejaVuSans-56"/>
      </g>
     </g>
    </g>
    <g id="xtick_6">
     <g id="line2d_11">
      <path clip-path="url(#p7cd7376c09)" d="M 401.800074 307.584 
L 401.800074 41.472 
" style="fill:none;stroke:#b0b0b0;stroke-linecap:square;stroke-width:0.8;"/>
     </g>
     <g id="line2d_12">
      <g>
       <use style="stroke:#000000;stroke-width:0.8;" x="401.800074" xlink:href="#mdd89e306fc" y="307.584"/>
      </g>
     </g>
     <g id="text_6">
      <!-- 1.0 -->
      <defs>
       <path d="M 12.40625 8.296875 
L 28.515625 8.296875 
L 28.515625 63.921875 
L 10.984375 60.40625 
L 10.984375 69.390625 
L 28.421875 72.90625 
L 38.28125 72.90625 
L 38.28125 8.296875 
L 54.390625 8.296875 
L 54.390625 0 
L 12.40625 0 
z
" id="DejaVuSans-49"/>
      </defs>
      <g transform="translate(393.848512 322.182437)scale(0.1 -0.1)">
       <use xlink:href="#DejaVuSans-49"/>
       <use x="63.623047" xlink:href="#DejaVuSans-46"/>
       <use x="95.410156" xlink:href="#DejaVuSans-48"/>
      </g>
     </g>
    </g>
    <g id="text_7">
     <!-- $\mathrm{Time \ (seconds)}$ -->
     <defs>
      <path d="M -0.296875 72.90625 
L 61.375 72.90625 
L 61.375 64.59375 
L 35.5 64.59375 
L 35.5 0 
L 25.59375 0 
L 25.59375 64.59375 
L -0.296875 64.59375 
z
" id="DejaVuSans-84"/>
      <path d="M 9.421875 54.6875 
L 18.40625 54.6875 
L 18.40625 0 
L 9.421875 0 
z
M 9.421875 75.984375 
L 18.40625 75.984375 
L 18.40625 64.59375 
L 9.421875 64.59375 
z
" id="DejaVuSans-105"/>
      <path d="M 52 44.1875 
Q 55.375 50.25 60.0625 53.125 
Q 64.75 56 71.09375 56 
Q 79.640625 56 84.28125 50.015625 
Q 88.921875 44.046875 88.921875 33.015625 
L 88.921875 0 
L 79.890625 0 
L 79.890625 32.71875 
Q 79.890625 40.578125 77.09375 44.375 
Q 74.3125 48.1875 68.609375 48.1875 
Q 61.625 48.1875 57.5625 43.546875 
Q 53.515625 38.921875 53.515625 30.90625 
L 53.515625 0 
L 44.484375 0 
L 44.484375 32.71875 
Q 44.484375 40.625 41.703125 44.40625 
Q 38.921875 48.1875 33.109375 48.1875 
Q 26.21875 48.1875 22.15625 43.53125 
Q 18.109375 38.875 18.109375 30.90625 
L 18.109375 0 
L 9.078125 0 
L 9.078125 54.6875 
L 18.109375 54.6875 
L 18.109375 46.1875 
Q 21.1875 51.21875 25.484375 53.609375 
Q 29.78125 56 35.6875 56 
Q 41.65625 56 45.828125 52.96875 
Q 50 49.953125 52 44.1875 
z
" id="DejaVuSans-109"/>
      <path d="M 56.203125 29.59375 
L 56.203125 25.203125 
L 14.890625 25.203125 
Q 15.484375 15.921875 20.484375 11.0625 
Q 25.484375 6.203125 34.421875 6.203125 
Q 39.59375 6.203125 44.453125 7.46875 
Q 49.3125 8.734375 54.109375 11.28125 
L 54.109375 2.78125 
Q 49.265625 0.734375 44.1875 -0.34375 
Q 39.109375 -1.421875 33.890625 -1.421875 
Q 20.796875 -1.421875 13.15625 6.1875 
Q 5.515625 13.8125 5.515625 26.8125 
Q 5.515625 40.234375 12.765625 48.109375 
Q 20.015625 56 32.328125 56 
Q 43.359375 56 49.78125 48.890625 
Q 56.203125 41.796875 56.203125 29.59375 
z
M 47.21875 32.234375 
Q 47.125 39.59375 43.09375 43.984375 
Q 39.0625 48.390625 32.421875 48.390625 
Q 24.90625 48.390625 20.390625 44.140625 
Q 15.875 39.890625 15.1875 32.171875 
z
" id="DejaVuSans-101"/>
      <path d="M 31 75.875 
Q 24.46875 64.65625 21.28125 53.65625 
Q 18.109375 42.671875 18.109375 31.390625 
Q 18.109375 20.125 21.3125 9.0625 
Q 24.515625 -2 31 -13.1875 
L 23.1875 -13.1875 
Q 15.875 -1.703125 12.234375 9.375 
Q 8.59375 20.453125 8.59375 31.390625 
Q 8.59375 42.28125 12.203125 53.3125 
Q 15.828125 64.359375 23.1875 75.875 
z
" id="DejaVuSans-40"/>
      <path d="M 44.28125 53.078125 
L 44.28125 44.578125 
Q 40.484375 46.53125 36.375 47.5 
Q 32.28125 48.484375 27.875 48.484375 
Q 21.1875 48.484375 17.84375 46.4375 
Q 14.5 44.390625 14.5 40.28125 
Q 14.5 37.15625 16.890625 35.375 
Q 19.28125 33.59375 26.515625 31.984375 
L 29.59375 31.296875 
Q 39.15625 29.25 43.1875 25.515625 
Q 47.21875 21.78125 47.21875 15.09375 
Q 47.21875 7.46875 41.1875 3.015625 
Q 35.15625 -1.421875 24.609375 -1.421875 
Q 20.21875 -1.421875 15.453125 -0.5625 
Q 10.6875 0.296875 5.421875 2 
L 5.421875 11.28125 
Q 10.40625 8.6875 15.234375 7.390625 
Q 20.0625 6.109375 24.8125 6.109375 
Q 31.15625 6.109375 34.5625 8.28125 
Q 37.984375 10.453125 37.984375 14.40625 
Q 37.984375 18.0625 35.515625 20.015625 
Q 33.0625 21.96875 24.703125 23.78125 
L 21.578125 24.515625 
Q 13.234375 26.265625 9.515625 29.90625 
Q 5.8125 33.546875 5.8125 39.890625 
Q 5.8125 47.609375 11.28125 51.796875 
Q 16.75 56 26.8125 56 
Q 31.78125 56 36.171875 55.265625 
Q 40.578125 54.546875 44.28125 53.078125 
z
" id="DejaVuSans-115"/>
      <path d="M 48.78125 52.59375 
L 48.78125 44.1875 
Q 44.96875 46.296875 41.140625 47.34375 
Q 37.3125 48.390625 33.40625 48.390625 
Q 24.65625 48.390625 19.8125 42.84375 
Q 14.984375 37.3125 14.984375 27.296875 
Q 14.984375 17.28125 19.8125 11.734375 
Q 24.65625 6.203125 33.40625 6.203125 
Q 37.3125 6.203125 41.140625 7.25 
Q 44.96875 8.296875 48.78125 10.40625 
L 48.78125 2.09375 
Q 45.015625 0.34375 40.984375 -0.53125 
Q 36.96875 -1.421875 32.421875 -1.421875 
Q 20.0625 -1.421875 12.78125 6.34375 
Q 5.515625 14.109375 5.515625 27.296875 
Q 5.515625 40.671875 12.859375 48.328125 
Q 20.21875 56 33.015625 56 
Q 37.15625 56 41.109375 55.140625 
Q 45.0625 54.296875 48.78125 52.59375 
z
" id="DejaVuSans-99"/>
      <path d="M 30.609375 48.390625 
Q 23.390625 48.390625 19.1875 42.75 
Q 14.984375 37.109375 14.984375 27.296875 
Q 14.984375 17.484375 19.15625 11.84375 
Q 23.34375 6.203125 30.609375 6.203125 
Q 37.796875 6.203125 41.984375 11.859375 
Q 46.1875 17.53125 46.1875 27.296875 
Q 46.1875 37.015625 41.984375 42.703125 
Q 37.796875 48.390625 30.609375 48.390625 
z
M 30.609375 56 
Q 42.328125 56 49.015625 48.375 
Q 55.71875 40.765625 55.71875 27.296875 
Q 55.71875 13.875 49.015625 6.21875 
Q 42.328125 -1.421875 30.609375 -1.421875 
Q 18.84375 -1.421875 12.171875 6.21875 
Q 5.515625 13.875 5.515625 27.296875 
Q 5.515625 40.765625 12.171875 48.375 
Q 18.84375 56 30.609375 56 
z
" id="DejaVuSans-111"/>
      <path d="M 54.890625 33.015625 
L 54.890625 0 
L 45.90625 0 
L 45.90625 32.71875 
Q 45.90625 40.484375 42.875 44.328125 
Q 39.84375 48.1875 33.796875 48.1875 
Q 26.515625 48.1875 22.3125 43.546875 
Q 18.109375 38.921875 18.109375 30.90625 
L 18.109375 0 
L 9.078125 0 
L 9.078125 54.6875 
L 18.109375 54.6875 
L 18.109375 46.1875 
Q 21.34375 51.125 25.703125 53.5625 
Q 30.078125 56 35.796875 56 
Q 45.21875 56 50.046875 50.171875 
Q 54.890625 44.34375 54.890625 33.015625 
z
" id="DejaVuSans-110"/>
      <path d="M 45.40625 46.390625 
L 45.40625 75.984375 
L 54.390625 75.984375 
L 54.390625 0 
L 45.40625 0 
L 45.40625 8.203125 
Q 42.578125 3.328125 38.25 0.953125 
Q 33.9375 -1.421875 27.875 -1.421875 
Q 17.96875 -1.421875 11.734375 6.484375 
Q 5.515625 14.40625 5.515625 27.296875 
Q 5.515625 40.1875 11.734375 48.09375 
Q 17.96875 56 27.875 56 
Q 33.9375 56 38.25 53.625 
Q 42.578125 51.265625 45.40625 46.390625 
z
M 14.796875 27.296875 
Q 14.796875 17.390625 18.875 11.75 
Q 22.953125 6.109375 30.078125 6.109375 
Q 37.203125 6.109375 41.296875 11.75 
Q 45.40625 17.390625 45.40625 27.296875 
Q 45.40625 37.203125 41.296875 42.84375 
Q 37.203125 48.484375 30.078125 48.484375 
Q 22.953125 48.484375 18.875 42.84375 
Q 14.796875 37.203125 14.796875 27.296875 
z
" id="DejaVuSans-100"/>
      <path d="M 8.015625 75.875 
L 15.828125 75.875 
Q 23.140625 64.359375 26.78125 53.3125 
Q 30.421875 42.28125 30.421875 31.390625 
Q 30.421875 20.453125 26.78125 9.375 
Q 23.140625 -1.703125 15.828125 -13.1875 
L 8.015625 -13.1875 
Q 14.5 -2 17.703125 9.0625 
Q 20.90625 20.125 20.90625 31.390625 
Q 20.90625 42.671875 17.703125 53.65625 
Q 14.5 64.65625 8.015625 75.875 
z
" id="DejaVuSans-41"/>
     </defs>
     <g transform="translate(197.76 335.860562)scale(0.1 -0.1)">
      <use transform="translate(0 0.015625)" xlink:href="#DejaVuSans-84"/>
      <use transform="translate(61.083984 0.015625)" xlink:href="#DejaVuSans-105"/>
      <use transform="translate(88.867188 0.015625)" xlink:href="#DejaVuSans-109"/>
      <use transform="translate(186.279297 0.015625)" xlink:href="#DejaVuSans-101"/>
      <use transform="translate(280.273113 0.015625)" xlink:href="#DejaVuSans-40"/>
      <use transform="translate(319.286785 0.015625)" xlink:href="#DejaVuSans-115"/>
      <use transform="translate(371.386394 0.015625)" xlink:href="#DejaVuSans-101"/>
      <use transform="translate(432.909832 0.015625)" xlink:href="#DejaVuSans-99"/>
      <use transform="translate(487.8903 0.015625)" xlink:href="#DejaVuSans-111"/>
      <use transform="translate(549.071941 0.015625)" xlink:href="#DejaVuSans-110"/>
      <use transform="translate(612.450847 0.015625)" xlink:href="#DejaVuSans-100"/>
      <use transform="translate(675.92741 0.015625)" xlink:href="#DejaVuSans-115"/>
      <use transform="translate(728.027019 0.015625)" xlink:href="#DejaVuSans-41"/>
     </g>
    </g>
   </g>
   <g id="matplotlib.axis_2">
    <g id="ytick_1">
     <g id="line2d_13">
      <path clip-path="url(#p7cd7376c09)" d="M 57.6 277.60518 
L 414.72 277.60518 
" style="fill:none;stroke:#b0b0b0;stroke-linecap:square;stroke-width:0.8;"/>
     </g>
     <g id="line2d_14">
      <defs>
       <path d="M 0 0 
L -3.5 0 
" id="mb55488525f" style="stroke:#000000;stroke-width:0.8;"/>
      </defs>
      <g>
       <use style="stroke:#000000;stroke-width:0.8;" x="57.6" xlink:href="#mb55488525f" y="277.60518"/>
      </g>
     </g>
     <g id="text_8">
      <!-- $\mathdefault{10^{-3}}$ -->
      <defs>
       <path d="M 10.59375 35.5 
L 73.1875 35.5 
L 73.1875 27.203125 
L 10.59375 27.203125 
z
" id="DejaVuSans-8722"/>
       <path d="M 40.578125 39.3125 
Q 47.65625 37.796875 51.625 33 
Q 55.609375 28.21875 55.609375 21.1875 
Q 55.609375 10.40625 48.1875 4.484375 
Q 40.765625 -1.421875 27.09375 -1.421875 
Q 22.515625 -1.421875 17.65625 -0.515625 
Q 12.796875 0.390625 7.625 2.203125 
L 7.625 11.71875 
Q 11.71875 9.328125 16.59375 8.109375 
Q 21.484375 6.890625 26.8125 6.890625 
Q 36.078125 6.890625 40.9375 10.546875 
Q 45.796875 14.203125 45.796875 21.1875 
Q 45.796875 27.640625 41.28125 31.265625 
Q 36.765625 34.90625 28.71875 34.90625 
L 20.21875 34.90625 
L 20.21875 43.015625 
L 29.109375 43.015625 
Q 36.375 43.015625 40.234375 45.921875 
Q 44.09375 48.828125 44.09375 54.296875 
Q 44.09375 59.90625 40.109375 62.90625 
Q 36.140625 65.921875 28.71875 65.921875 
Q 24.65625 65.921875 20.015625 65.03125 
Q 15.375 64.15625 9.8125 62.3125 
L 9.8125 71.09375 
Q 15.4375 72.65625 20.34375 73.4375 
Q 25.25 74.21875 29.59375 74.21875 
Q 40.828125 74.21875 47.359375 69.109375 
Q 53.90625 64.015625 53.90625 55.328125 
Q 53.90625 49.265625 50.4375 45.09375 
Q 46.96875 40.921875 40.578125 39.3125 
z
" id="DejaVuSans-51"/>
      </defs>
      <g transform="translate(27.1 281.404398)scale(0.1 -0.1)">
       <use transform="translate(0 0.765625)" xlink:href="#DejaVuSans-49"/>
       <use transform="translate(63.623047 0.765625)" xlink:href="#DejaVuSans-48"/>
       <use transform="translate(128.203125 39.046875)scale(0.7)" xlink:href="#DejaVuSans-8722"/>
       <use transform="translate(186.855469 39.046875)scale(0.7)" xlink:href="#DejaVuSans-51"/>
      </g>
     </g>
    </g>
    <g id="ytick_2">
     <g id="line2d_15">
      <path clip-path="url(#p7cd7376c09)" d="M 57.6 150.680806 
L 414.72 150.680806 
" style="fill:none;stroke:#b0b0b0;stroke-linecap:square;stroke-width:0.8;"/>
     </g>
     <g id="line2d_16">
      <g>
       <use style="stroke:#000000;stroke-width:0.8;" x="57.6" xlink:href="#mb55488525f" y="150.680806"/>
      </g>
     </g>
     <g id="text_9">
      <!-- $\mathdefault{10^{-2}}$ -->
      <g transform="translate(27.1 154.480025)scale(0.1 -0.1)">
       <use transform="translate(0 0.765625)" xlink:href="#DejaVuSans-49"/>
       <use transform="translate(63.623047 0.765625)" xlink:href="#DejaVuSans-48"/>
       <use transform="translate(128.203125 39.046875)scale(0.7)" xlink:href="#DejaVuSans-8722"/>
       <use transform="translate(186.855469 39.046875)scale(0.7)" xlink:href="#DejaVuSans-50"/>
      </g>
     </g>
    </g>
    <g id="ytick_3">
     <g id="line2d_17">
      <defs>
       <path d="M 0 0 
L -2 0 
" id="m8e4a5388e4" style="stroke:#000000;stroke-width:0.6;"/>
      </defs>
      <g>
       <use style="stroke:#000000;stroke-width:0.6;" x="57.6" xlink:href="#m8e4a5388e4" y="305.763193"/>
      </g>
     </g>
    </g>
    <g id="ytick_4">
     <g id="line2d_18">
      <g>
       <use style="stroke:#000000;stroke-width:0.6;" x="57.6" xlink:href="#m8e4a5388e4" y="297.266014"/>
      </g>
     </g>
    </g>
    <g id="ytick_5">
     <g id="line2d_19">
      <g>
       <use style="stroke:#000000;stroke-width:0.6;" x="57.6" xlink:href="#m8e4a5388e4" y="289.905422"/>
      </g>
     </g>
    </g>
    <g id="ytick_6">
     <g id="line2d_20">
      <g>
       <use style="stroke:#000000;stroke-width:0.6;" x="57.6" xlink:href="#m8e4a5388e4" y="283.41292"/>
      </g>
     </g>
    </g>
    <g id="ytick_7">
     <g id="line2d_21">
      <g>
       <use style="stroke:#000000;stroke-width:0.6;" x="57.6" xlink:href="#m8e4a5388e4" y="239.397136"/>
      </g>
     </g>
    </g>
    <g id="ytick_8">
     <g id="line2d_22">
      <g>
       <use style="stroke:#000000;stroke-width:0.6;" x="57.6" xlink:href="#m8e4a5388e4" y="217.046863"/>
      </g>
     </g>
    </g>
    <g id="ytick_9">
     <g id="line2d_23">
      <g>
       <use style="stroke:#000000;stroke-width:0.6;" x="57.6" xlink:href="#m8e4a5388e4" y="201.189092"/>
      </g>
     </g>
    </g>
    <g id="ytick_10">
     <g id="line2d_24">
      <g>
       <use style="stroke:#000000;stroke-width:0.6;" x="57.6" xlink:href="#m8e4a5388e4" y="188.88885"/>
      </g>
     </g>
    </g>
    <g id="ytick_11">
     <g id="line2d_25">
      <g>
       <use style="stroke:#000000;stroke-width:0.6;" x="57.6" xlink:href="#m8e4a5388e4" y="178.838819"/>
      </g>
     </g>
    </g>
    <g id="ytick_12">
     <g id="line2d_26">
      <g>
       <use style="stroke:#000000;stroke-width:0.6;" x="57.6" xlink:href="#m8e4a5388e4" y="170.34164"/>
      </g>
     </g>
    </g>
    <g id="ytick_13">
     <g id="line2d_27">
      <g>
       <use style="stroke:#000000;stroke-width:0.6;" x="57.6" xlink:href="#m8e4a5388e4" y="162.981049"/>
      </g>
     </g>
    </g>
    <g id="ytick_14">
     <g id="line2d_28">
      <g>
       <use style="stroke:#000000;stroke-width:0.6;" x="57.6" xlink:href="#m8e4a5388e4" y="156.488547"/>
      </g>
     </g>
    </g>
    <g id="ytick_15">
     <g id="line2d_29">
      <g>
       <use style="stroke:#000000;stroke-width:0.6;" x="57.6" xlink:href="#m8e4a5388e4" y="112.472762"/>
      </g>
     </g>
    </g>
    <g id="ytick_16">
     <g id="line2d_30">
      <g>
       <use style="stroke:#000000;stroke-width:0.6;" x="57.6" xlink:href="#m8e4a5388e4" y="90.122489"/>
      </g>
     </g>
    </g>
    <g id="ytick_17">
     <g id="line2d_31">
      <g>
       <use style="stroke:#000000;stroke-width:0.6;" x="57.6" xlink:href="#m8e4a5388e4" y="74.264718"/>
      </g>
     </g>
    </g>
    <g id="ytick_18">
     <g id="line2d_32">
      <g>
       <use style="stroke:#000000;stroke-width:0.6;" x="57.6" xlink:href="#m8e4a5388e4" y="61.964476"/>
      </g>
     </g>
    </g>
    <g id="ytick_19">
     <g id="line2d_33">
      <g>
       <use style="stroke:#000000;stroke-width:0.6;" x="57.6" xlink:href="#m8e4a5388e4" y="51.914446"/>
      </g>
     </g>
    </g>
    <g id="ytick_20">
     <g id="line2d_34">
      <g>
       <use style="stroke:#000000;stroke-width:0.6;" x="57.6" xlink:href="#m8e4a5388e4" y="43.417266"/>
      </g>
     </g>
    </g>
    <g id="text_10">
     <!-- $\mathrm{Relative \ error}$ ($N_{\mathrm{train}}=100$) -->
     <defs>
      <path d="M 44.390625 34.1875 
Q 47.5625 33.109375 50.5625 29.59375 
Q 53.5625 26.078125 56.59375 19.921875 
L 66.609375 0 
L 56 0 
L 46.6875 18.703125 
Q 43.0625 26.03125 39.671875 28.421875 
Q 36.28125 30.8125 30.421875 30.8125 
L 19.671875 30.8125 
L 19.671875 0 
L 9.8125 0 
L 9.8125 72.90625 
L 32.078125 72.90625 
Q 44.578125 72.90625 50.734375 67.671875 
Q 56.890625 62.453125 56.890625 51.90625 
Q 56.890625 45.015625 53.6875 40.46875 
Q 50.484375 35.9375 44.390625 34.1875 
z
M 19.671875 64.796875 
L 19.671875 38.921875 
L 32.078125 38.921875 
Q 39.203125 38.921875 42.84375 42.21875 
Q 46.484375 45.515625 46.484375 51.90625 
Q 46.484375 58.296875 42.84375 61.546875 
Q 39.203125 64.796875 32.078125 64.796875 
z
" id="DejaVuSans-82"/>
      <path d="M 9.421875 75.984375 
L 18.40625 75.984375 
L 18.40625 0 
L 9.421875 0 
z
" id="DejaVuSans-108"/>
      <path d="M 34.28125 27.484375 
Q 23.390625 27.484375 19.1875 25 
Q 14.984375 22.515625 14.984375 16.5 
Q 14.984375 11.71875 18.140625 8.90625 
Q 21.296875 6.109375 26.703125 6.109375 
Q 34.1875 6.109375 38.703125 11.40625 
Q 43.21875 16.703125 43.21875 25.484375 
L 43.21875 27.484375 
z
M 52.203125 31.203125 
L 52.203125 0 
L 43.21875 0 
L 43.21875 8.296875 
Q 40.140625 3.328125 35.546875 0.953125 
Q 30.953125 -1.421875 24.3125 -1.421875 
Q 15.921875 -1.421875 10.953125 3.296875 
Q 6 8.015625 6 15.921875 
Q 6 25.140625 12.171875 29.828125 
Q 18.359375 34.515625 30.609375 34.515625 
L 43.21875 34.515625 
L 43.21875 35.40625 
Q 43.21875 41.609375 39.140625 45 
Q 35.0625 48.390625 27.6875 48.390625 
Q 23 48.390625 18.546875 47.265625 
Q 14.109375 46.140625 10.015625 43.890625 
L 10.015625 52.203125 
Q 14.9375 54.109375 19.578125 55.046875 
Q 24.21875 56 28.609375 56 
Q 40.484375 56 46.34375 49.84375 
Q 52.203125 43.703125 52.203125 31.203125 
z
" id="DejaVuSans-97"/>
      <path d="M 18.3125 70.21875 
L 18.3125 54.6875 
L 36.8125 54.6875 
L 36.8125 47.703125 
L 18.3125 47.703125 
L 18.3125 18.015625 
Q 18.3125 11.328125 20.140625 9.421875 
Q 21.96875 7.515625 27.59375 7.515625 
L 36.8125 7.515625 
L 36.8125 0 
L 27.59375 0 
Q 17.1875 0 13.234375 3.875 
Q 9.28125 7.765625 9.28125 18.015625 
L 9.28125 47.703125 
L 2.6875 47.703125 
L 2.6875 54.6875 
L 9.28125 54.6875 
L 9.28125 70.21875 
z
" id="DejaVuSans-116"/>
      <path d="M 2.984375 54.6875 
L 12.5 54.6875 
L 29.59375 8.796875 
L 46.6875 54.6875 
L 56.203125 54.6875 
L 35.6875 0 
L 23.484375 0 
z
" id="DejaVuSans-118"/>
      <path d="M 41.109375 46.296875 
Q 39.59375 47.171875 37.8125 47.578125 
Q 36.03125 48 33.890625 48 
Q 26.265625 48 22.1875 43.046875 
Q 18.109375 38.09375 18.109375 28.8125 
L 18.109375 0 
L 9.078125 0 
L 9.078125 54.6875 
L 18.109375 54.6875 
L 18.109375 46.1875 
Q 20.953125 51.171875 25.484375 53.578125 
Q 30.03125 56 36.53125 56 
Q 37.453125 56 38.578125 55.875 
Q 39.703125 55.765625 41.0625 55.515625 
z
" id="DejaVuSans-114"/>
      <path id="DejaVuSans-32"/>
      <path d="M 16.890625 72.90625 
L 30.171875 72.90625 
L 50.296875 10.40625 
L 62.5 72.90625 
L 72.125 72.90625 
L 57.90625 0 
L 44.578125 0 
L 24.515625 62.890625 
L 12.3125 0 
L 2.6875 0 
z
" id="DejaVuSans-Oblique-78"/>
      <path d="M 10.59375 45.40625 
L 73.1875 45.40625 
L 73.1875 37.203125 
L 10.59375 37.203125 
z
M 10.59375 25.484375 
L 73.1875 25.484375 
L 73.1875 17.1875 
L 10.59375 17.1875 
z
" id="DejaVuSans-61"/>
     </defs>
     <g transform="translate(21.020312 242.078)rotate(-90)scale(0.1 -0.1)">
      <use transform="translate(0 0.015625)" xlink:href="#DejaVuSans-82"/>
      <use transform="translate(69.482422 0.015625)" xlink:href="#DejaVuSans-101"/>
      <use transform="translate(131.005859 0.015625)" xlink:href="#DejaVuSans-108"/>
      <use transform="translate(158.789062 0.015625)" xlink:href="#DejaVuSans-97"/>
      <use transform="translate(220.068359 0.015625)" xlink:href="#DejaVuSans-116"/>
      <use transform="translate(259.277344 0.015625)" xlink:href="#DejaVuSans-105"/>
      <use transform="translate(287.060547 0.015625)" xlink:href="#DejaVuSans-118"/>
      <use transform="translate(346.240234 0.015625)" xlink:href="#DejaVuSans-101"/>
      <use transform="translate(440.23405 0.015625)" xlink:href="#DejaVuSans-101"/>
      <use transform="translate(501.757488 0.015625)" xlink:href="#DejaVuSans-114"/>
      <use transform="translate(542.870769 0.015625)" xlink:href="#DejaVuSans-114"/>
      <use transform="translate(583.98405 0.015625)" xlink:href="#DejaVuSans-111"/>
      <use transform="translate(645.165691 0.015625)" xlink:href="#DejaVuSans-114"/>
      <use transform="translate(686.278972 0.015625)" xlink:href="#DejaVuSans-32"/>
      <use transform="translate(718.066082 0.015625)" xlink:href="#DejaVuSans-40"/>
      <use transform="translate(757.079753 0.015625)" xlink:href="#DejaVuSans-Oblique-78"/>
      <use transform="translate(831.884441 -16.390625)scale(0.7)" xlink:href="#DejaVuSans-116"/>
      <use transform="translate(859.33073 -16.390625)scale(0.7)" xlink:href="#DejaVuSans-114"/>
      <use transform="translate(888.110027 -16.390625)scale(0.7)" xlink:href="#DejaVuSans-97"/>
      <use transform="translate(931.005535 -16.390625)scale(0.7)" xlink:href="#DejaVuSans-105"/>
      <use transform="translate(950.453777 -16.390625)scale(0.7)" xlink:href="#DejaVuSans-110"/>
      <use transform="translate(1017.035808 0.015625)" xlink:href="#DejaVuSans-61"/>
      <use transform="translate(1120.307292 0.015625)" xlink:href="#DejaVuSans-49"/>
      <use transform="translate(1183.930339 0.015625)" xlink:href="#DejaVuSans-48"/>
      <use transform="translate(1247.553386 0.015625)" xlink:href="#DejaVuSans-48"/>
      <use transform="translate(1311.176433 0.015625)" xlink:href="#DejaVuSans-41"/>
     </g>
    </g>
   </g>
   <g id="line2d_35">
    <path clip-path="url(#p7cd7376c09)" d="M 73.832724 231.042079 
L 77.145522 209.903107 
L 80.458321 194.200544 
L 83.771119 181.762766 
L 87.083917 171.69607 
L 90.396716 163.477599 
L 93.709554 156.735788 
L 97.022352 151.179541 
L 100.33515 146.565306 
L 103.647949 142.682668 
L 106.960747 139.351737 
L 110.273545 136.436561 
L 113.586344 133.837765 
L 116.899142 131.47897 
L 120.21194 129.299079 
L 123.524738 127.249491 
L 126.837537 125.292397 
L 130.150375 123.406964 
L 136.775971 119.829194 
L 143.401568 116.453247 
L 153.339963 111.551502 
L 163.278358 106.774103 
L 169.903955 103.759126 
L 173.216753 102.341226 
L 176.529551 100.991761 
L 179.842389 99.708991 
L 183.155187 98.488256 
L 186.467986 97.324868 
L 193.093582 95.151574 
L 199.719179 93.14175 
L 206.344776 91.265712 
L 212.970412 89.496721 
L 219.596008 87.811875 
L 229.534403 85.405751 
L 239.472798 83.097446 
L 249.411193 80.864324 
L 256.03679 79.447562 
L 262.662387 78.103999 
L 269.288023 76.837464 
L 275.913619 75.653981 
L 282.539216 74.563054 
L 289.164852 73.569458 
L 295.790449 72.677373 
L 302.416045 71.889043 
L 309.041642 71.203489 
L 315.667239 70.615928 
L 322.292835 70.122835 
L 328.918432 69.72643 
L 335.544029 69.430401 
L 342.169625 69.237713 
L 348.795222 69.164044 
L 352.10806 69.178493 
L 355.420858 69.232629 
L 358.733656 69.330208 
L 362.046455 69.471785 
L 365.359253 69.656907 
L 368.672051 69.883912 
L 375.297688 70.438583 
L 385.236083 71.353936 
L 388.548881 71.625726 
L 391.861679 71.856934 
L 395.174478 72.038367 
L 398.487276 72.165449 
" style="fill:none;stroke:#ff0000;stroke-linecap:square;stroke-width:1.5;"/>
   </g>
   <g id="line2d_36">
    <path clip-path="url(#p7cd7376c09)" d="M 73.832724 222.690341 
L 77.145522 201.761713 
L 80.458321 186.280755 
L 83.771119 174.121377 
L 87.083917 164.38014 
L 90.396716 156.526135 
L 93.709554 150.179123 
L 97.022352 145.034595 
L 100.33515 140.844034 
L 103.647949 137.405217 
L 106.960747 134.555133 
L 110.273545 132.161269 
L 113.586344 130.11719 
L 116.899142 128.33549 
L 120.21194 126.74445 
L 123.524738 125.279871 
L 130.150375 122.538636 
L 136.775971 119.829587 
L 159.96556 110.12369 
L 166.591156 107.460516 
L 173.216753 104.93338 
L 179.842389 102.560465 
L 186.467986 100.348181 
L 193.093582 98.283542 
L 199.719179 96.368631 
L 206.344776 94.594375 
L 212.970412 92.932509 
L 219.596008 91.365256 
L 226.221605 89.874231 
L 232.847202 88.44436 
L 239.472798 87.079658 
L 246.098395 85.797437 
L 252.723992 84.611669 
L 259.349588 83.530893 
L 265.975185 82.551019 
L 272.600821 81.662402 
L 279.226418 80.855639 
L 285.852014 80.118011 
L 295.790449 79.103673 
L 309.041642 77.841863 
L 345.482424 74.459198 
L 355.420858 73.619058 
L 365.359253 72.864144 
L 371.984889 72.422713 
L 378.610486 72.043525 
L 385.236083 71.732547 
L 391.861679 71.490532 
L 398.487276 71.313022 
" style="fill:none;stroke:#0000ff;stroke-linecap:square;stroke-width:1.5;"/>
   </g>
   <g id="line2d_37">
    <path clip-path="url(#p7cd7376c09)" d="M 73.832724 248.25025 
L 77.145522 226.316741 
L 80.458321 210.082858 
L 83.771119 197.339562 
L 87.083917 187.111969 
L 90.396716 178.848107 
L 93.709554 172.158523 
L 97.022352 166.723986 
L 100.33515 162.277415 
L 103.647949 158.599419 
L 106.960747 155.513327 
L 110.273545 152.874494 
L 113.586344 150.573709 
L 116.899142 148.538697 
L 120.21194 146.728383 
L 123.524738 145.117493 
L 126.837537 143.683996 
L 130.150375 142.410241 
L 133.463173 141.279398 
L 136.775971 140.272248 
L 140.08877 139.37755 
L 143.401568 138.591154 
L 146.714366 137.913317 
L 150.027165 137.341792 
L 153.339963 136.863772 
L 163.278358 135.614848 
L 166.591156 135.10637 
L 169.903955 134.503435 
L 173.216753 133.809108 
L 176.529551 133.036178 
L 179.842389 132.1977 
L 183.155187 131.303926 
L 189.780784 129.400468 
L 199.719179 126.492781 
L 206.344776 124.659748 
L 212.970412 122.965321 
L 219.596008 121.418464 
L 226.221605 120.010877 
L 232.847202 118.721969 
L 239.472798 117.533308 
L 246.098395 116.438372 
L 252.723992 115.431251 
L 259.349588 114.500875 
L 265.975185 113.635251 
L 275.913619 112.436157 
L 285.852014 111.334879 
L 299.103247 109.966726 
L 315.667239 108.251842 
L 338.856827 105.811966 
L 348.795222 104.857709 
L 358.733656 103.995088 
L 365.359253 103.480813 
L 371.984889 103.031055 
L 378.610486 102.658254 
L 385.236083 102.362726 
L 398.487276 101.873312 
" style="fill:none;stroke:#00ffff;stroke-linecap:square;stroke-width:1.5;"/>
   </g>
   <g id="patch_3">
    <path d="M 57.6 307.584 
L 57.6 41.472 
" style="fill:none;stroke:#000000;stroke-linecap:square;stroke-linejoin:miter;stroke-width:0.8;"/>
   </g>
   <g id="patch_4">
    <path d="M 414.72 307.584 
L 414.72 41.472 
" style="fill:none;stroke:#000000;stroke-linecap:square;stroke-linejoin:miter;stroke-width:0.8;"/>
   </g>
   <g id="patch_5">
    <path d="M 57.6 307.584 
L 414.72 307.584 
" style="fill:none;stroke:#000000;stroke-linecap:square;stroke-linejoin:miter;stroke-width:0.8;"/>
   </g>
   <g id="patch_6">
    <path d="M 57.6 41.472 
L 414.72 41.472 
" style="fill:none;stroke:#000000;stroke-linecap:square;stroke-linejoin:miter;stroke-width:0.8;"/>
   </g>
   <g id="legend_1">
    <g id="patch_7">
     <path d="M 64.6 93.506375 
L 189.760937 93.506375 
Q 191.760937 93.506375 191.760937 91.506375 
L 191.760937 48.472 
Q 191.760937 46.472 189.760937 46.472 
L 64.6 46.472 
Q 62.6 46.472 62.6 48.472 
L 62.6 91.506375 
Q 62.6 93.506375 64.6 93.506375 
z
" style="fill:#ffffff;opacity:0.8;stroke:#cccccc;stroke-linejoin:miter;"/>
    </g>
    <g id="line2d_38">
     <path d="M 66.6 54.570438 
L 86.6 54.570438 
" style="fill:none;stroke:#ff0000;stroke-linecap:square;stroke-width:1.5;"/>
    </g>
    <g id="line2d_39"/>
    <g id="text_11">
     <!-- No denoising -->
     <defs>
      <path d="M 9.8125 72.90625 
L 23.09375 72.90625 
L 55.421875 11.921875 
L 55.421875 72.90625 
L 64.984375 72.90625 
L 64.984375 0 
L 51.703125 0 
L 19.390625 60.984375 
L 19.390625 0 
L 9.8125 0 
z
" id="DejaVuSans-78"/>
      <path d="M 45.40625 27.984375 
Q 45.40625 37.75 41.375 43.109375 
Q 37.359375 48.484375 30.078125 48.484375 
Q 22.859375 48.484375 18.828125 43.109375 
Q 14.796875 37.75 14.796875 27.984375 
Q 14.796875 18.265625 18.828125 12.890625 
Q 22.859375 7.515625 30.078125 7.515625 
Q 37.359375 7.515625 41.375 12.890625 
Q 45.40625 18.265625 45.40625 27.984375 
z
M 54.390625 6.78125 
Q 54.390625 -7.171875 48.1875 -13.984375 
Q 42 -20.796875 29.203125 -20.796875 
Q 24.46875 -20.796875 20.265625 -20.09375 
Q 16.0625 -19.390625 12.109375 -17.921875 
L 12.109375 -9.1875 
Q 16.0625 -11.328125 19.921875 -12.34375 
Q 23.78125 -13.375 27.78125 -13.375 
Q 36.625 -13.375 41.015625 -8.765625 
Q 45.40625 -4.15625 45.40625 5.171875 
L 45.40625 9.625 
Q 42.625 4.78125 38.28125 2.390625 
Q 33.9375 0 27.875 0 
Q 17.828125 0 11.671875 7.65625 
Q 5.515625 15.328125 5.515625 27.984375 
Q 5.515625 40.671875 11.671875 48.328125 
Q 17.828125 56 27.875 56 
Q 33.9375 56 38.28125 53.609375 
Q 42.625 51.21875 45.40625 46.390625 
L 45.40625 54.6875 
L 54.390625 54.6875 
z
" id="DejaVuSans-103"/>
     </defs>
     <g transform="translate(94.6 58.070438)scale(0.1 -0.1)">
      <use xlink:href="#DejaVuSans-78"/>
      <use x="74.804688" xlink:href="#DejaVuSans-111"/>
      <use x="135.986328" xlink:href="#DejaVuSans-32"/>
      <use x="167.773438" xlink:href="#DejaVuSans-100"/>
      <use x="231.25" xlink:href="#DejaVuSans-101"/>
      <use x="292.773438" xlink:href="#DejaVuSans-110"/>
      <use x="356.152344" xlink:href="#DejaVuSans-111"/>
      <use x="417.333984" xlink:href="#DejaVuSans-105"/>
      <use x="445.117188" xlink:href="#DejaVuSans-115"/>
      <use x="497.216797" xlink:href="#DejaVuSans-105"/>
      <use x="525" xlink:href="#DejaVuSans-110"/>
      <use x="588.378906" xlink:href="#DejaVuSans-103"/>
     </g>
    </g>
    <g id="line2d_40">
     <path d="M 66.6 69.248563 
L 86.6 69.248563 
" style="fill:none;stroke:#0000ff;stroke-linecap:square;stroke-width:1.5;"/>
    </g>
    <g id="line2d_41"/>
    <g id="text_12">
     <!-- With denoising -->
     <defs>
      <path d="M 3.328125 72.90625 
L 13.28125 72.90625 
L 28.609375 11.28125 
L 43.890625 72.90625 
L 54.984375 72.90625 
L 70.3125 11.28125 
L 85.59375 72.90625 
L 95.609375 72.90625 
L 77.296875 0 
L 64.890625 0 
L 49.515625 63.28125 
L 33.984375 0 
L 21.578125 0 
z
" id="DejaVuSans-87"/>
      <path d="M 54.890625 33.015625 
L 54.890625 0 
L 45.90625 0 
L 45.90625 32.71875 
Q 45.90625 40.484375 42.875 44.328125 
Q 39.84375 48.1875 33.796875 48.1875 
Q 26.515625 48.1875 22.3125 43.546875 
Q 18.109375 38.921875 18.109375 30.90625 
L 18.109375 0 
L 9.078125 0 
L 9.078125 75.984375 
L 18.109375 75.984375 
L 18.109375 46.1875 
Q 21.34375 51.125 25.703125 53.5625 
Q 30.078125 56 35.796875 56 
Q 45.21875 56 50.046875 50.171875 
Q 54.890625 44.34375 54.890625 33.015625 
z
" id="DejaVuSans-104"/>
     </defs>
     <g transform="translate(94.6 72.748563)scale(0.1 -0.1)">
      <use xlink:href="#DejaVuSans-87"/>
      <use x="98.845703" xlink:href="#DejaVuSans-105"/>
      <use x="126.628906" xlink:href="#DejaVuSans-116"/>
      <use x="165.837891" xlink:href="#DejaVuSans-104"/>
      <use x="229.216797" xlink:href="#DejaVuSans-32"/>
      <use x="261.003906" xlink:href="#DejaVuSans-100"/>
      <use x="324.480469" xlink:href="#DejaVuSans-101"/>
      <use x="386.003906" xlink:href="#DejaVuSans-110"/>
      <use x="449.382812" xlink:href="#DejaVuSans-111"/>
      <use x="510.564453" xlink:href="#DejaVuSans-105"/>
      <use x="538.347656" xlink:href="#DejaVuSans-115"/>
      <use x="590.447266" xlink:href="#DejaVuSans-105"/>
      <use x="618.230469" xlink:href="#DejaVuSans-110"/>
      <use x="681.609375" xlink:href="#DejaVuSans-103"/>
     </g>
    </g>
    <g id="line2d_42">
     <path d="M 66.6 83.926688 
L 86.6 83.926688 
" style="fill:none;stroke:#00ffff;stroke-linecap:square;stroke-width:1.5;"/>
    </g>
    <g id="line2d_43"/>
    <g id="text_13">
     <!-- With big denoising -->
     <defs>
      <path d="M 48.6875 27.296875 
Q 48.6875 37.203125 44.609375 42.84375 
Q 40.53125 48.484375 33.40625 48.484375 
Q 26.265625 48.484375 22.1875 42.84375 
Q 18.109375 37.203125 18.109375 27.296875 
Q 18.109375 17.390625 22.1875 11.75 
Q 26.265625 6.109375 33.40625 6.109375 
Q 40.53125 6.109375 44.609375 11.75 
Q 48.6875 17.390625 48.6875 27.296875 
z
M 18.109375 46.390625 
Q 20.953125 51.265625 25.265625 53.625 
Q 29.59375 56 35.59375 56 
Q 45.5625 56 51.78125 48.09375 
Q 58.015625 40.1875 58.015625 27.296875 
Q 58.015625 14.40625 51.78125 6.484375 
Q 45.5625 -1.421875 35.59375 -1.421875 
Q 29.59375 -1.421875 25.265625 0.953125 
Q 20.953125 3.328125 18.109375 8.203125 
L 18.109375 0 
L 9.078125 0 
L 9.078125 75.984375 
L 18.109375 75.984375 
z
" id="DejaVuSans-98"/>
     </defs>
     <g transform="translate(94.6 87.426688)scale(0.1 -0.1)">
      <use xlink:href="#DejaVuSans-87"/>
      <use x="98.845703" xlink:href="#DejaVuSans-105"/>
      <use x="126.628906" xlink:href="#DejaVuSans-116"/>
      <use x="165.837891" xlink:href="#DejaVuSans-104"/>
      <use x="229.216797" xlink:href="#DejaVuSans-32"/>
      <use x="261.003906" xlink:href="#DejaVuSans-98"/>
      <use x="324.480469" xlink:href="#DejaVuSans-105"/>
      <use x="352.263672" xlink:href="#DejaVuSans-103"/>
      <use x="415.740234" xlink:href="#DejaVuSans-32"/>
      <use x="447.527344" xlink:href="#DejaVuSans-100"/>
      <use x="511.003906" xlink:href="#DejaVuSans-101"/>
      <use x="572.527344" xlink:href="#DejaVuSans-110"/>
      <use x="635.90625" xlink:href="#DejaVuSans-111"/>
      <use x="697.087891" xlink:href="#DejaVuSans-105"/>
      <use x="724.871094" xlink:href="#DejaVuSans-115"/>
      <use x="776.970703" xlink:href="#DejaVuSans-105"/>
      <use x="804.753906" xlink:href="#DejaVuSans-110"/>
      <use x="868.132812" xlink:href="#DejaVuSans-103"/>
     </g>
    </g>
   </g>
  </g>
 </g>
 <defs>
  <clipPath id="p7cd7376c09">
   <rect height="266.112" width="357.12" x="57.6" y="41.472"/>
  </clipPath>
 </defs>
</svg>
