<?xml version="1.0" encoding="utf-8" standalone="no"?>
<!DOCTYPE svg PUBLIC "-//W3C//DTD SVG 1.1//EN"
  "http://www.w3.org/Graphics/SVG/1.1/DTD/svg11.dtd">
<!-- Created with matplotlib (https://matplotlib.org/) -->
<svg height="345.6pt" version="1.1" viewBox="0 0 460.8 345.6" width="460.8pt" xmlns="http://www.w3.org/2000/svg" xmlns:xlink="http://www.w3.org/1999/xlink">
 <defs>
  <style type="text/css">
*{stroke-linecap:butt;stroke-linejoin:round;white-space:pre;}
  </style>
 </defs>
 <g id="figure_1">
  <g id="patch_1">
   <path d="M 0 345.6 
L 460.8 345.6 
L 460.8 0 
L 0 0 
z
" style="fill:#ffffff;"/>
  </g>
  <g id="axes_1">
   <g id="patch_2">
    <path d="M 57.6 307.584 
L 414.72 307.584 
L 414.72 41.472 
L 57.6 41.472 
z
" style="fill:#ffffff;"/>
   </g>
   <g id="PolyCollection_1">
    <path clip-path="url(#p3d0009fc42)" d="M 73.832727 229.726551 
L 73.832727 275.493121 
L 77.145529 252.125661 
L 80.45833 234.822839 
L 83.771132 221.135083 
L 87.083933 209.994978 
L 90.396735 200.815994 
L 93.709536 193.206525 
L 97.022338 186.863222 
L 100.335139 181.536804 
L 103.647941 177.022434 
L 106.960742 173.154644 
L 110.273544 169.802913 
L 113.586345 166.872948 
L 116.899147 164.295199 
L 120.211948 162.01217 
L 123.52475 159.981937 
L 126.837551 158.170638 
L 130.150353 156.554964 
L 133.463154 155.110627 
L 136.775955 153.806595 
L 140.088757 152.609491 
L 143.401558 151.489534 
L 146.71436 150.423604 
L 150.027161 149.402423 
L 153.339963 148.424679 
L 156.652764 147.491628 
L 159.965566 146.606272 
L 163.278367 145.771458 
L 166.591169 144.987894 
L 169.90397 144.2556 
L 173.216772 143.575724 
L 176.529573 142.951533 
L 179.842375 142.387032 
L 183.155176 141.88477 
L 186.467978 141.445559 
L 189.780779 141.067873 
L 193.093581 140.745527 
L 196.406382 140.467592 
L 199.719184 140.217916 
L 203.031985 139.974978 
L 206.344787 139.71261 
L 209.657588 139.402801 
L 212.97039 139.018557 
L 216.283191 138.537601 
L 219.595993 137.94547 
L 222.908794 137.235761 
L 226.221596 136.407979 
L 229.534397 135.466411 
L 232.847199 134.418946 
L 236.16 133.275654 
L 239.472801 132.047979 
L 242.785603 130.748063 
L 246.098404 129.388371 
L 249.411206 127.981297 
L 252.724007 126.53867 
L 256.036809 125.07162 
L 259.34961 123.590487 
L 262.662412 122.104821 
L 265.975213 120.623321 
L 269.288015 119.153526 
L 272.600816 117.701678 
L 275.913618 116.272763 
L 279.226419 114.870545 
L 282.539221 113.49767 
L 285.852022 112.155823 
L 289.164824 110.845978 
L 292.477625 109.568663 
L 295.790427 108.324107 
L 299.103228 107.112402 
L 302.41603 105.933546 
L 305.728831 104.787379 
L 309.041633 103.673624 
L 312.354434 102.592116 
L 315.667236 101.543082 
L 318.980037 100.526935 
L 322.292839 99.544229 
L 325.60564 98.595519 
L 328.918442 97.681386 
L 332.231243 96.802579 
L 335.544045 95.959933 
L 338.856846 95.154239 
L 342.169647 94.386396 
L 345.482449 93.657794 
L 348.79525 92.969853 
L 352.108052 92.324103 
L 355.420853 91.722286 
L 358.733655 91.166197 
L 362.046456 90.657751 
L 365.359258 90.199054 
L 368.672059 89.79239 
L 371.984861 89.440089 
L 375.297662 89.144182 
L 378.610464 88.906093 
L 381.923265 88.72592 
L 385.236067 88.601332 
L 388.548868 88.526234 
L 391.86167 88.489259 
L 395.174471 88.47316 
L 398.487273 88.456778 
L 398.487273 53.661448 
L 398.487273 53.661448 
L 395.174471 53.595637 
L 391.86167 53.568 
L 388.548868 53.582808 
L 385.236067 53.642134 
L 381.923265 53.746538 
L 378.610464 53.895624 
L 375.297662 54.088401 
L 371.984861 54.323522 
L 368.672059 54.599457 
L 365.359258 54.914578 
L 362.046456 55.267295 
L 358.733655 55.656118 
L 355.420853 56.079648 
L 352.108052 56.536558 
L 348.79525 57.025604 
L 345.482449 57.545607 
L 342.169647 58.095568 
L 338.856846 58.674613 
L 335.544045 59.28202 
L 332.231243 59.917154 
L 328.918442 60.579521 
L 325.60564 61.268895 
L 322.292839 61.985426 
L 318.980037 62.72952 
L 315.667236 63.501695 
L 312.354434 64.302574 
L 309.041633 65.132828 
L 305.728831 65.99316 
L 302.41603 66.884343 
L 299.103228 67.807105 
L 295.790427 68.761999 
L 292.477625 69.749168 
L 289.164824 70.768238 
L 285.852022 71.818273 
L 282.539221 72.897699 
L 279.226419 74.004241 
L 275.913618 75.134884 
L 272.600816 76.285688 
L 269.288015 77.451718 
L 265.975213 78.627046 
L 262.662412 79.804791 
L 259.34961 80.97716 
L 256.036809 82.135399 
L 252.724007 83.269889 
L 249.411206 84.370396 
L 246.098404 85.426378 
L 242.785603 86.426968 
L 239.472801 87.361086 
L 236.16 88.217695 
L 232.847199 88.985826 
L 229.534397 89.65501 
L 226.221596 90.215985 
L 222.908794 90.661579 
L 219.595993 90.988079 
L 216.283191 91.197132 
L 212.97039 91.297748 
L 209.657588 91.307075 
L 206.344787 91.249111 
L 203.031985 91.151513 
L 199.719184 91.04186 
L 196.406382 90.944567 
L 193.093581 90.879186 
L 189.780779 90.860098 
L 186.467978 90.897052 
L 183.155176 90.996205 
L 179.842375 91.160891 
L 176.529573 91.392515 
L 173.216772 91.691018 
L 169.90397 92.055777 
L 166.591169 92.486648 
L 163.278367 92.984224 
L 159.965566 93.549269 
L 156.652764 94.182861 
L 153.339963 94.887203 
L 150.027161 95.667318 
L 146.71436 96.530071 
L 143.401558 97.483936 
L 140.088757 98.541432 
L 136.775955 99.720854 
L 133.463154 101.039597 
L 130.150353 102.517601 
L 126.837551 104.17736 
L 123.52475 106.045922 
L 120.211948 108.15674 
L 116.899147 110.549319 
L 113.586345 113.27186 
L 110.273544 116.386328 
L 106.960742 119.973316 
L 103.647941 124.138397 
L 100.335139 129.017785 
L 97.022338 134.781318 
L 93.709536 141.638646 
L 90.396735 149.850412 
L 87.083933 159.740263 
L 83.771132 171.724497 
L 80.45833 186.415445 
L 77.145529 204.912967 
L 73.832727 229.726551 
z
" style="fill:#ff0000;fill-opacity:0.4;"/>
   </g>
   <g id="PolyCollection_2">
    <path clip-path="url(#p3d0009fc42)" d="M 73.832727 228.771711 
L 73.832727 276.80841 
L 77.145529 253.215355 
L 80.45833 235.883643 
L 83.771132 222.367941 
L 87.083933 211.607531 
L 90.396735 202.976566 
L 93.709536 196.015572 
L 97.022338 190.355902 
L 100.335139 185.694053 
L 103.647941 181.784495 
L 106.960742 178.41782 
L 110.273544 175.423977 
L 113.586345 172.66775 
L 116.899147 170.047672 
L 120.211948 167.500583 
L 123.52475 164.993358 
L 126.837551 162.512545 
L 130.150353 160.059114 
L 133.463154 157.641299 
L 136.775955 155.270015 
L 140.088757 152.957274 
L 143.401558 150.712511 
L 146.71436 148.54754 
L 150.027161 146.471715 
L 153.339963 144.496847 
L 156.652764 142.635641 
L 159.965566 140.893778 
L 163.278367 139.272184 
L 166.591169 137.77226 
L 169.90397 136.392826 
L 173.216772 135.128583 
L 176.529573 133.972366 
L 179.842375 132.917389 
L 183.155176 131.955644 
L 186.467978 131.078206 
L 189.780779 130.275124 
L 193.093581 129.537025 
L 196.406382 128.855712 
L 199.719184 128.221448 
L 203.031985 127.622323 
L 206.344787 127.044136 
L 209.657588 126.470019 
L 212.97039 125.880201 
L 216.283191 125.253362 
L 219.595993 124.569354 
L 222.908794 123.812403 
L 226.221596 122.972817 
L 229.534397 122.047134 
L 232.847199 121.037052 
L 236.16 119.947931 
L 239.472801 118.787721 
L 242.785603 117.565901 
L 246.098404 116.292768 
L 249.411206 114.978937 
L 252.724007 113.634977 
L 256.036809 112.271089 
L 259.34961 110.896829 
L 262.662412 109.520782 
L 265.975213 108.150429 
L 269.288015 106.792188 
L 272.600816 105.451297 
L 275.913618 104.131982 
L 279.226419 102.83767 
L 282.539221 101.570876 
L 285.852022 100.333274 
L 289.164824 99.125806 
L 292.477625 97.948898 
L 295.790427 96.802545 
L 299.103228 95.686433 
L 302.41603 94.600027 
L 305.728831 93.542665 
L 309.041633 92.513651 
L 312.354434 91.512266 
L 315.667236 90.537823 
L 318.980037 89.589849 
L 322.292839 88.668171 
L 325.60564 87.772764 
L 328.918442 86.903641 
L 332.231243 86.060881 
L 335.544045 85.244591 
L 338.856846 84.454949 
L 342.169647 83.692431 
L 345.482449 82.957565 
L 348.79525 82.250859 
L 352.108052 81.572496 
L 355.420853 80.922403 
L 358.733655 80.300625 
L 362.046456 79.707313 
L 365.359258 79.142884 
L 368.672059 78.608012 
L 371.984861 78.103603 
L 375.297662 77.630748 
L 378.610464 77.190522 
L 381.923265 76.783878 
L 385.236067 76.411411 
L 388.548868 76.073367 
L 391.86167 75.769934 
L 395.174471 75.50157 
L 398.487273 75.268529 
L 398.487273 55.07902 
L 398.487273 55.07902 
L 395.174471 54.977447 
L 391.86167 54.910221 
L 388.548868 54.882448 
L 385.236067 54.896834 
L 381.923265 54.954434 
L 378.610464 55.055234 
L 375.297662 55.198458 
L 371.984861 55.382941 
L 368.672059 55.607365 
L 365.359258 55.870341 
L 362.046456 56.170471 
L 358.733655 56.506377 
L 355.420853 56.876727 
L 352.108052 57.280227 
L 348.79525 57.715633 
L 345.482449 58.181795 
L 342.169647 58.677595 
L 338.856846 59.202046 
L 335.544045 59.754406 
L 332.231243 60.334135 
L 328.918442 60.940895 
L 325.60564 61.574468 
L 322.292839 62.234809 
L 318.980037 62.922163 
L 315.667236 63.636999 
L 312.354434 64.379932 
L 309.041633 65.151666 
L 305.728831 65.952985 
L 302.41603 66.784789 
L 299.103228 67.648001 
L 295.790427 68.54332 
L 292.477625 69.471 
L 289.164824 70.430788 
L 285.852022 71.421848 
L 282.539221 72.442718 
L 279.226419 73.491257 
L 275.913618 74.564581 
L 272.600816 75.658962 
L 269.288015 76.769545 
L 265.975213 77.890359 
L 262.662412 79.014355 
L 259.34961 80.133588 
L 256.036809 81.239193 
L 252.724007 82.321492 
L 249.411206 83.370346 
L 246.098404 84.375354 
L 242.785603 85.325891 
L 239.472801 86.211329 
L 236.16 87.021307 
L 232.847199 87.746092 
L 229.534397 88.376874 
L 226.221596 88.906495 
L 222.908794 89.330301 
L 219.595993 89.6473 
L 216.283191 89.861589 
L 212.97039 89.98361 
L 209.657588 90.030084 
L 206.344787 90.022444 
L 203.031985 89.984289 
L 199.719184 89.938661 
L 196.406382 89.905976 
L 193.093581 89.902718 
L 189.780779 89.941193 
L 186.467978 90.029939 
L 183.155176 90.174685 
L 179.842375 90.379199 
L 176.529573 90.645665 
L 173.216772 90.974975 
L 169.90397 91.367185 
L 166.591169 91.821755 
L 163.278367 92.338595 
L 159.965566 92.918216 
L 156.652764 93.561832 
L 153.339963 94.272626 
L 150.027161 95.057723 
L 146.71436 95.926364 
L 143.401558 96.888634 
L 140.088757 97.956844 
L 136.775955 99.1478 
L 133.463154 100.478441 
L 130.150353 101.967135 
L 126.837551 103.635373 
L 123.52475 105.506466 
L 120.211948 107.610448 
L 116.899147 109.987144 
L 113.586345 112.684045 
L 110.273544 115.763058 
L 106.960742 119.30606 
L 103.647941 123.419674 
L 100.335139 128.241548 
L 97.022338 133.945752 
L 93.709536 140.746133 
L 90.396735 148.906477 
L 87.083933 158.754926 
L 83.771132 170.713117 
L 80.45833 185.400443 
L 77.145529 203.911921 
L 73.832727 228.771711 
z
" style="fill:#0000ff;fill-opacity:0.4;"/>
   </g>
   <g id="PolyCollection_3">
    <path clip-path="url(#p3d0009fc42)" d="M 73.832727 235.68736 
L 73.832727 295.488 
L 77.145529 271.355652 
L 80.45833 253.461381 
L 83.771132 239.288949 
L 87.083933 227.75061 
L 90.396735 218.237418 
L 93.709536 210.321487 
L 97.022338 203.686832 
L 100.335139 198.085363 
L 103.647941 193.31009 
L 106.960742 189.190835 
L 110.273544 185.59179 
L 113.586345 182.411312 
L 116.899147 179.575444 
L 120.211948 177.02688 
L 123.52475 174.723438 
L 126.837551 172.639268 
L 130.150353 170.753931 
L 133.463154 169.044618 
L 136.775955 167.488515 
L 140.088757 166.055582 
L 143.401558 164.718545 
L 146.71436 163.456711 
L 150.027161 162.25668 
L 153.339963 161.111553 
L 156.652764 160.022968 
L 159.965566 158.994444 
L 163.278367 158.021934 
L 166.591169 157.102171 
L 169.90397 156.233264 
L 173.216772 155.412031 
L 176.529573 154.634876 
L 179.842375 153.900722 
L 183.155176 153.210744 
L 186.467978 152.56263 
L 189.780779 151.951009 
L 193.093581 151.368114 
L 196.406382 150.804796 
L 199.719184 150.252063 
L 203.031985 149.700344 
L 206.344787 149.13876 
L 209.657588 148.557368 
L 212.97039 147.946848 
L 216.283191 147.297596 
L 219.595993 146.600249 
L 222.908794 145.846559 
L 226.221596 145.029456 
L 229.534397 144.143743 
L 232.847199 143.187272 
L 236.16 142.160906 
L 239.472801 141.068455 
L 242.785603 139.916655 
L 246.098404 138.714064 
L 249.411206 137.469992 
L 252.724007 136.194142 
L 256.036809 134.896136 
L 259.34961 133.585284 
L 262.662412 132.270582 
L 265.975213 130.96015 
L 269.288015 129.660836 
L 272.600816 128.378206 
L 275.913618 127.116547 
L 279.226419 125.878853 
L 282.539221 124.666986 
L 285.852022 123.48191 
L 289.164824 122.323931 
L 292.477625 121.192873 
L 295.790427 120.088342 
L 299.103228 119.010077 
L 302.41603 117.957826 
L 305.728831 116.931306 
L 309.041633 115.930607 
L 312.354434 114.956139 
L 315.667236 114.008449 
L 318.980037 113.088095 
L 322.292839 112.19584 
L 325.60564 111.332898 
L 328.918442 110.500587 
L 332.231243 109.700403 
L 335.544045 108.933635 
L 338.856846 108.201423 
L 342.169647 107.50461 
L 345.482449 106.844112 
L 348.79525 106.221047 
L 352.108052 105.636644 
L 355.420853 105.092249 
L 358.733655 104.589441 
L 362.046456 104.130029 
L 365.359258 103.716096 
L 368.672059 103.349877 
L 371.984861 103.033294 
L 375.297662 102.767681 
L 378.610464 102.553217 
L 381.923265 102.387889 
L 385.236067 102.266327 
L 388.548868 102.178623 
L 391.86167 102.11008 
L 395.174471 102.042967 
L 398.487273 101.959435 
L 398.487273 55.229124 
L 398.487273 55.229124 
L 395.174471 54.96605 
L 391.86167 54.732201 
L 388.548868 54.544188 
L 385.236067 54.41097 
L 381.923265 54.335981 
L 378.610464 54.319344 
L 375.297662 54.359549 
L 371.984861 54.454504 
L 368.672059 54.601956 
L 365.359258 54.799649 
L 362.046456 55.045464 
L 358.733655 55.337478 
L 355.420853 55.674015 
L 352.108052 56.053694 
L 348.79525 56.475365 
L 345.482449 56.93806 
L 342.169647 57.440917 
L 338.856846 57.983187 
L 335.544045 58.564348 
L 332.231243 59.184056 
L 328.918442 59.842092 
L 325.60564 60.538443 
L 322.292839 61.273277 
L 318.980037 62.046923 
L 315.667236 62.85994 
L 312.354434 63.713164 
L 309.041633 64.607448 
L 305.728831 65.543607 
L 302.41603 66.522372 
L 299.103228 67.544287 
L 295.790427 68.609641 
L 292.477625 69.718426 
L 289.164824 70.87026 
L 285.852022 72.064297 
L 282.539221 73.299146 
L 279.226419 74.572716 
L 275.913618 75.882124 
L 272.600816 77.223641 
L 269.288015 78.592711 
L 265.975213 79.984031 
L 262.662412 81.391467 
L 259.34961 82.808104 
L 256.036809 84.226339 
L 252.724007 85.637935 
L 249.411206 87.034125 
L 246.098404 88.405753 
L 242.785603 89.743518 
L 239.472801 91.037943 
L 236.16 92.279333 
L 232.847199 93.457785 
L 229.534397 94.563235 
L 226.221596 95.58545 
L 222.908794 96.514 
L 219.595993 97.338431 
L 216.283191 98.048898 
L 212.97039 98.636677 
L 209.657588 99.095029 
L 206.344787 99.420953 
L 203.031985 99.617278 
L 199.719184 99.694494 
L 196.406382 99.671971 
L 193.093581 99.577162 
L 189.780779 99.442077 
L 186.467978 99.2985 
L 183.155176 99.173845 
L 179.842375 99.089503 
L 176.529573 99.06103 
L 173.216772 99.098287 
L 169.90397 99.206717 
L 166.591169 99.390058 
L 163.278367 99.651527 
L 159.965566 99.994613 
L 156.652764 100.42293 
L 153.339963 100.939739 
L 150.027161 101.547581 
L 146.71436 102.252513 
L 143.401558 103.063597 
L 140.088757 103.993196 
L 136.775955 105.059849 
L 133.463154 106.284509 
L 130.150353 107.686753 
L 126.837551 109.288827 
L 123.52475 111.113522 
L 120.211948 113.18946 
L 116.899147 115.556312 
L 113.586345 118.263462 
L 110.273544 121.374408 
L 106.960742 124.971023 
L 103.647941 129.159239 
L 100.335139 134.075575 
L 97.022338 139.890499 
L 93.709536 146.815108 
L 90.396735 155.110729 
L 87.083933 165.102439 
L 83.771132 177.209074 
L 80.45833 192.040963 
L 77.145529 210.68838 
L 73.832727 235.68736 
z
" style="fill:#00ffff;fill-opacity:0.4;"/>
   </g>
   <g id="matplotlib.axis_1">
    <g id="xtick_1">
     <g id="line2d_1">
      <path clip-path="url(#p3d0009fc42)" d="M 70.519926 307.584 
L 70.519926 41.472 
" style="fill:none;stroke:#b0b0b0;stroke-linecap:square;stroke-width:0.8;"/>
     </g>
     <g id="line2d_2">
      <defs>
       <path d="M 0 0 
L 0 3.5 
" id="m3a30b9f676" style="stroke:#000000;stroke-width:0.8;"/>
      </defs>
      <g>
       <use style="stroke:#000000;stroke-width:0.8;" x="70.519926" xlink:href="#m3a30b9f676" y="307.584"/>
      </g>
     </g>
     <g id="text_1">
      <!-- 0.0 -->
      <defs>
       <path d="M 31.78125 66.40625 
Q 24.171875 66.40625 20.328125 58.90625 
Q 16.5 51.421875 16.5 36.375 
Q 16.5 21.390625 20.328125 13.890625 
Q 24.171875 6.390625 31.78125 6.390625 
Q 39.453125 6.390625 43.28125 13.890625 
Q 47.125 21.390625 47.125 36.375 
Q 47.125 51.421875 43.28125 58.90625 
Q 39.453125 66.40625 31.78125 66.40625 
z
M 31.78125 74.21875 
Q 44.046875 74.21875 50.515625 64.515625 
Q 56.984375 54.828125 56.984375 36.375 
Q 56.984375 17.96875 50.515625 8.265625 
Q 44.046875 -1.421875 31.78125 -1.421875 
Q 19.53125 -1.421875 13.0625 8.265625 
Q 6.59375 17.96875 6.59375 36.375 
Q 6.59375 54.828125 13.0625 64.515625 
Q 19.53125 74.21875 31.78125 74.21875 
z
" id="DejaVuSans-48"/>
       <path d="M 10.6875 12.40625 
L 21 12.40625 
L 21 0 
L 10.6875 0 
z
" id="DejaVuSans-46"/>
      </defs>
      <g transform="translate(62.568363 322.182437)scale(0.1 -0.1)">
       <use xlink:href="#DejaVuSans-48"/>
       <use x="63.623047" xlink:href="#DejaVuSans-46"/>
       <use x="95.410156" xlink:href="#DejaVuSans-48"/>
      </g>
     </g>
    </g>
    <g id="xtick_2">
     <g id="line2d_3">
      <path clip-path="url(#p3d0009fc42)" d="M 136.775955 307.584 
L 136.775955 41.472 
" style="fill:none;stroke:#b0b0b0;stroke-linecap:square;stroke-width:0.8;"/>
     </g>
     <g id="line2d_4">
      <g>
       <use style="stroke:#000000;stroke-width:0.8;" x="136.775955" xlink:href="#m3a30b9f676" y="307.584"/>
      </g>
     </g>
     <g id="text_2">
      <!-- 0.2 -->
      <defs>
       <path d="M 19.1875 8.296875 
L 53.609375 8.296875 
L 53.609375 0 
L 7.328125 0 
L 7.328125 8.296875 
Q 12.9375 14.109375 22.625 23.890625 
Q 32.328125 33.6875 34.8125 36.53125 
Q 39.546875 41.84375 41.421875 45.53125 
Q 43.3125 49.21875 43.3125 52.78125 
Q 43.3125 58.59375 39.234375 62.25 
Q 35.15625 65.921875 28.609375 65.921875 
Q 23.96875 65.921875 18.8125 64.3125 
Q 13.671875 62.703125 7.8125 59.421875 
L 7.8125 69.390625 
Q 13.765625 71.78125 18.9375 73 
Q 24.125 74.21875 28.421875 74.21875 
Q 39.75 74.21875 46.484375 68.546875 
Q 53.21875 62.890625 53.21875 53.421875 
Q 53.21875 48.921875 51.53125 44.890625 
Q 49.859375 40.875 45.40625 35.40625 
Q 44.1875 33.984375 37.640625 27.21875 
Q 31.109375 20.453125 19.1875 8.296875 
z
" id="DejaVuSans-50"/>
      </defs>
      <g transform="translate(128.824393 322.182437)scale(0.1 -0.1)">
       <use xlink:href="#DejaVuSans-48"/>
       <use x="63.623047" xlink:href="#DejaVuSans-46"/>
       <use x="95.410156" xlink:href="#DejaVuSans-50"/>
      </g>
     </g>
    </g>
    <g id="xtick_3">
     <g id="line2d_5">
      <path clip-path="url(#p3d0009fc42)" d="M 203.031985 307.584 
L 203.031985 41.472 
" style="fill:none;stroke:#b0b0b0;stroke-linecap:square;stroke-width:0.8;"/>
     </g>
     <g id="line2d_6">
      <g>
       <use style="stroke:#000000;stroke-width:0.8;" x="203.031985" xlink:href="#m3a30b9f676" y="307.584"/>
      </g>
     </g>
     <g id="text_3">
      <!-- 0.4 -->
      <defs>
       <path d="M 37.796875 64.3125 
L 12.890625 25.390625 
L 37.796875 25.390625 
z
M 35.203125 72.90625 
L 47.609375 72.90625 
L 47.609375 25.390625 
L 58.015625 25.390625 
L 58.015625 17.1875 
L 47.609375 17.1875 
L 47.609375 0 
L 37.796875 0 
L 37.796875 17.1875 
L 4.890625 17.1875 
L 4.890625 26.703125 
z
" id="DejaVuSans-52"/>
      </defs>
      <g transform="translate(195.080423 322.182437)scale(0.1 -0.1)">
       <use xlink:href="#DejaVuSans-48"/>
       <use x="63.623047" xlink:href="#DejaVuSans-46"/>
       <use x="95.410156" xlink:href="#DejaVuSans-52"/>
      </g>
     </g>
    </g>
    <g id="xtick_4">
     <g id="line2d_7">
      <path clip-path="url(#p3d0009fc42)" d="M 269.288015 307.584 
L 269.288015 41.472 
" style="fill:none;stroke:#b0b0b0;stroke-linecap:square;stroke-width:0.8;"/>
     </g>
     <g id="line2d_8">
      <g>
       <use style="stroke:#000000;stroke-width:0.8;" x="269.288015" xlink:href="#m3a30b9f676" y="307.584"/>
      </g>
     </g>
     <g id="text_4">
      <!-- 0.6 -->
      <defs>
       <path d="M 33.015625 40.375 
Q 26.375 40.375 22.484375 35.828125 
Q 18.609375 31.296875 18.609375 23.390625 
Q 18.609375 15.53125 22.484375 10.953125 
Q 26.375 6.390625 33.015625 6.390625 
Q 39.65625 6.390625 43.53125 10.953125 
Q 47.40625 15.53125 47.40625 23.390625 
Q 47.40625 31.296875 43.53125 35.828125 
Q 39.65625 40.375 33.015625 40.375 
z
M 52.59375 71.296875 
L 52.59375 62.3125 
Q 48.875 64.0625 45.09375 64.984375 
Q 41.3125 65.921875 37.59375 65.921875 
Q 27.828125 65.921875 22.671875 59.328125 
Q 17.53125 52.734375 16.796875 39.40625 
Q 19.671875 43.65625 24.015625 45.921875 
Q 28.375 48.1875 33.59375 48.1875 
Q 44.578125 48.1875 50.953125 41.515625 
Q 57.328125 34.859375 57.328125 23.390625 
Q 57.328125 12.15625 50.6875 5.359375 
Q 44.046875 -1.421875 33.015625 -1.421875 
Q 20.359375 -1.421875 13.671875 8.265625 
Q 6.984375 17.96875 6.984375 36.375 
Q 6.984375 53.65625 15.1875 63.9375 
Q 23.390625 74.21875 37.203125 74.21875 
Q 40.921875 74.21875 44.703125 73.484375 
Q 48.484375 72.75 52.59375 71.296875 
z
" id="DejaVuSans-54"/>
      </defs>
      <g transform="translate(261.336452 322.182437)scale(0.1 -0.1)">
       <use xlink:href="#DejaVuSans-48"/>
       <use x="63.623047" xlink:href="#DejaVuSans-46"/>
       <use x="95.410156" xlink:href="#DejaVuSans-54"/>
      </g>
     </g>
    </g>
    <g id="xtick_5">
     <g id="line2d_9">
      <path clip-path="url(#p3d0009fc42)" d="M 335.544045 307.584 
L 335.544045 41.472 
" style="fill:none;stroke:#b0b0b0;stroke-linecap:square;stroke-width:0.8;"/>
     </g>
     <g id="line2d_10">
      <g>
       <use style="stroke:#000000;stroke-width:0.8;" x="335.544045" xlink:href="#m3a30b9f676" y="307.584"/>
      </g>
     </g>
     <g id="text_5">
      <!-- 0.8 -->
      <defs>
       <path d="M 31.78125 34.625 
Q 24.75 34.625 20.71875 30.859375 
Q 16.703125 27.09375 16.703125 20.515625 
Q 16.703125 13.921875 20.71875 10.15625 
Q 24.75 6.390625 31.78125 6.390625 
Q 38.8125 6.390625 42.859375 10.171875 
Q 46.921875 13.96875 46.921875 20.515625 
Q 46.921875 27.09375 42.890625 30.859375 
Q 38.875 34.625 31.78125 34.625 
z
M 21.921875 38.8125 
Q 15.578125 40.375 12.03125 44.71875 
Q 8.5 49.078125 8.5 55.328125 
Q 8.5 64.0625 14.71875 69.140625 
Q 20.953125 74.21875 31.78125 74.21875 
Q 42.671875 74.21875 48.875 69.140625 
Q 55.078125 64.0625 55.078125 55.328125 
Q 55.078125 49.078125 51.53125 44.71875 
Q 48 40.375 41.703125 38.8125 
Q 48.828125 37.15625 52.796875 32.3125 
Q 56.78125 27.484375 56.78125 20.515625 
Q 56.78125 9.90625 50.3125 4.234375 
Q 43.84375 -1.421875 31.78125 -1.421875 
Q 19.734375 -1.421875 13.25 4.234375 
Q 6.78125 9.90625 6.78125 20.515625 
Q 6.78125 27.484375 10.78125 32.3125 
Q 14.796875 37.15625 21.921875 38.8125 
z
M 18.3125 54.390625 
Q 18.3125 48.734375 21.84375 45.5625 
Q 25.390625 42.390625 31.78125 42.390625 
Q 38.140625 42.390625 41.71875 45.5625 
Q 45.3125 48.734375 45.3125 54.390625 
Q 45.3125 60.0625 41.71875 63.234375 
Q 38.140625 66.40625 31.78125 66.40625 
Q 25.390625 66.40625 21.84375 63.234375 
Q 18.3125 60.0625 18.3125 54.390625 
z
" id="DejaVuSans-56"/>
      </defs>
      <g transform="translate(327.592482 322.182437)scale(0.1 -0.1)">
       <use xlink:href="#DejaVuSans-48"/>
       <use x="63.623047" xlink:href="#DejaVuSans-46"/>
       <use x="95.410156" xlink:href="#DejaVuSans-56"/>
      </g>
     </g>
    </g>
    <g id="xtick_6">
     <g id="line2d_11">
      <path clip-path="url(#p3d0009fc42)" d="M 401.800074 307.584 
L 401.800074 41.472 
" style="fill:none;stroke:#b0b0b0;stroke-linecap:square;stroke-width:0.8;"/>
     </g>
     <g id="line2d_12">
      <g>
       <use style="stroke:#000000;stroke-width:0.8;" x="401.800074" xlink:href="#m3a30b9f676" y="307.584"/>
      </g>
     </g>
     <g id="text_6">
      <!-- 1.0 -->
      <defs>
       <path d="M 12.40625 8.296875 
L 28.515625 8.296875 
L 28.515625 63.921875 
L 10.984375 60.40625 
L 10.984375 69.390625 
L 28.421875 72.90625 
L 38.28125 72.90625 
L 38.28125 8.296875 
L 54.390625 8.296875 
L 54.390625 0 
L 12.40625 0 
z
" id="DejaVuSans-49"/>
      </defs>
      <g transform="translate(393.848512 322.182437)scale(0.1 -0.1)">
       <use xlink:href="#DejaVuSans-49"/>
       <use x="63.623047" xlink:href="#DejaVuSans-46"/>
       <use x="95.410156" xlink:href="#DejaVuSans-48"/>
      </g>
     </g>
    </g>
    <g id="text_7">
     <!-- $\mathrm{Time \ (seconds)}$ -->
     <defs>
      <path d="M -0.296875 72.90625 
L 61.375 72.90625 
L 61.375 64.59375 
L 35.5 64.59375 
L 35.5 0 
L 25.59375 0 
L 25.59375 64.59375 
L -0.296875 64.59375 
z
" id="DejaVuSans-84"/>
      <path d="M 9.421875 54.6875 
L 18.40625 54.6875 
L 18.40625 0 
L 9.421875 0 
z
M 9.421875 75.984375 
L 18.40625 75.984375 
L 18.40625 64.59375 
L 9.421875 64.59375 
z
" id="DejaVuSans-105"/>
      <path d="M 52 44.1875 
Q 55.375 50.25 60.0625 53.125 
Q 64.75 56 71.09375 56 
Q 79.640625 56 84.28125 50.015625 
Q 88.921875 44.046875 88.921875 33.015625 
L 88.921875 0 
L 79.890625 0 
L 79.890625 32.71875 
Q 79.890625 40.578125 77.09375 44.375 
Q 74.3125 48.1875 68.609375 48.1875 
Q 61.625 48.1875 57.5625 43.546875 
Q 53.515625 38.921875 53.515625 30.90625 
L 53.515625 0 
L 44.484375 0 
L 44.484375 32.71875 
Q 44.484375 40.625 41.703125 44.40625 
Q 38.921875 48.1875 33.109375 48.1875 
Q 26.21875 48.1875 22.15625 43.53125 
Q 18.109375 38.875 18.109375 30.90625 
L 18.109375 0 
L 9.078125 0 
L 9.078125 54.6875 
L 18.109375 54.6875 
L 18.109375 46.1875 
Q 21.1875 51.21875 25.484375 53.609375 
Q 29.78125 56 35.6875 56 
Q 41.65625 56 45.828125 52.96875 
Q 50 49.953125 52 44.1875 
z
" id="DejaVuSans-109"/>
      <path d="M 56.203125 29.59375 
L 56.203125 25.203125 
L 14.890625 25.203125 
Q 15.484375 15.921875 20.484375 11.0625 
Q 25.484375 6.203125 34.421875 6.203125 
Q 39.59375 6.203125 44.453125 7.46875 
Q 49.3125 8.734375 54.109375 11.28125 
L 54.109375 2.78125 
Q 49.265625 0.734375 44.1875 -0.34375 
Q 39.109375 -1.421875 33.890625 -1.421875 
Q 20.796875 -1.421875 13.15625 6.1875 
Q 5.515625 13.8125 5.515625 26.8125 
Q 5.515625 40.234375 12.765625 48.109375 
Q 20.015625 56 32.328125 56 
Q 43.359375 56 49.78125 48.890625 
Q 56.203125 41.796875 56.203125 29.59375 
z
M 47.21875 32.234375 
Q 47.125 39.59375 43.09375 43.984375 
Q 39.0625 48.390625 32.421875 48.390625 
Q 24.90625 48.390625 20.390625 44.140625 
Q 15.875 39.890625 15.1875 32.171875 
z
" id="DejaVuSans-101"/>
      <path d="M 31 75.875 
Q 24.46875 64.65625 21.28125 53.65625 
Q 18.109375 42.671875 18.109375 31.390625 
Q 18.109375 20.125 21.3125 9.0625 
Q 24.515625 -2 31 -13.1875 
L 23.1875 -13.1875 
Q 15.875 -1.703125 12.234375 9.375 
Q 8.59375 20.453125 8.59375 31.390625 
Q 8.59375 42.28125 12.203125 53.3125 
Q 15.828125 64.359375 23.1875 75.875 
z
" id="DejaVuSans-40"/>
      <path d="M 44.28125 53.078125 
L 44.28125 44.578125 
Q 40.484375 46.53125 36.375 47.5 
Q 32.28125 48.484375 27.875 48.484375 
Q 21.1875 48.484375 17.84375 46.4375 
Q 14.5 44.390625 14.5 40.28125 
Q 14.5 37.15625 16.890625 35.375 
Q 19.28125 33.59375 26.515625 31.984375 
L 29.59375 31.296875 
Q 39.15625 29.25 43.1875 25.515625 
Q 47.21875 21.78125 47.21875 15.09375 
Q 47.21875 7.46875 41.1875 3.015625 
Q 35.15625 -1.421875 24.609375 -1.421875 
Q 20.21875 -1.421875 15.453125 -0.5625 
Q 10.6875 0.296875 5.421875 2 
L 5.421875 11.28125 
Q 10.40625 8.6875 15.234375 7.390625 
Q 20.0625 6.109375 24.8125 6.109375 
Q 31.15625 6.109375 34.5625 8.28125 
Q 37.984375 10.453125 37.984375 14.40625 
Q 37.984375 18.0625 35.515625 20.015625 
Q 33.0625 21.96875 24.703125 23.78125 
L 21.578125 24.515625 
Q 13.234375 26.265625 9.515625 29.90625 
Q 5.8125 33.546875 5.8125 39.890625 
Q 5.8125 47.609375 11.28125 51.796875 
Q 16.75 56 26.8125 56 
Q 31.78125 56 36.171875 55.265625 
Q 40.578125 54.546875 44.28125 53.078125 
z
" id="DejaVuSans-115"/>
      <path d="M 48.78125 52.59375 
L 48.78125 44.1875 
Q 44.96875 46.296875 41.140625 47.34375 
Q 37.3125 48.390625 33.40625 48.390625 
Q 24.65625 48.390625 19.8125 42.84375 
Q 14.984375 37.3125 14.984375 27.296875 
Q 14.984375 17.28125 19.8125 11.734375 
Q 24.65625 6.203125 33.40625 6.203125 
Q 37.3125 6.203125 41.140625 7.25 
Q 44.96875 8.296875 48.78125 10.40625 
L 48.78125 2.09375 
Q 45.015625 0.34375 40.984375 -0.53125 
Q 36.96875 -1.421875 32.421875 -1.421875 
Q 20.0625 -1.421875 12.78125 6.34375 
Q 5.515625 14.109375 5.515625 27.296875 
Q 5.515625 40.671875 12.859375 48.328125 
Q 20.21875 56 33.015625 56 
Q 37.15625 56 41.109375 55.140625 
Q 45.0625 54.296875 48.78125 52.59375 
z
" id="DejaVuSans-99"/>
      <path d="M 30.609375 48.390625 
Q 23.390625 48.390625 19.1875 42.75 
Q 14.984375 37.109375 14.984375 27.296875 
Q 14.984375 17.484375 19.15625 11.84375 
Q 23.34375 6.203125 30.609375 6.203125 
Q 37.796875 6.203125 41.984375 11.859375 
Q 46.1875 17.53125 46.1875 27.296875 
Q 46.1875 37.015625 41.984375 42.703125 
Q 37.796875 48.390625 30.609375 48.390625 
z
M 30.609375 56 
Q 42.328125 56 49.015625 48.375 
Q 55.71875 40.765625 55.71875 27.296875 
Q 55.71875 13.875 49.015625 6.21875 
Q 42.328125 -1.421875 30.609375 -1.421875 
Q 18.84375 -1.421875 12.171875 6.21875 
Q 5.515625 13.875 5.515625 27.296875 
Q 5.515625 40.765625 12.171875 48.375 
Q 18.84375 56 30.609375 56 
z
" id="DejaVuSans-111"/>
      <path d="M 54.890625 33.015625 
L 54.890625 0 
L 45.90625 0 
L 45.90625 32.71875 
Q 45.90625 40.484375 42.875 44.328125 
Q 39.84375 48.1875 33.796875 48.1875 
Q 26.515625 48.1875 22.3125 43.546875 
Q 18.109375 38.921875 18.109375 30.90625 
L 18.109375 0 
L 9.078125 0 
L 9.078125 54.6875 
L 18.109375 54.6875 
L 18.109375 46.1875 
Q 21.34375 51.125 25.703125 53.5625 
Q 30.078125 56 35.796875 56 
Q 45.21875 56 50.046875 50.171875 
Q 54.890625 44.34375 54.890625 33.015625 
z
" id="DejaVuSans-110"/>
      <path d="M 45.40625 46.390625 
L 45.40625 75.984375 
L 54.390625 75.984375 
L 54.390625 0 
L 45.40625 0 
L 45.40625 8.203125 
Q 42.578125 3.328125 38.25 0.953125 
Q 33.9375 -1.421875 27.875 -1.421875 
Q 17.96875 -1.421875 11.734375 6.484375 
Q 5.515625 14.40625 5.515625 27.296875 
Q 5.515625 40.1875 11.734375 48.09375 
Q 17.96875 56 27.875 56 
Q 33.9375 56 38.25 53.625 
Q 42.578125 51.265625 45.40625 46.390625 
z
M 14.796875 27.296875 
Q 14.796875 17.390625 18.875 11.75 
Q 22.953125 6.109375 30.078125 6.109375 
Q 37.203125 6.109375 41.296875 11.75 
Q 45.40625 17.390625 45.40625 27.296875 
Q 45.40625 37.203125 41.296875 42.84375 
Q 37.203125 48.484375 30.078125 48.484375 
Q 22.953125 48.484375 18.875 42.84375 
Q 14.796875 37.203125 14.796875 27.296875 
z
" id="DejaVuSans-100"/>
      <path d="M 8.015625 75.875 
L 15.828125 75.875 
Q 23.140625 64.359375 26.78125 53.3125 
Q 30.421875 42.28125 30.421875 31.390625 
Q 30.421875 20.453125 26.78125 9.375 
Q 23.140625 -1.703125 15.828125 -13.1875 
L 8.015625 -13.1875 
Q 14.5 -2 17.703125 9.0625 
Q 20.90625 20.125 20.90625 31.390625 
Q 20.90625 42.671875 17.703125 53.65625 
Q 14.5 64.65625 8.015625 75.875 
z
" id="DejaVuSans-41"/>
     </defs>
     <g transform="translate(197.76 335.860562)scale(0.1 -0.1)">
      <use transform="translate(0 0.015625)" xlink:href="#DejaVuSans-84"/>
      <use transform="translate(61.083984 0.015625)" xlink:href="#DejaVuSans-105"/>
      <use transform="translate(88.867188 0.015625)" xlink:href="#DejaVuSans-109"/>
      <use transform="translate(186.279297 0.015625)" xlink:href="#DejaVuSans-101"/>
      <use transform="translate(280.273113 0.015625)" xlink:href="#DejaVuSans-40"/>
      <use transform="translate(319.286785 0.015625)" xlink:href="#DejaVuSans-115"/>
      <use transform="translate(371.386394 0.015625)" xlink:href="#DejaVuSans-101"/>
      <use transform="translate(432.909832 0.015625)" xlink:href="#DejaVuSans-99"/>
      <use transform="translate(487.8903 0.015625)" xlink:href="#DejaVuSans-111"/>
      <use transform="translate(549.071941 0.015625)" xlink:href="#DejaVuSans-110"/>
      <use transform="translate(612.450847 0.015625)" xlink:href="#DejaVuSans-100"/>
      <use transform="translate(675.92741 0.015625)" xlink:href="#DejaVuSans-115"/>
      <use transform="translate(728.027019 0.015625)" xlink:href="#DejaVuSans-41"/>
     </g>
    </g>
   </g>
   <g id="matplotlib.axis_2">
    <g id="ytick_1">
     <g id="line2d_13">
      <path clip-path="url(#p3d0009fc42)" d="M 57.6 202.331192 
L 414.72 202.331192 
" style="fill:none;stroke:#b0b0b0;stroke-linecap:square;stroke-width:0.8;"/>
     </g>
     <g id="line2d_14">
      <defs>
       <path d="M 0 0 
L -3.5 0 
" id="m561829e8df" style="stroke:#000000;stroke-width:0.8;"/>
      </defs>
      <g>
       <use style="stroke:#000000;stroke-width:0.8;" x="57.6" xlink:href="#m561829e8df" y="202.331192"/>
      </g>
     </g>
     <g id="text_8">
      <!-- $\mathdefault{10^{-2}}$ -->
      <defs>
       <path d="M 10.59375 35.5 
L 73.1875 35.5 
L 73.1875 27.203125 
L 10.59375 27.203125 
z
" id="DejaVuSans-8722"/>
      </defs>
      <g transform="translate(27.1 206.130411)scale(0.1 -0.1)">
       <use transform="translate(0 0.765625)" xlink:href="#DejaVuSans-49"/>
       <use transform="translate(63.623047 0.765625)" xlink:href="#DejaVuSans-48"/>
       <use transform="translate(128.203125 39.046875)scale(0.7)" xlink:href="#DejaVuSans-8722"/>
       <use transform="translate(186.855469 39.046875)scale(0.7)" xlink:href="#DejaVuSans-50"/>
      </g>
     </g>
    </g>
    <g id="ytick_2">
     <g id="line2d_15">
      <path clip-path="url(#p3d0009fc42)" d="M 57.6 59.391575 
L 414.72 59.391575 
" style="fill:none;stroke:#b0b0b0;stroke-linecap:square;stroke-width:0.8;"/>
     </g>
     <g id="line2d_16">
      <g>
       <use style="stroke:#000000;stroke-width:0.8;" x="57.6" xlink:href="#m561829e8df" y="59.391575"/>
      </g>
     </g>
     <g id="text_9">
      <!-- $\mathdefault{10^{-1}}$ -->
      <g transform="translate(27.1 63.190793)scale(0.1 -0.1)">
       <use transform="translate(0 0.684375)" xlink:href="#DejaVuSans-49"/>
       <use transform="translate(63.623047 0.684375)" xlink:href="#DejaVuSans-48"/>
       <use transform="translate(128.203125 38.965625)scale(0.7)" xlink:href="#DejaVuSans-8722"/>
       <use transform="translate(186.855469 38.965625)scale(0.7)" xlink:href="#DejaVuSans-49"/>
      </g>
     </g>
    </g>
    <g id="ytick_3">
     <g id="line2d_17">
      <defs>
       <path d="M 0 0 
L -2 0 
" id="m27d1f259f1" style="stroke:#000000;stroke-width:0.6;"/>
      </defs>
      <g>
       <use style="stroke:#000000;stroke-width:0.6;" x="57.6" xlink:href="#m27d1f259f1" y="302.241697"/>
      </g>
     </g>
    </g>
    <g id="ytick_4">
     <g id="line2d_18">
      <g>
       <use style="stroke:#000000;stroke-width:0.6;" x="57.6" xlink:href="#m27d1f259f1" y="277.07128"/>
      </g>
     </g>
    </g>
    <g id="ytick_5">
     <g id="line2d_19">
      <g>
       <use style="stroke:#000000;stroke-width:0.6;" x="57.6" xlink:href="#m27d1f259f1" y="259.212585"/>
      </g>
     </g>
    </g>
    <g id="ytick_6">
     <g id="line2d_20">
      <g>
       <use style="stroke:#000000;stroke-width:0.6;" x="57.6" xlink:href="#m27d1f259f1" y="245.360305"/>
      </g>
     </g>
    </g>
    <g id="ytick_7">
     <g id="line2d_21">
      <g>
       <use style="stroke:#000000;stroke-width:0.6;" x="57.6" xlink:href="#m27d1f259f1" y="234.042168"/>
      </g>
     </g>
    </g>
    <g id="ytick_8">
     <g id="line2d_22">
      <g>
       <use style="stroke:#000000;stroke-width:0.6;" x="57.6" xlink:href="#m27d1f259f1" y="224.472819"/>
      </g>
     </g>
    </g>
    <g id="ytick_9">
     <g id="line2d_23">
      <g>
       <use style="stroke:#000000;stroke-width:0.6;" x="57.6" xlink:href="#m27d1f259f1" y="216.183472"/>
      </g>
     </g>
    </g>
    <g id="ytick_10">
     <g id="line2d_24">
      <g>
       <use style="stroke:#000000;stroke-width:0.6;" x="57.6" xlink:href="#m27d1f259f1" y="208.87175"/>
      </g>
     </g>
    </g>
    <g id="ytick_11">
     <g id="line2d_25">
      <g>
       <use style="stroke:#000000;stroke-width:0.6;" x="57.6" xlink:href="#m27d1f259f1" y="159.30208"/>
      </g>
     </g>
    </g>
    <g id="ytick_12">
     <g id="line2d_26">
      <g>
       <use style="stroke:#000000;stroke-width:0.6;" x="57.6" xlink:href="#m27d1f259f1" y="134.131663"/>
      </g>
     </g>
    </g>
    <g id="ytick_13">
     <g id="line2d_27">
      <g>
       <use style="stroke:#000000;stroke-width:0.6;" x="57.6" xlink:href="#m27d1f259f1" y="116.272967"/>
      </g>
     </g>
    </g>
    <g id="ytick_14">
     <g id="line2d_28">
      <g>
       <use style="stroke:#000000;stroke-width:0.6;" x="57.6" xlink:href="#m27d1f259f1" y="102.420687"/>
      </g>
     </g>
    </g>
    <g id="ytick_15">
     <g id="line2d_29">
      <g>
       <use style="stroke:#000000;stroke-width:0.6;" x="57.6" xlink:href="#m27d1f259f1" y="91.10255"/>
      </g>
     </g>
    </g>
    <g id="ytick_16">
     <g id="line2d_30">
      <g>
       <use style="stroke:#000000;stroke-width:0.6;" x="57.6" xlink:href="#m27d1f259f1" y="81.533202"/>
      </g>
     </g>
    </g>
    <g id="ytick_17">
     <g id="line2d_31">
      <g>
       <use style="stroke:#000000;stroke-width:0.6;" x="57.6" xlink:href="#m27d1f259f1" y="73.243855"/>
      </g>
     </g>
    </g>
    <g id="ytick_18">
     <g id="line2d_32">
      <g>
       <use style="stroke:#000000;stroke-width:0.6;" x="57.6" xlink:href="#m27d1f259f1" y="65.932133"/>
      </g>
     </g>
    </g>
    <g id="text_10">
     <!-- $\mathrm{Relative \ error}$ ($N_{\mathrm{train}}=20$) -->
     <defs>
      <path d="M 44.390625 34.1875 
Q 47.5625 33.109375 50.5625 29.59375 
Q 53.5625 26.078125 56.59375 19.921875 
L 66.609375 0 
L 56 0 
L 46.6875 18.703125 
Q 43.0625 26.03125 39.671875 28.421875 
Q 36.28125 30.8125 30.421875 30.8125 
L 19.671875 30.8125 
L 19.671875 0 
L 9.8125 0 
L 9.8125 72.90625 
L 32.078125 72.90625 
Q 44.578125 72.90625 50.734375 67.671875 
Q 56.890625 62.453125 56.890625 51.90625 
Q 56.890625 45.015625 53.6875 40.46875 
Q 50.484375 35.9375 44.390625 34.1875 
z
M 19.671875 64.796875 
L 19.671875 38.921875 
L 32.078125 38.921875 
Q 39.203125 38.921875 42.84375 42.21875 
Q 46.484375 45.515625 46.484375 51.90625 
Q 46.484375 58.296875 42.84375 61.546875 
Q 39.203125 64.796875 32.078125 64.796875 
z
" id="DejaVuSans-82"/>
      <path d="M 9.421875 75.984375 
L 18.40625 75.984375 
L 18.40625 0 
L 9.421875 0 
z
" id="DejaVuSans-108"/>
      <path d="M 34.28125 27.484375 
Q 23.390625 27.484375 19.1875 25 
Q 14.984375 22.515625 14.984375 16.5 
Q 14.984375 11.71875 18.140625 8.90625 
Q 21.296875 6.109375 26.703125 6.109375 
Q 34.1875 6.109375 38.703125 11.40625 
Q 43.21875 16.703125 43.21875 25.484375 
L 43.21875 27.484375 
z
M 52.203125 31.203125 
L 52.203125 0 
L 43.21875 0 
L 43.21875 8.296875 
Q 40.140625 3.328125 35.546875 0.953125 
Q 30.953125 -1.421875 24.3125 -1.421875 
Q 15.921875 -1.421875 10.953125 3.296875 
Q 6 8.015625 6 15.921875 
Q 6 25.140625 12.171875 29.828125 
Q 18.359375 34.515625 30.609375 34.515625 
L 43.21875 34.515625 
L 43.21875 35.40625 
Q 43.21875 41.609375 39.140625 45 
Q 35.0625 48.390625 27.6875 48.390625 
Q 23 48.390625 18.546875 47.265625 
Q 14.109375 46.140625 10.015625 43.890625 
L 10.015625 52.203125 
Q 14.9375 54.109375 19.578125 55.046875 
Q 24.21875 56 28.609375 56 
Q 40.484375 56 46.34375 49.84375 
Q 52.203125 43.703125 52.203125 31.203125 
z
" id="DejaVuSans-97"/>
      <path d="M 18.3125 70.21875 
L 18.3125 54.6875 
L 36.8125 54.6875 
L 36.8125 47.703125 
L 18.3125 47.703125 
L 18.3125 18.015625 
Q 18.3125 11.328125 20.140625 9.421875 
Q 21.96875 7.515625 27.59375 7.515625 
L 36.8125 7.515625 
L 36.8125 0 
L 27.59375 0 
Q 17.1875 0 13.234375 3.875 
Q 9.28125 7.765625 9.28125 18.015625 
L 9.28125 47.703125 
L 2.6875 47.703125 
L 2.6875 54.6875 
L 9.28125 54.6875 
L 9.28125 70.21875 
z
" id="DejaVuSans-116"/>
      <path d="M 2.984375 54.6875 
L 12.5 54.6875 
L 29.59375 8.796875 
L 46.6875 54.6875 
L 56.203125 54.6875 
L 35.6875 0 
L 23.484375 0 
z
" id="DejaVuSans-118"/>
      <path d="M 41.109375 46.296875 
Q 39.59375 47.171875 37.8125 47.578125 
Q 36.03125 48 33.890625 48 
Q 26.265625 48 22.1875 43.046875 
Q 18.109375 38.09375 18.109375 28.8125 
L 18.109375 0 
L 9.078125 0 
L 9.078125 54.6875 
L 18.109375 54.6875 
L 18.109375 46.1875 
Q 20.953125 51.171875 25.484375 53.578125 
Q 30.03125 56 36.53125 56 
Q 37.453125 56 38.578125 55.875 
Q 39.703125 55.765625 41.0625 55.515625 
z
" id="DejaVuSans-114"/>
      <path id="DejaVuSans-32"/>
      <path d="M 16.890625 72.90625 
L 30.171875 72.90625 
L 50.296875 10.40625 
L 62.5 72.90625 
L 72.125 72.90625 
L 57.90625 0 
L 44.578125 0 
L 24.515625 62.890625 
L 12.3125 0 
L 2.6875 0 
z
" id="DejaVuSans-Oblique-78"/>
      <path d="M 10.59375 45.40625 
L 73.1875 45.40625 
L 73.1875 37.203125 
L 10.59375 37.203125 
z
M 10.59375 25.484375 
L 73.1875 25.484375 
L 73.1875 17.1875 
L 10.59375 17.1875 
z
" id="DejaVuSans-61"/>
     </defs>
     <g transform="translate(21.020312 238.878)rotate(-90)scale(0.1 -0.1)">
      <use transform="translate(0 0.015625)" xlink:href="#DejaVuSans-82"/>
      <use transform="translate(69.482422 0.015625)" xlink:href="#DejaVuSans-101"/>
      <use transform="translate(131.005859 0.015625)" xlink:href="#DejaVuSans-108"/>
      <use transform="translate(158.789062 0.015625)" xlink:href="#DejaVuSans-97"/>
      <use transform="translate(220.068359 0.015625)" xlink:href="#DejaVuSans-116"/>
      <use transform="translate(259.277344 0.015625)" xlink:href="#DejaVuSans-105"/>
      <use transform="translate(287.060547 0.015625)" xlink:href="#DejaVuSans-118"/>
      <use transform="translate(346.240234 0.015625)" xlink:href="#DejaVuSans-101"/>
      <use transform="translate(440.23405 0.015625)" xlink:href="#DejaVuSans-101"/>
      <use transform="translate(501.757488 0.015625)" xlink:href="#DejaVuSans-114"/>
      <use transform="translate(542.870769 0.015625)" xlink:href="#DejaVuSans-114"/>
      <use transform="translate(583.98405 0.015625)" xlink:href="#DejaVuSans-111"/>
      <use transform="translate(645.165691 0.015625)" xlink:href="#DejaVuSans-114"/>
      <use transform="translate(686.278972 0.015625)" xlink:href="#DejaVuSans-32"/>
      <use transform="translate(718.066082 0.015625)" xlink:href="#DejaVuSans-40"/>
      <use transform="translate(757.079753 0.015625)" xlink:href="#DejaVuSans-Oblique-78"/>
      <use transform="translate(831.884441 -16.390625)scale(0.7)" xlink:href="#DejaVuSans-116"/>
      <use transform="translate(859.33073 -16.390625)scale(0.7)" xlink:href="#DejaVuSans-114"/>
      <use transform="translate(888.110027 -16.390625)scale(0.7)" xlink:href="#DejaVuSans-97"/>
      <use transform="translate(931.005535 -16.390625)scale(0.7)" xlink:href="#DejaVuSans-105"/>
      <use transform="translate(950.453777 -16.390625)scale(0.7)" xlink:href="#DejaVuSans-110"/>
      <use transform="translate(1017.035808 0.015625)" xlink:href="#DejaVuSans-61"/>
      <use transform="translate(1120.307292 0.015625)" xlink:href="#DejaVuSans-50"/>
      <use transform="translate(1183.930339 0.015625)" xlink:href="#DejaVuSans-48"/>
      <use transform="translate(1247.553386 0.015625)" xlink:href="#DejaVuSans-41"/>
     </g>
    </g>
   </g>
   <g id="line2d_33">
    <path clip-path="url(#p3d0009fc42)" d="M 73.832724 248.484394 
L 77.145522 224.135093 
L 80.458321 206.015623 
L 83.771119 191.638321 
L 87.083917 179.91529 
L 90.396716 170.243508 
L 93.709554 162.21515 
L 97.022352 155.513377 
L 100.33515 149.881421 
L 103.647949 145.111421 
L 106.960747 141.03509 
L 110.273545 137.518124 
L 113.586344 134.458435 
L 116.899142 131.778802 
L 120.21194 129.418661 
L 123.524738 127.331652 
L 126.837537 125.480016 
L 130.150375 123.833259 
L 133.463173 122.365206 
L 136.775971 121.050795 
L 140.08877 119.866159 
L 143.401568 118.790217 
L 146.714366 117.803243 
L 150.027165 116.893624 
L 153.339963 116.054911 
L 156.652761 115.282587 
L 159.96556 114.573958 
L 163.278358 113.92829 
L 166.591156 113.34495 
L 169.903955 112.823396 
L 173.216753 112.363513 
L 176.529551 111.966334 
L 179.842389 111.633482 
L 183.155187 111.365766 
L 186.467986 111.162413 
L 189.780784 111.02066 
L 193.093582 110.93434 
L 199.719179 110.882674 
L 206.344776 110.866928 
L 209.657574 110.809114 
L 212.970412 110.681281 
L 216.28321 110.459935 
L 219.596008 110.128784 
L 222.908807 109.679616 
L 226.221605 109.111171 
L 229.534403 108.42735 
L 232.847202 107.635549 
L 236.16 106.745323 
L 239.472798 105.767467 
L 242.785597 104.713337 
L 246.098395 103.594475 
L 252.723992 101.208367 
L 262.662387 97.419515 
L 272.600821 93.602003 
L 279.226418 91.133594 
L 285.852014 88.766758 
L 292.477651 86.519438 
L 299.103247 84.399546 
L 305.728844 82.407887 
L 312.35444 80.540878 
L 318.980037 78.79487 
L 325.605634 77.167982 
L 332.23123 75.659678 
L 338.856827 74.272492 
L 345.482424 73.011991 
L 352.10806 71.886349 
L 358.733656 70.905969 
L 365.359253 70.082932 
L 368.672051 69.73469 
L 371.984889 69.43111 
L 375.297688 69.173966 
L 378.610486 68.964769 
L 381.923284 68.804392 
L 385.236083 68.692661 
L 388.548881 68.627621 
L 395.174478 68.616528 
L 398.487276 68.652481 
" style="fill:none;stroke:#ff0000;stroke-linecap:square;stroke-width:1.5;"/>
   </g>
   <g id="line2d_34">
    <path clip-path="url(#p3d0009fc42)" d="M 73.832724 248.255139 
L 77.145522 223.792391 
L 80.458321 205.645763 
L 83.771119 191.315994 
L 87.083917 179.718551 
L 90.396716 170.2318 
L 93.709554 162.422916 
L 97.022352 155.95237 
L 100.33515 150.545814 
L 103.647949 145.981535 
L 106.960747 142.076798 
L 110.273545 138.686216 
L 113.586344 135.696339 
L 116.899142 133.020608 
L 120.21194 130.596941 
L 123.524738 128.381422 
L 126.837537 126.340707 
L 130.150375 124.452227 
L 133.463173 122.70036 
L 136.775971 121.071579 
L 140.08877 119.555219 
L 143.401568 118.141206 
L 146.714366 116.820661 
L 150.027165 115.587496 
L 153.339963 114.438254 
L 156.652761 113.37075 
L 159.96556 112.382342 
L 163.278358 111.471687 
L 166.591156 110.639059 
L 169.903955 109.884285 
L 173.216753 109.206237 
L 176.529551 108.603405 
L 179.842389 108.073829 
L 183.155187 107.61454 
L 186.467986 107.221315 
L 189.780784 106.888427 
L 193.093582 106.60906 
L 199.719179 106.174597 
L 209.657574 105.613787 
L 212.970412 105.372603 
L 216.28321 105.068718 
L 219.596008 104.684352 
L 222.908807 104.207311 
L 226.221605 103.631586 
L 229.534403 102.956663 
L 232.847202 102.186158 
L 236.16 101.326676 
L 239.472798 100.386727 
L 242.785597 99.376034 
L 249.411193 97.184214 
L 256.03679 94.835952 
L 275.913619 87.604322 
L 282.539216 85.313808 
L 289.164852 83.134838 
L 295.790449 81.078604 
L 302.416045 79.147368 
L 309.041642 77.33717 
L 315.667239 75.641516 
L 322.292835 74.055045 
L 328.918432 72.574757 
L 335.544029 71.20026 
L 342.169625 69.93346 
L 348.795222 68.778916 
L 355.420858 67.742507 
L 362.046455 66.830016 
L 368.672051 66.04847 
L 375.297688 65.406803 
L 381.923284 64.914527 
L 388.548881 64.578041 
L 395.174478 64.395139 
L 398.487276 64.356593 
" style="fill:none;stroke:#0000ff;stroke-linecap:square;stroke-width:1.5;"/>
   </g>
   <g id="line2d_35">
    <path clip-path="url(#p3d0009fc42)" d="M 73.832724 258.649135 
L 77.145522 233.88833 
L 80.458321 215.445956 
L 83.771119 200.792093 
L 87.083917 188.837786 
L 90.396716 178.973538 
L 93.709554 170.778554 
L 97.022352 163.930488 
L 100.33515 158.171742 
L 103.647949 153.292466 
L 106.960747 149.122336 
L 110.273545 145.525096 
L 113.586344 142.395899 
L 116.899142 139.65494 
L 120.21194 137.240275 
L 123.524738 135.104327 
L 126.837537 133.21101 
L 130.150375 131.533754 
L 133.463173 130.049749 
L 136.775971 128.736479 
L 140.08877 127.571526 
L 143.401568 126.532065 
L 146.714366 125.598835 
L 150.027165 124.758976 
L 153.339963 124.003828 
L 156.652761 123.329244 
L 159.96556 122.734167 
L 163.278358 122.214947 
L 166.591156 121.767911 
L 169.903955 121.389782 
L 173.216753 121.077207 
L 176.529551 120.826262 
L 179.842389 120.632567 
L 186.467986 120.384929 
L 196.406381 120.116129 
L 199.719179 119.962638 
L 203.031977 119.739383 
L 206.344776 119.430128 
L 209.657574 119.024938 
L 212.970412 118.519251 
L 216.28321 117.912349 
L 219.596008 117.205966 
L 222.908807 116.403547 
L 226.221605 115.509661 
L 229.534403 114.529826 
L 232.847202 113.470568 
L 236.16 112.339198 
L 239.472798 111.143828 
L 246.098395 108.597274 
L 252.723992 105.905661 
L 272.600821 97.674412 
L 279.226418 95.069667 
L 285.852014 92.595159 
L 292.477651 90.266561 
L 299.103247 88.089802 
L 305.728844 86.065383 
L 312.35444 84.19089 
L 318.980037 82.463116 
L 325.605634 80.879205 
L 332.23123 79.439535 
L 338.856827 78.14697 
L 345.482424 77.005494 
L 352.10806 76.021038 
L 355.420858 75.590208 
L 358.733656 75.201941 
L 362.046455 74.85774 
L 365.359253 74.559421 
L 368.672051 74.308988 
L 371.984889 74.108518 
L 375.297688 73.95998 
L 378.610486 73.864932 
L 381.923284 73.824191 
L 385.236083 73.83709 
L 388.548881 73.900342 
L 395.174478 74.144911 
L 398.487276 74.297197 
" style="fill:none;stroke:#00ffff;stroke-linecap:square;stroke-width:1.5;"/>
   </g>
   <g id="patch_3">
    <path d="M 57.6 307.584 
L 57.6 41.472 
" style="fill:none;stroke:#000000;stroke-linecap:square;stroke-linejoin:miter;stroke-width:0.8;"/>
   </g>
   <g id="patch_4">
    <path d="M 414.72 307.584 
L 414.72 41.472 
" style="fill:none;stroke:#000000;stroke-linecap:square;stroke-linejoin:miter;stroke-width:0.8;"/>
   </g>
   <g id="patch_5">
    <path d="M 57.6 307.584 
L 414.72 307.584 
" style="fill:none;stroke:#000000;stroke-linecap:square;stroke-linejoin:miter;stroke-width:0.8;"/>
   </g>
   <g id="patch_6">
    <path d="M 57.6 41.472 
L 414.72 41.472 
" style="fill:none;stroke:#000000;stroke-linecap:square;stroke-linejoin:miter;stroke-width:0.8;"/>
   </g>
   <g id="legend_1">
    <g id="patch_7">
     <path d="M 64.6 93.506375 
L 189.760937 93.506375 
Q 191.760937 93.506375 191.760937 91.506375 
L 191.760937 48.472 
Q 191.760937 46.472 189.760937 46.472 
L 64.6 46.472 
Q 62.6 46.472 62.6 48.472 
L 62.6 91.506375 
Q 62.6 93.506375 64.6 93.506375 
z
" style="fill:#ffffff;opacity:0.8;stroke:#cccccc;stroke-linejoin:miter;"/>
    </g>
    <g id="line2d_36">
     <path d="M 66.6 54.570438 
L 86.6 54.570438 
" style="fill:none;stroke:#ff0000;stroke-linecap:square;stroke-width:1.5;"/>
    </g>
    <g id="line2d_37"/>
    <g id="text_11">
     <!-- No denoising -->
     <defs>
      <path d="M 9.8125 72.90625 
L 23.09375 72.90625 
L 55.421875 11.921875 
L 55.421875 72.90625 
L 64.984375 72.90625 
L 64.984375 0 
L 51.703125 0 
L 19.390625 60.984375 
L 19.390625 0 
L 9.8125 0 
z
" id="DejaVuSans-78"/>
      <path d="M 45.40625 27.984375 
Q 45.40625 37.75 41.375 43.109375 
Q 37.359375 48.484375 30.078125 48.484375 
Q 22.859375 48.484375 18.828125 43.109375 
Q 14.796875 37.75 14.796875 27.984375 
Q 14.796875 18.265625 18.828125 12.890625 
Q 22.859375 7.515625 30.078125 7.515625 
Q 37.359375 7.515625 41.375 12.890625 
Q 45.40625 18.265625 45.40625 27.984375 
z
M 54.390625 6.78125 
Q 54.390625 -7.171875 48.1875 -13.984375 
Q 42 -20.796875 29.203125 -20.796875 
Q 24.46875 -20.796875 20.265625 -20.09375 
Q 16.0625 -19.390625 12.109375 -17.921875 
L 12.109375 -9.1875 
Q 16.0625 -11.328125 19.921875 -12.34375 
Q 23.78125 -13.375 27.78125 -13.375 
Q 36.625 -13.375 41.015625 -8.765625 
Q 45.40625 -4.15625 45.40625 5.171875 
L 45.40625 9.625 
Q 42.625 4.78125 38.28125 2.390625 
Q 33.9375 0 27.875 0 
Q 17.828125 0 11.671875 7.65625 
Q 5.515625 15.328125 5.515625 27.984375 
Q 5.515625 40.671875 11.671875 48.328125 
Q 17.828125 56 27.875 56 
Q 33.9375 56 38.28125 53.609375 
Q 42.625 51.21875 45.40625 46.390625 
L 45.40625 54.6875 
L 54.390625 54.6875 
z
" id="DejaVuSans-103"/>
     </defs>
     <g transform="translate(94.6 58.070438)scale(0.1 -0.1)">
      <use xlink:href="#DejaVuSans-78"/>
      <use x="74.804688" xlink:href="#DejaVuSans-111"/>
      <use x="135.986328" xlink:href="#DejaVuSans-32"/>
      <use x="167.773438" xlink:href="#DejaVuSans-100"/>
      <use x="231.25" xlink:href="#DejaVuSans-101"/>
      <use x="292.773438" xlink:href="#DejaVuSans-110"/>
      <use x="356.152344" xlink:href="#DejaVuSans-111"/>
      <use x="417.333984" xlink:href="#DejaVuSans-105"/>
      <use x="445.117188" xlink:href="#DejaVuSans-115"/>
      <use x="497.216797" xlink:href="#DejaVuSans-105"/>
      <use x="525" xlink:href="#DejaVuSans-110"/>
      <use x="588.378906" xlink:href="#DejaVuSans-103"/>
     </g>
    </g>
    <g id="line2d_38">
     <path d="M 66.6 69.248563 
L 86.6 69.248563 
" style="fill:none;stroke:#0000ff;stroke-linecap:square;stroke-width:1.5;"/>
    </g>
    <g id="line2d_39"/>
    <g id="text_12">
     <!-- With denoising -->
     <defs>
      <path d="M 3.328125 72.90625 
L 13.28125 72.90625 
L 28.609375 11.28125 
L 43.890625 72.90625 
L 54.984375 72.90625 
L 70.3125 11.28125 
L 85.59375 72.90625 
L 95.609375 72.90625 
L 77.296875 0 
L 64.890625 0 
L 49.515625 63.28125 
L 33.984375 0 
L 21.578125 0 
z
" id="DejaVuSans-87"/>
      <path d="M 54.890625 33.015625 
L 54.890625 0 
L 45.90625 0 
L 45.90625 32.71875 
Q 45.90625 40.484375 42.875 44.328125 
Q 39.84375 48.1875 33.796875 48.1875 
Q 26.515625 48.1875 22.3125 43.546875 
Q 18.109375 38.921875 18.109375 30.90625 
L 18.109375 0 
L 9.078125 0 
L 9.078125 75.984375 
L 18.109375 75.984375 
L 18.109375 46.1875 
Q 21.34375 51.125 25.703125 53.5625 
Q 30.078125 56 35.796875 56 
Q 45.21875 56 50.046875 50.171875 
Q 54.890625 44.34375 54.890625 33.015625 
z
" id="DejaVuSans-104"/>
     </defs>
     <g transform="translate(94.6 72.748563)scale(0.1 -0.1)">
      <use xlink:href="#DejaVuSans-87"/>
      <use x="98.845703" xlink:href="#DejaVuSans-105"/>
      <use x="126.628906" xlink:href="#DejaVuSans-116"/>
      <use x="165.837891" xlink:href="#DejaVuSans-104"/>
      <use x="229.216797" xlink:href="#DejaVuSans-32"/>
      <use x="261.003906" xlink:href="#DejaVuSans-100"/>
      <use x="324.480469" xlink:href="#DejaVuSans-101"/>
      <use x="386.003906" xlink:href="#DejaVuSans-110"/>
      <use x="449.382812" xlink:href="#DejaVuSans-111"/>
      <use x="510.564453" xlink:href="#DejaVuSans-105"/>
      <use x="538.347656" xlink:href="#DejaVuSans-115"/>
      <use x="590.447266" xlink:href="#DejaVuSans-105"/>
      <use x="618.230469" xlink:href="#DejaVuSans-110"/>
      <use x="681.609375" xlink:href="#DejaVuSans-103"/>
     </g>
    </g>
    <g id="line2d_40">
     <path d="M 66.6 83.926688 
L 86.6 83.926688 
" style="fill:none;stroke:#00ffff;stroke-linecap:square;stroke-width:1.5;"/>
    </g>
    <g id="line2d_41"/>
    <g id="text_13">
     <!-- With big denoising -->
     <defs>
      <path d="M 48.6875 27.296875 
Q 48.6875 37.203125 44.609375 42.84375 
Q 40.53125 48.484375 33.40625 48.484375 
Q 26.265625 48.484375 22.1875 42.84375 
Q 18.109375 37.203125 18.109375 27.296875 
Q 18.109375 17.390625 22.1875 11.75 
Q 26.265625 6.109375 33.40625 6.109375 
Q 40.53125 6.109375 44.609375 11.75 
Q 48.6875 17.390625 48.6875 27.296875 
z
M 18.109375 46.390625 
Q 20.953125 51.265625 25.265625 53.625 
Q 29.59375 56 35.59375 56 
Q 45.5625 56 51.78125 48.09375 
Q 58.015625 40.1875 58.015625 27.296875 
Q 58.015625 14.40625 51.78125 6.484375 
Q 45.5625 -1.421875 35.59375 -1.421875 
Q 29.59375 -1.421875 25.265625 0.953125 
Q 20.953125 3.328125 18.109375 8.203125 
L 18.109375 0 
L 9.078125 0 
L 9.078125 75.984375 
L 18.109375 75.984375 
z
" id="DejaVuSans-98"/>
     </defs>
     <g transform="translate(94.6 87.426688)scale(0.1 -0.1)">
      <use xlink:href="#DejaVuSans-87"/>
      <use x="98.845703" xlink:href="#DejaVuSans-105"/>
      <use x="126.628906" xlink:href="#DejaVuSans-116"/>
      <use x="165.837891" xlink:href="#DejaVuSans-104"/>
      <use x="229.216797" xlink:href="#DejaVuSans-32"/>
      <use x="261.003906" xlink:href="#DejaVuSans-98"/>
      <use x="324.480469" xlink:href="#DejaVuSans-105"/>
      <use x="352.263672" xlink:href="#DejaVuSans-103"/>
      <use x="415.740234" xlink:href="#DejaVuSans-32"/>
      <use x="447.527344" xlink:href="#DejaVuSans-100"/>
      <use x="511.003906" xlink:href="#DejaVuSans-101"/>
      <use x="572.527344" xlink:href="#DejaVuSans-110"/>
      <use x="635.90625" xlink:href="#DejaVuSans-111"/>
      <use x="697.087891" xlink:href="#DejaVuSans-105"/>
      <use x="724.871094" xlink:href="#DejaVuSans-115"/>
      <use x="776.970703" xlink:href="#DejaVuSans-105"/>
      <use x="804.753906" xlink:href="#DejaVuSans-110"/>
      <use x="868.132812" xlink:href="#DejaVuSans-103"/>
     </g>
    </g>
   </g>
  </g>
 </g>
 <defs>
  <clipPath id="p3d0009fc42">
   <rect height="266.112" width="357.12" x="57.6" y="41.472"/>
  </clipPath>
 </defs>
</svg>
