<?xml version="1.0" encoding="utf-8" standalone="no"?>
<!DOCTYPE svg PUBLIC "-//W3C//DTD SVG 1.1//EN"
  "http://www.w3.org/Graphics/SVG/1.1/DTD/svg11.dtd">
<!-- Created with matplotlib (https://matplotlib.org/) -->
<svg height="345.6pt" version="1.1" viewBox="0 0 460.8 345.6" width="460.8pt" xmlns="http://www.w3.org/2000/svg" xmlns:xlink="http://www.w3.org/1999/xlink">
 <defs>
  <style type="text/css">
*{stroke-linecap:butt;stroke-linejoin:round;white-space:pre;}
  </style>
 </defs>
 <g id="figure_1">
  <g id="patch_1">
   <path d="M 0 345.6 
L 460.8 345.6 
L 460.8 0 
L 0 0 
z
" style="fill:#ffffff;"/>
  </g>
  <g id="axes_1">
   <g id="patch_2">
    <path d="M 57.6 307.584 
L 414.72 307.584 
L 414.72 41.472 
L 57.6 41.472 
z
" style="fill:#ffffff;"/>
   </g>
   <g id="PolyCollection_1">
    <path clip-path="url(#p55010b7356)" d="M 73.832727 244.938737 
L 73.832727 281.727913 
L 77.145529 256.113986 
L 80.45833 237.201645 
L 83.771132 222.264339 
L 87.083933 210.130237 
L 90.396735 200.124024 
L 93.709536 191.782325 
L 97.022338 184.755665 
L 100.335139 178.769288 
L 103.647941 173.604371 
L 106.960742 169.088871 
L 110.273544 165.087532 
L 113.586345 161.494404 
L 116.899147 158.223875 
L 120.211948 155.2056 
L 123.52475 152.387317 
L 126.837551 149.733128 
L 130.150353 147.215728 
L 133.463154 144.818146 
L 136.775955 142.527644 
L 140.088757 140.33522 
L 143.401558 138.236117 
L 146.71436 136.229789 
L 150.027161 134.313455 
L 153.339963 132.484974 
L 156.652764 130.743248 
L 159.965566 129.08348 
L 163.278367 127.503863 
L 166.591169 126.003398 
L 169.90397 124.580233 
L 173.216772 123.231507 
L 176.529573 121.953766 
L 179.842375 120.744011 
L 183.155176 119.60024 
L 186.467978 118.521466 
L 189.780779 117.506355 
L 193.093581 116.552843 
L 196.406382 115.658096 
L 199.719184 114.818991 
L 203.031985 114.032448 
L 206.344787 113.295531 
L 209.657588 112.604342 
L 212.97039 111.953664 
L 216.283191 111.337224 
L 219.595993 110.748429 
L 222.908794 110.180645 
L 226.221596 109.62634 
L 229.534397 109.076898 
L 232.847199 108.522694 
L 236.16 107.953817 
L 239.472801 107.360728 
L 242.785603 106.734967 
L 246.098404 106.070501 
L 249.411206 105.364057 
L 252.724007 104.615041 
L 256.036809 103.825365 
L 259.34961 102.999084 
L 262.662412 102.141528 
L 265.975213 101.258743 
L 269.288015 100.356828 
L 272.600816 99.441467 
L 275.913618 98.517623 
L 279.226419 97.589565 
L 282.539221 96.660865 
L 285.852022 95.734386 
L 289.164824 94.812283 
L 292.477625 93.896066 
L 295.790427 92.986777 
L 299.103228 92.08511 
L 302.41603 91.191721 
L 305.728831 90.307505 
L 309.041633 89.433614 
L 312.354434 88.571228 
L 315.667236 87.721563 
L 318.980037 86.885855 
L 322.292839 86.065249 
L 325.60564 85.260599 
L 328.918442 84.472475 
L 332.231243 83.701712 
L 335.544045 82.949311 
L 338.856846 82.216212 
L 342.169647 81.503348 
L 345.482449 80.811957 
L 348.79525 80.143729 
L 352.108052 79.500531 
L 355.420853 78.884179 
L 358.733655 78.296536 
L 362.046456 77.739556 
L 365.359258 77.215269 
L 368.672059 76.725904 
L 371.984861 76.273718 
L 375.297662 75.860912 
L 378.610464 75.489644 
L 381.923265 75.162097 
L 385.236067 74.880242 
L 388.548868 74.645467 
L 391.86167 74.458725 
L 395.174471 74.320737 
L 398.487273 74.231715 
L 398.487273 53.568 
L 398.487273 53.568 
L 395.174471 53.745494 
L 391.86167 53.951934 
L 388.548868 54.188301 
L 385.236067 54.455166 
L 381.923265 54.752661 
L 378.610464 55.08057 
L 375.297662 55.43838 
L 371.984861 55.825313 
L 368.672059 56.240381 
L 365.359258 56.682432 
L 362.046456 57.150256 
L 358.733655 57.642565 
L 355.420853 58.157975 
L 352.108052 58.695076 
L 348.79525 59.252529 
L 345.482449 59.829046 
L 342.169647 60.423389 
L 338.856846 61.034342 
L 335.544045 61.660754 
L 332.231243 62.301837 
L 328.918442 62.956912 
L 325.60564 63.625317 
L 322.292839 64.306592 
L 318.980037 65.000579 
L 315.667236 65.707255 
L 312.354434 66.426545 
L 309.041633 67.15841 
L 305.728831 67.902781 
L 302.41603 68.659431 
L 299.103228 69.427908 
L 295.790427 70.2075 
L 292.477625 70.997233 
L 289.164824 71.79581 
L 285.852022 72.601528 
L 282.539221 73.41199 
L 279.226419 74.223868 
L 275.913618 75.032795 
L 272.600816 75.833314 
L 269.288015 76.618878 
L 265.975213 77.381769 
L 262.662412 78.113072 
L 259.34961 78.802743 
L 256.036809 79.439641 
L 252.724007 80.011944 
L 249.411206 80.507887 
L 246.098404 80.917062 
L 242.785603 81.231967 
L 239.472801 81.449632 
L 236.16 81.573641 
L 232.847199 81.615885 
L 229.534397 81.596483 
L 226.221596 81.541288 
L 222.908794 81.47783 
L 219.595993 81.431749 
L 216.283191 81.423871 
L 212.97039 81.468861 
L 209.657588 81.575909 
L 206.344787 81.750171 
L 203.031985 81.994248 
L 199.719184 82.309636 
L 196.406382 82.696972 
L 193.093581 83.156105 
L 189.780779 83.686053 
L 186.467978 84.285303 
L 183.155176 84.952146 
L 179.842375 85.685132 
L 176.529573 86.483106 
L 173.216772 87.345524 
L 169.90397 88.272932 
L 166.591169 89.266195 
L 163.278367 90.326753 
L 159.965566 91.456436 
L 156.652764 92.658558 
L 153.339963 93.93717 
L 150.027161 95.297019 
L 146.71436 96.743365 
L 143.401558 98.282623 
L 140.088757 99.923487 
L 136.775955 101.679004 
L 133.463154 103.563838 
L 130.150353 105.597225 
L 126.837551 107.804152 
L 123.52475 110.215813 
L 120.211948 112.876046 
L 116.899147 115.839761 
L 113.586345 119.165455 
L 110.273544 122.91754 
L 106.960742 127.176315 
L 103.647941 132.042982 
L 100.335139 137.644642 
L 97.022338 144.146195 
L 93.709536 151.75521 
L 90.396735 160.732833 
L 87.083933 171.400743 
L 83.771132 184.174647 
L 80.45833 199.675947 
L 77.145529 219.046346 
L 73.832727 244.938737 
z
" style="fill:#ff0000;fill-opacity:0.4;"/>
   </g>
   <g id="PolyCollection_2">
    <path clip-path="url(#p55010b7356)" d="M 73.832727 241.903867 
L 73.832727 281.687762 
L 77.145529 256.290189 
L 80.45833 237.407717 
L 83.771132 222.408794 
L 87.083933 210.149638 
L 90.396735 199.973331 
L 93.709536 191.431991 
L 97.022338 184.189525 
L 100.335139 177.983579 
L 103.647941 172.601314 
L 106.960742 167.875372 
L 110.273544 163.672154 
L 113.586345 159.886446 
L 116.899147 156.43189 
L 120.211948 153.237093 
L 123.52475 150.248255 
L 126.837551 147.431617 
L 130.150353 144.765557 
L 133.463154 142.238027 
L 136.775955 139.839561 
L 140.088757 137.558621 
L 143.401558 135.384266 
L 146.71436 133.309266 
L 150.027161 131.328498 
L 153.339963 129.439012 
L 156.652764 127.635998 
L 159.965566 125.915271 
L 163.278367 124.274559 
L 166.591169 122.711902 
L 169.90397 121.22476 
L 173.216772 119.809743 
L 176.529573 118.463826 
L 179.842375 117.184918 
L 183.155176 115.972233 
L 186.467978 114.825947 
L 189.780779 113.745552 
L 193.093581 112.729365 
L 196.406382 111.77516 
L 199.719184 110.881046 
L 203.031985 110.045278 
L 206.344787 109.265559 
L 209.657588 108.538674 
L 212.97039 107.860315 
L 216.283191 107.225512 
L 219.595993 106.629851 
L 222.908794 106.068661 
L 226.221596 105.536335 
L 229.534397 105.025688 
L 232.847199 104.527489 
L 236.16 104.031308 
L 239.472801 103.526247 
L 242.785603 103.001352 
L 246.098404 102.446843 
L 249.411206 101.85531 
L 252.724007 101.222339 
L 256.036809 100.546787 
L 259.34961 99.830462 
L 262.662412 99.077077 
L 265.975213 98.291735 
L 269.288015 97.480221 
L 272.600816 96.648238 
L 275.913618 95.801075 
L 279.226419 94.943458 
L 282.539221 94.079473 
L 285.852022 93.21248 
L 289.164824 92.345016 
L 292.477625 91.478985 
L 295.790427 90.615892 
L 299.103228 89.756901 
L 302.41603 88.903097 
L 305.728831 88.055638 
L 309.041633 87.215838 
L 312.354434 86.385109 
L 315.667236 85.56486 
L 318.980037 84.756267 
L 322.292839 83.960405 
L 325.60564 83.178397 
L 328.918442 82.411335 
L 332.231243 81.66019 
L 335.544045 80.92598 
L 338.856846 80.209987 
L 342.169647 79.513669 
L 345.482449 78.838613 
L 348.79525 78.18659 
L 352.108052 77.559388 
L 355.420853 76.958794 
L 358.733655 76.386809 
L 362.046456 75.845645 
L 365.359258 75.337697 
L 368.672059 74.865516 
L 371.984861 74.431675 
L 375.297662 74.038776 
L 378.610464 73.689447 
L 381.923265 73.386293 
L 385.236067 73.131537 
L 388.548868 72.926806 
L 391.86167 72.77339 
L 395.174471 72.67233 
L 398.487273 72.623944 
L 398.487273 55.676891 
L 398.487273 55.676891 
L 395.174471 55.78767 
L 391.86167 55.930627 
L 388.548868 56.107064 
L 385.236067 56.317532 
L 381.923265 56.562087 
L 378.610464 56.840399 
L 375.297662 57.151774 
L 371.984861 57.495278 
L 368.672059 57.869798 
L 365.359258 58.274098 
L 362.046456 58.706832 
L 358.733655 59.166588 
L 355.420853 59.651892 
L 352.108052 60.161271 
L 348.79525 60.693366 
L 345.482449 61.247001 
L 342.169647 61.82102 
L 338.856846 62.41417 
L 335.544045 63.025203 
L 332.231243 63.653194 
L 328.918442 64.29746 
L 325.60564 64.957356 
L 322.292839 65.632378 
L 318.980037 66.322397 
L 315.667236 67.027353 
L 312.354434 67.747193 
L 309.041633 68.481853 
L 305.728831 69.231139 
L 302.41603 69.994726 
L 299.103228 70.77209 
L 295.790427 71.562413 
L 292.477625 72.364513 
L 289.164824 73.1769 
L 285.852022 73.997707 
L 282.539221 74.824328 
L 279.226419 75.653279 
L 275.913618 76.480029 
L 272.600816 77.298932 
L 269.288015 78.103215 
L 265.975213 78.884794 
L 262.662412 79.634176 
L 259.34961 80.340543 
L 256.036809 80.992011 
L 252.724007 81.575897 
L 249.411206 82.079619 
L 246.098404 82.491705 
L 242.785603 82.80286 
L 239.472801 83.007697 
L 236.16 83.106963 
L 232.847199 83.109729 
L 229.534397 83.034423 
L 226.221596 82.907173 
L 222.908794 82.75768 
L 219.595993 82.614313 
L 216.283191 82.500283 
L 212.97039 82.432554 
L 209.657588 82.422177 
L 206.344787 82.475391 
L 203.031985 82.595275 
L 199.719184 82.783721 
L 196.406382 83.041822 
L 193.093581 83.369705 
L 189.780779 83.766758 
L 186.467978 84.231608 
L 183.155176 84.762888 
L 179.842375 85.359577 
L 176.529573 86.021039 
L 173.216772 86.747268 
L 169.90397 87.539038 
L 166.591169 88.397773 
L 163.278367 89.325223 
L 159.965566 90.323178 
L 156.652764 91.393229 
L 153.339963 92.537281 
L 150.027161 93.759651 
L 146.71436 95.066536 
L 143.401558 96.465196 
L 140.088757 97.965275 
L 136.775955 99.57902 
L 133.463154 101.320633 
L 130.150353 103.210396 
L 126.837551 105.274287 
L 123.52475 107.544694 
L 120.211948 110.066617 
L 116.899147 112.896338 
L 113.586345 116.092736 
L 110.273544 119.72116 
L 106.960742 123.862062 
L 103.647941 128.618544 
L 100.335139 134.122026 
L 97.022338 140.54203 
L 93.709536 148.093209 
L 90.396735 157.041696 
L 87.083933 167.717415 
L 83.771132 180.548892 
L 80.45833 196.173709 
L 77.145529 215.742608 
L 73.832727 241.903867 
z
" style="fill:#0000ff;fill-opacity:0.4;"/>
   </g>
   <g id="PolyCollection_3">
    <path clip-path="url(#p55010b7356)" d="M 73.832727 259.977925 
L 73.832727 295.488 
L 77.145529 271.744055 
L 80.45833 254.443398 
L 83.771132 240.869248 
L 87.083933 229.903166 
L 90.396735 220.92077 
L 93.709536 213.455447 
L 97.022338 207.15303 
L 100.335139 201.740607 
L 103.647941 197.000757 
L 106.960742 192.765918 
L 110.273544 188.904983 
L 113.586345 185.317547 
L 116.899147 181.928468 
L 120.211948 178.682402 
L 123.52475 175.548048 
L 126.837551 172.513399 
L 130.150353 169.571589 
L 133.463154 166.723842 
L 136.775955 163.973529 
L 140.088757 161.312823 
L 143.401558 158.728101 
L 146.71436 156.211555 
L 150.027161 153.760549 
L 153.339963 151.380022 
L 156.652764 149.077003 
L 159.965566 146.856567 
L 163.278367 144.719773 
L 166.591169 142.662123 
L 169.90397 140.677921 
L 173.216772 138.762181 
L 176.529573 136.912189 
L 179.842375 135.127654 
L 183.155176 133.408283 
L 186.467978 131.754347 
L 189.780779 130.165979 
L 193.093581 128.642456 
L 196.406382 127.183104 
L 199.719184 125.787771 
L 203.031985 124.455863 
L 206.344787 123.18664 
L 209.657588 121.978772 
L 212.97039 120.831072 
L 216.283191 119.743121 
L 219.595993 118.714955 
L 222.908794 117.746021 
L 226.221596 116.83483 
L 229.534397 115.978626 
L 232.847199 115.173294 
L 236.16 114.413324 
L 239.472801 113.691314 
L 242.785603 112.997575 
L 246.098404 112.320941 
L 249.411206 111.649574 
L 252.724007 110.972094 
L 256.036809 110.279157 
L 259.34961 109.564409 
L 262.662412 108.824392 
L 265.975213 108.058479 
L 269.288015 107.268182 
L 272.600816 106.456261 
L 275.913618 105.626092 
L 279.226419 104.781111 
L 282.539221 103.9244 
L 285.852022 103.058482 
L 289.164824 102.18553 
L 292.477625 101.307453 
L 295.790427 100.425842 
L 299.103228 99.542041 
L 302.41603 98.657369 
L 305.728831 97.773368 
L 309.041633 96.89189 
L 312.354434 96.014965 
L 315.667236 95.144485 
L 318.980037 94.28201 
L 322.292839 93.428898 
L 325.60564 92.586278 
L 328.918442 91.754989 
L 332.231243 90.935776 
L 335.544045 90.129658 
L 338.856846 89.337697 
L 342.169647 88.561051 
L 345.482449 87.801254 
L 348.79525 87.060186 
L 352.108052 86.339994 
L 355.420853 85.643011 
L 358.733655 84.971663 
L 362.046456 84.32842 
L 365.359258 83.715781 
L 368.672059 83.13615 
L 371.984861 82.591791 
L 375.297662 82.084808 
L 378.610464 81.617126 
L 381.923265 81.190323 
L 385.236067 80.805475 
L 388.548868 80.463312 
L 391.86167 80.164461 
L 395.174471 79.909733 
L 398.487273 79.69956 
L 398.487273 66.28282 
L 398.487273 66.28282 
L 395.174471 66.462385 
L 391.86167 66.677834 
L 388.548868 66.929913 
L 385.236067 67.218624 
L 381.923265 67.543472 
L 378.610464 67.903637 
L 375.297662 68.297983 
L 371.984861 68.725104 
L 368.672059 69.183433 
L 365.359258 69.671318 
L 362.046456 70.187012 
L 358.733655 70.728681 
L 355.420853 71.294408 
L 352.108052 71.882256 
L 348.79525 72.490306 
L 345.482449 73.116705 
L 342.169647 73.759802 
L 338.856846 74.418004 
L 335.544045 75.089743 
L 332.231243 75.773781 
L 328.918442 76.469062 
L 325.60564 77.174609 
L 322.292839 77.889558 
L 318.980037 78.613136 
L 315.667236 79.34475 
L 312.354434 80.083923 
L 309.041633 80.830414 
L 305.728831 81.583898 
L 302.41603 82.343858 
L 299.103228 83.109517 
L 295.790427 83.879834 
L 292.477625 84.653449 
L 289.164824 85.428733 
L 285.852022 86.203825 
L 282.539221 86.976408 
L 279.226419 87.743174 
L 275.913618 88.499441 
L 272.600816 89.239072 
L 269.288015 89.954458 
L 265.975213 90.636633 
L 262.662412 91.27541 
L 259.34961 91.85952 
L 256.036809 92.377208 
L 252.724007 92.816849 
L 249.411206 93.168542 
L 246.098404 93.426383 
L 242.785603 93.590719 
L 239.472801 93.66993 
L 236.16 93.681618 
L 232.847199 93.651661 
L 229.534397 93.610469 
L 226.221596 93.588377 
L 222.908794 93.611117 
L 219.595993 93.697308 
L 216.283191 93.85852 
L 212.97039 94.100531 
L 209.657588 94.425433 
L 206.344787 94.833108 
L 203.031985 95.322282 
L 199.719184 95.891596 
L 196.406382 96.539916 
L 193.093581 97.266291 
L 189.780779 98.069719 
L 186.467978 98.948847 
L 183.155176 99.902074 
L 179.842375 100.927896 
L 176.529573 102.02473 
L 173.216772 103.190685 
L 169.90397 104.423924 
L 166.591169 105.723249 
L 163.278367 107.088402 
L 159.965566 108.52033 
L 156.652764 110.020837 
L 153.339963 111.592775 
L 150.027161 113.239666 
L 146.71436 114.96548 
L 143.401558 116.775639 
L 140.088757 118.677531 
L 136.775955 120.680604 
L 133.463154 122.797229 
L 130.150353 125.044075 
L 126.837551 127.443164 
L 123.52475 130.029599 
L 120.211948 132.84885 
L 116.899147 135.955772 
L 113.586345 139.413457 
L 110.273544 143.283138 
L 106.960742 147.629778 
L 103.647941 152.53157 
L 100.335139 158.092633 
L 97.022338 164.455074 
L 93.709536 171.805078 
L 90.396735 180.377476 
L 87.083933 190.473794 
L 83.771132 202.50159 
L 80.45833 217.075595 
L 77.145529 235.339388 
L 73.832727 259.977925 
z
" style="fill:#00ffff;fill-opacity:0.4;"/>
   </g>
   <g id="matplotlib.axis_1">
    <g id="xtick_1">
     <g id="line2d_1">
      <path clip-path="url(#p55010b7356)" d="M 70.519926 307.584 
L 70.519926 41.472 
" style="fill:none;stroke:#b0b0b0;stroke-linecap:square;stroke-width:0.8;"/>
     </g>
     <g id="line2d_2">
      <defs>
       <path d="M 0 0 
L 0 3.5 
" id="mdf193e2a53" style="stroke:#000000;stroke-width:0.8;"/>
      </defs>
      <g>
       <use style="stroke:#000000;stroke-width:0.8;" x="70.519926" xlink:href="#mdf193e2a53" y="307.584"/>
      </g>
     </g>
     <g id="text_1">
      <!-- 0.0 -->
      <defs>
       <path d="M 31.78125 66.40625 
Q 24.171875 66.40625 20.328125 58.90625 
Q 16.5 51.421875 16.5 36.375 
Q 16.5 21.390625 20.328125 13.890625 
Q 24.171875 6.390625 31.78125 6.390625 
Q 39.453125 6.390625 43.28125 13.890625 
Q 47.125 21.390625 47.125 36.375 
Q 47.125 51.421875 43.28125 58.90625 
Q 39.453125 66.40625 31.78125 66.40625 
z
M 31.78125 74.21875 
Q 44.046875 74.21875 50.515625 64.515625 
Q 56.984375 54.828125 56.984375 36.375 
Q 56.984375 17.96875 50.515625 8.265625 
Q 44.046875 -1.421875 31.78125 -1.421875 
Q 19.53125 -1.421875 13.0625 8.265625 
Q 6.59375 17.96875 6.59375 36.375 
Q 6.59375 54.828125 13.0625 64.515625 
Q 19.53125 74.21875 31.78125 74.21875 
z
" id="DejaVuSans-48"/>
       <path d="M 10.6875 12.40625 
L 21 12.40625 
L 21 0 
L 10.6875 0 
z
" id="DejaVuSans-46"/>
      </defs>
      <g transform="translate(62.568363 322.182437)scale(0.1 -0.1)">
       <use xlink:href="#DejaVuSans-48"/>
       <use x="63.623047" xlink:href="#DejaVuSans-46"/>
       <use x="95.410156" xlink:href="#DejaVuSans-48"/>
      </g>
     </g>
    </g>
    <g id="xtick_2">
     <g id="line2d_3">
      <path clip-path="url(#p55010b7356)" d="M 136.775955 307.584 
L 136.775955 41.472 
" style="fill:none;stroke:#b0b0b0;stroke-linecap:square;stroke-width:0.8;"/>
     </g>
     <g id="line2d_4">
      <g>
       <use style="stroke:#000000;stroke-width:0.8;" x="136.775955" xlink:href="#mdf193e2a53" y="307.584"/>
      </g>
     </g>
     <g id="text_2">
      <!-- 0.2 -->
      <defs>
       <path d="M 19.1875 8.296875 
L 53.609375 8.296875 
L 53.609375 0 
L 7.328125 0 
L 7.328125 8.296875 
Q 12.9375 14.109375 22.625 23.890625 
Q 32.328125 33.6875 34.8125 36.53125 
Q 39.546875 41.84375 41.421875 45.53125 
Q 43.3125 49.21875 43.3125 52.78125 
Q 43.3125 58.59375 39.234375 62.25 
Q 35.15625 65.921875 28.609375 65.921875 
Q 23.96875 65.921875 18.8125 64.3125 
Q 13.671875 62.703125 7.8125 59.421875 
L 7.8125 69.390625 
Q 13.765625 71.78125 18.9375 73 
Q 24.125 74.21875 28.421875 74.21875 
Q 39.75 74.21875 46.484375 68.546875 
Q 53.21875 62.890625 53.21875 53.421875 
Q 53.21875 48.921875 51.53125 44.890625 
Q 49.859375 40.875 45.40625 35.40625 
Q 44.1875 33.984375 37.640625 27.21875 
Q 31.109375 20.453125 19.1875 8.296875 
z
" id="DejaVuSans-50"/>
      </defs>
      <g transform="translate(128.824393 322.182437)scale(0.1 -0.1)">
       <use xlink:href="#DejaVuSans-48"/>
       <use x="63.623047" xlink:href="#DejaVuSans-46"/>
       <use x="95.410156" xlink:href="#DejaVuSans-50"/>
      </g>
     </g>
    </g>
    <g id="xtick_3">
     <g id="line2d_5">
      <path clip-path="url(#p55010b7356)" d="M 203.031985 307.584 
L 203.031985 41.472 
" style="fill:none;stroke:#b0b0b0;stroke-linecap:square;stroke-width:0.8;"/>
     </g>
     <g id="line2d_6">
      <g>
       <use style="stroke:#000000;stroke-width:0.8;" x="203.031985" xlink:href="#mdf193e2a53" y="307.584"/>
      </g>
     </g>
     <g id="text_3">
      <!-- 0.4 -->
      <defs>
       <path d="M 37.796875 64.3125 
L 12.890625 25.390625 
L 37.796875 25.390625 
z
M 35.203125 72.90625 
L 47.609375 72.90625 
L 47.609375 25.390625 
L 58.015625 25.390625 
L 58.015625 17.1875 
L 47.609375 17.1875 
L 47.609375 0 
L 37.796875 0 
L 37.796875 17.1875 
L 4.890625 17.1875 
L 4.890625 26.703125 
z
" id="DejaVuSans-52"/>
      </defs>
      <g transform="translate(195.080423 322.182437)scale(0.1 -0.1)">
       <use xlink:href="#DejaVuSans-48"/>
       <use x="63.623047" xlink:href="#DejaVuSans-46"/>
       <use x="95.410156" xlink:href="#DejaVuSans-52"/>
      </g>
     </g>
    </g>
    <g id="xtick_4">
     <g id="line2d_7">
      <path clip-path="url(#p55010b7356)" d="M 269.288015 307.584 
L 269.288015 41.472 
" style="fill:none;stroke:#b0b0b0;stroke-linecap:square;stroke-width:0.8;"/>
     </g>
     <g id="line2d_8">
      <g>
       <use style="stroke:#000000;stroke-width:0.8;" x="269.288015" xlink:href="#mdf193e2a53" y="307.584"/>
      </g>
     </g>
     <g id="text_4">
      <!-- 0.6 -->
      <defs>
       <path d="M 33.015625 40.375 
Q 26.375 40.375 22.484375 35.828125 
Q 18.609375 31.296875 18.609375 23.390625 
Q 18.609375 15.53125 22.484375 10.953125 
Q 26.375 6.390625 33.015625 6.390625 
Q 39.65625 6.390625 43.53125 10.953125 
Q 47.40625 15.53125 47.40625 23.390625 
Q 47.40625 31.296875 43.53125 35.828125 
Q 39.65625 40.375 33.015625 40.375 
z
M 52.59375 71.296875 
L 52.59375 62.3125 
Q 48.875 64.0625 45.09375 64.984375 
Q 41.3125 65.921875 37.59375 65.921875 
Q 27.828125 65.921875 22.671875 59.328125 
Q 17.53125 52.734375 16.796875 39.40625 
Q 19.671875 43.65625 24.015625 45.921875 
Q 28.375 48.1875 33.59375 48.1875 
Q 44.578125 48.1875 50.953125 41.515625 
Q 57.328125 34.859375 57.328125 23.390625 
Q 57.328125 12.15625 50.6875 5.359375 
Q 44.046875 -1.421875 33.015625 -1.421875 
Q 20.359375 -1.421875 13.671875 8.265625 
Q 6.984375 17.96875 6.984375 36.375 
Q 6.984375 53.65625 15.1875 63.9375 
Q 23.390625 74.21875 37.203125 74.21875 
Q 40.921875 74.21875 44.703125 73.484375 
Q 48.484375 72.75 52.59375 71.296875 
z
" id="DejaVuSans-54"/>
      </defs>
      <g transform="translate(261.336452 322.182437)scale(0.1 -0.1)">
       <use xlink:href="#DejaVuSans-48"/>
       <use x="63.623047" xlink:href="#DejaVuSans-46"/>
       <use x="95.410156" xlink:href="#DejaVuSans-54"/>
      </g>
     </g>
    </g>
    <g id="xtick_5">
     <g id="line2d_9">
      <path clip-path="url(#p55010b7356)" d="M 335.544045 307.584 
L 335.544045 41.472 
" style="fill:none;stroke:#b0b0b0;stroke-linecap:square;stroke-width:0.8;"/>
     </g>
     <g id="line2d_10">
      <g>
       <use style="stroke:#000000;stroke-width:0.8;" x="335.544045" xlink:href="#mdf193e2a53" y="307.584"/>
      </g>
     </g>
     <g id="text_5">
      <!-- 0.8 -->
      <defs>
       <path d="M 31.78125 34.625 
Q 24.75 34.625 20.71875 30.859375 
Q 16.703125 27.09375 16.703125 20.515625 
Q 16.703125 13.921875 20.71875 10.15625 
Q 24.75 6.390625 31.78125 6.390625 
Q 38.8125 6.390625 42.859375 10.171875 
Q 46.921875 13.96875 46.921875 20.515625 
Q 46.921875 27.09375 42.890625 30.859375 
Q 38.875 34.625 31.78125 34.625 
z
M 21.921875 38.8125 
Q 15.578125 40.375 12.03125 44.71875 
Q 8.5 49.078125 8.5 55.328125 
Q 8.5 64.0625 14.71875 69.140625 
Q 20.953125 74.21875 31.78125 74.21875 
Q 42.671875 74.21875 48.875 69.140625 
Q 55.078125 64.0625 55.078125 55.328125 
Q 55.078125 49.078125 51.53125 44.71875 
Q 48 40.375 41.703125 38.8125 
Q 48.828125 37.15625 52.796875 32.3125 
Q 56.78125 27.484375 56.78125 20.515625 
Q 56.78125 9.90625 50.3125 4.234375 
Q 43.84375 -1.421875 31.78125 -1.421875 
Q 19.734375 -1.421875 13.25 4.234375 
Q 6.78125 9.90625 6.78125 20.515625 
Q 6.78125 27.484375 10.78125 32.3125 
Q 14.796875 37.15625 21.921875 38.8125 
z
M 18.3125 54.390625 
Q 18.3125 48.734375 21.84375 45.5625 
Q 25.390625 42.390625 31.78125 42.390625 
Q 38.140625 42.390625 41.71875 45.5625 
Q 45.3125 48.734375 45.3125 54.390625 
Q 45.3125 60.0625 41.71875 63.234375 
Q 38.140625 66.40625 31.78125 66.40625 
Q 25.390625 66.40625 21.84375 63.234375 
Q 18.3125 60.0625 18.3125 54.390625 
z
" id="DejaVuSans-56"/>
      </defs>
      <g transform="translate(327.592482 322.182437)scale(0.1 -0.1)">
       <use xlink:href="#DejaVuSans-48"/>
       <use x="63.623047" xlink:href="#DejaVuSans-46"/>
       <use x="95.410156" xlink:href="#DejaVuSans-56"/>
      </g>
     </g>
    </g>
    <g id="xtick_6">
     <g id="line2d_11">
      <path clip-path="url(#p55010b7356)" d="M 401.800074 307.584 
L 401.800074 41.472 
" style="fill:none;stroke:#b0b0b0;stroke-linecap:square;stroke-width:0.8;"/>
     </g>
     <g id="line2d_12">
      <g>
       <use style="stroke:#000000;stroke-width:0.8;" x="401.800074" xlink:href="#mdf193e2a53" y="307.584"/>
      </g>
     </g>
     <g id="text_6">
      <!-- 1.0 -->
      <defs>
       <path d="M 12.40625 8.296875 
L 28.515625 8.296875 
L 28.515625 63.921875 
L 10.984375 60.40625 
L 10.984375 69.390625 
L 28.421875 72.90625 
L 38.28125 72.90625 
L 38.28125 8.296875 
L 54.390625 8.296875 
L 54.390625 0 
L 12.40625 0 
z
" id="DejaVuSans-49"/>
      </defs>
      <g transform="translate(393.848512 322.182437)scale(0.1 -0.1)">
       <use xlink:href="#DejaVuSans-49"/>
       <use x="63.623047" xlink:href="#DejaVuSans-46"/>
       <use x="95.410156" xlink:href="#DejaVuSans-48"/>
      </g>
     </g>
    </g>
    <g id="text_7">
     <!-- $\mathrm{Time \ (seconds)}$ -->
     <defs>
      <path d="M -0.296875 72.90625 
L 61.375 72.90625 
L 61.375 64.59375 
L 35.5 64.59375 
L 35.5 0 
L 25.59375 0 
L 25.59375 64.59375 
L -0.296875 64.59375 
z
" id="DejaVuSans-84"/>
      <path d="M 9.421875 54.6875 
L 18.40625 54.6875 
L 18.40625 0 
L 9.421875 0 
z
M 9.421875 75.984375 
L 18.40625 75.984375 
L 18.40625 64.59375 
L 9.421875 64.59375 
z
" id="DejaVuSans-105"/>
      <path d="M 52 44.1875 
Q 55.375 50.25 60.0625 53.125 
Q 64.75 56 71.09375 56 
Q 79.640625 56 84.28125 50.015625 
Q 88.921875 44.046875 88.921875 33.015625 
L 88.921875 0 
L 79.890625 0 
L 79.890625 32.71875 
Q 79.890625 40.578125 77.09375 44.375 
Q 74.3125 48.1875 68.609375 48.1875 
Q 61.625 48.1875 57.5625 43.546875 
Q 53.515625 38.921875 53.515625 30.90625 
L 53.515625 0 
L 44.484375 0 
L 44.484375 32.71875 
Q 44.484375 40.625 41.703125 44.40625 
Q 38.921875 48.1875 33.109375 48.1875 
Q 26.21875 48.1875 22.15625 43.53125 
Q 18.109375 38.875 18.109375 30.90625 
L 18.109375 0 
L 9.078125 0 
L 9.078125 54.6875 
L 18.109375 54.6875 
L 18.109375 46.1875 
Q 21.1875 51.21875 25.484375 53.609375 
Q 29.78125 56 35.6875 56 
Q 41.65625 56 45.828125 52.96875 
Q 50 49.953125 52 44.1875 
z
" id="DejaVuSans-109"/>
      <path d="M 56.203125 29.59375 
L 56.203125 25.203125 
L 14.890625 25.203125 
Q 15.484375 15.921875 20.484375 11.0625 
Q 25.484375 6.203125 34.421875 6.203125 
Q 39.59375 6.203125 44.453125 7.46875 
Q 49.3125 8.734375 54.109375 11.28125 
L 54.109375 2.78125 
Q 49.265625 0.734375 44.1875 -0.34375 
Q 39.109375 -1.421875 33.890625 -1.421875 
Q 20.796875 -1.421875 13.15625 6.1875 
Q 5.515625 13.8125 5.515625 26.8125 
Q 5.515625 40.234375 12.765625 48.109375 
Q 20.015625 56 32.328125 56 
Q 43.359375 56 49.78125 48.890625 
Q 56.203125 41.796875 56.203125 29.59375 
z
M 47.21875 32.234375 
Q 47.125 39.59375 43.09375 43.984375 
Q 39.0625 48.390625 32.421875 48.390625 
Q 24.90625 48.390625 20.390625 44.140625 
Q 15.875 39.890625 15.1875 32.171875 
z
" id="DejaVuSans-101"/>
      <path d="M 31 75.875 
Q 24.46875 64.65625 21.28125 53.65625 
Q 18.109375 42.671875 18.109375 31.390625 
Q 18.109375 20.125 21.3125 9.0625 
Q 24.515625 -2 31 -13.1875 
L 23.1875 -13.1875 
Q 15.875 -1.703125 12.234375 9.375 
Q 8.59375 20.453125 8.59375 31.390625 
Q 8.59375 42.28125 12.203125 53.3125 
Q 15.828125 64.359375 23.1875 75.875 
z
" id="DejaVuSans-40"/>
      <path d="M 44.28125 53.078125 
L 44.28125 44.578125 
Q 40.484375 46.53125 36.375 47.5 
Q 32.28125 48.484375 27.875 48.484375 
Q 21.1875 48.484375 17.84375 46.4375 
Q 14.5 44.390625 14.5 40.28125 
Q 14.5 37.15625 16.890625 35.375 
Q 19.28125 33.59375 26.515625 31.984375 
L 29.59375 31.296875 
Q 39.15625 29.25 43.1875 25.515625 
Q 47.21875 21.78125 47.21875 15.09375 
Q 47.21875 7.46875 41.1875 3.015625 
Q 35.15625 -1.421875 24.609375 -1.421875 
Q 20.21875 -1.421875 15.453125 -0.5625 
Q 10.6875 0.296875 5.421875 2 
L 5.421875 11.28125 
Q 10.40625 8.6875 15.234375 7.390625 
Q 20.0625 6.109375 24.8125 6.109375 
Q 31.15625 6.109375 34.5625 8.28125 
Q 37.984375 10.453125 37.984375 14.40625 
Q 37.984375 18.0625 35.515625 20.015625 
Q 33.0625 21.96875 24.703125 23.78125 
L 21.578125 24.515625 
Q 13.234375 26.265625 9.515625 29.90625 
Q 5.8125 33.546875 5.8125 39.890625 
Q 5.8125 47.609375 11.28125 51.796875 
Q 16.75 56 26.8125 56 
Q 31.78125 56 36.171875 55.265625 
Q 40.578125 54.546875 44.28125 53.078125 
z
" id="DejaVuSans-115"/>
      <path d="M 48.78125 52.59375 
L 48.78125 44.1875 
Q 44.96875 46.296875 41.140625 47.34375 
Q 37.3125 48.390625 33.40625 48.390625 
Q 24.65625 48.390625 19.8125 42.84375 
Q 14.984375 37.3125 14.984375 27.296875 
Q 14.984375 17.28125 19.8125 11.734375 
Q 24.65625 6.203125 33.40625 6.203125 
Q 37.3125 6.203125 41.140625 7.25 
Q 44.96875 8.296875 48.78125 10.40625 
L 48.78125 2.09375 
Q 45.015625 0.34375 40.984375 -0.53125 
Q 36.96875 -1.421875 32.421875 -1.421875 
Q 20.0625 -1.421875 12.78125 6.34375 
Q 5.515625 14.109375 5.515625 27.296875 
Q 5.515625 40.671875 12.859375 48.328125 
Q 20.21875 56 33.015625 56 
Q 37.15625 56 41.109375 55.140625 
Q 45.0625 54.296875 48.78125 52.59375 
z
" id="DejaVuSans-99"/>
      <path d="M 30.609375 48.390625 
Q 23.390625 48.390625 19.1875 42.75 
Q 14.984375 37.109375 14.984375 27.296875 
Q 14.984375 17.484375 19.15625 11.84375 
Q 23.34375 6.203125 30.609375 6.203125 
Q 37.796875 6.203125 41.984375 11.859375 
Q 46.1875 17.53125 46.1875 27.296875 
Q 46.1875 37.015625 41.984375 42.703125 
Q 37.796875 48.390625 30.609375 48.390625 
z
M 30.609375 56 
Q 42.328125 56 49.015625 48.375 
Q 55.71875 40.765625 55.71875 27.296875 
Q 55.71875 13.875 49.015625 6.21875 
Q 42.328125 -1.421875 30.609375 -1.421875 
Q 18.84375 -1.421875 12.171875 6.21875 
Q 5.515625 13.875 5.515625 27.296875 
Q 5.515625 40.765625 12.171875 48.375 
Q 18.84375 56 30.609375 56 
z
" id="DejaVuSans-111"/>
      <path d="M 54.890625 33.015625 
L 54.890625 0 
L 45.90625 0 
L 45.90625 32.71875 
Q 45.90625 40.484375 42.875 44.328125 
Q 39.84375 48.1875 33.796875 48.1875 
Q 26.515625 48.1875 22.3125 43.546875 
Q 18.109375 38.921875 18.109375 30.90625 
L 18.109375 0 
L 9.078125 0 
L 9.078125 54.6875 
L 18.109375 54.6875 
L 18.109375 46.1875 
Q 21.34375 51.125 25.703125 53.5625 
Q 30.078125 56 35.796875 56 
Q 45.21875 56 50.046875 50.171875 
Q 54.890625 44.34375 54.890625 33.015625 
z
" id="DejaVuSans-110"/>
      <path d="M 45.40625 46.390625 
L 45.40625 75.984375 
L 54.390625 75.984375 
L 54.390625 0 
L 45.40625 0 
L 45.40625 8.203125 
Q 42.578125 3.328125 38.25 0.953125 
Q 33.9375 -1.421875 27.875 -1.421875 
Q 17.96875 -1.421875 11.734375 6.484375 
Q 5.515625 14.40625 5.515625 27.296875 
Q 5.515625 40.1875 11.734375 48.09375 
Q 17.96875 56 27.875 56 
Q 33.9375 56 38.25 53.625 
Q 42.578125 51.265625 45.40625 46.390625 
z
M 14.796875 27.296875 
Q 14.796875 17.390625 18.875 11.75 
Q 22.953125 6.109375 30.078125 6.109375 
Q 37.203125 6.109375 41.296875 11.75 
Q 45.40625 17.390625 45.40625 27.296875 
Q 45.40625 37.203125 41.296875 42.84375 
Q 37.203125 48.484375 30.078125 48.484375 
Q 22.953125 48.484375 18.875 42.84375 
Q 14.796875 37.203125 14.796875 27.296875 
z
" id="DejaVuSans-100"/>
      <path d="M 8.015625 75.875 
L 15.828125 75.875 
Q 23.140625 64.359375 26.78125 53.3125 
Q 30.421875 42.28125 30.421875 31.390625 
Q 30.421875 20.453125 26.78125 9.375 
Q 23.140625 -1.703125 15.828125 -13.1875 
L 8.015625 -13.1875 
Q 14.5 -2 17.703125 9.0625 
Q 20.90625 20.125 20.90625 31.390625 
Q 20.90625 42.671875 17.703125 53.65625 
Q 14.5 64.65625 8.015625 75.875 
z
" id="DejaVuSans-41"/>
     </defs>
     <g transform="translate(197.76 335.860562)scale(0.1 -0.1)">
      <use transform="translate(0 0.015625)" xlink:href="#DejaVuSans-84"/>
      <use transform="translate(61.083984 0.015625)" xlink:href="#DejaVuSans-105"/>
      <use transform="translate(88.867188 0.015625)" xlink:href="#DejaVuSans-109"/>
      <use transform="translate(186.279297 0.015625)" xlink:href="#DejaVuSans-101"/>
      <use transform="translate(280.273113 0.015625)" xlink:href="#DejaVuSans-40"/>
      <use transform="translate(319.286785 0.015625)" xlink:href="#DejaVuSans-115"/>
      <use transform="translate(371.386394 0.015625)" xlink:href="#DejaVuSans-101"/>
      <use transform="translate(432.909832 0.015625)" xlink:href="#DejaVuSans-99"/>
      <use transform="translate(487.8903 0.015625)" xlink:href="#DejaVuSans-111"/>
      <use transform="translate(549.071941 0.015625)" xlink:href="#DejaVuSans-110"/>
      <use transform="translate(612.450847 0.015625)" xlink:href="#DejaVuSans-100"/>
      <use transform="translate(675.92741 0.015625)" xlink:href="#DejaVuSans-115"/>
      <use transform="translate(728.027019 0.015625)" xlink:href="#DejaVuSans-41"/>
     </g>
    </g>
   </g>
   <g id="matplotlib.axis_2">
    <g id="ytick_1">
     <g id="line2d_13">
      <path clip-path="url(#p55010b7356)" d="M 57.6 210.418393 
L 414.72 210.418393 
" style="fill:none;stroke:#b0b0b0;stroke-linecap:square;stroke-width:0.8;"/>
     </g>
     <g id="line2d_14">
      <defs>
       <path d="M 0 0 
L -3.5 0 
" id="m6f821c85e3" style="stroke:#000000;stroke-width:0.8;"/>
      </defs>
      <g>
       <use style="stroke:#000000;stroke-width:0.8;" x="57.6" xlink:href="#m6f821c85e3" y="210.418393"/>
      </g>
     </g>
     <g id="text_8">
      <!-- $\mathdefault{10^{-2}}$ -->
      <defs>
       <path d="M 10.59375 35.5 
L 73.1875 35.5 
L 73.1875 27.203125 
L 10.59375 27.203125 
z
" id="DejaVuSans-8722"/>
      </defs>
      <g transform="translate(27.1 214.217612)scale(0.1 -0.1)">
       <use transform="translate(0 0.765625)" xlink:href="#DejaVuSans-49"/>
       <use transform="translate(63.623047 0.765625)" xlink:href="#DejaVuSans-48"/>
       <use transform="translate(128.203125 39.046875)scale(0.7)" xlink:href="#DejaVuSans-8722"/>
       <use transform="translate(186.855469 39.046875)scale(0.7)" xlink:href="#DejaVuSans-50"/>
      </g>
     </g>
    </g>
    <g id="ytick_2">
     <g id="line2d_15">
      <path clip-path="url(#p55010b7356)" d="M 57.6 58.731553 
L 414.72 58.731553 
" style="fill:none;stroke:#b0b0b0;stroke-linecap:square;stroke-width:0.8;"/>
     </g>
     <g id="line2d_16">
      <g>
       <use style="stroke:#000000;stroke-width:0.8;" x="57.6" xlink:href="#m6f821c85e3" y="58.731553"/>
      </g>
     </g>
     <g id="text_9">
      <!-- $\mathdefault{10^{-1}}$ -->
      <g transform="translate(27.1 62.530772)scale(0.1 -0.1)">
       <use transform="translate(0 0.684375)" xlink:href="#DejaVuSans-49"/>
       <use transform="translate(63.623047 0.684375)" xlink:href="#DejaVuSans-48"/>
       <use transform="translate(128.203125 38.965625)scale(0.7)" xlink:href="#DejaVuSans-8722"/>
       <use transform="translate(186.855469 38.965625)scale(0.7)" xlink:href="#DejaVuSans-49"/>
      </g>
     </g>
    </g>
    <g id="ytick_3">
     <g id="line2d_17">
      <defs>
       <path d="M 0 0 
L -2 0 
" id="m5e7fe4b9bc" style="stroke:#000000;stroke-width:0.6;"/>
      </defs>
      <g>
       <use style="stroke:#000000;stroke-width:0.6;" x="57.6" xlink:href="#m5e7fe4b9bc" y="289.732217"/>
      </g>
     </g>
    </g>
    <g id="ytick_4">
     <g id="line2d_18">
      <g>
       <use style="stroke:#000000;stroke-width:0.6;" x="57.6" xlink:href="#m5e7fe4b9bc" y="270.780655"/>
      </g>
     </g>
    </g>
    <g id="ytick_5">
     <g id="line2d_19">
      <g>
       <use style="stroke:#000000;stroke-width:0.6;" x="57.6" xlink:href="#m5e7fe4b9bc" y="256.080681"/>
      </g>
     </g>
    </g>
    <g id="ytick_6">
     <g id="line2d_20">
      <g>
       <use style="stroke:#000000;stroke-width:0.6;" x="57.6" xlink:href="#m5e7fe4b9bc" y="244.069929"/>
      </g>
     </g>
    </g>
    <g id="ytick_7">
     <g id="line2d_21">
      <g>
       <use style="stroke:#000000;stroke-width:0.6;" x="57.6" xlink:href="#m5e7fe4b9bc" y="233.914982"/>
      </g>
     </g>
    </g>
    <g id="ytick_8">
     <g id="line2d_22">
      <g>
       <use style="stroke:#000000;stroke-width:0.6;" x="57.6" xlink:href="#m5e7fe4b9bc" y="225.118366"/>
      </g>
     </g>
    </g>
    <g id="ytick_9">
     <g id="line2d_23">
      <g>
       <use style="stroke:#000000;stroke-width:0.6;" x="57.6" xlink:href="#m5e7fe4b9bc" y="217.359202"/>
      </g>
     </g>
    </g>
    <g id="ytick_10">
     <g id="line2d_24">
      <g>
       <use style="stroke:#000000;stroke-width:0.6;" x="57.6" xlink:href="#m5e7fe4b9bc" y="164.756104"/>
      </g>
     </g>
    </g>
    <g id="ytick_11">
     <g id="line2d_25">
      <g>
       <use style="stroke:#000000;stroke-width:0.6;" x="57.6" xlink:href="#m5e7fe4b9bc" y="138.045378"/>
      </g>
     </g>
    </g>
    <g id="ytick_12">
     <g id="line2d_26">
      <g>
       <use style="stroke:#000000;stroke-width:0.6;" x="57.6" xlink:href="#m5e7fe4b9bc" y="119.093816"/>
      </g>
     </g>
    </g>
    <g id="ytick_13">
     <g id="line2d_27">
      <g>
       <use style="stroke:#000000;stroke-width:0.6;" x="57.6" xlink:href="#m5e7fe4b9bc" y="104.393842"/>
      </g>
     </g>
    </g>
    <g id="ytick_14">
     <g id="line2d_28">
      <g>
       <use style="stroke:#000000;stroke-width:0.6;" x="57.6" xlink:href="#m5e7fe4b9bc" y="92.383089"/>
      </g>
     </g>
    </g>
    <g id="ytick_15">
     <g id="line2d_29">
      <g>
       <use style="stroke:#000000;stroke-width:0.6;" x="57.6" xlink:href="#m5e7fe4b9bc" y="82.228142"/>
      </g>
     </g>
    </g>
    <g id="ytick_16">
     <g id="line2d_30">
      <g>
       <use style="stroke:#000000;stroke-width:0.6;" x="57.6" xlink:href="#m5e7fe4b9bc" y="73.431527"/>
      </g>
     </g>
    </g>
    <g id="ytick_17">
     <g id="line2d_31">
      <g>
       <use style="stroke:#000000;stroke-width:0.6;" x="57.6" xlink:href="#m5e7fe4b9bc" y="65.672363"/>
      </g>
     </g>
    </g>
    <g id="text_10">
     <!-- $\mathrm{Relative \ error}$ ($N_{\mathrm{train}}=10$) -->
     <defs>
      <path d="M 44.390625 34.1875 
Q 47.5625 33.109375 50.5625 29.59375 
Q 53.5625 26.078125 56.59375 19.921875 
L 66.609375 0 
L 56 0 
L 46.6875 18.703125 
Q 43.0625 26.03125 39.671875 28.421875 
Q 36.28125 30.8125 30.421875 30.8125 
L 19.671875 30.8125 
L 19.671875 0 
L 9.8125 0 
L 9.8125 72.90625 
L 32.078125 72.90625 
Q 44.578125 72.90625 50.734375 67.671875 
Q 56.890625 62.453125 56.890625 51.90625 
Q 56.890625 45.015625 53.6875 40.46875 
Q 50.484375 35.9375 44.390625 34.1875 
z
M 19.671875 64.796875 
L 19.671875 38.921875 
L 32.078125 38.921875 
Q 39.203125 38.921875 42.84375 42.21875 
Q 46.484375 45.515625 46.484375 51.90625 
Q 46.484375 58.296875 42.84375 61.546875 
Q 39.203125 64.796875 32.078125 64.796875 
z
" id="DejaVuSans-82"/>
      <path d="M 9.421875 75.984375 
L 18.40625 75.984375 
L 18.40625 0 
L 9.421875 0 
z
" id="DejaVuSans-108"/>
      <path d="M 34.28125 27.484375 
Q 23.390625 27.484375 19.1875 25 
Q 14.984375 22.515625 14.984375 16.5 
Q 14.984375 11.71875 18.140625 8.90625 
Q 21.296875 6.109375 26.703125 6.109375 
Q 34.1875 6.109375 38.703125 11.40625 
Q 43.21875 16.703125 43.21875 25.484375 
L 43.21875 27.484375 
z
M 52.203125 31.203125 
L 52.203125 0 
L 43.21875 0 
L 43.21875 8.296875 
Q 40.140625 3.328125 35.546875 0.953125 
Q 30.953125 -1.421875 24.3125 -1.421875 
Q 15.921875 -1.421875 10.953125 3.296875 
Q 6 8.015625 6 15.921875 
Q 6 25.140625 12.171875 29.828125 
Q 18.359375 34.515625 30.609375 34.515625 
L 43.21875 34.515625 
L 43.21875 35.40625 
Q 43.21875 41.609375 39.140625 45 
Q 35.0625 48.390625 27.6875 48.390625 
Q 23 48.390625 18.546875 47.265625 
Q 14.109375 46.140625 10.015625 43.890625 
L 10.015625 52.203125 
Q 14.9375 54.109375 19.578125 55.046875 
Q 24.21875 56 28.609375 56 
Q 40.484375 56 46.34375 49.84375 
Q 52.203125 43.703125 52.203125 31.203125 
z
" id="DejaVuSans-97"/>
      <path d="M 18.3125 70.21875 
L 18.3125 54.6875 
L 36.8125 54.6875 
L 36.8125 47.703125 
L 18.3125 47.703125 
L 18.3125 18.015625 
Q 18.3125 11.328125 20.140625 9.421875 
Q 21.96875 7.515625 27.59375 7.515625 
L 36.8125 7.515625 
L 36.8125 0 
L 27.59375 0 
Q 17.1875 0 13.234375 3.875 
Q 9.28125 7.765625 9.28125 18.015625 
L 9.28125 47.703125 
L 2.6875 47.703125 
L 2.6875 54.6875 
L 9.28125 54.6875 
L 9.28125 70.21875 
z
" id="DejaVuSans-116"/>
      <path d="M 2.984375 54.6875 
L 12.5 54.6875 
L 29.59375 8.796875 
L 46.6875 54.6875 
L 56.203125 54.6875 
L 35.6875 0 
L 23.484375 0 
z
" id="DejaVuSans-118"/>
      <path d="M 41.109375 46.296875 
Q 39.59375 47.171875 37.8125 47.578125 
Q 36.03125 48 33.890625 48 
Q 26.265625 48 22.1875 43.046875 
Q 18.109375 38.09375 18.109375 28.8125 
L 18.109375 0 
L 9.078125 0 
L 9.078125 54.6875 
L 18.109375 54.6875 
L 18.109375 46.1875 
Q 20.953125 51.171875 25.484375 53.578125 
Q 30.03125 56 36.53125 56 
Q 37.453125 56 38.578125 55.875 
Q 39.703125 55.765625 41.0625 55.515625 
z
" id="DejaVuSans-114"/>
      <path id="DejaVuSans-32"/>
      <path d="M 16.890625 72.90625 
L 30.171875 72.90625 
L 50.296875 10.40625 
L 62.5 72.90625 
L 72.125 72.90625 
L 57.90625 0 
L 44.578125 0 
L 24.515625 62.890625 
L 12.3125 0 
L 2.6875 0 
z
" id="DejaVuSans-Oblique-78"/>
      <path d="M 10.59375 45.40625 
L 73.1875 45.40625 
L 73.1875 37.203125 
L 10.59375 37.203125 
z
M 10.59375 25.484375 
L 73.1875 25.484375 
L 73.1875 17.1875 
L 10.59375 17.1875 
z
" id="DejaVuSans-61"/>
     </defs>
     <g transform="translate(21.020312 238.878)rotate(-90)scale(0.1 -0.1)">
      <use transform="translate(0 0.015625)" xlink:href="#DejaVuSans-82"/>
      <use transform="translate(69.482422 0.015625)" xlink:href="#DejaVuSans-101"/>
      <use transform="translate(131.005859 0.015625)" xlink:href="#DejaVuSans-108"/>
      <use transform="translate(158.789062 0.015625)" xlink:href="#DejaVuSans-97"/>
      <use transform="translate(220.068359 0.015625)" xlink:href="#DejaVuSans-116"/>
      <use transform="translate(259.277344 0.015625)" xlink:href="#DejaVuSans-105"/>
      <use transform="translate(287.060547 0.015625)" xlink:href="#DejaVuSans-118"/>
      <use transform="translate(346.240234 0.015625)" xlink:href="#DejaVuSans-101"/>
      <use transform="translate(440.23405 0.015625)" xlink:href="#DejaVuSans-101"/>
      <use transform="translate(501.757488 0.015625)" xlink:href="#DejaVuSans-114"/>
      <use transform="translate(542.870769 0.015625)" xlink:href="#DejaVuSans-114"/>
      <use transform="translate(583.98405 0.015625)" xlink:href="#DejaVuSans-111"/>
      <use transform="translate(645.165691 0.015625)" xlink:href="#DejaVuSans-114"/>
      <use transform="translate(686.278972 0.015625)" xlink:href="#DejaVuSans-32"/>
      <use transform="translate(718.066082 0.015625)" xlink:href="#DejaVuSans-40"/>
      <use transform="translate(757.079753 0.015625)" xlink:href="#DejaVuSans-Oblique-78"/>
      <use transform="translate(831.884441 -16.390625)scale(0.7)" xlink:href="#DejaVuSans-116"/>
      <use transform="translate(859.33073 -16.390625)scale(0.7)" xlink:href="#DejaVuSans-114"/>
      <use transform="translate(888.110027 -16.390625)scale(0.7)" xlink:href="#DejaVuSans-97"/>
      <use transform="translate(931.005535 -16.390625)scale(0.7)" xlink:href="#DejaVuSans-105"/>
      <use transform="translate(950.453777 -16.390625)scale(0.7)" xlink:href="#DejaVuSans-110"/>
      <use transform="translate(1017.035808 0.015625)" xlink:href="#DejaVuSans-61"/>
      <use transform="translate(1120.307292 0.015625)" xlink:href="#DejaVuSans-49"/>
      <use transform="translate(1183.930339 0.015625)" xlink:href="#DejaVuSans-48"/>
      <use transform="translate(1247.553386 0.015625)" xlink:href="#DejaVuSans-41"/>
     </g>
    </g>
   </g>
   <g id="line2d_32">
    <path clip-path="url(#p55010b7356)" d="M 73.832724 260.797884 
L 77.145522 235.006699 
L 80.458321 215.802164 
L 83.771119 200.504096 
L 87.083917 187.959392 
L 90.396716 177.527014 
L 93.709554 168.77433 
L 97.022352 161.37006 
L 100.33515 155.048661 
L 103.647949 149.599018 
L 106.960747 144.854105 
L 110.273545 140.684318 
L 113.586344 136.987067 
L 116.899142 133.680382 
L 120.21194 130.697856 
L 123.524738 127.983113 
L 126.837537 125.487623 
L 130.150375 123.1731 
L 133.463173 121.013058 
L 136.775971 118.986629 
L 140.08877 117.077969 
L 143.401568 115.275761 
L 146.714366 113.571323 
L 150.027165 111.957985 
L 153.339963 110.430864 
L 156.652761 108.986204 
L 159.96556 107.619256 
L 163.278358 106.326812 
L 166.591156 105.106425 
L 169.903955 103.956308 
L 173.216753 102.874557 
L 176.529551 101.859373 
L 179.842389 100.909339 
L 183.155187 100.024073 
L 186.467986 99.203905 
L 189.780784 98.44927 
L 193.093582 97.760416 
L 196.406381 97.137188 
L 199.719179 96.578963 
L 203.031977 96.084589 
L 206.344776 95.652415 
L 209.657574 95.279937 
L 212.970412 94.963402 
L 219.596008 94.472551 
L 232.847202 93.705004 
L 236.16 93.451977 
L 239.472798 93.139368 
L 242.785597 92.756977 
L 246.098395 92.300484 
L 249.411193 91.770541 
L 252.723992 91.17154 
L 256.03679 90.510518 
L 262.662387 89.037775 
L 269.288023 87.424384 
L 279.226418 84.876162 
L 295.790449 80.617414 
L 305.728844 78.157219 
L 315.667239 75.799085 
L 325.605634 73.558737 
L 335.544029 71.448796 
L 342.169625 70.123768 
L 348.795222 68.873438 
L 355.420858 67.709304 
L 362.046455 66.64378 
L 368.672051 65.690037 
L 375.297688 64.861405 
L 381.923284 64.170133 
L 388.548881 63.625973 
L 395.174478 63.233078 
L 398.487276 63.092957 
" style="fill:none;stroke:#ff0000;stroke-linecap:square;stroke-width:1.5;"/>
   </g>
   <g id="line2d_33">
    <path clip-path="url(#p55010b7356)" d="M 73.832724 258.837127 
L 77.145522 232.944787 
L 80.458321 213.615845 
L 83.771119 198.208453 
L 87.083917 185.574601 
L 90.396716 175.0704 
L 93.709554 166.261119 
L 97.022352 158.815119 
L 100.33515 152.467861 
L 103.647949 147.005505 
L 106.960747 142.259358 
L 110.273545 138.097333 
L 113.586344 134.41552 
L 116.899142 131.131325 
L 120.21194 128.177068 
L 123.524738 125.495181 
L 126.837537 123.036687 
L 130.150375 120.764262 
L 133.463173 118.652298 
L 136.775971 116.680355 
L 140.08877 114.831111 
L 143.401568 113.091466 
L 146.714366 111.450934 
L 150.027165 109.901468 
L 153.339963 108.437364 
L 156.652761 107.053006 
L 159.96556 105.744178 
L 163.278358 104.508892 
L 166.591156 103.345443 
L 169.903955 102.251836 
L 173.216753 101.225724 
L 176.529551 100.265128 
L 179.842389 99.368781 
L 183.155187 98.536389 
L 186.467986 97.768445 
L 189.780784 97.065344 
L 193.093582 96.427287 
L 196.406381 95.854179 
L 199.719179 95.34561 
L 203.031977 94.900747 
L 206.344776 94.517902 
L 209.657574 94.194589 
L 212.970412 93.92711 
L 219.596008 93.533727 
L 232.847202 92.951995 
L 236.16 92.741824 
L 239.472798 92.47133 
L 242.785597 92.130981 
L 246.098395 91.716545 
L 249.411193 91.228177 
L 252.723992 90.669429 
L 256.03679 90.046469 
L 259.349588 89.367345 
L 265.975185 87.876191 
L 272.600821 86.265706 
L 289.164852 82.066237 
L 302.416045 78.772836 
L 312.35444 76.409201 
L 322.292835 74.161046 
L 332.23123 72.043335 
L 338.856827 70.712985 
L 345.482424 69.457339 
L 352.10806 68.287636 
L 358.733656 67.215618 
L 365.359253 66.254952 
L 371.984889 65.420696 
L 378.610486 64.727705 
L 385.236083 64.18955 
L 391.861679 63.815188 
L 398.487276 63.606954 
" style="fill:none;stroke:#0000ff;stroke-linecap:square;stroke-width:1.5;"/>
   </g>
   <g id="line2d_34">
    <path clip-path="url(#p55010b7356)" d="M 73.832724 275.368709 
L 77.145522 251.058335 
L 80.458321 233.144706 
L 83.771119 218.930792 
L 87.083917 207.281518 
L 90.396716 197.578132 
L 93.709554 189.392013 
L 97.022352 182.403622 
L 100.33515 176.365903 
L 103.647949 171.083029 
L 106.960747 166.405492 
L 110.273545 162.221223 
L 113.586344 158.445528 
L 116.899142 155.010635 
L 120.21194 151.85745 
L 123.524738 148.933188 
L 126.837537 146.196782 
L 130.150375 143.615202 
L 133.463173 141.165134 
L 136.775971 138.832872 
L 140.08877 136.60457 
L 143.401568 134.46724 
L 146.714366 132.411839 
L 150.027165 130.432455 
L 153.339963 128.527217 
L 156.652761 126.695948 
L 159.96556 124.938257 
L 163.278358 123.252774 
L 166.591156 121.636831 
L 169.903955 120.087815 
L 173.216753 118.60411 
L 176.529551 117.185466 
L 179.842389 115.832915 
L 183.155187 114.547505 
L 186.467986 113.330286 
L 189.780784 112.182155 
L 193.093582 111.103768 
L 196.406381 110.095596 
L 199.719179 109.158093 
L 203.031977 108.291511 
L 206.344776 107.496081 
L 209.657574 106.771928 
L 212.970412 106.119208 
L 216.28321 105.537586 
L 219.596008 105.025596 
L 222.908807 104.579431 
L 226.221605 104.191488 
L 232.847202 103.537483 
L 239.472798 102.922911 
L 246.098395 102.198564 
L 249.411193 101.763081 
L 252.723992 101.271006 
L 256.03679 100.72193 
L 259.349588 100.11895 
L 265.975185 98.773309 
L 272.600821 97.286782 
L 282.539216 94.906875 
L 318.980037 85.982812 
L 328.918432 83.669645 
L 338.856827 81.456385 
L 345.482424 80.05065 
L 352.10806 78.715296 
L 358.733656 77.465999 
L 365.359253 76.319987 
L 371.984889 75.294254 
L 378.610486 74.404184 
L 385.236083 73.662385 
L 391.861679 73.076617 
L 398.487276 72.650218 
" style="fill:none;stroke:#00ffff;stroke-linecap:square;stroke-width:1.5;"/>
   </g>
   <g id="patch_3">
    <path d="M 57.6 307.584 
L 57.6 41.472 
" style="fill:none;stroke:#000000;stroke-linecap:square;stroke-linejoin:miter;stroke-width:0.8;"/>
   </g>
   <g id="patch_4">
    <path d="M 414.72 307.584 
L 414.72 41.472 
" style="fill:none;stroke:#000000;stroke-linecap:square;stroke-linejoin:miter;stroke-width:0.8;"/>
   </g>
   <g id="patch_5">
    <path d="M 57.6 307.584 
L 414.72 307.584 
" style="fill:none;stroke:#000000;stroke-linecap:square;stroke-linejoin:miter;stroke-width:0.8;"/>
   </g>
   <g id="patch_6">
    <path d="M 57.6 41.472 
L 414.72 41.472 
" style="fill:none;stroke:#000000;stroke-linecap:square;stroke-linejoin:miter;stroke-width:0.8;"/>
   </g>
   <g id="legend_1">
    <g id="patch_7">
     <path d="M 64.6 93.506375 
L 189.760937 93.506375 
Q 191.760937 93.506375 191.760937 91.506375 
L 191.760937 48.472 
Q 191.760937 46.472 189.760937 46.472 
L 64.6 46.472 
Q 62.6 46.472 62.6 48.472 
L 62.6 91.506375 
Q 62.6 93.506375 64.6 93.506375 
z
" style="fill:#ffffff;opacity:0.8;stroke:#cccccc;stroke-linejoin:miter;"/>
    </g>
    <g id="line2d_35">
     <path d="M 66.6 54.570438 
L 86.6 54.570438 
" style="fill:none;stroke:#ff0000;stroke-linecap:square;stroke-width:1.5;"/>
    </g>
    <g id="line2d_36"/>
    <g id="text_11">
     <!-- No denoising -->
     <defs>
      <path d="M 9.8125 72.90625 
L 23.09375 72.90625 
L 55.421875 11.921875 
L 55.421875 72.90625 
L 64.984375 72.90625 
L 64.984375 0 
L 51.703125 0 
L 19.390625 60.984375 
L 19.390625 0 
L 9.8125 0 
z
" id="DejaVuSans-78"/>
      <path d="M 45.40625 27.984375 
Q 45.40625 37.75 41.375 43.109375 
Q 37.359375 48.484375 30.078125 48.484375 
Q 22.859375 48.484375 18.828125 43.109375 
Q 14.796875 37.75 14.796875 27.984375 
Q 14.796875 18.265625 18.828125 12.890625 
Q 22.859375 7.515625 30.078125 7.515625 
Q 37.359375 7.515625 41.375 12.890625 
Q 45.40625 18.265625 45.40625 27.984375 
z
M 54.390625 6.78125 
Q 54.390625 -7.171875 48.1875 -13.984375 
Q 42 -20.796875 29.203125 -20.796875 
Q 24.46875 -20.796875 20.265625 -20.09375 
Q 16.0625 -19.390625 12.109375 -17.921875 
L 12.109375 -9.1875 
Q 16.0625 -11.328125 19.921875 -12.34375 
Q 23.78125 -13.375 27.78125 -13.375 
Q 36.625 -13.375 41.015625 -8.765625 
Q 45.40625 -4.15625 45.40625 5.171875 
L 45.40625 9.625 
Q 42.625 4.78125 38.28125 2.390625 
Q 33.9375 0 27.875 0 
Q 17.828125 0 11.671875 7.65625 
Q 5.515625 15.328125 5.515625 27.984375 
Q 5.515625 40.671875 11.671875 48.328125 
Q 17.828125 56 27.875 56 
Q 33.9375 56 38.28125 53.609375 
Q 42.625 51.21875 45.40625 46.390625 
L 45.40625 54.6875 
L 54.390625 54.6875 
z
" id="DejaVuSans-103"/>
     </defs>
     <g transform="translate(94.6 58.070438)scale(0.1 -0.1)">
      <use xlink:href="#DejaVuSans-78"/>
      <use x="74.804688" xlink:href="#DejaVuSans-111"/>
      <use x="135.986328" xlink:href="#DejaVuSans-32"/>
      <use x="167.773438" xlink:href="#DejaVuSans-100"/>
      <use x="231.25" xlink:href="#DejaVuSans-101"/>
      <use x="292.773438" xlink:href="#DejaVuSans-110"/>
      <use x="356.152344" xlink:href="#DejaVuSans-111"/>
      <use x="417.333984" xlink:href="#DejaVuSans-105"/>
      <use x="445.117188" xlink:href="#DejaVuSans-115"/>
      <use x="497.216797" xlink:href="#DejaVuSans-105"/>
      <use x="525" xlink:href="#DejaVuSans-110"/>
      <use x="588.378906" xlink:href="#DejaVuSans-103"/>
     </g>
    </g>
    <g id="line2d_37">
     <path d="M 66.6 69.248563 
L 86.6 69.248563 
" style="fill:none;stroke:#0000ff;stroke-linecap:square;stroke-width:1.5;"/>
    </g>
    <g id="line2d_38"/>
    <g id="text_12">
     <!-- With denoising -->
     <defs>
      <path d="M 3.328125 72.90625 
L 13.28125 72.90625 
L 28.609375 11.28125 
L 43.890625 72.90625 
L 54.984375 72.90625 
L 70.3125 11.28125 
L 85.59375 72.90625 
L 95.609375 72.90625 
L 77.296875 0 
L 64.890625 0 
L 49.515625 63.28125 
L 33.984375 0 
L 21.578125 0 
z
" id="DejaVuSans-87"/>
      <path d="M 54.890625 33.015625 
L 54.890625 0 
L 45.90625 0 
L 45.90625 32.71875 
Q 45.90625 40.484375 42.875 44.328125 
Q 39.84375 48.1875 33.796875 48.1875 
Q 26.515625 48.1875 22.3125 43.546875 
Q 18.109375 38.921875 18.109375 30.90625 
L 18.109375 0 
L 9.078125 0 
L 9.078125 75.984375 
L 18.109375 75.984375 
L 18.109375 46.1875 
Q 21.34375 51.125 25.703125 53.5625 
Q 30.078125 56 35.796875 56 
Q 45.21875 56 50.046875 50.171875 
Q 54.890625 44.34375 54.890625 33.015625 
z
" id="DejaVuSans-104"/>
     </defs>
     <g transform="translate(94.6 72.748563)scale(0.1 -0.1)">
      <use xlink:href="#DejaVuSans-87"/>
      <use x="98.845703" xlink:href="#DejaVuSans-105"/>
      <use x="126.628906" xlink:href="#DejaVuSans-116"/>
      <use x="165.837891" xlink:href="#DejaVuSans-104"/>
      <use x="229.216797" xlink:href="#DejaVuSans-32"/>
      <use x="261.003906" xlink:href="#DejaVuSans-100"/>
      <use x="324.480469" xlink:href="#DejaVuSans-101"/>
      <use x="386.003906" xlink:href="#DejaVuSans-110"/>
      <use x="449.382812" xlink:href="#DejaVuSans-111"/>
      <use x="510.564453" xlink:href="#DejaVuSans-105"/>
      <use x="538.347656" xlink:href="#DejaVuSans-115"/>
      <use x="590.447266" xlink:href="#DejaVuSans-105"/>
      <use x="618.230469" xlink:href="#DejaVuSans-110"/>
      <use x="681.609375" xlink:href="#DejaVuSans-103"/>
     </g>
    </g>
    <g id="line2d_39">
     <path d="M 66.6 83.926688 
L 86.6 83.926688 
" style="fill:none;stroke:#00ffff;stroke-linecap:square;stroke-width:1.5;"/>
    </g>
    <g id="line2d_40"/>
    <g id="text_13">
     <!-- With big denoising -->
     <defs>
      <path d="M 48.6875 27.296875 
Q 48.6875 37.203125 44.609375 42.84375 
Q 40.53125 48.484375 33.40625 48.484375 
Q 26.265625 48.484375 22.1875 42.84375 
Q 18.109375 37.203125 18.109375 27.296875 
Q 18.109375 17.390625 22.1875 11.75 
Q 26.265625 6.109375 33.40625 6.109375 
Q 40.53125 6.109375 44.609375 11.75 
Q 48.6875 17.390625 48.6875 27.296875 
z
M 18.109375 46.390625 
Q 20.953125 51.265625 25.265625 53.625 
Q 29.59375 56 35.59375 56 
Q 45.5625 56 51.78125 48.09375 
Q 58.015625 40.1875 58.015625 27.296875 
Q 58.015625 14.40625 51.78125 6.484375 
Q 45.5625 -1.421875 35.59375 -1.421875 
Q 29.59375 -1.421875 25.265625 0.953125 
Q 20.953125 3.328125 18.109375 8.203125 
L 18.109375 0 
L 9.078125 0 
L 9.078125 75.984375 
L 18.109375 75.984375 
z
" id="DejaVuSans-98"/>
     </defs>
     <g transform="translate(94.6 87.426688)scale(0.1 -0.1)">
      <use xlink:href="#DejaVuSans-87"/>
      <use x="98.845703" xlink:href="#DejaVuSans-105"/>
      <use x="126.628906" xlink:href="#DejaVuSans-116"/>
      <use x="165.837891" xlink:href="#DejaVuSans-104"/>
      <use x="229.216797" xlink:href="#DejaVuSans-32"/>
      <use x="261.003906" xlink:href="#DejaVuSans-98"/>
      <use x="324.480469" xlink:href="#DejaVuSans-105"/>
      <use x="352.263672" xlink:href="#DejaVuSans-103"/>
      <use x="415.740234" xlink:href="#DejaVuSans-32"/>
      <use x="447.527344" xlink:href="#DejaVuSans-100"/>
      <use x="511.003906" xlink:href="#DejaVuSans-101"/>
      <use x="572.527344" xlink:href="#DejaVuSans-110"/>
      <use x="635.90625" xlink:href="#DejaVuSans-111"/>
      <use x="697.087891" xlink:href="#DejaVuSans-105"/>
      <use x="724.871094" xlink:href="#DejaVuSans-115"/>
      <use x="776.970703" xlink:href="#DejaVuSans-105"/>
      <use x="804.753906" xlink:href="#DejaVuSans-110"/>
      <use x="868.132812" xlink:href="#DejaVuSans-103"/>
     </g>
    </g>
   </g>
  </g>
 </g>
 <defs>
  <clipPath id="p55010b7356">
   <rect height="266.112" width="357.12" x="57.6" y="41.472"/>
  </clipPath>
 </defs>
</svg>
