<?xml version="1.0" encoding="utf-8" standalone="no"?>
<!DOCTYPE svg PUBLIC "-//W3C//DTD SVG 1.1//EN"
  "http://www.w3.org/Graphics/SVG/1.1/DTD/svg11.dtd">
<!-- Created with matplotlib (https://matplotlib.org/) -->
<svg height="345.6pt" version="1.1" viewBox="0 0 460.8 345.6" width="460.8pt" xmlns="http://www.w3.org/2000/svg" xmlns:xlink="http://www.w3.org/1999/xlink">
 <defs>
  <style type="text/css">
*{stroke-linecap:butt;stroke-linejoin:round;white-space:pre;}
  </style>
 </defs>
 <g id="figure_1">
  <g id="patch_1">
   <path d="M 0 345.6 
L 460.8 345.6 
L 460.8 0 
L 0 0 
z
" style="fill:#ffffff;"/>
  </g>
  <g id="axes_1">
   <g id="patch_2">
    <path d="M 57.6 307.584 
L 414.72 307.584 
L 414.72 41.472 
L 57.6 41.472 
z
" style="fill:#ffffff;"/>
   </g>
   <g id="PolyCollection_1">
    <path clip-path="url(#p715813f7bb)" d="M 73.832727 223.765645 
L 73.832727 260.769914 
L 77.145529 233.188944 
L 80.45833 212.960421 
L 83.771132 197.093948 
L 87.083933 184.281325 
L 90.396735 173.819218 
L 93.709536 165.245441 
L 97.022338 158.207159 
L 100.335139 152.412423 
L 103.647941 147.617013 
L 106.960742 143.620725 
L 110.273544 140.26238 
L 113.586345 137.414732 
L 116.899147 134.979126 
L 120.211948 132.878746 
L 123.52475 131.054568 
L 126.837551 129.464128 
L 130.150353 128.077837 
L 133.463154 126.874036 
L 136.775955 125.835535 
L 140.088757 124.949341 
L 143.401558 124.203263 
L 146.71436 123.583729 
L 150.027161 123.075622 
L 153.339963 122.665543 
L 156.652764 122.340154 
L 159.965566 122.085261 
L 163.278367 121.888482 
L 166.591169 121.736579 
L 169.90397 121.615748 
L 173.216772 121.512878 
L 176.529573 121.414727 
L 179.842375 121.307177 
L 183.155176 121.175476 
L 186.467978 121.004662 
L 189.780779 120.780756 
L 193.093581 120.491274 
L 196.406382 120.124992 
L 199.719184 119.67228 
L 203.031985 119.127082 
L 206.344787 118.487667 
L 209.657588 117.755166 
L 212.97039 116.932327 
L 216.283191 116.022743 
L 219.595993 115.030761 
L 222.908794 113.961631 
L 226.221596 112.821175 
L 229.534397 111.615628 
L 232.847199 110.351734 
L 236.16 109.036695 
L 239.472801 107.6781 
L 242.785603 106.284085 
L 246.098404 104.86329 
L 249.411206 103.424688 
L 252.724007 101.977278 
L 256.036809 100.530132 
L 259.34961 99.092331 
L 262.662412 97.672729 
L 265.975213 96.279702 
L 269.288015 94.920818 
L 272.600816 93.602627 
L 275.913618 92.3305 
L 279.226419 91.108522 
L 282.539221 89.939488 
L 285.852022 88.824981 
L 289.164824 87.76553 
L 292.477625 86.760715 
L 295.790427 85.80933 
L 299.103228 84.909558 
L 302.41603 84.059299 
L 305.728831 83.256278 
L 309.041633 82.498194 
L 312.354434 81.782843 
L 315.667236 81.108276 
L 318.980037 80.472845 
L 322.292839 79.874968 
L 325.60564 79.313088 
L 328.918442 78.785703 
L 332.231243 78.291682 
L 335.544045 77.83047 
L 338.856846 77.40153 
L 342.169647 77.004207 
L 345.482449 76.637899 
L 348.79525 76.30216 
L 352.108052 75.996563 
L 355.420853 75.720568 
L 358.733655 75.473339 
L 362.046456 75.254022 
L 365.359258 75.062434 
L 368.672059 74.898537 
L 371.984861 74.762087 
L 375.297662 74.652123 
L 378.610464 74.567141 
L 381.923265 74.505121 
L 385.236067 74.463567 
L 388.548868 74.439542 
L 391.86167 74.429388 
L 395.174471 74.428483 
L 398.487273 74.431849 
L 398.487273 56.702934 
L 398.487273 56.702934 
L 395.174471 56.154474 
L 391.86167 55.609624 
L 388.548868 55.105501 
L 385.236067 54.665419 
L 381.923265 54.299875 
L 378.610464 54.011166 
L 375.297662 53.797358 
L 371.984861 53.654819 
L 368.672059 53.579622 
L 365.359258 53.568 
L 362.046456 53.61639 
L 358.733655 53.721588 
L 355.420853 53.880811 
L 352.108052 54.091691 
L 348.79525 54.352145 
L 345.482449 54.660393 
L 342.169647 55.014915 
L 338.856846 55.414496 
L 335.544045 55.8582 
L 332.231243 56.345315 
L 328.918442 56.875233 
L 325.60564 57.447457 
L 322.292839 58.061751 
L 318.980037 58.718032 
L 315.667236 59.416335 
L 312.354434 60.15679 
L 309.041633 60.939658 
L 305.728831 61.765306 
L 302.41603 62.634051 
L 299.103228 63.546048 
L 295.790427 64.501164 
L 292.477625 65.498847 
L 289.164824 66.537975 
L 285.852022 67.616742 
L 282.539221 68.732585 
L 279.226419 69.882128 
L 275.913618 71.061186 
L 272.600816 72.264792 
L 269.288015 73.487157 
L 265.975213 74.721639 
L 262.662412 75.960776 
L 259.34961 77.19631 
L 256.036809 78.41925 
L 252.724007 79.619913 
L 249.411206 80.787965 
L 246.098404 81.912383 
L 242.785603 82.981399 
L 239.472801 83.98237 
L 236.16 84.9016 
L 232.847199 85.724023 
L 229.534397 86.432704 
L 226.221596 87.008129 
L 222.908794 87.427697 
L 219.595993 87.665408 
L 216.283191 87.692279 
L 212.97039 87.477308 
L 209.657588 86.990803 
L 206.344787 86.212505 
L 203.031985 85.147069 
L 199.719184 83.844765 
L 196.406382 82.407587 
L 193.093581 80.957727 
L 189.780779 79.59205 
L 186.467978 78.365038 
L 183.155176 77.298283 
L 179.842375 76.395424 
L 176.529573 75.652512 
L 173.216772 75.063719 
L 169.90397 74.622826 
L 166.591169 74.323008 
L 163.278367 74.158613 
L 159.965566 74.12563 
L 156.652764 74.222762 
L 153.339963 74.451092 
L 150.027161 74.81288 
L 146.71436 75.311085 
L 143.401558 75.951117 
L 140.088757 76.742932 
L 136.775955 77.700163 
L 133.463154 78.839099 
L 130.150353 80.17918 
L 126.837551 81.743138 
L 123.52475 83.559724 
L 120.211948 85.666864 
L 116.899147 88.113757 
L 113.586345 90.962742 
L 110.273544 94.292334 
L 106.960742 98.200818 
L 103.647941 102.811749 
L 100.335139 108.280049 
L 97.022338 114.798293 
L 93.709536 122.601289 
L 90.396735 131.972706 
L 87.083933 143.264965 
L 83.771132 156.954686 
L 80.45833 173.772879 
L 77.145529 195.046425 
L 73.832727 223.765645 
z
" style="fill:#ff0000;fill-opacity:0.4;"/>
   </g>
   <g id="PolyCollection_2">
    <path clip-path="url(#p715813f7bb)" d="M 73.832727 225.297245 
L 73.832727 260.045616 
L 77.145529 232.51904 
L 80.45833 212.353085 
L 83.771132 196.569551 
L 87.083933 183.859558 
L 90.396735 173.514206 
L 93.709536 165.068388 
L 97.022338 158.163204 
L 100.335139 152.503741 
L 103.647941 147.842702 
L 106.960742 143.977826 
L 110.273544 140.747733 
L 113.586345 138.025911 
L 116.899147 135.713908 
L 120.211948 133.735035 
L 123.52475 132.030443 
L 126.837551 130.557045 
L 130.150353 129.284683 
L 133.463154 128.191851 
L 136.775955 127.261272 
L 140.088757 126.480072 
L 143.401558 125.838189 
L 146.71436 125.324098 
L 150.027161 124.924196 
L 153.339963 124.624991 
L 156.652764 124.413456 
L 159.965566 124.275832 
L 163.278367 124.19686 
L 166.591169 124.160842 
L 169.90397 124.152301 
L 173.216772 124.155399 
L 176.529573 124.153339 
L 179.842375 124.128007 
L 183.155176 124.061645 
L 186.467978 123.936397 
L 189.780779 123.734397 
L 193.093581 123.439083 
L 196.406382 123.037957 
L 199.719184 122.525513 
L 203.031985 121.902261 
L 206.344787 121.171469 
L 209.657588 120.337499 
L 212.97039 119.405971 
L 216.283191 118.383313 
L 219.595993 117.276445 
L 222.908794 116.09273 
L 226.221596 114.839686 
L 229.534397 113.524781 
L 232.847199 112.155542 
L 236.16 110.739646 
L 239.472801 109.284914 
L 242.785603 107.799334 
L 246.098404 106.291123 
L 249.411206 104.768801 
L 252.724007 103.240992 
L 256.036809 101.716284 
L 259.34961 100.203169 
L 262.662412 98.709962 
L 265.975213 97.244691 
L 269.288015 95.814721 
L 272.600816 94.426505 
L 275.913618 93.085439 
L 279.226419 91.795778 
L 282.539221 90.560545 
L 285.852022 89.381581 
L 289.164824 88.2597 
L 292.477625 87.194793 
L 295.790427 86.185923 
L 299.103228 85.231521 
L 302.41603 84.329658 
L 305.728831 83.478158 
L 309.041633 82.674731 
L 312.354434 81.917173 
L 315.667236 81.203448 
L 318.980037 80.53165 
L 322.292839 79.899984 
L 325.60564 79.306761 
L 328.918442 78.750484 
L 332.231243 78.229846 
L 335.544045 77.744144 
L 338.856846 77.293048 
L 342.169647 76.876278 
L 345.482449 76.493687 
L 348.79525 76.145079 
L 352.108052 75.830338 
L 355.420853 75.549294 
L 358.733655 75.301435 
L 362.046456 75.085894 
L 365.359258 74.902039 
L 368.672059 74.750058 
L 371.984861 74.63012 
L 375.297662 74.541772 
L 378.610464 74.483902 
L 381.923265 74.454874 
L 385.236067 74.452166 
L 388.548868 74.472169 
L 391.86167 74.510061 
L 395.174471 74.56027 
L 398.487273 74.617719 
L 398.487273 58.624219 
L 398.487273 58.624219 
L 395.174471 58.102456 
L 391.86167 57.530698 
L 388.548868 56.954615 
L 385.236067 56.416381 
L 381.923265 55.943393 
L 378.610464 55.548191 
L 375.297662 55.233634 
L 371.984861 54.997741 
L 368.672059 54.836763 
L 365.359258 54.746403 
L 362.046456 54.722698 
L 358.733655 54.76226 
L 355.420853 54.862053 
L 352.108052 55.019325 
L 348.79525 55.231604 
L 345.482449 55.496759 
L 342.169647 55.813037 
L 338.856846 56.179098 
L 335.544045 56.593895 
L 332.231243 57.05664 
L 328.918442 57.56673 
L 325.60564 58.12389 
L 322.292839 58.728096 
L 318.980037 59.379448 
L 315.667236 60.078176 
L 312.354434 60.824661 
L 309.041633 61.619431 
L 305.728831 62.463087 
L 302.41603 63.356125 
L 299.103228 64.298822 
L 295.790427 65.291086 
L 292.477625 66.332334 
L 289.164824 67.421381 
L 285.852022 68.556371 
L 282.539221 69.734754 
L 279.226419 70.953203 
L 275.913618 72.207652 
L 272.600816 73.493376 
L 269.288015 74.804982 
L 265.975213 76.136437 
L 262.662412 77.481046 
L 259.34961 78.831535 
L 256.036809 80.180105 
L 252.724007 81.518441 
L 249.411206 82.837701 
L 246.098404 84.128532 
L 242.785603 85.381041 
L 239.472801 86.584725 
L 236.16 87.72828 
L 232.847199 88.799286 
L 229.534397 89.783819 
L 226.221596 90.665868 
L 222.908794 91.427003 
L 219.595993 92.045703 
L 216.283191 92.496971 
L 212.97039 92.751937 
L 209.657588 92.777626 
L 206.344787 92.538102 
L 203.031985 91.999283 
L 199.719184 91.139711 
L 196.406382 89.971629 
L 193.093581 88.564684 
L 189.780779 87.043541 
L 186.467978 85.541959 
L 183.155176 84.155108 
L 179.842375 82.930845 
L 176.529573 81.885083 
L 173.216772 81.01851 
L 169.90397 80.32525 
L 166.591169 79.79606 
L 163.278367 79.421824 
L 159.965566 79.195818 
L 156.652764 79.114286 
L 153.339963 79.174414 
L 150.027161 79.376252 
L 146.71436 79.722105 
L 143.401558 80.217161 
L 140.088757 80.870464 
L 136.775955 81.69379 
L 133.463154 82.7019 
L 130.150353 83.912779 
L 126.837551 85.348316 
L 123.52475 87.037037 
L 120.211948 89.016938 
L 116.899147 91.337134 
L 113.586345 94.060167 
L 110.273544 97.264663 
L 106.960742 101.049155 
L 103.647941 105.537333 
L 100.335139 110.884358 
L 97.022338 117.282977 
L 93.709536 124.96706 
L 90.396735 134.219268 
L 87.083933 145.38924 
L 83.771132 158.949335 
L 80.45833 175.627694 
L 77.145529 196.746078 
L 73.832727 225.297245 
z
" style="fill:#0000ff;fill-opacity:0.4;"/>
   </g>
   <g id="PolyCollection_3">
    <path clip-path="url(#p715813f7bb)" d="M 73.832727 260.071981 
L 73.832727 295.488 
L 77.145529 267.12835 
L 80.45833 246.165899 
L 83.771132 229.642129 
L 87.083933 216.246581 
L 90.396735 205.246668 
L 93.709536 196.145851 
L 97.022338 188.557431 
L 100.335139 182.163938 
L 103.647941 176.708669 
L 106.960742 171.988339 
L 110.273544 167.843537 
L 113.586345 164.153824 
L 116.899147 160.827674 
L 120.211948 157.798126 
L 123.52475 155.019966 
L 126.837551 152.463941 
L 130.150353 150.111271 
L 133.463154 147.950539 
L 136.775955 145.973146 
L 140.088757 144.172817 
L 143.401558 142.547905 
L 146.71436 141.096498 
L 150.027161 139.823074 
L 153.339963 138.736041 
L 156.652764 137.832026 
L 159.965566 137.087935 
L 163.278367 136.460949 
L 166.591169 135.894379 
L 169.90397 135.327546 
L 173.216772 134.70654 
L 176.529573 133.990154 
L 179.842375 133.151276 
L 183.155176 132.177056 
L 186.467978 131.066194 
L 189.780779 129.825203 
L 193.093581 128.464463 
L 196.406382 126.996284 
L 199.719184 125.434504 
L 203.031985 123.793611 
L 206.344787 122.087633 
L 209.657588 120.329384 
L 212.97039 118.530379 
L 216.283191 116.701158 
L 219.595993 114.851886 
L 222.908794 112.993087 
L 226.221596 111.135448 
L 229.534397 109.290295 
L 232.847199 107.471052 
L 236.16 105.69449 
L 239.472801 103.982138 
L 242.785603 102.361387 
L 246.098404 100.864124 
L 249.411206 99.520508 
L 252.724007 98.347799 
L 256.036809 97.341393 
L 259.34961 96.477023 
L 262.662412 95.722107 
L 265.975213 95.046117 
L 269.288015 94.425009 
L 272.600816 93.841354 
L 275.913618 93.283193 
L 279.226419 92.742428 
L 282.539221 92.213591 
L 285.852022 91.693045 
L 289.164824 91.178349 
L 292.477625 90.66782 
L 295.790427 90.160301 
L 299.103228 89.655054 
L 302.41603 89.151621 
L 305.728831 88.649802 
L 309.041633 88.149801 
L 312.354434 87.652017 
L 315.667236 87.15699 
L 318.980037 86.665223 
L 322.292839 86.177138 
L 325.60564 85.693267 
L 328.918442 85.214866 
L 332.231243 84.743618 
L 335.544045 84.281337 
L 338.856846 83.830021 
L 342.169647 83.391823 
L 345.482449 82.968802 
L 348.79525 82.562521 
L 352.108052 82.17394 
L 355.420853 81.804328 
L 358.733655 81.455414 
L 362.046456 81.128798 
L 365.359258 80.825725 
L 368.672059 80.547047 
L 371.984861 80.293013 
L 375.297662 80.063241 
L 378.610464 79.856935 
L 381.923265 79.673172 
L 385.236067 79.511057 
L 388.548868 79.369831 
L 391.86167 79.249018 
L 395.174471 79.148293 
L 398.487273 79.067155 
L 398.487273 69.408723 
L 398.487273 69.408723 
L 395.174471 69.501184 
L 391.86167 69.52056 
L 388.548868 69.460849 
L 385.236067 69.316315 
L 381.923265 69.083333 
L 378.610464 68.763276 
L 375.297662 68.36638 
L 371.984861 67.91449 
L 368.672059 67.439744 
L 365.359258 66.977873 
L 362.046456 66.559285 
L 358.733655 66.2046 
L 355.420853 65.925123 
L 352.108052 65.725569 
L 348.79525 65.606393 
L 345.482449 65.56574 
L 342.169647 65.600942 
L 338.856846 65.709067 
L 335.544045 65.887519 
L 332.231243 66.134244 
L 328.918442 66.44787 
L 325.60564 66.827993 
L 322.292839 67.274919 
L 318.980037 67.789572 
L 315.667236 68.373399 
L 312.354434 69.028219 
L 309.041633 69.755941 
L 305.728831 70.55838 
L 302.41603 71.437073 
L 299.103228 72.393106 
L 295.790427 73.426875 
L 292.477625 74.537809 
L 289.164824 75.724163 
L 285.852022 76.982865 
L 282.539221 78.309346 
L 279.226419 79.697416 
L 275.913618 81.139187 
L 272.600816 82.624598 
L 269.288015 84.140832 
L 265.975213 85.6714 
L 262.662412 87.194893 
L 259.34961 88.683909 
L 256.036809 90.105474 
L 252.724007 91.42557 
L 249.411206 92.619476 
L 246.098404 93.683091 
L 242.785603 94.634906 
L 239.472801 95.506659 
L 236.16 96.33124 
L 232.847199 97.136269 
L 229.534397 97.942607 
L 226.221596 98.765196 
L 222.908794 99.614351 
L 219.595993 100.496888 
L 216.283191 101.417502 
L 212.97039 102.379805 
L 209.657588 103.386223 
L 206.344787 104.437438 
L 203.031985 105.532349 
L 199.719184 106.668472 
L 196.406382 107.843034 
L 193.093581 109.054215 
L 189.780779 110.300922 
L 186.467978 111.58094 
L 183.155176 112.889285 
L 179.842375 114.217953 
L 176.529573 115.555499 
L 173.216772 116.885507 
L 169.90397 118.185875 
L 166.591169 119.430011 
L 163.278367 120.590028 
L 159.965566 121.639167 
L 156.652764 122.55913 
L 153.339963 123.346274 
L 150.027161 124.01602 
L 146.71436 124.600765 
L 143.401558 125.145851 
L 140.088757 125.701877 
L 136.775955 126.313962 
L 133.463154 127.020163 
L 130.150353 127.855145 
L 126.837551 128.85263 
L 123.52475 130.049125 
L 120.211948 131.487572 
L 116.899147 133.221371 
L 113.586345 135.316679 
L 110.273544 137.856013 
L 106.960742 140.943146 
L 103.647941 144.709613 
L 100.335139 149.321844 
L 97.022338 154.986785 
L 93.709536 161.959808 
L 90.396735 170.556282 
L 87.083933 181.166172 
L 83.771132 194.29718 
L 80.45833 210.682313 
L 77.145529 231.620571 
L 73.832727 260.071981 
z
" style="fill:#00ffff;fill-opacity:0.4;"/>
   </g>
   <g id="matplotlib.axis_1">
    <g id="xtick_1">
     <g id="line2d_1">
      <path clip-path="url(#p715813f7bb)" d="M 70.519926 307.584 
L 70.519926 41.472 
" style="fill:none;stroke:#b0b0b0;stroke-linecap:square;stroke-width:0.8;"/>
     </g>
     <g id="line2d_2">
      <defs>
       <path d="M 0 0 
L 0 3.5 
" id="mc54e6e0ada" style="stroke:#000000;stroke-width:0.8;"/>
      </defs>
      <g>
       <use style="stroke:#000000;stroke-width:0.8;" x="70.519926" xlink:href="#mc54e6e0ada" y="307.584"/>
      </g>
     </g>
     <g id="text_1">
      <!-- 0.0 -->
      <defs>
       <path d="M 31.78125 66.40625 
Q 24.171875 66.40625 20.328125 58.90625 
Q 16.5 51.421875 16.5 36.375 
Q 16.5 21.390625 20.328125 13.890625 
Q 24.171875 6.390625 31.78125 6.390625 
Q 39.453125 6.390625 43.28125 13.890625 
Q 47.125 21.390625 47.125 36.375 
Q 47.125 51.421875 43.28125 58.90625 
Q 39.453125 66.40625 31.78125 66.40625 
z
M 31.78125 74.21875 
Q 44.046875 74.21875 50.515625 64.515625 
Q 56.984375 54.828125 56.984375 36.375 
Q 56.984375 17.96875 50.515625 8.265625 
Q 44.046875 -1.421875 31.78125 -1.421875 
Q 19.53125 -1.421875 13.0625 8.265625 
Q 6.59375 17.96875 6.59375 36.375 
Q 6.59375 54.828125 13.0625 64.515625 
Q 19.53125 74.21875 31.78125 74.21875 
z
" id="DejaVuSans-48"/>
       <path d="M 10.6875 12.40625 
L 21 12.40625 
L 21 0 
L 10.6875 0 
z
" id="DejaVuSans-46"/>
      </defs>
      <g transform="translate(62.568363 322.182437)scale(0.1 -0.1)">
       <use xlink:href="#DejaVuSans-48"/>
       <use x="63.623047" xlink:href="#DejaVuSans-46"/>
       <use x="95.410156" xlink:href="#DejaVuSans-48"/>
      </g>
     </g>
    </g>
    <g id="xtick_2">
     <g id="line2d_3">
      <path clip-path="url(#p715813f7bb)" d="M 136.775955 307.584 
L 136.775955 41.472 
" style="fill:none;stroke:#b0b0b0;stroke-linecap:square;stroke-width:0.8;"/>
     </g>
     <g id="line2d_4">
      <g>
       <use style="stroke:#000000;stroke-width:0.8;" x="136.775955" xlink:href="#mc54e6e0ada" y="307.584"/>
      </g>
     </g>
     <g id="text_2">
      <!-- 0.2 -->
      <defs>
       <path d="M 19.1875 8.296875 
L 53.609375 8.296875 
L 53.609375 0 
L 7.328125 0 
L 7.328125 8.296875 
Q 12.9375 14.109375 22.625 23.890625 
Q 32.328125 33.6875 34.8125 36.53125 
Q 39.546875 41.84375 41.421875 45.53125 
Q 43.3125 49.21875 43.3125 52.78125 
Q 43.3125 58.59375 39.234375 62.25 
Q 35.15625 65.921875 28.609375 65.921875 
Q 23.96875 65.921875 18.8125 64.3125 
Q 13.671875 62.703125 7.8125 59.421875 
L 7.8125 69.390625 
Q 13.765625 71.78125 18.9375 73 
Q 24.125 74.21875 28.421875 74.21875 
Q 39.75 74.21875 46.484375 68.546875 
Q 53.21875 62.890625 53.21875 53.421875 
Q 53.21875 48.921875 51.53125 44.890625 
Q 49.859375 40.875 45.40625 35.40625 
Q 44.1875 33.984375 37.640625 27.21875 
Q 31.109375 20.453125 19.1875 8.296875 
z
" id="DejaVuSans-50"/>
      </defs>
      <g transform="translate(128.824393 322.182437)scale(0.1 -0.1)">
       <use xlink:href="#DejaVuSans-48"/>
       <use x="63.623047" xlink:href="#DejaVuSans-46"/>
       <use x="95.410156" xlink:href="#DejaVuSans-50"/>
      </g>
     </g>
    </g>
    <g id="xtick_3">
     <g id="line2d_5">
      <path clip-path="url(#p715813f7bb)" d="M 203.031985 307.584 
L 203.031985 41.472 
" style="fill:none;stroke:#b0b0b0;stroke-linecap:square;stroke-width:0.8;"/>
     </g>
     <g id="line2d_6">
      <g>
       <use style="stroke:#000000;stroke-width:0.8;" x="203.031985" xlink:href="#mc54e6e0ada" y="307.584"/>
      </g>
     </g>
     <g id="text_3">
      <!-- 0.4 -->
      <defs>
       <path d="M 37.796875 64.3125 
L 12.890625 25.390625 
L 37.796875 25.390625 
z
M 35.203125 72.90625 
L 47.609375 72.90625 
L 47.609375 25.390625 
L 58.015625 25.390625 
L 58.015625 17.1875 
L 47.609375 17.1875 
L 47.609375 0 
L 37.796875 0 
L 37.796875 17.1875 
L 4.890625 17.1875 
L 4.890625 26.703125 
z
" id="DejaVuSans-52"/>
      </defs>
      <g transform="translate(195.080423 322.182437)scale(0.1 -0.1)">
       <use xlink:href="#DejaVuSans-48"/>
       <use x="63.623047" xlink:href="#DejaVuSans-46"/>
       <use x="95.410156" xlink:href="#DejaVuSans-52"/>
      </g>
     </g>
    </g>
    <g id="xtick_4">
     <g id="line2d_7">
      <path clip-path="url(#p715813f7bb)" d="M 269.288015 307.584 
L 269.288015 41.472 
" style="fill:none;stroke:#b0b0b0;stroke-linecap:square;stroke-width:0.8;"/>
     </g>
     <g id="line2d_8">
      <g>
       <use style="stroke:#000000;stroke-width:0.8;" x="269.288015" xlink:href="#mc54e6e0ada" y="307.584"/>
      </g>
     </g>
     <g id="text_4">
      <!-- 0.6 -->
      <defs>
       <path d="M 33.015625 40.375 
Q 26.375 40.375 22.484375 35.828125 
Q 18.609375 31.296875 18.609375 23.390625 
Q 18.609375 15.53125 22.484375 10.953125 
Q 26.375 6.390625 33.015625 6.390625 
Q 39.65625 6.390625 43.53125 10.953125 
Q 47.40625 15.53125 47.40625 23.390625 
Q 47.40625 31.296875 43.53125 35.828125 
Q 39.65625 40.375 33.015625 40.375 
z
M 52.59375 71.296875 
L 52.59375 62.3125 
Q 48.875 64.0625 45.09375 64.984375 
Q 41.3125 65.921875 37.59375 65.921875 
Q 27.828125 65.921875 22.671875 59.328125 
Q 17.53125 52.734375 16.796875 39.40625 
Q 19.671875 43.65625 24.015625 45.921875 
Q 28.375 48.1875 33.59375 48.1875 
Q 44.578125 48.1875 50.953125 41.515625 
Q 57.328125 34.859375 57.328125 23.390625 
Q 57.328125 12.15625 50.6875 5.359375 
Q 44.046875 -1.421875 33.015625 -1.421875 
Q 20.359375 -1.421875 13.671875 8.265625 
Q 6.984375 17.96875 6.984375 36.375 
Q 6.984375 53.65625 15.1875 63.9375 
Q 23.390625 74.21875 37.203125 74.21875 
Q 40.921875 74.21875 44.703125 73.484375 
Q 48.484375 72.75 52.59375 71.296875 
z
" id="DejaVuSans-54"/>
      </defs>
      <g transform="translate(261.336452 322.182437)scale(0.1 -0.1)">
       <use xlink:href="#DejaVuSans-48"/>
       <use x="63.623047" xlink:href="#DejaVuSans-46"/>
       <use x="95.410156" xlink:href="#DejaVuSans-54"/>
      </g>
     </g>
    </g>
    <g id="xtick_5">
     <g id="line2d_9">
      <path clip-path="url(#p715813f7bb)" d="M 335.544045 307.584 
L 335.544045 41.472 
" style="fill:none;stroke:#b0b0b0;stroke-linecap:square;stroke-width:0.8;"/>
     </g>
     <g id="line2d_10">
      <g>
       <use style="stroke:#000000;stroke-width:0.8;" x="335.544045" xlink:href="#mc54e6e0ada" y="307.584"/>
      </g>
     </g>
     <g id="text_5">
      <!-- 0.8 -->
      <defs>
       <path d="M 31.78125 34.625 
Q 24.75 34.625 20.71875 30.859375 
Q 16.703125 27.09375 16.703125 20.515625 
Q 16.703125 13.921875 20.71875 10.15625 
Q 24.75 6.390625 31.78125 6.390625 
Q 38.8125 6.390625 42.859375 10.171875 
Q 46.921875 13.96875 46.921875 20.515625 
Q 46.921875 27.09375 42.890625 30.859375 
Q 38.875 34.625 31.78125 34.625 
z
M 21.921875 38.8125 
Q 15.578125 40.375 12.03125 44.71875 
Q 8.5 49.078125 8.5 55.328125 
Q 8.5 64.0625 14.71875 69.140625 
Q 20.953125 74.21875 31.78125 74.21875 
Q 42.671875 74.21875 48.875 69.140625 
Q 55.078125 64.0625 55.078125 55.328125 
Q 55.078125 49.078125 51.53125 44.71875 
Q 48 40.375 41.703125 38.8125 
Q 48.828125 37.15625 52.796875 32.3125 
Q 56.78125 27.484375 56.78125 20.515625 
Q 56.78125 9.90625 50.3125 4.234375 
Q 43.84375 -1.421875 31.78125 -1.421875 
Q 19.734375 -1.421875 13.25 4.234375 
Q 6.78125 9.90625 6.78125 20.515625 
Q 6.78125 27.484375 10.78125 32.3125 
Q 14.796875 37.15625 21.921875 38.8125 
z
M 18.3125 54.390625 
Q 18.3125 48.734375 21.84375 45.5625 
Q 25.390625 42.390625 31.78125 42.390625 
Q 38.140625 42.390625 41.71875 45.5625 
Q 45.3125 48.734375 45.3125 54.390625 
Q 45.3125 60.0625 41.71875 63.234375 
Q 38.140625 66.40625 31.78125 66.40625 
Q 25.390625 66.40625 21.84375 63.234375 
Q 18.3125 60.0625 18.3125 54.390625 
z
" id="DejaVuSans-56"/>
      </defs>
      <g transform="translate(327.592482 322.182437)scale(0.1 -0.1)">
       <use xlink:href="#DejaVuSans-48"/>
       <use x="63.623047" xlink:href="#DejaVuSans-46"/>
       <use x="95.410156" xlink:href="#DejaVuSans-56"/>
      </g>
     </g>
    </g>
    <g id="xtick_6">
     <g id="line2d_11">
      <path clip-path="url(#p715813f7bb)" d="M 401.800074 307.584 
L 401.800074 41.472 
" style="fill:none;stroke:#b0b0b0;stroke-linecap:square;stroke-width:0.8;"/>
     </g>
     <g id="line2d_12">
      <g>
       <use style="stroke:#000000;stroke-width:0.8;" x="401.800074" xlink:href="#mc54e6e0ada" y="307.584"/>
      </g>
     </g>
     <g id="text_6">
      <!-- 1.0 -->
      <defs>
       <path d="M 12.40625 8.296875 
L 28.515625 8.296875 
L 28.515625 63.921875 
L 10.984375 60.40625 
L 10.984375 69.390625 
L 28.421875 72.90625 
L 38.28125 72.90625 
L 38.28125 8.296875 
L 54.390625 8.296875 
L 54.390625 0 
L 12.40625 0 
z
" id="DejaVuSans-49"/>
      </defs>
      <g transform="translate(393.848512 322.182437)scale(0.1 -0.1)">
       <use xlink:href="#DejaVuSans-49"/>
       <use x="63.623047" xlink:href="#DejaVuSans-46"/>
       <use x="95.410156" xlink:href="#DejaVuSans-48"/>
      </g>
     </g>
    </g>
    <g id="text_7">
     <!-- $\mathrm{Time \ (seconds)}$ -->
     <defs>
      <path d="M -0.296875 72.90625 
L 61.375 72.90625 
L 61.375 64.59375 
L 35.5 64.59375 
L 35.5 0 
L 25.59375 0 
L 25.59375 64.59375 
L -0.296875 64.59375 
z
" id="DejaVuSans-84"/>
      <path d="M 9.421875 54.6875 
L 18.40625 54.6875 
L 18.40625 0 
L 9.421875 0 
z
M 9.421875 75.984375 
L 18.40625 75.984375 
L 18.40625 64.59375 
L 9.421875 64.59375 
z
" id="DejaVuSans-105"/>
      <path d="M 52 44.1875 
Q 55.375 50.25 60.0625 53.125 
Q 64.75 56 71.09375 56 
Q 79.640625 56 84.28125 50.015625 
Q 88.921875 44.046875 88.921875 33.015625 
L 88.921875 0 
L 79.890625 0 
L 79.890625 32.71875 
Q 79.890625 40.578125 77.09375 44.375 
Q 74.3125 48.1875 68.609375 48.1875 
Q 61.625 48.1875 57.5625 43.546875 
Q 53.515625 38.921875 53.515625 30.90625 
L 53.515625 0 
L 44.484375 0 
L 44.484375 32.71875 
Q 44.484375 40.625 41.703125 44.40625 
Q 38.921875 48.1875 33.109375 48.1875 
Q 26.21875 48.1875 22.15625 43.53125 
Q 18.109375 38.875 18.109375 30.90625 
L 18.109375 0 
L 9.078125 0 
L 9.078125 54.6875 
L 18.109375 54.6875 
L 18.109375 46.1875 
Q 21.1875 51.21875 25.484375 53.609375 
Q 29.78125 56 35.6875 56 
Q 41.65625 56 45.828125 52.96875 
Q 50 49.953125 52 44.1875 
z
" id="DejaVuSans-109"/>
      <path d="M 56.203125 29.59375 
L 56.203125 25.203125 
L 14.890625 25.203125 
Q 15.484375 15.921875 20.484375 11.0625 
Q 25.484375 6.203125 34.421875 6.203125 
Q 39.59375 6.203125 44.453125 7.46875 
Q 49.3125 8.734375 54.109375 11.28125 
L 54.109375 2.78125 
Q 49.265625 0.734375 44.1875 -0.34375 
Q 39.109375 -1.421875 33.890625 -1.421875 
Q 20.796875 -1.421875 13.15625 6.1875 
Q 5.515625 13.8125 5.515625 26.8125 
Q 5.515625 40.234375 12.765625 48.109375 
Q 20.015625 56 32.328125 56 
Q 43.359375 56 49.78125 48.890625 
Q 56.203125 41.796875 56.203125 29.59375 
z
M 47.21875 32.234375 
Q 47.125 39.59375 43.09375 43.984375 
Q 39.0625 48.390625 32.421875 48.390625 
Q 24.90625 48.390625 20.390625 44.140625 
Q 15.875 39.890625 15.1875 32.171875 
z
" id="DejaVuSans-101"/>
      <path d="M 31 75.875 
Q 24.46875 64.65625 21.28125 53.65625 
Q 18.109375 42.671875 18.109375 31.390625 
Q 18.109375 20.125 21.3125 9.0625 
Q 24.515625 -2 31 -13.1875 
L 23.1875 -13.1875 
Q 15.875 -1.703125 12.234375 9.375 
Q 8.59375 20.453125 8.59375 31.390625 
Q 8.59375 42.28125 12.203125 53.3125 
Q 15.828125 64.359375 23.1875 75.875 
z
" id="DejaVuSans-40"/>
      <path d="M 44.28125 53.078125 
L 44.28125 44.578125 
Q 40.484375 46.53125 36.375 47.5 
Q 32.28125 48.484375 27.875 48.484375 
Q 21.1875 48.484375 17.84375 46.4375 
Q 14.5 44.390625 14.5 40.28125 
Q 14.5 37.15625 16.890625 35.375 
Q 19.28125 33.59375 26.515625 31.984375 
L 29.59375 31.296875 
Q 39.15625 29.25 43.1875 25.515625 
Q 47.21875 21.78125 47.21875 15.09375 
Q 47.21875 7.46875 41.1875 3.015625 
Q 35.15625 -1.421875 24.609375 -1.421875 
Q 20.21875 -1.421875 15.453125 -0.5625 
Q 10.6875 0.296875 5.421875 2 
L 5.421875 11.28125 
Q 10.40625 8.6875 15.234375 7.390625 
Q 20.0625 6.109375 24.8125 6.109375 
Q 31.15625 6.109375 34.5625 8.28125 
Q 37.984375 10.453125 37.984375 14.40625 
Q 37.984375 18.0625 35.515625 20.015625 
Q 33.0625 21.96875 24.703125 23.78125 
L 21.578125 24.515625 
Q 13.234375 26.265625 9.515625 29.90625 
Q 5.8125 33.546875 5.8125 39.890625 
Q 5.8125 47.609375 11.28125 51.796875 
Q 16.75 56 26.8125 56 
Q 31.78125 56 36.171875 55.265625 
Q 40.578125 54.546875 44.28125 53.078125 
z
" id="DejaVuSans-115"/>
      <path d="M 48.78125 52.59375 
L 48.78125 44.1875 
Q 44.96875 46.296875 41.140625 47.34375 
Q 37.3125 48.390625 33.40625 48.390625 
Q 24.65625 48.390625 19.8125 42.84375 
Q 14.984375 37.3125 14.984375 27.296875 
Q 14.984375 17.28125 19.8125 11.734375 
Q 24.65625 6.203125 33.40625 6.203125 
Q 37.3125 6.203125 41.140625 7.25 
Q 44.96875 8.296875 48.78125 10.40625 
L 48.78125 2.09375 
Q 45.015625 0.34375 40.984375 -0.53125 
Q 36.96875 -1.421875 32.421875 -1.421875 
Q 20.0625 -1.421875 12.78125 6.34375 
Q 5.515625 14.109375 5.515625 27.296875 
Q 5.515625 40.671875 12.859375 48.328125 
Q 20.21875 56 33.015625 56 
Q 37.15625 56 41.109375 55.140625 
Q 45.0625 54.296875 48.78125 52.59375 
z
" id="DejaVuSans-99"/>
      <path d="M 30.609375 48.390625 
Q 23.390625 48.390625 19.1875 42.75 
Q 14.984375 37.109375 14.984375 27.296875 
Q 14.984375 17.484375 19.15625 11.84375 
Q 23.34375 6.203125 30.609375 6.203125 
Q 37.796875 6.203125 41.984375 11.859375 
Q 46.1875 17.53125 46.1875 27.296875 
Q 46.1875 37.015625 41.984375 42.703125 
Q 37.796875 48.390625 30.609375 48.390625 
z
M 30.609375 56 
Q 42.328125 56 49.015625 48.375 
Q 55.71875 40.765625 55.71875 27.296875 
Q 55.71875 13.875 49.015625 6.21875 
Q 42.328125 -1.421875 30.609375 -1.421875 
Q 18.84375 -1.421875 12.171875 6.21875 
Q 5.515625 13.875 5.515625 27.296875 
Q 5.515625 40.765625 12.171875 48.375 
Q 18.84375 56 30.609375 56 
z
" id="DejaVuSans-111"/>
      <path d="M 54.890625 33.015625 
L 54.890625 0 
L 45.90625 0 
L 45.90625 32.71875 
Q 45.90625 40.484375 42.875 44.328125 
Q 39.84375 48.1875 33.796875 48.1875 
Q 26.515625 48.1875 22.3125 43.546875 
Q 18.109375 38.921875 18.109375 30.90625 
L 18.109375 0 
L 9.078125 0 
L 9.078125 54.6875 
L 18.109375 54.6875 
L 18.109375 46.1875 
Q 21.34375 51.125 25.703125 53.5625 
Q 30.078125 56 35.796875 56 
Q 45.21875 56 50.046875 50.171875 
Q 54.890625 44.34375 54.890625 33.015625 
z
" id="DejaVuSans-110"/>
      <path d="M 45.40625 46.390625 
L 45.40625 75.984375 
L 54.390625 75.984375 
L 54.390625 0 
L 45.40625 0 
L 45.40625 8.203125 
Q 42.578125 3.328125 38.25 0.953125 
Q 33.9375 -1.421875 27.875 -1.421875 
Q 17.96875 -1.421875 11.734375 6.484375 
Q 5.515625 14.40625 5.515625 27.296875 
Q 5.515625 40.1875 11.734375 48.09375 
Q 17.96875 56 27.875 56 
Q 33.9375 56 38.25 53.625 
Q 42.578125 51.265625 45.40625 46.390625 
z
M 14.796875 27.296875 
Q 14.796875 17.390625 18.875 11.75 
Q 22.953125 6.109375 30.078125 6.109375 
Q 37.203125 6.109375 41.296875 11.75 
Q 45.40625 17.390625 45.40625 27.296875 
Q 45.40625 37.203125 41.296875 42.84375 
Q 37.203125 48.484375 30.078125 48.484375 
Q 22.953125 48.484375 18.875 42.84375 
Q 14.796875 37.203125 14.796875 27.296875 
z
" id="DejaVuSans-100"/>
      <path d="M 8.015625 75.875 
L 15.828125 75.875 
Q 23.140625 64.359375 26.78125 53.3125 
Q 30.421875 42.28125 30.421875 31.390625 
Q 30.421875 20.453125 26.78125 9.375 
Q 23.140625 -1.703125 15.828125 -13.1875 
L 8.015625 -13.1875 
Q 14.5 -2 17.703125 9.0625 
Q 20.90625 20.125 20.90625 31.390625 
Q 20.90625 42.671875 17.703125 53.65625 
Q 14.5 64.65625 8.015625 75.875 
z
" id="DejaVuSans-41"/>
     </defs>
     <g transform="translate(197.76 335.860562)scale(0.1 -0.1)">
      <use transform="translate(0 0.015625)" xlink:href="#DejaVuSans-84"/>
      <use transform="translate(61.083984 0.015625)" xlink:href="#DejaVuSans-105"/>
      <use transform="translate(88.867188 0.015625)" xlink:href="#DejaVuSans-109"/>
      <use transform="translate(186.279297 0.015625)" xlink:href="#DejaVuSans-101"/>
      <use transform="translate(280.273113 0.015625)" xlink:href="#DejaVuSans-40"/>
      <use transform="translate(319.286785 0.015625)" xlink:href="#DejaVuSans-115"/>
      <use transform="translate(371.386394 0.015625)" xlink:href="#DejaVuSans-101"/>
      <use transform="translate(432.909832 0.015625)" xlink:href="#DejaVuSans-99"/>
      <use transform="translate(487.8903 0.015625)" xlink:href="#DejaVuSans-111"/>
      <use transform="translate(549.071941 0.015625)" xlink:href="#DejaVuSans-110"/>
      <use transform="translate(612.450847 0.015625)" xlink:href="#DejaVuSans-100"/>
      <use transform="translate(675.92741 0.015625)" xlink:href="#DejaVuSans-115"/>
      <use transform="translate(728.027019 0.015625)" xlink:href="#DejaVuSans-41"/>
     </g>
    </g>
   </g>
   <g id="matplotlib.axis_2">
    <g id="ytick_1">
     <g id="line2d_13">
      <path clip-path="url(#p715813f7bb)" d="M 57.6 254.153852 
L 414.72 254.153852 
" style="fill:none;stroke:#b0b0b0;stroke-linecap:square;stroke-width:0.8;"/>
     </g>
     <g id="line2d_14">
      <defs>
       <path d="M 0 0 
L -3.5 0 
" id="m90d60b6011" style="stroke:#000000;stroke-width:0.8;"/>
      </defs>
      <g>
       <use style="stroke:#000000;stroke-width:0.8;" x="57.6" xlink:href="#m90d60b6011" y="254.153852"/>
      </g>
     </g>
     <g id="text_8">
      <!-- $\mathdefault{10^{-2}}$ -->
      <defs>
       <path d="M 10.59375 35.5 
L 73.1875 35.5 
L 73.1875 27.203125 
L 10.59375 27.203125 
z
" id="DejaVuSans-8722"/>
      </defs>
      <g transform="translate(27.1 257.95307)scale(0.1 -0.1)">
       <use transform="translate(0 0.765625)" xlink:href="#DejaVuSans-49"/>
       <use transform="translate(63.623047 0.765625)" xlink:href="#DejaVuSans-48"/>
       <use transform="translate(128.203125 39.046875)scale(0.7)" xlink:href="#DejaVuSans-8722"/>
       <use transform="translate(186.855469 39.046875)scale(0.7)" xlink:href="#DejaVuSans-50"/>
      </g>
     </g>
    </g>
    <g id="ytick_2">
     <g id="line2d_15">
      <path clip-path="url(#p715813f7bb)" d="M 57.6 85.625391 
L 414.72 85.625391 
" style="fill:none;stroke:#b0b0b0;stroke-linecap:square;stroke-width:0.8;"/>
     </g>
     <g id="line2d_16">
      <g>
       <use style="stroke:#000000;stroke-width:0.8;" x="57.6" xlink:href="#m90d60b6011" y="85.625391"/>
      </g>
     </g>
     <g id="text_9">
      <!-- $\mathdefault{10^{-1}}$ -->
      <g transform="translate(27.1 89.42461)scale(0.1 -0.1)">
       <use transform="translate(0 0.684375)" xlink:href="#DejaVuSans-49"/>
       <use transform="translate(63.623047 0.684375)" xlink:href="#DejaVuSans-48"/>
       <use transform="translate(128.203125 38.965625)scale(0.7)" xlink:href="#DejaVuSans-8722"/>
       <use transform="translate(186.855469 38.965625)scale(0.7)" xlink:href="#DejaVuSans-49"/>
      </g>
     </g>
    </g>
    <g id="ytick_3">
     <g id="line2d_17">
      <defs>
       <path d="M 0 0 
L -2 0 
" id="meb643e2de5" style="stroke:#000000;stroke-width:0.6;"/>
      </defs>
      <g>
       <use style="stroke:#000000;stroke-width:0.6;" x="57.6" xlink:href="#meb643e2de5" y="304.885973"/>
      </g>
     </g>
    </g>
    <g id="ytick_4">
     <g id="line2d_18">
      <g>
       <use style="stroke:#000000;stroke-width:0.6;" x="57.6" xlink:href="#meb643e2de5" y="291.54168"/>
      </g>
     </g>
    </g>
    <g id="ytick_5">
     <g id="line2d_19">
      <g>
       <use style="stroke:#000000;stroke-width:0.6;" x="57.6" xlink:href="#meb643e2de5" y="280.259241"/>
      </g>
     </g>
    </g>
    <g id="ytick_6">
     <g id="line2d_20">
      <g>
       <use style="stroke:#000000;stroke-width:0.6;" x="57.6" xlink:href="#meb643e2de5" y="270.485947"/>
      </g>
     </g>
    </g>
    <g id="ytick_7">
     <g id="line2d_21">
      <g>
       <use style="stroke:#000000;stroke-width:0.6;" x="57.6" xlink:href="#meb643e2de5" y="261.865291"/>
      </g>
     </g>
    </g>
    <g id="ytick_8">
     <g id="line2d_22">
      <g>
       <use style="stroke:#000000;stroke-width:0.6;" x="57.6" xlink:href="#meb643e2de5" y="203.42173"/>
      </g>
     </g>
    </g>
    <g id="ytick_9">
     <g id="line2d_23">
      <g>
       <use style="stroke:#000000;stroke-width:0.6;" x="57.6" xlink:href="#meb643e2de5" y="173.745341"/>
      </g>
     </g>
    </g>
    <g id="ytick_10">
     <g id="line2d_24">
      <g>
       <use style="stroke:#000000;stroke-width:0.6;" x="57.6" xlink:href="#meb643e2de5" y="152.689608"/>
      </g>
     </g>
    </g>
    <g id="ytick_11">
     <g id="line2d_25">
      <g>
       <use style="stroke:#000000;stroke-width:0.6;" x="57.6" xlink:href="#meb643e2de5" y="136.357513"/>
      </g>
     </g>
    </g>
    <g id="ytick_12">
     <g id="line2d_26">
      <g>
       <use style="stroke:#000000;stroke-width:0.6;" x="57.6" xlink:href="#meb643e2de5" y="123.013219"/>
      </g>
     </g>
    </g>
    <g id="ytick_13">
     <g id="line2d_27">
      <g>
       <use style="stroke:#000000;stroke-width:0.6;" x="57.6" xlink:href="#meb643e2de5" y="111.73078"/>
      </g>
     </g>
    </g>
    <g id="ytick_14">
     <g id="line2d_28">
      <g>
       <use style="stroke:#000000;stroke-width:0.6;" x="57.6" xlink:href="#meb643e2de5" y="101.957486"/>
      </g>
     </g>
    </g>
    <g id="ytick_15">
     <g id="line2d_29">
      <g>
       <use style="stroke:#000000;stroke-width:0.6;" x="57.6" xlink:href="#meb643e2de5" y="93.33683"/>
      </g>
     </g>
    </g>
    <g id="text_10">
     <!-- $\mathrm{Relative \ error}$ ($N_{\mathrm{train}}=5$) -->
     <defs>
      <path d="M 44.390625 34.1875 
Q 47.5625 33.109375 50.5625 29.59375 
Q 53.5625 26.078125 56.59375 19.921875 
L 66.609375 0 
L 56 0 
L 46.6875 18.703125 
Q 43.0625 26.03125 39.671875 28.421875 
Q 36.28125 30.8125 30.421875 30.8125 
L 19.671875 30.8125 
L 19.671875 0 
L 9.8125 0 
L 9.8125 72.90625 
L 32.078125 72.90625 
Q 44.578125 72.90625 50.734375 67.671875 
Q 56.890625 62.453125 56.890625 51.90625 
Q 56.890625 45.015625 53.6875 40.46875 
Q 50.484375 35.9375 44.390625 34.1875 
z
M 19.671875 64.796875 
L 19.671875 38.921875 
L 32.078125 38.921875 
Q 39.203125 38.921875 42.84375 42.21875 
Q 46.484375 45.515625 46.484375 51.90625 
Q 46.484375 58.296875 42.84375 61.546875 
Q 39.203125 64.796875 32.078125 64.796875 
z
" id="DejaVuSans-82"/>
      <path d="M 9.421875 75.984375 
L 18.40625 75.984375 
L 18.40625 0 
L 9.421875 0 
z
" id="DejaVuSans-108"/>
      <path d="M 34.28125 27.484375 
Q 23.390625 27.484375 19.1875 25 
Q 14.984375 22.515625 14.984375 16.5 
Q 14.984375 11.71875 18.140625 8.90625 
Q 21.296875 6.109375 26.703125 6.109375 
Q 34.1875 6.109375 38.703125 11.40625 
Q 43.21875 16.703125 43.21875 25.484375 
L 43.21875 27.484375 
z
M 52.203125 31.203125 
L 52.203125 0 
L 43.21875 0 
L 43.21875 8.296875 
Q 40.140625 3.328125 35.546875 0.953125 
Q 30.953125 -1.421875 24.3125 -1.421875 
Q 15.921875 -1.421875 10.953125 3.296875 
Q 6 8.015625 6 15.921875 
Q 6 25.140625 12.171875 29.828125 
Q 18.359375 34.515625 30.609375 34.515625 
L 43.21875 34.515625 
L 43.21875 35.40625 
Q 43.21875 41.609375 39.140625 45 
Q 35.0625 48.390625 27.6875 48.390625 
Q 23 48.390625 18.546875 47.265625 
Q 14.109375 46.140625 10.015625 43.890625 
L 10.015625 52.203125 
Q 14.9375 54.109375 19.578125 55.046875 
Q 24.21875 56 28.609375 56 
Q 40.484375 56 46.34375 49.84375 
Q 52.203125 43.703125 52.203125 31.203125 
z
" id="DejaVuSans-97"/>
      <path d="M 18.3125 70.21875 
L 18.3125 54.6875 
L 36.8125 54.6875 
L 36.8125 47.703125 
L 18.3125 47.703125 
L 18.3125 18.015625 
Q 18.3125 11.328125 20.140625 9.421875 
Q 21.96875 7.515625 27.59375 7.515625 
L 36.8125 7.515625 
L 36.8125 0 
L 27.59375 0 
Q 17.1875 0 13.234375 3.875 
Q 9.28125 7.765625 9.28125 18.015625 
L 9.28125 47.703125 
L 2.6875 47.703125 
L 2.6875 54.6875 
L 9.28125 54.6875 
L 9.28125 70.21875 
z
" id="DejaVuSans-116"/>
      <path d="M 2.984375 54.6875 
L 12.5 54.6875 
L 29.59375 8.796875 
L 46.6875 54.6875 
L 56.203125 54.6875 
L 35.6875 0 
L 23.484375 0 
z
" id="DejaVuSans-118"/>
      <path d="M 41.109375 46.296875 
Q 39.59375 47.171875 37.8125 47.578125 
Q 36.03125 48 33.890625 48 
Q 26.265625 48 22.1875 43.046875 
Q 18.109375 38.09375 18.109375 28.8125 
L 18.109375 0 
L 9.078125 0 
L 9.078125 54.6875 
L 18.109375 54.6875 
L 18.109375 46.1875 
Q 20.953125 51.171875 25.484375 53.578125 
Q 30.03125 56 36.53125 56 
Q 37.453125 56 38.578125 55.875 
Q 39.703125 55.765625 41.0625 55.515625 
z
" id="DejaVuSans-114"/>
      <path id="DejaVuSans-32"/>
      <path d="M 16.890625 72.90625 
L 30.171875 72.90625 
L 50.296875 10.40625 
L 62.5 72.90625 
L 72.125 72.90625 
L 57.90625 0 
L 44.578125 0 
L 24.515625 62.890625 
L 12.3125 0 
L 2.6875 0 
z
" id="DejaVuSans-Oblique-78"/>
      <path d="M 10.59375 45.40625 
L 73.1875 45.40625 
L 73.1875 37.203125 
L 10.59375 37.203125 
z
M 10.59375 25.484375 
L 73.1875 25.484375 
L 73.1875 17.1875 
L 10.59375 17.1875 
z
" id="DejaVuSans-61"/>
      <path d="M 10.796875 72.90625 
L 49.515625 72.90625 
L 49.515625 64.59375 
L 19.828125 64.59375 
L 19.828125 46.734375 
Q 21.96875 47.46875 24.109375 47.828125 
Q 26.265625 48.1875 28.421875 48.1875 
Q 40.625 48.1875 47.75 41.5 
Q 54.890625 34.8125 54.890625 23.390625 
Q 54.890625 11.625 47.5625 5.09375 
Q 40.234375 -1.421875 26.90625 -1.421875 
Q 22.3125 -1.421875 17.546875 -0.640625 
Q 12.796875 0.140625 7.71875 1.703125 
L 7.71875 11.625 
Q 12.109375 9.234375 16.796875 8.0625 
Q 21.484375 6.890625 26.703125 6.890625 
Q 35.15625 6.890625 40.078125 11.328125 
Q 45.015625 15.765625 45.015625 23.390625 
Q 45.015625 31 40.078125 35.4375 
Q 35.15625 39.890625 26.703125 39.890625 
Q 22.75 39.890625 18.8125 39.015625 
Q 14.890625 38.140625 10.796875 36.28125 
z
" id="DejaVuSans-53"/>
     </defs>
     <g transform="translate(21.020312 235.678)rotate(-90)scale(0.1 -0.1)">
      <use transform="translate(0 0.015625)" xlink:href="#DejaVuSans-82"/>
      <use transform="translate(69.482422 0.015625)" xlink:href="#DejaVuSans-101"/>
      <use transform="translate(131.005859 0.015625)" xlink:href="#DejaVuSans-108"/>
      <use transform="translate(158.789062 0.015625)" xlink:href="#DejaVuSans-97"/>
      <use transform="translate(220.068359 0.015625)" xlink:href="#DejaVuSans-116"/>
      <use transform="translate(259.277344 0.015625)" xlink:href="#DejaVuSans-105"/>
      <use transform="translate(287.060547 0.015625)" xlink:href="#DejaVuSans-118"/>
      <use transform="translate(346.240234 0.015625)" xlink:href="#DejaVuSans-101"/>
      <use transform="translate(440.23405 0.015625)" xlink:href="#DejaVuSans-101"/>
      <use transform="translate(501.757488 0.015625)" xlink:href="#DejaVuSans-114"/>
      <use transform="translate(542.870769 0.015625)" xlink:href="#DejaVuSans-114"/>
      <use transform="translate(583.98405 0.015625)" xlink:href="#DejaVuSans-111"/>
      <use transform="translate(645.165691 0.015625)" xlink:href="#DejaVuSans-114"/>
      <use transform="translate(686.278972 0.015625)" xlink:href="#DejaVuSans-32"/>
      <use transform="translate(718.066082 0.015625)" xlink:href="#DejaVuSans-40"/>
      <use transform="translate(757.079753 0.015625)" xlink:href="#DejaVuSans-Oblique-78"/>
      <use transform="translate(831.884441 -16.390625)scale(0.7)" xlink:href="#DejaVuSans-116"/>
      <use transform="translate(859.33073 -16.390625)scale(0.7)" xlink:href="#DejaVuSans-114"/>
      <use transform="translate(888.110027 -16.390625)scale(0.7)" xlink:href="#DejaVuSans-97"/>
      <use transform="translate(931.005535 -16.390625)scale(0.7)" xlink:href="#DejaVuSans-105"/>
      <use transform="translate(950.453777 -16.390625)scale(0.7)" xlink:href="#DejaVuSans-110"/>
      <use transform="translate(1017.035808 0.015625)" xlink:href="#DejaVuSans-61"/>
      <use transform="translate(1120.307292 0.015625)" xlink:href="#DejaVuSans-53"/>
      <use transform="translate(1183.930339 0.015625)" xlink:href="#DejaVuSans-41"/>
     </g>
    </g>
   </g>
   <g id="line2d_30">
    <path clip-path="url(#p715813f7bb)" d="M 73.832724 239.953665 
L 77.145522 211.660616 
L 80.458321 190.774688 
L 83.771119 174.306482 
L 87.083917 160.936764 
L 90.396716 149.945159 
L 93.709554 140.860548 
L 97.022352 133.330638 
L 100.33515 127.069099 
L 103.647949 121.838063 
L 106.960747 117.442638 
L 110.273545 113.726038 
L 113.586344 110.563786 
L 116.899142 107.857743 
L 120.21194 105.53028 
L 123.524738 103.52038 
L 126.837537 101.781331 
L 130.150375 100.278189 
L 133.463173 98.984682 
L 136.775971 97.880049 
L 140.08877 96.947042 
L 143.401568 96.170816 
L 146.714366 95.537777 
L 150.027165 95.036181 
L 153.339963 94.657945 
L 156.652761 94.39649 
L 159.96556 94.245475 
L 163.278358 94.199852 
L 166.591156 94.255763 
L 169.903955 94.410815 
L 173.216753 94.663775 
L 176.529551 95.01384 
L 179.842389 95.459163 
L 183.155187 95.996976 
L 186.467986 96.62266 
L 189.780784 97.326441 
L 199.719179 99.587853 
L 203.031977 100.182561 
L 206.344776 100.585263 
L 209.657574 100.768345 
L 212.970412 100.73297 
L 216.28321 100.49522 
L 219.596008 100.076521 
L 222.908807 99.49877 
L 226.221605 98.782534 
L 229.534403 97.946361 
L 232.847202 97.006869 
L 236.16 95.978795 
L 239.472798 94.875444 
L 246.098395 92.491886 
L 252.723992 89.948212 
L 272.600821 82.158857 
L 279.226418 79.728529 
L 285.852014 77.455364 
L 292.477651 75.360407 
L 299.103247 73.451077 
L 305.728844 71.724811 
L 312.35444 70.17397 
L 318.980037 68.79012 
L 325.605634 67.566753 
L 332.23123 66.498979 
L 338.856827 65.585477 
L 345.482424 64.827319 
L 352.10806 64.227707 
L 358.733656 63.79237 
L 365.359253 63.528986 
L 368.672051 63.465588 
L 371.984889 63.450193 
L 375.297688 63.484453 
L 378.610486 63.569851 
L 381.923284 63.707472 
L 385.236083 63.8971 
L 391.861679 64.416273 
L 398.487276 65.031891 
" style="fill:none;stroke:#ff0000;stroke-linecap:square;stroke-width:1.5;"/>
   </g>
   <g id="line2d_31">
    <path clip-path="url(#p715813f7bb)" d="M 73.832724 240.628351 
L 77.145522 212.468418 
L 80.458321 191.710668 
L 83.771119 175.36849 
L 87.083917 162.125398 
L 90.396716 151.260724 
L 93.709554 142.304973 
L 97.022352 134.905286 
L 100.33515 128.774752 
L 103.647949 123.675004 
L 106.960747 119.410251 
L 110.273545 115.823428 
L 113.586344 112.790238 
L 116.899142 110.212532 
L 120.21194 108.012596 
L 123.524738 106.129449 
L 126.837537 104.516228 
L 130.150375 103.137801 
L 133.463173 101.96819 
L 136.775971 100.987173 
L 140.08877 100.178563 
L 143.401568 99.529228 
L 146.714366 99.027533 
L 150.027165 98.662821 
L 153.339963 98.426962 
L 156.652761 98.313854 
L 159.96556 98.318614 
L 163.278358 98.437505 
L 166.591156 98.66722 
L 169.903955 99.00616 
L 173.216753 99.453931 
L 176.529551 100.009419 
L 179.842389 100.668318 
L 183.155187 101.421596 
L 193.093582 103.944097 
L 196.406381 104.653124 
L 199.719179 105.162989 
L 203.031977 105.434126 
L 206.344776 105.463396 
L 209.657574 105.267958 
L 212.970412 104.872264 
L 216.28321 104.301605 
L 219.596008 103.579204 
L 222.908807 102.72569 
L 226.221605 101.759255 
L 229.534403 100.695883 
L 232.847202 99.549679 
L 236.16 98.333319 
L 242.785597 95.735179 
L 249.411193 92.984856 
L 269.288023 84.558561 
L 275.913619 81.904632 
L 282.539216 79.409418 
L 289.164852 77.101416 
L 295.790449 74.995368 
L 302.416045 73.094174 
L 309.041642 71.392538 
L 315.667239 69.881258 
L 322.292835 68.551149 
L 328.918432 67.39486 
L 335.544029 66.407672 
L 342.169625 65.589558 
L 348.795222 64.943899 
L 355.420858 64.477208 
L 358.733656 64.313733 
L 362.046455 64.198395 
L 365.359253 64.132577 
L 368.672051 64.118252 
L 371.984889 64.157633 
L 375.297688 64.252836 
L 378.610486 64.405385 
L 381.923284 64.615442 
L 388.548881 65.19057 
L 398.487276 66.184989 
" style="fill:none;stroke:#0000ff;stroke-linecap:square;stroke-width:1.5;"/>
   </g>
   <g id="line2d_32">
    <path clip-path="url(#p715813f7bb)" d="M 73.832724 275.658395 
L 77.145522 247.241973 
L 80.458321 226.294508 
L 83.771119 209.856496 
L 87.083917 196.624439 
L 90.396716 185.865154 
L 93.709554 177.074767 
L 97.022352 169.864005 
L 100.33515 163.91603 
L 103.647949 158.974138 
L 106.960747 154.831887 
L 110.273545 151.32461 
L 113.586344 148.324121 
L 116.899142 145.730583 
L 120.21194 143.466908 
L 123.524738 141.474747 
L 126.837537 139.710266 
L 130.150375 138.140482 
L 133.463173 136.739694 
L 136.775971 135.485468 
L 140.08877 134.356197 
L 143.401568 133.3309 
L 146.714366 132.384891 
L 153.339963 130.637408 
L 163.278358 128.096145 
L 169.903955 126.256027 
L 173.216753 125.254953 
L 176.529551 124.193954 
L 183.155187 121.89964 
L 189.780784 119.413962 
L 196.406381 116.794907 
L 209.657574 111.368622 
L 219.596008 107.323001 
L 229.534403 103.396742 
L 239.472798 99.621781 
L 249.411193 95.988695 
L 259.349588 92.4768 
L 269.288023 89.102432 
L 275.913619 86.959616 
L 282.539216 84.931801 
L 289.164852 83.044129 
L 295.790449 81.316414 
L 302.416045 79.759708 
L 309.041642 78.37656 
L 315.667239 77.164259 
L 322.292835 76.117501 
L 328.918432 75.231505 
L 335.544029 74.50812 
L 342.169625 73.957148 
L 345.482424 73.751226 
L 348.795222 73.594522 
L 352.10806 73.488664 
L 355.420858 73.434922 
L 358.733656 73.433496 
L 365.359253 73.574793 
L 381.923284 74.186899 
L 388.548881 74.247773 
L 395.174478 74.165904 
L 398.487276 74.078733 
" style="fill:none;stroke:#00ffff;stroke-linecap:square;stroke-width:1.5;"/>
   </g>
   <g id="patch_3">
    <path d="M 57.6 307.584 
L 57.6 41.472 
" style="fill:none;stroke:#000000;stroke-linecap:square;stroke-linejoin:miter;stroke-width:0.8;"/>
   </g>
   <g id="patch_4">
    <path d="M 414.72 307.584 
L 414.72 41.472 
" style="fill:none;stroke:#000000;stroke-linecap:square;stroke-linejoin:miter;stroke-width:0.8;"/>
   </g>
   <g id="patch_5">
    <path d="M 57.6 307.584 
L 414.72 307.584 
" style="fill:none;stroke:#000000;stroke-linecap:square;stroke-linejoin:miter;stroke-width:0.8;"/>
   </g>
   <g id="patch_6">
    <path d="M 57.6 41.472 
L 414.72 41.472 
" style="fill:none;stroke:#000000;stroke-linecap:square;stroke-linejoin:miter;stroke-width:0.8;"/>
   </g>
   <g id="legend_1">
    <g id="patch_7">
     <path d="M 64.6 93.506375 
L 189.760937 93.506375 
Q 191.760937 93.506375 191.760937 91.506375 
L 191.760937 48.472 
Q 191.760937 46.472 189.760937 46.472 
L 64.6 46.472 
Q 62.6 46.472 62.6 48.472 
L 62.6 91.506375 
Q 62.6 93.506375 64.6 93.506375 
z
" style="fill:#ffffff;opacity:0.8;stroke:#cccccc;stroke-linejoin:miter;"/>
    </g>
    <g id="line2d_33">
     <path d="M 66.6 54.570438 
L 86.6 54.570438 
" style="fill:none;stroke:#ff0000;stroke-linecap:square;stroke-width:1.5;"/>
    </g>
    <g id="line2d_34"/>
    <g id="text_11">
     <!-- No denoising -->
     <defs>
      <path d="M 9.8125 72.90625 
L 23.09375 72.90625 
L 55.421875 11.921875 
L 55.421875 72.90625 
L 64.984375 72.90625 
L 64.984375 0 
L 51.703125 0 
L 19.390625 60.984375 
L 19.390625 0 
L 9.8125 0 
z
" id="DejaVuSans-78"/>
      <path d="M 45.40625 27.984375 
Q 45.40625 37.75 41.375 43.109375 
Q 37.359375 48.484375 30.078125 48.484375 
Q 22.859375 48.484375 18.828125 43.109375 
Q 14.796875 37.75 14.796875 27.984375 
Q 14.796875 18.265625 18.828125 12.890625 
Q 22.859375 7.515625 30.078125 7.515625 
Q 37.359375 7.515625 41.375 12.890625 
Q 45.40625 18.265625 45.40625 27.984375 
z
M 54.390625 6.78125 
Q 54.390625 -7.171875 48.1875 -13.984375 
Q 42 -20.796875 29.203125 -20.796875 
Q 24.46875 -20.796875 20.265625 -20.09375 
Q 16.0625 -19.390625 12.109375 -17.921875 
L 12.109375 -9.1875 
Q 16.0625 -11.328125 19.921875 -12.34375 
Q 23.78125 -13.375 27.78125 -13.375 
Q 36.625 -13.375 41.015625 -8.765625 
Q 45.40625 -4.15625 45.40625 5.171875 
L 45.40625 9.625 
Q 42.625 4.78125 38.28125 2.390625 
Q 33.9375 0 27.875 0 
Q 17.828125 0 11.671875 7.65625 
Q 5.515625 15.328125 5.515625 27.984375 
Q 5.515625 40.671875 11.671875 48.328125 
Q 17.828125 56 27.875 56 
Q 33.9375 56 38.28125 53.609375 
Q 42.625 51.21875 45.40625 46.390625 
L 45.40625 54.6875 
L 54.390625 54.6875 
z
" id="DejaVuSans-103"/>
     </defs>
     <g transform="translate(94.6 58.070438)scale(0.1 -0.1)">
      <use xlink:href="#DejaVuSans-78"/>
      <use x="74.804688" xlink:href="#DejaVuSans-111"/>
      <use x="135.986328" xlink:href="#DejaVuSans-32"/>
      <use x="167.773438" xlink:href="#DejaVuSans-100"/>
      <use x="231.25" xlink:href="#DejaVuSans-101"/>
      <use x="292.773438" xlink:href="#DejaVuSans-110"/>
      <use x="356.152344" xlink:href="#DejaVuSans-111"/>
      <use x="417.333984" xlink:href="#DejaVuSans-105"/>
      <use x="445.117188" xlink:href="#DejaVuSans-115"/>
      <use x="497.216797" xlink:href="#DejaVuSans-105"/>
      <use x="525" xlink:href="#DejaVuSans-110"/>
      <use x="588.378906" xlink:href="#DejaVuSans-103"/>
     </g>
    </g>
    <g id="line2d_35">
     <path d="M 66.6 69.248563 
L 86.6 69.248563 
" style="fill:none;stroke:#0000ff;stroke-linecap:square;stroke-width:1.5;"/>
    </g>
    <g id="line2d_36"/>
    <g id="text_12">
     <!-- With denoising -->
     <defs>
      <path d="M 3.328125 72.90625 
L 13.28125 72.90625 
L 28.609375 11.28125 
L 43.890625 72.90625 
L 54.984375 72.90625 
L 70.3125 11.28125 
L 85.59375 72.90625 
L 95.609375 72.90625 
L 77.296875 0 
L 64.890625 0 
L 49.515625 63.28125 
L 33.984375 0 
L 21.578125 0 
z
" id="DejaVuSans-87"/>
      <path d="M 54.890625 33.015625 
L 54.890625 0 
L 45.90625 0 
L 45.90625 32.71875 
Q 45.90625 40.484375 42.875 44.328125 
Q 39.84375 48.1875 33.796875 48.1875 
Q 26.515625 48.1875 22.3125 43.546875 
Q 18.109375 38.921875 18.109375 30.90625 
L 18.109375 0 
L 9.078125 0 
L 9.078125 75.984375 
L 18.109375 75.984375 
L 18.109375 46.1875 
Q 21.34375 51.125 25.703125 53.5625 
Q 30.078125 56 35.796875 56 
Q 45.21875 56 50.046875 50.171875 
Q 54.890625 44.34375 54.890625 33.015625 
z
" id="DejaVuSans-104"/>
     </defs>
     <g transform="translate(94.6 72.748563)scale(0.1 -0.1)">
      <use xlink:href="#DejaVuSans-87"/>
      <use x="98.845703" xlink:href="#DejaVuSans-105"/>
      <use x="126.628906" xlink:href="#DejaVuSans-116"/>
      <use x="165.837891" xlink:href="#DejaVuSans-104"/>
      <use x="229.216797" xlink:href="#DejaVuSans-32"/>
      <use x="261.003906" xlink:href="#DejaVuSans-100"/>
      <use x="324.480469" xlink:href="#DejaVuSans-101"/>
      <use x="386.003906" xlink:href="#DejaVuSans-110"/>
      <use x="449.382812" xlink:href="#DejaVuSans-111"/>
      <use x="510.564453" xlink:href="#DejaVuSans-105"/>
      <use x="538.347656" xlink:href="#DejaVuSans-115"/>
      <use x="590.447266" xlink:href="#DejaVuSans-105"/>
      <use x="618.230469" xlink:href="#DejaVuSans-110"/>
      <use x="681.609375" xlink:href="#DejaVuSans-103"/>
     </g>
    </g>
    <g id="line2d_37">
     <path d="M 66.6 83.926688 
L 86.6 83.926688 
" style="fill:none;stroke:#00ffff;stroke-linecap:square;stroke-width:1.5;"/>
    </g>
    <g id="line2d_38"/>
    <g id="text_13">
     <!-- With big denoising -->
     <defs>
      <path d="M 48.6875 27.296875 
Q 48.6875 37.203125 44.609375 42.84375 
Q 40.53125 48.484375 33.40625 48.484375 
Q 26.265625 48.484375 22.1875 42.84375 
Q 18.109375 37.203125 18.109375 27.296875 
Q 18.109375 17.390625 22.1875 11.75 
Q 26.265625 6.109375 33.40625 6.109375 
Q 40.53125 6.109375 44.609375 11.75 
Q 48.6875 17.390625 48.6875 27.296875 
z
M 18.109375 46.390625 
Q 20.953125 51.265625 25.265625 53.625 
Q 29.59375 56 35.59375 56 
Q 45.5625 56 51.78125 48.09375 
Q 58.015625 40.1875 58.015625 27.296875 
Q 58.015625 14.40625 51.78125 6.484375 
Q 45.5625 -1.421875 35.59375 -1.421875 
Q 29.59375 -1.421875 25.265625 0.953125 
Q 20.953125 3.328125 18.109375 8.203125 
L 18.109375 0 
L 9.078125 0 
L 9.078125 75.984375 
L 18.109375 75.984375 
z
" id="DejaVuSans-98"/>
     </defs>
     <g transform="translate(94.6 87.426688)scale(0.1 -0.1)">
      <use xlink:href="#DejaVuSans-87"/>
      <use x="98.845703" xlink:href="#DejaVuSans-105"/>
      <use x="126.628906" xlink:href="#DejaVuSans-116"/>
      <use x="165.837891" xlink:href="#DejaVuSans-104"/>
      <use x="229.216797" xlink:href="#DejaVuSans-32"/>
      <use x="261.003906" xlink:href="#DejaVuSans-98"/>
      <use x="324.480469" xlink:href="#DejaVuSans-105"/>
      <use x="352.263672" xlink:href="#DejaVuSans-103"/>
      <use x="415.740234" xlink:href="#DejaVuSans-32"/>
      <use x="447.527344" xlink:href="#DejaVuSans-100"/>
      <use x="511.003906" xlink:href="#DejaVuSans-101"/>
      <use x="572.527344" xlink:href="#DejaVuSans-110"/>
      <use x="635.90625" xlink:href="#DejaVuSans-111"/>
      <use x="697.087891" xlink:href="#DejaVuSans-105"/>
      <use x="724.871094" xlink:href="#DejaVuSans-115"/>
      <use x="776.970703" xlink:href="#DejaVuSans-105"/>
      <use x="804.753906" xlink:href="#DejaVuSans-110"/>
      <use x="868.132812" xlink:href="#DejaVuSans-103"/>
     </g>
    </g>
   </g>
  </g>
 </g>
 <defs>
  <clipPath id="p715813f7bb">
   <rect height="266.112" width="357.12" x="57.6" y="41.472"/>
  </clipPath>
 </defs>
</svg>
