<?xml version="1.0" encoding="utf-8" standalone="no"?>
<!DOCTYPE svg PUBLIC "-//W3C//DTD SVG 1.1//EN"
  "http://www.w3.org/Graphics/SVG/1.1/DTD/svg11.dtd">
<!-- Created with matplotlib (https://matplotlib.org/) -->
<svg height="345.6pt" version="1.1" viewBox="0 0 460.8 345.6" width="460.8pt" xmlns="http://www.w3.org/2000/svg" xmlns:xlink="http://www.w3.org/1999/xlink">
 <defs>
  <style type="text/css">
*{stroke-linecap:butt;stroke-linejoin:round;white-space:pre;}
  </style>
 </defs>
 <g id="figure_1">
  <g id="patch_1">
   <path d="M 0 345.6 
L 460.8 345.6 
L 460.8 0 
L 0 0 
z
" style="fill:#ffffff;"/>
  </g>
  <g id="axes_1">
   <g id="patch_2">
    <path d="M 57.6 307.584 
L 414.72 307.584 
L 414.72 41.472 
L 57.6 41.472 
z
" style="fill:#ffffff;"/>
   </g>
   <g id="PolyCollection_1">
    <path clip-path="url(#p61aeb0c134)" d="M 73.832727 276.67609 
L 73.832727 295.054778 
L 77.145529 253.927699 
L 80.45833 223.925444 
L 83.771132 200.386995 
L 87.083933 181.229625 
L 90.396735 165.324371 
L 93.709536 151.959607 
L 97.022338 140.631174 
L 100.335139 130.956895 
L 103.647941 122.637699 
L 106.960742 115.43622 
L 110.273544 109.162899 
L 113.586345 103.665898 
L 116.899147 98.823141 
L 120.211948 94.535925 
L 123.52475 90.724 
L 126.837551 87.321809 
L 130.150353 84.275459 
L 133.463154 81.540423 
L 136.775955 79.079756 
L 140.088757 76.862652 
L 143.401558 74.86332 
L 146.71436 73.060116 
L 150.027161 71.434885 
L 153.339963 69.972422 
L 156.652764 68.659981 
L 159.965566 67.486869 
L 163.278367 66.444154 
L 166.591169 65.52441 
L 169.90397 64.721511 
L 173.216772 64.030477 
L 176.529573 63.447347 
L 179.842375 62.969098 
L 183.155176 62.593584 
L 186.467978 62.319497 
L 189.780779 62.146405 
L 193.093581 62.074782 
L 196.406382 62.10606 
L 199.719184 62.242675 
L 203.031985 62.488124 
L 206.344787 62.847037 
L 209.657588 63.325247 
L 212.97039 63.929902 
L 216.283191 64.669538 
L 219.595993 65.554125 
L 222.908794 66.594938 
L 226.221596 67.804106 
L 229.534397 69.19346 
L 232.847199 70.771936 
L 236.16 72.540362 
L 239.472801 74.482294 
L 242.785603 76.552014 
L 246.098404 78.667959 
L 249.411206 80.724709 
L 252.724007 82.622905 
L 256.036809 84.295831 
L 259.34961 85.716099 
L 262.662412 86.886154 
L 265.975213 87.824806 
L 269.288015 88.557274 
L 272.600816 89.109745 
L 275.913618 89.506885 
L 279.226419 89.770907 
L 282.539221 89.921376 
L 285.852022 89.975328 
L 289.164824 89.94751 
L 292.477625 89.850654 
L 295.790427 89.695751 
L 299.103228 89.492295 
L 302.41603 89.248504 
L 305.728831 88.971508 
L 309.041633 88.667517 
L 312.354434 88.341989 
L 315.667236 87.999749 
L 318.980037 87.64509 
L 322.292839 87.28186 
L 325.60564 86.913535 
L 328.918442 86.543281 
L 332.231243 86.173998 
L 335.544045 85.808369 
L 338.856846 85.448896 
L 342.169647 85.097942 
L 345.482449 84.757751 
L 348.79525 84.430471 
L 352.108052 84.118168 
L 355.420853 83.822853 
L 358.733655 83.546475 
L 362.046456 83.290933 
L 365.359258 83.058063 
L 368.672059 82.849642 
L 371.984861 82.66743 
L 375.297662 82.513175 
L 378.610464 82.388647 
L 381.923265 82.295659 
L 385.236067 82.236097 
L 388.548868 82.211946 
L 391.86167 82.225303 
L 395.174471 82.278395 
L 398.487273 82.373595 
L 398.487273 72.030889 
L 398.487273 72.030889 
L 395.174471 72.003213 
L 391.86167 72.015832 
L 388.548868 72.06617 
L 385.236067 72.151799 
L 381.923265 72.270421 
L 378.610464 72.419873 
L 375.297662 72.59811 
L 371.984861 72.803172 
L 368.672059 73.033168 
L 365.359258 73.28624 
L 362.046456 73.560546 
L 358.733655 73.854233 
L 355.420853 74.16543 
L 352.108052 74.492235 
L 348.79525 74.832717 
L 345.482449 75.1849 
L 342.169647 75.546743 
L 338.856846 75.916125 
L 335.544045 76.29082 
L 332.231243 76.668467 
L 328.918442 77.046542 
L 325.60564 77.422309 
L 322.292839 77.792783 
L 318.980037 78.154668 
L 315.667236 78.5043 
L 312.354434 78.837564 
L 309.041633 79.149805 
L 305.728831 79.435723 
L 302.41603 79.689249 
L 299.103228 79.903377 
L 295.790427 80.069977 
L 292.477625 80.179575 
L 289.164824 80.221116 
L 285.852022 80.181686 
L 282.539221 80.046219 
L 279.226419 79.797216 
L 275.913618 79.414564 
L 272.600816 78.875572 
L 269.288015 78.155562 
L 265.975213 77.229583 
L 262.662412 76.076182 
L 259.34961 74.684395 
L 256.036809 73.064005 
L 252.724007 71.255518 
L 249.411206 69.331516 
L 246.098404 67.382832 
L 242.785603 65.494509 
L 239.472801 63.726766 
L 236.16 62.111385 
L 232.847199 60.659206 
L 229.534397 59.369158 
L 226.221596 58.234429 
L 222.908794 57.245968 
L 219.595993 56.394307 
L 216.283191 55.670461 
L 212.97039 55.066347 
L 209.657588 54.574944 
L 206.344787 54.190299 
L 203.031985 53.907506 
L 199.719184 53.722631 
L 196.406382 53.632652 
L 193.093581 53.635421 
L 189.780779 53.729617 
L 186.467978 53.914707 
L 183.155176 54.190901 
L 179.842375 54.559085 
L 176.529573 55.020771 
L 173.216772 55.578107 
L 169.90397 56.233956 
L 166.591169 56.992007 
L 163.278367 57.856894 
L 159.965566 58.834315 
L 156.652764 59.931194 
L 153.339963 61.155866 
L 150.027161 62.518296 
L 146.71436 64.030384 
L 143.401558 65.706336 
L 140.088757 67.563093 
L 136.775955 69.620837 
L 133.463154 71.903618 
L 130.150353 74.440203 
L 126.837551 77.265144 
L 123.52475 80.420148 
L 120.211948 83.955852 
L 116.899147 87.934113 
L 113.586345 92.431022 
L 110.273544 97.540825 
L 106.960742 103.381051 
L 103.647941 110.099227 
L 100.335139 117.881595 
L 97.022338 126.96475 
L 93.709536 137.651463 
L 90.396735 150.333548 
L 87.083933 165.532661 
L 83.771132 183.986541 
L 80.45833 206.852399 
L 77.145529 236.203332 
L 73.832727 276.67609 
z
" style="fill:#ff0000;fill-opacity:0.4;"/>
   </g>
   <g id="PolyCollection_2">
    <path clip-path="url(#p61aeb0c134)" d="M 73.832727 277.027759 
L 73.832727 295.287781 
L 77.145529 254.154842 
L 80.45833 224.145333 
L 83.771132 200.598133 
L 87.083933 181.431982 
L 90.396735 165.517651 
L 93.709536 152.143714 
L 97.022338 140.806168 
L 100.335139 131.123035 
L 103.647941 122.795267 
L 106.960742 115.58549 
L 110.273544 109.304183 
L 113.586345 103.799553 
L 116.899147 98.949522 
L 120.211948 94.655373 
L 123.52475 90.83683 
L 126.837551 87.428282 
L 130.150353 84.375796 
L 133.463154 81.634818 
L 136.775955 79.168366 
L 140.088757 76.945598 
L 143.401558 74.940693 
L 146.71436 73.131995 
L 150.027161 71.501337 
L 153.339963 70.033492 
L 156.652764 68.715694 
L 159.965566 67.537235 
L 163.278367 66.489162 
L 166.591169 65.564031 
L 169.90397 64.755693 
L 173.216772 64.059131 
L 176.529573 63.470352 
L 179.842375 62.986299 
L 183.155176 62.604806 
L 186.467978 62.324539 
L 189.780779 62.14503 
L 193.093581 62.066712 
L 196.406382 62.090979 
L 199.719184 62.220219 
L 203.031985 62.45786 
L 206.344787 62.808447 
L 209.657588 63.277719 
L 212.97039 63.872702 
L 216.283191 64.601794 
L 219.595993 65.474772 
L 222.908794 66.502642 
L 226.221596 67.697145 
L 229.534397 69.069544 
L 232.847199 70.627973 
L 236.16 72.372227 
L 239.472801 74.284876 
L 242.785603 76.320154 
L 246.098404 78.398625 
L 249.411206 80.41932 
L 252.724007 82.287527 
L 256.036809 83.939041 
L 259.34961 85.34651 
L 262.662412 86.511023 
L 265.975213 87.449703 
L 269.288015 88.186268 
L 272.600816 88.745709 
L 275.913618 89.151792 
L 279.226419 89.426076 
L 282.539221 89.587655 
L 285.852022 89.653242 
L 289.164824 89.637357 
L 292.477625 89.55257 
L 295.790427 89.40975 
L 299.103228 89.218298 
L 302.41603 88.986363 
L 305.728831 88.72102 
L 309.041633 88.428443 
L 312.354434 88.114067 
L 315.667236 87.782706 
L 318.980037 87.438648 
L 322.292839 87.085739 
L 325.60564 86.727445 
L 328.918442 86.366912 
L 332.231243 86.007009 
L 335.544045 85.650385 
L 338.856846 85.29951 
L 342.169647 84.956716 
L 345.482449 84.624226 
L 348.79525 84.304171 
L 352.108052 83.998603 
L 355.420853 83.709493 
L 358.733655 83.438729 
L 362.046456 83.188109 
L 365.359258 82.959362 
L 368.672059 82.754173 
L 371.984861 82.574193 
L 375.297662 82.421058 
L 378.610464 82.296416 
L 381.923265 82.201947 
L 385.236067 82.139397 
L 388.548868 82.110595 
L 391.86167 82.117469 
L 395.174471 82.162059 
L 398.487273 82.246515 
L 398.487273 71.387781 
L 398.487273 71.387781 
L 395.174471 71.375698 
L 391.86167 71.40295 
L 388.548868 71.46707 
L 385.236067 71.565717 
L 381.923265 71.696671 
L 378.610464 71.857836 
L 375.297662 72.047228 
L 371.984861 72.262945 
L 368.672059 72.503148 
L 365.359258 72.766034 
L 362.046456 73.049808 
L 358.733655 73.352672 
L 355.420853 73.672809 
L 352.108052 74.008371 
L 348.79525 74.357462 
L 345.482449 74.718133 
L 342.169647 75.088376 
L 338.856846 75.466099 
L 335.544045 75.849108 
L 332.231243 76.235083 
L 328.918442 76.621535 
L 325.60564 77.005768 
L 322.292839 77.384831 
L 318.980037 77.755464 
L 315.667236 78.114024 
L 312.354434 78.456411 
L 309.041633 78.777983 
L 305.728831 79.07345 
L 302.41603 79.336753 
L 299.103228 79.560895 
L 295.790427 79.737752 
L 292.477625 79.857846 
L 289.164824 79.910103 
L 285.852022 79.881574 
L 282.539221 79.757136 
L 279.226419 79.51922 
L 275.913618 79.147627 
L 272.600816 78.619601 
L 269.288015 77.910458 
L 265.975213 76.995361 
L 262.662412 75.853228 
L 259.34961 74.473803 
L 256.036809 72.86787 
L 252.724007 71.076682 
L 249.411206 69.172482 
L 246.098404 67.244414 
L 242.785603 65.375491 
L 239.472801 63.624741 
L 236.16 62.023735 
L 232.847199 60.583628 
L 229.534397 59.303765 
L 226.221596 58.177731 
L 222.908794 57.196804 
L 219.595993 56.351787 
L 216.283191 55.633912 
L 212.97039 55.035262 
L 209.657588 54.548941 
L 206.344787 54.169109 
L 203.031985 53.890954 
L 199.719184 53.710618 
L 196.406382 53.625154 
L 193.093581 53.632459 
L 189.780779 53.731245 
L 186.467978 53.921002 
L 183.155176 54.201956 
L 179.842375 54.575001 
L 176.529573 55.041648 
L 173.216772 55.604036 
L 169.90397 56.265035 
L 166.591169 57.028343 
L 163.278367 57.8986 
L 159.965566 58.881518 
L 156.652764 59.984029 
L 153.339963 61.214483 
L 150.027161 62.582867 
L 146.71436 64.101102 
L 143.401558 65.783418 
L 140.088757 67.646778 
L 136.775955 69.711387 
L 133.463154 72.001336 
L 130.150353 74.545437 
L 126.837551 77.378284 
L 123.52475 80.541638 
L 120.211948 84.086195 
L 116.899147 88.07389 
L 113.586345 92.580889 
L 110.273544 97.701518 
L 106.960742 103.55338 
L 103.647941 110.284089 
L 100.335139 118.080032 
L 97.022338 127.177987 
L 93.709536 137.880817 
L 90.396735 150.580393 
L 87.083933 165.798423 
L 83.771132 184.272602 
L 80.45833 207.159567 
L 77.145529 236.531053 
L 73.832727 277.027759 
z
" style="fill:#ffa500;fill-opacity:0.4;"/>
   </g>
   <g id="PolyCollection_3">
    <path clip-path="url(#p61aeb0c134)" d="M 73.832727 277.443664 
L 73.832727 295.488 
L 77.145529 254.339476 
L 80.45833 224.314969 
L 83.771132 200.752995 
L 87.083933 181.572668 
L 90.396735 165.644632 
L 93.709536 152.257568 
L 97.022338 140.907636 
L 100.335139 131.21301 
L 103.647941 122.874661 
L 106.960742 115.65515 
L 110.273544 109.36493 
L 113.586345 103.852154 
L 116.899147 98.994663 
L 120.211948 94.69365 
L 123.52475 90.868759 
L 126.837551 87.454288 
L 130.150353 84.396225 
L 133.463154 81.649943 
L 136.775955 79.1784 
L 140.088757 76.950703 
L 143.401558 74.940997 
L 146.71436 73.127589 
L 150.027161 71.492277 
L 153.339963 70.019802 
L 156.652764 68.69737 
L 159.965566 67.514248 
L 163.278367 66.461462 
L 166.591169 65.531542 
L 169.90397 64.718304 
L 173.216772 64.016713 
L 176.529573 63.422764 
L 179.842375 62.933401 
L 183.155176 62.546461 
L 186.467978 62.260625 
L 189.780779 62.075425 
L 193.093581 61.991269 
L 196.406382 62.009519 
L 199.719184 62.132518 
L 203.031985 62.363648 
L 206.344787 62.70739 
L 209.657588 63.169415 
L 212.97039 63.756654 
L 216.283191 64.477375 
L 219.595993 65.341179 
L 222.908794 66.358831 
L 226.221596 67.541736 
L 229.534397 68.900689 
L 232.847199 70.443192 
L 236.16 72.16827 
L 239.472801 74.057796 
L 242.785603 76.065954 
L 246.098404 78.114631 
L 249.411206 80.105474 
L 252.724007 81.946539 
L 256.036809 83.575312 
L 259.34961 84.964815 
L 262.662412 86.115674 
L 265.975213 87.04426 
L 269.288015 87.773541 
L 272.600816 88.327868 
L 275.913618 88.730502 
L 279.226419 89.002618 
L 282.539221 89.163025 
L 285.852022 89.22822 
L 289.164824 89.212559 
L 292.477625 89.128492 
L 295.790427 88.986793 
L 299.103228 88.796786 
L 302.41603 88.566544 
L 305.728831 88.303077 
L 309.041633 88.012507 
L 312.354434 87.700228 
L 315.667236 87.371024 
L 318.980037 87.029158 
L 322.292839 86.678452 
L 325.60564 86.32235 
L 328.918442 85.963967 
L 332.231243 85.606141 
L 335.544045 85.251492 
L 338.856846 84.902466 
L 342.169647 84.561374 
L 345.482449 84.23041 
L 348.79525 83.91168 
L 352.108052 83.607201 
L 355.420853 83.318894 
L 358.733655 83.048577 
L 362.046456 82.797968 
L 365.359258 82.568724 
L 368.672059 82.362452 
L 371.984861 82.180712 
L 375.297662 82.025047 
L 378.610464 81.897009 
L 381.923265 81.798185 
L 385.236067 81.730218 
L 388.548868 81.69481 
L 391.86167 81.693742 
L 395.174471 81.728867 
L 398.487273 81.802124 
L 398.487273 70.832163 
L 398.487273 70.832163 
L 395.174471 70.829506 
L 391.86167 70.86536 
L 388.548868 70.93737 
L 385.236067 71.043299 
L 381.923265 71.180998 
L 378.610464 71.348427 
L 375.297662 71.54364 
L 371.984861 71.764776 
L 368.672059 72.010034 
L 365.359258 72.277652 
L 362.046456 72.565878 
L 358.733655 72.872954 
L 355.420853 73.197098 
L 352.108052 73.536498 
L 348.79525 73.88929 
L 345.482449 74.253554 
L 342.169647 74.627303 
L 338.856846 75.008469 
L 335.544045 75.394881 
L 332.231243 75.78424 
L 328.918442 76.174084 
L 325.60564 76.561741 
L 322.292839 76.944286 
L 318.980037 77.318481 
L 315.667236 77.680705 
L 312.354434 78.026877 
L 309.041633 78.352374 
L 305.728831 78.651929 
L 302.41603 78.919511 
L 299.103228 79.148159 
L 295.790427 79.329787 
L 292.477625 79.454958 
L 289.164824 79.512636 
L 285.852022 79.489921 
L 282.539221 79.371757 
L 279.226419 79.140673 
L 275.913618 78.776614 
L 272.600816 78.257034 
L 269.288015 77.55755 
L 265.975213 76.653771 
L 262.662412 75.525183 
L 259.34961 74.162146 
L 256.036809 72.575806 
L 252.724007 70.807075 
L 249.411206 68.926879 
L 246.098404 67.022412 
L 242.785603 65.175023 
L 239.472801 63.443028 
L 236.16 61.858108 
L 232.847199 60.43187 
L 229.534397 59.164143 
L 226.221596 58.048919 
L 222.908794 57.077795 
L 219.595993 56.241811 
L 216.283191 55.532385 
L 212.97039 54.941742 
L 209.657588 54.463092 
L 206.344787 54.090682 
L 203.031985 53.819751 
L 199.719184 53.646495 
L 196.406382 53.568 
L 193.093581 53.582199 
L 189.780779 53.687825 
L 186.467978 53.884384 
L 183.155176 54.172098 
L 179.842375 54.551845 
L 176.529573 55.02512 
L 173.216772 55.594067 
L 169.90397 56.261565 
L 166.591169 57.031327 
L 163.278367 57.908019 
L 159.965566 58.897374 
L 156.652764 60.006349 
L 153.339963 61.243311 
L 150.027161 62.618278 
L 146.71436 64.14321 
L 143.401558 65.83238 
L 140.088757 67.702801 
L 136.775955 69.774734 
L 133.463154 72.072325 
L 130.150353 74.624452 
L 126.837551 77.465785 
L 123.52475 80.638178 
L 120.211948 84.192442 
L 116.899147 88.190654 
L 113.586345 92.709128 
L 110.273544 97.842352 
L 106.960742 103.7081 
L 103.647941 110.454162 
L 100.335139 118.26714 
L 97.022338 127.384095 
L 93.709536 138.108287 
L 90.396735 150.832032 
L 87.083933 166.077373 
L 83.771132 184.582178 
L 80.45833 207.502208 
L 77.145529 236.908913 
L 73.832727 277.443664 
z
" style="fill:#ff00ff;fill-opacity:0.4;"/>
   </g>
   <g id="matplotlib.axis_1">
    <g id="xtick_1">
     <g id="line2d_1">
      <path clip-path="url(#p61aeb0c134)" d="M 70.519926 307.584 
L 70.519926 41.472 
" style="fill:none;stroke:#b0b0b0;stroke-linecap:square;stroke-width:0.8;"/>
     </g>
     <g id="line2d_2">
      <defs>
       <path d="M 0 0 
L 0 3.5 
" id="mf54d21742b" style="stroke:#000000;stroke-width:0.8;"/>
      </defs>
      <g>
       <use style="stroke:#000000;stroke-width:0.8;" x="70.519926" xlink:href="#mf54d21742b" y="307.584"/>
      </g>
     </g>
     <g id="text_1">
      <!-- 0.0 -->
      <defs>
       <path d="M 31.78125 66.40625 
Q 24.171875 66.40625 20.328125 58.90625 
Q 16.5 51.421875 16.5 36.375 
Q 16.5 21.390625 20.328125 13.890625 
Q 24.171875 6.390625 31.78125 6.390625 
Q 39.453125 6.390625 43.28125 13.890625 
Q 47.125 21.390625 47.125 36.375 
Q 47.125 51.421875 43.28125 58.90625 
Q 39.453125 66.40625 31.78125 66.40625 
z
M 31.78125 74.21875 
Q 44.046875 74.21875 50.515625 64.515625 
Q 56.984375 54.828125 56.984375 36.375 
Q 56.984375 17.96875 50.515625 8.265625 
Q 44.046875 -1.421875 31.78125 -1.421875 
Q 19.53125 -1.421875 13.0625 8.265625 
Q 6.59375 17.96875 6.59375 36.375 
Q 6.59375 54.828125 13.0625 64.515625 
Q 19.53125 74.21875 31.78125 74.21875 
z
" id="DejaVuSans-48"/>
       <path d="M 10.6875 12.40625 
L 21 12.40625 
L 21 0 
L 10.6875 0 
z
" id="DejaVuSans-46"/>
      </defs>
      <g transform="translate(62.568363 322.182437)scale(0.1 -0.1)">
       <use xlink:href="#DejaVuSans-48"/>
       <use x="63.623047" xlink:href="#DejaVuSans-46"/>
       <use x="95.410156" xlink:href="#DejaVuSans-48"/>
      </g>
     </g>
    </g>
    <g id="xtick_2">
     <g id="line2d_3">
      <path clip-path="url(#p61aeb0c134)" d="M 136.775955 307.584 
L 136.775955 41.472 
" style="fill:none;stroke:#b0b0b0;stroke-linecap:square;stroke-width:0.8;"/>
     </g>
     <g id="line2d_4">
      <g>
       <use style="stroke:#000000;stroke-width:0.8;" x="136.775955" xlink:href="#mf54d21742b" y="307.584"/>
      </g>
     </g>
     <g id="text_2">
      <!-- 0.2 -->
      <defs>
       <path d="M 19.1875 8.296875 
L 53.609375 8.296875 
L 53.609375 0 
L 7.328125 0 
L 7.328125 8.296875 
Q 12.9375 14.109375 22.625 23.890625 
Q 32.328125 33.6875 34.8125 36.53125 
Q 39.546875 41.84375 41.421875 45.53125 
Q 43.3125 49.21875 43.3125 52.78125 
Q 43.3125 58.59375 39.234375 62.25 
Q 35.15625 65.921875 28.609375 65.921875 
Q 23.96875 65.921875 18.8125 64.3125 
Q 13.671875 62.703125 7.8125 59.421875 
L 7.8125 69.390625 
Q 13.765625 71.78125 18.9375 73 
Q 24.125 74.21875 28.421875 74.21875 
Q 39.75 74.21875 46.484375 68.546875 
Q 53.21875 62.890625 53.21875 53.421875 
Q 53.21875 48.921875 51.53125 44.890625 
Q 49.859375 40.875 45.40625 35.40625 
Q 44.1875 33.984375 37.640625 27.21875 
Q 31.109375 20.453125 19.1875 8.296875 
z
" id="DejaVuSans-50"/>
      </defs>
      <g transform="translate(128.824393 322.182437)scale(0.1 -0.1)">
       <use xlink:href="#DejaVuSans-48"/>
       <use x="63.623047" xlink:href="#DejaVuSans-46"/>
       <use x="95.410156" xlink:href="#DejaVuSans-50"/>
      </g>
     </g>
    </g>
    <g id="xtick_3">
     <g id="line2d_5">
      <path clip-path="url(#p61aeb0c134)" d="M 203.031985 307.584 
L 203.031985 41.472 
" style="fill:none;stroke:#b0b0b0;stroke-linecap:square;stroke-width:0.8;"/>
     </g>
     <g id="line2d_6">
      <g>
       <use style="stroke:#000000;stroke-width:0.8;" x="203.031985" xlink:href="#mf54d21742b" y="307.584"/>
      </g>
     </g>
     <g id="text_3">
      <!-- 0.4 -->
      <defs>
       <path d="M 37.796875 64.3125 
L 12.890625 25.390625 
L 37.796875 25.390625 
z
M 35.203125 72.90625 
L 47.609375 72.90625 
L 47.609375 25.390625 
L 58.015625 25.390625 
L 58.015625 17.1875 
L 47.609375 17.1875 
L 47.609375 0 
L 37.796875 0 
L 37.796875 17.1875 
L 4.890625 17.1875 
L 4.890625 26.703125 
z
" id="DejaVuSans-52"/>
      </defs>
      <g transform="translate(195.080423 322.182437)scale(0.1 -0.1)">
       <use xlink:href="#DejaVuSans-48"/>
       <use x="63.623047" xlink:href="#DejaVuSans-46"/>
       <use x="95.410156" xlink:href="#DejaVuSans-52"/>
      </g>
     </g>
    </g>
    <g id="xtick_4">
     <g id="line2d_7">
      <path clip-path="url(#p61aeb0c134)" d="M 269.288015 307.584 
L 269.288015 41.472 
" style="fill:none;stroke:#b0b0b0;stroke-linecap:square;stroke-width:0.8;"/>
     </g>
     <g id="line2d_8">
      <g>
       <use style="stroke:#000000;stroke-width:0.8;" x="269.288015" xlink:href="#mf54d21742b" y="307.584"/>
      </g>
     </g>
     <g id="text_4">
      <!-- 0.6 -->
      <defs>
       <path d="M 33.015625 40.375 
Q 26.375 40.375 22.484375 35.828125 
Q 18.609375 31.296875 18.609375 23.390625 
Q 18.609375 15.53125 22.484375 10.953125 
Q 26.375 6.390625 33.015625 6.390625 
Q 39.65625 6.390625 43.53125 10.953125 
Q 47.40625 15.53125 47.40625 23.390625 
Q 47.40625 31.296875 43.53125 35.828125 
Q 39.65625 40.375 33.015625 40.375 
z
M 52.59375 71.296875 
L 52.59375 62.3125 
Q 48.875 64.0625 45.09375 64.984375 
Q 41.3125 65.921875 37.59375 65.921875 
Q 27.828125 65.921875 22.671875 59.328125 
Q 17.53125 52.734375 16.796875 39.40625 
Q 19.671875 43.65625 24.015625 45.921875 
Q 28.375 48.1875 33.59375 48.1875 
Q 44.578125 48.1875 50.953125 41.515625 
Q 57.328125 34.859375 57.328125 23.390625 
Q 57.328125 12.15625 50.6875 5.359375 
Q 44.046875 -1.421875 33.015625 -1.421875 
Q 20.359375 -1.421875 13.671875 8.265625 
Q 6.984375 17.96875 6.984375 36.375 
Q 6.984375 53.65625 15.1875 63.9375 
Q 23.390625 74.21875 37.203125 74.21875 
Q 40.921875 74.21875 44.703125 73.484375 
Q 48.484375 72.75 52.59375 71.296875 
z
" id="DejaVuSans-54"/>
      </defs>
      <g transform="translate(261.336452 322.182437)scale(0.1 -0.1)">
       <use xlink:href="#DejaVuSans-48"/>
       <use x="63.623047" xlink:href="#DejaVuSans-46"/>
       <use x="95.410156" xlink:href="#DejaVuSans-54"/>
      </g>
     </g>
    </g>
    <g id="xtick_5">
     <g id="line2d_9">
      <path clip-path="url(#p61aeb0c134)" d="M 335.544045 307.584 
L 335.544045 41.472 
" style="fill:none;stroke:#b0b0b0;stroke-linecap:square;stroke-width:0.8;"/>
     </g>
     <g id="line2d_10">
      <g>
       <use style="stroke:#000000;stroke-width:0.8;" x="335.544045" xlink:href="#mf54d21742b" y="307.584"/>
      </g>
     </g>
     <g id="text_5">
      <!-- 0.8 -->
      <defs>
       <path d="M 31.78125 34.625 
Q 24.75 34.625 20.71875 30.859375 
Q 16.703125 27.09375 16.703125 20.515625 
Q 16.703125 13.921875 20.71875 10.15625 
Q 24.75 6.390625 31.78125 6.390625 
Q 38.8125 6.390625 42.859375 10.171875 
Q 46.921875 13.96875 46.921875 20.515625 
Q 46.921875 27.09375 42.890625 30.859375 
Q 38.875 34.625 31.78125 34.625 
z
M 21.921875 38.8125 
Q 15.578125 40.375 12.03125 44.71875 
Q 8.5 49.078125 8.5 55.328125 
Q 8.5 64.0625 14.71875 69.140625 
Q 20.953125 74.21875 31.78125 74.21875 
Q 42.671875 74.21875 48.875 69.140625 
Q 55.078125 64.0625 55.078125 55.328125 
Q 55.078125 49.078125 51.53125 44.71875 
Q 48 40.375 41.703125 38.8125 
Q 48.828125 37.15625 52.796875 32.3125 
Q 56.78125 27.484375 56.78125 20.515625 
Q 56.78125 9.90625 50.3125 4.234375 
Q 43.84375 -1.421875 31.78125 -1.421875 
Q 19.734375 -1.421875 13.25 4.234375 
Q 6.78125 9.90625 6.78125 20.515625 
Q 6.78125 27.484375 10.78125 32.3125 
Q 14.796875 37.15625 21.921875 38.8125 
z
M 18.3125 54.390625 
Q 18.3125 48.734375 21.84375 45.5625 
Q 25.390625 42.390625 31.78125 42.390625 
Q 38.140625 42.390625 41.71875 45.5625 
Q 45.3125 48.734375 45.3125 54.390625 
Q 45.3125 60.0625 41.71875 63.234375 
Q 38.140625 66.40625 31.78125 66.40625 
Q 25.390625 66.40625 21.84375 63.234375 
Q 18.3125 60.0625 18.3125 54.390625 
z
" id="DejaVuSans-56"/>
      </defs>
      <g transform="translate(327.592482 322.182437)scale(0.1 -0.1)">
       <use xlink:href="#DejaVuSans-48"/>
       <use x="63.623047" xlink:href="#DejaVuSans-46"/>
       <use x="95.410156" xlink:href="#DejaVuSans-56"/>
      </g>
     </g>
    </g>
    <g id="xtick_6">
     <g id="line2d_11">
      <path clip-path="url(#p61aeb0c134)" d="M 401.800074 307.584 
L 401.800074 41.472 
" style="fill:none;stroke:#b0b0b0;stroke-linecap:square;stroke-width:0.8;"/>
     </g>
     <g id="line2d_12">
      <g>
       <use style="stroke:#000000;stroke-width:0.8;" x="401.800074" xlink:href="#mf54d21742b" y="307.584"/>
      </g>
     </g>
     <g id="text_6">
      <!-- 1.0 -->
      <defs>
       <path d="M 12.40625 8.296875 
L 28.515625 8.296875 
L 28.515625 63.921875 
L 10.984375 60.40625 
L 10.984375 69.390625 
L 28.421875 72.90625 
L 38.28125 72.90625 
L 38.28125 8.296875 
L 54.390625 8.296875 
L 54.390625 0 
L 12.40625 0 
z
" id="DejaVuSans-49"/>
      </defs>
      <g transform="translate(393.848512 322.182437)scale(0.1 -0.1)">
       <use xlink:href="#DejaVuSans-49"/>
       <use x="63.623047" xlink:href="#DejaVuSans-46"/>
       <use x="95.410156" xlink:href="#DejaVuSans-48"/>
      </g>
     </g>
    </g>
    <g id="text_7">
     <!-- $\mathrm{Time \ (seconds)}$ -->
     <defs>
      <path d="M -0.296875 72.90625 
L 61.375 72.90625 
L 61.375 64.59375 
L 35.5 64.59375 
L 35.5 0 
L 25.59375 0 
L 25.59375 64.59375 
L -0.296875 64.59375 
z
" id="DejaVuSans-84"/>
      <path d="M 9.421875 54.6875 
L 18.40625 54.6875 
L 18.40625 0 
L 9.421875 0 
z
M 9.421875 75.984375 
L 18.40625 75.984375 
L 18.40625 64.59375 
L 9.421875 64.59375 
z
" id="DejaVuSans-105"/>
      <path d="M 52 44.1875 
Q 55.375 50.25 60.0625 53.125 
Q 64.75 56 71.09375 56 
Q 79.640625 56 84.28125 50.015625 
Q 88.921875 44.046875 88.921875 33.015625 
L 88.921875 0 
L 79.890625 0 
L 79.890625 32.71875 
Q 79.890625 40.578125 77.09375 44.375 
Q 74.3125 48.1875 68.609375 48.1875 
Q 61.625 48.1875 57.5625 43.546875 
Q 53.515625 38.921875 53.515625 30.90625 
L 53.515625 0 
L 44.484375 0 
L 44.484375 32.71875 
Q 44.484375 40.625 41.703125 44.40625 
Q 38.921875 48.1875 33.109375 48.1875 
Q 26.21875 48.1875 22.15625 43.53125 
Q 18.109375 38.875 18.109375 30.90625 
L 18.109375 0 
L 9.078125 0 
L 9.078125 54.6875 
L 18.109375 54.6875 
L 18.109375 46.1875 
Q 21.1875 51.21875 25.484375 53.609375 
Q 29.78125 56 35.6875 56 
Q 41.65625 56 45.828125 52.96875 
Q 50 49.953125 52 44.1875 
z
" id="DejaVuSans-109"/>
      <path d="M 56.203125 29.59375 
L 56.203125 25.203125 
L 14.890625 25.203125 
Q 15.484375 15.921875 20.484375 11.0625 
Q 25.484375 6.203125 34.421875 6.203125 
Q 39.59375 6.203125 44.453125 7.46875 
Q 49.3125 8.734375 54.109375 11.28125 
L 54.109375 2.78125 
Q 49.265625 0.734375 44.1875 -0.34375 
Q 39.109375 -1.421875 33.890625 -1.421875 
Q 20.796875 -1.421875 13.15625 6.1875 
Q 5.515625 13.8125 5.515625 26.8125 
Q 5.515625 40.234375 12.765625 48.109375 
Q 20.015625 56 32.328125 56 
Q 43.359375 56 49.78125 48.890625 
Q 56.203125 41.796875 56.203125 29.59375 
z
M 47.21875 32.234375 
Q 47.125 39.59375 43.09375 43.984375 
Q 39.0625 48.390625 32.421875 48.390625 
Q 24.90625 48.390625 20.390625 44.140625 
Q 15.875 39.890625 15.1875 32.171875 
z
" id="DejaVuSans-101"/>
      <path d="M 31 75.875 
Q 24.46875 64.65625 21.28125 53.65625 
Q 18.109375 42.671875 18.109375 31.390625 
Q 18.109375 20.125 21.3125 9.0625 
Q 24.515625 -2 31 -13.1875 
L 23.1875 -13.1875 
Q 15.875 -1.703125 12.234375 9.375 
Q 8.59375 20.453125 8.59375 31.390625 
Q 8.59375 42.28125 12.203125 53.3125 
Q 15.828125 64.359375 23.1875 75.875 
z
" id="DejaVuSans-40"/>
      <path d="M 44.28125 53.078125 
L 44.28125 44.578125 
Q 40.484375 46.53125 36.375 47.5 
Q 32.28125 48.484375 27.875 48.484375 
Q 21.1875 48.484375 17.84375 46.4375 
Q 14.5 44.390625 14.5 40.28125 
Q 14.5 37.15625 16.890625 35.375 
Q 19.28125 33.59375 26.515625 31.984375 
L 29.59375 31.296875 
Q 39.15625 29.25 43.1875 25.515625 
Q 47.21875 21.78125 47.21875 15.09375 
Q 47.21875 7.46875 41.1875 3.015625 
Q 35.15625 -1.421875 24.609375 -1.421875 
Q 20.21875 -1.421875 15.453125 -0.5625 
Q 10.6875 0.296875 5.421875 2 
L 5.421875 11.28125 
Q 10.40625 8.6875 15.234375 7.390625 
Q 20.0625 6.109375 24.8125 6.109375 
Q 31.15625 6.109375 34.5625 8.28125 
Q 37.984375 10.453125 37.984375 14.40625 
Q 37.984375 18.0625 35.515625 20.015625 
Q 33.0625 21.96875 24.703125 23.78125 
L 21.578125 24.515625 
Q 13.234375 26.265625 9.515625 29.90625 
Q 5.8125 33.546875 5.8125 39.890625 
Q 5.8125 47.609375 11.28125 51.796875 
Q 16.75 56 26.8125 56 
Q 31.78125 56 36.171875 55.265625 
Q 40.578125 54.546875 44.28125 53.078125 
z
" id="DejaVuSans-115"/>
      <path d="M 48.78125 52.59375 
L 48.78125 44.1875 
Q 44.96875 46.296875 41.140625 47.34375 
Q 37.3125 48.390625 33.40625 48.390625 
Q 24.65625 48.390625 19.8125 42.84375 
Q 14.984375 37.3125 14.984375 27.296875 
Q 14.984375 17.28125 19.8125 11.734375 
Q 24.65625 6.203125 33.40625 6.203125 
Q 37.3125 6.203125 41.140625 7.25 
Q 44.96875 8.296875 48.78125 10.40625 
L 48.78125 2.09375 
Q 45.015625 0.34375 40.984375 -0.53125 
Q 36.96875 -1.421875 32.421875 -1.421875 
Q 20.0625 -1.421875 12.78125 6.34375 
Q 5.515625 14.109375 5.515625 27.296875 
Q 5.515625 40.671875 12.859375 48.328125 
Q 20.21875 56 33.015625 56 
Q 37.15625 56 41.109375 55.140625 
Q 45.0625 54.296875 48.78125 52.59375 
z
" id="DejaVuSans-99"/>
      <path d="M 30.609375 48.390625 
Q 23.390625 48.390625 19.1875 42.75 
Q 14.984375 37.109375 14.984375 27.296875 
Q 14.984375 17.484375 19.15625 11.84375 
Q 23.34375 6.203125 30.609375 6.203125 
Q 37.796875 6.203125 41.984375 11.859375 
Q 46.1875 17.53125 46.1875 27.296875 
Q 46.1875 37.015625 41.984375 42.703125 
Q 37.796875 48.390625 30.609375 48.390625 
z
M 30.609375 56 
Q 42.328125 56 49.015625 48.375 
Q 55.71875 40.765625 55.71875 27.296875 
Q 55.71875 13.875 49.015625 6.21875 
Q 42.328125 -1.421875 30.609375 -1.421875 
Q 18.84375 -1.421875 12.171875 6.21875 
Q 5.515625 13.875 5.515625 27.296875 
Q 5.515625 40.765625 12.171875 48.375 
Q 18.84375 56 30.609375 56 
z
" id="DejaVuSans-111"/>
      <path d="M 54.890625 33.015625 
L 54.890625 0 
L 45.90625 0 
L 45.90625 32.71875 
Q 45.90625 40.484375 42.875 44.328125 
Q 39.84375 48.1875 33.796875 48.1875 
Q 26.515625 48.1875 22.3125 43.546875 
Q 18.109375 38.921875 18.109375 30.90625 
L 18.109375 0 
L 9.078125 0 
L 9.078125 54.6875 
L 18.109375 54.6875 
L 18.109375 46.1875 
Q 21.34375 51.125 25.703125 53.5625 
Q 30.078125 56 35.796875 56 
Q 45.21875 56 50.046875 50.171875 
Q 54.890625 44.34375 54.890625 33.015625 
z
" id="DejaVuSans-110"/>
      <path d="M 45.40625 46.390625 
L 45.40625 75.984375 
L 54.390625 75.984375 
L 54.390625 0 
L 45.40625 0 
L 45.40625 8.203125 
Q 42.578125 3.328125 38.25 0.953125 
Q 33.9375 -1.421875 27.875 -1.421875 
Q 17.96875 -1.421875 11.734375 6.484375 
Q 5.515625 14.40625 5.515625 27.296875 
Q 5.515625 40.1875 11.734375 48.09375 
Q 17.96875 56 27.875 56 
Q 33.9375 56 38.25 53.625 
Q 42.578125 51.265625 45.40625 46.390625 
z
M 14.796875 27.296875 
Q 14.796875 17.390625 18.875 11.75 
Q 22.953125 6.109375 30.078125 6.109375 
Q 37.203125 6.109375 41.296875 11.75 
Q 45.40625 17.390625 45.40625 27.296875 
Q 45.40625 37.203125 41.296875 42.84375 
Q 37.203125 48.484375 30.078125 48.484375 
Q 22.953125 48.484375 18.875 42.84375 
Q 14.796875 37.203125 14.796875 27.296875 
z
" id="DejaVuSans-100"/>
      <path d="M 8.015625 75.875 
L 15.828125 75.875 
Q 23.140625 64.359375 26.78125 53.3125 
Q 30.421875 42.28125 30.421875 31.390625 
Q 30.421875 20.453125 26.78125 9.375 
Q 23.140625 -1.703125 15.828125 -13.1875 
L 8.015625 -13.1875 
Q 14.5 -2 17.703125 9.0625 
Q 20.90625 20.125 20.90625 31.390625 
Q 20.90625 42.671875 17.703125 53.65625 
Q 14.5 64.65625 8.015625 75.875 
z
" id="DejaVuSans-41"/>
     </defs>
     <g transform="translate(197.76 335.860562)scale(0.1 -0.1)">
      <use transform="translate(0 0.015625)" xlink:href="#DejaVuSans-84"/>
      <use transform="translate(61.083984 0.015625)" xlink:href="#DejaVuSans-105"/>
      <use transform="translate(88.867188 0.015625)" xlink:href="#DejaVuSans-109"/>
      <use transform="translate(186.279297 0.015625)" xlink:href="#DejaVuSans-101"/>
      <use transform="translate(280.273113 0.015625)" xlink:href="#DejaVuSans-40"/>
      <use transform="translate(319.286785 0.015625)" xlink:href="#DejaVuSans-115"/>
      <use transform="translate(371.386394 0.015625)" xlink:href="#DejaVuSans-101"/>
      <use transform="translate(432.909832 0.015625)" xlink:href="#DejaVuSans-99"/>
      <use transform="translate(487.8903 0.015625)" xlink:href="#DejaVuSans-111"/>
      <use transform="translate(549.071941 0.015625)" xlink:href="#DejaVuSans-110"/>
      <use transform="translate(612.450847 0.015625)" xlink:href="#DejaVuSans-100"/>
      <use transform="translate(675.92741 0.015625)" xlink:href="#DejaVuSans-115"/>
      <use transform="translate(728.027019 0.015625)" xlink:href="#DejaVuSans-41"/>
     </g>
    </g>
   </g>
   <g id="matplotlib.axis_2">
    <g id="ytick_1">
     <g id="line2d_13">
      <path clip-path="url(#p61aeb0c134)" d="M 57.6 249.635273 
L 414.72 249.635273 
" style="fill:none;stroke:#b0b0b0;stroke-linecap:square;stroke-width:0.8;"/>
     </g>
     <g id="line2d_14">
      <defs>
       <path d="M 0 0 
L -3.5 0 
" id="maf4f01610d" style="stroke:#000000;stroke-width:0.8;"/>
      </defs>
      <g>
       <use style="stroke:#000000;stroke-width:0.8;" x="57.6" xlink:href="#maf4f01610d" y="249.635273"/>
      </g>
     </g>
     <g id="text_8">
      <!-- $\mathdefault{10^{-1}}$ -->
      <defs>
       <path d="M 10.59375 35.5 
L 73.1875 35.5 
L 73.1875 27.203125 
L 10.59375 27.203125 
z
" id="DejaVuSans-8722"/>
      </defs>
      <g transform="translate(27.1 253.434492)scale(0.1 -0.1)">
       <use transform="translate(0 0.684375)" xlink:href="#DejaVuSans-49"/>
       <use transform="translate(63.623047 0.684375)" xlink:href="#DejaVuSans-48"/>
       <use transform="translate(128.203125 38.965625)scale(0.7)" xlink:href="#DejaVuSans-8722"/>
       <use transform="translate(186.855469 38.965625)scale(0.7)" xlink:href="#DejaVuSans-49"/>
      </g>
     </g>
    </g>
    <g id="ytick_2">
     <g id="line2d_15">
      <defs>
       <path d="M 0 0 
L -2 0 
" id="m4c5197dfe3" style="stroke:#000000;stroke-width:0.6;"/>
      </defs>
      <g>
       <use style="stroke:#000000;stroke-width:0.6;" x="57.6" xlink:href="#m4c5197dfe3" y="306.979307"/>
      </g>
     </g>
    </g>
    <g id="ytick_3">
     <g id="line2d_16">
      <g>
       <use style="stroke:#000000;stroke-width:0.6;" x="57.6" xlink:href="#m4c5197dfe3" y="289.674729"/>
      </g>
     </g>
    </g>
    <g id="ytick_4">
     <g id="line2d_17">
      <g>
       <use style="stroke:#000000;stroke-width:0.6;" x="57.6" xlink:href="#m4c5197dfe3" y="274.684822"/>
      </g>
     </g>
    </g>
    <g id="ytick_5">
     <g id="line2d_18">
      <g>
       <use style="stroke:#000000;stroke-width:0.6;" x="57.6" xlink:href="#m4c5197dfe3" y="261.462787"/>
      </g>
     </g>
    </g>
    <g id="ytick_6">
     <g id="line2d_19">
      <g>
       <use style="stroke:#000000;stroke-width:0.6;" x="57.6" xlink:href="#m4c5197dfe3" y="171.824268"/>
      </g>
     </g>
    </g>
    <g id="ytick_7">
     <g id="line2d_20">
      <g>
       <use style="stroke:#000000;stroke-width:0.6;" x="57.6" xlink:href="#m4c5197dfe3" y="126.307747"/>
      </g>
     </g>
    </g>
    <g id="ytick_8">
     <g id="line2d_21">
      <g>
       <use style="stroke:#000000;stroke-width:0.6;" x="57.6" xlink:href="#m4c5197dfe3" y="94.013262"/>
      </g>
     </g>
    </g>
    <g id="ytick_9">
     <g id="line2d_22">
      <g>
       <use style="stroke:#000000;stroke-width:0.6;" x="57.6" xlink:href="#m4c5197dfe3" y="68.963713"/>
      </g>
     </g>
    </g>
    <g id="ytick_10">
     <g id="line2d_23">
      <g>
       <use style="stroke:#000000;stroke-width:0.6;" x="57.6" xlink:href="#m4c5197dfe3" y="48.496742"/>
      </g>
     </g>
    </g>
    <g id="text_9">
     <!-- $\mathrm{Relative \ error}$ ($N_{\mathrm{train}}=20$) -->
     <defs>
      <path d="M 44.390625 34.1875 
Q 47.5625 33.109375 50.5625 29.59375 
Q 53.5625 26.078125 56.59375 19.921875 
L 66.609375 0 
L 56 0 
L 46.6875 18.703125 
Q 43.0625 26.03125 39.671875 28.421875 
Q 36.28125 30.8125 30.421875 30.8125 
L 19.671875 30.8125 
L 19.671875 0 
L 9.8125 0 
L 9.8125 72.90625 
L 32.078125 72.90625 
Q 44.578125 72.90625 50.734375 67.671875 
Q 56.890625 62.453125 56.890625 51.90625 
Q 56.890625 45.015625 53.6875 40.46875 
Q 50.484375 35.9375 44.390625 34.1875 
z
M 19.671875 64.796875 
L 19.671875 38.921875 
L 32.078125 38.921875 
Q 39.203125 38.921875 42.84375 42.21875 
Q 46.484375 45.515625 46.484375 51.90625 
Q 46.484375 58.296875 42.84375 61.546875 
Q 39.203125 64.796875 32.078125 64.796875 
z
" id="DejaVuSans-82"/>
      <path d="M 9.421875 75.984375 
L 18.40625 75.984375 
L 18.40625 0 
L 9.421875 0 
z
" id="DejaVuSans-108"/>
      <path d="M 34.28125 27.484375 
Q 23.390625 27.484375 19.1875 25 
Q 14.984375 22.515625 14.984375 16.5 
Q 14.984375 11.71875 18.140625 8.90625 
Q 21.296875 6.109375 26.703125 6.109375 
Q 34.1875 6.109375 38.703125 11.40625 
Q 43.21875 16.703125 43.21875 25.484375 
L 43.21875 27.484375 
z
M 52.203125 31.203125 
L 52.203125 0 
L 43.21875 0 
L 43.21875 8.296875 
Q 40.140625 3.328125 35.546875 0.953125 
Q 30.953125 -1.421875 24.3125 -1.421875 
Q 15.921875 -1.421875 10.953125 3.296875 
Q 6 8.015625 6 15.921875 
Q 6 25.140625 12.171875 29.828125 
Q 18.359375 34.515625 30.609375 34.515625 
L 43.21875 34.515625 
L 43.21875 35.40625 
Q 43.21875 41.609375 39.140625 45 
Q 35.0625 48.390625 27.6875 48.390625 
Q 23 48.390625 18.546875 47.265625 
Q 14.109375 46.140625 10.015625 43.890625 
L 10.015625 52.203125 
Q 14.9375 54.109375 19.578125 55.046875 
Q 24.21875 56 28.609375 56 
Q 40.484375 56 46.34375 49.84375 
Q 52.203125 43.703125 52.203125 31.203125 
z
" id="DejaVuSans-97"/>
      <path d="M 18.3125 70.21875 
L 18.3125 54.6875 
L 36.8125 54.6875 
L 36.8125 47.703125 
L 18.3125 47.703125 
L 18.3125 18.015625 
Q 18.3125 11.328125 20.140625 9.421875 
Q 21.96875 7.515625 27.59375 7.515625 
L 36.8125 7.515625 
L 36.8125 0 
L 27.59375 0 
Q 17.1875 0 13.234375 3.875 
Q 9.28125 7.765625 9.28125 18.015625 
L 9.28125 47.703125 
L 2.6875 47.703125 
L 2.6875 54.6875 
L 9.28125 54.6875 
L 9.28125 70.21875 
z
" id="DejaVuSans-116"/>
      <path d="M 2.984375 54.6875 
L 12.5 54.6875 
L 29.59375 8.796875 
L 46.6875 54.6875 
L 56.203125 54.6875 
L 35.6875 0 
L 23.484375 0 
z
" id="DejaVuSans-118"/>
      <path d="M 41.109375 46.296875 
Q 39.59375 47.171875 37.8125 47.578125 
Q 36.03125 48 33.890625 48 
Q 26.265625 48 22.1875 43.046875 
Q 18.109375 38.09375 18.109375 28.8125 
L 18.109375 0 
L 9.078125 0 
L 9.078125 54.6875 
L 18.109375 54.6875 
L 18.109375 46.1875 
Q 20.953125 51.171875 25.484375 53.578125 
Q 30.03125 56 36.53125 56 
Q 37.453125 56 38.578125 55.875 
Q 39.703125 55.765625 41.0625 55.515625 
z
" id="DejaVuSans-114"/>
      <path id="DejaVuSans-32"/>
      <path d="M 16.890625 72.90625 
L 30.171875 72.90625 
L 50.296875 10.40625 
L 62.5 72.90625 
L 72.125 72.90625 
L 57.90625 0 
L 44.578125 0 
L 24.515625 62.890625 
L 12.3125 0 
L 2.6875 0 
z
" id="DejaVuSans-Oblique-78"/>
      <path d="M 10.59375 45.40625 
L 73.1875 45.40625 
L 73.1875 37.203125 
L 10.59375 37.203125 
z
M 10.59375 25.484375 
L 73.1875 25.484375 
L 73.1875 17.1875 
L 10.59375 17.1875 
z
" id="DejaVuSans-61"/>
     </defs>
     <g transform="translate(21.020312 238.878)rotate(-90)scale(0.1 -0.1)">
      <use transform="translate(0 0.015625)" xlink:href="#DejaVuSans-82"/>
      <use transform="translate(69.482422 0.015625)" xlink:href="#DejaVuSans-101"/>
      <use transform="translate(131.005859 0.015625)" xlink:href="#DejaVuSans-108"/>
      <use transform="translate(158.789062 0.015625)" xlink:href="#DejaVuSans-97"/>
      <use transform="translate(220.068359 0.015625)" xlink:href="#DejaVuSans-116"/>
      <use transform="translate(259.277344 0.015625)" xlink:href="#DejaVuSans-105"/>
      <use transform="translate(287.060547 0.015625)" xlink:href="#DejaVuSans-118"/>
      <use transform="translate(346.240234 0.015625)" xlink:href="#DejaVuSans-101"/>
      <use transform="translate(440.23405 0.015625)" xlink:href="#DejaVuSans-101"/>
      <use transform="translate(501.757488 0.015625)" xlink:href="#DejaVuSans-114"/>
      <use transform="translate(542.870769 0.015625)" xlink:href="#DejaVuSans-114"/>
      <use transform="translate(583.98405 0.015625)" xlink:href="#DejaVuSans-111"/>
      <use transform="translate(645.165691 0.015625)" xlink:href="#DejaVuSans-114"/>
      <use transform="translate(686.278972 0.015625)" xlink:href="#DejaVuSans-32"/>
      <use transform="translate(718.066082 0.015625)" xlink:href="#DejaVuSans-40"/>
      <use transform="translate(757.079753 0.015625)" xlink:href="#DejaVuSans-Oblique-78"/>
      <use transform="translate(831.884441 -16.390625)scale(0.7)" xlink:href="#DejaVuSans-116"/>
      <use transform="translate(859.33073 -16.390625)scale(0.7)" xlink:href="#DejaVuSans-114"/>
      <use transform="translate(888.110027 -16.390625)scale(0.7)" xlink:href="#DejaVuSans-97"/>
      <use transform="translate(931.005535 -16.390625)scale(0.7)" xlink:href="#DejaVuSans-105"/>
      <use transform="translate(950.453777 -16.390625)scale(0.7)" xlink:href="#DejaVuSans-110"/>
      <use transform="translate(1017.035808 0.015625)" xlink:href="#DejaVuSans-61"/>
      <use transform="translate(1120.307292 0.015625)" xlink:href="#DejaVuSans-50"/>
      <use transform="translate(1183.930339 0.015625)" xlink:href="#DejaVuSans-48"/>
      <use transform="translate(1247.553386 0.015625)" xlink:href="#DejaVuSans-41"/>
     </g>
    </g>
   </g>
   <g id="line2d_24">
    <path clip-path="url(#p61aeb0c134)" d="M 73.832724 285.489735 
L 77.145522 244.716078 
L 80.458321 215.064653 
L 83.771119 191.887528 
L 87.083917 173.106994 
L 90.396716 157.57892 
L 93.709554 144.577733 
L 97.022352 133.590124 
L 100.33515 124.228979 
L 103.647949 116.193489 
L 106.960747 109.246895 
L 110.273545 103.201523 
L 113.586344 97.907977 
L 116.899142 93.246662 
L 120.21194 89.121288 
L 123.524738 85.45389 
L 126.837537 82.180908 
L 130.150375 79.250174 
L 133.463173 76.618634 
L 136.775971 74.250706 
L 140.08877 72.116598 
L 143.401568 70.19149 
L 146.714366 68.454502 
L 150.027165 66.8881 
L 153.339963 65.4776 
L 156.652761 64.210766 
L 159.96556 63.077258 
L 163.278358 62.068426 
L 166.591156 61.177175 
L 169.903955 60.39753 
L 173.216753 59.724749 
L 176.529551 59.155013 
L 179.842389 58.68535 
L 183.155187 58.313644 
L 186.467986 58.038457 
L 189.780784 57.859142 
L 193.093582 57.775799 
L 196.406381 57.789415 
L 199.719179 57.901819 
L 203.031977 58.115859 
L 206.344776 58.435237 
L 209.657574 58.864865 
L 212.970412 59.41067 
L 216.28321 60.079847 
L 219.596008 60.880814 
L 222.908807 61.82315 
L 226.221605 62.917307 
L 229.534403 64.173855 
L 232.847202 65.601729 
L 236.16 67.204793 
L 239.472798 68.975771 
L 246.098395 72.883634 
L 252.723992 76.795383 
L 256.03679 78.539492 
L 259.349588 80.064787 
L 262.662387 81.351098 
L 265.975185 82.402243 
L 269.288023 83.235991 
L 272.600821 83.876085 
L 275.913619 84.347348 
L 279.226418 84.673351 
L 282.539216 84.87524 
L 285.852014 84.971749 
L 289.164852 84.978995 
L 295.790449 84.779724 
L 302.416045 84.367156 
L 309.041642 83.807804 
L 318.980037 82.799616 
L 352.10806 79.202043 
L 362.046455 78.320341 
L 371.984889 77.62698 
L 378.610486 77.29364 
L 385.236083 77.080747 
L 391.861679 77.004544 
L 398.487276 77.083179 
" style="fill:none;stroke:#ff0000;stroke-linecap:square;stroke-width:1.5;"/>
   </g>
   <g id="line2d_25">
    <path clip-path="url(#p61aeb0c134)" d="M 73.832724 285.786896 
L 77.145522 244.997471 
L 80.458321 215.331502 
L 83.771119 192.138843 
L 87.083917 173.343267 
L 90.396716 157.800747 
L 93.709554 144.785909 
L 97.022352 133.785393 
L 100.33515 124.412198 
L 103.647949 116.365492 
L 106.960747 109.408291 
L 110.273545 103.353006 
L 113.586344 98.05012 
L 116.899142 93.38005 
L 120.21194 89.246446 
L 123.524738 85.571261 
L 126.837537 82.29085 
L 130.150375 79.353025 
L 133.463173 76.714778 
L 136.775971 74.340314 
L 140.08877 72.199918 
L 143.401568 70.268708 
L 146.714366 68.525768 
L 150.027165 66.953541 
L 153.339963 65.537421 
L 156.652761 64.265001 
L 159.96556 63.12598 
L 163.278358 62.111726 
L 166.591156 61.215074 
L 169.903955 60.430107 
L 173.216753 59.75199 
L 176.529551 59.176916 
L 179.842389 58.701898 
L 183.155187 58.324769 
L 186.467986 58.044151 
L 189.780784 57.859336 
L 193.093582 57.770409 
L 196.406381 57.778295 
L 199.719179 57.884819 
L 203.031977 58.092716 
L 206.344776 58.405682 
L 209.657574 58.828509 
L 212.970412 59.367035 
L 216.28321 60.028326 
L 219.596008 60.820635 
L 222.908807 61.753328 
L 226.221605 62.83655 
L 229.534403 64.08049 
L 232.847202 65.49348 
L 236.16 67.078775 
L 239.472798 68.828301 
L 246.098395 72.683043 
L 252.723992 76.542221 
L 256.03679 78.267038 
L 259.349588 79.77856 
L 262.662387 81.05569 
L 265.975185 82.100885 
L 269.288023 82.930851 
L 272.600821 83.568502 
L 275.913619 84.038289 
L 279.226418 84.363402 
L 282.539216 84.564827 
L 285.852014 84.661123 
L 289.164852 84.668426 
L 295.790449 84.469612 
L 302.416045 84.057912 
L 309.041642 83.49954 
L 318.980037 82.492678 
L 355.420858 78.579023 
L 365.359253 77.747027 
L 371.984889 77.300235 
L 378.610486 76.955828 
L 385.236083 76.728114 
L 391.861679 76.632439 
L 398.487276 76.685903 
" style="fill:none;stroke:#ffa500;stroke-linecap:square;stroke-width:1.5;"/>
   </g>
   <g id="line2d_26">
    <path clip-path="url(#p61aeb0c134)" d="M 73.832724 286.103663 
L 77.145522 245.286224 
L 80.458321 215.594121 
L 83.771119 192.37666 
L 87.083917 173.557858 
L 90.396716 157.994195 
L 93.709554 144.960165 
L 97.022352 133.942357 
L 100.33515 124.553572 
L 103.647949 116.492717 
L 106.960747 109.522768 
L 110.273545 103.455855 
L 113.586344 98.142433 
L 116.899142 93.462725 
L 120.21194 89.320307 
L 123.524738 85.636951 
L 126.837537 82.348964 
L 130.150375 79.404056 
L 133.463173 76.759022 
L 136.775971 74.378126 
L 140.08877 72.231532 
L 143.401568 70.294347 
L 146.714366 68.545552 
L 150.027165 66.96762 
L 153.339963 65.545794 
L 156.652761 64.267773 
L 159.96556 63.123147 
L 163.278358 62.103304 
L 166.591156 61.200999 
L 169.903955 60.410326 
L 173.216753 59.726412 
L 176.529551 59.145424 
L 179.842389 58.664422 
L 183.155187 58.281201 
L 186.467986 57.994393 
L 189.780784 57.803311 
L 193.093582 57.708013 
L 196.406381 57.709429 
L 199.719179 57.809357 
L 203.031977 58.010438 
L 206.344776 58.316395 
L 209.657574 58.731885 
L 212.970412 59.262704 
L 216.28321 59.915799 
L 219.596008 60.699317 
L 222.908807 61.622436 
L 226.221605 62.695024 
L 229.534403 63.926884 
L 232.847202 65.325971 
L 236.16 66.894879 
L 239.472798 68.624988 
L 246.098395 72.431573 
L 252.723992 76.238708 
L 256.03679 77.940906 
L 259.349588 79.433573 
L 262.662387 80.695574 
L 265.975185 81.728844 
L 269.288023 82.549378 
L 272.600821 83.179573 
L 275.913619 83.643256 
L 279.226418 83.963379 
L 282.539216 84.160677 
L 285.852014 84.25349 
L 289.164852 84.257861 
L 295.790449 84.054491 
L 302.416045 83.639435 
L 309.041642 83.078567 
L 318.980037 82.06887 
L 355.420858 78.143965 
L 365.359253 77.305287 
L 375.297688 76.662052 
L 381.923284 76.364119 
L 388.548881 76.187276 
L 395.174478 76.146945 
L 398.487276 76.18318 
" style="fill:none;stroke:#ff00ff;stroke-linecap:square;stroke-width:1.5;"/>
   </g>
   <g id="patch_3">
    <path d="M 57.6 307.584 
L 57.6 41.472 
" style="fill:none;stroke:#000000;stroke-linecap:square;stroke-linejoin:miter;stroke-width:0.8;"/>
   </g>
   <g id="patch_4">
    <path d="M 414.72 307.584 
L 414.72 41.472 
" style="fill:none;stroke:#000000;stroke-linecap:square;stroke-linejoin:miter;stroke-width:0.8;"/>
   </g>
   <g id="patch_5">
    <path d="M 57.6 307.584 
L 414.72 307.584 
" style="fill:none;stroke:#000000;stroke-linecap:square;stroke-linejoin:miter;stroke-width:0.8;"/>
   </g>
   <g id="patch_6">
    <path d="M 57.6 41.472 
L 414.72 41.472 
" style="fill:none;stroke:#000000;stroke-linecap:square;stroke-linejoin:miter;stroke-width:0.8;"/>
   </g>
   <g id="legend_1">
    <g id="patch_7">
     <path d="M 297.662188 302.584 
L 407.72 302.584 
Q 409.72 302.584 409.72 300.584 
L 409.72 257.549625 
Q 409.72 255.549625 407.72 255.549625 
L 297.662188 255.549625 
Q 295.662188 255.549625 295.662188 257.549625 
L 295.662188 300.584 
Q 295.662188 302.584 297.662188 302.584 
z
" style="fill:#ffffff;opacity:0.8;stroke:#cccccc;stroke-linejoin:miter;"/>
    </g>
    <g id="line2d_27">
     <path d="M 299.662188 263.648062 
L 319.662188 263.648062 
" style="fill:none;stroke:#ff0000;stroke-linecap:square;stroke-width:1.5;"/>
    </g>
    <g id="line2d_28"/>
    <g id="text_10">
     <!-- No GR -->
     <defs>
      <path d="M 9.8125 72.90625 
L 23.09375 72.90625 
L 55.421875 11.921875 
L 55.421875 72.90625 
L 64.984375 72.90625 
L 64.984375 0 
L 51.703125 0 
L 19.390625 60.984375 
L 19.390625 0 
L 9.8125 0 
z
" id="DejaVuSans-78"/>
      <path d="M 59.515625 10.40625 
L 59.515625 29.984375 
L 43.40625 29.984375 
L 43.40625 38.09375 
L 69.28125 38.09375 
L 69.28125 6.78125 
Q 63.578125 2.734375 56.6875 0.65625 
Q 49.8125 -1.421875 42 -1.421875 
Q 24.90625 -1.421875 15.25 8.5625 
Q 5.609375 18.5625 5.609375 36.375 
Q 5.609375 54.25 15.25 64.234375 
Q 24.90625 74.21875 42 74.21875 
Q 49.125 74.21875 55.546875 72.453125 
Q 61.96875 70.703125 67.390625 67.28125 
L 67.390625 56.78125 
Q 61.921875 61.421875 55.765625 63.765625 
Q 49.609375 66.109375 42.828125 66.109375 
Q 29.4375 66.109375 22.71875 58.640625 
Q 16.015625 51.171875 16.015625 36.375 
Q 16.015625 21.625 22.71875 14.15625 
Q 29.4375 6.6875 42.828125 6.6875 
Q 48.046875 6.6875 52.140625 7.59375 
Q 56.25 8.5 59.515625 10.40625 
z
" id="DejaVuSans-71"/>
     </defs>
     <g transform="translate(327.662188 267.148062)scale(0.1 -0.1)">
      <use xlink:href="#DejaVuSans-78"/>
      <use x="74.804688" xlink:href="#DejaVuSans-111"/>
      <use x="135.986328" xlink:href="#DejaVuSans-32"/>
      <use x="167.773438" xlink:href="#DejaVuSans-71"/>
      <use x="245.263672" xlink:href="#DejaVuSans-82"/>
     </g>
    </g>
    <g id="line2d_29">
     <path d="M 299.662188 278.326188 
L 319.662188 278.326188 
" style="fill:none;stroke:#ffa500;stroke-linecap:square;stroke-width:1.5;"/>
    </g>
    <g id="line2d_30"/>
    <g id="text_11">
     <!-- With GR -->
     <defs>
      <path d="M 3.328125 72.90625 
L 13.28125 72.90625 
L 28.609375 11.28125 
L 43.890625 72.90625 
L 54.984375 72.90625 
L 70.3125 11.28125 
L 85.59375 72.90625 
L 95.609375 72.90625 
L 77.296875 0 
L 64.890625 0 
L 49.515625 63.28125 
L 33.984375 0 
L 21.578125 0 
z
" id="DejaVuSans-87"/>
      <path d="M 54.890625 33.015625 
L 54.890625 0 
L 45.90625 0 
L 45.90625 32.71875 
Q 45.90625 40.484375 42.875 44.328125 
Q 39.84375 48.1875 33.796875 48.1875 
Q 26.515625 48.1875 22.3125 43.546875 
Q 18.109375 38.921875 18.109375 30.90625 
L 18.109375 0 
L 9.078125 0 
L 9.078125 75.984375 
L 18.109375 75.984375 
L 18.109375 46.1875 
Q 21.34375 51.125 25.703125 53.5625 
Q 30.078125 56 35.796875 56 
Q 45.21875 56 50.046875 50.171875 
Q 54.890625 44.34375 54.890625 33.015625 
z
" id="DejaVuSans-104"/>
     </defs>
     <g transform="translate(327.662188 281.826188)scale(0.1 -0.1)">
      <use xlink:href="#DejaVuSans-87"/>
      <use x="98.845703" xlink:href="#DejaVuSans-105"/>
      <use x="126.628906" xlink:href="#DejaVuSans-116"/>
      <use x="165.837891" xlink:href="#DejaVuSans-104"/>
      <use x="229.216797" xlink:href="#DejaVuSans-32"/>
      <use x="261.003906" xlink:href="#DejaVuSans-71"/>
      <use x="338.494141" xlink:href="#DejaVuSans-82"/>
     </g>
    </g>
    <g id="line2d_31">
     <path d="M 299.662188 293.004312 
L 319.662188 293.004312 
" style="fill:none;stroke:#ff00ff;stroke-linecap:square;stroke-width:1.5;"/>
    </g>
    <g id="line2d_32"/>
    <g id="text_12">
     <!-- With double GR -->
     <defs>
      <path d="M 8.5 21.578125 
L 8.5 54.6875 
L 17.484375 54.6875 
L 17.484375 21.921875 
Q 17.484375 14.15625 20.5 10.265625 
Q 23.53125 6.390625 29.59375 6.390625 
Q 36.859375 6.390625 41.078125 11.03125 
Q 45.3125 15.671875 45.3125 23.6875 
L 45.3125 54.6875 
L 54.296875 54.6875 
L 54.296875 0 
L 45.3125 0 
L 45.3125 8.40625 
Q 42.046875 3.421875 37.71875 1 
Q 33.40625 -1.421875 27.6875 -1.421875 
Q 18.265625 -1.421875 13.375 4.4375 
Q 8.5 10.296875 8.5 21.578125 
z
M 31.109375 56 
z
" id="DejaVuSans-117"/>
      <path d="M 48.6875 27.296875 
Q 48.6875 37.203125 44.609375 42.84375 
Q 40.53125 48.484375 33.40625 48.484375 
Q 26.265625 48.484375 22.1875 42.84375 
Q 18.109375 37.203125 18.109375 27.296875 
Q 18.109375 17.390625 22.1875 11.75 
Q 26.265625 6.109375 33.40625 6.109375 
Q 40.53125 6.109375 44.609375 11.75 
Q 48.6875 17.390625 48.6875 27.296875 
z
M 18.109375 46.390625 
Q 20.953125 51.265625 25.265625 53.625 
Q 29.59375 56 35.59375 56 
Q 45.5625 56 51.78125 48.09375 
Q 58.015625 40.1875 58.015625 27.296875 
Q 58.015625 14.40625 51.78125 6.484375 
Q 45.5625 -1.421875 35.59375 -1.421875 
Q 29.59375 -1.421875 25.265625 0.953125 
Q 20.953125 3.328125 18.109375 8.203125 
L 18.109375 0 
L 9.078125 0 
L 9.078125 75.984375 
L 18.109375 75.984375 
z
" id="DejaVuSans-98"/>
     </defs>
     <g transform="translate(327.662188 296.504312)scale(0.1 -0.1)">
      <use xlink:href="#DejaVuSans-87"/>
      <use x="98.845703" xlink:href="#DejaVuSans-105"/>
      <use x="126.628906" xlink:href="#DejaVuSans-116"/>
      <use x="165.837891" xlink:href="#DejaVuSans-104"/>
      <use x="229.216797" xlink:href="#DejaVuSans-32"/>
      <use x="261.003906" xlink:href="#DejaVuSans-100"/>
      <use x="324.480469" xlink:href="#DejaVuSans-111"/>
      <use x="385.662109" xlink:href="#DejaVuSans-117"/>
      <use x="449.041016" xlink:href="#DejaVuSans-98"/>
      <use x="512.517578" xlink:href="#DejaVuSans-108"/>
      <use x="540.300781" xlink:href="#DejaVuSans-101"/>
      <use x="601.824219" xlink:href="#DejaVuSans-32"/>
      <use x="633.611328" xlink:href="#DejaVuSans-71"/>
      <use x="711.101562" xlink:href="#DejaVuSans-82"/>
     </g>
    </g>
   </g>
  </g>
 </g>
 <defs>
  <clipPath id="p61aeb0c134">
   <rect height="266.112" width="357.12" x="57.6" y="41.472"/>
  </clipPath>
 </defs>
</svg>
