<?xml version="1.0" encoding="utf-8" standalone="no"?>
<!DOCTYPE svg PUBLIC "-//W3C//DTD SVG 1.1//EN"
  "http://www.w3.org/Graphics/SVG/1.1/DTD/svg11.dtd">
<!-- Created with matplotlib (https://matplotlib.org/) -->
<svg height="345.6pt" version="1.1" viewBox="0 0 460.8 345.6" width="460.8pt" xmlns="http://www.w3.org/2000/svg" xmlns:xlink="http://www.w3.org/1999/xlink">
 <defs>
  <style type="text/css">
*{stroke-linecap:butt;stroke-linejoin:round;white-space:pre;}
  </style>
 </defs>
 <g id="figure_1">
  <g id="patch_1">
   <path d="M 0 345.6 
L 460.8 345.6 
L 460.8 0 
L 0 0 
z
" style="fill:#ffffff;"/>
  </g>
  <g id="axes_1">
   <g id="patch_2">
    <path d="M 57.6 307.584 
L 414.72 307.584 
L 414.72 41.472 
L 57.6 41.472 
z
" style="fill:#ffffff;"/>
   </g>
   <g id="PolyCollection_1">
    <path clip-path="url(#p618a4e4de4)" d="M 73.832727 286.403848 
L 73.832727 295.461356 
L 77.145529 256.433782 
L 80.45833 228.093355 
L 83.771132 205.920396 
L 87.083933 187.892391 
L 90.396735 172.906091 
L 93.709536 160.267812 
L 97.022338 149.494127 
L 100.335139 140.225663 
L 103.647941 132.185819 
L 106.960742 125.15788 
L 110.273544 118.970322 
L 113.586345 113.486362 
L 116.899147 108.596154 
L 120.211948 104.210857 
L 123.52475 100.258106 
L 126.837551 96.678527 
L 130.150353 93.423059 
L 133.463154 90.450881 
L 136.775955 87.727811 
L 140.088757 85.225044 
L 143.401558 82.918169 
L 146.71436 80.786383 
L 150.027161 78.811874 
L 153.339963 76.979322 
L 156.652764 75.275497 
L 159.965566 73.688931 
L 163.278367 72.20966 
L 166.591169 70.828998 
L 169.90397 69.539368 
L 173.216772 68.334149 
L 176.529573 67.207558 
L 179.842375 66.154551 
L 183.155176 65.17074 
L 186.467978 64.252329 
L 189.780779 63.396055 
L 193.093581 62.599152 
L 196.406382 61.859312 
L 199.719184 61.174663 
L 203.031985 60.54375 
L 206.344787 59.96552 
L 209.657588 59.439321 
L 212.97039 58.964891 
L 216.283191 58.542358 
L 219.595993 58.172236 
L 222.908794 57.855415 
L 226.221596 57.593141 
L 229.534397 57.386983 
L 232.847199 57.238778 
L 236.16 57.150541 
L 239.472801 57.124344 
L 242.785603 57.162148 
L 246.098404 57.265594 
L 249.411206 57.435754 
L 252.724007 57.672857 
L 256.036809 57.976021 
L 259.34961 58.343001 
L 262.662412 58.770025 
L 265.975213 59.251713 
L 269.288015 59.781147 
L 272.600816 60.350075 
L 275.913618 60.949267 
L 279.226419 61.568972 
L 282.539221 62.199427 
L 285.852022 62.831355 
L 289.164824 63.456382 
L 292.477625 64.067343 
L 295.790427 64.658441 
L 299.103228 65.225282 
L 302.41603 65.764815 
L 305.728831 66.275197 
L 309.041633 66.755623 
L 312.354434 67.206152 
L 315.667236 67.627528 
L 318.980037 68.021033 
L 322.292839 68.388353 
L 325.60564 68.731468 
L 328.918442 69.052568 
L 332.231243 69.353982 
L 335.544045 69.638124 
L 338.856846 69.907451 
L 342.169647 70.164436 
L 345.482449 70.411537 
L 348.79525 70.651184 
L 352.108052 70.885765 
L 355.420853 71.117613 
L 358.733655 71.349 
L 362.046456 71.58213 
L 365.359258 71.819131 
L 368.672059 72.062056 
L 371.984861 72.312871 
L 375.297662 72.573451 
L 378.610464 72.845572 
L 381.923265 73.130897 
L 385.236067 73.430949 
L 388.548868 73.747089 
L 391.86167 74.080466 
L 395.174471 74.431958 
L 398.487273 74.802082 
L 398.487273 69.751739 
L 398.487273 69.751739 
L 395.174471 69.427897 
L 391.86167 69.123343 
L 388.548868 68.837043 
L 385.236067 68.567754 
L 381.923265 68.314067 
L 378.610464 68.074449 
L 375.297662 67.847259 
L 371.984861 67.630764 
L 368.672059 67.423147 
L 365.359258 67.222512 
L 362.046456 67.026883 
L 358.733655 66.834214 
L 355.420853 66.642382 
L 352.108052 66.449194 
L 348.79525 66.252394 
L 345.482449 66.049659 
L 342.169647 65.838614 
L 338.856846 65.616838 
L 335.544045 65.381878 
L 332.231243 65.131263 
L 328.918442 64.862527 
L 325.60564 64.573242 
L 322.292839 64.26105 
L 318.980037 63.923721 
L 315.667236 63.559221 
L 312.354434 63.165798 
L 309.041633 62.7421 
L 305.728831 62.28731 
L 302.41603 61.801319 
L 299.103228 61.284911 
L 295.790427 60.739972 
L 292.477625 60.16968 
L 289.164824 59.578669 
L 285.852022 58.973104 
L 282.539221 58.360648 
L 279.226419 57.750263 
L 275.913618 57.151856 
L 272.600816 56.575779 
L 269.288015 56.032243 
L 265.975213 55.530732 
L 262.662412 55.07949 
L 259.34961 54.685158 
L 256.036809 54.352584 
L 252.724007 54.084817 
L 249.411206 53.883249 
L 246.098404 53.747875 
L 242.785603 53.677604 
L 239.472801 53.670591 
L 236.16 53.72455 
L 232.847199 53.837013 
L 229.534397 54.005539 
L 226.221596 54.227868 
L 222.908794 54.50202 
L 219.595993 54.826365 
L 216.283191 55.199649 
L 212.97039 55.621015 
L 209.657588 56.090002 
L 206.344787 56.606546 
L 203.031985 57.170968 
L 199.719184 57.783974 
L 196.406382 58.446652 
L 193.093581 59.160477 
L 189.780779 59.927315 
L 186.467978 60.749447 
L 183.155176 61.629582 
L 179.842375 62.570896 
L 176.529573 63.577069 
L 173.216772 64.652337 
L 169.90397 65.801555 
L 166.591169 67.030281 
L 163.278367 68.344863 
L 159.965566 69.752561 
L 156.652764 71.26169 
L 153.339963 72.881788 
L 150.027161 74.623828 
L 146.71436 76.500472 
L 143.401558 78.526394 
L 140.088757 80.718663 
L 136.775955 83.097233 
L 133.463154 85.685552 
L 130.150353 88.511331 
L 126.837551 91.607515 
L 123.52475 95.013542 
L 120.211948 98.776945 
L 116.899147 102.95545 
L 113.586345 107.619718 
L 110.273544 112.856953 
L 106.960742 118.775674 
L 103.647941 125.512083 
L 100.335139 133.238577 
L 97.022338 142.175284 
L 93.709536 152.606193 
L 90.396735 164.903364 
L 87.083933 179.568412 
L 83.771132 197.316202 
L 80.45833 219.268617 
L 77.145529 247.458218 
L 73.832727 286.403848 
z
" style="fill:#ff0000;fill-opacity:0.4;"/>
   </g>
   <g id="PolyCollection_2">
    <path clip-path="url(#p618a4e4de4)" d="M 73.832727 286.421807 
L 73.832727 295.47858 
L 77.145529 256.448252 
L 80.45833 228.104941 
L 83.771132 205.929091 
L 87.083933 187.898233 
L 90.396735 172.909168 
L 93.709536 160.268261 
L 97.022338 149.492105 
L 100.335139 140.221346 
L 103.647941 132.179376 
L 106.960742 125.149473 
L 110.273544 118.960101 
L 113.586345 113.474465 
L 116.899147 108.582705 
L 120.211948 104.19597 
L 123.52475 100.241879 
L 126.837551 96.661048 
L 130.150353 93.404404 
L 133.463154 90.431122 
L 136.775955 87.707008 
L 140.088757 85.20325 
L 143.401558 82.89543 
L 146.71436 80.762741 
L 150.027161 78.787364 
L 153.339963 76.953974 
L 156.652764 75.249336 
L 159.965566 73.66198 
L 163.278367 72.181934 
L 166.591169 70.800511 
L 169.90397 69.510129 
L 173.216772 68.304164 
L 176.529573 67.17683 
L 179.842375 66.123081 
L 183.155176 65.138525 
L 186.467978 64.219363 
L 189.780779 63.362332 
L 193.093581 62.564662 
L 196.406382 61.824045 
L 199.719184 61.138607 
L 203.031985 60.506891 
L 206.344787 59.927846 
L 209.657588 59.400817 
L 212.97039 58.925544 
L 216.283191 58.502155 
L 219.595993 58.131166 
L 222.908794 57.813468 
L 226.221596 57.550309 
L 229.534397 57.343264 
L 232.847199 57.194172 
L 236.16 57.105053 
L 239.472801 57.077984 
L 242.785603 57.114931 
L 246.098404 57.21754 
L 249.411206 57.386887 
L 252.724007 57.623206 
L 256.036809 57.925614 
L 259.34961 58.29187 
L 262.662412 58.718197 
L 265.975213 59.199214 
L 269.288015 59.728 
L 272.600816 60.296297 
L 275.913618 60.894874 
L 279.226419 61.513973 
L 282.539221 62.14383 
L 285.852022 62.775165 
L 289.164824 63.399602 
L 292.477625 64.009974 
L 295.790427 64.60048 
L 299.103228 65.166726 
L 302.41603 65.70566 
L 305.728831 66.215439 
L 309.041633 66.695257 
L 312.354434 67.145172 
L 315.667236 67.565928 
L 318.980037 67.958809 
L 322.292839 68.325499 
L 325.60564 68.667983 
L 328.918442 68.98845 
L 332.231243 69.289231 
L 335.544045 69.57274 
L 338.856846 69.841437 
L 342.169647 70.097795 
L 345.482449 70.344274 
L 348.79525 70.583307 
L 352.108052 70.817284 
L 355.420853 71.048539 
L 358.733655 71.279349 
L 362.046456 71.511919 
L 365.359258 71.748384 
L 368.672059 71.990801 
L 371.984861 72.241142 
L 375.297662 72.501292 
L 378.610464 72.773034 
L 381.923265 73.058042 
L 385.236067 73.357856 
L 388.548868 73.67385 
L 391.86167 74.007196 
L 395.174471 74.358792 
L 398.487273 74.729188 
L 398.487273 69.598303 
L 398.487273 69.598303 
L 395.174471 69.276005 
L 391.86167 68.973094 
L 388.548868 68.688511 
L 385.236067 68.420991 
L 381.923265 68.169111 
L 378.610464 67.931327 
L 375.297662 67.705992 
L 371.984861 67.491371 
L 368.672059 67.285646 
L 365.359258 67.086921 
L 362.046456 66.893226 
L 358.733655 66.702517 
L 355.420853 66.512678 
L 352.108052 66.321522 
L 348.79525 66.126799 
L 345.482449 65.926194 
L 342.169647 65.717339 
L 338.856846 65.497822 
L 335.544045 65.265192 
L 332.231243 65.016988 
L 328.918442 64.750749 
L 325.60564 64.464049 
L 322.292839 64.154534 
L 318.980037 63.819974 
L 315.667236 63.458331 
L 312.354434 63.067849 
L 309.041633 62.647165 
L 305.728831 62.195448 
L 302.41603 61.712569 
L 299.103228 61.199289 
L 295.790427 60.657465 
L 292.477625 60.090245 
L 289.164824 59.502226 
L 285.852022 58.899545 
L 282.539221 58.289835 
L 279.226419 57.682036 
L 275.913618 57.086046 
L 272.600816 56.512215 
L 269.288015 55.970763 
L 265.975213 55.471188 
L 262.662412 55.021756 
L 259.34961 54.62913 
L 256.036809 54.298176 
L 252.724007 54.031961 
L 249.411206 53.831892 
L 246.098404 53.697971 
L 242.785603 53.629112 
L 239.472801 53.623475 
L 236.16 53.678773 
L 232.847199 53.792538 
L 229.534397 53.962329 
L 226.221596 54.185884 
L 222.908794 54.461225 
L 219.595993 54.786718 
L 216.283191 55.161111 
L 212.97039 55.583548 
L 209.657588 56.05357 
L 206.344787 56.571111 
L 203.031985 57.136496 
L 199.719184 57.750433 
L 196.406382 58.414011 
L 193.093581 59.128708 
L 189.780779 59.896394 
L 186.467978 60.719351 
L 183.155176 61.600292 
L 179.842375 62.542397 
L 176.529573 63.549346 
L 173.216772 64.625382 
L 169.90397 65.775363 
L 166.591169 67.004847 
L 163.278367 68.320189 
L 159.965566 69.728653 
L 156.652764 71.238557 
L 153.339963 72.859442 
L 150.027161 74.602287 
L 146.71436 76.479759 
L 143.401558 78.506536 
L 140.088757 80.699694 
L 136.775955 83.079191 
L 133.463154 85.668482 
L 130.150353 88.495284 
L 126.837551 91.592552 
L 123.52475 94.99973 
L 120.211948 98.76436 
L 116.899147 102.944181 
L 113.586345 107.609867 
L 110.273544 112.848632 
L 106.960742 118.769013 
L 103.647941 125.507226 
L 100.335139 133.235684 
L 97.022338 142.174531 
L 93.709536 152.607762 
L 90.396735 164.907437 
L 87.083933 179.57515 
L 83.771132 197.32573 
L 80.45833 219.28099 
L 77.145529 247.473412 
L 73.832727 286.421807 
z
" style="fill:#ffa500;fill-opacity:0.4;"/>
   </g>
   <g id="PolyCollection_3">
    <path clip-path="url(#p618a4e4de4)" d="M 73.832727 286.431661 
L 73.832727 295.488 
L 77.145529 256.454506 
L 80.45833 228.107991 
L 83.771132 205.928918 
L 87.083933 187.894873 
L 90.396735 172.902714 
L 93.709536 160.258851 
L 97.022338 149.479909 
L 100.335139 140.206541 
L 103.647941 132.162144 
L 106.960742 125.129988 
L 110.273544 118.938528 
L 113.586345 113.450952 
L 116.899147 108.557385 
L 120.211948 104.168961 
L 123.52475 100.213288 
L 126.837551 96.630967 
L 130.150353 93.372916 
L 133.463154 90.398297 
L 136.775955 87.672909 
L 140.088757 85.16793 
L 143.401558 82.858935 
L 146.71436 80.725109 
L 150.027161 78.748627 
L 153.339963 76.914159 
L 156.652764 75.208462 
L 159.965566 73.620061 
L 163.278367 72.13898 
L 166.591169 70.756527 
L 169.90397 69.465115 
L 173.216772 68.258116 
L 176.529573 67.12974 
L 179.842375 66.074935 
L 183.155176 65.089308 
L 186.467978 64.169056 
L 189.780779 63.310911 
L 193.093581 62.512103 
L 196.406382 61.770319 
L 199.719184 61.083683 
L 203.031985 60.450738 
L 206.344787 59.870431 
L 209.657588 59.342106 
L 212.97039 58.865503 
L 216.283191 58.440751 
L 219.595993 58.068368 
L 222.908794 57.749248 
L 226.221596 57.484642 
L 229.534397 57.27613 
L 232.847199 57.125556 
L 236.16 57.034949 
L 239.472801 57.006392 
L 242.785603 57.04186 
L 246.098404 57.143008 
L 249.411206 57.310919 
L 252.724007 57.545836 
L 256.036809 57.846884 
L 259.34961 58.211827 
L 262.662412 58.636894 
L 265.975213 59.116709 
L 269.288015 59.644352 
L 272.600816 60.211574 
L 275.913618 60.809147 
L 279.226419 61.427323 
L 282.539221 62.056341 
L 285.852022 62.686926 
L 289.164824 63.310704 
L 292.477625 63.920508 
L 295.790427 64.510533 
L 299.103228 65.076379 
L 302.41603 65.614988 
L 305.728831 66.124507 
L 309.041633 66.604124 
L 312.354434 67.053886 
L 315.667236 67.474532 
L 318.980037 67.867338 
L 322.292839 68.233983 
L 325.60564 68.576447 
L 328.918442 68.896917 
L 332.231243 69.197719 
L 335.544045 69.481268 
L 338.856846 69.750021 
L 342.169647 70.006452 
L 345.482449 70.253021 
L 348.79525 70.492163 
L 352.108052 70.72627 
L 355.420853 70.957681 
L 358.733655 71.188674 
L 362.046456 71.421465 
L 365.359258 71.658193 
L 368.672059 71.900925 
L 371.984861 72.151644 
L 375.297662 72.412249 
L 378.610464 72.68454 
L 381.923265 72.97021 
L 385.236067 73.270821 
L 388.548868 73.587778 
L 391.86167 73.922282 
L 395.174471 74.275274 
L 398.487273 74.647344 
L 398.487273 69.481284 
L 398.487273 69.481284 
L 395.174471 69.159846 
L 391.86167 68.857946 
L 388.548868 68.574493 
L 385.236067 68.308194 
L 381.923265 68.057612 
L 378.610464 67.821185 
L 375.297662 67.597258 
L 371.984861 67.384086 
L 368.672059 67.179847 
L 365.359258 66.982641 
L 362.046456 66.790497 
L 358.733655 66.601369 
L 355.420853 66.413141 
L 352.108052 66.223629 
L 348.79525 66.030581 
L 345.482449 65.831685 
L 342.169647 65.624574 
L 338.856846 65.406836 
L 335.544045 65.17602 
L 332.231243 64.929661 
L 328.918442 64.665297 
L 325.60564 64.380494 
L 322.292839 64.072893 
L 318.980037 63.740253 
L 315.667236 63.380526 
L 312.354434 62.991938 
L 309.041633 62.573109 
L 305.728831 62.123186 
L 302.41603 61.642019 
L 299.103228 61.130345 
L 295.790427 60.589995 
L 292.477625 60.024099 
L 289.164824 59.437242 
L 285.852022 58.835552 
L 282.539221 58.226668 
L 279.226419 57.619549 
L 275.913618 57.024119 
L 272.600816 56.450762 
L 269.288015 55.909735 
L 265.975213 55.410575 
L 262.662412 54.961577 
L 259.34961 54.569428 
L 256.036809 54.239014 
L 252.724007 53.973409 
L 249.411206 53.774019 
L 246.098404 53.640842 
L 242.785603 53.572786 
L 239.472801 53.568 
L 236.16 53.624186 
L 232.847199 53.738865 
L 229.534397 53.909587 
L 226.221596 54.134081 
L 222.908794 54.410361 
L 219.595993 54.736789 
L 216.283191 55.112106 
L 212.97039 55.535454 
L 209.657588 56.00637 
L 206.344787 56.524788 
L 203.031985 57.091031 
L 199.719184 57.705806 
L 196.406382 58.370204 
L 193.093581 59.085704 
L 189.780779 59.854175 
L 186.467978 60.677902 
L 183.155176 61.5596 
L 179.842375 62.502451 
L 176.529573 63.510138 
L 173.216772 64.586906 
L 169.90397 65.737616 
L 166.591169 66.967831 
L 163.278367 68.283907 
L 159.965566 69.693113 
L 156.652764 71.203771 
L 153.339963 72.825428 
L 150.027161 74.569065 
L 146.71436 76.447357 
L 143.401558 78.474985 
L 140.088757 80.669031 
L 136.775955 83.049462 
L 133.463154 85.639739 
L 130.150353 88.467588 
L 126.837551 91.56597 
L 123.52475 94.974342 
L 120.211948 98.740257 
L 116.899147 102.921468 
L 113.586345 107.588661 
L 110.273544 112.829068 
L 106.960742 118.751245 
L 103.647941 125.491425 
L 100.335139 133.222042 
L 97.022338 142.163254 
L 93.709536 152.599062 
L 90.396735 164.901525 
L 87.083933 179.572215 
L 83.771132 197.325921 
L 80.45833 219.284415 
L 77.145529 247.480089 
L 73.832727 286.431661 
z
" style="fill:#ff00ff;fill-opacity:0.4;"/>
   </g>
   <g id="matplotlib.axis_1">
    <g id="xtick_1">
     <g id="line2d_1">
      <path clip-path="url(#p618a4e4de4)" d="M 70.519926 307.584 
L 70.519926 41.472 
" style="fill:none;stroke:#b0b0b0;stroke-linecap:square;stroke-width:0.8;"/>
     </g>
     <g id="line2d_2">
      <defs>
       <path d="M 0 0 
L 0 3.5 
" id="m60eb3534b8" style="stroke:#000000;stroke-width:0.8;"/>
      </defs>
      <g>
       <use style="stroke:#000000;stroke-width:0.8;" x="70.519926" xlink:href="#m60eb3534b8" y="307.584"/>
      </g>
     </g>
     <g id="text_1">
      <!-- 0.0 -->
      <defs>
       <path d="M 31.78125 66.40625 
Q 24.171875 66.40625 20.328125 58.90625 
Q 16.5 51.421875 16.5 36.375 
Q 16.5 21.390625 20.328125 13.890625 
Q 24.171875 6.390625 31.78125 6.390625 
Q 39.453125 6.390625 43.28125 13.890625 
Q 47.125 21.390625 47.125 36.375 
Q 47.125 51.421875 43.28125 58.90625 
Q 39.453125 66.40625 31.78125 66.40625 
z
M 31.78125 74.21875 
Q 44.046875 74.21875 50.515625 64.515625 
Q 56.984375 54.828125 56.984375 36.375 
Q 56.984375 17.96875 50.515625 8.265625 
Q 44.046875 -1.421875 31.78125 -1.421875 
Q 19.53125 -1.421875 13.0625 8.265625 
Q 6.59375 17.96875 6.59375 36.375 
Q 6.59375 54.828125 13.0625 64.515625 
Q 19.53125 74.21875 31.78125 74.21875 
z
" id="DejaVuSans-48"/>
       <path d="M 10.6875 12.40625 
L 21 12.40625 
L 21 0 
L 10.6875 0 
z
" id="DejaVuSans-46"/>
      </defs>
      <g transform="translate(62.568363 322.182437)scale(0.1 -0.1)">
       <use xlink:href="#DejaVuSans-48"/>
       <use x="63.623047" xlink:href="#DejaVuSans-46"/>
       <use x="95.410156" xlink:href="#DejaVuSans-48"/>
      </g>
     </g>
    </g>
    <g id="xtick_2">
     <g id="line2d_3">
      <path clip-path="url(#p618a4e4de4)" d="M 136.775955 307.584 
L 136.775955 41.472 
" style="fill:none;stroke:#b0b0b0;stroke-linecap:square;stroke-width:0.8;"/>
     </g>
     <g id="line2d_4">
      <g>
       <use style="stroke:#000000;stroke-width:0.8;" x="136.775955" xlink:href="#m60eb3534b8" y="307.584"/>
      </g>
     </g>
     <g id="text_2">
      <!-- 0.2 -->
      <defs>
       <path d="M 19.1875 8.296875 
L 53.609375 8.296875 
L 53.609375 0 
L 7.328125 0 
L 7.328125 8.296875 
Q 12.9375 14.109375 22.625 23.890625 
Q 32.328125 33.6875 34.8125 36.53125 
Q 39.546875 41.84375 41.421875 45.53125 
Q 43.3125 49.21875 43.3125 52.78125 
Q 43.3125 58.59375 39.234375 62.25 
Q 35.15625 65.921875 28.609375 65.921875 
Q 23.96875 65.921875 18.8125 64.3125 
Q 13.671875 62.703125 7.8125 59.421875 
L 7.8125 69.390625 
Q 13.765625 71.78125 18.9375 73 
Q 24.125 74.21875 28.421875 74.21875 
Q 39.75 74.21875 46.484375 68.546875 
Q 53.21875 62.890625 53.21875 53.421875 
Q 53.21875 48.921875 51.53125 44.890625 
Q 49.859375 40.875 45.40625 35.40625 
Q 44.1875 33.984375 37.640625 27.21875 
Q 31.109375 20.453125 19.1875 8.296875 
z
" id="DejaVuSans-50"/>
      </defs>
      <g transform="translate(128.824393 322.182437)scale(0.1 -0.1)">
       <use xlink:href="#DejaVuSans-48"/>
       <use x="63.623047" xlink:href="#DejaVuSans-46"/>
       <use x="95.410156" xlink:href="#DejaVuSans-50"/>
      </g>
     </g>
    </g>
    <g id="xtick_3">
     <g id="line2d_5">
      <path clip-path="url(#p618a4e4de4)" d="M 203.031985 307.584 
L 203.031985 41.472 
" style="fill:none;stroke:#b0b0b0;stroke-linecap:square;stroke-width:0.8;"/>
     </g>
     <g id="line2d_6">
      <g>
       <use style="stroke:#000000;stroke-width:0.8;" x="203.031985" xlink:href="#m60eb3534b8" y="307.584"/>
      </g>
     </g>
     <g id="text_3">
      <!-- 0.4 -->
      <defs>
       <path d="M 37.796875 64.3125 
L 12.890625 25.390625 
L 37.796875 25.390625 
z
M 35.203125 72.90625 
L 47.609375 72.90625 
L 47.609375 25.390625 
L 58.015625 25.390625 
L 58.015625 17.1875 
L 47.609375 17.1875 
L 47.609375 0 
L 37.796875 0 
L 37.796875 17.1875 
L 4.890625 17.1875 
L 4.890625 26.703125 
z
" id="DejaVuSans-52"/>
      </defs>
      <g transform="translate(195.080423 322.182437)scale(0.1 -0.1)">
       <use xlink:href="#DejaVuSans-48"/>
       <use x="63.623047" xlink:href="#DejaVuSans-46"/>
       <use x="95.410156" xlink:href="#DejaVuSans-52"/>
      </g>
     </g>
    </g>
    <g id="xtick_4">
     <g id="line2d_7">
      <path clip-path="url(#p618a4e4de4)" d="M 269.288015 307.584 
L 269.288015 41.472 
" style="fill:none;stroke:#b0b0b0;stroke-linecap:square;stroke-width:0.8;"/>
     </g>
     <g id="line2d_8">
      <g>
       <use style="stroke:#000000;stroke-width:0.8;" x="269.288015" xlink:href="#m60eb3534b8" y="307.584"/>
      </g>
     </g>
     <g id="text_4">
      <!-- 0.6 -->
      <defs>
       <path d="M 33.015625 40.375 
Q 26.375 40.375 22.484375 35.828125 
Q 18.609375 31.296875 18.609375 23.390625 
Q 18.609375 15.53125 22.484375 10.953125 
Q 26.375 6.390625 33.015625 6.390625 
Q 39.65625 6.390625 43.53125 10.953125 
Q 47.40625 15.53125 47.40625 23.390625 
Q 47.40625 31.296875 43.53125 35.828125 
Q 39.65625 40.375 33.015625 40.375 
z
M 52.59375 71.296875 
L 52.59375 62.3125 
Q 48.875 64.0625 45.09375 64.984375 
Q 41.3125 65.921875 37.59375 65.921875 
Q 27.828125 65.921875 22.671875 59.328125 
Q 17.53125 52.734375 16.796875 39.40625 
Q 19.671875 43.65625 24.015625 45.921875 
Q 28.375 48.1875 33.59375 48.1875 
Q 44.578125 48.1875 50.953125 41.515625 
Q 57.328125 34.859375 57.328125 23.390625 
Q 57.328125 12.15625 50.6875 5.359375 
Q 44.046875 -1.421875 33.015625 -1.421875 
Q 20.359375 -1.421875 13.671875 8.265625 
Q 6.984375 17.96875 6.984375 36.375 
Q 6.984375 53.65625 15.1875 63.9375 
Q 23.390625 74.21875 37.203125 74.21875 
Q 40.921875 74.21875 44.703125 73.484375 
Q 48.484375 72.75 52.59375 71.296875 
z
" id="DejaVuSans-54"/>
      </defs>
      <g transform="translate(261.336452 322.182437)scale(0.1 -0.1)">
       <use xlink:href="#DejaVuSans-48"/>
       <use x="63.623047" xlink:href="#DejaVuSans-46"/>
       <use x="95.410156" xlink:href="#DejaVuSans-54"/>
      </g>
     </g>
    </g>
    <g id="xtick_5">
     <g id="line2d_9">
      <path clip-path="url(#p618a4e4de4)" d="M 335.544045 307.584 
L 335.544045 41.472 
" style="fill:none;stroke:#b0b0b0;stroke-linecap:square;stroke-width:0.8;"/>
     </g>
     <g id="line2d_10">
      <g>
       <use style="stroke:#000000;stroke-width:0.8;" x="335.544045" xlink:href="#m60eb3534b8" y="307.584"/>
      </g>
     </g>
     <g id="text_5">
      <!-- 0.8 -->
      <defs>
       <path d="M 31.78125 34.625 
Q 24.75 34.625 20.71875 30.859375 
Q 16.703125 27.09375 16.703125 20.515625 
Q 16.703125 13.921875 20.71875 10.15625 
Q 24.75 6.390625 31.78125 6.390625 
Q 38.8125 6.390625 42.859375 10.171875 
Q 46.921875 13.96875 46.921875 20.515625 
Q 46.921875 27.09375 42.890625 30.859375 
Q 38.875 34.625 31.78125 34.625 
z
M 21.921875 38.8125 
Q 15.578125 40.375 12.03125 44.71875 
Q 8.5 49.078125 8.5 55.328125 
Q 8.5 64.0625 14.71875 69.140625 
Q 20.953125 74.21875 31.78125 74.21875 
Q 42.671875 74.21875 48.875 69.140625 
Q 55.078125 64.0625 55.078125 55.328125 
Q 55.078125 49.078125 51.53125 44.71875 
Q 48 40.375 41.703125 38.8125 
Q 48.828125 37.15625 52.796875 32.3125 
Q 56.78125 27.484375 56.78125 20.515625 
Q 56.78125 9.90625 50.3125 4.234375 
Q 43.84375 -1.421875 31.78125 -1.421875 
Q 19.734375 -1.421875 13.25 4.234375 
Q 6.78125 9.90625 6.78125 20.515625 
Q 6.78125 27.484375 10.78125 32.3125 
Q 14.796875 37.15625 21.921875 38.8125 
z
M 18.3125 54.390625 
Q 18.3125 48.734375 21.84375 45.5625 
Q 25.390625 42.390625 31.78125 42.390625 
Q 38.140625 42.390625 41.71875 45.5625 
Q 45.3125 48.734375 45.3125 54.390625 
Q 45.3125 60.0625 41.71875 63.234375 
Q 38.140625 66.40625 31.78125 66.40625 
Q 25.390625 66.40625 21.84375 63.234375 
Q 18.3125 60.0625 18.3125 54.390625 
z
" id="DejaVuSans-56"/>
      </defs>
      <g transform="translate(327.592482 322.182437)scale(0.1 -0.1)">
       <use xlink:href="#DejaVuSans-48"/>
       <use x="63.623047" xlink:href="#DejaVuSans-46"/>
       <use x="95.410156" xlink:href="#DejaVuSans-56"/>
      </g>
     </g>
    </g>
    <g id="xtick_6">
     <g id="line2d_11">
      <path clip-path="url(#p618a4e4de4)" d="M 401.800074 307.584 
L 401.800074 41.472 
" style="fill:none;stroke:#b0b0b0;stroke-linecap:square;stroke-width:0.8;"/>
     </g>
     <g id="line2d_12">
      <g>
       <use style="stroke:#000000;stroke-width:0.8;" x="401.800074" xlink:href="#m60eb3534b8" y="307.584"/>
      </g>
     </g>
     <g id="text_6">
      <!-- 1.0 -->
      <defs>
       <path d="M 12.40625 8.296875 
L 28.515625 8.296875 
L 28.515625 63.921875 
L 10.984375 60.40625 
L 10.984375 69.390625 
L 28.421875 72.90625 
L 38.28125 72.90625 
L 38.28125 8.296875 
L 54.390625 8.296875 
L 54.390625 0 
L 12.40625 0 
z
" id="DejaVuSans-49"/>
      </defs>
      <g transform="translate(393.848512 322.182437)scale(0.1 -0.1)">
       <use xlink:href="#DejaVuSans-49"/>
       <use x="63.623047" xlink:href="#DejaVuSans-46"/>
       <use x="95.410156" xlink:href="#DejaVuSans-48"/>
      </g>
     </g>
    </g>
    <g id="text_7">
     <!-- $\mathrm{Time \ (seconds)}$ -->
     <defs>
      <path d="M -0.296875 72.90625 
L 61.375 72.90625 
L 61.375 64.59375 
L 35.5 64.59375 
L 35.5 0 
L 25.59375 0 
L 25.59375 64.59375 
L -0.296875 64.59375 
z
" id="DejaVuSans-84"/>
      <path d="M 9.421875 54.6875 
L 18.40625 54.6875 
L 18.40625 0 
L 9.421875 0 
z
M 9.421875 75.984375 
L 18.40625 75.984375 
L 18.40625 64.59375 
L 9.421875 64.59375 
z
" id="DejaVuSans-105"/>
      <path d="M 52 44.1875 
Q 55.375 50.25 60.0625 53.125 
Q 64.75 56 71.09375 56 
Q 79.640625 56 84.28125 50.015625 
Q 88.921875 44.046875 88.921875 33.015625 
L 88.921875 0 
L 79.890625 0 
L 79.890625 32.71875 
Q 79.890625 40.578125 77.09375 44.375 
Q 74.3125 48.1875 68.609375 48.1875 
Q 61.625 48.1875 57.5625 43.546875 
Q 53.515625 38.921875 53.515625 30.90625 
L 53.515625 0 
L 44.484375 0 
L 44.484375 32.71875 
Q 44.484375 40.625 41.703125 44.40625 
Q 38.921875 48.1875 33.109375 48.1875 
Q 26.21875 48.1875 22.15625 43.53125 
Q 18.109375 38.875 18.109375 30.90625 
L 18.109375 0 
L 9.078125 0 
L 9.078125 54.6875 
L 18.109375 54.6875 
L 18.109375 46.1875 
Q 21.1875 51.21875 25.484375 53.609375 
Q 29.78125 56 35.6875 56 
Q 41.65625 56 45.828125 52.96875 
Q 50 49.953125 52 44.1875 
z
" id="DejaVuSans-109"/>
      <path d="M 56.203125 29.59375 
L 56.203125 25.203125 
L 14.890625 25.203125 
Q 15.484375 15.921875 20.484375 11.0625 
Q 25.484375 6.203125 34.421875 6.203125 
Q 39.59375 6.203125 44.453125 7.46875 
Q 49.3125 8.734375 54.109375 11.28125 
L 54.109375 2.78125 
Q 49.265625 0.734375 44.1875 -0.34375 
Q 39.109375 -1.421875 33.890625 -1.421875 
Q 20.796875 -1.421875 13.15625 6.1875 
Q 5.515625 13.8125 5.515625 26.8125 
Q 5.515625 40.234375 12.765625 48.109375 
Q 20.015625 56 32.328125 56 
Q 43.359375 56 49.78125 48.890625 
Q 56.203125 41.796875 56.203125 29.59375 
z
M 47.21875 32.234375 
Q 47.125 39.59375 43.09375 43.984375 
Q 39.0625 48.390625 32.421875 48.390625 
Q 24.90625 48.390625 20.390625 44.140625 
Q 15.875 39.890625 15.1875 32.171875 
z
" id="DejaVuSans-101"/>
      <path d="M 31 75.875 
Q 24.46875 64.65625 21.28125 53.65625 
Q 18.109375 42.671875 18.109375 31.390625 
Q 18.109375 20.125 21.3125 9.0625 
Q 24.515625 -2 31 -13.1875 
L 23.1875 -13.1875 
Q 15.875 -1.703125 12.234375 9.375 
Q 8.59375 20.453125 8.59375 31.390625 
Q 8.59375 42.28125 12.203125 53.3125 
Q 15.828125 64.359375 23.1875 75.875 
z
" id="DejaVuSans-40"/>
      <path d="M 44.28125 53.078125 
L 44.28125 44.578125 
Q 40.484375 46.53125 36.375 47.5 
Q 32.28125 48.484375 27.875 48.484375 
Q 21.1875 48.484375 17.84375 46.4375 
Q 14.5 44.390625 14.5 40.28125 
Q 14.5 37.15625 16.890625 35.375 
Q 19.28125 33.59375 26.515625 31.984375 
L 29.59375 31.296875 
Q 39.15625 29.25 43.1875 25.515625 
Q 47.21875 21.78125 47.21875 15.09375 
Q 47.21875 7.46875 41.1875 3.015625 
Q 35.15625 -1.421875 24.609375 -1.421875 
Q 20.21875 -1.421875 15.453125 -0.5625 
Q 10.6875 0.296875 5.421875 2 
L 5.421875 11.28125 
Q 10.40625 8.6875 15.234375 7.390625 
Q 20.0625 6.109375 24.8125 6.109375 
Q 31.15625 6.109375 34.5625 8.28125 
Q 37.984375 10.453125 37.984375 14.40625 
Q 37.984375 18.0625 35.515625 20.015625 
Q 33.0625 21.96875 24.703125 23.78125 
L 21.578125 24.515625 
Q 13.234375 26.265625 9.515625 29.90625 
Q 5.8125 33.546875 5.8125 39.890625 
Q 5.8125 47.609375 11.28125 51.796875 
Q 16.75 56 26.8125 56 
Q 31.78125 56 36.171875 55.265625 
Q 40.578125 54.546875 44.28125 53.078125 
z
" id="DejaVuSans-115"/>
      <path d="M 48.78125 52.59375 
L 48.78125 44.1875 
Q 44.96875 46.296875 41.140625 47.34375 
Q 37.3125 48.390625 33.40625 48.390625 
Q 24.65625 48.390625 19.8125 42.84375 
Q 14.984375 37.3125 14.984375 27.296875 
Q 14.984375 17.28125 19.8125 11.734375 
Q 24.65625 6.203125 33.40625 6.203125 
Q 37.3125 6.203125 41.140625 7.25 
Q 44.96875 8.296875 48.78125 10.40625 
L 48.78125 2.09375 
Q 45.015625 0.34375 40.984375 -0.53125 
Q 36.96875 -1.421875 32.421875 -1.421875 
Q 20.0625 -1.421875 12.78125 6.34375 
Q 5.515625 14.109375 5.515625 27.296875 
Q 5.515625 40.671875 12.859375 48.328125 
Q 20.21875 56 33.015625 56 
Q 37.15625 56 41.109375 55.140625 
Q 45.0625 54.296875 48.78125 52.59375 
z
" id="DejaVuSans-99"/>
      <path d="M 30.609375 48.390625 
Q 23.390625 48.390625 19.1875 42.75 
Q 14.984375 37.109375 14.984375 27.296875 
Q 14.984375 17.484375 19.15625 11.84375 
Q 23.34375 6.203125 30.609375 6.203125 
Q 37.796875 6.203125 41.984375 11.859375 
Q 46.1875 17.53125 46.1875 27.296875 
Q 46.1875 37.015625 41.984375 42.703125 
Q 37.796875 48.390625 30.609375 48.390625 
z
M 30.609375 56 
Q 42.328125 56 49.015625 48.375 
Q 55.71875 40.765625 55.71875 27.296875 
Q 55.71875 13.875 49.015625 6.21875 
Q 42.328125 -1.421875 30.609375 -1.421875 
Q 18.84375 -1.421875 12.171875 6.21875 
Q 5.515625 13.875 5.515625 27.296875 
Q 5.515625 40.765625 12.171875 48.375 
Q 18.84375 56 30.609375 56 
z
" id="DejaVuSans-111"/>
      <path d="M 54.890625 33.015625 
L 54.890625 0 
L 45.90625 0 
L 45.90625 32.71875 
Q 45.90625 40.484375 42.875 44.328125 
Q 39.84375 48.1875 33.796875 48.1875 
Q 26.515625 48.1875 22.3125 43.546875 
Q 18.109375 38.921875 18.109375 30.90625 
L 18.109375 0 
L 9.078125 0 
L 9.078125 54.6875 
L 18.109375 54.6875 
L 18.109375 46.1875 
Q 21.34375 51.125 25.703125 53.5625 
Q 30.078125 56 35.796875 56 
Q 45.21875 56 50.046875 50.171875 
Q 54.890625 44.34375 54.890625 33.015625 
z
" id="DejaVuSans-110"/>
      <path d="M 45.40625 46.390625 
L 45.40625 75.984375 
L 54.390625 75.984375 
L 54.390625 0 
L 45.40625 0 
L 45.40625 8.203125 
Q 42.578125 3.328125 38.25 0.953125 
Q 33.9375 -1.421875 27.875 -1.421875 
Q 17.96875 -1.421875 11.734375 6.484375 
Q 5.515625 14.40625 5.515625 27.296875 
Q 5.515625 40.1875 11.734375 48.09375 
Q 17.96875 56 27.875 56 
Q 33.9375 56 38.25 53.625 
Q 42.578125 51.265625 45.40625 46.390625 
z
M 14.796875 27.296875 
Q 14.796875 17.390625 18.875 11.75 
Q 22.953125 6.109375 30.078125 6.109375 
Q 37.203125 6.109375 41.296875 11.75 
Q 45.40625 17.390625 45.40625 27.296875 
Q 45.40625 37.203125 41.296875 42.84375 
Q 37.203125 48.484375 30.078125 48.484375 
Q 22.953125 48.484375 18.875 42.84375 
Q 14.796875 37.203125 14.796875 27.296875 
z
" id="DejaVuSans-100"/>
      <path d="M 8.015625 75.875 
L 15.828125 75.875 
Q 23.140625 64.359375 26.78125 53.3125 
Q 30.421875 42.28125 30.421875 31.390625 
Q 30.421875 20.453125 26.78125 9.375 
Q 23.140625 -1.703125 15.828125 -13.1875 
L 8.015625 -13.1875 
Q 14.5 -2 17.703125 9.0625 
Q 20.90625 20.125 20.90625 31.390625 
Q 20.90625 42.671875 17.703125 53.65625 
Q 14.5 64.65625 8.015625 75.875 
z
" id="DejaVuSans-41"/>
     </defs>
     <g transform="translate(197.76 335.860562)scale(0.1 -0.1)">
      <use transform="translate(0 0.015625)" xlink:href="#DejaVuSans-84"/>
      <use transform="translate(61.083984 0.015625)" xlink:href="#DejaVuSans-105"/>
      <use transform="translate(88.867188 0.015625)" xlink:href="#DejaVuSans-109"/>
      <use transform="translate(186.279297 0.015625)" xlink:href="#DejaVuSans-101"/>
      <use transform="translate(280.273113 0.015625)" xlink:href="#DejaVuSans-40"/>
      <use transform="translate(319.286785 0.015625)" xlink:href="#DejaVuSans-115"/>
      <use transform="translate(371.386394 0.015625)" xlink:href="#DejaVuSans-101"/>
      <use transform="translate(432.909832 0.015625)" xlink:href="#DejaVuSans-99"/>
      <use transform="translate(487.8903 0.015625)" xlink:href="#DejaVuSans-111"/>
      <use transform="translate(549.071941 0.015625)" xlink:href="#DejaVuSans-110"/>
      <use transform="translate(612.450847 0.015625)" xlink:href="#DejaVuSans-100"/>
      <use transform="translate(675.92741 0.015625)" xlink:href="#DejaVuSans-115"/>
      <use transform="translate(728.027019 0.015625)" xlink:href="#DejaVuSans-41"/>
     </g>
    </g>
   </g>
   <g id="matplotlib.axis_2">
    <g id="ytick_1">
     <g id="line2d_13">
      <path clip-path="url(#p618a4e4de4)" d="M 57.6 264.995707 
L 414.72 264.995707 
" style="fill:none;stroke:#b0b0b0;stroke-linecap:square;stroke-width:0.8;"/>
     </g>
     <g id="line2d_14">
      <defs>
       <path d="M 0 0 
L -3.5 0 
" id="m61d7e4e2fe" style="stroke:#000000;stroke-width:0.8;"/>
      </defs>
      <g>
       <use style="stroke:#000000;stroke-width:0.8;" x="57.6" xlink:href="#m61d7e4e2fe" y="264.995707"/>
      </g>
     </g>
     <g id="text_8">
      <!-- $\mathdefault{10^{-1}}$ -->
      <defs>
       <path d="M 10.59375 35.5 
L 73.1875 35.5 
L 73.1875 27.203125 
L 10.59375 27.203125 
z
" id="DejaVuSans-8722"/>
      </defs>
      <g transform="translate(27.1 268.794925)scale(0.1 -0.1)">
       <use transform="translate(0 0.684375)" xlink:href="#DejaVuSans-49"/>
       <use transform="translate(63.623047 0.684375)" xlink:href="#DejaVuSans-48"/>
       <use transform="translate(128.203125 38.965625)scale(0.7)" xlink:href="#DejaVuSans-8722"/>
       <use transform="translate(186.855469 38.965625)scale(0.7)" xlink:href="#DejaVuSans-49"/>
      </g>
     </g>
    </g>
    <g id="ytick_2">
     <g id="line2d_15">
      <defs>
       <path d="M 0 0 
L -2 0 
" id="m48ed3cc08e" style="stroke:#000000;stroke-width:0.6;"/>
      </defs>
      <g>
       <use style="stroke:#000000;stroke-width:0.6;" x="57.6" xlink:href="#m48ed3cc08e" y="303.489487"/>
      </g>
     </g>
    </g>
    <g id="ytick_3">
     <g id="line2d_16">
      <g>
       <use style="stroke:#000000;stroke-width:0.6;" x="57.6" xlink:href="#m48ed3cc08e" y="289.078247"/>
      </g>
     </g>
    </g>
    <g id="ytick_4">
     <g id="line2d_17">
      <g>
       <use style="stroke:#000000;stroke-width:0.6;" x="57.6" xlink:href="#m48ed3cc08e" y="276.366633"/>
      </g>
     </g>
    </g>
    <g id="ytick_5">
     <g id="line2d_18">
      <g>
       <use style="stroke:#000000;stroke-width:0.6;" x="57.6" xlink:href="#m48ed3cc08e" y="190.188502"/>
      </g>
     </g>
    </g>
    <g id="ytick_6">
     <g id="line2d_19">
      <g>
       <use style="stroke:#000000;stroke-width:0.6;" x="57.6" xlink:href="#m48ed3cc08e" y="146.429093"/>
      </g>
     </g>
    </g>
    <g id="ytick_7">
     <g id="line2d_20">
      <g>
       <use style="stroke:#000000;stroke-width:0.6;" x="57.6" xlink:href="#m48ed3cc08e" y="115.381298"/>
      </g>
     </g>
    </g>
    <g id="ytick_8">
     <g id="line2d_21">
      <g>
       <use style="stroke:#000000;stroke-width:0.6;" x="57.6" xlink:href="#m48ed3cc08e" y="91.298758"/>
      </g>
     </g>
    </g>
    <g id="ytick_9">
     <g id="line2d_22">
      <g>
       <use style="stroke:#000000;stroke-width:0.6;" x="57.6" xlink:href="#m48ed3cc08e" y="71.621889"/>
      </g>
     </g>
    </g>
    <g id="ytick_10">
     <g id="line2d_23">
      <g>
       <use style="stroke:#000000;stroke-width:0.6;" x="57.6" xlink:href="#m48ed3cc08e" y="54.985334"/>
      </g>
     </g>
    </g>
    <g id="text_9">
     <!-- $\mathrm{Relative \ error}$ ($N_{\mathrm{train}}=10$) -->
     <defs>
      <path d="M 44.390625 34.1875 
Q 47.5625 33.109375 50.5625 29.59375 
Q 53.5625 26.078125 56.59375 19.921875 
L 66.609375 0 
L 56 0 
L 46.6875 18.703125 
Q 43.0625 26.03125 39.671875 28.421875 
Q 36.28125 30.8125 30.421875 30.8125 
L 19.671875 30.8125 
L 19.671875 0 
L 9.8125 0 
L 9.8125 72.90625 
L 32.078125 72.90625 
Q 44.578125 72.90625 50.734375 67.671875 
Q 56.890625 62.453125 56.890625 51.90625 
Q 56.890625 45.015625 53.6875 40.46875 
Q 50.484375 35.9375 44.390625 34.1875 
z
M 19.671875 64.796875 
L 19.671875 38.921875 
L 32.078125 38.921875 
Q 39.203125 38.921875 42.84375 42.21875 
Q 46.484375 45.515625 46.484375 51.90625 
Q 46.484375 58.296875 42.84375 61.546875 
Q 39.203125 64.796875 32.078125 64.796875 
z
" id="DejaVuSans-82"/>
      <path d="M 9.421875 75.984375 
L 18.40625 75.984375 
L 18.40625 0 
L 9.421875 0 
z
" id="DejaVuSans-108"/>
      <path d="M 34.28125 27.484375 
Q 23.390625 27.484375 19.1875 25 
Q 14.984375 22.515625 14.984375 16.5 
Q 14.984375 11.71875 18.140625 8.90625 
Q 21.296875 6.109375 26.703125 6.109375 
Q 34.1875 6.109375 38.703125 11.40625 
Q 43.21875 16.703125 43.21875 25.484375 
L 43.21875 27.484375 
z
M 52.203125 31.203125 
L 52.203125 0 
L 43.21875 0 
L 43.21875 8.296875 
Q 40.140625 3.328125 35.546875 0.953125 
Q 30.953125 -1.421875 24.3125 -1.421875 
Q 15.921875 -1.421875 10.953125 3.296875 
Q 6 8.015625 6 15.921875 
Q 6 25.140625 12.171875 29.828125 
Q 18.359375 34.515625 30.609375 34.515625 
L 43.21875 34.515625 
L 43.21875 35.40625 
Q 43.21875 41.609375 39.140625 45 
Q 35.0625 48.390625 27.6875 48.390625 
Q 23 48.390625 18.546875 47.265625 
Q 14.109375 46.140625 10.015625 43.890625 
L 10.015625 52.203125 
Q 14.9375 54.109375 19.578125 55.046875 
Q 24.21875 56 28.609375 56 
Q 40.484375 56 46.34375 49.84375 
Q 52.203125 43.703125 52.203125 31.203125 
z
" id="DejaVuSans-97"/>
      <path d="M 18.3125 70.21875 
L 18.3125 54.6875 
L 36.8125 54.6875 
L 36.8125 47.703125 
L 18.3125 47.703125 
L 18.3125 18.015625 
Q 18.3125 11.328125 20.140625 9.421875 
Q 21.96875 7.515625 27.59375 7.515625 
L 36.8125 7.515625 
L 36.8125 0 
L 27.59375 0 
Q 17.1875 0 13.234375 3.875 
Q 9.28125 7.765625 9.28125 18.015625 
L 9.28125 47.703125 
L 2.6875 47.703125 
L 2.6875 54.6875 
L 9.28125 54.6875 
L 9.28125 70.21875 
z
" id="DejaVuSans-116"/>
      <path d="M 2.984375 54.6875 
L 12.5 54.6875 
L 29.59375 8.796875 
L 46.6875 54.6875 
L 56.203125 54.6875 
L 35.6875 0 
L 23.484375 0 
z
" id="DejaVuSans-118"/>
      <path d="M 41.109375 46.296875 
Q 39.59375 47.171875 37.8125 47.578125 
Q 36.03125 48 33.890625 48 
Q 26.265625 48 22.1875 43.046875 
Q 18.109375 38.09375 18.109375 28.8125 
L 18.109375 0 
L 9.078125 0 
L 9.078125 54.6875 
L 18.109375 54.6875 
L 18.109375 46.1875 
Q 20.953125 51.171875 25.484375 53.578125 
Q 30.03125 56 36.53125 56 
Q 37.453125 56 38.578125 55.875 
Q 39.703125 55.765625 41.0625 55.515625 
z
" id="DejaVuSans-114"/>
      <path id="DejaVuSans-32"/>
      <path d="M 16.890625 72.90625 
L 30.171875 72.90625 
L 50.296875 10.40625 
L 62.5 72.90625 
L 72.125 72.90625 
L 57.90625 0 
L 44.578125 0 
L 24.515625 62.890625 
L 12.3125 0 
L 2.6875 0 
z
" id="DejaVuSans-Oblique-78"/>
      <path d="M 10.59375 45.40625 
L 73.1875 45.40625 
L 73.1875 37.203125 
L 10.59375 37.203125 
z
M 10.59375 25.484375 
L 73.1875 25.484375 
L 73.1875 17.1875 
L 10.59375 17.1875 
z
" id="DejaVuSans-61"/>
     </defs>
     <g transform="translate(21.020312 238.878)rotate(-90)scale(0.1 -0.1)">
      <use transform="translate(0 0.015625)" xlink:href="#DejaVuSans-82"/>
      <use transform="translate(69.482422 0.015625)" xlink:href="#DejaVuSans-101"/>
      <use transform="translate(131.005859 0.015625)" xlink:href="#DejaVuSans-108"/>
      <use transform="translate(158.789062 0.015625)" xlink:href="#DejaVuSans-97"/>
      <use transform="translate(220.068359 0.015625)" xlink:href="#DejaVuSans-116"/>
      <use transform="translate(259.277344 0.015625)" xlink:href="#DejaVuSans-105"/>
      <use transform="translate(287.060547 0.015625)" xlink:href="#DejaVuSans-118"/>
      <use transform="translate(346.240234 0.015625)" xlink:href="#DejaVuSans-101"/>
      <use transform="translate(440.23405 0.015625)" xlink:href="#DejaVuSans-101"/>
      <use transform="translate(501.757488 0.015625)" xlink:href="#DejaVuSans-114"/>
      <use transform="translate(542.870769 0.015625)" xlink:href="#DejaVuSans-114"/>
      <use transform="translate(583.98405 0.015625)" xlink:href="#DejaVuSans-111"/>
      <use transform="translate(645.165691 0.015625)" xlink:href="#DejaVuSans-114"/>
      <use transform="translate(686.278972 0.015625)" xlink:href="#DejaVuSans-32"/>
      <use transform="translate(718.066082 0.015625)" xlink:href="#DejaVuSans-40"/>
      <use transform="translate(757.079753 0.015625)" xlink:href="#DejaVuSans-Oblique-78"/>
      <use transform="translate(831.884441 -16.390625)scale(0.7)" xlink:href="#DejaVuSans-116"/>
      <use transform="translate(859.33073 -16.390625)scale(0.7)" xlink:href="#DejaVuSans-114"/>
      <use transform="translate(888.110027 -16.390625)scale(0.7)" xlink:href="#DejaVuSans-97"/>
      <use transform="translate(931.005535 -16.390625)scale(0.7)" xlink:href="#DejaVuSans-105"/>
      <use transform="translate(950.453777 -16.390625)scale(0.7)" xlink:href="#DejaVuSans-110"/>
      <use transform="translate(1017.035808 0.015625)" xlink:href="#DejaVuSans-61"/>
      <use transform="translate(1120.307292 0.015625)" xlink:href="#DejaVuSans-49"/>
      <use transform="translate(1183.930339 0.015625)" xlink:href="#DejaVuSans-48"/>
      <use transform="translate(1247.553386 0.015625)" xlink:href="#DejaVuSans-41"/>
     </g>
    </g>
   </g>
   <g id="line2d_24">
    <path clip-path="url(#p618a4e4de4)" d="M 73.832724 290.837613 
L 77.145522 251.852719 
L 80.458321 223.590829 
L 83.771119 201.532589 
L 87.083917 183.650144 
L 90.396716 168.83056 
L 93.709554 156.369044 
L 97.022352 145.772663 
L 100.33515 136.675602 
L 103.647949 128.797361 
L 106.960747 121.919619 
L 110.273545 115.870369 
L 113.586344 110.51316 
L 116.899142 105.73896 
L 120.21194 101.459715 
L 123.524738 97.60397 
L 126.837537 94.113254 
L 130.150375 90.93925 
L 133.463173 88.041939 
L 136.775971 85.387686 
L 140.08877 82.948327 
L 143.401568 80.699947 
L 146.714366 78.622155 
L 150.027165 76.697544 
L 153.339963 74.911099 
L 156.652761 73.249929 
L 159.96556 71.702786 
L 163.278358 70.259948 
L 166.591156 68.912915 
L 169.903955 67.654286 
L 176.529551 65.377054 
L 183.155187 63.385638 
L 189.780784 61.647749 
L 196.406381 60.139502 
L 203.031977 58.844193 
L 209.657574 57.751659 
L 216.28321 56.858052 
L 222.908807 56.165674 
L 229.534403 55.683014 
L 236.16 55.423948 
L 242.785597 55.405818 
L 249.411193 55.644886 
L 256.03679 56.149091 
L 262.662387 56.909006 
L 269.288023 57.890419 
L 275.913619 59.033872 
L 299.103247 63.237105 
L 305.728844 64.262837 
L 312.35444 65.167077 
L 318.980037 65.952946 
L 325.605634 66.632345 
L 335.544029 67.489043 
L 348.795222 68.429365 
L 378.610486 70.433659 
L 388.548881 71.264141 
L 398.487276 72.247362 
" style="fill:none;stroke:#ff0000;stroke-linecap:square;stroke-width:1.5;"/>
   </g>
   <g id="line2d_25">
    <path clip-path="url(#p618a4e4de4)" d="M 73.832724 290.855207 
L 77.145522 251.867563 
L 80.458321 223.602796 
L 83.771119 201.541682 
L 87.083917 183.656487 
L 90.396716 168.834175 
L 93.709554 156.370055 
L 97.022352 145.771299 
L 100.33515 136.671987 
L 103.647949 128.79177 
L 106.960747 121.912093 
L 110.273545 115.861129 
L 113.586344 110.502323 
L 116.899142 105.726635 
L 120.21194 101.445997 
L 123.524738 97.588981 
L 126.837537 94.097052 
L 130.150375 90.921915 
L 133.463173 88.023503 
L 136.775971 85.368309 
L 140.08877 82.927979 
L 143.401568 80.678677 
L 146.714366 78.600021 
L 150.027165 76.674554 
L 153.339963 74.887282 
L 156.652761 73.225312 
L 159.96556 71.677403 
L 163.278358 70.233791 
L 166.591156 68.885985 
L 169.903955 67.626583 
L 176.529551 65.347846 
L 183.155187 63.354918 
L 189.780784 61.615458 
L 196.406381 60.105548 
L 203.031977 58.80855 
L 209.657574 57.714216 
L 216.28321 56.818712 
L 222.908807 56.124319 
L 229.534403 55.639551 
L 236.16 55.37833 
L 242.785597 55.357948 
L 249.411193 55.594766 
L 256.03679 56.096656 
L 262.662387 56.854143 
L 269.288023 57.833036 
L 275.913619 58.973647 
L 299.103247 63.164763 
L 305.728844 64.186733 
L 312.35444 65.087244 
L 318.980037 65.869552 
L 325.605634 66.54554 
L 335.544029 67.397475 
L 348.795222 68.332045 
L 378.610486 70.325035 
L 388.548881 71.152404 
L 398.487276 72.133256 
" style="fill:none;stroke:#ffa500;stroke-linecap:square;stroke-width:1.5;"/>
   </g>
   <g id="line2d_26">
    <path clip-path="url(#p618a4e4de4)" d="M 73.832724 290.864863 
L 77.145522 251.87405 
L 80.458321 223.606051 
L 83.771119 201.541709 
L 87.083917 183.653346 
L 90.396716 168.827987 
L 93.709554 156.361015 
L 97.022352 145.759599 
L 100.33515 136.657796 
L 103.647949 128.775237 
L 106.960747 121.893488 
L 110.273545 115.840567 
L 113.586344 110.480014 
L 116.899142 105.702638 
L 120.21194 101.420488 
L 123.524738 97.562023 
L 126.837537 94.06876 
L 130.150375 90.892381 
L 133.463173 87.992792 
L 136.775971 85.336433 
L 140.08877 82.895065 
L 143.401568 80.644706 
L 146.714366 78.56504 
L 150.027165 76.638619 
L 153.339963 74.850424 
L 156.652761 73.187537 
L 159.96556 71.63874 
L 163.278358 70.194245 
L 166.591156 68.84555 
L 169.903955 67.585285 
L 176.529551 65.304771 
L 183.155187 63.31001 
L 189.780784 61.568709 
L 196.406381 60.056877 
L 203.031977 58.757805 
L 209.657574 57.661364 
L 216.28321 56.763606 
L 222.908807 56.066912 
L 229.534403 55.57974 
L 236.16 55.316091 
L 242.785597 55.293399 
L 249.411193 55.527988 
L 256.03679 56.027869 
L 262.662387 56.783601 
L 269.288023 57.760899 
L 275.913619 58.900029 
L 299.103247 63.085308 
L 305.728844 64.105292 
L 312.35444 65.003791 
L 318.980037 65.784059 
L 325.605634 66.45809 
L 335.544029 67.307178 
L 348.795222 68.238315 
L 378.610486 70.225462 
L 388.548881 71.052033 
L 398.487276 72.03339 
" style="fill:none;stroke:#ff00ff;stroke-linecap:square;stroke-width:1.5;"/>
   </g>
   <g id="patch_3">
    <path d="M 57.6 307.584 
L 57.6 41.472 
" style="fill:none;stroke:#000000;stroke-linecap:square;stroke-linejoin:miter;stroke-width:0.8;"/>
   </g>
   <g id="patch_4">
    <path d="M 414.72 307.584 
L 414.72 41.472 
" style="fill:none;stroke:#000000;stroke-linecap:square;stroke-linejoin:miter;stroke-width:0.8;"/>
   </g>
   <g id="patch_5">
    <path d="M 57.6 307.584 
L 414.72 307.584 
" style="fill:none;stroke:#000000;stroke-linecap:square;stroke-linejoin:miter;stroke-width:0.8;"/>
   </g>
   <g id="patch_6">
    <path d="M 57.6 41.472 
L 414.72 41.472 
" style="fill:none;stroke:#000000;stroke-linecap:square;stroke-linejoin:miter;stroke-width:0.8;"/>
   </g>
   <g id="legend_1">
    <g id="patch_7">
     <path d="M 297.662188 302.584 
L 407.72 302.584 
Q 409.72 302.584 409.72 300.584 
L 409.72 257.549625 
Q 409.72 255.549625 407.72 255.549625 
L 297.662188 255.549625 
Q 295.662188 255.549625 295.662188 257.549625 
L 295.662188 300.584 
Q 295.662188 302.584 297.662188 302.584 
z
" style="fill:#ffffff;opacity:0.8;stroke:#cccccc;stroke-linejoin:miter;"/>
    </g>
    <g id="line2d_27">
     <path d="M 299.662188 263.648062 
L 319.662188 263.648062 
" style="fill:none;stroke:#ff0000;stroke-linecap:square;stroke-width:1.5;"/>
    </g>
    <g id="line2d_28"/>
    <g id="text_10">
     <!-- No GR -->
     <defs>
      <path d="M 9.8125 72.90625 
L 23.09375 72.90625 
L 55.421875 11.921875 
L 55.421875 72.90625 
L 64.984375 72.90625 
L 64.984375 0 
L 51.703125 0 
L 19.390625 60.984375 
L 19.390625 0 
L 9.8125 0 
z
" id="DejaVuSans-78"/>
      <path d="M 59.515625 10.40625 
L 59.515625 29.984375 
L 43.40625 29.984375 
L 43.40625 38.09375 
L 69.28125 38.09375 
L 69.28125 6.78125 
Q 63.578125 2.734375 56.6875 0.65625 
Q 49.8125 -1.421875 42 -1.421875 
Q 24.90625 -1.421875 15.25 8.5625 
Q 5.609375 18.5625 5.609375 36.375 
Q 5.609375 54.25 15.25 64.234375 
Q 24.90625 74.21875 42 74.21875 
Q 49.125 74.21875 55.546875 72.453125 
Q 61.96875 70.703125 67.390625 67.28125 
L 67.390625 56.78125 
Q 61.921875 61.421875 55.765625 63.765625 
Q 49.609375 66.109375 42.828125 66.109375 
Q 29.4375 66.109375 22.71875 58.640625 
Q 16.015625 51.171875 16.015625 36.375 
Q 16.015625 21.625 22.71875 14.15625 
Q 29.4375 6.6875 42.828125 6.6875 
Q 48.046875 6.6875 52.140625 7.59375 
Q 56.25 8.5 59.515625 10.40625 
z
" id="DejaVuSans-71"/>
     </defs>
     <g transform="translate(327.662188 267.148062)scale(0.1 -0.1)">
      <use xlink:href="#DejaVuSans-78"/>
      <use x="74.804688" xlink:href="#DejaVuSans-111"/>
      <use x="135.986328" xlink:href="#DejaVuSans-32"/>
      <use x="167.773438" xlink:href="#DejaVuSans-71"/>
      <use x="245.263672" xlink:href="#DejaVuSans-82"/>
     </g>
    </g>
    <g id="line2d_29">
     <path d="M 299.662188 278.326188 
L 319.662188 278.326188 
" style="fill:none;stroke:#ffa500;stroke-linecap:square;stroke-width:1.5;"/>
    </g>
    <g id="line2d_30"/>
    <g id="text_11">
     <!-- With GR -->
     <defs>
      <path d="M 3.328125 72.90625 
L 13.28125 72.90625 
L 28.609375 11.28125 
L 43.890625 72.90625 
L 54.984375 72.90625 
L 70.3125 11.28125 
L 85.59375 72.90625 
L 95.609375 72.90625 
L 77.296875 0 
L 64.890625 0 
L 49.515625 63.28125 
L 33.984375 0 
L 21.578125 0 
z
" id="DejaVuSans-87"/>
      <path d="M 54.890625 33.015625 
L 54.890625 0 
L 45.90625 0 
L 45.90625 32.71875 
Q 45.90625 40.484375 42.875 44.328125 
Q 39.84375 48.1875 33.796875 48.1875 
Q 26.515625 48.1875 22.3125 43.546875 
Q 18.109375 38.921875 18.109375 30.90625 
L 18.109375 0 
L 9.078125 0 
L 9.078125 75.984375 
L 18.109375 75.984375 
L 18.109375 46.1875 
Q 21.34375 51.125 25.703125 53.5625 
Q 30.078125 56 35.796875 56 
Q 45.21875 56 50.046875 50.171875 
Q 54.890625 44.34375 54.890625 33.015625 
z
" id="DejaVuSans-104"/>
     </defs>
     <g transform="translate(327.662188 281.826188)scale(0.1 -0.1)">
      <use xlink:href="#DejaVuSans-87"/>
      <use x="98.845703" xlink:href="#DejaVuSans-105"/>
      <use x="126.628906" xlink:href="#DejaVuSans-116"/>
      <use x="165.837891" xlink:href="#DejaVuSans-104"/>
      <use x="229.216797" xlink:href="#DejaVuSans-32"/>
      <use x="261.003906" xlink:href="#DejaVuSans-71"/>
      <use x="338.494141" xlink:href="#DejaVuSans-82"/>
     </g>
    </g>
    <g id="line2d_31">
     <path d="M 299.662188 293.004312 
L 319.662188 293.004312 
" style="fill:none;stroke:#ff00ff;stroke-linecap:square;stroke-width:1.5;"/>
    </g>
    <g id="line2d_32"/>
    <g id="text_12">
     <!-- With double GR -->
     <defs>
      <path d="M 8.5 21.578125 
L 8.5 54.6875 
L 17.484375 54.6875 
L 17.484375 21.921875 
Q 17.484375 14.15625 20.5 10.265625 
Q 23.53125 6.390625 29.59375 6.390625 
Q 36.859375 6.390625 41.078125 11.03125 
Q 45.3125 15.671875 45.3125 23.6875 
L 45.3125 54.6875 
L 54.296875 54.6875 
L 54.296875 0 
L 45.3125 0 
L 45.3125 8.40625 
Q 42.046875 3.421875 37.71875 1 
Q 33.40625 -1.421875 27.6875 -1.421875 
Q 18.265625 -1.421875 13.375 4.4375 
Q 8.5 10.296875 8.5 21.578125 
z
M 31.109375 56 
z
" id="DejaVuSans-117"/>
      <path d="M 48.6875 27.296875 
Q 48.6875 37.203125 44.609375 42.84375 
Q 40.53125 48.484375 33.40625 48.484375 
Q 26.265625 48.484375 22.1875 42.84375 
Q 18.109375 37.203125 18.109375 27.296875 
Q 18.109375 17.390625 22.1875 11.75 
Q 26.265625 6.109375 33.40625 6.109375 
Q 40.53125 6.109375 44.609375 11.75 
Q 48.6875 17.390625 48.6875 27.296875 
z
M 18.109375 46.390625 
Q 20.953125 51.265625 25.265625 53.625 
Q 29.59375 56 35.59375 56 
Q 45.5625 56 51.78125 48.09375 
Q 58.015625 40.1875 58.015625 27.296875 
Q 58.015625 14.40625 51.78125 6.484375 
Q 45.5625 -1.421875 35.59375 -1.421875 
Q 29.59375 -1.421875 25.265625 0.953125 
Q 20.953125 3.328125 18.109375 8.203125 
L 18.109375 0 
L 9.078125 0 
L 9.078125 75.984375 
L 18.109375 75.984375 
z
" id="DejaVuSans-98"/>
     </defs>
     <g transform="translate(327.662188 296.504312)scale(0.1 -0.1)">
      <use xlink:href="#DejaVuSans-87"/>
      <use x="98.845703" xlink:href="#DejaVuSans-105"/>
      <use x="126.628906" xlink:href="#DejaVuSans-116"/>
      <use x="165.837891" xlink:href="#DejaVuSans-104"/>
      <use x="229.216797" xlink:href="#DejaVuSans-32"/>
      <use x="261.003906" xlink:href="#DejaVuSans-100"/>
      <use x="324.480469" xlink:href="#DejaVuSans-111"/>
      <use x="385.662109" xlink:href="#DejaVuSans-117"/>
      <use x="449.041016" xlink:href="#DejaVuSans-98"/>
      <use x="512.517578" xlink:href="#DejaVuSans-108"/>
      <use x="540.300781" xlink:href="#DejaVuSans-101"/>
      <use x="601.824219" xlink:href="#DejaVuSans-32"/>
      <use x="633.611328" xlink:href="#DejaVuSans-71"/>
      <use x="711.101562" xlink:href="#DejaVuSans-82"/>
     </g>
    </g>
   </g>
  </g>
 </g>
 <defs>
  <clipPath id="p618a4e4de4">
   <rect height="266.112" width="357.12" x="57.6" y="41.472"/>
  </clipPath>
 </defs>
</svg>
