<?xml version="1.0" encoding="utf-8" standalone="no"?>
<!DOCTYPE svg PUBLIC "-//W3C//DTD SVG 1.1//EN"
  "http://www.w3.org/Graphics/SVG/1.1/DTD/svg11.dtd">
<!-- Created with matplotlib (https://matplotlib.org/) -->
<svg height="345.6pt" version="1.1" viewBox="0 0 460.8 345.6" width="460.8pt" xmlns="http://www.w3.org/2000/svg" xmlns:xlink="http://www.w3.org/1999/xlink">
 <defs>
  <style type="text/css">
*{stroke-linecap:butt;stroke-linejoin:round;white-space:pre;}
  </style>
 </defs>
 <g id="figure_1">
  <g id="patch_1">
   <path d="M 0 345.6 
L 460.8 345.6 
L 460.8 0 
L 0 0 
z
" style="fill:#ffffff;"/>
  </g>
  <g id="axes_1">
   <g id="patch_2">
    <path d="M 57.6 307.584 
L 414.72 307.584 
L 414.72 41.472 
L 57.6 41.472 
z
" style="fill:#ffffff;"/>
   </g>
   <g id="PolyCollection_1">
    <path clip-path="url(#p6aac31825b)" d="M 73.832727 280.336572 
L 73.832727 295.47022 
L 77.145529 255.76751 
L 80.45833 226.567725 
L 83.771132 203.485969 
L 87.083933 184.575431 
L 90.396735 168.778494 
L 93.709536 155.427143 
L 97.022338 144.048478 
L 100.335139 134.282901 
L 103.647941 125.847026 
L 106.960742 118.51412 
L 110.273544 112.101705 
L 113.586345 106.462374 
L 116.899147 101.476676 
L 120.211948 97.047496 
L 123.52475 93.095474 
L 126.837551 89.555297 
L 130.150353 86.373014 
L 133.463154 83.503862 
L 136.775955 80.910551 
L 140.088757 78.56188 
L 143.401558 76.431632 
L 146.71436 74.497699 
L 150.027161 72.741393 
L 153.339963 71.146842 
L 156.652764 69.700546 
L 159.965566 68.391061 
L 163.278367 67.208686 
L 166.591169 66.145204 
L 169.90397 65.193673 
L 173.216772 64.348265 
L 176.529573 63.604117 
L 179.842375 62.95727 
L 183.155176 62.404629 
L 186.467978 61.943928 
L 189.780779 61.573735 
L 193.093581 61.293424 
L 196.406382 61.10315 
L 199.719184 61.003883 
L 203.031985 60.99742 
L 206.344787 61.086422 
L 209.657588 61.274473 
L 212.97039 61.566155 
L 216.283191 61.96712 
L 219.595993 62.484159 
L 222.908794 63.125282 
L 226.221596 63.899719 
L 229.534397 64.817795 
L 232.847199 65.890528 
L 236.16 67.128665 
L 239.472801 68.540641 
L 242.785603 70.12857 
L 246.098404 71.881253 
L 249.411206 73.764302 
L 252.724007 75.712222 
L 256.036809 77.633484 
L 259.34961 79.434466 
L 262.662412 81.047203 
L 265.975213 82.439953 
L 269.288015 83.609958 
L 272.600816 84.571071 
L 275.913618 85.344284 
L 279.226419 85.952304 
L 282.539221 86.416933 
L 285.852022 86.757998 
L 289.164824 86.993058 
L 292.477625 87.137466 
L 295.790427 87.204564 
L 299.103228 87.205931 
L 302.41603 87.151625 
L 305.728831 87.050407 
L 309.041633 86.909922 
L 312.354434 86.736886 
L 315.667236 86.537229 
L 318.980037 86.316227 
L 322.292839 86.078597 
L 325.60564 85.828577 
L 328.918442 85.569998 
L 332.231243 85.306355 
L 335.544045 85.040883 
L 338.856846 84.776611 
L 342.169647 84.516414 
L 345.482449 84.263035 
L 348.79525 84.019108 
L 352.108052 83.787184 
L 355.420853 83.569751 
L 358.733655 83.369245 
L 362.046456 83.188058 
L 365.359258 83.028551 
L 368.672059 82.893075 
L 371.984861 82.784008 
L 375.297662 82.703771 
L 378.610464 82.654849 
L 381.923265 82.639817 
L 385.236067 82.661367 
L 388.548868 82.722331 
L 391.86167 82.825725 
L 395.174471 82.974792 
L 398.487273 83.173037 
L 398.487273 73.314391 
L 398.487273 73.314391 
L 395.174471 73.196485 
L 391.86167 73.120501 
L 388.548868 73.083527 
L 385.236067 73.082815 
L 381.923265 73.115767 
L 378.610464 73.179914 
L 375.297662 73.27291 
L 371.984861 73.392501 
L 368.672059 73.536513 
L 365.359258 73.702819 
L 362.046456 73.88932 
L 358.733655 74.09392 
L 355.420853 74.314508 
L 352.108052 74.548942 
L 348.79525 74.795037 
L 345.482449 75.050545 
L 342.169647 75.313143 
L 338.856846 75.580409 
L 335.544045 75.849803 
L 332.231243 76.118641 
L 328.918442 76.384063 
L 325.60564 76.642989 
L 322.292839 76.892059 
L 318.980037 77.127572 
L 315.667236 77.345406 
L 312.354434 77.540946 
L 309.041633 77.708988 
L 305.728831 77.843631 
L 302.41603 77.938138 
L 299.103228 77.984768 
L 295.790427 77.974599 
L 292.477625 77.89732 
L 289.164824 77.740993 
L 285.852022 77.491808 
L 282.539221 77.13384 
L 279.226419 76.648904 
L 275.913618 76.016646 
L 272.600816 75.215197 
L 269.288015 74.223017 
L 265.975213 73.022943 
L 262.662412 71.609757 
L 259.34961 70.001274 
L 256.036809 68.248029 
L 252.724007 66.43035 
L 249.411206 64.6372 
L 246.098404 62.940623 
L 242.785603 61.384331 
L 239.472801 59.987371 
L 236.16 58.752924 
L 232.847199 57.675724 
L 229.534397 56.746755 
L 226.221596 55.955861 
L 222.908794 55.29307 
L 219.595993 54.749202 
L 216.283191 54.316144 
L 212.97039 53.986897 
L 209.657588 53.755554 
L 206.344787 53.617232 
L 203.031985 53.568 
L 199.719184 53.604803 
L 196.406382 53.725408 
L 193.093581 53.928344 
L 189.780779 54.212884 
L 186.467978 54.579028 
L 183.155176 55.027482 
L 179.842375 55.559686 
L 176.529573 56.177826 
L 173.216772 56.884858 
L 169.90397 57.684528 
L 166.591169 58.581393 
L 163.278367 59.580899 
L 159.965566 60.689518 
L 156.652764 61.91493 
L 153.339963 63.266213 
L 150.027161 64.754087 
L 146.71436 66.391196 
L 143.401558 68.192429 
L 140.088757 70.175349 
L 136.775955 72.360717 
L 133.463154 74.773168 
L 130.150353 77.442065 
L 126.837551 80.402601 
L 123.52475 83.697153 
L 120.211948 87.377027 
L 116.899147 91.504698 
L 113.586345 96.156807 
L 110.273544 101.428165 
L 106.960742 107.436748 
L 103.647941 114.330168 
L 100.335139 122.293991 
L 97.022338 131.562538 
L 93.709536 142.43317 
L 90.396735 155.28678 
L 87.083933 170.622898 
L 83.771132 189.134956 
L 80.45833 211.893141 
L 77.145529 240.838356 
L 73.832727 280.336572 
z
" style="fill:#ff0000;fill-opacity:0.4;"/>
   </g>
   <g id="PolyCollection_2">
    <path clip-path="url(#p6aac31825b)" d="M 73.832727 280.965779 
L 73.832727 295.488 
L 77.145529 255.78511 
L 80.45833 226.582972 
L 83.771132 203.497541 
L 87.083933 184.582917 
L 90.396735 168.782331 
L 93.709536 155.428238 
L 97.022338 144.047891 
L 100.335139 134.2816 
L 103.647941 125.845773 
L 106.960742 118.513464 
L 110.273544 112.101988 
L 113.586345 106.463793 
L 116.899147 101.479323 
L 120.211948 97.051386 
L 123.52475 93.100522 
L 126.837551 89.561405 
L 130.150353 86.380082 
L 133.463154 83.511807 
L 136.775955 80.919309 
L 140.088757 78.571402 
L 143.401558 76.441875 
L 146.71436 74.508622 
L 150.027161 72.75294 
L 153.339963 71.158939 
L 156.652764 69.713122 
L 159.965566 68.404062 
L 163.278367 67.222072 
L 166.591169 66.158951 
L 169.90397 65.207786 
L 173.216772 64.362769 
L 176.529573 63.619057 
L 179.842375 62.97271 
L 183.155176 62.420639 
L 186.467978 61.96059 
L 189.780779 61.591116 
L 193.093581 61.311588 
L 196.406382 61.122162 
L 199.719184 61.023802 
L 203.031985 61.0183 
L 206.344787 61.10832 
L 209.657588 61.297451 
L 212.97039 61.590271 
L 216.283191 61.992422 
L 219.595993 62.510675 
L 222.908794 63.152985 
L 226.221596 63.92848 
L 229.534397 64.847292 
L 232.847199 65.920105 
L 236.16 67.157071 
L 239.472801 68.565608 
L 242.785603 70.146151 
L 246.098404 71.885046 
L 249.411206 73.745141 
L 252.724007 75.659497 
L 256.036809 77.538463 
L 259.34961 79.293304 
L 262.662412 80.861144 
L 265.975213 82.213325 
L 269.288015 83.348106 
L 272.600816 84.279147 
L 275.913618 85.026783 
L 279.226419 85.612987 
L 282.539221 86.058906 
L 285.852022 86.383825 
L 289.164824 86.604862 
L 292.477625 86.737012 
L 295.790427 86.793329 
L 299.103228 86.785151 
L 302.41603 86.722342 
L 305.728831 86.613504 
L 309.041633 86.466159 
L 312.354434 86.286916 
L 315.667236 86.081616 
L 318.980037 85.855459 
L 322.292839 85.613096 
L 325.60564 85.358698 
L 328.918442 85.09603 
L 332.231243 84.828523 
L 335.544045 84.559357 
L 338.856846 84.291522 
L 342.169647 84.027853 
L 345.482449 83.771055 
L 348.79525 83.52372 
L 352.108052 83.288355 
L 355.420853 83.067398 
L 358.733655 82.863228 
L 362.046456 82.678166 
L 365.359258 82.514498 
L 368.672059 82.374502 
L 371.984861 82.260471 
L 375.297662 82.174729 
L 378.610464 82.119651 
L 381.923265 82.09769 
L 385.236067 82.111389 
L 388.548868 82.163413 
L 391.86167 82.256604 
L 395.174471 82.394017 
L 398.487273 82.578943 
L 398.487273 72.529707 
L 398.487273 72.529707 
L 395.174471 72.438547 
L 391.86167 72.38726 
L 388.548868 72.373149 
L 385.236067 72.393667 
L 381.923265 72.446402 
L 378.610464 72.529057 
L 375.297662 72.639434 
L 371.984861 72.77542 
L 368.672059 72.934963 
L 365.359258 73.116052 
L 362.046456 73.316694 
L 358.733655 73.534887 
L 355.420853 73.768611 
L 352.108052 74.015812 
L 348.79525 74.274377 
L 345.482449 74.542128 
L 342.169647 74.816804 
L 338.856846 75.096044 
L 335.544045 75.37736 
L 332.231243 75.658128 
L 328.918442 75.935546 
L 325.60564 76.206598 
L 322.292839 76.467984 
L 318.980037 76.716055 
L 315.667236 76.946736 
L 312.354434 77.155451 
L 309.041633 77.337038 
L 305.728831 77.485643 
L 302.41603 77.594577 
L 299.103228 77.656155 
L 295.790427 77.661519 
L 292.477625 77.600436 
L 289.164824 77.461057 
L 285.852022 77.229667 
L 282.539221 76.890449 
L 279.226419 76.425346 
L 275.913618 75.814161 
L 272.600816 75.035228 
L 269.288015 74.067245 
L 265.975213 72.893266 
L 262.662412 71.508079 
L 259.34961 69.928928 
L 256.036809 68.204829 
L 252.724007 66.413904 
L 249.411206 64.643382 
L 246.098404 62.964926 
L 242.785603 61.422914 
L 239.472801 60.037347 
L 236.16 58.812239 
L 232.847199 57.742944 
L 229.534397 56.820886 
L 226.221596 56.036207 
L 222.908794 55.37914 
L 219.595993 54.840659 
L 216.283191 54.412756 
L 212.97039 54.088515 
L 209.657588 53.862082 
L 206.344787 53.728615 
L 203.031985 53.684215 
L 199.719184 53.725862 
L 196.406382 53.851359 
L 193.093581 54.059277 
L 189.780779 54.348929 
L 186.467978 54.720344 
L 183.155176 55.174265 
L 179.842375 55.712157 
L 176.529573 56.33622 
L 173.216772 57.049408 
L 169.90397 57.855451 
L 166.591169 58.758901 
L 163.278367 59.765195 
L 159.965566 60.880807 
L 156.652764 62.113423 
L 153.339963 63.472131 
L 150.027161 64.967664 
L 146.71436 66.612684 
L 143.401558 68.422105 
L 140.088757 70.413512 
L 136.775955 72.607706 
L 133.463154 75.029366 
L 130.150353 77.707913 
L 126.837551 80.678603 
L 123.52475 83.983887 
L 120.211948 87.675163 
L 116.899147 91.815042 
L 113.586345 96.480322 
L 110.273544 101.765968 
L 106.960742 107.790161 
L 103.647941 114.700762 
L 100.335139 122.68365 
L 97.022338 131.97352 
L 93.709536 142.868087 
L 90.396735 155.748433 
L 87.083933 171.114042 
L 83.771132 189.658016 
L 80.45833 212.449777 
L 77.145529 241.430272 
L 73.832727 280.965779 
z
" style="fill:#ffa500;fill-opacity:0.4;"/>
   </g>
   <g id="PolyCollection_3">
    <path clip-path="url(#p6aac31825b)" d="M 73.832727 281.327006 
L 73.832727 295.446377 
L 77.145529 255.754402 
L 80.45833 226.562634 
L 83.771132 203.486319 
L 87.083933 184.579565 
L 90.396735 168.785786 
L 93.709536 155.437593 
L 97.022338 144.062331 
L 100.335139 134.30033 
L 103.647941 125.868073 
L 106.960742 118.538711 
L 110.273544 112.12965 
L 113.586345 106.493414 
L 116.899147 101.51053 
L 120.211948 97.083855 
L 123.52475 93.133997 
L 126.837551 89.595693 
L 130.150353 86.415048 
L 133.463154 83.547343 
L 136.775955 80.955339 
L 140.088757 78.60788 
L 143.401558 76.478783 
L 146.71436 74.545963 
L 150.027161 72.790732 
L 153.339963 71.197218 
L 156.652764 69.751944 
L 159.965566 68.443504 
L 163.278367 67.262239 
L 166.591169 66.199966 
L 169.90397 65.249779 
L 173.216772 64.405885 
L 176.529573 63.663462 
L 179.842375 63.018597 
L 183.155176 62.468218 
L 186.467978 62.010082 
L 189.780779 61.642751 
L 193.093581 61.365594 
L 196.406382 61.17878 
L 199.719184 61.083296 
L 203.031985 61.080956 
L 206.344787 61.174435 
L 209.657588 61.367326 
L 212.97039 61.664228 
L 216.283191 62.070814 
L 219.595993 62.593903 
L 222.908794 63.241488 
L 226.221596 64.02273 
L 229.534397 64.94779 
L 232.847199 66.027338 
L 236.16 67.271446 
L 239.472801 68.687295 
L 242.785603 70.274844 
L 246.098404 72.019612 
L 249.411206 73.883351 
L 252.724007 75.798182 
L 256.036809 77.674318 
L 259.34961 79.423882 
L 262.662412 80.985265 
L 265.975213 82.330844 
L 269.288015 83.459484 
L 272.600816 84.385111 
L 275.913618 85.12812 
L 279.226419 85.710447 
L 282.539221 86.15315 
L 285.852022 86.475426 
L 289.164824 86.694312 
L 292.477625 86.824733 
L 295.790427 86.879681 
L 299.103228 86.870448 
L 302.41603 86.806846 
L 305.728831 86.697432 
L 309.041633 86.549696 
L 312.354434 86.37022 
L 315.667236 86.164827 
L 318.980037 85.938701 
L 322.292839 85.696474 
L 325.60564 85.442301 
L 328.918442 85.179922 
L 332.231243 84.912754 
L 335.544045 84.643971 
L 338.856846 84.376558 
L 342.169647 84.113353 
L 345.482449 83.857062 
L 348.79525 83.610277 
L 352.108052 83.375508 
L 355.420853 83.155193 
L 358.733655 82.951708 
L 362.046456 82.767372 
L 365.359258 82.604463 
L 368.672059 82.465249 
L 371.984861 82.352 
L 375.297662 82.267003 
L 378.610464 82.212593 
L 381.923265 82.191178 
L 385.236067 82.205256 
L 388.548868 82.257458 
L 391.86167 82.350583 
L 395.174471 82.487641 
L 398.487273 82.67187 
L 398.487273 72.400389 
L 398.487273 72.400389 
L 395.174471 72.319251 
L 391.86167 72.277282 
L 388.548868 72.271865 
L 385.236067 72.300527 
L 381.923265 72.36092 
L 378.610464 72.450806 
L 375.297662 72.568048 
L 371.984861 72.71058 
L 368.672059 72.876397 
L 365.359258 73.063525 
L 362.046456 73.270002 
L 358.733655 73.493857 
L 355.420853 73.733102 
L 352.108052 73.985707 
L 348.79525 74.249588 
L 345.482449 74.522596 
L 342.169647 74.802496 
L 338.856846 75.086949 
L 335.544045 75.373491 
L 332.231243 75.659515 
L 328.918442 75.942245 
L 325.60564 76.218686 
L 322.292839 76.485571 
L 318.980037 76.739282 
L 315.667236 76.975766 
L 312.354434 77.190463 
L 309.041633 77.37823 
L 305.728831 77.533226 
L 302.41603 77.648778 
L 299.103228 77.717221 
L 295.790427 77.729717 
L 292.477625 77.676047 
L 289.164824 77.544366 
L 285.852022 77.320945 
L 282.539221 76.989935 
L 279.226419 76.533214 
L 275.913618 75.93047 
L 272.600816 75.159828 
L 269.288015 74.199641 
L 265.975213 73.032429 
L 262.662412 71.652289 
L 259.34961 70.075756 
L 256.036809 68.351422 
L 252.724007 66.557567 
L 249.411206 64.782193 
L 246.098404 63.097948 
L 242.785603 61.550005 
L 239.472801 60.158831 
L 236.16 58.928655 
L 232.847199 57.854907 
L 229.534397 56.92901 
L 226.221596 56.141075 
L 222.908794 55.481294 
L 219.595993 54.940598 
L 216.283191 54.510941 
L 212.97039 54.185366 
L 209.657588 53.957987 
L 206.344787 53.823944 
L 203.031985 53.779328 
L 199.719184 53.821119 
L 196.406382 53.947103 
L 193.093581 54.15583 
L 189.780779 54.446589 
L 186.467978 54.819398 
L 183.155176 55.274996 
L 179.842375 55.814841 
L 176.529573 56.441114 
L 173.216772 57.156748 
L 169.90397 57.965453 
L 166.591169 58.87176 
L 163.278367 59.881103 
L 159.965566 60.999946 
L 156.652764 62.235971 
L 153.339963 63.598262 
L 150.027161 65.09755 
L 146.71436 66.7465 
L 143.401558 68.560037 
L 140.088757 70.555756 
L 136.775955 72.754474 
L 133.463154 75.180893 
L 130.150353 77.864472 
L 126.837551 80.840504 
L 123.52475 84.151502 
L 120.211948 87.848923 
L 116.899147 91.995435 
L 113.586345 96.667925 
L 110.273544 101.961453 
L 106.960742 107.994308 
L 103.647941 114.914484 
L 100.335139 122.908006 
L 97.022338 132.209721 
L 93.709536 143.117537 
L 90.396735 156.012611 
L 87.083933 171.394388 
L 83.771132 189.955798 
L 80.45833 212.766165 
L 77.145529 241.767175 
L 73.832727 281.327006 
z
" style="fill:#ff00ff;fill-opacity:0.4;"/>
   </g>
   <g id="matplotlib.axis_1">
    <g id="xtick_1">
     <g id="line2d_1">
      <path clip-path="url(#p6aac31825b)" d="M 70.519926 307.584 
L 70.519926 41.472 
" style="fill:none;stroke:#b0b0b0;stroke-linecap:square;stroke-width:0.8;"/>
     </g>
     <g id="line2d_2">
      <defs>
       <path d="M 0 0 
L 0 3.5 
" id="m623b8e16e0" style="stroke:#000000;stroke-width:0.8;"/>
      </defs>
      <g>
       <use style="stroke:#000000;stroke-width:0.8;" x="70.519926" xlink:href="#m623b8e16e0" y="307.584"/>
      </g>
     </g>
     <g id="text_1">
      <!-- 0.0 -->
      <defs>
       <path d="M 31.78125 66.40625 
Q 24.171875 66.40625 20.328125 58.90625 
Q 16.5 51.421875 16.5 36.375 
Q 16.5 21.390625 20.328125 13.890625 
Q 24.171875 6.390625 31.78125 6.390625 
Q 39.453125 6.390625 43.28125 13.890625 
Q 47.125 21.390625 47.125 36.375 
Q 47.125 51.421875 43.28125 58.90625 
Q 39.453125 66.40625 31.78125 66.40625 
z
M 31.78125 74.21875 
Q 44.046875 74.21875 50.515625 64.515625 
Q 56.984375 54.828125 56.984375 36.375 
Q 56.984375 17.96875 50.515625 8.265625 
Q 44.046875 -1.421875 31.78125 -1.421875 
Q 19.53125 -1.421875 13.0625 8.265625 
Q 6.59375 17.96875 6.59375 36.375 
Q 6.59375 54.828125 13.0625 64.515625 
Q 19.53125 74.21875 31.78125 74.21875 
z
" id="DejaVuSans-48"/>
       <path d="M 10.6875 12.40625 
L 21 12.40625 
L 21 0 
L 10.6875 0 
z
" id="DejaVuSans-46"/>
      </defs>
      <g transform="translate(62.568363 322.182437)scale(0.1 -0.1)">
       <use xlink:href="#DejaVuSans-48"/>
       <use x="63.623047" xlink:href="#DejaVuSans-46"/>
       <use x="95.410156" xlink:href="#DejaVuSans-48"/>
      </g>
     </g>
    </g>
    <g id="xtick_2">
     <g id="line2d_3">
      <path clip-path="url(#p6aac31825b)" d="M 136.775955 307.584 
L 136.775955 41.472 
" style="fill:none;stroke:#b0b0b0;stroke-linecap:square;stroke-width:0.8;"/>
     </g>
     <g id="line2d_4">
      <g>
       <use style="stroke:#000000;stroke-width:0.8;" x="136.775955" xlink:href="#m623b8e16e0" y="307.584"/>
      </g>
     </g>
     <g id="text_2">
      <!-- 0.2 -->
      <defs>
       <path d="M 19.1875 8.296875 
L 53.609375 8.296875 
L 53.609375 0 
L 7.328125 0 
L 7.328125 8.296875 
Q 12.9375 14.109375 22.625 23.890625 
Q 32.328125 33.6875 34.8125 36.53125 
Q 39.546875 41.84375 41.421875 45.53125 
Q 43.3125 49.21875 43.3125 52.78125 
Q 43.3125 58.59375 39.234375 62.25 
Q 35.15625 65.921875 28.609375 65.921875 
Q 23.96875 65.921875 18.8125 64.3125 
Q 13.671875 62.703125 7.8125 59.421875 
L 7.8125 69.390625 
Q 13.765625 71.78125 18.9375 73 
Q 24.125 74.21875 28.421875 74.21875 
Q 39.75 74.21875 46.484375 68.546875 
Q 53.21875 62.890625 53.21875 53.421875 
Q 53.21875 48.921875 51.53125 44.890625 
Q 49.859375 40.875 45.40625 35.40625 
Q 44.1875 33.984375 37.640625 27.21875 
Q 31.109375 20.453125 19.1875 8.296875 
z
" id="DejaVuSans-50"/>
      </defs>
      <g transform="translate(128.824393 322.182437)scale(0.1 -0.1)">
       <use xlink:href="#DejaVuSans-48"/>
       <use x="63.623047" xlink:href="#DejaVuSans-46"/>
       <use x="95.410156" xlink:href="#DejaVuSans-50"/>
      </g>
     </g>
    </g>
    <g id="xtick_3">
     <g id="line2d_5">
      <path clip-path="url(#p6aac31825b)" d="M 203.031985 307.584 
L 203.031985 41.472 
" style="fill:none;stroke:#b0b0b0;stroke-linecap:square;stroke-width:0.8;"/>
     </g>
     <g id="line2d_6">
      <g>
       <use style="stroke:#000000;stroke-width:0.8;" x="203.031985" xlink:href="#m623b8e16e0" y="307.584"/>
      </g>
     </g>
     <g id="text_3">
      <!-- 0.4 -->
      <defs>
       <path d="M 37.796875 64.3125 
L 12.890625 25.390625 
L 37.796875 25.390625 
z
M 35.203125 72.90625 
L 47.609375 72.90625 
L 47.609375 25.390625 
L 58.015625 25.390625 
L 58.015625 17.1875 
L 47.609375 17.1875 
L 47.609375 0 
L 37.796875 0 
L 37.796875 17.1875 
L 4.890625 17.1875 
L 4.890625 26.703125 
z
" id="DejaVuSans-52"/>
      </defs>
      <g transform="translate(195.080423 322.182437)scale(0.1 -0.1)">
       <use xlink:href="#DejaVuSans-48"/>
       <use x="63.623047" xlink:href="#DejaVuSans-46"/>
       <use x="95.410156" xlink:href="#DejaVuSans-52"/>
      </g>
     </g>
    </g>
    <g id="xtick_4">
     <g id="line2d_7">
      <path clip-path="url(#p6aac31825b)" d="M 269.288015 307.584 
L 269.288015 41.472 
" style="fill:none;stroke:#b0b0b0;stroke-linecap:square;stroke-width:0.8;"/>
     </g>
     <g id="line2d_8">
      <g>
       <use style="stroke:#000000;stroke-width:0.8;" x="269.288015" xlink:href="#m623b8e16e0" y="307.584"/>
      </g>
     </g>
     <g id="text_4">
      <!-- 0.6 -->
      <defs>
       <path d="M 33.015625 40.375 
Q 26.375 40.375 22.484375 35.828125 
Q 18.609375 31.296875 18.609375 23.390625 
Q 18.609375 15.53125 22.484375 10.953125 
Q 26.375 6.390625 33.015625 6.390625 
Q 39.65625 6.390625 43.53125 10.953125 
Q 47.40625 15.53125 47.40625 23.390625 
Q 47.40625 31.296875 43.53125 35.828125 
Q 39.65625 40.375 33.015625 40.375 
z
M 52.59375 71.296875 
L 52.59375 62.3125 
Q 48.875 64.0625 45.09375 64.984375 
Q 41.3125 65.921875 37.59375 65.921875 
Q 27.828125 65.921875 22.671875 59.328125 
Q 17.53125 52.734375 16.796875 39.40625 
Q 19.671875 43.65625 24.015625 45.921875 
Q 28.375 48.1875 33.59375 48.1875 
Q 44.578125 48.1875 50.953125 41.515625 
Q 57.328125 34.859375 57.328125 23.390625 
Q 57.328125 12.15625 50.6875 5.359375 
Q 44.046875 -1.421875 33.015625 -1.421875 
Q 20.359375 -1.421875 13.671875 8.265625 
Q 6.984375 17.96875 6.984375 36.375 
Q 6.984375 53.65625 15.1875 63.9375 
Q 23.390625 74.21875 37.203125 74.21875 
Q 40.921875 74.21875 44.703125 73.484375 
Q 48.484375 72.75 52.59375 71.296875 
z
" id="DejaVuSans-54"/>
      </defs>
      <g transform="translate(261.336452 322.182437)scale(0.1 -0.1)">
       <use xlink:href="#DejaVuSans-48"/>
       <use x="63.623047" xlink:href="#DejaVuSans-46"/>
       <use x="95.410156" xlink:href="#DejaVuSans-54"/>
      </g>
     </g>
    </g>
    <g id="xtick_5">
     <g id="line2d_9">
      <path clip-path="url(#p6aac31825b)" d="M 335.544045 307.584 
L 335.544045 41.472 
" style="fill:none;stroke:#b0b0b0;stroke-linecap:square;stroke-width:0.8;"/>
     </g>
     <g id="line2d_10">
      <g>
       <use style="stroke:#000000;stroke-width:0.8;" x="335.544045" xlink:href="#m623b8e16e0" y="307.584"/>
      </g>
     </g>
     <g id="text_5">
      <!-- 0.8 -->
      <defs>
       <path d="M 31.78125 34.625 
Q 24.75 34.625 20.71875 30.859375 
Q 16.703125 27.09375 16.703125 20.515625 
Q 16.703125 13.921875 20.71875 10.15625 
Q 24.75 6.390625 31.78125 6.390625 
Q 38.8125 6.390625 42.859375 10.171875 
Q 46.921875 13.96875 46.921875 20.515625 
Q 46.921875 27.09375 42.890625 30.859375 
Q 38.875 34.625 31.78125 34.625 
z
M 21.921875 38.8125 
Q 15.578125 40.375 12.03125 44.71875 
Q 8.5 49.078125 8.5 55.328125 
Q 8.5 64.0625 14.71875 69.140625 
Q 20.953125 74.21875 31.78125 74.21875 
Q 42.671875 74.21875 48.875 69.140625 
Q 55.078125 64.0625 55.078125 55.328125 
Q 55.078125 49.078125 51.53125 44.71875 
Q 48 40.375 41.703125 38.8125 
Q 48.828125 37.15625 52.796875 32.3125 
Q 56.78125 27.484375 56.78125 20.515625 
Q 56.78125 9.90625 50.3125 4.234375 
Q 43.84375 -1.421875 31.78125 -1.421875 
Q 19.734375 -1.421875 13.25 4.234375 
Q 6.78125 9.90625 6.78125 20.515625 
Q 6.78125 27.484375 10.78125 32.3125 
Q 14.796875 37.15625 21.921875 38.8125 
z
M 18.3125 54.390625 
Q 18.3125 48.734375 21.84375 45.5625 
Q 25.390625 42.390625 31.78125 42.390625 
Q 38.140625 42.390625 41.71875 45.5625 
Q 45.3125 48.734375 45.3125 54.390625 
Q 45.3125 60.0625 41.71875 63.234375 
Q 38.140625 66.40625 31.78125 66.40625 
Q 25.390625 66.40625 21.84375 63.234375 
Q 18.3125 60.0625 18.3125 54.390625 
z
" id="DejaVuSans-56"/>
      </defs>
      <g transform="translate(327.592482 322.182437)scale(0.1 -0.1)">
       <use xlink:href="#DejaVuSans-48"/>
       <use x="63.623047" xlink:href="#DejaVuSans-46"/>
       <use x="95.410156" xlink:href="#DejaVuSans-56"/>
      </g>
     </g>
    </g>
    <g id="xtick_6">
     <g id="line2d_11">
      <path clip-path="url(#p6aac31825b)" d="M 401.800074 307.584 
L 401.800074 41.472 
" style="fill:none;stroke:#b0b0b0;stroke-linecap:square;stroke-width:0.8;"/>
     </g>
     <g id="line2d_12">
      <g>
       <use style="stroke:#000000;stroke-width:0.8;" x="401.800074" xlink:href="#m623b8e16e0" y="307.584"/>
      </g>
     </g>
     <g id="text_6">
      <!-- 1.0 -->
      <defs>
       <path d="M 12.40625 8.296875 
L 28.515625 8.296875 
L 28.515625 63.921875 
L 10.984375 60.40625 
L 10.984375 69.390625 
L 28.421875 72.90625 
L 38.28125 72.90625 
L 38.28125 8.296875 
L 54.390625 8.296875 
L 54.390625 0 
L 12.40625 0 
z
" id="DejaVuSans-49"/>
      </defs>
      <g transform="translate(393.848512 322.182437)scale(0.1 -0.1)">
       <use xlink:href="#DejaVuSans-49"/>
       <use x="63.623047" xlink:href="#DejaVuSans-46"/>
       <use x="95.410156" xlink:href="#DejaVuSans-48"/>
      </g>
     </g>
    </g>
    <g id="text_7">
     <!-- $\mathrm{Time \ (seconds)}$ -->
     <defs>
      <path d="M -0.296875 72.90625 
L 61.375 72.90625 
L 61.375 64.59375 
L 35.5 64.59375 
L 35.5 0 
L 25.59375 0 
L 25.59375 64.59375 
L -0.296875 64.59375 
z
" id="DejaVuSans-84"/>
      <path d="M 9.421875 54.6875 
L 18.40625 54.6875 
L 18.40625 0 
L 9.421875 0 
z
M 9.421875 75.984375 
L 18.40625 75.984375 
L 18.40625 64.59375 
L 9.421875 64.59375 
z
" id="DejaVuSans-105"/>
      <path d="M 52 44.1875 
Q 55.375 50.25 60.0625 53.125 
Q 64.75 56 71.09375 56 
Q 79.640625 56 84.28125 50.015625 
Q 88.921875 44.046875 88.921875 33.015625 
L 88.921875 0 
L 79.890625 0 
L 79.890625 32.71875 
Q 79.890625 40.578125 77.09375 44.375 
Q 74.3125 48.1875 68.609375 48.1875 
Q 61.625 48.1875 57.5625 43.546875 
Q 53.515625 38.921875 53.515625 30.90625 
L 53.515625 0 
L 44.484375 0 
L 44.484375 32.71875 
Q 44.484375 40.625 41.703125 44.40625 
Q 38.921875 48.1875 33.109375 48.1875 
Q 26.21875 48.1875 22.15625 43.53125 
Q 18.109375 38.875 18.109375 30.90625 
L 18.109375 0 
L 9.078125 0 
L 9.078125 54.6875 
L 18.109375 54.6875 
L 18.109375 46.1875 
Q 21.1875 51.21875 25.484375 53.609375 
Q 29.78125 56 35.6875 56 
Q 41.65625 56 45.828125 52.96875 
Q 50 49.953125 52 44.1875 
z
" id="DejaVuSans-109"/>
      <path d="M 56.203125 29.59375 
L 56.203125 25.203125 
L 14.890625 25.203125 
Q 15.484375 15.921875 20.484375 11.0625 
Q 25.484375 6.203125 34.421875 6.203125 
Q 39.59375 6.203125 44.453125 7.46875 
Q 49.3125 8.734375 54.109375 11.28125 
L 54.109375 2.78125 
Q 49.265625 0.734375 44.1875 -0.34375 
Q 39.109375 -1.421875 33.890625 -1.421875 
Q 20.796875 -1.421875 13.15625 6.1875 
Q 5.515625 13.8125 5.515625 26.8125 
Q 5.515625 40.234375 12.765625 48.109375 
Q 20.015625 56 32.328125 56 
Q 43.359375 56 49.78125 48.890625 
Q 56.203125 41.796875 56.203125 29.59375 
z
M 47.21875 32.234375 
Q 47.125 39.59375 43.09375 43.984375 
Q 39.0625 48.390625 32.421875 48.390625 
Q 24.90625 48.390625 20.390625 44.140625 
Q 15.875 39.890625 15.1875 32.171875 
z
" id="DejaVuSans-101"/>
      <path d="M 31 75.875 
Q 24.46875 64.65625 21.28125 53.65625 
Q 18.109375 42.671875 18.109375 31.390625 
Q 18.109375 20.125 21.3125 9.0625 
Q 24.515625 -2 31 -13.1875 
L 23.1875 -13.1875 
Q 15.875 -1.703125 12.234375 9.375 
Q 8.59375 20.453125 8.59375 31.390625 
Q 8.59375 42.28125 12.203125 53.3125 
Q 15.828125 64.359375 23.1875 75.875 
z
" id="DejaVuSans-40"/>
      <path d="M 44.28125 53.078125 
L 44.28125 44.578125 
Q 40.484375 46.53125 36.375 47.5 
Q 32.28125 48.484375 27.875 48.484375 
Q 21.1875 48.484375 17.84375 46.4375 
Q 14.5 44.390625 14.5 40.28125 
Q 14.5 37.15625 16.890625 35.375 
Q 19.28125 33.59375 26.515625 31.984375 
L 29.59375 31.296875 
Q 39.15625 29.25 43.1875 25.515625 
Q 47.21875 21.78125 47.21875 15.09375 
Q 47.21875 7.46875 41.1875 3.015625 
Q 35.15625 -1.421875 24.609375 -1.421875 
Q 20.21875 -1.421875 15.453125 -0.5625 
Q 10.6875 0.296875 5.421875 2 
L 5.421875 11.28125 
Q 10.40625 8.6875 15.234375 7.390625 
Q 20.0625 6.109375 24.8125 6.109375 
Q 31.15625 6.109375 34.5625 8.28125 
Q 37.984375 10.453125 37.984375 14.40625 
Q 37.984375 18.0625 35.515625 20.015625 
Q 33.0625 21.96875 24.703125 23.78125 
L 21.578125 24.515625 
Q 13.234375 26.265625 9.515625 29.90625 
Q 5.8125 33.546875 5.8125 39.890625 
Q 5.8125 47.609375 11.28125 51.796875 
Q 16.75 56 26.8125 56 
Q 31.78125 56 36.171875 55.265625 
Q 40.578125 54.546875 44.28125 53.078125 
z
" id="DejaVuSans-115"/>
      <path d="M 48.78125 52.59375 
L 48.78125 44.1875 
Q 44.96875 46.296875 41.140625 47.34375 
Q 37.3125 48.390625 33.40625 48.390625 
Q 24.65625 48.390625 19.8125 42.84375 
Q 14.984375 37.3125 14.984375 27.296875 
Q 14.984375 17.28125 19.8125 11.734375 
Q 24.65625 6.203125 33.40625 6.203125 
Q 37.3125 6.203125 41.140625 7.25 
Q 44.96875 8.296875 48.78125 10.40625 
L 48.78125 2.09375 
Q 45.015625 0.34375 40.984375 -0.53125 
Q 36.96875 -1.421875 32.421875 -1.421875 
Q 20.0625 -1.421875 12.78125 6.34375 
Q 5.515625 14.109375 5.515625 27.296875 
Q 5.515625 40.671875 12.859375 48.328125 
Q 20.21875 56 33.015625 56 
Q 37.15625 56 41.109375 55.140625 
Q 45.0625 54.296875 48.78125 52.59375 
z
" id="DejaVuSans-99"/>
      <path d="M 30.609375 48.390625 
Q 23.390625 48.390625 19.1875 42.75 
Q 14.984375 37.109375 14.984375 27.296875 
Q 14.984375 17.484375 19.15625 11.84375 
Q 23.34375 6.203125 30.609375 6.203125 
Q 37.796875 6.203125 41.984375 11.859375 
Q 46.1875 17.53125 46.1875 27.296875 
Q 46.1875 37.015625 41.984375 42.703125 
Q 37.796875 48.390625 30.609375 48.390625 
z
M 30.609375 56 
Q 42.328125 56 49.015625 48.375 
Q 55.71875 40.765625 55.71875 27.296875 
Q 55.71875 13.875 49.015625 6.21875 
Q 42.328125 -1.421875 30.609375 -1.421875 
Q 18.84375 -1.421875 12.171875 6.21875 
Q 5.515625 13.875 5.515625 27.296875 
Q 5.515625 40.765625 12.171875 48.375 
Q 18.84375 56 30.609375 56 
z
" id="DejaVuSans-111"/>
      <path d="M 54.890625 33.015625 
L 54.890625 0 
L 45.90625 0 
L 45.90625 32.71875 
Q 45.90625 40.484375 42.875 44.328125 
Q 39.84375 48.1875 33.796875 48.1875 
Q 26.515625 48.1875 22.3125 43.546875 
Q 18.109375 38.921875 18.109375 30.90625 
L 18.109375 0 
L 9.078125 0 
L 9.078125 54.6875 
L 18.109375 54.6875 
L 18.109375 46.1875 
Q 21.34375 51.125 25.703125 53.5625 
Q 30.078125 56 35.796875 56 
Q 45.21875 56 50.046875 50.171875 
Q 54.890625 44.34375 54.890625 33.015625 
z
" id="DejaVuSans-110"/>
      <path d="M 45.40625 46.390625 
L 45.40625 75.984375 
L 54.390625 75.984375 
L 54.390625 0 
L 45.40625 0 
L 45.40625 8.203125 
Q 42.578125 3.328125 38.25 0.953125 
Q 33.9375 -1.421875 27.875 -1.421875 
Q 17.96875 -1.421875 11.734375 6.484375 
Q 5.515625 14.40625 5.515625 27.296875 
Q 5.515625 40.1875 11.734375 48.09375 
Q 17.96875 56 27.875 56 
Q 33.9375 56 38.25 53.625 
Q 42.578125 51.265625 45.40625 46.390625 
z
M 14.796875 27.296875 
Q 14.796875 17.390625 18.875 11.75 
Q 22.953125 6.109375 30.078125 6.109375 
Q 37.203125 6.109375 41.296875 11.75 
Q 45.40625 17.390625 45.40625 27.296875 
Q 45.40625 37.203125 41.296875 42.84375 
Q 37.203125 48.484375 30.078125 48.484375 
Q 22.953125 48.484375 18.875 42.84375 
Q 14.796875 37.203125 14.796875 27.296875 
z
" id="DejaVuSans-100"/>
      <path d="M 8.015625 75.875 
L 15.828125 75.875 
Q 23.140625 64.359375 26.78125 53.3125 
Q 30.421875 42.28125 30.421875 31.390625 
Q 30.421875 20.453125 26.78125 9.375 
Q 23.140625 -1.703125 15.828125 -13.1875 
L 8.015625 -13.1875 
Q 14.5 -2 17.703125 9.0625 
Q 20.90625 20.125 20.90625 31.390625 
Q 20.90625 42.671875 17.703125 53.65625 
Q 14.5 64.65625 8.015625 75.875 
z
" id="DejaVuSans-41"/>
     </defs>
     <g transform="translate(197.76 335.860562)scale(0.1 -0.1)">
      <use transform="translate(0 0.015625)" xlink:href="#DejaVuSans-84"/>
      <use transform="translate(61.083984 0.015625)" xlink:href="#DejaVuSans-105"/>
      <use transform="translate(88.867188 0.015625)" xlink:href="#DejaVuSans-109"/>
      <use transform="translate(186.279297 0.015625)" xlink:href="#DejaVuSans-101"/>
      <use transform="translate(280.273113 0.015625)" xlink:href="#DejaVuSans-40"/>
      <use transform="translate(319.286785 0.015625)" xlink:href="#DejaVuSans-115"/>
      <use transform="translate(371.386394 0.015625)" xlink:href="#DejaVuSans-101"/>
      <use transform="translate(432.909832 0.015625)" xlink:href="#DejaVuSans-99"/>
      <use transform="translate(487.8903 0.015625)" xlink:href="#DejaVuSans-111"/>
      <use transform="translate(549.071941 0.015625)" xlink:href="#DejaVuSans-110"/>
      <use transform="translate(612.450847 0.015625)" xlink:href="#DejaVuSans-100"/>
      <use transform="translate(675.92741 0.015625)" xlink:href="#DejaVuSans-115"/>
      <use transform="translate(728.027019 0.015625)" xlink:href="#DejaVuSans-41"/>
     </g>
    </g>
   </g>
   <g id="matplotlib.axis_2">
    <g id="ytick_1">
     <g id="line2d_13">
      <path clip-path="url(#p6aac31825b)" d="M 57.6 235.15545 
L 414.72 235.15545 
" style="fill:none;stroke:#b0b0b0;stroke-linecap:square;stroke-width:0.8;"/>
     </g>
     <g id="line2d_14">
      <defs>
       <path d="M 0 0 
L -3.5 0 
" id="maa56bc0aee" style="stroke:#000000;stroke-width:0.8;"/>
      </defs>
      <g>
       <use style="stroke:#000000;stroke-width:0.8;" x="57.6" xlink:href="#maa56bc0aee" y="235.15545"/>
      </g>
     </g>
     <g id="text_8">
      <!-- $\mathdefault{10^{-1}}$ -->
      <defs>
       <path d="M 10.59375 35.5 
L 73.1875 35.5 
L 73.1875 27.203125 
L 10.59375 27.203125 
z
" id="DejaVuSans-8722"/>
      </defs>
      <g transform="translate(27.1 238.954668)scale(0.1 -0.1)">
       <use transform="translate(0 0.684375)" xlink:href="#DejaVuSans-49"/>
       <use transform="translate(63.623047 0.684375)" xlink:href="#DejaVuSans-48"/>
       <use transform="translate(128.203125 38.965625)scale(0.7)" xlink:href="#DejaVuSans-8722"/>
       <use transform="translate(186.855469 38.965625)scale(0.7)" xlink:href="#DejaVuSans-49"/>
      </g>
     </g>
    </g>
    <g id="ytick_2">
     <g id="line2d_15">
      <defs>
       <path d="M 0 0 
L -2 0 
" id="m605a7a950b" style="stroke:#000000;stroke-width:0.6;"/>
      </defs>
      <g>
       <use style="stroke:#000000;stroke-width:0.6;" x="57.6" xlink:href="#m605a7a950b" y="289.071584"/>
      </g>
     </g>
    </g>
    <g id="ytick_3">
     <g id="line2d_16">
      <g>
       <use style="stroke:#000000;stroke-width:0.6;" x="57.6" xlink:href="#m605a7a950b" y="272.801435"/>
      </g>
     </g>
    </g>
    <g id="ytick_4">
     <g id="line2d_17">
      <g>
       <use style="stroke:#000000;stroke-width:0.6;" x="57.6" xlink:href="#m605a7a950b" y="258.707592"/>
      </g>
     </g>
    </g>
    <g id="ytick_5">
     <g id="line2d_18">
      <g>
       <use style="stroke:#000000;stroke-width:0.6;" x="57.6" xlink:href="#m605a7a950b" y="246.27594"/>
      </g>
     </g>
    </g>
    <g id="ytick_6">
     <g id="line2d_19">
      <g>
       <use style="stroke:#000000;stroke-width:0.6;" x="57.6" xlink:href="#m605a7a950b" y="161.995814"/>
      </g>
     </g>
    </g>
    <g id="ytick_7">
     <g id="line2d_20">
      <g>
       <use style="stroke:#000000;stroke-width:0.6;" x="57.6" xlink:href="#m605a7a950b" y="119.20017"/>
      </g>
     </g>
    </g>
    <g id="ytick_8">
     <g id="line2d_21">
      <g>
       <use style="stroke:#000000;stroke-width:0.6;" x="57.6" xlink:href="#m605a7a950b" y="88.836178"/>
      </g>
     </g>
    </g>
    <g id="ytick_9">
     <g id="line2d_22">
      <g>
       <use style="stroke:#000000;stroke-width:0.6;" x="57.6" xlink:href="#m605a7a950b" y="65.284036"/>
      </g>
     </g>
    </g>
    <g id="ytick_10">
     <g id="line2d_23">
      <g>
       <use style="stroke:#000000;stroke-width:0.6;" x="57.6" xlink:href="#m605a7a950b" y="46.040534"/>
      </g>
     </g>
    </g>
    <g id="text_9">
     <!-- $\mathrm{Relative \ error}$ ($N_{\mathrm{train}}=100$) -->
     <defs>
      <path d="M 44.390625 34.1875 
Q 47.5625 33.109375 50.5625 29.59375 
Q 53.5625 26.078125 56.59375 19.921875 
L 66.609375 0 
L 56 0 
L 46.6875 18.703125 
Q 43.0625 26.03125 39.671875 28.421875 
Q 36.28125 30.8125 30.421875 30.8125 
L 19.671875 30.8125 
L 19.671875 0 
L 9.8125 0 
L 9.8125 72.90625 
L 32.078125 72.90625 
Q 44.578125 72.90625 50.734375 67.671875 
Q 56.890625 62.453125 56.890625 51.90625 
Q 56.890625 45.015625 53.6875 40.46875 
Q 50.484375 35.9375 44.390625 34.1875 
z
M 19.671875 64.796875 
L 19.671875 38.921875 
L 32.078125 38.921875 
Q 39.203125 38.921875 42.84375 42.21875 
Q 46.484375 45.515625 46.484375 51.90625 
Q 46.484375 58.296875 42.84375 61.546875 
Q 39.203125 64.796875 32.078125 64.796875 
z
" id="DejaVuSans-82"/>
      <path d="M 9.421875 75.984375 
L 18.40625 75.984375 
L 18.40625 0 
L 9.421875 0 
z
" id="DejaVuSans-108"/>
      <path d="M 34.28125 27.484375 
Q 23.390625 27.484375 19.1875 25 
Q 14.984375 22.515625 14.984375 16.5 
Q 14.984375 11.71875 18.140625 8.90625 
Q 21.296875 6.109375 26.703125 6.109375 
Q 34.1875 6.109375 38.703125 11.40625 
Q 43.21875 16.703125 43.21875 25.484375 
L 43.21875 27.484375 
z
M 52.203125 31.203125 
L 52.203125 0 
L 43.21875 0 
L 43.21875 8.296875 
Q 40.140625 3.328125 35.546875 0.953125 
Q 30.953125 -1.421875 24.3125 -1.421875 
Q 15.921875 -1.421875 10.953125 3.296875 
Q 6 8.015625 6 15.921875 
Q 6 25.140625 12.171875 29.828125 
Q 18.359375 34.515625 30.609375 34.515625 
L 43.21875 34.515625 
L 43.21875 35.40625 
Q 43.21875 41.609375 39.140625 45 
Q 35.0625 48.390625 27.6875 48.390625 
Q 23 48.390625 18.546875 47.265625 
Q 14.109375 46.140625 10.015625 43.890625 
L 10.015625 52.203125 
Q 14.9375 54.109375 19.578125 55.046875 
Q 24.21875 56 28.609375 56 
Q 40.484375 56 46.34375 49.84375 
Q 52.203125 43.703125 52.203125 31.203125 
z
" id="DejaVuSans-97"/>
      <path d="M 18.3125 70.21875 
L 18.3125 54.6875 
L 36.8125 54.6875 
L 36.8125 47.703125 
L 18.3125 47.703125 
L 18.3125 18.015625 
Q 18.3125 11.328125 20.140625 9.421875 
Q 21.96875 7.515625 27.59375 7.515625 
L 36.8125 7.515625 
L 36.8125 0 
L 27.59375 0 
Q 17.1875 0 13.234375 3.875 
Q 9.28125 7.765625 9.28125 18.015625 
L 9.28125 47.703125 
L 2.6875 47.703125 
L 2.6875 54.6875 
L 9.28125 54.6875 
L 9.28125 70.21875 
z
" id="DejaVuSans-116"/>
      <path d="M 2.984375 54.6875 
L 12.5 54.6875 
L 29.59375 8.796875 
L 46.6875 54.6875 
L 56.203125 54.6875 
L 35.6875 0 
L 23.484375 0 
z
" id="DejaVuSans-118"/>
      <path d="M 41.109375 46.296875 
Q 39.59375 47.171875 37.8125 47.578125 
Q 36.03125 48 33.890625 48 
Q 26.265625 48 22.1875 43.046875 
Q 18.109375 38.09375 18.109375 28.8125 
L 18.109375 0 
L 9.078125 0 
L 9.078125 54.6875 
L 18.109375 54.6875 
L 18.109375 46.1875 
Q 20.953125 51.171875 25.484375 53.578125 
Q 30.03125 56 36.53125 56 
Q 37.453125 56 38.578125 55.875 
Q 39.703125 55.765625 41.0625 55.515625 
z
" id="DejaVuSans-114"/>
      <path id="DejaVuSans-32"/>
      <path d="M 16.890625 72.90625 
L 30.171875 72.90625 
L 50.296875 10.40625 
L 62.5 72.90625 
L 72.125 72.90625 
L 57.90625 0 
L 44.578125 0 
L 24.515625 62.890625 
L 12.3125 0 
L 2.6875 0 
z
" id="DejaVuSans-Oblique-78"/>
      <path d="M 10.59375 45.40625 
L 73.1875 45.40625 
L 73.1875 37.203125 
L 10.59375 37.203125 
z
M 10.59375 25.484375 
L 73.1875 25.484375 
L 73.1875 17.1875 
L 10.59375 17.1875 
z
" id="DejaVuSans-61"/>
     </defs>
     <g transform="translate(21.020312 242.078)rotate(-90)scale(0.1 -0.1)">
      <use transform="translate(0 0.015625)" xlink:href="#DejaVuSans-82"/>
      <use transform="translate(69.482422 0.015625)" xlink:href="#DejaVuSans-101"/>
      <use transform="translate(131.005859 0.015625)" xlink:href="#DejaVuSans-108"/>
      <use transform="translate(158.789062 0.015625)" xlink:href="#DejaVuSans-97"/>
      <use transform="translate(220.068359 0.015625)" xlink:href="#DejaVuSans-116"/>
      <use transform="translate(259.277344 0.015625)" xlink:href="#DejaVuSans-105"/>
      <use transform="translate(287.060547 0.015625)" xlink:href="#DejaVuSans-118"/>
      <use transform="translate(346.240234 0.015625)" xlink:href="#DejaVuSans-101"/>
      <use transform="translate(440.23405 0.015625)" xlink:href="#DejaVuSans-101"/>
      <use transform="translate(501.757488 0.015625)" xlink:href="#DejaVuSans-114"/>
      <use transform="translate(542.870769 0.015625)" xlink:href="#DejaVuSans-114"/>
      <use transform="translate(583.98405 0.015625)" xlink:href="#DejaVuSans-111"/>
      <use transform="translate(645.165691 0.015625)" xlink:href="#DejaVuSans-114"/>
      <use transform="translate(686.278972 0.015625)" xlink:href="#DejaVuSans-32"/>
      <use transform="translate(718.066082 0.015625)" xlink:href="#DejaVuSans-40"/>
      <use transform="translate(757.079753 0.015625)" xlink:href="#DejaVuSans-Oblique-78"/>
      <use transform="translate(831.884441 -16.390625)scale(0.7)" xlink:href="#DejaVuSans-116"/>
      <use transform="translate(859.33073 -16.390625)scale(0.7)" xlink:href="#DejaVuSans-114"/>
      <use transform="translate(888.110027 -16.390625)scale(0.7)" xlink:href="#DejaVuSans-97"/>
      <use transform="translate(931.005535 -16.390625)scale(0.7)" xlink:href="#DejaVuSans-105"/>
      <use transform="translate(950.453777 -16.390625)scale(0.7)" xlink:href="#DejaVuSans-110"/>
      <use transform="translate(1017.035808 0.015625)" xlink:href="#DejaVuSans-61"/>
      <use transform="translate(1120.307292 0.015625)" xlink:href="#DejaVuSans-49"/>
      <use transform="translate(1183.930339 0.015625)" xlink:href="#DejaVuSans-48"/>
      <use transform="translate(1247.553386 0.015625)" xlink:href="#DejaVuSans-48"/>
      <use transform="translate(1311.176433 0.015625)" xlink:href="#DejaVuSans-41"/>
     </g>
    </g>
   </g>
   <g id="line2d_24">
    <path clip-path="url(#p6aac31825b)" d="M 73.832724 287.632388 
L 77.145522 248.039193 
L 80.458321 218.975587 
L 83.771119 196.066738 
L 87.083917 177.368782 
L 90.396716 161.817194 
L 93.709554 148.730333 
L 97.022352 137.620991 
L 100.33515 128.11832 
L 103.647949 119.931591 
L 106.960747 112.830173 
L 110.273545 106.630083 
L 113.586344 101.183868 
L 116.899142 96.372964 
L 120.21194 92.101541 
L 123.524738 88.291752 
L 126.837537 84.879774 
L 130.150375 81.813104 
L 133.463173 79.04826 
L 136.775971 76.549086 
L 140.08877 74.285333 
L 143.401568 72.231659 
L 146.714366 70.366641 
L 150.027165 68.672215 
L 153.339963 67.132984 
L 156.652761 65.735973 
L 159.96556 64.470058 
L 163.278358 63.32589 
L 166.591156 62.295546 
L 169.903955 61.372332 
L 173.216753 60.550619 
L 176.529551 59.825661 
L 179.842389 59.193677 
L 183.155187 58.651617 
L 186.467986 58.19726 
L 189.780784 57.829149 
L 193.093582 57.546647 
L 196.406381 57.349841 
L 199.719179 57.239514 
L 203.031977 57.217353 
L 206.344776 57.285787 
L 209.657574 57.448075 
L 212.970412 57.708506 
L 216.28321 58.072306 
L 219.596008 58.545847 
L 222.908807 59.136542 
L 226.221605 59.853073 
L 229.534403 60.705154 
L 232.847202 61.703216 
L 236.16 62.857731 
L 239.472798 64.177391 
L 242.785597 65.665922 
L 246.098395 67.316312 
L 252.723992 70.969281 
L 256.03679 72.836465 
L 259.349588 74.612509 
L 262.662387 76.223041 
L 265.975185 77.626449 
L 269.288023 78.812172 
L 272.600821 79.7895 
L 275.913619 80.577469 
L 279.226418 81.198124 
L 282.539216 81.673343 
L 285.852014 82.023264 
L 289.164852 82.26567 
L 292.477651 82.416319 
L 299.103247 82.49469 
L 305.728844 82.346673 
L 312.35444 82.038791 
L 322.292835 81.385426 
L 338.856827 80.078403 
L 352.10806 79.067004 
L 362.046455 78.436321 
L 371.984889 77.983817 
L 378.610486 77.811091 
L 385.236083 77.763456 
L 391.861679 77.861611 
L 398.487276 78.128643 
" style="fill:none;stroke:#ff0000;stroke-linecap:square;stroke-width:1.5;"/>
   </g>
   <g id="line2d_25">
    <path clip-path="url(#p6aac31825b)" d="M 73.832724 287.97732 
L 77.145522 248.363845 
L 80.458321 219.27999 
L 83.771119 196.351119 
L 87.083917 177.633778 
L 90.396716 162.064321 
L 93.709554 148.961441 
L 97.022352 137.838158 
L 100.33515 128.323401 
L 103.647949 120.126218 
L 106.960747 113.015705 
L 110.273545 106.807501 
L 113.586344 101.354074 
L 116.899142 96.536621 
L 120.21194 92.259206 
L 123.524738 88.443823 
L 126.837537 85.026572 
L 130.150375 81.954945 
L 133.463173 79.185382 
L 136.775971 76.681715 
L 140.08877 74.413651 
L 143.401568 72.355828 
L 146.714366 70.486849 
L 150.027165 68.788531 
L 153.339963 67.245564 
L 156.652761 65.844909 
L 159.96556 64.575426 
L 163.278358 63.42781 
L 166.591156 62.3941 
L 169.903955 61.467625 
L 173.216753 60.642775 
L 176.529551 59.914831 
L 179.842389 59.280009 
L 183.155187 58.735283 
L 186.467986 58.2784 
L 189.780784 57.907917 
L 193.093582 57.623157 
L 196.406381 57.424154 
L 199.719179 57.311766 
L 203.031977 57.287583 
L 206.344776 57.353985 
L 209.657574 57.514309 
L 212.970412 57.772759 
L 216.28321 58.134559 
L 219.596008 58.606018 
L 222.908807 59.19452 
L 226.221605 59.908577 
L 229.534403 60.757817 
L 232.847202 61.752352 
L 236.16 62.902204 
L 239.472798 64.215373 
L 242.785597 65.694427 
L 246.098395 67.330769 
L 252.723992 70.9355 
L 256.03679 72.768504 
L 259.349588 74.50729 
L 262.662387 76.081048 
L 265.975185 77.450451 
L 269.288023 78.605691 
L 272.600821 79.556014 
L 275.913619 80.319998 
L 279.226418 80.919217 
L 282.539216 81.375168 
L 285.852014 81.707531 
L 289.164852 81.933971 
L 292.477651 82.069904 
L 299.103247 82.121995 
L 305.728844 81.950922 
L 312.35444 81.622471 
L 322.292835 80.941522 
L 338.856827 79.59368 
L 352.10806 78.550298 
L 362.046455 77.893658 
L 371.984889 77.411425 
L 378.610486 77.215462 
L 385.236083 77.140745 
L 391.861679 77.206622 
L 398.487276 77.434773 
" style="fill:none;stroke:#ffa500;stroke-linecap:square;stroke-width:1.5;"/>
   </g>
   <g id="line2d_26">
    <path clip-path="url(#p6aac31825b)" d="M 73.832724 288.150778 
L 77.145522 248.529269 
L 80.458321 219.439132 
L 83.771119 196.504377 
L 87.083917 177.78122 
L 90.396716 162.206105 
L 93.709554 149.097929 
L 97.022352 137.969747 
L 100.33515 128.450531 
L 103.647949 120.249233 
L 106.960747 113.134888 
L 110.273545 106.923158 
L 113.586344 101.466368 
L 116.899142 96.645791 
L 120.21194 92.365412 
L 123.524738 88.547221 
L 126.837537 85.127335 
L 130.150375 82.053222 
L 133.463173 79.281249 
L 136.775971 76.775299 
L 140.08877 74.505059 
L 143.401568 72.445147 
L 146.714366 70.574196 
L 150.027165 68.87406 
L 153.339963 67.329383 
L 156.652761 65.927072 
L 159.96556 64.656118 
L 163.278358 63.507159 
L 166.591156 62.472272 
L 169.903955 61.544773 
L 173.216753 60.719082 
L 176.529551 59.990541 
L 179.842389 59.355277 
L 183.155187 58.810353 
L 186.467986 58.353499 
L 189.780784 57.983363 
L 193.093582 57.699149 
L 196.406381 57.501043 
L 199.719179 57.389764 
L 203.031977 57.367022 
L 206.344776 57.435214 
L 209.657574 57.597663 
L 212.970412 57.85858 
L 216.28321 58.223217 
L 219.596008 58.69791 
L 222.908807 59.290089 
L 226.221605 60.008349 
L 229.534403 60.862268 
L 232.847202 61.862044 
L 236.16 63.01763 
L 239.472798 64.336933 
L 242.785597 65.822307 
L 246.098395 67.464533 
L 252.723992 71.076766 
L 256.03679 72.909968 
L 259.349588 74.646348 
L 262.662387 76.215651 
L 265.975185 77.579257 
L 269.288023 78.72804 
L 272.600821 79.671698 
L 275.913619 80.42913 
L 279.226418 81.02212 
L 282.539216 81.472136 
L 285.852014 81.798964 
L 289.164852 82.020219 
L 292.477651 82.151288 
L 299.103247 82.194661 
L 305.728844 82.015906 
L 312.35444 81.680588 
L 322.292835 80.99057 
L 338.856827 79.629571 
L 352.10806 78.576225 
L 362.046455 77.911908 
L 371.984889 77.421249 
L 378.610486 77.218879 
L 385.236083 77.136747 
L 391.861679 77.193818 
L 398.487276 77.411221 
" style="fill:none;stroke:#ff00ff;stroke-linecap:square;stroke-width:1.5;"/>
   </g>
   <g id="patch_3">
    <path d="M 57.6 307.584 
L 57.6 41.472 
" style="fill:none;stroke:#000000;stroke-linecap:square;stroke-linejoin:miter;stroke-width:0.8;"/>
   </g>
   <g id="patch_4">
    <path d="M 414.72 307.584 
L 414.72 41.472 
" style="fill:none;stroke:#000000;stroke-linecap:square;stroke-linejoin:miter;stroke-width:0.8;"/>
   </g>
   <g id="patch_5">
    <path d="M 57.6 307.584 
L 414.72 307.584 
" style="fill:none;stroke:#000000;stroke-linecap:square;stroke-linejoin:miter;stroke-width:0.8;"/>
   </g>
   <g id="patch_6">
    <path d="M 57.6 41.472 
L 414.72 41.472 
" style="fill:none;stroke:#000000;stroke-linecap:square;stroke-linejoin:miter;stroke-width:0.8;"/>
   </g>
   <g id="legend_1">
    <g id="patch_7">
     <path d="M 297.662188 302.584 
L 407.72 302.584 
Q 409.72 302.584 409.72 300.584 
L 409.72 257.549625 
Q 409.72 255.549625 407.72 255.549625 
L 297.662188 255.549625 
Q 295.662188 255.549625 295.662188 257.549625 
L 295.662188 300.584 
Q 295.662188 302.584 297.662188 302.584 
z
" style="fill:#ffffff;opacity:0.8;stroke:#cccccc;stroke-linejoin:miter;"/>
    </g>
    <g id="line2d_27">
     <path d="M 299.662188 263.648062 
L 319.662188 263.648062 
" style="fill:none;stroke:#ff0000;stroke-linecap:square;stroke-width:1.5;"/>
    </g>
    <g id="line2d_28"/>
    <g id="text_10">
     <!-- No GR -->
     <defs>
      <path d="M 9.8125 72.90625 
L 23.09375 72.90625 
L 55.421875 11.921875 
L 55.421875 72.90625 
L 64.984375 72.90625 
L 64.984375 0 
L 51.703125 0 
L 19.390625 60.984375 
L 19.390625 0 
L 9.8125 0 
z
" id="DejaVuSans-78"/>
      <path d="M 59.515625 10.40625 
L 59.515625 29.984375 
L 43.40625 29.984375 
L 43.40625 38.09375 
L 69.28125 38.09375 
L 69.28125 6.78125 
Q 63.578125 2.734375 56.6875 0.65625 
Q 49.8125 -1.421875 42 -1.421875 
Q 24.90625 -1.421875 15.25 8.5625 
Q 5.609375 18.5625 5.609375 36.375 
Q 5.609375 54.25 15.25 64.234375 
Q 24.90625 74.21875 42 74.21875 
Q 49.125 74.21875 55.546875 72.453125 
Q 61.96875 70.703125 67.390625 67.28125 
L 67.390625 56.78125 
Q 61.921875 61.421875 55.765625 63.765625 
Q 49.609375 66.109375 42.828125 66.109375 
Q 29.4375 66.109375 22.71875 58.640625 
Q 16.015625 51.171875 16.015625 36.375 
Q 16.015625 21.625 22.71875 14.15625 
Q 29.4375 6.6875 42.828125 6.6875 
Q 48.046875 6.6875 52.140625 7.59375 
Q 56.25 8.5 59.515625 10.40625 
z
" id="DejaVuSans-71"/>
     </defs>
     <g transform="translate(327.662188 267.148062)scale(0.1 -0.1)">
      <use xlink:href="#DejaVuSans-78"/>
      <use x="74.804688" xlink:href="#DejaVuSans-111"/>
      <use x="135.986328" xlink:href="#DejaVuSans-32"/>
      <use x="167.773438" xlink:href="#DejaVuSans-71"/>
      <use x="245.263672" xlink:href="#DejaVuSans-82"/>
     </g>
    </g>
    <g id="line2d_29">
     <path d="M 299.662188 278.326188 
L 319.662188 278.326188 
" style="fill:none;stroke:#ffa500;stroke-linecap:square;stroke-width:1.5;"/>
    </g>
    <g id="line2d_30"/>
    <g id="text_11">
     <!-- With GR -->
     <defs>
      <path d="M 3.328125 72.90625 
L 13.28125 72.90625 
L 28.609375 11.28125 
L 43.890625 72.90625 
L 54.984375 72.90625 
L 70.3125 11.28125 
L 85.59375 72.90625 
L 95.609375 72.90625 
L 77.296875 0 
L 64.890625 0 
L 49.515625 63.28125 
L 33.984375 0 
L 21.578125 0 
z
" id="DejaVuSans-87"/>
      <path d="M 54.890625 33.015625 
L 54.890625 0 
L 45.90625 0 
L 45.90625 32.71875 
Q 45.90625 40.484375 42.875 44.328125 
Q 39.84375 48.1875 33.796875 48.1875 
Q 26.515625 48.1875 22.3125 43.546875 
Q 18.109375 38.921875 18.109375 30.90625 
L 18.109375 0 
L 9.078125 0 
L 9.078125 75.984375 
L 18.109375 75.984375 
L 18.109375 46.1875 
Q 21.34375 51.125 25.703125 53.5625 
Q 30.078125 56 35.796875 56 
Q 45.21875 56 50.046875 50.171875 
Q 54.890625 44.34375 54.890625 33.015625 
z
" id="DejaVuSans-104"/>
     </defs>
     <g transform="translate(327.662188 281.826188)scale(0.1 -0.1)">
      <use xlink:href="#DejaVuSans-87"/>
      <use x="98.845703" xlink:href="#DejaVuSans-105"/>
      <use x="126.628906" xlink:href="#DejaVuSans-116"/>
      <use x="165.837891" xlink:href="#DejaVuSans-104"/>
      <use x="229.216797" xlink:href="#DejaVuSans-32"/>
      <use x="261.003906" xlink:href="#DejaVuSans-71"/>
      <use x="338.494141" xlink:href="#DejaVuSans-82"/>
     </g>
    </g>
    <g id="line2d_31">
     <path d="M 299.662188 293.004312 
L 319.662188 293.004312 
" style="fill:none;stroke:#ff00ff;stroke-linecap:square;stroke-width:1.5;"/>
    </g>
    <g id="line2d_32"/>
    <g id="text_12">
     <!-- With double GR -->
     <defs>
      <path d="M 8.5 21.578125 
L 8.5 54.6875 
L 17.484375 54.6875 
L 17.484375 21.921875 
Q 17.484375 14.15625 20.5 10.265625 
Q 23.53125 6.390625 29.59375 6.390625 
Q 36.859375 6.390625 41.078125 11.03125 
Q 45.3125 15.671875 45.3125 23.6875 
L 45.3125 54.6875 
L 54.296875 54.6875 
L 54.296875 0 
L 45.3125 0 
L 45.3125 8.40625 
Q 42.046875 3.421875 37.71875 1 
Q 33.40625 -1.421875 27.6875 -1.421875 
Q 18.265625 -1.421875 13.375 4.4375 
Q 8.5 10.296875 8.5 21.578125 
z
M 31.109375 56 
z
" id="DejaVuSans-117"/>
      <path d="M 48.6875 27.296875 
Q 48.6875 37.203125 44.609375 42.84375 
Q 40.53125 48.484375 33.40625 48.484375 
Q 26.265625 48.484375 22.1875 42.84375 
Q 18.109375 37.203125 18.109375 27.296875 
Q 18.109375 17.390625 22.1875 11.75 
Q 26.265625 6.109375 33.40625 6.109375 
Q 40.53125 6.109375 44.609375 11.75 
Q 48.6875 17.390625 48.6875 27.296875 
z
M 18.109375 46.390625 
Q 20.953125 51.265625 25.265625 53.625 
Q 29.59375 56 35.59375 56 
Q 45.5625 56 51.78125 48.09375 
Q 58.015625 40.1875 58.015625 27.296875 
Q 58.015625 14.40625 51.78125 6.484375 
Q 45.5625 -1.421875 35.59375 -1.421875 
Q 29.59375 -1.421875 25.265625 0.953125 
Q 20.953125 3.328125 18.109375 8.203125 
L 18.109375 0 
L 9.078125 0 
L 9.078125 75.984375 
L 18.109375 75.984375 
z
" id="DejaVuSans-98"/>
     </defs>
     <g transform="translate(327.662188 296.504312)scale(0.1 -0.1)">
      <use xlink:href="#DejaVuSans-87"/>
      <use x="98.845703" xlink:href="#DejaVuSans-105"/>
      <use x="126.628906" xlink:href="#DejaVuSans-116"/>
      <use x="165.837891" xlink:href="#DejaVuSans-104"/>
      <use x="229.216797" xlink:href="#DejaVuSans-32"/>
      <use x="261.003906" xlink:href="#DejaVuSans-100"/>
      <use x="324.480469" xlink:href="#DejaVuSans-111"/>
      <use x="385.662109" xlink:href="#DejaVuSans-117"/>
      <use x="449.041016" xlink:href="#DejaVuSans-98"/>
      <use x="512.517578" xlink:href="#DejaVuSans-108"/>
      <use x="540.300781" xlink:href="#DejaVuSans-101"/>
      <use x="601.824219" xlink:href="#DejaVuSans-32"/>
      <use x="633.611328" xlink:href="#DejaVuSans-71"/>
      <use x="711.101562" xlink:href="#DejaVuSans-82"/>
     </g>
    </g>
   </g>
  </g>
 </g>
 <defs>
  <clipPath id="p6aac31825b">
   <rect height="266.112" width="357.12" x="57.6" y="41.472"/>
  </clipPath>
 </defs>
</svg>
