<?xml version="1.0" encoding="utf-8" standalone="no"?>
<!DOCTYPE svg PUBLIC "-//W3C//DTD SVG 1.1//EN"
  "http://www.w3.org/Graphics/SVG/1.1/DTD/svg11.dtd">
<!-- Created with matplotlib (https://matplotlib.org/) -->
<svg height="345.6pt" version="1.1" viewBox="0 0 460.8 345.6" width="460.8pt" xmlns="http://www.w3.org/2000/svg" xmlns:xlink="http://www.w3.org/1999/xlink">
 <defs>
  <style type="text/css">
*{stroke-linecap:butt;stroke-linejoin:round;white-space:pre;}
  </style>
 </defs>
 <g id="figure_1">
  <g id="patch_1">
   <path d="M 0 345.6 
L 460.8 345.6 
L 460.8 0 
L 0 0 
z
" style="fill:#ffffff;"/>
  </g>
  <g id="axes_1">
   <g id="patch_2">
    <path d="M 57.6 307.584 
L 414.72 307.584 
L 414.72 41.472 
L 57.6 41.472 
z
" style="fill:#ffffff;"/>
   </g>
   <g id="PolyCollection_1">
    <path clip-path="url(#pd2a61ff714)" d="M 73.832727 285.303359 
L 73.832727 295.369823 
L 77.145529 256.188321 
L 80.45833 227.722389 
L 83.771132 205.451868 
L 87.083933 187.356428 
L 90.396735 172.335988 
L 93.709536 159.697966 
L 97.022338 148.956497 
L 100.335139 139.748806 
L 103.647941 131.795001 
L 106.960742 124.875517 
L 110.273544 118.816511 
L 113.586345 113.47936 
L 116.899147 108.75283 
L 120.211948 104.547 
L 123.52475 100.788621 
L 126.837551 97.417562 
L 130.150353 94.384089 
L 133.463154 91.646794 
L 136.775955 89.170972 
L 140.088757 86.92738 
L 143.401558 84.891255 
L 146.71436 83.04154 
L 150.027161 81.360288 
L 153.339963 79.832213 
L 156.652764 78.4443 
L 159.965566 77.185491 
L 163.278367 76.046414 
L 166.591169 75.019168 
L 169.90397 74.097147 
L 173.216772 73.27491 
L 176.529573 72.548055 
L 179.842375 71.913117 
L 183.155176 71.367487 
L 186.467978 70.909351 
L 189.780779 70.537668 
L 193.093581 70.252126 
L 196.406382 70.053114 
L 199.719184 69.941711 
L 203.031985 69.919695 
L 206.344787 69.989569 
L 209.657588 70.154642 
L 212.97039 70.419117 
L 216.283191 70.788168 
L 219.595993 71.268027 
L 222.908794 71.866067 
L 226.221596 72.590836 
L 229.534397 73.451998 
L 232.847199 74.460072 
L 236.16 75.62579 
L 239.472801 76.958724 
L 242.785603 78.464571 
L 246.098404 80.140181 
L 249.411206 81.965772 
L 252.724007 83.895919 
L 256.036809 85.856431 
L 259.34961 87.756682 
L 262.662412 89.515165 
L 265.975213 91.079938 
L 269.288015 92.431439 
L 272.600816 93.573248 
L 275.913618 94.521303 
L 279.226419 95.296383 
L 282.539221 95.919968 
L 285.852022 96.412285 
L 289.164824 96.791557 
L 292.477625 97.073838 
L 295.790427 97.273126 
L 299.103228 97.401576 
L 302.41603 97.469728 
L 305.728831 97.48674 
L 309.041633 97.460585 
L 312.354434 97.39824 
L 315.667236 97.305844 
L 318.980037 97.188838 
L 322.292839 97.052073 
L 325.60564 96.899901 
L 328.918442 96.736261 
L 332.231243 96.564763 
L 335.544045 96.388757 
L 338.856846 96.211372 
L 342.169647 96.035557 
L 345.482449 95.864103 
L 348.79525 95.699676 
L 352.108052 95.544851 
L 355.420853 95.402133 
L 358.733655 95.273969 
L 362.046456 95.162748 
L 365.359258 95.070798 
L 368.672059 95.000396 
L 371.984861 94.953772 
L 375.297662 94.933118 
L 378.610464 94.940647 
L 381.923265 94.978637 
L 385.236067 95.049472 
L 388.548868 95.155666 
L 391.86167 95.299898 
L 395.174471 95.485048 
L 398.487273 95.714222 
L 398.487273 71.726494 
L 398.487273 71.726494 
L 395.174471 71.34318 
L 391.86167 70.976229 
L 388.548868 70.625503 
L 385.236067 70.29044 
L 381.923265 69.970144 
L 378.610464 69.663453 
L 375.297662 69.368993 
L 371.984861 69.085216 
L 368.672059 68.810424 
L 365.359258 68.542792 
L 362.046456 68.280384 
L 358.733655 68.021165 
L 355.420853 67.763014 
L 352.108052 67.503733 
L 348.79525 67.24106 
L 345.482449 66.972677 
L 342.169647 66.696225 
L 338.856846 66.40932 
L 335.544045 66.109571 
L 332.231243 65.794604 
L 328.918442 65.462092 
L 325.60564 65.109794 
L 322.292839 64.7356 
L 318.980037 64.337593 
L 315.667236 63.91412 
L 312.354434 63.463893 
L 309.041633 62.986093 
L 305.728831 62.480506 
L 302.41603 61.947666 
L 299.103228 61.389019 
L 295.790427 60.80707 
L 292.477625 60.205512 
L 289.164824 59.589306 
L 285.852022 58.964675 
L 282.539221 58.338998 
L 279.226419 57.720581 
L 275.913618 57.118304 
L 272.600816 56.541206 
L 269.288015 55.998032 
L 265.975213 55.496863 
L 262.662412 55.044897 
L 259.34961 54.648391 
L 256.036809 54.312561 
L 252.724007 54.041164 
L 249.411206 53.835998 
L 246.098404 53.696978 
L 242.785603 53.622753 
L 239.472801 53.611311 
L 236.16 53.660332 
L 232.847199 53.767406 
L 229.534397 53.930177 
L 226.221596 54.146463 
L 222.908794 54.41434 
L 219.595993 54.732203 
L 216.283191 55.098797 
L 212.97039 55.513241 
L 209.657588 55.975024 
L 206.344787 56.484013 
L 203.031985 57.040443 
L 199.719184 57.644919 
L 196.406382 58.298405 
L 193.093581 59.002232 
L 189.780779 59.758102 
L 186.467978 60.568104 
L 183.155176 61.434733 
L 179.842375 62.360923 
L 176.529573 63.350077 
L 173.216772 64.406123 
L 169.90397 65.533562 
L 166.591169 66.737554 
L 163.278367 68.024013 
L 159.965566 69.399713 
L 156.652764 70.872439 
L 153.339963 72.451162 
L 150.027161 74.146262 
L 146.71436 75.969805 
L 143.401558 77.935886 
L 140.088757 80.061052 
L 136.775955 82.364833 
L 133.463154 84.870417 
L 130.150353 87.605494 
L 126.837551 90.603323 
L 123.52475 93.904081 
L 120.211948 97.556572 
L 116.899147 101.620441 
L 113.586345 106.169027 
L 110.273544 111.293101 
L 106.960742 117.105774 
L 103.647941 123.748927 
L 100.335139 131.401698 
L 97.022338 140.291838 
L 93.709536 150.711367 
L 90.396735 163.039491 
L 87.083933 177.7816 
L 83.771132 195.651113 
L 80.45833 217.765648 
L 77.145529 246.148913 
L 73.832727 285.303359 
z
" style="fill:#ff0000;fill-opacity:0.4;"/>
   </g>
   <g id="PolyCollection_2">
    <path clip-path="url(#pd2a61ff714)" d="M 73.832727 285.299414 
L 73.832727 295.390369 
L 77.145529 256.212414 
L 80.45833 227.74831 
L 83.771132 205.478801 
L 87.083933 187.384234 
L 90.396735 172.364521 
L 93.709536 159.727069 
L 97.022338 148.986254 
L 100.335139 139.779478 
L 103.647941 131.826859 
L 106.960742 124.908824 
L 110.273544 118.851528 
L 113.586345 113.516337 
L 116.899147 108.791967 
L 120.211948 104.588455 
L 123.52475 100.832518 
L 126.837551 97.463987 
L 130.150353 94.433093 
L 133.463154 91.698381 
L 136.775955 89.225105 
L 140.088757 86.983984 
L 143.401558 84.950224 
L 146.71436 83.102749 
L 150.027161 81.423607 
L 153.339963 79.897509 
L 156.652764 78.51145 
L 159.965566 77.254379 
L 163.278367 76.11694 
L 166.591169 75.091248 
L 169.90397 74.170715 
L 173.216772 73.349914 
L 176.529573 72.624454 
L 179.842375 71.990866 
L 183.155176 71.446531 
L 186.467978 70.989633 
L 189.780779 70.619128 
L 193.093581 70.334702 
L 196.406382 70.136737 
L 199.719184 70.026289 
L 203.031985 70.005101 
L 206.344787 70.075645 
L 209.657588 70.241207 
L 212.97039 70.50597 
L 216.283191 70.87508 
L 219.595993 71.35474 
L 222.908794 71.952294 
L 226.221596 72.67626 
L 229.534397 73.536276 
L 232.847199 74.542845 
L 236.16 75.70672 
L 239.472801 77.037564 
L 242.785603 78.541292 
L 246.098404 80.215192 
L 249.411206 82.040201 
L 252.724007 83.97182 
L 256.036809 85.936614 
L 259.34961 87.844051 
L 262.662412 89.611903 
L 265.975213 91.18716 
L 269.288015 92.549376 
L 272.600816 93.701597 
L 275.913618 94.659516 
L 279.226419 95.443843 
L 282.539221 96.076064 
L 285.852022 96.576451 
L 289.164824 96.963266 
L 292.477625 97.252614 
L 295.790427 97.458537 
L 299.103228 97.593235 
L 302.41603 97.667294 
L 305.728831 97.689907 
L 309.041633 97.669088 
L 312.354434 97.611854 
L 315.667236 97.524386 
L 318.980037 97.412152 
L 322.292839 97.28002 
L 325.60564 97.132356 
L 328.918442 96.973124 
L 332.231243 96.805965 
L 335.544045 96.634257 
L 338.856846 96.461153 
L 342.169647 96.289616 
L 345.482449 96.122459 
L 348.79525 95.96237 
L 352.108052 95.811951 
L 355.420853 95.673719 
L 358.733655 95.55012 
L 362.046456 95.443525 
L 365.359258 95.356245 
L 368.672059 95.290528 
L 371.984861 95.24856 
L 375.297662 95.232502 
L 378.610464 95.244553 
L 381.923265 95.286977 
L 385.236067 95.362129 
L 388.548868 95.472499 
L 391.86167 95.620742 
L 395.174471 95.809702 
L 398.487273 96.042451 
L 398.487273 71.67134 
L 398.487273 71.67134 
L 395.174471 71.28674 
L 391.86167 70.918628 
L 388.548868 70.566849 
L 385.236067 70.230824 
L 381.923265 69.909644 
L 378.610464 69.602134 
L 375.297662 69.306912 
L 371.984861 69.02242 
L 368.672059 68.746953 
L 365.359258 68.478684 
L 362.046456 68.21567 
L 358.733655 67.955875 
L 355.420853 67.697175 
L 352.108052 67.437372 
L 348.79525 67.174202 
L 345.482449 66.905348 
L 342.169647 66.628452 
L 338.856846 66.34113 
L 335.544045 66.040997 
L 332.231243 65.725681 
L 328.918442 65.39286 
L 325.60564 65.040299 
L 322.292839 64.665893 
L 318.980037 64.267735 
L 315.667236 63.844182 
L 312.354434 63.393956 
L 309.041633 62.916248 
L 305.728831 62.410855 
L 302.41603 61.878329 
L 299.103228 61.320124 
L 295.790427 60.738757 
L 292.477625 60.137929 
L 289.164824 59.522605 
L 285.852022 58.89901 
L 282.539221 58.274515 
L 279.226419 57.657414 
L 275.913618 57.056573 
L 272.600816 56.481008 
L 269.288015 55.939445 
L 265.975213 55.439946 
L 262.662412 54.989697 
L 259.34961 54.59495 
L 256.036809 54.260908 
L 252.724007 53.991297 
L 249.411206 53.787877 
L 246.098404 53.650535 
L 242.785603 53.577914 
L 239.472801 53.568 
L 236.16 53.61848 
L 232.847199 53.726946 
L 229.534397 53.891046 
L 226.221596 54.108602 
L 222.908794 54.377693 
L 219.595993 54.696719 
L 216.283191 55.064431 
L 212.97039 55.479952 
L 209.657588 55.942778 
L 206.344787 56.45278 
L 203.031985 57.0102 
L 199.719184 57.615649 
L 196.406382 58.270099 
L 193.093581 58.974889 
L 189.780779 59.731727 
L 186.467978 60.542711 
L 183.155176 61.410345 
L 179.842375 62.33757 
L 176.529573 63.327804 
L 173.216772 64.384981 
L 169.90397 65.513616 
L 166.591169 66.718882 
L 163.278367 68.0067 
L 159.965566 69.383857 
L 156.652764 70.858147 
L 153.339963 72.438553 
L 150.027161 74.135461 
L 146.71436 75.960941 
L 143.401558 77.929089 
L 140.088757 80.056448 
L 136.775955 82.36254 
L 133.463154 84.870536 
L 130.150353 87.6081 
L 126.837551 90.608458 
L 123.52475 93.911739 
L 120.211948 97.566693 
L 116.899147 101.632898 
L 113.586345 106.183625 
L 110.273544 111.309575 
L 106.960742 117.123786 
L 103.647941 123.768044 
L 100.335139 131.421406 
L 97.022338 140.311536 
L 93.709536 150.730303 
L 90.396735 163.056717 
L 87.083933 177.796128 
L 83.771132 195.662199 
L 80.45833 217.772373 
L 77.145529 246.150321 
L 73.832727 285.299414 
z
" style="fill:#ffa500;fill-opacity:0.4;"/>
   </g>
   <g id="PolyCollection_3">
    <path clip-path="url(#pd2a61ff714)" d="M 73.832727 285.378893 
L 73.832727 295.488 
L 77.145529 256.306413 
L 80.45833 227.836756 
L 83.771132 205.561513 
L 87.083933 187.460759 
L 90.396735 172.434558 
L 93.709536 159.790711 
L 97.022338 149.043759 
L 100.335139 139.83111 
L 103.647941 131.872877 
L 106.960742 124.949415 
L 110.273544 118.886768 
L 113.586345 113.546227 
L 116.899147 108.81647 
L 120.211948 104.607482 
L 123.52475 100.845937 
L 126.837551 97.471649 
L 130.150353 94.434838 
L 133.463154 91.694046 
L 136.775955 89.214542 
L 140.088757 86.967062 
L 143.401558 84.92683 
L 146.71436 83.072785 
L 150.027161 81.386981 
L 153.339963 79.854127 
L 156.652764 78.461209 
L 159.965566 77.197175 
L 163.278367 76.052657 
L 166.591169 75.019762 
L 169.90397 74.091891 
L 173.216772 73.263593 
L 176.529573 72.530453 
L 179.842375 71.888991 
L 183.155176 71.336583 
L 186.467978 70.871398 
L 189.780779 70.49238 
L 193.093581 70.199195 
L 196.406382 69.99221 
L 199.719184 69.872456 
L 203.031985 69.841637 
L 206.344787 69.902177 
L 209.657588 70.05731 
L 212.97039 70.311155 
L 216.283191 70.668788 
L 219.595993 71.136328 
L 222.908794 71.721002 
L 226.221596 72.431185 
L 229.534397 73.276335 
L 232.847199 74.266738 
L 236.16 75.412881 
L 239.472801 76.724145 
L 242.785603 78.206221 
L 246.098404 79.856424 
L 249.411206 81.656295 
L 252.724007 83.562953 
L 256.036809 85.505585 
L 259.34961 87.396215 
L 262.662412 89.153757 
L 265.975213 90.724621 
L 269.288015 92.086921 
L 272.600816 93.242247 
L 275.913618 94.205183 
L 279.226419 94.995684 
L 282.539221 95.634753 
L 285.852022 96.142353 
L 289.164824 96.536564 
L 292.477625 96.833371 
L 295.790427 97.04675 
L 299.103228 97.188855 
L 302.41603 97.270244 
L 305.728831 97.300096 
L 309.041633 97.286412 
L 312.354434 97.236206 
L 315.667236 97.155655 
L 318.980037 97.050229 
L 322.292839 96.924799 
L 325.60564 96.783736 
L 328.918442 96.631011 
L 332.231243 96.470271 
L 335.544045 96.304896 
L 338.856846 96.138038 
L 342.169647 95.972658 
L 345.482449 95.811572 
L 348.79525 95.657474 
L 352.108052 95.512965 
L 355.420853 95.380559 
L 358.733655 95.262696 
L 362.046456 95.16175 
L 365.359258 95.080042 
L 368.672059 95.019832 
L 371.984861 94.983322 
L 375.297662 94.972695 
L 378.610464 94.990156 
L 381.923265 95.037973 
L 385.236067 95.118511 
L 388.548868 95.234273 
L 391.86167 95.387931 
L 395.174471 95.582339 
L 398.487273 95.820574 
L 398.487273 71.579595 
L 398.487273 71.579595 
L 395.174471 71.197868 
L 391.86167 70.832927 
L 388.548868 70.484553 
L 385.236067 70.152119 
L 381.923265 69.834674 
L 378.610464 69.531016 
L 375.297662 69.239737 
L 371.984861 68.959264 
L 368.672059 68.687878 
L 365.359258 68.423744 
L 362.046456 68.164911 
L 358.733655 67.909341 
L 355.420853 67.654905 
L 352.108052 67.399405 
L 348.79525 67.140575 
L 345.482449 66.876095 
L 342.169647 66.603604 
L 338.856846 66.320715 
L 335.544045 66.025034 
L 332.231243 65.71418 
L 328.918442 65.385818 
L 325.60564 65.037695 
L 322.292839 64.667686 
L 318.980037 64.273854 
L 315.667236 63.854524 
L 312.354434 63.408376 
L 309.041633 62.934556 
L 305.728831 62.43281 
L 302.41603 61.903628 
L 299.103228 61.348407 
L 295.790427 60.7696 
L 292.477625 60.170853 
L 289.164824 59.557084 
L 285.852022 58.934487 
L 282.539221 58.310428 
L 279.226419 57.693212 
L 275.913618 57.091748 
L 272.600816 56.515117 
L 269.288015 55.972128 
L 265.975213 55.470941 
L 262.662412 55.018846 
L 259.34961 54.622185 
L 256.036809 54.286221 
L 252.724007 54.0147 
L 249.411206 53.809402 
L 246.098404 53.670252 
L 242.785603 53.595931 
L 239.472801 53.584453 
L 236.16 53.633509 
L 232.847199 53.740691 
L 229.534397 53.903639 
L 226.221596 54.120166 
L 222.908794 54.388341 
L 219.595993 54.706553 
L 216.283191 55.073544 
L 212.97039 55.488424 
L 209.657588 55.950685 
L 206.344787 56.460189 
L 203.031985 57.017173 
L 199.719184 57.62224 
L 196.406382 58.27636 
L 193.093581 58.980868 
L 189.780779 59.737469 
L 186.467978 60.548258 
L 183.155176 61.415738 
L 179.842375 62.342852 
L 176.529573 63.333015 
L 173.216772 64.390166 
L 169.90397 65.518824 
L 166.591169 66.724168 
L 163.278367 68.01213 
L 159.965566 69.389508 
L 156.652764 70.864111 
L 153.339963 72.444938 
L 150.027161 74.142402 
L 146.71436 75.968599 
L 143.401558 77.937659 
L 140.088757 80.066157 
L 136.775955 82.373654 
L 133.463154 84.883355 
L 130.150353 87.622964 
L 126.837551 90.625743 
L 123.52475 93.93185 
L 120.211948 97.590057 
L 116.899147 101.659957 
L 113.586345 106.214821 
L 110.273544 111.34533 
L 106.960742 117.164475 
L 103.647941 123.814002 
L 100.335139 131.472894 
L 97.022338 140.36865 
L 93.709536 150.792933 
L 90.396735 163.124462 
L 87.083933 177.868149 
L 83.771132 195.737526 
L 80.45833 217.850072 
L 77.145529 246.229239 
L 73.832727 285.378893 
z
" style="fill:#ff00ff;fill-opacity:0.4;"/>
   </g>
   <g id="matplotlib.axis_1">
    <g id="xtick_1">
     <g id="line2d_1">
      <path clip-path="url(#pd2a61ff714)" d="M 70.519926 307.584 
L 70.519926 41.472 
" style="fill:none;stroke:#b0b0b0;stroke-linecap:square;stroke-width:0.8;"/>
     </g>
     <g id="line2d_2">
      <defs>
       <path d="M 0 0 
L 0 3.5 
" id="m7a927f828d" style="stroke:#000000;stroke-width:0.8;"/>
      </defs>
      <g>
       <use style="stroke:#000000;stroke-width:0.8;" x="70.519926" xlink:href="#m7a927f828d" y="307.584"/>
      </g>
     </g>
     <g id="text_1">
      <!-- 0.0 -->
      <defs>
       <path d="M 31.78125 66.40625 
Q 24.171875 66.40625 20.328125 58.90625 
Q 16.5 51.421875 16.5 36.375 
Q 16.5 21.390625 20.328125 13.890625 
Q 24.171875 6.390625 31.78125 6.390625 
Q 39.453125 6.390625 43.28125 13.890625 
Q 47.125 21.390625 47.125 36.375 
Q 47.125 51.421875 43.28125 58.90625 
Q 39.453125 66.40625 31.78125 66.40625 
z
M 31.78125 74.21875 
Q 44.046875 74.21875 50.515625 64.515625 
Q 56.984375 54.828125 56.984375 36.375 
Q 56.984375 17.96875 50.515625 8.265625 
Q 44.046875 -1.421875 31.78125 -1.421875 
Q 19.53125 -1.421875 13.0625 8.265625 
Q 6.59375 17.96875 6.59375 36.375 
Q 6.59375 54.828125 13.0625 64.515625 
Q 19.53125 74.21875 31.78125 74.21875 
z
" id="DejaVuSans-48"/>
       <path d="M 10.6875 12.40625 
L 21 12.40625 
L 21 0 
L 10.6875 0 
z
" id="DejaVuSans-46"/>
      </defs>
      <g transform="translate(62.568363 322.182437)scale(0.1 -0.1)">
       <use xlink:href="#DejaVuSans-48"/>
       <use x="63.623047" xlink:href="#DejaVuSans-46"/>
       <use x="95.410156" xlink:href="#DejaVuSans-48"/>
      </g>
     </g>
    </g>
    <g id="xtick_2">
     <g id="line2d_3">
      <path clip-path="url(#pd2a61ff714)" d="M 136.775955 307.584 
L 136.775955 41.472 
" style="fill:none;stroke:#b0b0b0;stroke-linecap:square;stroke-width:0.8;"/>
     </g>
     <g id="line2d_4">
      <g>
       <use style="stroke:#000000;stroke-width:0.8;" x="136.775955" xlink:href="#m7a927f828d" y="307.584"/>
      </g>
     </g>
     <g id="text_2">
      <!-- 0.2 -->
      <defs>
       <path d="M 19.1875 8.296875 
L 53.609375 8.296875 
L 53.609375 0 
L 7.328125 0 
L 7.328125 8.296875 
Q 12.9375 14.109375 22.625 23.890625 
Q 32.328125 33.6875 34.8125 36.53125 
Q 39.546875 41.84375 41.421875 45.53125 
Q 43.3125 49.21875 43.3125 52.78125 
Q 43.3125 58.59375 39.234375 62.25 
Q 35.15625 65.921875 28.609375 65.921875 
Q 23.96875 65.921875 18.8125 64.3125 
Q 13.671875 62.703125 7.8125 59.421875 
L 7.8125 69.390625 
Q 13.765625 71.78125 18.9375 73 
Q 24.125 74.21875 28.421875 74.21875 
Q 39.75 74.21875 46.484375 68.546875 
Q 53.21875 62.890625 53.21875 53.421875 
Q 53.21875 48.921875 51.53125 44.890625 
Q 49.859375 40.875 45.40625 35.40625 
Q 44.1875 33.984375 37.640625 27.21875 
Q 31.109375 20.453125 19.1875 8.296875 
z
" id="DejaVuSans-50"/>
      </defs>
      <g transform="translate(128.824393 322.182437)scale(0.1 -0.1)">
       <use xlink:href="#DejaVuSans-48"/>
       <use x="63.623047" xlink:href="#DejaVuSans-46"/>
       <use x="95.410156" xlink:href="#DejaVuSans-50"/>
      </g>
     </g>
    </g>
    <g id="xtick_3">
     <g id="line2d_5">
      <path clip-path="url(#pd2a61ff714)" d="M 203.031985 307.584 
L 203.031985 41.472 
" style="fill:none;stroke:#b0b0b0;stroke-linecap:square;stroke-width:0.8;"/>
     </g>
     <g id="line2d_6">
      <g>
       <use style="stroke:#000000;stroke-width:0.8;" x="203.031985" xlink:href="#m7a927f828d" y="307.584"/>
      </g>
     </g>
     <g id="text_3">
      <!-- 0.4 -->
      <defs>
       <path d="M 37.796875 64.3125 
L 12.890625 25.390625 
L 37.796875 25.390625 
z
M 35.203125 72.90625 
L 47.609375 72.90625 
L 47.609375 25.390625 
L 58.015625 25.390625 
L 58.015625 17.1875 
L 47.609375 17.1875 
L 47.609375 0 
L 37.796875 0 
L 37.796875 17.1875 
L 4.890625 17.1875 
L 4.890625 26.703125 
z
" id="DejaVuSans-52"/>
      </defs>
      <g transform="translate(195.080423 322.182437)scale(0.1 -0.1)">
       <use xlink:href="#DejaVuSans-48"/>
       <use x="63.623047" xlink:href="#DejaVuSans-46"/>
       <use x="95.410156" xlink:href="#DejaVuSans-52"/>
      </g>
     </g>
    </g>
    <g id="xtick_4">
     <g id="line2d_7">
      <path clip-path="url(#pd2a61ff714)" d="M 269.288015 307.584 
L 269.288015 41.472 
" style="fill:none;stroke:#b0b0b0;stroke-linecap:square;stroke-width:0.8;"/>
     </g>
     <g id="line2d_8">
      <g>
       <use style="stroke:#000000;stroke-width:0.8;" x="269.288015" xlink:href="#m7a927f828d" y="307.584"/>
      </g>
     </g>
     <g id="text_4">
      <!-- 0.6 -->
      <defs>
       <path d="M 33.015625 40.375 
Q 26.375 40.375 22.484375 35.828125 
Q 18.609375 31.296875 18.609375 23.390625 
Q 18.609375 15.53125 22.484375 10.953125 
Q 26.375 6.390625 33.015625 6.390625 
Q 39.65625 6.390625 43.53125 10.953125 
Q 47.40625 15.53125 47.40625 23.390625 
Q 47.40625 31.296875 43.53125 35.828125 
Q 39.65625 40.375 33.015625 40.375 
z
M 52.59375 71.296875 
L 52.59375 62.3125 
Q 48.875 64.0625 45.09375 64.984375 
Q 41.3125 65.921875 37.59375 65.921875 
Q 27.828125 65.921875 22.671875 59.328125 
Q 17.53125 52.734375 16.796875 39.40625 
Q 19.671875 43.65625 24.015625 45.921875 
Q 28.375 48.1875 33.59375 48.1875 
Q 44.578125 48.1875 50.953125 41.515625 
Q 57.328125 34.859375 57.328125 23.390625 
Q 57.328125 12.15625 50.6875 5.359375 
Q 44.046875 -1.421875 33.015625 -1.421875 
Q 20.359375 -1.421875 13.671875 8.265625 
Q 6.984375 17.96875 6.984375 36.375 
Q 6.984375 53.65625 15.1875 63.9375 
Q 23.390625 74.21875 37.203125 74.21875 
Q 40.921875 74.21875 44.703125 73.484375 
Q 48.484375 72.75 52.59375 71.296875 
z
" id="DejaVuSans-54"/>
      </defs>
      <g transform="translate(261.336452 322.182437)scale(0.1 -0.1)">
       <use xlink:href="#DejaVuSans-48"/>
       <use x="63.623047" xlink:href="#DejaVuSans-46"/>
       <use x="95.410156" xlink:href="#DejaVuSans-54"/>
      </g>
     </g>
    </g>
    <g id="xtick_5">
     <g id="line2d_9">
      <path clip-path="url(#pd2a61ff714)" d="M 335.544045 307.584 
L 335.544045 41.472 
" style="fill:none;stroke:#b0b0b0;stroke-linecap:square;stroke-width:0.8;"/>
     </g>
     <g id="line2d_10">
      <g>
       <use style="stroke:#000000;stroke-width:0.8;" x="335.544045" xlink:href="#m7a927f828d" y="307.584"/>
      </g>
     </g>
     <g id="text_5">
      <!-- 0.8 -->
      <defs>
       <path d="M 31.78125 34.625 
Q 24.75 34.625 20.71875 30.859375 
Q 16.703125 27.09375 16.703125 20.515625 
Q 16.703125 13.921875 20.71875 10.15625 
Q 24.75 6.390625 31.78125 6.390625 
Q 38.8125 6.390625 42.859375 10.171875 
Q 46.921875 13.96875 46.921875 20.515625 
Q 46.921875 27.09375 42.890625 30.859375 
Q 38.875 34.625 31.78125 34.625 
z
M 21.921875 38.8125 
Q 15.578125 40.375 12.03125 44.71875 
Q 8.5 49.078125 8.5 55.328125 
Q 8.5 64.0625 14.71875 69.140625 
Q 20.953125 74.21875 31.78125 74.21875 
Q 42.671875 74.21875 48.875 69.140625 
Q 55.078125 64.0625 55.078125 55.328125 
Q 55.078125 49.078125 51.53125 44.71875 
Q 48 40.375 41.703125 38.8125 
Q 48.828125 37.15625 52.796875 32.3125 
Q 56.78125 27.484375 56.78125 20.515625 
Q 56.78125 9.90625 50.3125 4.234375 
Q 43.84375 -1.421875 31.78125 -1.421875 
Q 19.734375 -1.421875 13.25 4.234375 
Q 6.78125 9.90625 6.78125 20.515625 
Q 6.78125 27.484375 10.78125 32.3125 
Q 14.796875 37.15625 21.921875 38.8125 
z
M 18.3125 54.390625 
Q 18.3125 48.734375 21.84375 45.5625 
Q 25.390625 42.390625 31.78125 42.390625 
Q 38.140625 42.390625 41.71875 45.5625 
Q 45.3125 48.734375 45.3125 54.390625 
Q 45.3125 60.0625 41.71875 63.234375 
Q 38.140625 66.40625 31.78125 66.40625 
Q 25.390625 66.40625 21.84375 63.234375 
Q 18.3125 60.0625 18.3125 54.390625 
z
" id="DejaVuSans-56"/>
      </defs>
      <g transform="translate(327.592482 322.182437)scale(0.1 -0.1)">
       <use xlink:href="#DejaVuSans-48"/>
       <use x="63.623047" xlink:href="#DejaVuSans-46"/>
       <use x="95.410156" xlink:href="#DejaVuSans-56"/>
      </g>
     </g>
    </g>
    <g id="xtick_6">
     <g id="line2d_11">
      <path clip-path="url(#pd2a61ff714)" d="M 401.800074 307.584 
L 401.800074 41.472 
" style="fill:none;stroke:#b0b0b0;stroke-linecap:square;stroke-width:0.8;"/>
     </g>
     <g id="line2d_12">
      <g>
       <use style="stroke:#000000;stroke-width:0.8;" x="401.800074" xlink:href="#m7a927f828d" y="307.584"/>
      </g>
     </g>
     <g id="text_6">
      <!-- 1.0 -->
      <defs>
       <path d="M 12.40625 8.296875 
L 28.515625 8.296875 
L 28.515625 63.921875 
L 10.984375 60.40625 
L 10.984375 69.390625 
L 28.421875 72.90625 
L 38.28125 72.90625 
L 38.28125 8.296875 
L 54.390625 8.296875 
L 54.390625 0 
L 12.40625 0 
z
" id="DejaVuSans-49"/>
      </defs>
      <g transform="translate(393.848512 322.182437)scale(0.1 -0.1)">
       <use xlink:href="#DejaVuSans-49"/>
       <use x="63.623047" xlink:href="#DejaVuSans-46"/>
       <use x="95.410156" xlink:href="#DejaVuSans-48"/>
      </g>
     </g>
    </g>
    <g id="text_7">
     <!-- $\mathrm{Time \ (seconds)}$ -->
     <defs>
      <path d="M -0.296875 72.90625 
L 61.375 72.90625 
L 61.375 64.59375 
L 35.5 64.59375 
L 35.5 0 
L 25.59375 0 
L 25.59375 64.59375 
L -0.296875 64.59375 
z
" id="DejaVuSans-84"/>
      <path d="M 9.421875 54.6875 
L 18.40625 54.6875 
L 18.40625 0 
L 9.421875 0 
z
M 9.421875 75.984375 
L 18.40625 75.984375 
L 18.40625 64.59375 
L 9.421875 64.59375 
z
" id="DejaVuSans-105"/>
      <path d="M 52 44.1875 
Q 55.375 50.25 60.0625 53.125 
Q 64.75 56 71.09375 56 
Q 79.640625 56 84.28125 50.015625 
Q 88.921875 44.046875 88.921875 33.015625 
L 88.921875 0 
L 79.890625 0 
L 79.890625 32.71875 
Q 79.890625 40.578125 77.09375 44.375 
Q 74.3125 48.1875 68.609375 48.1875 
Q 61.625 48.1875 57.5625 43.546875 
Q 53.515625 38.921875 53.515625 30.90625 
L 53.515625 0 
L 44.484375 0 
L 44.484375 32.71875 
Q 44.484375 40.625 41.703125 44.40625 
Q 38.921875 48.1875 33.109375 48.1875 
Q 26.21875 48.1875 22.15625 43.53125 
Q 18.109375 38.875 18.109375 30.90625 
L 18.109375 0 
L 9.078125 0 
L 9.078125 54.6875 
L 18.109375 54.6875 
L 18.109375 46.1875 
Q 21.1875 51.21875 25.484375 53.609375 
Q 29.78125 56 35.6875 56 
Q 41.65625 56 45.828125 52.96875 
Q 50 49.953125 52 44.1875 
z
" id="DejaVuSans-109"/>
      <path d="M 56.203125 29.59375 
L 56.203125 25.203125 
L 14.890625 25.203125 
Q 15.484375 15.921875 20.484375 11.0625 
Q 25.484375 6.203125 34.421875 6.203125 
Q 39.59375 6.203125 44.453125 7.46875 
Q 49.3125 8.734375 54.109375 11.28125 
L 54.109375 2.78125 
Q 49.265625 0.734375 44.1875 -0.34375 
Q 39.109375 -1.421875 33.890625 -1.421875 
Q 20.796875 -1.421875 13.15625 6.1875 
Q 5.515625 13.8125 5.515625 26.8125 
Q 5.515625 40.234375 12.765625 48.109375 
Q 20.015625 56 32.328125 56 
Q 43.359375 56 49.78125 48.890625 
Q 56.203125 41.796875 56.203125 29.59375 
z
M 47.21875 32.234375 
Q 47.125 39.59375 43.09375 43.984375 
Q 39.0625 48.390625 32.421875 48.390625 
Q 24.90625 48.390625 20.390625 44.140625 
Q 15.875 39.890625 15.1875 32.171875 
z
" id="DejaVuSans-101"/>
      <path d="M 31 75.875 
Q 24.46875 64.65625 21.28125 53.65625 
Q 18.109375 42.671875 18.109375 31.390625 
Q 18.109375 20.125 21.3125 9.0625 
Q 24.515625 -2 31 -13.1875 
L 23.1875 -13.1875 
Q 15.875 -1.703125 12.234375 9.375 
Q 8.59375 20.453125 8.59375 31.390625 
Q 8.59375 42.28125 12.203125 53.3125 
Q 15.828125 64.359375 23.1875 75.875 
z
" id="DejaVuSans-40"/>
      <path d="M 44.28125 53.078125 
L 44.28125 44.578125 
Q 40.484375 46.53125 36.375 47.5 
Q 32.28125 48.484375 27.875 48.484375 
Q 21.1875 48.484375 17.84375 46.4375 
Q 14.5 44.390625 14.5 40.28125 
Q 14.5 37.15625 16.890625 35.375 
Q 19.28125 33.59375 26.515625 31.984375 
L 29.59375 31.296875 
Q 39.15625 29.25 43.1875 25.515625 
Q 47.21875 21.78125 47.21875 15.09375 
Q 47.21875 7.46875 41.1875 3.015625 
Q 35.15625 -1.421875 24.609375 -1.421875 
Q 20.21875 -1.421875 15.453125 -0.5625 
Q 10.6875 0.296875 5.421875 2 
L 5.421875 11.28125 
Q 10.40625 8.6875 15.234375 7.390625 
Q 20.0625 6.109375 24.8125 6.109375 
Q 31.15625 6.109375 34.5625 8.28125 
Q 37.984375 10.453125 37.984375 14.40625 
Q 37.984375 18.0625 35.515625 20.015625 
Q 33.0625 21.96875 24.703125 23.78125 
L 21.578125 24.515625 
Q 13.234375 26.265625 9.515625 29.90625 
Q 5.8125 33.546875 5.8125 39.890625 
Q 5.8125 47.609375 11.28125 51.796875 
Q 16.75 56 26.8125 56 
Q 31.78125 56 36.171875 55.265625 
Q 40.578125 54.546875 44.28125 53.078125 
z
" id="DejaVuSans-115"/>
      <path d="M 48.78125 52.59375 
L 48.78125 44.1875 
Q 44.96875 46.296875 41.140625 47.34375 
Q 37.3125 48.390625 33.40625 48.390625 
Q 24.65625 48.390625 19.8125 42.84375 
Q 14.984375 37.3125 14.984375 27.296875 
Q 14.984375 17.28125 19.8125 11.734375 
Q 24.65625 6.203125 33.40625 6.203125 
Q 37.3125 6.203125 41.140625 7.25 
Q 44.96875 8.296875 48.78125 10.40625 
L 48.78125 2.09375 
Q 45.015625 0.34375 40.984375 -0.53125 
Q 36.96875 -1.421875 32.421875 -1.421875 
Q 20.0625 -1.421875 12.78125 6.34375 
Q 5.515625 14.109375 5.515625 27.296875 
Q 5.515625 40.671875 12.859375 48.328125 
Q 20.21875 56 33.015625 56 
Q 37.15625 56 41.109375 55.140625 
Q 45.0625 54.296875 48.78125 52.59375 
z
" id="DejaVuSans-99"/>
      <path d="M 30.609375 48.390625 
Q 23.390625 48.390625 19.1875 42.75 
Q 14.984375 37.109375 14.984375 27.296875 
Q 14.984375 17.484375 19.15625 11.84375 
Q 23.34375 6.203125 30.609375 6.203125 
Q 37.796875 6.203125 41.984375 11.859375 
Q 46.1875 17.53125 46.1875 27.296875 
Q 46.1875 37.015625 41.984375 42.703125 
Q 37.796875 48.390625 30.609375 48.390625 
z
M 30.609375 56 
Q 42.328125 56 49.015625 48.375 
Q 55.71875 40.765625 55.71875 27.296875 
Q 55.71875 13.875 49.015625 6.21875 
Q 42.328125 -1.421875 30.609375 -1.421875 
Q 18.84375 -1.421875 12.171875 6.21875 
Q 5.515625 13.875 5.515625 27.296875 
Q 5.515625 40.765625 12.171875 48.375 
Q 18.84375 56 30.609375 56 
z
" id="DejaVuSans-111"/>
      <path d="M 54.890625 33.015625 
L 54.890625 0 
L 45.90625 0 
L 45.90625 32.71875 
Q 45.90625 40.484375 42.875 44.328125 
Q 39.84375 48.1875 33.796875 48.1875 
Q 26.515625 48.1875 22.3125 43.546875 
Q 18.109375 38.921875 18.109375 30.90625 
L 18.109375 0 
L 9.078125 0 
L 9.078125 54.6875 
L 18.109375 54.6875 
L 18.109375 46.1875 
Q 21.34375 51.125 25.703125 53.5625 
Q 30.078125 56 35.796875 56 
Q 45.21875 56 50.046875 50.171875 
Q 54.890625 44.34375 54.890625 33.015625 
z
" id="DejaVuSans-110"/>
      <path d="M 45.40625 46.390625 
L 45.40625 75.984375 
L 54.390625 75.984375 
L 54.390625 0 
L 45.40625 0 
L 45.40625 8.203125 
Q 42.578125 3.328125 38.25 0.953125 
Q 33.9375 -1.421875 27.875 -1.421875 
Q 17.96875 -1.421875 11.734375 6.484375 
Q 5.515625 14.40625 5.515625 27.296875 
Q 5.515625 40.1875 11.734375 48.09375 
Q 17.96875 56 27.875 56 
Q 33.9375 56 38.25 53.625 
Q 42.578125 51.265625 45.40625 46.390625 
z
M 14.796875 27.296875 
Q 14.796875 17.390625 18.875 11.75 
Q 22.953125 6.109375 30.078125 6.109375 
Q 37.203125 6.109375 41.296875 11.75 
Q 45.40625 17.390625 45.40625 27.296875 
Q 45.40625 37.203125 41.296875 42.84375 
Q 37.203125 48.484375 30.078125 48.484375 
Q 22.953125 48.484375 18.875 42.84375 
Q 14.796875 37.203125 14.796875 27.296875 
z
" id="DejaVuSans-100"/>
      <path d="M 8.015625 75.875 
L 15.828125 75.875 
Q 23.140625 64.359375 26.78125 53.3125 
Q 30.421875 42.28125 30.421875 31.390625 
Q 30.421875 20.453125 26.78125 9.375 
Q 23.140625 -1.703125 15.828125 -13.1875 
L 8.015625 -13.1875 
Q 14.5 -2 17.703125 9.0625 
Q 20.90625 20.125 20.90625 31.390625 
Q 20.90625 42.671875 17.703125 53.65625 
Q 14.5 64.65625 8.015625 75.875 
z
" id="DejaVuSans-41"/>
     </defs>
     <g transform="translate(197.76 335.860562)scale(0.1 -0.1)">
      <use transform="translate(0 0.015625)" xlink:href="#DejaVuSans-84"/>
      <use transform="translate(61.083984 0.015625)" xlink:href="#DejaVuSans-105"/>
      <use transform="translate(88.867188 0.015625)" xlink:href="#DejaVuSans-109"/>
      <use transform="translate(186.279297 0.015625)" xlink:href="#DejaVuSans-101"/>
      <use transform="translate(280.273113 0.015625)" xlink:href="#DejaVuSans-40"/>
      <use transform="translate(319.286785 0.015625)" xlink:href="#DejaVuSans-115"/>
      <use transform="translate(371.386394 0.015625)" xlink:href="#DejaVuSans-101"/>
      <use transform="translate(432.909832 0.015625)" xlink:href="#DejaVuSans-99"/>
      <use transform="translate(487.8903 0.015625)" xlink:href="#DejaVuSans-111"/>
      <use transform="translate(549.071941 0.015625)" xlink:href="#DejaVuSans-110"/>
      <use transform="translate(612.450847 0.015625)" xlink:href="#DejaVuSans-100"/>
      <use transform="translate(675.92741 0.015625)" xlink:href="#DejaVuSans-115"/>
      <use transform="translate(728.027019 0.015625)" xlink:href="#DejaVuSans-41"/>
     </g>
    </g>
   </g>
   <g id="matplotlib.axis_2">
    <g id="ytick_1">
     <g id="line2d_13">
      <path clip-path="url(#pd2a61ff714)" d="M 57.6 263.669766 
L 414.72 263.669766 
" style="fill:none;stroke:#b0b0b0;stroke-linecap:square;stroke-width:0.8;"/>
     </g>
     <g id="line2d_14">
      <defs>
       <path d="M 0 0 
L -3.5 0 
" id="m51baf62ac3" style="stroke:#000000;stroke-width:0.8;"/>
      </defs>
      <g>
       <use style="stroke:#000000;stroke-width:0.8;" x="57.6" xlink:href="#m51baf62ac3" y="263.669766"/>
      </g>
     </g>
     <g id="text_8">
      <!-- $\mathdefault{10^{-1}}$ -->
      <defs>
       <path d="M 10.59375 35.5 
L 73.1875 35.5 
L 73.1875 27.203125 
L 10.59375 27.203125 
z
" id="DejaVuSans-8722"/>
      </defs>
      <g transform="translate(27.1 267.468985)scale(0.1 -0.1)">
       <use transform="translate(0 0.684375)" xlink:href="#DejaVuSans-49"/>
       <use transform="translate(63.623047 0.684375)" xlink:href="#DejaVuSans-48"/>
       <use transform="translate(128.203125 38.965625)scale(0.7)" xlink:href="#DejaVuSans-8722"/>
       <use transform="translate(186.855469 38.965625)scale(0.7)" xlink:href="#DejaVuSans-49"/>
      </g>
     </g>
    </g>
    <g id="ytick_2">
     <g id="line2d_15">
      <defs>
       <path d="M 0 0 
L -2 0 
" id="m91f2f5e2a4" style="stroke:#000000;stroke-width:0.6;"/>
      </defs>
      <g>
       <use style="stroke:#000000;stroke-width:0.6;" x="57.6" xlink:href="#m91f2f5e2a4" y="302.122345"/>
      </g>
     </g>
    </g>
    <g id="ytick_3">
     <g id="line2d_16">
      <g>
       <use style="stroke:#000000;stroke-width:0.6;" x="57.6" xlink:href="#m91f2f5e2a4" y="287.72653"/>
      </g>
     </g>
    </g>
    <g id="ytick_4">
     <g id="line2d_17">
      <g>
       <use style="stroke:#000000;stroke-width:0.6;" x="57.6" xlink:href="#m91f2f5e2a4" y="275.028521"/>
      </g>
     </g>
    </g>
    <g id="ytick_5">
     <g id="line2d_18">
      <g>
       <use style="stroke:#000000;stroke-width:0.6;" x="57.6" xlink:href="#m91f2f5e2a4" y="188.942631"/>
      </g>
     </g>
    </g>
    <g id="ytick_6">
     <g id="line2d_19">
      <g>
       <use style="stroke:#000000;stroke-width:0.6;" x="57.6" xlink:href="#m91f2f5e2a4" y="145.230059"/>
      </g>
     </g>
    </g>
    <g id="ytick_7">
     <g id="line2d_20">
      <g>
       <use style="stroke:#000000;stroke-width:0.6;" x="57.6" xlink:href="#m91f2f5e2a4" y="114.215496"/>
      </g>
     </g>
    </g>
    <g id="ytick_8">
     <g id="line2d_21">
      <g>
       <use style="stroke:#000000;stroke-width:0.6;" x="57.6" xlink:href="#m91f2f5e2a4" y="90.158732"/>
      </g>
     </g>
    </g>
    <g id="ytick_9">
     <g id="line2d_22">
      <g>
       <use style="stroke:#000000;stroke-width:0.6;" x="57.6" xlink:href="#m91f2f5e2a4" y="70.502925"/>
      </g>
     </g>
    </g>
    <g id="ytick_10">
     <g id="line2d_23">
      <g>
       <use style="stroke:#000000;stroke-width:0.6;" x="57.6" xlink:href="#m91f2f5e2a4" y="53.884176"/>
      </g>
     </g>
    </g>
    <g id="text_9">
     <!-- $\mathrm{Relative \ error}$ ($N_{\mathrm{train}}=5$) -->
     <defs>
      <path d="M 44.390625 34.1875 
Q 47.5625 33.109375 50.5625 29.59375 
Q 53.5625 26.078125 56.59375 19.921875 
L 66.609375 0 
L 56 0 
L 46.6875 18.703125 
Q 43.0625 26.03125 39.671875 28.421875 
Q 36.28125 30.8125 30.421875 30.8125 
L 19.671875 30.8125 
L 19.671875 0 
L 9.8125 0 
L 9.8125 72.90625 
L 32.078125 72.90625 
Q 44.578125 72.90625 50.734375 67.671875 
Q 56.890625 62.453125 56.890625 51.90625 
Q 56.890625 45.015625 53.6875 40.46875 
Q 50.484375 35.9375 44.390625 34.1875 
z
M 19.671875 64.796875 
L 19.671875 38.921875 
L 32.078125 38.921875 
Q 39.203125 38.921875 42.84375 42.21875 
Q 46.484375 45.515625 46.484375 51.90625 
Q 46.484375 58.296875 42.84375 61.546875 
Q 39.203125 64.796875 32.078125 64.796875 
z
" id="DejaVuSans-82"/>
      <path d="M 9.421875 75.984375 
L 18.40625 75.984375 
L 18.40625 0 
L 9.421875 0 
z
" id="DejaVuSans-108"/>
      <path d="M 34.28125 27.484375 
Q 23.390625 27.484375 19.1875 25 
Q 14.984375 22.515625 14.984375 16.5 
Q 14.984375 11.71875 18.140625 8.90625 
Q 21.296875 6.109375 26.703125 6.109375 
Q 34.1875 6.109375 38.703125 11.40625 
Q 43.21875 16.703125 43.21875 25.484375 
L 43.21875 27.484375 
z
M 52.203125 31.203125 
L 52.203125 0 
L 43.21875 0 
L 43.21875 8.296875 
Q 40.140625 3.328125 35.546875 0.953125 
Q 30.953125 -1.421875 24.3125 -1.421875 
Q 15.921875 -1.421875 10.953125 3.296875 
Q 6 8.015625 6 15.921875 
Q 6 25.140625 12.171875 29.828125 
Q 18.359375 34.515625 30.609375 34.515625 
L 43.21875 34.515625 
L 43.21875 35.40625 
Q 43.21875 41.609375 39.140625 45 
Q 35.0625 48.390625 27.6875 48.390625 
Q 23 48.390625 18.546875 47.265625 
Q 14.109375 46.140625 10.015625 43.890625 
L 10.015625 52.203125 
Q 14.9375 54.109375 19.578125 55.046875 
Q 24.21875 56 28.609375 56 
Q 40.484375 56 46.34375 49.84375 
Q 52.203125 43.703125 52.203125 31.203125 
z
" id="DejaVuSans-97"/>
      <path d="M 18.3125 70.21875 
L 18.3125 54.6875 
L 36.8125 54.6875 
L 36.8125 47.703125 
L 18.3125 47.703125 
L 18.3125 18.015625 
Q 18.3125 11.328125 20.140625 9.421875 
Q 21.96875 7.515625 27.59375 7.515625 
L 36.8125 7.515625 
L 36.8125 0 
L 27.59375 0 
Q 17.1875 0 13.234375 3.875 
Q 9.28125 7.765625 9.28125 18.015625 
L 9.28125 47.703125 
L 2.6875 47.703125 
L 2.6875 54.6875 
L 9.28125 54.6875 
L 9.28125 70.21875 
z
" id="DejaVuSans-116"/>
      <path d="M 2.984375 54.6875 
L 12.5 54.6875 
L 29.59375 8.796875 
L 46.6875 54.6875 
L 56.203125 54.6875 
L 35.6875 0 
L 23.484375 0 
z
" id="DejaVuSans-118"/>
      <path d="M 41.109375 46.296875 
Q 39.59375 47.171875 37.8125 47.578125 
Q 36.03125 48 33.890625 48 
Q 26.265625 48 22.1875 43.046875 
Q 18.109375 38.09375 18.109375 28.8125 
L 18.109375 0 
L 9.078125 0 
L 9.078125 54.6875 
L 18.109375 54.6875 
L 18.109375 46.1875 
Q 20.953125 51.171875 25.484375 53.578125 
Q 30.03125 56 36.53125 56 
Q 37.453125 56 38.578125 55.875 
Q 39.703125 55.765625 41.0625 55.515625 
z
" id="DejaVuSans-114"/>
      <path id="DejaVuSans-32"/>
      <path d="M 16.890625 72.90625 
L 30.171875 72.90625 
L 50.296875 10.40625 
L 62.5 72.90625 
L 72.125 72.90625 
L 57.90625 0 
L 44.578125 0 
L 24.515625 62.890625 
L 12.3125 0 
L 2.6875 0 
z
" id="DejaVuSans-Oblique-78"/>
      <path d="M 10.59375 45.40625 
L 73.1875 45.40625 
L 73.1875 37.203125 
L 10.59375 37.203125 
z
M 10.59375 25.484375 
L 73.1875 25.484375 
L 73.1875 17.1875 
L 10.59375 17.1875 
z
" id="DejaVuSans-61"/>
      <path d="M 10.796875 72.90625 
L 49.515625 72.90625 
L 49.515625 64.59375 
L 19.828125 64.59375 
L 19.828125 46.734375 
Q 21.96875 47.46875 24.109375 47.828125 
Q 26.265625 48.1875 28.421875 48.1875 
Q 40.625 48.1875 47.75 41.5 
Q 54.890625 34.8125 54.890625 23.390625 
Q 54.890625 11.625 47.5625 5.09375 
Q 40.234375 -1.421875 26.90625 -1.421875 
Q 22.3125 -1.421875 17.546875 -0.640625 
Q 12.796875 0.140625 7.71875 1.703125 
L 7.71875 11.625 
Q 12.109375 9.234375 16.796875 8.0625 
Q 21.484375 6.890625 26.703125 6.890625 
Q 35.15625 6.890625 40.078125 11.328125 
Q 45.015625 15.765625 45.015625 23.390625 
Q 45.015625 31 40.078125 35.4375 
Q 35.15625 39.890625 26.703125 39.890625 
Q 22.75 39.890625 18.8125 39.015625 
Q 14.890625 38.140625 10.796875 36.28125 
z
" id="DejaVuSans-53"/>
     </defs>
     <g transform="translate(21.020312 235.678)rotate(-90)scale(0.1 -0.1)">
      <use transform="translate(0 0.015625)" xlink:href="#DejaVuSans-82"/>
      <use transform="translate(69.482422 0.015625)" xlink:href="#DejaVuSans-101"/>
      <use transform="translate(131.005859 0.015625)" xlink:href="#DejaVuSans-108"/>
      <use transform="translate(158.789062 0.015625)" xlink:href="#DejaVuSans-97"/>
      <use transform="translate(220.068359 0.015625)" xlink:href="#DejaVuSans-116"/>
      <use transform="translate(259.277344 0.015625)" xlink:href="#DejaVuSans-105"/>
      <use transform="translate(287.060547 0.015625)" xlink:href="#DejaVuSans-118"/>
      <use transform="translate(346.240234 0.015625)" xlink:href="#DejaVuSans-101"/>
      <use transform="translate(440.23405 0.015625)" xlink:href="#DejaVuSans-101"/>
      <use transform="translate(501.757488 0.015625)" xlink:href="#DejaVuSans-114"/>
      <use transform="translate(542.870769 0.015625)" xlink:href="#DejaVuSans-114"/>
      <use transform="translate(583.98405 0.015625)" xlink:href="#DejaVuSans-111"/>
      <use transform="translate(645.165691 0.015625)" xlink:href="#DejaVuSans-114"/>
      <use transform="translate(686.278972 0.015625)" xlink:href="#DejaVuSans-32"/>
      <use transform="translate(718.066082 0.015625)" xlink:href="#DejaVuSans-40"/>
      <use transform="translate(757.079753 0.015625)" xlink:href="#DejaVuSans-Oblique-78"/>
      <use transform="translate(831.884441 -16.390625)scale(0.7)" xlink:href="#DejaVuSans-116"/>
      <use transform="translate(859.33073 -16.390625)scale(0.7)" xlink:href="#DejaVuSans-114"/>
      <use transform="translate(888.110027 -16.390625)scale(0.7)" xlink:href="#DejaVuSans-97"/>
      <use transform="translate(931.005535 -16.390625)scale(0.7)" xlink:href="#DejaVuSans-105"/>
      <use transform="translate(950.453777 -16.390625)scale(0.7)" xlink:href="#DejaVuSans-110"/>
      <use transform="translate(1017.035808 0.015625)" xlink:href="#DejaVuSans-61"/>
      <use transform="translate(1120.307292 0.015625)" xlink:href="#DejaVuSans-53"/>
      <use transform="translate(1183.930339 0.015625)" xlink:href="#DejaVuSans-41"/>
     </g>
    </g>
   </g>
   <g id="line2d_24">
    <path clip-path="url(#pd2a61ff714)" d="M 73.832724 290.219143 
L 77.145522 251.051785 
L 80.458321 222.629096 
L 83.771119 200.440146 
L 87.083917 182.462768 
L 90.396716 167.587549 
L 93.709554 155.111083 
L 97.022352 144.537156 
L 100.33515 135.494463 
L 103.647949 127.696924 
L 106.960747 120.920677 
L 110.273545 114.989194 
L 113.586344 109.762251 
L 116.899142 105.127678 
L 120.21194 100.995113 
L 123.524738 97.291402 
L 126.837537 93.956618 
L 130.150375 90.941515 
L 133.463173 88.205382 
L 136.775971 85.714187 
L 140.08877 83.439547 
L 143.401568 81.357497 
L 146.714366 79.447688 
L 150.027165 77.692957 
L 153.339963 76.078546 
L 156.652761 74.591924 
L 159.96556 73.22233 
L 163.278358 71.9606 
L 166.591156 70.798874 
L 169.903955 69.730348 
L 173.216753 68.749338 
L 176.529551 67.851007 
L 179.842389 67.031269 
L 186.467986 65.614806 
L 193.093582 64.480506 
L 199.719179 63.618096 
L 206.344776 63.025444 
L 209.657574 62.83189 
L 212.970412 62.708778 
L 216.28321 62.658328 
L 219.596008 62.683396 
L 222.908807 62.787464 
L 226.221605 62.974696 
L 229.534403 63.249822 
L 232.847202 63.618036 
L 236.16 64.084613 
L 239.472798 64.654208 
L 242.785597 65.329717 
L 246.098395 66.109854 
L 249.411193 66.986022 
L 256.03679 68.934907 
L 262.662387 70.908191 
L 269.288023 72.682958 
L 275.913619 74.205807 
L 282.539216 75.500172 
L 289.164852 76.593635 
L 295.790449 77.505583 
L 302.416045 78.252253 
L 309.041642 78.851142 
L 315.667239 79.32231 
L 325.605634 79.837311 
L 335.544029 80.189605 
L 371.984889 81.245461 
L 381.923284 81.750863 
L 388.548881 82.194419 
L 395.174478 82.739746 
L 398.487276 83.054553 
" style="fill:none;stroke:#ff0000;stroke-linecap:square;stroke-width:1.5;"/>
   </g>
   <g id="line2d_25">
    <path clip-path="url(#pd2a61ff714)" d="M 73.832724 290.22687 
L 77.145522 251.06404 
L 80.458321 222.644994 
L 83.771119 200.458789 
L 87.083917 182.483631 
L 90.396716 167.610217 
L 93.709554 155.134878 
L 97.022352 144.561665 
L 100.33515 135.519467 
L 103.647949 127.722168 
L 106.960747 120.946067 
L 110.273545 115.014616 
L 113.586344 109.787642 
L 116.899142 105.153012 
L 120.21194 101.020418 
L 123.524738 97.316615 
L 126.837537 93.981742 
L 130.150375 90.966581 
L 133.463173 88.230425 
L 136.775971 85.739225 
L 140.08877 83.464582 
L 143.401568 81.382526 
L 146.714366 79.472732 
L 150.027165 77.717963 
L 153.339963 76.10353 
L 156.652761 74.616899 
L 159.96556 73.247309 
L 163.278358 71.985582 
L 166.591156 70.823813 
L 169.903955 69.755296 
L 173.216753 68.774282 
L 176.529551 67.875953 
L 179.842389 67.056212 
L 186.467986 65.63969 
L 193.093582 64.505241 
L 199.719179 63.642474 
L 206.344776 63.049178 
L 209.657574 62.855112 
L 212.970412 62.731386 
L 216.28321 62.680199 
L 219.596008 62.704315 
L 222.908807 62.807266 
L 226.221605 62.993194 
L 229.534403 63.266805 
L 232.847202 63.633279 
L 236.16 64.097904 
L 239.472798 64.665398 
L 242.785597 65.33868 
L 246.098395 66.116723 
L 249.411193 66.991205 
L 256.03679 68.939562 
L 262.662387 70.916888 
L 269.288023 72.697811 
L 275.913619 74.226814 
L 282.539216 75.526896 
L 289.164852 76.62571 
L 295.790449 77.542812 
L 302.416045 78.294484 
L 309.041642 78.898344 
L 315.667239 79.374369 
L 325.605634 79.896583 
L 335.544029 80.256035 
L 371.984889 81.339968 
L 381.923284 81.853335 
L 388.548881 82.302081 
L 395.174478 82.852433 
L 398.487276 83.16969 
" style="fill:none;stroke:#ffa500;stroke-linecap:square;stroke-width:1.5;"/>
   </g>
   <g id="line2d_26">
    <path clip-path="url(#pd2a61ff714)" d="M 73.832724 290.314992 
L 77.145522 251.150126 
L 80.458321 222.727817 
L 83.771119 200.53765 
L 87.083917 182.557819 
L 90.396716 167.679049 
L 93.709554 155.197989 
L 97.022352 144.618986 
L 100.33515 135.571019 
L 103.647949 127.768155 
L 106.960747 120.986695 
L 110.273545 115.050122 
L 113.586344 109.818205 
L 116.899142 105.178847 
L 120.21194 101.041691 
L 123.524738 97.333481 
L 126.837537 93.994346 
L 130.150375 90.975107 
L 133.463173 88.23492 
L 136.775971 85.739842 
L 140.08877 83.461418 
L 143.401568 81.375632 
L 146.714366 79.462199 
L 150.027165 77.703845 
L 153.339963 76.085922 
L 156.652761 74.595772 
L 159.96556 73.22266 
L 163.278358 71.957441 
L 166.591156 70.792184 
L 169.903955 69.720172 
L 173.216753 68.735609 
L 176.529551 67.833693 
L 179.842389 67.010291 
L 186.467986 65.586305 
L 193.093582 64.444163 
L 199.719179 63.573436 
L 206.344776 62.971829 
L 209.657574 62.773437 
L 212.970412 62.645244 
L 216.28321 62.58941 
L 219.596008 62.608758 
L 222.908807 62.706706 
L 226.221605 62.887371 
L 229.534403 63.15542 
L 232.847202 63.515944 
L 236.16 63.974145 
L 239.472798 64.534653 
L 242.785597 65.200336 
L 246.098395 65.97021 
L 249.411193 66.836222 
L 256.03679 68.769761 
L 262.662387 70.740898 
L 269.288023 72.524283 
L 275.913619 74.059232 
L 282.539216 75.365349 
L 289.164852 76.468996 
L 295.790449 77.389428 
L 302.416045 78.143143 
L 309.041642 78.748015 
L 315.667239 79.224363 
L 325.605634 79.746397 
L 335.544029 80.105348 
L 371.984889 81.187961 
L 381.923284 81.701505 
L 388.548881 82.15074 
L 395.174478 82.702165 
L 398.487276 83.020194 
" style="fill:none;stroke:#ff00ff;stroke-linecap:square;stroke-width:1.5;"/>
   </g>
   <g id="patch_3">
    <path d="M 57.6 307.584 
L 57.6 41.472 
" style="fill:none;stroke:#000000;stroke-linecap:square;stroke-linejoin:miter;stroke-width:0.8;"/>
   </g>
   <g id="patch_4">
    <path d="M 414.72 307.584 
L 414.72 41.472 
" style="fill:none;stroke:#000000;stroke-linecap:square;stroke-linejoin:miter;stroke-width:0.8;"/>
   </g>
   <g id="patch_5">
    <path d="M 57.6 307.584 
L 414.72 307.584 
" style="fill:none;stroke:#000000;stroke-linecap:square;stroke-linejoin:miter;stroke-width:0.8;"/>
   </g>
   <g id="patch_6">
    <path d="M 57.6 41.472 
L 414.72 41.472 
" style="fill:none;stroke:#000000;stroke-linecap:square;stroke-linejoin:miter;stroke-width:0.8;"/>
   </g>
   <g id="legend_1">
    <g id="patch_7">
     <path d="M 297.662188 302.584 
L 407.72 302.584 
Q 409.72 302.584 409.72 300.584 
L 409.72 257.549625 
Q 409.72 255.549625 407.72 255.549625 
L 297.662188 255.549625 
Q 295.662188 255.549625 295.662188 257.549625 
L 295.662188 300.584 
Q 295.662188 302.584 297.662188 302.584 
z
" style="fill:#ffffff;opacity:0.8;stroke:#cccccc;stroke-linejoin:miter;"/>
    </g>
    <g id="line2d_27">
     <path d="M 299.662188 263.648062 
L 319.662188 263.648062 
" style="fill:none;stroke:#ff0000;stroke-linecap:square;stroke-width:1.5;"/>
    </g>
    <g id="line2d_28"/>
    <g id="text_10">
     <!-- No GR -->
     <defs>
      <path d="M 9.8125 72.90625 
L 23.09375 72.90625 
L 55.421875 11.921875 
L 55.421875 72.90625 
L 64.984375 72.90625 
L 64.984375 0 
L 51.703125 0 
L 19.390625 60.984375 
L 19.390625 0 
L 9.8125 0 
z
" id="DejaVuSans-78"/>
      <path d="M 59.515625 10.40625 
L 59.515625 29.984375 
L 43.40625 29.984375 
L 43.40625 38.09375 
L 69.28125 38.09375 
L 69.28125 6.78125 
Q 63.578125 2.734375 56.6875 0.65625 
Q 49.8125 -1.421875 42 -1.421875 
Q 24.90625 -1.421875 15.25 8.5625 
Q 5.609375 18.5625 5.609375 36.375 
Q 5.609375 54.25 15.25 64.234375 
Q 24.90625 74.21875 42 74.21875 
Q 49.125 74.21875 55.546875 72.453125 
Q 61.96875 70.703125 67.390625 67.28125 
L 67.390625 56.78125 
Q 61.921875 61.421875 55.765625 63.765625 
Q 49.609375 66.109375 42.828125 66.109375 
Q 29.4375 66.109375 22.71875 58.640625 
Q 16.015625 51.171875 16.015625 36.375 
Q 16.015625 21.625 22.71875 14.15625 
Q 29.4375 6.6875 42.828125 6.6875 
Q 48.046875 6.6875 52.140625 7.59375 
Q 56.25 8.5 59.515625 10.40625 
z
" id="DejaVuSans-71"/>
     </defs>
     <g transform="translate(327.662188 267.148062)scale(0.1 -0.1)">
      <use xlink:href="#DejaVuSans-78"/>
      <use x="74.804688" xlink:href="#DejaVuSans-111"/>
      <use x="135.986328" xlink:href="#DejaVuSans-32"/>
      <use x="167.773438" xlink:href="#DejaVuSans-71"/>
      <use x="245.263672" xlink:href="#DejaVuSans-82"/>
     </g>
    </g>
    <g id="line2d_29">
     <path d="M 299.662188 278.326188 
L 319.662188 278.326188 
" style="fill:none;stroke:#ffa500;stroke-linecap:square;stroke-width:1.5;"/>
    </g>
    <g id="line2d_30"/>
    <g id="text_11">
     <!-- With GR -->
     <defs>
      <path d="M 3.328125 72.90625 
L 13.28125 72.90625 
L 28.609375 11.28125 
L 43.890625 72.90625 
L 54.984375 72.90625 
L 70.3125 11.28125 
L 85.59375 72.90625 
L 95.609375 72.90625 
L 77.296875 0 
L 64.890625 0 
L 49.515625 63.28125 
L 33.984375 0 
L 21.578125 0 
z
" id="DejaVuSans-87"/>
      <path d="M 54.890625 33.015625 
L 54.890625 0 
L 45.90625 0 
L 45.90625 32.71875 
Q 45.90625 40.484375 42.875 44.328125 
Q 39.84375 48.1875 33.796875 48.1875 
Q 26.515625 48.1875 22.3125 43.546875 
Q 18.109375 38.921875 18.109375 30.90625 
L 18.109375 0 
L 9.078125 0 
L 9.078125 75.984375 
L 18.109375 75.984375 
L 18.109375 46.1875 
Q 21.34375 51.125 25.703125 53.5625 
Q 30.078125 56 35.796875 56 
Q 45.21875 56 50.046875 50.171875 
Q 54.890625 44.34375 54.890625 33.015625 
z
" id="DejaVuSans-104"/>
     </defs>
     <g transform="translate(327.662188 281.826188)scale(0.1 -0.1)">
      <use xlink:href="#DejaVuSans-87"/>
      <use x="98.845703" xlink:href="#DejaVuSans-105"/>
      <use x="126.628906" xlink:href="#DejaVuSans-116"/>
      <use x="165.837891" xlink:href="#DejaVuSans-104"/>
      <use x="229.216797" xlink:href="#DejaVuSans-32"/>
      <use x="261.003906" xlink:href="#DejaVuSans-71"/>
      <use x="338.494141" xlink:href="#DejaVuSans-82"/>
     </g>
    </g>
    <g id="line2d_31">
     <path d="M 299.662188 293.004312 
L 319.662188 293.004312 
" style="fill:none;stroke:#ff00ff;stroke-linecap:square;stroke-width:1.5;"/>
    </g>
    <g id="line2d_32"/>
    <g id="text_12">
     <!-- With double GR -->
     <defs>
      <path d="M 8.5 21.578125 
L 8.5 54.6875 
L 17.484375 54.6875 
L 17.484375 21.921875 
Q 17.484375 14.15625 20.5 10.265625 
Q 23.53125 6.390625 29.59375 6.390625 
Q 36.859375 6.390625 41.078125 11.03125 
Q 45.3125 15.671875 45.3125 23.6875 
L 45.3125 54.6875 
L 54.296875 54.6875 
L 54.296875 0 
L 45.3125 0 
L 45.3125 8.40625 
Q 42.046875 3.421875 37.71875 1 
Q 33.40625 -1.421875 27.6875 -1.421875 
Q 18.265625 -1.421875 13.375 4.4375 
Q 8.5 10.296875 8.5 21.578125 
z
M 31.109375 56 
z
" id="DejaVuSans-117"/>
      <path d="M 48.6875 27.296875 
Q 48.6875 37.203125 44.609375 42.84375 
Q 40.53125 48.484375 33.40625 48.484375 
Q 26.265625 48.484375 22.1875 42.84375 
Q 18.109375 37.203125 18.109375 27.296875 
Q 18.109375 17.390625 22.1875 11.75 
Q 26.265625 6.109375 33.40625 6.109375 
Q 40.53125 6.109375 44.609375 11.75 
Q 48.6875 17.390625 48.6875 27.296875 
z
M 18.109375 46.390625 
Q 20.953125 51.265625 25.265625 53.625 
Q 29.59375 56 35.59375 56 
Q 45.5625 56 51.78125 48.09375 
Q 58.015625 40.1875 58.015625 27.296875 
Q 58.015625 14.40625 51.78125 6.484375 
Q 45.5625 -1.421875 35.59375 -1.421875 
Q 29.59375 -1.421875 25.265625 0.953125 
Q 20.953125 3.328125 18.109375 8.203125 
L 18.109375 0 
L 9.078125 0 
L 9.078125 75.984375 
L 18.109375 75.984375 
z
" id="DejaVuSans-98"/>
     </defs>
     <g transform="translate(327.662188 296.504312)scale(0.1 -0.1)">
      <use xlink:href="#DejaVuSans-87"/>
      <use x="98.845703" xlink:href="#DejaVuSans-105"/>
      <use x="126.628906" xlink:href="#DejaVuSans-116"/>
      <use x="165.837891" xlink:href="#DejaVuSans-104"/>
      <use x="229.216797" xlink:href="#DejaVuSans-32"/>
      <use x="261.003906" xlink:href="#DejaVuSans-100"/>
      <use x="324.480469" xlink:href="#DejaVuSans-111"/>
      <use x="385.662109" xlink:href="#DejaVuSans-117"/>
      <use x="449.041016" xlink:href="#DejaVuSans-98"/>
      <use x="512.517578" xlink:href="#DejaVuSans-108"/>
      <use x="540.300781" xlink:href="#DejaVuSans-101"/>
      <use x="601.824219" xlink:href="#DejaVuSans-32"/>
      <use x="633.611328" xlink:href="#DejaVuSans-71"/>
      <use x="711.101562" xlink:href="#DejaVuSans-82"/>
     </g>
    </g>
   </g>
  </g>
 </g>
 <defs>
  <clipPath id="pd2a61ff714">
   <rect height="266.112" width="357.12" x="57.6" y="41.472"/>
  </clipPath>
 </defs>
</svg>
