<?xml version="1.0" encoding="utf-8" standalone="no"?>
<!DOCTYPE svg PUBLIC "-//W3C//DTD SVG 1.1//EN"
  "http://www.w3.org/Graphics/SVG/1.1/DTD/svg11.dtd">
<!-- Created with matplotlib (https://matplotlib.org/) -->
<svg height="345.6pt" version="1.1" viewBox="0 0 460.8 345.6" width="460.8pt" xmlns="http://www.w3.org/2000/svg" xmlns:xlink="http://www.w3.org/1999/xlink">
 <defs>
  <style type="text/css">
*{stroke-linecap:butt;stroke-linejoin:round;white-space:pre;}
  </style>
 </defs>
 <g id="figure_1">
  <g id="patch_1">
   <path d="M 0 345.6 
L 460.8 345.6 
L 460.8 0 
L 0 0 
z
" style="fill:#ffffff;"/>
  </g>
  <g id="axes_1">
   <g id="patch_2">
    <path d="M 57.6 307.584 
L 414.72 307.584 
L 414.72 41.472 
L 57.6 41.472 
z
" style="fill:#ffffff;"/>
   </g>
   <g id="PolyCollection_1">
    <path clip-path="url(#p5c42e3d911)" d="M 73.832727 286.01418 
L 73.832727 295.488 
L 77.145529 256.599883 
L 80.45833 228.301942 
L 83.771132 206.118823 
L 87.083933 188.050017 
L 90.396735 173.005602 
L 93.709536 160.300634 
L 97.022338 149.457421 
L 100.335139 140.120221 
L 103.647941 132.014595 
L 106.960742 124.925021 
L 110.273544 118.680552 
L 113.586345 113.144605 
L 116.899147 108.207315 
L 120.211948 103.779706 
L 123.52475 99.78922 
L 126.837551 96.176274 
L 130.150353 92.891596 
L 133.463154 89.894177 
L 136.775955 87.149667 
L 140.088757 84.629121 
L 143.401558 82.308016 
L 146.71436 80.165474 
L 150.027161 78.183631 
L 153.339963 76.347148 
L 156.652764 74.642803 
L 159.965566 73.059168 
L 163.278367 71.586344 
L 166.591169 70.215744 
L 169.90397 68.939914 
L 173.216772 67.752389 
L 176.529573 66.64757 
L 179.842375 65.620627 
L 183.155176 64.667421 
L 186.467978 63.784435 
L 189.780779 62.968723 
L 193.093581 62.217874 
L 196.406382 61.529975 
L 199.719184 60.903592 
L 203.031985 60.337757 
L 206.344787 59.831955 
L 209.657588 59.386119 
L 212.97039 59.00063 
L 216.283191 58.676317 
L 219.595993 58.414444 
L 222.908794 58.216698 
L 226.221596 58.085164 
L 229.534397 58.022265 
L 232.847199 58.030673 
L 236.16 58.113182 
L 239.472801 58.272504 
L 242.785603 58.511019 
L 246.098404 58.830424 
L 249.411206 59.231338 
L 252.724007 59.712829 
L 256.036809 60.271942 
L 259.34961 60.903281 
L 262.662412 61.598737 
L 265.975213 62.347473 
L 269.288015 63.136267 
L 272.600816 63.950221 
L 275.913618 64.773787 
L 279.226419 65.591929 
L 282.539221 66.391171 
L 285.852022 67.160364 
L 289.164824 67.891054 
L 292.477625 68.577494 
L 295.790427 69.216382 
L 299.103228 69.806465 
L 302.41603 70.348095 
L 305.728831 70.842816 
L 309.041633 71.293012 
L 312.354434 71.701623 
L 315.667236 72.071933 
L 318.980037 72.407414 
L 322.292839 72.711614 
L 325.60564 72.988078 
L 328.918442 73.240309 
L 332.231243 73.471724 
L 335.544045 73.685647 
L 338.856846 73.885295 
L 342.169647 74.073778 
L 345.482449 74.254095 
L 348.79525 74.429145 
L 352.108052 74.601724 
L 355.420853 74.774537 
L 358.733655 74.950202 
L 362.046456 75.131253 
L 365.359258 75.320147 
L 368.672059 75.519272 
L 371.984861 75.730946 
L 375.297662 75.95742 
L 378.610464 76.200873 
L 381.923265 76.463408 
L 385.236067 76.747032 
L 388.548868 77.053628 
L 391.86167 77.384905 
L 395.174471 77.742326 
L 398.487273 78.126993 
L 398.487273 72.57668 
L 398.487273 72.57668 
L 395.174471 72.206363 
L 391.86167 71.864919 
L 388.548868 71.550491 
L 385.236067 71.261062 
L 381.923265 70.994512 
L 378.610464 70.748655 
L 375.297662 70.52126 
L 371.984861 70.310055 
L 368.672059 70.112734 
L 365.359258 69.926946 
L 362.046456 69.750299 
L 358.733655 69.580347 
L 355.420853 69.414585 
L 352.108052 69.250447 
L 348.79525 69.085292 
L 345.482449 68.916404 
L 342.169647 68.740986 
L 338.856846 68.556153 
L 335.544045 68.35893 
L 332.231243 68.146252 
L 328.918442 67.914962 
L 325.60564 67.661818 
L 322.292839 67.383508 
L 318.980037 67.076668 
L 315.667236 66.737925 
L 312.354434 66.363957 
L 309.041633 65.951579 
L 305.728831 65.497876 
L 302.41603 65.000381 
L 299.103228 64.457314 
L 295.790427 63.867891 
L 292.477625 63.232699 
L 289.164824 62.554111 
L 285.852022 61.836698 
L 282.539221 61.087553 
L 279.226419 60.316413 
L 275.913618 59.535466 
L 272.600816 58.758779 
L 269.288015 58.001375 
L 265.975213 57.278117 
L 262.662412 56.602612 
L 259.34961 55.98633 
L 256.036809 55.438099 
L 252.724007 54.963956 
L 249.411206 54.567322 
L 246.098404 54.249379 
L 242.785603 54.00956 
L 239.472801 53.846045 
L 236.16 53.756224 
L 232.847199 53.737085 
L 229.534397 53.785512 
L 226.221596 53.898509 
L 222.908794 54.073347 
L 219.595993 54.307655 
L 216.283191 54.59948 
L 212.97039 54.947306 
L 209.657588 55.350063 
L 206.344787 55.807129 
L 203.031985 56.318317 
L 199.719184 56.883872 
L 196.406382 57.504467 
L 193.093581 58.181199 
L 189.780779 58.915601 
L 186.467978 59.709646 
L 183.155176 60.565777 
L 179.842375 61.486927 
L 176.529573 62.476564 
L 173.216772 63.538741 
L 169.90397 64.678156 
L 166.591169 65.900229 
L 163.278367 67.211204 
L 159.965566 68.618255 
L 156.652764 70.129637 
L 153.339963 71.754854 
L 150.027161 73.504869 
L 146.71436 75.392363 
L 143.401558 77.432052 
L 140.088757 79.641081 
L 136.775955 82.039504 
L 133.463154 84.650902 
L 130.150353 87.503151 
L 126.837551 90.629396 
L 123.52475 94.0693 
L 120.211948 97.870657 
L 116.899147 102.091471 
L 113.586345 106.802689 
L 110.273544 112.091775 
L 106.960742 118.067442 
L 103.647941 124.865929 
L 100.335139 132.659364 
L 97.022338 141.667061 
L 93.709536 152.171256 
L 90.396735 164.54074 
L 87.083933 179.271519 
L 83.771132 197.069438 
L 80.45833 219.042258 
L 77.145529 247.199382 
L 73.832727 286.01418 
z
" style="fill:#ff0000;fill-opacity:0.4;"/>
   </g>
   <g id="PolyCollection_2">
    <path clip-path="url(#p5c42e3d911)" d="M 73.832727 285.981269 
L 73.832727 295.451207 
L 77.145529 256.563575 
L 80.45833 228.266178 
L 83.771132 206.083641 
L 87.083933 188.015445 
L 90.396735 172.971653 
L 93.709536 160.267313 
L 97.022338 149.42473 
L 100.335139 140.088159 
L 103.647941 131.983157 
L 106.960742 124.8942 
L 110.273544 118.650343 
L 113.586345 113.115001 
L 116.899147 108.178309 
L 120.211948 103.751294 
L 123.52475 99.761398 
L 126.837551 96.149036 
L 130.150353 92.864941 
L 133.463154 89.868101 
L 136.775955 87.124168 
L 140.088757 84.604198 
L 143.401558 82.283671 
L 146.71436 80.141706 
L 150.027161 78.160444 
L 153.339963 76.324545 
L 156.652764 74.620789 
L 159.965566 73.03775 
L 163.278367 71.565531 
L 166.591169 70.195545 
L 169.90397 68.920342 
L 173.216772 67.733456 
L 176.529573 66.629293 
L 179.842375 65.603027 
L 183.155176 64.650521 
L 186.467978 63.768263 
L 189.780779 62.953311 
L 193.093581 62.203257 
L 196.406382 61.516191 
L 199.719184 60.890685 
L 203.031985 60.325775 
L 206.344787 59.820949 
L 209.657588 59.376149 
L 212.97039 58.99176 
L 216.283191 58.668615 
L 219.595993 58.407985 
L 222.908794 58.211565 
L 226.221596 58.081445 
L 229.534397 58.020058 
L 232.847199 58.030089 
L 236.16 58.114345 
L 239.472801 58.275561 
L 242.785603 58.516138 
L 246.098404 58.83781 
L 249.411206 59.241233 
L 252.724007 59.725518 
L 256.036809 60.287759 
L 259.34961 60.922604 
L 262.662412 61.621978 
L 265.975213 62.375062 
L 269.288015 63.168618 
L 272.600816 63.987694 
L 275.913618 64.816655 
L 279.226419 65.640343 
L 282.539221 66.445149 
L 285.852022 67.219795 
L 289.164824 67.955714 
L 292.477625 68.647074 
L 295.790427 69.290516 
L 299.103228 69.884757 
L 302.41603 70.430138 
L 305.728831 70.928206 
L 309.041633 71.381362 
L 312.354434 71.792568 
L 315.667236 72.165133 
L 318.980037 72.502557 
L 322.292839 72.808412 
L 325.60564 73.086273 
L 328.918442 73.339665 
L 332.231243 73.572028 
L 335.544045 73.786709 
L 338.856846 73.986943 
L 342.169647 74.175857 
L 345.482449 74.356468 
L 348.79525 74.531688 
L 352.108052 74.704328 
L 355.420853 74.877104 
L 358.733655 75.052643 
L 362.046456 75.233488 
L 365.359258 75.422105 
L 368.672059 75.620884 
L 371.984861 75.832145 
L 375.297662 76.058138 
L 378.610464 76.30104 
L 381.923265 76.562945 
L 385.236067 76.84585 
L 388.548868 77.15162 
L 391.86167 77.481943 
L 395.174471 77.838252 
L 398.487273 78.221612 
L 398.487273 72.276071 
L 398.487273 72.276071 
L 395.174471 71.907712 
L 391.86167 71.568044 
L 388.548868 71.255218 
L 385.236067 70.967226 
L 381.923265 70.701958 
L 378.610464 70.457244 
L 375.297662 70.230864 
L 371.984861 70.020566 
L 368.672059 69.824056 
L 365.359258 69.639006 
L 362.046456 69.463038 
L 358.733655 69.293727 
L 355.420853 69.128589 
L 352.108052 68.965076 
L 348.79525 68.800571 
L 345.482449 68.632382 
L 342.169647 68.457734 
L 338.856846 68.27377 
L 335.544045 68.077541 
L 332.231243 67.866012 
L 328.918442 67.636058 
L 325.60564 67.384472 
L 322.292839 67.107977 
L 318.980037 66.803251 
L 315.667236 66.466967 
L 312.354434 66.095848 
L 309.041633 65.68676 
L 305.728831 65.236842 
L 302.41603 64.743678 
L 299.103228 64.205537 
L 295.790427 63.62168 
L 292.477625 62.992721 
L 289.164824 62.321036 
L 285.852022 61.611175 
L 282.539221 60.870171 
L 279.226419 60.107662 
L 275.913618 59.335697 
L 272.600816 58.568182 
L 269.288015 57.819968 
L 265.975213 57.105762 
L 262.662412 56.439034 
L 259.34961 55.831159 
L 256.036809 55.290901 
L 252.724007 54.824268 
L 249.411206 54.434674 
L 246.098404 54.123315 
L 242.785603 53.889643 
L 239.472801 53.731866 
L 236.16 53.6474 
L 232.847199 53.63326 
L 229.534397 53.686355 
L 226.221596 53.803711 
L 222.908794 53.982619 
L 219.595993 54.220729 
L 216.283191 54.516104 
L 212.97039 54.867248 
L 209.657588 55.273108 
L 206.344787 55.733074 
L 203.031985 56.246975 
L 199.719184 56.81507 
L 196.406382 57.438043 
L 193.093581 58.117004 
L 189.780779 58.853494 
L 186.467978 59.649498 
L 183.155176 60.507468 
L 179.842375 61.430345 
L 176.529573 62.421607 
L 173.216772 63.485313 
L 169.90397 64.62617 
L 166.591169 65.849604 
L 163.278367 67.161864 
L 159.965566 68.570132 
L 156.652764 70.082668 
L 153.339963 71.708979 
L 150.027161 73.460036 
L 146.71436 75.348522 
L 143.401558 77.389158 
L 140.088757 79.599089 
L 136.775955 81.998375 
L 133.463154 84.610598 
L 130.150353 87.463634 
L 126.837551 90.590632 
L 123.52475 94.031255 
L 120.211948 97.833295 
L 116.899147 102.054757 
L 113.586345 106.766585 
L 110.273544 112.056243 
L 106.960742 118.032439 
L 103.647941 124.831407 
L 100.335139 132.625271 
L 97.022338 141.633339 
L 93.709536 152.137842 
L 90.396735 164.507567 
L 87.083933 179.238515 
L 83.771132 197.036537 
L 80.45833 219.009399 
L 77.145529 247.166527 
L 73.832727 285.981269 
z
" style="fill:#ffa500;fill-opacity:0.4;"/>
   </g>
   <g id="PolyCollection_3">
    <path clip-path="url(#p5c42e3d911)" d="M 73.832727 286.016665 
L 73.832727 295.483482 
L 77.145529 256.593156 
L 80.45833 228.292928 
L 83.771132 206.107479 
L 87.083933 188.036351 
L 90.396735 172.98967 
L 93.709536 160.282525 
L 97.022338 149.437255 
L 100.335139 140.098134 
L 103.647941 131.990724 
L 106.960742 124.8995 
L 110.273544 118.653508 
L 113.586345 113.116153 
L 116.899147 108.177562 
L 120.211948 103.748751 
L 123.52475 99.757151 
L 126.837551 96.143171 
L 130.150353 92.857534 
L 133.463154 89.859221 
L 136.775955 87.113875 
L 140.088757 84.592546 
L 143.401558 82.270706 
L 146.71436 80.12747 
L 150.027161 78.144968 
L 153.339963 76.307859 
L 156.652764 74.602915 
L 159.965566 73.018705 
L 163.278367 71.545326 
L 166.591169 70.174188 
L 169.90397 68.897834 
L 173.216772 67.709793 
L 176.529573 66.604468 
L 179.842375 65.577028 
L 183.155176 64.623329 
L 186.467978 63.739857 
L 189.780779 62.923666 
L 193.093581 62.172342 
L 196.406382 61.483974 
L 199.719184 60.857128 
L 203.031985 60.290835 
L 206.344787 59.784582 
L 209.657588 59.338301 
L 212.97039 58.952377 
L 216.283191 58.627634 
L 219.595993 58.365338 
L 222.908794 58.167175 
L 226.221596 58.035229 
L 229.534397 57.971918 
L 232.847199 57.979919 
L 236.16 58.062022 
L 239.472801 58.220948 
L 242.785603 58.459082 
L 246.098404 58.778138 
L 249.411206 59.17875 
L 252.724007 59.660012 
L 256.036809 60.218999 
L 259.34961 60.850351 
L 262.662412 61.545991 
L 265.975213 62.295112 
L 269.288015 63.084504 
L 272.600816 63.899259 
L 275.913618 64.72379 
L 279.226419 65.542995 
L 282.539221 66.343314 
L 285.852022 67.113506 
L 289.164824 67.845038 
L 292.477625 68.532095 
L 295.790427 69.171329 
L 299.103228 69.76146 
L 302.41603 70.30283 
L 305.728831 70.796984 
L 309.041633 71.246315 
L 312.354434 71.653778 
L 315.667236 72.022675 
L 318.980037 72.356495 
L 322.292839 72.658801 
L 325.60564 72.933157 
L 328.918442 73.183076 
L 332.231243 73.411987 
L 335.544045 73.623224 
L 338.856846 73.820012 
L 342.169647 74.005462 
L 345.482449 74.18258 
L 348.79525 74.354261 
L 352.108052 74.523303 
L 355.420853 74.692405 
L 358.733655 74.864175 
L 362.046456 75.041138 
L 365.359258 75.225738 
L 368.672059 75.420342 
L 371.984861 75.627247 
L 375.297662 75.848674 
L 378.610464 76.08677 
L 381.923265 76.343597 
L 385.236067 76.621115 
L 388.548868 76.921151 
L 391.86167 77.245352 
L 395.174471 77.59511 
L 398.487273 77.971449 
L 398.487273 71.747045 
L 398.487273 71.747045 
L 395.174471 71.388614 
L 391.86167 71.058245 
L 388.548868 70.754148 
L 385.236067 70.474372 
L 381.923265 70.216869 
L 378.610464 69.979524 
L 375.297662 69.760176 
L 371.984861 69.556625 
L 368.672059 69.366633 
L 365.359258 69.187922 
L 362.046456 69.018166 
L 358.733655 68.854991 
L 355.420853 68.695962 
L 352.108052 68.538582 
L 348.79525 68.380284 
L 345.482449 68.218424 
L 342.169647 68.05028 
L 338.856846 67.873044 
L 335.544045 67.683822 
L 332.231243 67.479631 
L 328.918442 67.2574 
L 325.60564 67.013976 
L 322.292839 66.746139 
L 318.980037 66.450623 
L 315.667236 66.124153 
L 312.354434 65.763506 
L 309.041633 65.365595 
L 305.728831 64.927592 
L 302.41603 64.447101 
L 299.103228 63.922391 
L 295.790427 63.352682 
L 292.477625 62.738513 
L 289.164824 62.082134 
L 285.852022 61.387912 
L 282.539221 60.662645 
L 279.226419 59.915695 
L 275.913618 59.158823 
L 272.600816 58.405665 
L 269.288015 57.670858 
L 265.975213 56.968963 
L 262.662412 56.31339 
L 259.34961 55.71553 
L 256.036809 55.184215 
L 252.724007 54.725555 
L 249.411206 54.343078 
L 246.098404 54.038094 
L 242.785603 53.81016 
L 239.472801 53.657572 
L 236.16 53.577826 
L 232.847199 53.568 
L 229.534397 53.625057 
L 226.221596 53.746067 
L 222.908794 53.928357 
L 219.595993 54.16961 
L 216.283191 54.467915 
L 212.97039 54.821798 
L 209.657588 55.230226 
L 206.344787 55.692607 
L 203.031985 56.208785 
L 199.719184 56.779031 
L 196.406382 57.404042 
L 193.093581 58.084938 
L 189.780779 58.823269 
L 186.467978 59.621032 
L 183.155176 60.480685 
L 179.842375 61.40518 
L 176.529573 62.398003 
L 173.216772 63.463222 
L 169.90397 64.60555 
L 166.591169 65.830422 
L 163.278367 67.144094 
L 159.965566 68.553754 
L 156.652764 70.067669 
L 153.339963 71.695355 
L 150.027161 73.447787 
L 146.71436 75.337655 
L 143.401558 77.379686 
L 140.088757 79.591033 
L 136.775955 81.99176 
L 133.463154 84.605458 
L 130.150353 87.460011 
L 126.837551 90.588574 
L 123.52475 94.030819 
L 120.211948 97.834549 
L 116.899147 102.057779 
L 113.586345 106.771461 
L 110.273544 112.063069 
L 106.960742 118.041326 
L 103.647941 124.842475 
L 100.335139 132.638651 
L 97.022338 141.64917 
L 93.709536 152.156266 
L 90.396735 164.528712 
L 87.083933 179.262489 
L 83.771132 197.063404 
L 80.45833 219.039168 
L 77.145529 247.19915 
L 73.832727 286.016665 
z
" style="fill:#ff00ff;fill-opacity:0.4;"/>
   </g>
   <g id="matplotlib.axis_1">
    <g id="xtick_1">
     <g id="line2d_1">
      <path clip-path="url(#p5c42e3d911)" d="M 70.519926 307.584 
L 70.519926 41.472 
" style="fill:none;stroke:#b0b0b0;stroke-linecap:square;stroke-width:0.8;"/>
     </g>
     <g id="line2d_2">
      <defs>
       <path d="M 0 0 
L 0 3.5 
" id="mda1458dee6" style="stroke:#000000;stroke-width:0.8;"/>
      </defs>
      <g>
       <use style="stroke:#000000;stroke-width:0.8;" x="70.519926" xlink:href="#mda1458dee6" y="307.584"/>
      </g>
     </g>
     <g id="text_1">
      <!-- 0.0 -->
      <defs>
       <path d="M 31.78125 66.40625 
Q 24.171875 66.40625 20.328125 58.90625 
Q 16.5 51.421875 16.5 36.375 
Q 16.5 21.390625 20.328125 13.890625 
Q 24.171875 6.390625 31.78125 6.390625 
Q 39.453125 6.390625 43.28125 13.890625 
Q 47.125 21.390625 47.125 36.375 
Q 47.125 51.421875 43.28125 58.90625 
Q 39.453125 66.40625 31.78125 66.40625 
z
M 31.78125 74.21875 
Q 44.046875 74.21875 50.515625 64.515625 
Q 56.984375 54.828125 56.984375 36.375 
Q 56.984375 17.96875 50.515625 8.265625 
Q 44.046875 -1.421875 31.78125 -1.421875 
Q 19.53125 -1.421875 13.0625 8.265625 
Q 6.59375 17.96875 6.59375 36.375 
Q 6.59375 54.828125 13.0625 64.515625 
Q 19.53125 74.21875 31.78125 74.21875 
z
" id="DejaVuSans-48"/>
       <path d="M 10.6875 12.40625 
L 21 12.40625 
L 21 0 
L 10.6875 0 
z
" id="DejaVuSans-46"/>
      </defs>
      <g transform="translate(62.568363 322.182437)scale(0.1 -0.1)">
       <use xlink:href="#DejaVuSans-48"/>
       <use x="63.623047" xlink:href="#DejaVuSans-46"/>
       <use x="95.410156" xlink:href="#DejaVuSans-48"/>
      </g>
     </g>
    </g>
    <g id="xtick_2">
     <g id="line2d_3">
      <path clip-path="url(#p5c42e3d911)" d="M 136.775955 307.584 
L 136.775955 41.472 
" style="fill:none;stroke:#b0b0b0;stroke-linecap:square;stroke-width:0.8;"/>
     </g>
     <g id="line2d_4">
      <g>
       <use style="stroke:#000000;stroke-width:0.8;" x="136.775955" xlink:href="#mda1458dee6" y="307.584"/>
      </g>
     </g>
     <g id="text_2">
      <!-- 0.2 -->
      <defs>
       <path d="M 19.1875 8.296875 
L 53.609375 8.296875 
L 53.609375 0 
L 7.328125 0 
L 7.328125 8.296875 
Q 12.9375 14.109375 22.625 23.890625 
Q 32.328125 33.6875 34.8125 36.53125 
Q 39.546875 41.84375 41.421875 45.53125 
Q 43.3125 49.21875 43.3125 52.78125 
Q 43.3125 58.59375 39.234375 62.25 
Q 35.15625 65.921875 28.609375 65.921875 
Q 23.96875 65.921875 18.8125 64.3125 
Q 13.671875 62.703125 7.8125 59.421875 
L 7.8125 69.390625 
Q 13.765625 71.78125 18.9375 73 
Q 24.125 74.21875 28.421875 74.21875 
Q 39.75 74.21875 46.484375 68.546875 
Q 53.21875 62.890625 53.21875 53.421875 
Q 53.21875 48.921875 51.53125 44.890625 
Q 49.859375 40.875 45.40625 35.40625 
Q 44.1875 33.984375 37.640625 27.21875 
Q 31.109375 20.453125 19.1875 8.296875 
z
" id="DejaVuSans-50"/>
      </defs>
      <g transform="translate(128.824393 322.182437)scale(0.1 -0.1)">
       <use xlink:href="#DejaVuSans-48"/>
       <use x="63.623047" xlink:href="#DejaVuSans-46"/>
       <use x="95.410156" xlink:href="#DejaVuSans-50"/>
      </g>
     </g>
    </g>
    <g id="xtick_3">
     <g id="line2d_5">
      <path clip-path="url(#p5c42e3d911)" d="M 203.031985 307.584 
L 203.031985 41.472 
" style="fill:none;stroke:#b0b0b0;stroke-linecap:square;stroke-width:0.8;"/>
     </g>
     <g id="line2d_6">
      <g>
       <use style="stroke:#000000;stroke-width:0.8;" x="203.031985" xlink:href="#mda1458dee6" y="307.584"/>
      </g>
     </g>
     <g id="text_3">
      <!-- 0.4 -->
      <defs>
       <path d="M 37.796875 64.3125 
L 12.890625 25.390625 
L 37.796875 25.390625 
z
M 35.203125 72.90625 
L 47.609375 72.90625 
L 47.609375 25.390625 
L 58.015625 25.390625 
L 58.015625 17.1875 
L 47.609375 17.1875 
L 47.609375 0 
L 37.796875 0 
L 37.796875 17.1875 
L 4.890625 17.1875 
L 4.890625 26.703125 
z
" id="DejaVuSans-52"/>
      </defs>
      <g transform="translate(195.080423 322.182437)scale(0.1 -0.1)">
       <use xlink:href="#DejaVuSans-48"/>
       <use x="63.623047" xlink:href="#DejaVuSans-46"/>
       <use x="95.410156" xlink:href="#DejaVuSans-52"/>
      </g>
     </g>
    </g>
    <g id="xtick_4">
     <g id="line2d_7">
      <path clip-path="url(#p5c42e3d911)" d="M 269.288015 307.584 
L 269.288015 41.472 
" style="fill:none;stroke:#b0b0b0;stroke-linecap:square;stroke-width:0.8;"/>
     </g>
     <g id="line2d_8">
      <g>
       <use style="stroke:#000000;stroke-width:0.8;" x="269.288015" xlink:href="#mda1458dee6" y="307.584"/>
      </g>
     </g>
     <g id="text_4">
      <!-- 0.6 -->
      <defs>
       <path d="M 33.015625 40.375 
Q 26.375 40.375 22.484375 35.828125 
Q 18.609375 31.296875 18.609375 23.390625 
Q 18.609375 15.53125 22.484375 10.953125 
Q 26.375 6.390625 33.015625 6.390625 
Q 39.65625 6.390625 43.53125 10.953125 
Q 47.40625 15.53125 47.40625 23.390625 
Q 47.40625 31.296875 43.53125 35.828125 
Q 39.65625 40.375 33.015625 40.375 
z
M 52.59375 71.296875 
L 52.59375 62.3125 
Q 48.875 64.0625 45.09375 64.984375 
Q 41.3125 65.921875 37.59375 65.921875 
Q 27.828125 65.921875 22.671875 59.328125 
Q 17.53125 52.734375 16.796875 39.40625 
Q 19.671875 43.65625 24.015625 45.921875 
Q 28.375 48.1875 33.59375 48.1875 
Q 44.578125 48.1875 50.953125 41.515625 
Q 57.328125 34.859375 57.328125 23.390625 
Q 57.328125 12.15625 50.6875 5.359375 
Q 44.046875 -1.421875 33.015625 -1.421875 
Q 20.359375 -1.421875 13.671875 8.265625 
Q 6.984375 17.96875 6.984375 36.375 
Q 6.984375 53.65625 15.1875 63.9375 
Q 23.390625 74.21875 37.203125 74.21875 
Q 40.921875 74.21875 44.703125 73.484375 
Q 48.484375 72.75 52.59375 71.296875 
z
" id="DejaVuSans-54"/>
      </defs>
      <g transform="translate(261.336452 322.182437)scale(0.1 -0.1)">
       <use xlink:href="#DejaVuSans-48"/>
       <use x="63.623047" xlink:href="#DejaVuSans-46"/>
       <use x="95.410156" xlink:href="#DejaVuSans-54"/>
      </g>
     </g>
    </g>
    <g id="xtick_5">
     <g id="line2d_9">
      <path clip-path="url(#p5c42e3d911)" d="M 335.544045 307.584 
L 335.544045 41.472 
" style="fill:none;stroke:#b0b0b0;stroke-linecap:square;stroke-width:0.8;"/>
     </g>
     <g id="line2d_10">
      <g>
       <use style="stroke:#000000;stroke-width:0.8;" x="335.544045" xlink:href="#mda1458dee6" y="307.584"/>
      </g>
     </g>
     <g id="text_5">
      <!-- 0.8 -->
      <defs>
       <path d="M 31.78125 34.625 
Q 24.75 34.625 20.71875 30.859375 
Q 16.703125 27.09375 16.703125 20.515625 
Q 16.703125 13.921875 20.71875 10.15625 
Q 24.75 6.390625 31.78125 6.390625 
Q 38.8125 6.390625 42.859375 10.171875 
Q 46.921875 13.96875 46.921875 20.515625 
Q 46.921875 27.09375 42.890625 30.859375 
Q 38.875 34.625 31.78125 34.625 
z
M 21.921875 38.8125 
Q 15.578125 40.375 12.03125 44.71875 
Q 8.5 49.078125 8.5 55.328125 
Q 8.5 64.0625 14.71875 69.140625 
Q 20.953125 74.21875 31.78125 74.21875 
Q 42.671875 74.21875 48.875 69.140625 
Q 55.078125 64.0625 55.078125 55.328125 
Q 55.078125 49.078125 51.53125 44.71875 
Q 48 40.375 41.703125 38.8125 
Q 48.828125 37.15625 52.796875 32.3125 
Q 56.78125 27.484375 56.78125 20.515625 
Q 56.78125 9.90625 50.3125 4.234375 
Q 43.84375 -1.421875 31.78125 -1.421875 
Q 19.734375 -1.421875 13.25 4.234375 
Q 6.78125 9.90625 6.78125 20.515625 
Q 6.78125 27.484375 10.78125 32.3125 
Q 14.796875 37.15625 21.921875 38.8125 
z
M 18.3125 54.390625 
Q 18.3125 48.734375 21.84375 45.5625 
Q 25.390625 42.390625 31.78125 42.390625 
Q 38.140625 42.390625 41.71875 45.5625 
Q 45.3125 48.734375 45.3125 54.390625 
Q 45.3125 60.0625 41.71875 63.234375 
Q 38.140625 66.40625 31.78125 66.40625 
Q 25.390625 66.40625 21.84375 63.234375 
Q 18.3125 60.0625 18.3125 54.390625 
z
" id="DejaVuSans-56"/>
      </defs>
      <g transform="translate(327.592482 322.182437)scale(0.1 -0.1)">
       <use xlink:href="#DejaVuSans-48"/>
       <use x="63.623047" xlink:href="#DejaVuSans-46"/>
       <use x="95.410156" xlink:href="#DejaVuSans-56"/>
      </g>
     </g>
    </g>
    <g id="xtick_6">
     <g id="line2d_11">
      <path clip-path="url(#p5c42e3d911)" d="M 401.800074 307.584 
L 401.800074 41.472 
" style="fill:none;stroke:#b0b0b0;stroke-linecap:square;stroke-width:0.8;"/>
     </g>
     <g id="line2d_12">
      <g>
       <use style="stroke:#000000;stroke-width:0.8;" x="401.800074" xlink:href="#mda1458dee6" y="307.584"/>
      </g>
     </g>
     <g id="text_6">
      <!-- 1.0 -->
      <defs>
       <path d="M 12.40625 8.296875 
L 28.515625 8.296875 
L 28.515625 63.921875 
L 10.984375 60.40625 
L 10.984375 69.390625 
L 28.421875 72.90625 
L 38.28125 72.90625 
L 38.28125 8.296875 
L 54.390625 8.296875 
L 54.390625 0 
L 12.40625 0 
z
" id="DejaVuSans-49"/>
      </defs>
      <g transform="translate(393.848512 322.182437)scale(0.1 -0.1)">
       <use xlink:href="#DejaVuSans-49"/>
       <use x="63.623047" xlink:href="#DejaVuSans-46"/>
       <use x="95.410156" xlink:href="#DejaVuSans-48"/>
      </g>
     </g>
    </g>
    <g id="text_7">
     <!-- $\mathrm{Time \ (seconds)}$ -->
     <defs>
      <path d="M -0.296875 72.90625 
L 61.375 72.90625 
L 61.375 64.59375 
L 35.5 64.59375 
L 35.5 0 
L 25.59375 0 
L 25.59375 64.59375 
L -0.296875 64.59375 
z
" id="DejaVuSans-84"/>
      <path d="M 9.421875 54.6875 
L 18.40625 54.6875 
L 18.40625 0 
L 9.421875 0 
z
M 9.421875 75.984375 
L 18.40625 75.984375 
L 18.40625 64.59375 
L 9.421875 64.59375 
z
" id="DejaVuSans-105"/>
      <path d="M 52 44.1875 
Q 55.375 50.25 60.0625 53.125 
Q 64.75 56 71.09375 56 
Q 79.640625 56 84.28125 50.015625 
Q 88.921875 44.046875 88.921875 33.015625 
L 88.921875 0 
L 79.890625 0 
L 79.890625 32.71875 
Q 79.890625 40.578125 77.09375 44.375 
Q 74.3125 48.1875 68.609375 48.1875 
Q 61.625 48.1875 57.5625 43.546875 
Q 53.515625 38.921875 53.515625 30.90625 
L 53.515625 0 
L 44.484375 0 
L 44.484375 32.71875 
Q 44.484375 40.625 41.703125 44.40625 
Q 38.921875 48.1875 33.109375 48.1875 
Q 26.21875 48.1875 22.15625 43.53125 
Q 18.109375 38.875 18.109375 30.90625 
L 18.109375 0 
L 9.078125 0 
L 9.078125 54.6875 
L 18.109375 54.6875 
L 18.109375 46.1875 
Q 21.1875 51.21875 25.484375 53.609375 
Q 29.78125 56 35.6875 56 
Q 41.65625 56 45.828125 52.96875 
Q 50 49.953125 52 44.1875 
z
" id="DejaVuSans-109"/>
      <path d="M 56.203125 29.59375 
L 56.203125 25.203125 
L 14.890625 25.203125 
Q 15.484375 15.921875 20.484375 11.0625 
Q 25.484375 6.203125 34.421875 6.203125 
Q 39.59375 6.203125 44.453125 7.46875 
Q 49.3125 8.734375 54.109375 11.28125 
L 54.109375 2.78125 
Q 49.265625 0.734375 44.1875 -0.34375 
Q 39.109375 -1.421875 33.890625 -1.421875 
Q 20.796875 -1.421875 13.15625 6.1875 
Q 5.515625 13.8125 5.515625 26.8125 
Q 5.515625 40.234375 12.765625 48.109375 
Q 20.015625 56 32.328125 56 
Q 43.359375 56 49.78125 48.890625 
Q 56.203125 41.796875 56.203125 29.59375 
z
M 47.21875 32.234375 
Q 47.125 39.59375 43.09375 43.984375 
Q 39.0625 48.390625 32.421875 48.390625 
Q 24.90625 48.390625 20.390625 44.140625 
Q 15.875 39.890625 15.1875 32.171875 
z
" id="DejaVuSans-101"/>
      <path d="M 31 75.875 
Q 24.46875 64.65625 21.28125 53.65625 
Q 18.109375 42.671875 18.109375 31.390625 
Q 18.109375 20.125 21.3125 9.0625 
Q 24.515625 -2 31 -13.1875 
L 23.1875 -13.1875 
Q 15.875 -1.703125 12.234375 9.375 
Q 8.59375 20.453125 8.59375 31.390625 
Q 8.59375 42.28125 12.203125 53.3125 
Q 15.828125 64.359375 23.1875 75.875 
z
" id="DejaVuSans-40"/>
      <path d="M 44.28125 53.078125 
L 44.28125 44.578125 
Q 40.484375 46.53125 36.375 47.5 
Q 32.28125 48.484375 27.875 48.484375 
Q 21.1875 48.484375 17.84375 46.4375 
Q 14.5 44.390625 14.5 40.28125 
Q 14.5 37.15625 16.890625 35.375 
Q 19.28125 33.59375 26.515625 31.984375 
L 29.59375 31.296875 
Q 39.15625 29.25 43.1875 25.515625 
Q 47.21875 21.78125 47.21875 15.09375 
Q 47.21875 7.46875 41.1875 3.015625 
Q 35.15625 -1.421875 24.609375 -1.421875 
Q 20.21875 -1.421875 15.453125 -0.5625 
Q 10.6875 0.296875 5.421875 2 
L 5.421875 11.28125 
Q 10.40625 8.6875 15.234375 7.390625 
Q 20.0625 6.109375 24.8125 6.109375 
Q 31.15625 6.109375 34.5625 8.28125 
Q 37.984375 10.453125 37.984375 14.40625 
Q 37.984375 18.0625 35.515625 20.015625 
Q 33.0625 21.96875 24.703125 23.78125 
L 21.578125 24.515625 
Q 13.234375 26.265625 9.515625 29.90625 
Q 5.8125 33.546875 5.8125 39.890625 
Q 5.8125 47.609375 11.28125 51.796875 
Q 16.75 56 26.8125 56 
Q 31.78125 56 36.171875 55.265625 
Q 40.578125 54.546875 44.28125 53.078125 
z
" id="DejaVuSans-115"/>
      <path d="M 48.78125 52.59375 
L 48.78125 44.1875 
Q 44.96875 46.296875 41.140625 47.34375 
Q 37.3125 48.390625 33.40625 48.390625 
Q 24.65625 48.390625 19.8125 42.84375 
Q 14.984375 37.3125 14.984375 27.296875 
Q 14.984375 17.28125 19.8125 11.734375 
Q 24.65625 6.203125 33.40625 6.203125 
Q 37.3125 6.203125 41.140625 7.25 
Q 44.96875 8.296875 48.78125 10.40625 
L 48.78125 2.09375 
Q 45.015625 0.34375 40.984375 -0.53125 
Q 36.96875 -1.421875 32.421875 -1.421875 
Q 20.0625 -1.421875 12.78125 6.34375 
Q 5.515625 14.109375 5.515625 27.296875 
Q 5.515625 40.671875 12.859375 48.328125 
Q 20.21875 56 33.015625 56 
Q 37.15625 56 41.109375 55.140625 
Q 45.0625 54.296875 48.78125 52.59375 
z
" id="DejaVuSans-99"/>
      <path d="M 30.609375 48.390625 
Q 23.390625 48.390625 19.1875 42.75 
Q 14.984375 37.109375 14.984375 27.296875 
Q 14.984375 17.484375 19.15625 11.84375 
Q 23.34375 6.203125 30.609375 6.203125 
Q 37.796875 6.203125 41.984375 11.859375 
Q 46.1875 17.53125 46.1875 27.296875 
Q 46.1875 37.015625 41.984375 42.703125 
Q 37.796875 48.390625 30.609375 48.390625 
z
M 30.609375 56 
Q 42.328125 56 49.015625 48.375 
Q 55.71875 40.765625 55.71875 27.296875 
Q 55.71875 13.875 49.015625 6.21875 
Q 42.328125 -1.421875 30.609375 -1.421875 
Q 18.84375 -1.421875 12.171875 6.21875 
Q 5.515625 13.875 5.515625 27.296875 
Q 5.515625 40.765625 12.171875 48.375 
Q 18.84375 56 30.609375 56 
z
" id="DejaVuSans-111"/>
      <path d="M 54.890625 33.015625 
L 54.890625 0 
L 45.90625 0 
L 45.90625 32.71875 
Q 45.90625 40.484375 42.875 44.328125 
Q 39.84375 48.1875 33.796875 48.1875 
Q 26.515625 48.1875 22.3125 43.546875 
Q 18.109375 38.921875 18.109375 30.90625 
L 18.109375 0 
L 9.078125 0 
L 9.078125 54.6875 
L 18.109375 54.6875 
L 18.109375 46.1875 
Q 21.34375 51.125 25.703125 53.5625 
Q 30.078125 56 35.796875 56 
Q 45.21875 56 50.046875 50.171875 
Q 54.890625 44.34375 54.890625 33.015625 
z
" id="DejaVuSans-110"/>
      <path d="M 45.40625 46.390625 
L 45.40625 75.984375 
L 54.390625 75.984375 
L 54.390625 0 
L 45.40625 0 
L 45.40625 8.203125 
Q 42.578125 3.328125 38.25 0.953125 
Q 33.9375 -1.421875 27.875 -1.421875 
Q 17.96875 -1.421875 11.734375 6.484375 
Q 5.515625 14.40625 5.515625 27.296875 
Q 5.515625 40.1875 11.734375 48.09375 
Q 17.96875 56 27.875 56 
Q 33.9375 56 38.25 53.625 
Q 42.578125 51.265625 45.40625 46.390625 
z
M 14.796875 27.296875 
Q 14.796875 17.390625 18.875 11.75 
Q 22.953125 6.109375 30.078125 6.109375 
Q 37.203125 6.109375 41.296875 11.75 
Q 45.40625 17.390625 45.40625 27.296875 
Q 45.40625 37.203125 41.296875 42.84375 
Q 37.203125 48.484375 30.078125 48.484375 
Q 22.953125 48.484375 18.875 42.84375 
Q 14.796875 37.203125 14.796875 27.296875 
z
" id="DejaVuSans-100"/>
      <path d="M 8.015625 75.875 
L 15.828125 75.875 
Q 23.140625 64.359375 26.78125 53.3125 
Q 30.421875 42.28125 30.421875 31.390625 
Q 30.421875 20.453125 26.78125 9.375 
Q 23.140625 -1.703125 15.828125 -13.1875 
L 8.015625 -13.1875 
Q 14.5 -2 17.703125 9.0625 
Q 20.90625 20.125 20.90625 31.390625 
Q 20.90625 42.671875 17.703125 53.65625 
Q 14.5 64.65625 8.015625 75.875 
z
" id="DejaVuSans-41"/>
     </defs>
     <g transform="translate(197.76 335.860562)scale(0.1 -0.1)">
      <use transform="translate(0 0.015625)" xlink:href="#DejaVuSans-84"/>
      <use transform="translate(61.083984 0.015625)" xlink:href="#DejaVuSans-105"/>
      <use transform="translate(88.867188 0.015625)" xlink:href="#DejaVuSans-109"/>
      <use transform="translate(186.279297 0.015625)" xlink:href="#DejaVuSans-101"/>
      <use transform="translate(280.273113 0.015625)" xlink:href="#DejaVuSans-40"/>
      <use transform="translate(319.286785 0.015625)" xlink:href="#DejaVuSans-115"/>
      <use transform="translate(371.386394 0.015625)" xlink:href="#DejaVuSans-101"/>
      <use transform="translate(432.909832 0.015625)" xlink:href="#DejaVuSans-99"/>
      <use transform="translate(487.8903 0.015625)" xlink:href="#DejaVuSans-111"/>
      <use transform="translate(549.071941 0.015625)" xlink:href="#DejaVuSans-110"/>
      <use transform="translate(612.450847 0.015625)" xlink:href="#DejaVuSans-100"/>
      <use transform="translate(675.92741 0.015625)" xlink:href="#DejaVuSans-115"/>
      <use transform="translate(728.027019 0.015625)" xlink:href="#DejaVuSans-41"/>
     </g>
    </g>
   </g>
   <g id="matplotlib.axis_2">
    <g id="ytick_1">
     <g id="line2d_13">
      <path clip-path="url(#p5c42e3d911)" d="M 57.6 259.32667 
L 414.72 259.32667 
" style="fill:none;stroke:#b0b0b0;stroke-linecap:square;stroke-width:0.8;"/>
     </g>
     <g id="line2d_14">
      <defs>
       <path d="M 0 0 
L -3.5 0 
" id="me6848583fa" style="stroke:#000000;stroke-width:0.8;"/>
      </defs>
      <g>
       <use style="stroke:#000000;stroke-width:0.8;" x="57.6" xlink:href="#me6848583fa" y="259.32667"/>
      </g>
     </g>
     <g id="text_8">
      <!-- $\mathdefault{10^{-1}}$ -->
      <defs>
       <path d="M 10.59375 35.5 
L 73.1875 35.5 
L 73.1875 27.203125 
L 10.59375 27.203125 
z
" id="DejaVuSans-8722"/>
      </defs>
      <g transform="translate(27.1 263.125889)scale(0.1 -0.1)">
       <use transform="translate(0 0.684375)" xlink:href="#DejaVuSans-49"/>
       <use transform="translate(63.623047 0.684375)" xlink:href="#DejaVuSans-48"/>
       <use transform="translate(128.203125 38.965625)scale(0.7)" xlink:href="#DejaVuSans-8722"/>
       <use transform="translate(186.855469 38.965625)scale(0.7)" xlink:href="#DejaVuSans-49"/>
      </g>
     </g>
    </g>
    <g id="ytick_2">
     <g id="line2d_15">
      <defs>
       <path d="M 0 0 
L -2 0 
" id="me4a2beb26c" style="stroke:#000000;stroke-width:0.6;"/>
      </defs>
      <g>
       <use style="stroke:#000000;stroke-width:0.6;" x="57.6" xlink:href="#me4a2beb26c" y="297.471305"/>
      </g>
     </g>
    </g>
    <g id="ytick_3">
     <g id="line2d_16">
      <g>
       <use style="stroke:#000000;stroke-width:0.6;" x="57.6" xlink:href="#me4a2beb26c" y="283.190778"/>
      </g>
     </g>
    </g>
    <g id="ytick_4">
     <g id="line2d_17">
      <g>
       <use style="stroke:#000000;stroke-width:0.6;" x="57.6" xlink:href="#me4a2beb26c" y="270.594461"/>
      </g>
     </g>
    </g>
    <g id="ytick_5">
     <g id="line2d_18">
      <g>
       <use style="stroke:#000000;stroke-width:0.6;" x="57.6" xlink:href="#me4a2beb26c" y="185.197981"/>
      </g>
     </g>
    </g>
    <g id="ytick_6">
     <g id="line2d_19">
      <g>
       <use style="stroke:#000000;stroke-width:0.6;" x="57.6" xlink:href="#me4a2beb26c" y="141.835477"/>
      </g>
     </g>
    </g>
    <g id="ytick_7">
     <g id="line2d_20">
      <g>
       <use style="stroke:#000000;stroke-width:0.6;" x="57.6" xlink:href="#me4a2beb26c" y="111.069291"/>
      </g>
     </g>
    </g>
    <g id="ytick_8">
     <g id="line2d_21">
      <g>
       <use style="stroke:#000000;stroke-width:0.6;" x="57.6" xlink:href="#me4a2beb26c" y="87.205183"/>
      </g>
     </g>
    </g>
    <g id="ytick_9">
     <g id="line2d_22">
      <g>
       <use style="stroke:#000000;stroke-width:0.6;" x="57.6" xlink:href="#me4a2beb26c" y="67.706787"/>
      </g>
     </g>
    </g>
    <g id="ytick_10">
     <g id="line2d_23">
      <g>
       <use style="stroke:#000000;stroke-width:0.6;" x="57.6" xlink:href="#me4a2beb26c" y="51.221128"/>
      </g>
     </g>
    </g>
    <g id="text_9">
     <!-- $\mathrm{Relative \ error}$ ($N_{\mathrm{train}}=1$) -->
     <defs>
      <path d="M 44.390625 34.1875 
Q 47.5625 33.109375 50.5625 29.59375 
Q 53.5625 26.078125 56.59375 19.921875 
L 66.609375 0 
L 56 0 
L 46.6875 18.703125 
Q 43.0625 26.03125 39.671875 28.421875 
Q 36.28125 30.8125 30.421875 30.8125 
L 19.671875 30.8125 
L 19.671875 0 
L 9.8125 0 
L 9.8125 72.90625 
L 32.078125 72.90625 
Q 44.578125 72.90625 50.734375 67.671875 
Q 56.890625 62.453125 56.890625 51.90625 
Q 56.890625 45.015625 53.6875 40.46875 
Q 50.484375 35.9375 44.390625 34.1875 
z
M 19.671875 64.796875 
L 19.671875 38.921875 
L 32.078125 38.921875 
Q 39.203125 38.921875 42.84375 42.21875 
Q 46.484375 45.515625 46.484375 51.90625 
Q 46.484375 58.296875 42.84375 61.546875 
Q 39.203125 64.796875 32.078125 64.796875 
z
" id="DejaVuSans-82"/>
      <path d="M 9.421875 75.984375 
L 18.40625 75.984375 
L 18.40625 0 
L 9.421875 0 
z
" id="DejaVuSans-108"/>
      <path d="M 34.28125 27.484375 
Q 23.390625 27.484375 19.1875 25 
Q 14.984375 22.515625 14.984375 16.5 
Q 14.984375 11.71875 18.140625 8.90625 
Q 21.296875 6.109375 26.703125 6.109375 
Q 34.1875 6.109375 38.703125 11.40625 
Q 43.21875 16.703125 43.21875 25.484375 
L 43.21875 27.484375 
z
M 52.203125 31.203125 
L 52.203125 0 
L 43.21875 0 
L 43.21875 8.296875 
Q 40.140625 3.328125 35.546875 0.953125 
Q 30.953125 -1.421875 24.3125 -1.421875 
Q 15.921875 -1.421875 10.953125 3.296875 
Q 6 8.015625 6 15.921875 
Q 6 25.140625 12.171875 29.828125 
Q 18.359375 34.515625 30.609375 34.515625 
L 43.21875 34.515625 
L 43.21875 35.40625 
Q 43.21875 41.609375 39.140625 45 
Q 35.0625 48.390625 27.6875 48.390625 
Q 23 48.390625 18.546875 47.265625 
Q 14.109375 46.140625 10.015625 43.890625 
L 10.015625 52.203125 
Q 14.9375 54.109375 19.578125 55.046875 
Q 24.21875 56 28.609375 56 
Q 40.484375 56 46.34375 49.84375 
Q 52.203125 43.703125 52.203125 31.203125 
z
" id="DejaVuSans-97"/>
      <path d="M 18.3125 70.21875 
L 18.3125 54.6875 
L 36.8125 54.6875 
L 36.8125 47.703125 
L 18.3125 47.703125 
L 18.3125 18.015625 
Q 18.3125 11.328125 20.140625 9.421875 
Q 21.96875 7.515625 27.59375 7.515625 
L 36.8125 7.515625 
L 36.8125 0 
L 27.59375 0 
Q 17.1875 0 13.234375 3.875 
Q 9.28125 7.765625 9.28125 18.015625 
L 9.28125 47.703125 
L 2.6875 47.703125 
L 2.6875 54.6875 
L 9.28125 54.6875 
L 9.28125 70.21875 
z
" id="DejaVuSans-116"/>
      <path d="M 2.984375 54.6875 
L 12.5 54.6875 
L 29.59375 8.796875 
L 46.6875 54.6875 
L 56.203125 54.6875 
L 35.6875 0 
L 23.484375 0 
z
" id="DejaVuSans-118"/>
      <path d="M 41.109375 46.296875 
Q 39.59375 47.171875 37.8125 47.578125 
Q 36.03125 48 33.890625 48 
Q 26.265625 48 22.1875 43.046875 
Q 18.109375 38.09375 18.109375 28.8125 
L 18.109375 0 
L 9.078125 0 
L 9.078125 54.6875 
L 18.109375 54.6875 
L 18.109375 46.1875 
Q 20.953125 51.171875 25.484375 53.578125 
Q 30.03125 56 36.53125 56 
Q 37.453125 56 38.578125 55.875 
Q 39.703125 55.765625 41.0625 55.515625 
z
" id="DejaVuSans-114"/>
      <path id="DejaVuSans-32"/>
      <path d="M 16.890625 72.90625 
L 30.171875 72.90625 
L 50.296875 10.40625 
L 62.5 72.90625 
L 72.125 72.90625 
L 57.90625 0 
L 44.578125 0 
L 24.515625 62.890625 
L 12.3125 0 
L 2.6875 0 
z
" id="DejaVuSans-Oblique-78"/>
      <path d="M 10.59375 45.40625 
L 73.1875 45.40625 
L 73.1875 37.203125 
L 10.59375 37.203125 
z
M 10.59375 25.484375 
L 73.1875 25.484375 
L 73.1875 17.1875 
L 10.59375 17.1875 
z
" id="DejaVuSans-61"/>
     </defs>
     <g transform="translate(21.020312 235.678)rotate(-90)scale(0.1 -0.1)">
      <use transform="translate(0 0.015625)" xlink:href="#DejaVuSans-82"/>
      <use transform="translate(69.482422 0.015625)" xlink:href="#DejaVuSans-101"/>
      <use transform="translate(131.005859 0.015625)" xlink:href="#DejaVuSans-108"/>
      <use transform="translate(158.789062 0.015625)" xlink:href="#DejaVuSans-97"/>
      <use transform="translate(220.068359 0.015625)" xlink:href="#DejaVuSans-116"/>
      <use transform="translate(259.277344 0.015625)" xlink:href="#DejaVuSans-105"/>
      <use transform="translate(287.060547 0.015625)" xlink:href="#DejaVuSans-118"/>
      <use transform="translate(346.240234 0.015625)" xlink:href="#DejaVuSans-101"/>
      <use transform="translate(440.23405 0.015625)" xlink:href="#DejaVuSans-101"/>
      <use transform="translate(501.757488 0.015625)" xlink:href="#DejaVuSans-114"/>
      <use transform="translate(542.870769 0.015625)" xlink:href="#DejaVuSans-114"/>
      <use transform="translate(583.98405 0.015625)" xlink:href="#DejaVuSans-111"/>
      <use transform="translate(645.165691 0.015625)" xlink:href="#DejaVuSans-114"/>
      <use transform="translate(686.278972 0.015625)" xlink:href="#DejaVuSans-32"/>
      <use transform="translate(718.066082 0.015625)" xlink:href="#DejaVuSans-40"/>
      <use transform="translate(757.079753 0.015625)" xlink:href="#DejaVuSans-Oblique-78"/>
      <use transform="translate(831.884441 -16.390625)scale(0.7)" xlink:href="#DejaVuSans-116"/>
      <use transform="translate(859.33073 -16.390625)scale(0.7)" xlink:href="#DejaVuSans-114"/>
      <use transform="translate(888.110027 -16.390625)scale(0.7)" xlink:href="#DejaVuSans-97"/>
      <use transform="translate(931.005535 -16.390625)scale(0.7)" xlink:href="#DejaVuSans-105"/>
      <use transform="translate(950.453777 -16.390625)scale(0.7)" xlink:href="#DejaVuSans-110"/>
      <use transform="translate(1017.035808 0.015625)" xlink:href="#DejaVuSans-61"/>
      <use transform="translate(1120.307292 0.015625)" xlink:href="#DejaVuSans-49"/>
      <use transform="translate(1183.930339 0.015625)" xlink:href="#DejaVuSans-41"/>
     </g>
    </g>
   </g>
   <g id="line2d_24">
    <path clip-path="url(#p5c42e3d911)" d="M 73.832724 290.646232 
L 77.145522 251.796386 
L 80.458321 223.57193 
L 83.771119 201.498443 
L 87.083917 183.570713 
L 90.396716 168.689451 
L 93.709554 156.158732 
L 97.022352 145.491334 
L 100.33515 136.324757 
L 103.647949 128.380564 
L 106.960747 121.441266 
L 110.273545 115.335415 
L 113.586344 109.926641 
L 116.899142 105.105682 
L 120.21194 100.784373 
L 123.524738 96.891008 
L 126.837537 93.366875 
L 130.150375 90.163444 
L 133.463173 87.240388 
L 136.775971 84.564071 
L 140.08877 82.106034 
L 143.401568 79.842231 
L 146.714366 77.752289 
L 150.027165 75.818652 
L 153.339963 74.026365 
L 156.652761 72.362413 
L 159.96556 70.815657 
L 163.278358 69.376397 
L 166.591156 68.03621 
L 169.903955 66.787811 
L 173.216753 65.624811 
L 179.842389 63.533807 
L 186.467986 61.727635 
L 193.093582 60.180489 
L 199.719179 58.874852 
L 206.344776 57.800596 
L 212.970412 56.954757 
L 219.596008 56.341347 
L 226.221605 55.971354 
L 232.847202 55.862321 
L 236.16 55.912518 
L 239.472798 56.036376 
L 242.785597 56.236603 
L 246.098395 56.515361 
L 249.411193 56.873908 
L 252.723992 57.312035 
L 256.03679 57.827725 
L 262.662387 59.071503 
L 269.288023 60.538006 
L 289.164852 65.1893 
L 295.790449 66.5087 
L 302.416045 67.640817 
L 309.041642 68.588966 
L 315.667239 69.371692 
L 322.292835 70.014373 
L 328.918432 70.544502 
L 338.856827 71.18753 
L 355.420858 72.060995 
L 368.672051 72.781848 
L 378.610486 73.440025 
L 388.548881 74.266668 
L 395.174478 74.93852 
L 398.487276 75.315829 
" style="fill:none;stroke:#ff0000;stroke-linecap:square;stroke-width:1.5;"/>
   </g>
   <g id="line2d_25">
    <path clip-path="url(#p5c42e3d911)" d="M 73.832724 290.611445 
L 77.145522 251.761867 
L 80.458321 223.53768 
L 83.771119 201.464447 
L 87.083917 183.536958 
L 90.396716 168.655902 
L 93.709554 156.125359 
L 97.022352 145.458106 
L 100.33515 136.291645 
L 103.647949 128.347509 
L 106.960747 121.408295 
L 110.273545 115.302483 
L 113.586344 109.893709 
L 116.899142 105.07271 
L 120.21194 100.751347 
L 123.524738 96.857955 
L 126.837537 93.333732 
L 130.150375 90.130185 
L 133.463173 87.207044 
L 136.775971 84.530569 
L 140.08877 82.072394 
L 143.401568 79.808415 
L 146.714366 77.718263 
L 150.027165 75.784423 
L 153.339963 73.99187 
L 156.652761 72.327663 
L 159.96556 70.780609 
L 163.278358 69.341019 
L 166.591156 68.000516 
L 169.903955 66.751709 
L 173.216753 65.588297 
L 179.842389 63.496346 
L 186.467986 61.689064 
L 193.093582 60.14063 
L 199.719179 58.833463 
L 206.344776 57.757472 
L 212.970412 56.909609 
L 219.596008 56.293851 
L 226.221605 55.921215 
L 232.847202 55.809077 
L 236.16 55.857566 
L 239.472798 55.979599 
L 242.785597 56.177898 
L 246.098395 56.4546 
L 249.411193 56.810976 
L 252.723992 57.246811 
L 256.03679 57.760144 
L 262.662387 58.999116 
L 269.288023 60.460867 
L 289.164852 65.101268 
L 295.790449 66.418557 
L 302.416045 67.549111 
L 309.041642 68.496176 
L 315.667239 69.278113 
L 322.292835 69.92023 
L 328.918432 70.449858 
L 338.856827 71.092217 
L 355.420858 71.964238 
L 368.672051 72.683212 
L 378.610486 73.339246 
L 388.548881 74.162783 
L 395.174478 74.831868 
L 398.487276 75.207535 
" style="fill:none;stroke:#ffa500;stroke-linecap:square;stroke-width:1.5;"/>
   </g>
   <g id="line2d_26">
    <path clip-path="url(#p5c42e3d911)" d="M 73.832724 290.645346 
L 77.145522 251.793044 
L 80.458321 223.565976 
L 83.771119 201.489869 
L 87.083917 183.559476 
L 90.396716 168.675543 
L 93.709554 156.142226 
L 97.022352 145.472339 
L 100.33515 136.303387 
L 103.647949 128.356903 
L 106.960747 121.415431 
L 110.273545 115.307531 
L 113.586344 109.896759 
L 116.899142 105.073915 
L 120.21194 100.750761 
L 123.524738 96.855667 
L 126.837537 93.329823 
L 130.150375 90.124728 
L 133.463173 87.200084 
L 136.775971 84.522151 
L 140.08877 82.062552 
L 143.401568 79.797232 
L 146.714366 77.705757 
L 150.027165 75.770595 
L 153.339963 73.976751 
L 156.652761 72.311247 
L 159.96556 70.76293 
L 163.278358 69.322056 
L 166.591156 67.980255 
L 169.903955 66.730158 
L 173.216753 65.565427 
L 179.842389 63.470753 
L 186.467986 61.660617 
L 193.093582 60.109128 
L 199.719179 58.798649 
L 206.344776 57.719019 
L 212.970412 56.867159 
L 219.596008 56.246911 
L 226.221605 55.86914 
L 232.847202 55.751214 
L 236.16 55.796426 
L 239.472798 55.914925 
L 242.785597 56.109349 
L 246.098395 56.381859 
L 249.411193 56.733592 
L 252.723992 57.164317 
L 256.03679 57.671991 
L 262.662387 58.897696 
L 269.288023 60.343442 
L 289.164852 64.924779 
L 295.790449 66.222425 
L 302.416045 67.334877 
L 309.041642 68.265535 
L 315.667239 69.032765 
L 322.292835 69.661611 
L 328.918432 70.179204 
L 338.856827 70.805202 
L 355.420858 71.652165 
L 368.672051 72.350673 
L 378.610486 72.989561 
L 388.548881 73.79319 
L 395.174478 74.446845 
L 398.487276 74.813961 
" style="fill:none;stroke:#ff00ff;stroke-linecap:square;stroke-width:1.5;"/>
   </g>
   <g id="patch_3">
    <path d="M 57.6 307.584 
L 57.6 41.472 
" style="fill:none;stroke:#000000;stroke-linecap:square;stroke-linejoin:miter;stroke-width:0.8;"/>
   </g>
   <g id="patch_4">
    <path d="M 414.72 307.584 
L 414.72 41.472 
" style="fill:none;stroke:#000000;stroke-linecap:square;stroke-linejoin:miter;stroke-width:0.8;"/>
   </g>
   <g id="patch_5">
    <path d="M 57.6 307.584 
L 414.72 307.584 
" style="fill:none;stroke:#000000;stroke-linecap:square;stroke-linejoin:miter;stroke-width:0.8;"/>
   </g>
   <g id="patch_6">
    <path d="M 57.6 41.472 
L 414.72 41.472 
" style="fill:none;stroke:#000000;stroke-linecap:square;stroke-linejoin:miter;stroke-width:0.8;"/>
   </g>
   <g id="legend_1">
    <g id="patch_7">
     <path d="M 297.662188 302.584 
L 407.72 302.584 
Q 409.72 302.584 409.72 300.584 
L 409.72 257.549625 
Q 409.72 255.549625 407.72 255.549625 
L 297.662188 255.549625 
Q 295.662188 255.549625 295.662188 257.549625 
L 295.662188 300.584 
Q 295.662188 302.584 297.662188 302.584 
z
" style="fill:#ffffff;opacity:0.8;stroke:#cccccc;stroke-linejoin:miter;"/>
    </g>
    <g id="line2d_27">
     <path d="M 299.662188 263.648062 
L 319.662188 263.648062 
" style="fill:none;stroke:#ff0000;stroke-linecap:square;stroke-width:1.5;"/>
    </g>
    <g id="line2d_28"/>
    <g id="text_10">
     <!-- No GR -->
     <defs>
      <path d="M 9.8125 72.90625 
L 23.09375 72.90625 
L 55.421875 11.921875 
L 55.421875 72.90625 
L 64.984375 72.90625 
L 64.984375 0 
L 51.703125 0 
L 19.390625 60.984375 
L 19.390625 0 
L 9.8125 0 
z
" id="DejaVuSans-78"/>
      <path d="M 59.515625 10.40625 
L 59.515625 29.984375 
L 43.40625 29.984375 
L 43.40625 38.09375 
L 69.28125 38.09375 
L 69.28125 6.78125 
Q 63.578125 2.734375 56.6875 0.65625 
Q 49.8125 -1.421875 42 -1.421875 
Q 24.90625 -1.421875 15.25 8.5625 
Q 5.609375 18.5625 5.609375 36.375 
Q 5.609375 54.25 15.25 64.234375 
Q 24.90625 74.21875 42 74.21875 
Q 49.125 74.21875 55.546875 72.453125 
Q 61.96875 70.703125 67.390625 67.28125 
L 67.390625 56.78125 
Q 61.921875 61.421875 55.765625 63.765625 
Q 49.609375 66.109375 42.828125 66.109375 
Q 29.4375 66.109375 22.71875 58.640625 
Q 16.015625 51.171875 16.015625 36.375 
Q 16.015625 21.625 22.71875 14.15625 
Q 29.4375 6.6875 42.828125 6.6875 
Q 48.046875 6.6875 52.140625 7.59375 
Q 56.25 8.5 59.515625 10.40625 
z
" id="DejaVuSans-71"/>
     </defs>
     <g transform="translate(327.662188 267.148062)scale(0.1 -0.1)">
      <use xlink:href="#DejaVuSans-78"/>
      <use x="74.804688" xlink:href="#DejaVuSans-111"/>
      <use x="135.986328" xlink:href="#DejaVuSans-32"/>
      <use x="167.773438" xlink:href="#DejaVuSans-71"/>
      <use x="245.263672" xlink:href="#DejaVuSans-82"/>
     </g>
    </g>
    <g id="line2d_29">
     <path d="M 299.662188 278.326188 
L 319.662188 278.326188 
" style="fill:none;stroke:#ffa500;stroke-linecap:square;stroke-width:1.5;"/>
    </g>
    <g id="line2d_30"/>
    <g id="text_11">
     <!-- With GR -->
     <defs>
      <path d="M 3.328125 72.90625 
L 13.28125 72.90625 
L 28.609375 11.28125 
L 43.890625 72.90625 
L 54.984375 72.90625 
L 70.3125 11.28125 
L 85.59375 72.90625 
L 95.609375 72.90625 
L 77.296875 0 
L 64.890625 0 
L 49.515625 63.28125 
L 33.984375 0 
L 21.578125 0 
z
" id="DejaVuSans-87"/>
      <path d="M 54.890625 33.015625 
L 54.890625 0 
L 45.90625 0 
L 45.90625 32.71875 
Q 45.90625 40.484375 42.875 44.328125 
Q 39.84375 48.1875 33.796875 48.1875 
Q 26.515625 48.1875 22.3125 43.546875 
Q 18.109375 38.921875 18.109375 30.90625 
L 18.109375 0 
L 9.078125 0 
L 9.078125 75.984375 
L 18.109375 75.984375 
L 18.109375 46.1875 
Q 21.34375 51.125 25.703125 53.5625 
Q 30.078125 56 35.796875 56 
Q 45.21875 56 50.046875 50.171875 
Q 54.890625 44.34375 54.890625 33.015625 
z
" id="DejaVuSans-104"/>
     </defs>
     <g transform="translate(327.662188 281.826188)scale(0.1 -0.1)">
      <use xlink:href="#DejaVuSans-87"/>
      <use x="98.845703" xlink:href="#DejaVuSans-105"/>
      <use x="126.628906" xlink:href="#DejaVuSans-116"/>
      <use x="165.837891" xlink:href="#DejaVuSans-104"/>
      <use x="229.216797" xlink:href="#DejaVuSans-32"/>
      <use x="261.003906" xlink:href="#DejaVuSans-71"/>
      <use x="338.494141" xlink:href="#DejaVuSans-82"/>
     </g>
    </g>
    <g id="line2d_31">
     <path d="M 299.662188 293.004312 
L 319.662188 293.004312 
" style="fill:none;stroke:#ff00ff;stroke-linecap:square;stroke-width:1.5;"/>
    </g>
    <g id="line2d_32"/>
    <g id="text_12">
     <!-- With double GR -->
     <defs>
      <path d="M 8.5 21.578125 
L 8.5 54.6875 
L 17.484375 54.6875 
L 17.484375 21.921875 
Q 17.484375 14.15625 20.5 10.265625 
Q 23.53125 6.390625 29.59375 6.390625 
Q 36.859375 6.390625 41.078125 11.03125 
Q 45.3125 15.671875 45.3125 23.6875 
L 45.3125 54.6875 
L 54.296875 54.6875 
L 54.296875 0 
L 45.3125 0 
L 45.3125 8.40625 
Q 42.046875 3.421875 37.71875 1 
Q 33.40625 -1.421875 27.6875 -1.421875 
Q 18.265625 -1.421875 13.375 4.4375 
Q 8.5 10.296875 8.5 21.578125 
z
M 31.109375 56 
z
" id="DejaVuSans-117"/>
      <path d="M 48.6875 27.296875 
Q 48.6875 37.203125 44.609375 42.84375 
Q 40.53125 48.484375 33.40625 48.484375 
Q 26.265625 48.484375 22.1875 42.84375 
Q 18.109375 37.203125 18.109375 27.296875 
Q 18.109375 17.390625 22.1875 11.75 
Q 26.265625 6.109375 33.40625 6.109375 
Q 40.53125 6.109375 44.609375 11.75 
Q 48.6875 17.390625 48.6875 27.296875 
z
M 18.109375 46.390625 
Q 20.953125 51.265625 25.265625 53.625 
Q 29.59375 56 35.59375 56 
Q 45.5625 56 51.78125 48.09375 
Q 58.015625 40.1875 58.015625 27.296875 
Q 58.015625 14.40625 51.78125 6.484375 
Q 45.5625 -1.421875 35.59375 -1.421875 
Q 29.59375 -1.421875 25.265625 0.953125 
Q 20.953125 3.328125 18.109375 8.203125 
L 18.109375 0 
L 9.078125 0 
L 9.078125 75.984375 
L 18.109375 75.984375 
z
" id="DejaVuSans-98"/>
     </defs>
     <g transform="translate(327.662188 296.504312)scale(0.1 -0.1)">
      <use xlink:href="#DejaVuSans-87"/>
      <use x="98.845703" xlink:href="#DejaVuSans-105"/>
      <use x="126.628906" xlink:href="#DejaVuSans-116"/>
      <use x="165.837891" xlink:href="#DejaVuSans-104"/>
      <use x="229.216797" xlink:href="#DejaVuSans-32"/>
      <use x="261.003906" xlink:href="#DejaVuSans-100"/>
      <use x="324.480469" xlink:href="#DejaVuSans-111"/>
      <use x="385.662109" xlink:href="#DejaVuSans-117"/>
      <use x="449.041016" xlink:href="#DejaVuSans-98"/>
      <use x="512.517578" xlink:href="#DejaVuSans-108"/>
      <use x="540.300781" xlink:href="#DejaVuSans-101"/>
      <use x="601.824219" xlink:href="#DejaVuSans-32"/>
      <use x="633.611328" xlink:href="#DejaVuSans-71"/>
      <use x="711.101562" xlink:href="#DejaVuSans-82"/>
     </g>
    </g>
   </g>
  </g>
 </g>
 <defs>
  <clipPath id="p5c42e3d911">
   <rect height="266.112" width="357.12" x="57.6" y="41.472"/>
  </clipPath>
 </defs>
</svg>
