<?xml version="1.0" encoding="utf-8" standalone="no"?>
<!DOCTYPE svg PUBLIC "-//W3C//DTD SVG 1.1//EN"
  "http://www.w3.org/Graphics/SVG/1.1/DTD/svg11.dtd">
<!-- Created with matplotlib (https://matplotlib.org/) -->
<svg height="345.6pt" version="1.1" viewBox="0 0 460.8 345.6" width="460.8pt" xmlns="http://www.w3.org/2000/svg" xmlns:xlink="http://www.w3.org/1999/xlink">
 <defs>
  <style type="text/css">
*{stroke-linecap:butt;stroke-linejoin:round;white-space:pre;}
  </style>
 </defs>
 <g id="figure_1">
  <g id="patch_1">
   <path d="M 0 345.6 
L 460.8 345.6 
L 460.8 0 
L 0 0 
z
" style="fill:#ffffff;"/>
  </g>
  <g id="axes_1">
   <g id="patch_2">
    <path d="M 57.6 307.584 
L 414.72 307.584 
L 414.72 41.472 
L 57.6 41.472 
z
" style="fill:#ffffff;"/>
   </g>
   <g id="PolyCollection_1">
    <path clip-path="url(#p04eb7f1a31)" d="M 73.832727 266.452001 
L 73.832727 295.357251 
L 77.145529 264.065679 
L 80.45833 240.606487 
L 83.771132 221.80754 
L 87.083933 206.273213 
L 90.396735 193.248793 
L 93.709536 182.246925 
L 97.022338 172.905688 
L 100.335139 164.935956 
L 103.647941 158.100538 
L 106.960742 152.204709 
L 110.273544 147.091043 
L 113.586345 142.632242 
L 116.899147 138.725236 
L 120.211948 135.285897 
L 123.52475 132.24552 
L 126.837551 129.548781 
L 130.150353 127.1509 
L 133.463154 125.015857 
L 136.775955 123.114276 
L 140.088757 121.421834 
L 143.401558 119.918103 
L 146.71436 118.585843 
L 150.027161 117.410287 
L 153.339963 116.378642 
L 156.652764 115.479875 
L 159.965566 114.704458 
L 163.278367 114.044295 
L 166.591169 113.492718 
L 169.90397 113.044335 
L 173.216772 112.694621 
L 176.529573 112.439946 
L 179.842375 112.277331 
L 183.155176 112.204142 
L 186.467978 112.217621 
L 189.780779 112.314387 
L 193.093581 112.489702 
L 196.406382 112.736645 
L 199.719184 113.045375 
L 203.031985 113.402474 
L 206.344787 113.790305 
L 209.657588 114.186714 
L 212.97039 114.565586 
L 216.283191 114.898577 
L 219.595993 115.157779 
L 222.908794 115.318718 
L 226.221596 115.362808 
L 229.534397 115.278582 
L 232.847199 115.061574 
L 236.16 114.713275 
L 239.472801 114.239747 
L 242.785603 113.650265 
L 246.098404 112.956161 
L 249.411206 112.169884 
L 252.724007 111.30425 
L 256.036809 110.371864 
L 259.34961 109.38475 
L 262.662412 108.354124 
L 265.975213 107.290297 
L 269.288015 106.20264 
L 272.600816 105.099563 
L 275.913618 103.988538 
L 279.226419 102.876141 
L 282.539221 101.768122 
L 285.852022 100.669472 
L 289.164824 99.584485 
L 292.477625 98.516801 
L 295.790427 97.469447 
L 299.103228 96.444898 
L 302.41603 95.445133 
L 305.728831 94.471694 
L 309.041633 93.525771 
L 312.354434 92.608255 
L 315.667236 91.719793 
L 318.980037 90.860837 
L 322.292839 90.031698 
L 325.60564 89.232577 
L 328.918442 88.463603 
L 332.231243 87.724868 
L 335.544045 87.016431 
L 338.856846 86.338375 
L 342.169647 85.69081 
L 345.482449 85.073858 
L 348.79525 84.487607 
L 352.108052 83.932092 
L 355.420853 83.407258 
L 358.733655 82.913019 
L 362.046456 82.449311 
L 365.359258 82.01608 
L 368.672059 81.613272 
L 371.984861 81.240825 
L 375.297662 80.898583 
L 378.610464 80.586252 
L 381.923265 80.30344 
L 385.236067 80.049694 
L 388.548868 79.824484 
L 391.86167 79.627183 
L 395.174471 79.457068 
L 398.487273 79.313282 
L 398.487273 56.068428 
L 398.487273 56.068428 
L 395.174471 56.144478 
L 391.86167 56.245785 
L 388.548868 56.371827 
L 385.236067 56.522089 
L 381.923265 56.696069 
L 378.610464 56.893285 
L 375.297662 57.113273 
L 371.984861 57.355582 
L 368.672059 57.619777 
L 365.359258 57.90545 
L 362.046456 58.212221 
L 358.733655 58.539701 
L 355.420853 58.887471 
L 352.108052 59.255081 
L 348.79525 59.642054 
L 345.482449 60.047867 
L 342.169647 60.471926 
L 338.856846 60.913546 
L 335.544045 61.371952 
L 332.231243 61.846274 
L 328.918442 62.335566 
L 325.60564 62.838812 
L 322.292839 63.354927 
L 318.980037 63.882744 
L 315.667236 64.420994 
L 312.354434 64.968271 
L 309.041633 65.523002 
L 305.728831 66.083407 
L 302.41603 66.647461 
L 299.103228 67.21283 
L 295.790427 67.776818 
L 292.477625 68.336293 
L 289.164824 68.887612 
L 285.852022 69.426563 
L 282.539221 69.94829 
L 279.226419 70.447232 
L 275.913618 70.91706 
L 272.600816 71.350647 
L 269.288015 71.740087 
L 265.975213 72.076859 
L 262.662412 72.35218 
L 259.34961 72.557575 
L 256.036809 72.685686 
L 252.724007 72.731376 
L 249.411206 72.693062 
L 246.098404 72.57402 
L 242.785603 72.383268 
L 239.472801 72.135493 
L 236.16 71.849787 
L 232.847199 71.547367 
L 229.534397 71.249032 
L 226.221596 70.973119 
L 222.908794 70.734438 
L 219.595993 70.544133 
L 216.283191 70.410116 
L 212.97039 70.337739 
L 209.657588 70.330463 
L 206.344787 70.390456 
L 203.031985 70.519049 
L 199.719184 70.717185 
L 196.406382 70.98571 
L 193.093581 71.325516 
L 189.780779 71.737682 
L 186.467978 72.22358 
L 183.155176 72.784898 
L 179.842375 73.423647 
L 176.529573 74.142208 
L 173.216772 74.943378 
L 169.90397 75.83039 
L 166.591169 76.806957 
L 163.278367 77.877445 
L 159.965566 79.04703 
L 156.652764 80.321781 
L 153.339963 81.708816 
L 150.027161 83.216546 
L 146.71436 84.854957 
L 143.401558 86.635858 
L 140.088757 88.573496 
L 136.775955 90.685003 
L 133.463154 92.99077 
L 130.150353 95.515191 
L 126.837551 98.287565 
L 123.52475 101.343815 
L 120.211948 104.728068 
L 116.899147 108.494482 
L 113.586345 112.709646 
L 110.273544 117.455559 
L 106.960742 122.833731 
L 103.647941 128.969624 
L 100.335139 136.017427 
L 97.022338 144.1656 
L 93.709536 153.643541 
L 90.396735 164.732624 
L 87.083933 177.791658 
L 83.771132 193.307671 
L 80.45833 212.033989 
L 77.145529 235.359781 
L 73.832727 266.452001 
z
" style="fill:#ff0000;fill-opacity:0.4;"/>
   </g>
   <g id="PolyCollection_2">
    <path clip-path="url(#p04eb7f1a31)" d="M 73.832727 261.445114 
L 73.832727 295.488 
L 77.145529 264.187512 
L 80.45833 240.725241 
L 83.771132 221.925529 
L 87.083933 206.390827 
L 90.396735 193.36597 
L 93.709536 182.363674 
L 97.022338 173.022099 
L 100.335139 165.052195 
L 103.647941 158.216926 
L 106.960742 152.321729 
L 110.273544 147.209335 
L 113.586345 142.752541 
L 116.899147 138.84822 
L 120.211948 135.412149 
L 123.52475 132.37556 
L 126.837551 129.683089 
L 130.150353 127.289901 
L 133.463154 125.159932 
L 136.775955 123.263791 
L 140.088757 121.577184 
L 143.401558 120.079759 
L 146.71436 118.754302 
L 150.027161 117.586035 
L 153.339963 116.562162 
L 156.652764 115.671664 
L 159.965566 114.905024 
L 163.278367 114.254166 
L 166.591169 113.712433 
L 169.90397 113.274438 
L 173.216772 112.93569 
L 176.529573 112.692592 
L 179.842375 112.542182 
L 183.155176 112.48181 
L 186.467978 112.508649 
L 189.780779 112.619189 
L 193.093581 112.808463 
L 196.406382 113.069164 
L 199.719184 113.390817 
L 203.031985 113.759036 
L 206.344787 114.154818 
L 209.657588 114.55429 
L 212.97039 114.929538 
L 216.283191 115.250904 
L 219.595993 115.490308 
L 222.908794 115.624601 
L 226.221596 115.637751 
L 229.534397 115.521299 
L 232.847199 115.273469 
L 236.16 114.89766 
L 239.472801 114.40095 
L 242.785603 113.79282 
L 246.098404 113.08421 
L 249.411206 112.286827 
L 252.724007 111.412647 
L 256.036809 110.47351 
L 259.34961 109.480829 
L 262.662412 108.445378 
L 265.975213 107.377167 
L 269.288015 106.285368 
L 272.600816 105.178267 
L 275.913618 104.063257 
L 279.226419 102.946872 
L 282.539221 101.83484 
L 285.852022 100.732141 
L 289.164824 99.643064 
L 292.477625 98.571245 
L 295.790427 97.519712 
L 299.103228 96.490946 
L 302.41603 95.486927 
L 305.728831 94.509207 
L 309.041633 93.558982 
L 312.354434 92.637151 
L 315.667236 91.744368 
L 318.980037 90.881093 
L 322.292839 90.047644 
L 325.60564 89.244228 
L 328.918442 88.470982 
L 332.231243 87.728 
L 335.544045 87.015349 
L 338.856846 86.333117 
L 342.169647 85.681424 
L 345.482449 85.060404 
L 348.79525 84.470159 
L 352.108052 83.91074 
L 355.420853 83.382107 
L 358.733655 82.884193 
L 362.046456 82.416947 
L 365.359258 81.980329 
L 368.672059 81.5743 
L 371.984861 81.198804 
L 375.297662 80.853693 
L 378.610464 80.538672 
L 381.923265 80.253345 
L 385.236067 79.997256 
L 388.548868 79.769867 
L 391.86167 79.570544 
L 395.174471 79.398553 
L 398.487273 79.253031 
L 398.487273 53.568 
L 398.487273 53.568 
L 395.174471 53.810015 
L 391.86167 54.084456 
L 388.548868 54.390754 
L 385.236067 54.728328 
L 381.923265 55.096582 
L 378.610464 55.494904 
L 375.297662 55.922676 
L 371.984861 56.379279 
L 368.672059 56.864066 
L 365.359258 57.376386 
L 362.046456 57.915601 
L 358.733655 58.481088 
L 355.420853 59.072234 
L 352.108052 59.68845 
L 348.79525 60.32917 
L 345.482449 60.993853 
L 342.169647 61.681969 
L 338.856846 62.393004 
L 335.544045 63.126451 
L 332.231243 63.881798 
L 328.918442 64.658529 
L 325.60564 65.456103 
L 322.292839 66.273942 
L 318.980037 67.111417 
L 315.667236 67.967828 
L 312.354434 68.842378 
L 309.041633 69.734155 
L 305.728831 70.642098 
L 302.41603 71.564965 
L 299.103228 72.501291 
L 295.790427 73.44934 
L 292.477625 74.407052 
L 289.164824 75.371984 
L 285.852022 76.341229 
L 282.539221 77.311349 
L 279.226419 78.278275 
L 275.913618 79.237218 
L 272.600816 80.182563 
L 269.288015 81.107761 
L 265.975213 82.00521 
L 262.662412 82.866163 
L 259.34961 83.680661 
L 256.036809 84.437502 
L 252.724007 85.124267 
L 249.411206 85.727414 
L 246.098404 86.232472 
L 242.785603 86.624391 
L 239.472801 86.888136 
L 236.16 87.009683 
L 232.847199 86.977603 
L 229.534397 86.785393 
L 226.221596 86.434508 
L 222.908794 85.93741 
L 219.595993 85.31918 
L 216.283191 84.616022 
L 212.97039 83.870272 
L 209.657588 83.123742 
L 206.344787 82.412176 
L 203.031985 81.762643 
L 199.719184 81.193659 
L 196.406382 80.716856 
L 193.093581 80.339014 
L 189.780779 80.063886 
L 186.467978 79.89354 
L 183.155176 79.829224 
L 179.842375 79.87183 
L 176.529573 80.022288 
L 173.216772 80.281746 
L 169.90397 80.651811 
L 166.591169 81.134728 
L 163.278367 81.733482 
L 159.965566 82.451924 
L 156.652764 83.294804 
L 153.339963 84.267988 
L 150.027161 85.37879 
L 146.71436 86.636244 
L 143.401558 88.051428 
L 140.088757 89.637707 
L 136.775955 91.411168 
L 133.463154 93.39151 
L 130.150353 95.602806 
L 126.837551 98.074216 
L 123.52475 100.841081 
L 120.211948 103.946701 
L 116.899147 107.444072 
L 113.586345 111.398119 
L 110.273544 115.888497 
L 106.960742 121.013105 
L 103.647941 126.892548 
L 100.335139 133.675297 
L 97.022338 141.543522 
L 93.709536 150.720481 
L 90.396735 161.483845 
L 87.083933 174.190405 
L 83.771132 189.332518 
L 80.45833 207.68058 
L 77.145529 230.651915 
L 73.832727 261.445114 
z
" style="fill:#0000ff;fill-opacity:0.4;"/>
   </g>
   <g id="matplotlib.axis_1">
    <g id="xtick_1">
     <g id="line2d_1">
      <path clip-path="url(#p04eb7f1a31)" d="M 70.519926 307.584 
L 70.519926 41.472 
" style="fill:none;stroke:#b0b0b0;stroke-linecap:square;stroke-width:0.8;"/>
     </g>
     <g id="line2d_2">
      <defs>
       <path d="M 0 0 
L 0 3.5 
" id="m6b87709325" style="stroke:#000000;stroke-width:0.8;"/>
      </defs>
      <g>
       <use style="stroke:#000000;stroke-width:0.8;" x="70.519926" xlink:href="#m6b87709325" y="307.584"/>
      </g>
     </g>
     <g id="text_1">
      <!-- 0.0 -->
      <defs>
       <path d="M 31.78125 66.40625 
Q 24.171875 66.40625 20.328125 58.90625 
Q 16.5 51.421875 16.5 36.375 
Q 16.5 21.390625 20.328125 13.890625 
Q 24.171875 6.390625 31.78125 6.390625 
Q 39.453125 6.390625 43.28125 13.890625 
Q 47.125 21.390625 47.125 36.375 
Q 47.125 51.421875 43.28125 58.90625 
Q 39.453125 66.40625 31.78125 66.40625 
z
M 31.78125 74.21875 
Q 44.046875 74.21875 50.515625 64.515625 
Q 56.984375 54.828125 56.984375 36.375 
Q 56.984375 17.96875 50.515625 8.265625 
Q 44.046875 -1.421875 31.78125 -1.421875 
Q 19.53125 -1.421875 13.0625 8.265625 
Q 6.59375 17.96875 6.59375 36.375 
Q 6.59375 54.828125 13.0625 64.515625 
Q 19.53125 74.21875 31.78125 74.21875 
z
" id="DejaVuSans-48"/>
       <path d="M 10.6875 12.40625 
L 21 12.40625 
L 21 0 
L 10.6875 0 
z
" id="DejaVuSans-46"/>
      </defs>
      <g transform="translate(62.568363 322.182437)scale(0.1 -0.1)">
       <use xlink:href="#DejaVuSans-48"/>
       <use x="63.623047" xlink:href="#DejaVuSans-46"/>
       <use x="95.410156" xlink:href="#DejaVuSans-48"/>
      </g>
     </g>
    </g>
    <g id="xtick_2">
     <g id="line2d_3">
      <path clip-path="url(#p04eb7f1a31)" d="M 136.775955 307.584 
L 136.775955 41.472 
" style="fill:none;stroke:#b0b0b0;stroke-linecap:square;stroke-width:0.8;"/>
     </g>
     <g id="line2d_4">
      <g>
       <use style="stroke:#000000;stroke-width:0.8;" x="136.775955" xlink:href="#m6b87709325" y="307.584"/>
      </g>
     </g>
     <g id="text_2">
      <!-- 0.2 -->
      <defs>
       <path d="M 19.1875 8.296875 
L 53.609375 8.296875 
L 53.609375 0 
L 7.328125 0 
L 7.328125 8.296875 
Q 12.9375 14.109375 22.625 23.890625 
Q 32.328125 33.6875 34.8125 36.53125 
Q 39.546875 41.84375 41.421875 45.53125 
Q 43.3125 49.21875 43.3125 52.78125 
Q 43.3125 58.59375 39.234375 62.25 
Q 35.15625 65.921875 28.609375 65.921875 
Q 23.96875 65.921875 18.8125 64.3125 
Q 13.671875 62.703125 7.8125 59.421875 
L 7.8125 69.390625 
Q 13.765625 71.78125 18.9375 73 
Q 24.125 74.21875 28.421875 74.21875 
Q 39.75 74.21875 46.484375 68.546875 
Q 53.21875 62.890625 53.21875 53.421875 
Q 53.21875 48.921875 51.53125 44.890625 
Q 49.859375 40.875 45.40625 35.40625 
Q 44.1875 33.984375 37.640625 27.21875 
Q 31.109375 20.453125 19.1875 8.296875 
z
" id="DejaVuSans-50"/>
      </defs>
      <g transform="translate(128.824393 322.182437)scale(0.1 -0.1)">
       <use xlink:href="#DejaVuSans-48"/>
       <use x="63.623047" xlink:href="#DejaVuSans-46"/>
       <use x="95.410156" xlink:href="#DejaVuSans-50"/>
      </g>
     </g>
    </g>
    <g id="xtick_3">
     <g id="line2d_5">
      <path clip-path="url(#p04eb7f1a31)" d="M 203.031985 307.584 
L 203.031985 41.472 
" style="fill:none;stroke:#b0b0b0;stroke-linecap:square;stroke-width:0.8;"/>
     </g>
     <g id="line2d_6">
      <g>
       <use style="stroke:#000000;stroke-width:0.8;" x="203.031985" xlink:href="#m6b87709325" y="307.584"/>
      </g>
     </g>
     <g id="text_3">
      <!-- 0.4 -->
      <defs>
       <path d="M 37.796875 64.3125 
L 12.890625 25.390625 
L 37.796875 25.390625 
z
M 35.203125 72.90625 
L 47.609375 72.90625 
L 47.609375 25.390625 
L 58.015625 25.390625 
L 58.015625 17.1875 
L 47.609375 17.1875 
L 47.609375 0 
L 37.796875 0 
L 37.796875 17.1875 
L 4.890625 17.1875 
L 4.890625 26.703125 
z
" id="DejaVuSans-52"/>
      </defs>
      <g transform="translate(195.080423 322.182437)scale(0.1 -0.1)">
       <use xlink:href="#DejaVuSans-48"/>
       <use x="63.623047" xlink:href="#DejaVuSans-46"/>
       <use x="95.410156" xlink:href="#DejaVuSans-52"/>
      </g>
     </g>
    </g>
    <g id="xtick_4">
     <g id="line2d_7">
      <path clip-path="url(#p04eb7f1a31)" d="M 269.288015 307.584 
L 269.288015 41.472 
" style="fill:none;stroke:#b0b0b0;stroke-linecap:square;stroke-width:0.8;"/>
     </g>
     <g id="line2d_8">
      <g>
       <use style="stroke:#000000;stroke-width:0.8;" x="269.288015" xlink:href="#m6b87709325" y="307.584"/>
      </g>
     </g>
     <g id="text_4">
      <!-- 0.6 -->
      <defs>
       <path d="M 33.015625 40.375 
Q 26.375 40.375 22.484375 35.828125 
Q 18.609375 31.296875 18.609375 23.390625 
Q 18.609375 15.53125 22.484375 10.953125 
Q 26.375 6.390625 33.015625 6.390625 
Q 39.65625 6.390625 43.53125 10.953125 
Q 47.40625 15.53125 47.40625 23.390625 
Q 47.40625 31.296875 43.53125 35.828125 
Q 39.65625 40.375 33.015625 40.375 
z
M 52.59375 71.296875 
L 52.59375 62.3125 
Q 48.875 64.0625 45.09375 64.984375 
Q 41.3125 65.921875 37.59375 65.921875 
Q 27.828125 65.921875 22.671875 59.328125 
Q 17.53125 52.734375 16.796875 39.40625 
Q 19.671875 43.65625 24.015625 45.921875 
Q 28.375 48.1875 33.59375 48.1875 
Q 44.578125 48.1875 50.953125 41.515625 
Q 57.328125 34.859375 57.328125 23.390625 
Q 57.328125 12.15625 50.6875 5.359375 
Q 44.046875 -1.421875 33.015625 -1.421875 
Q 20.359375 -1.421875 13.671875 8.265625 
Q 6.984375 17.96875 6.984375 36.375 
Q 6.984375 53.65625 15.1875 63.9375 
Q 23.390625 74.21875 37.203125 74.21875 
Q 40.921875 74.21875 44.703125 73.484375 
Q 48.484375 72.75 52.59375 71.296875 
z
" id="DejaVuSans-54"/>
      </defs>
      <g transform="translate(261.336452 322.182437)scale(0.1 -0.1)">
       <use xlink:href="#DejaVuSans-48"/>
       <use x="63.623047" xlink:href="#DejaVuSans-46"/>
       <use x="95.410156" xlink:href="#DejaVuSans-54"/>
      </g>
     </g>
    </g>
    <g id="xtick_5">
     <g id="line2d_9">
      <path clip-path="url(#p04eb7f1a31)" d="M 335.544045 307.584 
L 335.544045 41.472 
" style="fill:none;stroke:#b0b0b0;stroke-linecap:square;stroke-width:0.8;"/>
     </g>
     <g id="line2d_10">
      <g>
       <use style="stroke:#000000;stroke-width:0.8;" x="335.544045" xlink:href="#m6b87709325" y="307.584"/>
      </g>
     </g>
     <g id="text_5">
      <!-- 0.8 -->
      <defs>
       <path d="M 31.78125 34.625 
Q 24.75 34.625 20.71875 30.859375 
Q 16.703125 27.09375 16.703125 20.515625 
Q 16.703125 13.921875 20.71875 10.15625 
Q 24.75 6.390625 31.78125 6.390625 
Q 38.8125 6.390625 42.859375 10.171875 
Q 46.921875 13.96875 46.921875 20.515625 
Q 46.921875 27.09375 42.890625 30.859375 
Q 38.875 34.625 31.78125 34.625 
z
M 21.921875 38.8125 
Q 15.578125 40.375 12.03125 44.71875 
Q 8.5 49.078125 8.5 55.328125 
Q 8.5 64.0625 14.71875 69.140625 
Q 20.953125 74.21875 31.78125 74.21875 
Q 42.671875 74.21875 48.875 69.140625 
Q 55.078125 64.0625 55.078125 55.328125 
Q 55.078125 49.078125 51.53125 44.71875 
Q 48 40.375 41.703125 38.8125 
Q 48.828125 37.15625 52.796875 32.3125 
Q 56.78125 27.484375 56.78125 20.515625 
Q 56.78125 9.90625 50.3125 4.234375 
Q 43.84375 -1.421875 31.78125 -1.421875 
Q 19.734375 -1.421875 13.25 4.234375 
Q 6.78125 9.90625 6.78125 20.515625 
Q 6.78125 27.484375 10.78125 32.3125 
Q 14.796875 37.15625 21.921875 38.8125 
z
M 18.3125 54.390625 
Q 18.3125 48.734375 21.84375 45.5625 
Q 25.390625 42.390625 31.78125 42.390625 
Q 38.140625 42.390625 41.71875 45.5625 
Q 45.3125 48.734375 45.3125 54.390625 
Q 45.3125 60.0625 41.71875 63.234375 
Q 38.140625 66.40625 31.78125 66.40625 
Q 25.390625 66.40625 21.84375 63.234375 
Q 18.3125 60.0625 18.3125 54.390625 
z
" id="DejaVuSans-56"/>
      </defs>
      <g transform="translate(327.592482 322.182437)scale(0.1 -0.1)">
       <use xlink:href="#DejaVuSans-48"/>
       <use x="63.623047" xlink:href="#DejaVuSans-46"/>
       <use x="95.410156" xlink:href="#DejaVuSans-56"/>
      </g>
     </g>
    </g>
    <g id="xtick_6">
     <g id="line2d_11">
      <path clip-path="url(#p04eb7f1a31)" d="M 401.800074 307.584 
L 401.800074 41.472 
" style="fill:none;stroke:#b0b0b0;stroke-linecap:square;stroke-width:0.8;"/>
     </g>
     <g id="line2d_12">
      <g>
       <use style="stroke:#000000;stroke-width:0.8;" x="401.800074" xlink:href="#m6b87709325" y="307.584"/>
      </g>
     </g>
     <g id="text_6">
      <!-- 1.0 -->
      <defs>
       <path d="M 12.40625 8.296875 
L 28.515625 8.296875 
L 28.515625 63.921875 
L 10.984375 60.40625 
L 10.984375 69.390625 
L 28.421875 72.90625 
L 38.28125 72.90625 
L 38.28125 8.296875 
L 54.390625 8.296875 
L 54.390625 0 
L 12.40625 0 
z
" id="DejaVuSans-49"/>
      </defs>
      <g transform="translate(393.848512 322.182437)scale(0.1 -0.1)">
       <use xlink:href="#DejaVuSans-49"/>
       <use x="63.623047" xlink:href="#DejaVuSans-46"/>
       <use x="95.410156" xlink:href="#DejaVuSans-48"/>
      </g>
     </g>
    </g>
    <g id="text_7">
     <!-- $\mathrm{Time \ (seconds)}$ -->
     <defs>
      <path d="M -0.296875 72.90625 
L 61.375 72.90625 
L 61.375 64.59375 
L 35.5 64.59375 
L 35.5 0 
L 25.59375 0 
L 25.59375 64.59375 
L -0.296875 64.59375 
z
" id="DejaVuSans-84"/>
      <path d="M 9.421875 54.6875 
L 18.40625 54.6875 
L 18.40625 0 
L 9.421875 0 
z
M 9.421875 75.984375 
L 18.40625 75.984375 
L 18.40625 64.59375 
L 9.421875 64.59375 
z
" id="DejaVuSans-105"/>
      <path d="M 52 44.1875 
Q 55.375 50.25 60.0625 53.125 
Q 64.75 56 71.09375 56 
Q 79.640625 56 84.28125 50.015625 
Q 88.921875 44.046875 88.921875 33.015625 
L 88.921875 0 
L 79.890625 0 
L 79.890625 32.71875 
Q 79.890625 40.578125 77.09375 44.375 
Q 74.3125 48.1875 68.609375 48.1875 
Q 61.625 48.1875 57.5625 43.546875 
Q 53.515625 38.921875 53.515625 30.90625 
L 53.515625 0 
L 44.484375 0 
L 44.484375 32.71875 
Q 44.484375 40.625 41.703125 44.40625 
Q 38.921875 48.1875 33.109375 48.1875 
Q 26.21875 48.1875 22.15625 43.53125 
Q 18.109375 38.875 18.109375 30.90625 
L 18.109375 0 
L 9.078125 0 
L 9.078125 54.6875 
L 18.109375 54.6875 
L 18.109375 46.1875 
Q 21.1875 51.21875 25.484375 53.609375 
Q 29.78125 56 35.6875 56 
Q 41.65625 56 45.828125 52.96875 
Q 50 49.953125 52 44.1875 
z
" id="DejaVuSans-109"/>
      <path d="M 56.203125 29.59375 
L 56.203125 25.203125 
L 14.890625 25.203125 
Q 15.484375 15.921875 20.484375 11.0625 
Q 25.484375 6.203125 34.421875 6.203125 
Q 39.59375 6.203125 44.453125 7.46875 
Q 49.3125 8.734375 54.109375 11.28125 
L 54.109375 2.78125 
Q 49.265625 0.734375 44.1875 -0.34375 
Q 39.109375 -1.421875 33.890625 -1.421875 
Q 20.796875 -1.421875 13.15625 6.1875 
Q 5.515625 13.8125 5.515625 26.8125 
Q 5.515625 40.234375 12.765625 48.109375 
Q 20.015625 56 32.328125 56 
Q 43.359375 56 49.78125 48.890625 
Q 56.203125 41.796875 56.203125 29.59375 
z
M 47.21875 32.234375 
Q 47.125 39.59375 43.09375 43.984375 
Q 39.0625 48.390625 32.421875 48.390625 
Q 24.90625 48.390625 20.390625 44.140625 
Q 15.875 39.890625 15.1875 32.171875 
z
" id="DejaVuSans-101"/>
      <path d="M 31 75.875 
Q 24.46875 64.65625 21.28125 53.65625 
Q 18.109375 42.671875 18.109375 31.390625 
Q 18.109375 20.125 21.3125 9.0625 
Q 24.515625 -2 31 -13.1875 
L 23.1875 -13.1875 
Q 15.875 -1.703125 12.234375 9.375 
Q 8.59375 20.453125 8.59375 31.390625 
Q 8.59375 42.28125 12.203125 53.3125 
Q 15.828125 64.359375 23.1875 75.875 
z
" id="DejaVuSans-40"/>
      <path d="M 44.28125 53.078125 
L 44.28125 44.578125 
Q 40.484375 46.53125 36.375 47.5 
Q 32.28125 48.484375 27.875 48.484375 
Q 21.1875 48.484375 17.84375 46.4375 
Q 14.5 44.390625 14.5 40.28125 
Q 14.5 37.15625 16.890625 35.375 
Q 19.28125 33.59375 26.515625 31.984375 
L 29.59375 31.296875 
Q 39.15625 29.25 43.1875 25.515625 
Q 47.21875 21.78125 47.21875 15.09375 
Q 47.21875 7.46875 41.1875 3.015625 
Q 35.15625 -1.421875 24.609375 -1.421875 
Q 20.21875 -1.421875 15.453125 -0.5625 
Q 10.6875 0.296875 5.421875 2 
L 5.421875 11.28125 
Q 10.40625 8.6875 15.234375 7.390625 
Q 20.0625 6.109375 24.8125 6.109375 
Q 31.15625 6.109375 34.5625 8.28125 
Q 37.984375 10.453125 37.984375 14.40625 
Q 37.984375 18.0625 35.515625 20.015625 
Q 33.0625 21.96875 24.703125 23.78125 
L 21.578125 24.515625 
Q 13.234375 26.265625 9.515625 29.90625 
Q 5.8125 33.546875 5.8125 39.890625 
Q 5.8125 47.609375 11.28125 51.796875 
Q 16.75 56 26.8125 56 
Q 31.78125 56 36.171875 55.265625 
Q 40.578125 54.546875 44.28125 53.078125 
z
" id="DejaVuSans-115"/>
      <path d="M 48.78125 52.59375 
L 48.78125 44.1875 
Q 44.96875 46.296875 41.140625 47.34375 
Q 37.3125 48.390625 33.40625 48.390625 
Q 24.65625 48.390625 19.8125 42.84375 
Q 14.984375 37.3125 14.984375 27.296875 
Q 14.984375 17.28125 19.8125 11.734375 
Q 24.65625 6.203125 33.40625 6.203125 
Q 37.3125 6.203125 41.140625 7.25 
Q 44.96875 8.296875 48.78125 10.40625 
L 48.78125 2.09375 
Q 45.015625 0.34375 40.984375 -0.53125 
Q 36.96875 -1.421875 32.421875 -1.421875 
Q 20.0625 -1.421875 12.78125 6.34375 
Q 5.515625 14.109375 5.515625 27.296875 
Q 5.515625 40.671875 12.859375 48.328125 
Q 20.21875 56 33.015625 56 
Q 37.15625 56 41.109375 55.140625 
Q 45.0625 54.296875 48.78125 52.59375 
z
" id="DejaVuSans-99"/>
      <path d="M 30.609375 48.390625 
Q 23.390625 48.390625 19.1875 42.75 
Q 14.984375 37.109375 14.984375 27.296875 
Q 14.984375 17.484375 19.15625 11.84375 
Q 23.34375 6.203125 30.609375 6.203125 
Q 37.796875 6.203125 41.984375 11.859375 
Q 46.1875 17.53125 46.1875 27.296875 
Q 46.1875 37.015625 41.984375 42.703125 
Q 37.796875 48.390625 30.609375 48.390625 
z
M 30.609375 56 
Q 42.328125 56 49.015625 48.375 
Q 55.71875 40.765625 55.71875 27.296875 
Q 55.71875 13.875 49.015625 6.21875 
Q 42.328125 -1.421875 30.609375 -1.421875 
Q 18.84375 -1.421875 12.171875 6.21875 
Q 5.515625 13.875 5.515625 27.296875 
Q 5.515625 40.765625 12.171875 48.375 
Q 18.84375 56 30.609375 56 
z
" id="DejaVuSans-111"/>
      <path d="M 54.890625 33.015625 
L 54.890625 0 
L 45.90625 0 
L 45.90625 32.71875 
Q 45.90625 40.484375 42.875 44.328125 
Q 39.84375 48.1875 33.796875 48.1875 
Q 26.515625 48.1875 22.3125 43.546875 
Q 18.109375 38.921875 18.109375 30.90625 
L 18.109375 0 
L 9.078125 0 
L 9.078125 54.6875 
L 18.109375 54.6875 
L 18.109375 46.1875 
Q 21.34375 51.125 25.703125 53.5625 
Q 30.078125 56 35.796875 56 
Q 45.21875 56 50.046875 50.171875 
Q 54.890625 44.34375 54.890625 33.015625 
z
" id="DejaVuSans-110"/>
      <path d="M 45.40625 46.390625 
L 45.40625 75.984375 
L 54.390625 75.984375 
L 54.390625 0 
L 45.40625 0 
L 45.40625 8.203125 
Q 42.578125 3.328125 38.25 0.953125 
Q 33.9375 -1.421875 27.875 -1.421875 
Q 17.96875 -1.421875 11.734375 6.484375 
Q 5.515625 14.40625 5.515625 27.296875 
Q 5.515625 40.1875 11.734375 48.09375 
Q 17.96875 56 27.875 56 
Q 33.9375 56 38.25 53.625 
Q 42.578125 51.265625 45.40625 46.390625 
z
M 14.796875 27.296875 
Q 14.796875 17.390625 18.875 11.75 
Q 22.953125 6.109375 30.078125 6.109375 
Q 37.203125 6.109375 41.296875 11.75 
Q 45.40625 17.390625 45.40625 27.296875 
Q 45.40625 37.203125 41.296875 42.84375 
Q 37.203125 48.484375 30.078125 48.484375 
Q 22.953125 48.484375 18.875 42.84375 
Q 14.796875 37.203125 14.796875 27.296875 
z
" id="DejaVuSans-100"/>
      <path d="M 8.015625 75.875 
L 15.828125 75.875 
Q 23.140625 64.359375 26.78125 53.3125 
Q 30.421875 42.28125 30.421875 31.390625 
Q 30.421875 20.453125 26.78125 9.375 
Q 23.140625 -1.703125 15.828125 -13.1875 
L 8.015625 -13.1875 
Q 14.5 -2 17.703125 9.0625 
Q 20.90625 20.125 20.90625 31.390625 
Q 20.90625 42.671875 17.703125 53.65625 
Q 14.5 64.65625 8.015625 75.875 
z
" id="DejaVuSans-41"/>
     </defs>
     <g transform="translate(197.76 335.860562)scale(0.1 -0.1)">
      <use transform="translate(0 0.015625)" xlink:href="#DejaVuSans-84"/>
      <use transform="translate(61.083984 0.015625)" xlink:href="#DejaVuSans-105"/>
      <use transform="translate(88.867188 0.015625)" xlink:href="#DejaVuSans-109"/>
      <use transform="translate(186.279297 0.015625)" xlink:href="#DejaVuSans-101"/>
      <use transform="translate(280.273113 0.015625)" xlink:href="#DejaVuSans-40"/>
      <use transform="translate(319.286785 0.015625)" xlink:href="#DejaVuSans-115"/>
      <use transform="translate(371.386394 0.015625)" xlink:href="#DejaVuSans-101"/>
      <use transform="translate(432.909832 0.015625)" xlink:href="#DejaVuSans-99"/>
      <use transform="translate(487.8903 0.015625)" xlink:href="#DejaVuSans-111"/>
      <use transform="translate(549.071941 0.015625)" xlink:href="#DejaVuSans-110"/>
      <use transform="translate(612.450847 0.015625)" xlink:href="#DejaVuSans-100"/>
      <use transform="translate(675.92741 0.015625)" xlink:href="#DejaVuSans-115"/>
      <use transform="translate(728.027019 0.015625)" xlink:href="#DejaVuSans-41"/>
     </g>
    </g>
   </g>
   <g id="matplotlib.axis_2">
    <g id="ytick_1">
     <g id="line2d_13">
      <path clip-path="url(#p04eb7f1a31)" d="M 57.6 161.132581 
L 414.72 161.132581 
" style="fill:none;stroke:#b0b0b0;stroke-linecap:square;stroke-width:0.8;"/>
     </g>
     <g id="line2d_14">
      <defs>
       <path d="M 0 0 
L -3.5 0 
" id="m07d3b940c2" style="stroke:#000000;stroke-width:0.8;"/>
      </defs>
      <g>
       <use style="stroke:#000000;stroke-width:0.8;" x="57.6" xlink:href="#m07d3b940c2" y="161.132581"/>
      </g>
     </g>
     <g id="text_8">
      <!-- $\mathdefault{10^{-1}}$ -->
      <defs>
       <path d="M 10.59375 35.5 
L 73.1875 35.5 
L 73.1875 27.203125 
L 10.59375 27.203125 
z
" id="DejaVuSans-8722"/>
      </defs>
      <g transform="translate(27.1 164.9318)scale(0.1 -0.1)">
       <use transform="translate(0 0.684375)" xlink:href="#DejaVuSans-49"/>
       <use transform="translate(63.623047 0.684375)" xlink:href="#DejaVuSans-48"/>
       <use transform="translate(128.203125 38.965625)scale(0.7)" xlink:href="#DejaVuSans-8722"/>
       <use transform="translate(186.855469 38.965625)scale(0.7)" xlink:href="#DejaVuSans-49"/>
      </g>
     </g>
    </g>
    <g id="ytick_2">
     <g id="line2d_15">
      <defs>
       <path d="M 0 0 
L -2 0 
" id="mf6ba0c84e5" style="stroke:#000000;stroke-width:0.6;"/>
      </defs>
      <g>
       <use style="stroke:#000000;stroke-width:0.6;" x="57.6" xlink:href="#mf6ba0c84e5" y="285.543581"/>
      </g>
     </g>
    </g>
    <g id="ytick_3">
     <g id="line2d_16">
      <g>
       <use style="stroke:#000000;stroke-width:0.6;" x="57.6" xlink:href="#mf6ba0c84e5" y="254.200763"/>
      </g>
     </g>
    </g>
    <g id="ytick_4">
     <g id="line2d_17">
      <g>
       <use style="stroke:#000000;stroke-width:0.6;" x="57.6" xlink:href="#mf6ba0c84e5" y="231.962679"/>
      </g>
     </g>
    </g>
    <g id="ytick_5">
     <g id="line2d_18">
      <g>
       <use style="stroke:#000000;stroke-width:0.6;" x="57.6" xlink:href="#mf6ba0c84e5" y="214.713482"/>
      </g>
     </g>
    </g>
    <g id="ytick_6">
     <g id="line2d_19">
      <g>
       <use style="stroke:#000000;stroke-width:0.6;" x="57.6" xlink:href="#mf6ba0c84e5" y="200.619861"/>
      </g>
     </g>
    </g>
    <g id="ytick_7">
     <g id="line2d_20">
      <g>
       <use style="stroke:#000000;stroke-width:0.6;" x="57.6" xlink:href="#mf6ba0c84e5" y="188.703875"/>
      </g>
     </g>
    </g>
    <g id="ytick_8">
     <g id="line2d_21">
      <g>
       <use style="stroke:#000000;stroke-width:0.6;" x="57.6" xlink:href="#mf6ba0c84e5" y="178.381778"/>
      </g>
     </g>
    </g>
    <g id="ytick_9">
     <g id="line2d_22">
      <g>
       <use style="stroke:#000000;stroke-width:0.6;" x="57.6" xlink:href="#mf6ba0c84e5" y="169.277043"/>
      </g>
     </g>
    </g>
    <g id="ytick_10">
     <g id="line2d_23">
      <g>
       <use style="stroke:#000000;stroke-width:0.6;" x="57.6" xlink:href="#mf6ba0c84e5" y="107.55168"/>
      </g>
     </g>
    </g>
    <g id="ytick_11">
     <g id="line2d_24">
      <g>
       <use style="stroke:#000000;stroke-width:0.6;" x="57.6" xlink:href="#mf6ba0c84e5" y="76.208862"/>
      </g>
     </g>
    </g>
    <g id="ytick_12">
     <g id="line2d_25">
      <g>
       <use style="stroke:#000000;stroke-width:0.6;" x="57.6" xlink:href="#mf6ba0c84e5" y="53.970778"/>
      </g>
     </g>
    </g>
    <g id="text_9">
     <!-- $\mathrm{Relative \ error}$ ($N_{\mathrm{train}}=10$) -->
     <defs>
      <path d="M 44.390625 34.1875 
Q 47.5625 33.109375 50.5625 29.59375 
Q 53.5625 26.078125 56.59375 19.921875 
L 66.609375 0 
L 56 0 
L 46.6875 18.703125 
Q 43.0625 26.03125 39.671875 28.421875 
Q 36.28125 30.8125 30.421875 30.8125 
L 19.671875 30.8125 
L 19.671875 0 
L 9.8125 0 
L 9.8125 72.90625 
L 32.078125 72.90625 
Q 44.578125 72.90625 50.734375 67.671875 
Q 56.890625 62.453125 56.890625 51.90625 
Q 56.890625 45.015625 53.6875 40.46875 
Q 50.484375 35.9375 44.390625 34.1875 
z
M 19.671875 64.796875 
L 19.671875 38.921875 
L 32.078125 38.921875 
Q 39.203125 38.921875 42.84375 42.21875 
Q 46.484375 45.515625 46.484375 51.90625 
Q 46.484375 58.296875 42.84375 61.546875 
Q 39.203125 64.796875 32.078125 64.796875 
z
" id="DejaVuSans-82"/>
      <path d="M 9.421875 75.984375 
L 18.40625 75.984375 
L 18.40625 0 
L 9.421875 0 
z
" id="DejaVuSans-108"/>
      <path d="M 34.28125 27.484375 
Q 23.390625 27.484375 19.1875 25 
Q 14.984375 22.515625 14.984375 16.5 
Q 14.984375 11.71875 18.140625 8.90625 
Q 21.296875 6.109375 26.703125 6.109375 
Q 34.1875 6.109375 38.703125 11.40625 
Q 43.21875 16.703125 43.21875 25.484375 
L 43.21875 27.484375 
z
M 52.203125 31.203125 
L 52.203125 0 
L 43.21875 0 
L 43.21875 8.296875 
Q 40.140625 3.328125 35.546875 0.953125 
Q 30.953125 -1.421875 24.3125 -1.421875 
Q 15.921875 -1.421875 10.953125 3.296875 
Q 6 8.015625 6 15.921875 
Q 6 25.140625 12.171875 29.828125 
Q 18.359375 34.515625 30.609375 34.515625 
L 43.21875 34.515625 
L 43.21875 35.40625 
Q 43.21875 41.609375 39.140625 45 
Q 35.0625 48.390625 27.6875 48.390625 
Q 23 48.390625 18.546875 47.265625 
Q 14.109375 46.140625 10.015625 43.890625 
L 10.015625 52.203125 
Q 14.9375 54.109375 19.578125 55.046875 
Q 24.21875 56 28.609375 56 
Q 40.484375 56 46.34375 49.84375 
Q 52.203125 43.703125 52.203125 31.203125 
z
" id="DejaVuSans-97"/>
      <path d="M 18.3125 70.21875 
L 18.3125 54.6875 
L 36.8125 54.6875 
L 36.8125 47.703125 
L 18.3125 47.703125 
L 18.3125 18.015625 
Q 18.3125 11.328125 20.140625 9.421875 
Q 21.96875 7.515625 27.59375 7.515625 
L 36.8125 7.515625 
L 36.8125 0 
L 27.59375 0 
Q 17.1875 0 13.234375 3.875 
Q 9.28125 7.765625 9.28125 18.015625 
L 9.28125 47.703125 
L 2.6875 47.703125 
L 2.6875 54.6875 
L 9.28125 54.6875 
L 9.28125 70.21875 
z
" id="DejaVuSans-116"/>
      <path d="M 2.984375 54.6875 
L 12.5 54.6875 
L 29.59375 8.796875 
L 46.6875 54.6875 
L 56.203125 54.6875 
L 35.6875 0 
L 23.484375 0 
z
" id="DejaVuSans-118"/>
      <path d="M 41.109375 46.296875 
Q 39.59375 47.171875 37.8125 47.578125 
Q 36.03125 48 33.890625 48 
Q 26.265625 48 22.1875 43.046875 
Q 18.109375 38.09375 18.109375 28.8125 
L 18.109375 0 
L 9.078125 0 
L 9.078125 54.6875 
L 18.109375 54.6875 
L 18.109375 46.1875 
Q 20.953125 51.171875 25.484375 53.578125 
Q 30.03125 56 36.53125 56 
Q 37.453125 56 38.578125 55.875 
Q 39.703125 55.765625 41.0625 55.515625 
z
" id="DejaVuSans-114"/>
      <path id="DejaVuSans-32"/>
      <path d="M 16.890625 72.90625 
L 30.171875 72.90625 
L 50.296875 10.40625 
L 62.5 72.90625 
L 72.125 72.90625 
L 57.90625 0 
L 44.578125 0 
L 24.515625 62.890625 
L 12.3125 0 
L 2.6875 0 
z
" id="DejaVuSans-Oblique-78"/>
      <path d="M 10.59375 45.40625 
L 73.1875 45.40625 
L 73.1875 37.203125 
L 10.59375 37.203125 
z
M 10.59375 25.484375 
L 73.1875 25.484375 
L 73.1875 17.1875 
L 10.59375 17.1875 
z
" id="DejaVuSans-61"/>
     </defs>
     <g transform="translate(21.020312 238.878)rotate(-90)scale(0.1 -0.1)">
      <use transform="translate(0 0.015625)" xlink:href="#DejaVuSans-82"/>
      <use transform="translate(69.482422 0.015625)" xlink:href="#DejaVuSans-101"/>
      <use transform="translate(131.005859 0.015625)" xlink:href="#DejaVuSans-108"/>
      <use transform="translate(158.789062 0.015625)" xlink:href="#DejaVuSans-97"/>
      <use transform="translate(220.068359 0.015625)" xlink:href="#DejaVuSans-116"/>
      <use transform="translate(259.277344 0.015625)" xlink:href="#DejaVuSans-105"/>
      <use transform="translate(287.060547 0.015625)" xlink:href="#DejaVuSans-118"/>
      <use transform="translate(346.240234 0.015625)" xlink:href="#DejaVuSans-101"/>
      <use transform="translate(440.23405 0.015625)" xlink:href="#DejaVuSans-101"/>
      <use transform="translate(501.757488 0.015625)" xlink:href="#DejaVuSans-114"/>
      <use transform="translate(542.870769 0.015625)" xlink:href="#DejaVuSans-114"/>
      <use transform="translate(583.98405 0.015625)" xlink:href="#DejaVuSans-111"/>
      <use transform="translate(645.165691 0.015625)" xlink:href="#DejaVuSans-114"/>
      <use transform="translate(686.278972 0.015625)" xlink:href="#DejaVuSans-32"/>
      <use transform="translate(718.066082 0.015625)" xlink:href="#DejaVuSans-40"/>
      <use transform="translate(757.079753 0.015625)" xlink:href="#DejaVuSans-Oblique-78"/>
      <use transform="translate(831.884441 -16.390625)scale(0.7)" xlink:href="#DejaVuSans-116"/>
      <use transform="translate(859.33073 -16.390625)scale(0.7)" xlink:href="#DejaVuSans-114"/>
      <use transform="translate(888.110027 -16.390625)scale(0.7)" xlink:href="#DejaVuSans-97"/>
      <use transform="translate(931.005535 -16.390625)scale(0.7)" xlink:href="#DejaVuSans-105"/>
      <use transform="translate(950.453777 -16.390625)scale(0.7)" xlink:href="#DejaVuSans-110"/>
      <use transform="translate(1017.035808 0.015625)" xlink:href="#DejaVuSans-61"/>
      <use transform="translate(1120.307292 0.015625)" xlink:href="#DejaVuSans-49"/>
      <use transform="translate(1183.930339 0.015625)" xlink:href="#DejaVuSans-48"/>
      <use transform="translate(1247.553386 0.015625)" xlink:href="#DejaVuSans-41"/>
     </g>
    </g>
   </g>
   <g id="line2d_26">
    <path clip-path="url(#p04eb7f1a31)" d="M 73.832724 279.561352 
L 77.145522 248.387823 
L 80.458321 225.007545 
L 83.771119 206.251528 
L 87.083917 190.728038 
L 90.396716 177.683139 
L 93.709554 166.629706 
L 97.022352 157.20758 
L 100.33515 149.132195 
L 103.647949 142.170878 
L 106.960747 136.132581 
L 110.273545 130.861719 
L 113.586344 126.232038 
L 116.899142 122.141344 
L 120.21194 118.50674 
L 123.524738 115.26068 
L 126.837537 112.34853 
L 130.150375 109.725847 
L 133.463173 107.356567 
L 136.775971 105.211381 
L 140.08877 103.265812 
L 143.401568 101.499432 
L 146.714366 99.894968 
L 150.027165 98.437953 
L 153.339963 97.116117 
L 156.652761 95.91898 
L 159.96556 94.837693 
L 163.278358 93.864708 
L 166.591156 92.993655 
L 169.903955 92.219233 
L 173.216753 91.536977 
L 176.529551 90.943185 
L 179.842389 90.434646 
L 183.155187 90.008586 
L 186.467986 89.662431 
L 189.780784 89.393636 
L 193.093582 89.199295 
L 196.406381 89.076036 
L 199.719179 89.019533 
L 203.031977 89.024391 
L 209.657574 89.189239 
L 216.28321 89.497055 
L 229.534403 90.170452 
L 236.16 90.347861 
L 239.472798 90.355712 
L 242.785597 90.295074 
L 246.098395 90.157574 
L 249.411193 89.938354 
L 252.723992 89.636417 
L 256.03679 89.254548 
L 259.349588 88.798478 
L 262.662387 88.275897 
L 269.288023 87.066536 
L 275.913619 85.697513 
L 285.852014 83.480202 
L 305.728844 78.981626 
L 315.667239 76.87153 
L 322.292835 75.548188 
L 328.918432 74.300871 
L 335.544029 73.135585 
L 342.169625 72.057468 
L 348.795222 71.070875 
L 355.420858 70.1792 
L 362.046455 69.3847 
L 368.672051 68.689314 
L 375.297688 68.094674 
L 381.923284 67.602024 
L 388.548881 67.212119 
L 395.174478 66.925248 
L 398.487276 66.820389 
" style="fill:none;stroke:#ff0000;stroke-linecap:square;stroke-width:1.5;"/>
   </g>
   <g id="line2d_27">
    <path clip-path="url(#p04eb7f1a31)" d="M 73.832724 276.607469 
L 77.145522 245.615186 
L 80.458321 222.450442 
L 83.771119 203.923801 
L 87.083917 188.625924 
L 90.396716 175.792739 
L 93.709554 164.934116 
L 97.022352 155.691404 
L 100.33515 147.782543 
L 103.647949 140.97879 
L 106.960747 135.093055 
L 110.273545 129.97331 
L 113.586344 125.496382 
L 116.899142 121.562214 
L 120.21194 118.089353 
L 123.524738 115.011321 
L 126.837537 112.274165 
L 130.150375 109.833952 
L 133.463173 107.655088 
L 136.775971 105.708289 
L 140.08877 103.969451 
L 143.401568 102.418525 
L 146.714366 101.039035 
L 150.027165 99.817035 
L 153.339963 98.740756 
L 156.652761 97.800381 
L 159.96556 96.987745 
L 163.278358 96.29609 
L 166.591156 95.719952 
L 169.903955 95.254802 
L 173.216753 94.897148 
L 176.529551 94.644185 
L 179.842389 94.493725 
L 183.155187 94.444097 
L 186.467986 94.493579 
L 189.780784 94.640237 
L 193.093582 94.881322 
L 196.406381 95.212685 
L 199.719179 95.627884 
L 203.031977 96.117031 
L 209.657574 97.25244 
L 216.28321 98.425684 
L 219.596008 98.941991 
L 222.908807 99.364532 
L 226.221605 99.665195 
L 229.534403 99.825691 
L 232.847202 99.837996 
L 236.16 99.702796 
L 239.472798 99.426916 
L 242.785597 99.021115 
L 246.098395 98.49823 
L 249.411193 97.872017 
L 252.723992 97.156303 
L 256.03679 96.364477 
L 262.662387 94.602512 
L 269.288023 92.675997 
L 279.226418 89.63268 
L 292.477651 85.54875 
L 302.416045 82.604247 
L 309.041642 80.732308 
L 315.667239 78.945513 
L 322.292835 77.250426 
L 328.918432 75.651439 
L 335.544029 74.151731 
L 342.169625 72.754039 
L 348.795222 71.461059 
L 355.420858 70.275447 
L 362.046455 69.199554 
L 368.672051 68.235986 
L 375.297688 67.387428 
L 381.923284 66.656077 
L 388.548881 66.04342 
L 395.174478 65.550283 
L 398.487276 65.34858 
" style="fill:none;stroke:#0000ff;stroke-linecap:square;stroke-width:1.5;"/>
   </g>
   <g id="patch_3">
    <path d="M 57.6 307.584 
L 57.6 41.472 
" style="fill:none;stroke:#000000;stroke-linecap:square;stroke-linejoin:miter;stroke-width:0.8;"/>
   </g>
   <g id="patch_4">
    <path d="M 414.72 307.584 
L 414.72 41.472 
" style="fill:none;stroke:#000000;stroke-linecap:square;stroke-linejoin:miter;stroke-width:0.8;"/>
   </g>
   <g id="patch_5">
    <path d="M 57.6 307.584 
L 414.72 307.584 
" style="fill:none;stroke:#000000;stroke-linecap:square;stroke-linejoin:miter;stroke-width:0.8;"/>
   </g>
   <g id="patch_6">
    <path d="M 57.6 41.472 
L 414.72 41.472 
" style="fill:none;stroke:#000000;stroke-linecap:square;stroke-linejoin:miter;stroke-width:0.8;"/>
   </g>
   <g id="legend_1">
    <g id="patch_7">
     <path d="M 64.6 78.82825 
L 162.457812 78.82825 
Q 164.457812 78.82825 164.457812 76.82825 
L 164.457812 48.472 
Q 164.457812 46.472 162.457812 46.472 
L 64.6 46.472 
Q 62.6 46.472 62.6 48.472 
L 62.6 76.82825 
Q 62.6 78.82825 64.6 78.82825 
z
" style="fill:#ffffff;opacity:0.8;stroke:#cccccc;stroke-linejoin:miter;"/>
    </g>
    <g id="line2d_28">
     <path d="M 66.6 54.570437 
L 86.6 54.570437 
" style="fill:none;stroke:#ff0000;stroke-linecap:square;stroke-width:1.5;"/>
    </g>
    <g id="line2d_29"/>
    <g id="text_10">
     <!-- No grad. reg. -->
     <defs>
      <path d="M 9.8125 72.90625 
L 23.09375 72.90625 
L 55.421875 11.921875 
L 55.421875 72.90625 
L 64.984375 72.90625 
L 64.984375 0 
L 51.703125 0 
L 19.390625 60.984375 
L 19.390625 0 
L 9.8125 0 
z
" id="DejaVuSans-78"/>
      <path d="M 45.40625 27.984375 
Q 45.40625 37.75 41.375 43.109375 
Q 37.359375 48.484375 30.078125 48.484375 
Q 22.859375 48.484375 18.828125 43.109375 
Q 14.796875 37.75 14.796875 27.984375 
Q 14.796875 18.265625 18.828125 12.890625 
Q 22.859375 7.515625 30.078125 7.515625 
Q 37.359375 7.515625 41.375 12.890625 
Q 45.40625 18.265625 45.40625 27.984375 
z
M 54.390625 6.78125 
Q 54.390625 -7.171875 48.1875 -13.984375 
Q 42 -20.796875 29.203125 -20.796875 
Q 24.46875 -20.796875 20.265625 -20.09375 
Q 16.0625 -19.390625 12.109375 -17.921875 
L 12.109375 -9.1875 
Q 16.0625 -11.328125 19.921875 -12.34375 
Q 23.78125 -13.375 27.78125 -13.375 
Q 36.625 -13.375 41.015625 -8.765625 
Q 45.40625 -4.15625 45.40625 5.171875 
L 45.40625 9.625 
Q 42.625 4.78125 38.28125 2.390625 
Q 33.9375 0 27.875 0 
Q 17.828125 0 11.671875 7.65625 
Q 5.515625 15.328125 5.515625 27.984375 
Q 5.515625 40.671875 11.671875 48.328125 
Q 17.828125 56 27.875 56 
Q 33.9375 56 38.28125 53.609375 
Q 42.625 51.21875 45.40625 46.390625 
L 45.40625 54.6875 
L 54.390625 54.6875 
z
" id="DejaVuSans-103"/>
     </defs>
     <g transform="translate(94.6 58.070437)scale(0.1 -0.1)">
      <use xlink:href="#DejaVuSans-78"/>
      <use x="74.804688" xlink:href="#DejaVuSans-111"/>
      <use x="135.986328" xlink:href="#DejaVuSans-32"/>
      <use x="167.773438" xlink:href="#DejaVuSans-103"/>
      <use x="231.25" xlink:href="#DejaVuSans-114"/>
      <use x="272.363281" xlink:href="#DejaVuSans-97"/>
      <use x="333.642578" xlink:href="#DejaVuSans-100"/>
      <use x="397.119141" xlink:href="#DejaVuSans-46"/>
      <use x="428.90625" xlink:href="#DejaVuSans-32"/>
      <use x="460.693359" xlink:href="#DejaVuSans-114"/>
      <use x="501.775391" xlink:href="#DejaVuSans-101"/>
      <use x="563.298828" xlink:href="#DejaVuSans-103"/>
      <use x="626.775391" xlink:href="#DejaVuSans-46"/>
     </g>
    </g>
    <g id="line2d_30">
     <path d="M 66.6 69.248562 
L 86.6 69.248562 
" style="fill:none;stroke:#0000ff;stroke-linecap:square;stroke-width:1.5;"/>
    </g>
    <g id="line2d_31"/>
    <g id="text_11">
     <!-- Grad. reg -->
     <defs>
      <path d="M 59.515625 10.40625 
L 59.515625 29.984375 
L 43.40625 29.984375 
L 43.40625 38.09375 
L 69.28125 38.09375 
L 69.28125 6.78125 
Q 63.578125 2.734375 56.6875 0.65625 
Q 49.8125 -1.421875 42 -1.421875 
Q 24.90625 -1.421875 15.25 8.5625 
Q 5.609375 18.5625 5.609375 36.375 
Q 5.609375 54.25 15.25 64.234375 
Q 24.90625 74.21875 42 74.21875 
Q 49.125 74.21875 55.546875 72.453125 
Q 61.96875 70.703125 67.390625 67.28125 
L 67.390625 56.78125 
Q 61.921875 61.421875 55.765625 63.765625 
Q 49.609375 66.109375 42.828125 66.109375 
Q 29.4375 66.109375 22.71875 58.640625 
Q 16.015625 51.171875 16.015625 36.375 
Q 16.015625 21.625 22.71875 14.15625 
Q 29.4375 6.6875 42.828125 6.6875 
Q 48.046875 6.6875 52.140625 7.59375 
Q 56.25 8.5 59.515625 10.40625 
z
" id="DejaVuSans-71"/>
     </defs>
     <g transform="translate(94.6 72.748562)scale(0.1 -0.1)">
      <use xlink:href="#DejaVuSans-71"/>
      <use x="77.490234" xlink:href="#DejaVuSans-114"/>
      <use x="118.603516" xlink:href="#DejaVuSans-97"/>
      <use x="179.882812" xlink:href="#DejaVuSans-100"/>
      <use x="243.359375" xlink:href="#DejaVuSans-46"/>
      <use x="275.146484" xlink:href="#DejaVuSans-32"/>
      <use x="306.933594" xlink:href="#DejaVuSans-114"/>
      <use x="348.015625" xlink:href="#DejaVuSans-101"/>
      <use x="409.539062" xlink:href="#DejaVuSans-103"/>
     </g>
    </g>
   </g>
  </g>
 </g>
 <defs>
  <clipPath id="p04eb7f1a31">
   <rect height="266.112" width="357.12" x="57.6" y="41.472"/>
  </clipPath>
 </defs>
</svg>
