<?xml version="1.0" encoding="utf-8" standalone="no"?>
<!DOCTYPE svg PUBLIC "-//W3C//DTD SVG 1.1//EN"
  "http://www.w3.org/Graphics/SVG/1.1/DTD/svg11.dtd">
<!-- Created with matplotlib (https://matplotlib.org/) -->
<svg height="345.6pt" version="1.1" viewBox="0 0 460.8 345.6" width="460.8pt" xmlns="http://www.w3.org/2000/svg" xmlns:xlink="http://www.w3.org/1999/xlink">
 <defs>
  <style type="text/css">
*{stroke-linecap:butt;stroke-linejoin:round;white-space:pre;}
  </style>
 </defs>
 <g id="figure_1">
  <g id="patch_1">
   <path d="M 0 345.6 
L 460.8 345.6 
L 460.8 0 
L 0 0 
z
" style="fill:#ffffff;"/>
  </g>
  <g id="axes_1">
   <g id="patch_2">
    <path d="M 57.6 307.584 
L 414.72 307.584 
L 414.72 41.472 
L 57.6 41.472 
z
" style="fill:#ffffff;"/>
   </g>
   <g id="PolyCollection_1">
    <path clip-path="url(#p0f2e7f5892)" d="M 73.832727 264.018973 
L 73.832727 295.488 
L 77.145529 279.939101 
L 80.45833 268.221551 
L 83.771132 258.822861 
L 87.083933 251.107659 
L 90.396735 244.672318 
L 93.709536 239.234313 
L 97.022338 234.586277 
L 100.335139 230.554395 
L 103.647941 227.0032 
L 106.960742 223.829452 
L 110.273544 220.955354 
L 113.586345 218.323439 
L 116.899147 215.887138 
L 120.211948 213.606925 
L 123.52475 211.450792 
L 126.837551 209.396142 
L 130.150353 207.432456 
L 133.463154 205.556973 
L 136.775955 203.767228 
L 140.088757 202.057518 
L 143.401558 200.421904 
L 146.71436 198.858229 
L 150.027161 197.363591 
L 153.339963 195.935051 
L 156.652764 194.573853 
L 159.965566 193.283904 
L 163.278367 192.074054 
L 166.591169 190.950358 
L 169.90397 189.918529 
L 173.216772 188.981024 
L 176.529573 188.133199 
L 179.842375 187.365502 
L 183.155176 186.668934 
L 186.467978 186.038134 
L 189.780779 185.470656 
L 193.093581 184.957171 
L 196.406382 184.490735 
L 199.719184 184.069132 
L 203.031985 183.686011 
L 206.344787 183.338412 
L 209.657588 183.025317 
L 212.97039 182.746103 
L 216.283191 182.498086 
L 219.595993 182.280188 
L 222.908794 182.091187 
L 226.221596 181.927578 
L 229.534397 181.785897 
L 232.847199 181.662381 
L 236.16 181.552166 
L 239.472801 181.449792 
L 242.785603 181.349739 
L 246.098404 181.251437 
L 249.411206 181.15744 
L 252.724007 181.068416 
L 256.036809 180.982978 
L 259.34961 180.897961 
L 262.662412 180.809631 
L 265.975213 180.714447 
L 269.288015 180.609716 
L 272.600816 180.494575 
L 275.913618 180.37054 
L 279.226419 180.238934 
L 282.539221 180.100718 
L 285.852022 179.957226 
L 289.164824 179.810092 
L 292.477625 179.661153 
L 295.790427 179.512362 
L 299.103228 179.365651 
L 302.41603 179.222683 
L 305.728831 179.084678 
L 309.041633 178.952282 
L 312.354434 178.82585 
L 315.667236 178.704994 
L 318.980037 178.590354 
L 322.292839 178.483146 
L 325.60564 178.383865 
L 328.918442 178.293332 
L 332.231243 178.21304 
L 335.544045 178.14261 
L 338.856846 178.080146 
L 342.169647 178.025709 
L 345.482449 177.981139 
L 348.79525 177.947902 
L 352.108052 177.929371 
L 355.420853 177.929614 
L 358.733655 177.951317 
L 362.046456 177.994348 
L 365.359258 178.058236 
L 368.672059 178.143476 
L 371.984861 178.249298 
L 375.297662 178.371919 
L 378.610464 178.50499 
L 381.923265 178.642775 
L 385.236067 178.779827 
L 388.548868 178.909592 
L 391.86167 179.02456 
L 395.174471 179.119767 
L 398.487273 179.192188 
L 398.487273 154.135071 
L 398.487273 154.135071 
L 395.174471 154.03652 
L 391.86167 153.891532 
L 388.548868 153.703472 
L 385.236067 153.479674 
L 381.923265 153.231329 
L 378.610464 152.971189 
L 375.297662 152.711438 
L 371.984861 152.463492 
L 368.672059 152.236841 
L 365.359258 152.038539 
L 362.046456 151.874039 
L 358.733655 151.745316 
L 355.420853 151.652598 
L 352.108052 151.59518 
L 348.79525 151.570416 
L 345.482449 151.575698 
L 342.169647 151.609228 
L 338.856846 151.669496 
L 335.544045 151.75461 
L 332.231243 151.862678 
L 328.918442 151.992641 
L 325.60564 152.144256 
L 322.292839 152.317607 
L 318.980037 152.512638 
L 315.667236 152.729362 
L 312.354434 152.968044 
L 309.041633 153.229226 
L 305.728831 153.513748 
L 302.41603 153.822578 
L 299.103228 154.156726 
L 295.790427 154.517199 
L 292.477625 154.904959 
L 289.164824 155.321003 
L 285.852022 155.766191 
L 282.539221 156.241137 
L 279.226419 156.746472 
L 275.913618 157.282725 
L 272.600816 157.850244 
L 269.288015 158.449124 
L 265.975213 159.078973 
L 262.662412 159.738867 
L 259.34961 160.427398 
L 256.036809 161.142697 
L 252.724007 161.882487 
L 249.411206 162.644227 
L 246.098404 163.425377 
L 242.785603 164.223393 
L 239.472801 165.03561 
L 236.16 165.859352 
L 232.847199 166.692251 
L 229.534397 167.532293 
L 226.221596 168.377934 
L 222.908794 169.228266 
L 219.595993 170.082912 
L 216.283191 170.94201 
L 212.97039 171.806076 
L 209.657588 172.676207 
L 206.344787 173.554053 
L 203.031985 174.441953 
L 199.719184 175.342333 
L 196.406382 176.256769 
L 193.093581 177.186167 
L 189.780779 178.130397 
L 186.467978 179.090825 
L 183.155176 180.069637 
L 179.842375 181.068703 
L 176.529573 182.089125 
L 173.216772 183.128801 
L 169.90397 184.181349 
L 166.591169 185.236636 
L 163.278367 186.279828 
L 159.965566 187.297274 
L 156.652764 188.281282 
L 153.339963 189.226302 
L 150.027161 190.132344 
L 146.71436 190.999023 
L 143.401558 191.833214 
L 140.088757 192.646111 
L 136.775955 193.455062 
L 133.463154 194.277193 
L 130.150353 195.121818 
L 126.837551 195.994623 
L 123.52475 196.902647 
L 120.211948 197.865258 
L 116.899147 198.913364 
L 113.586345 200.083923 
L 110.273544 201.423296 
L 106.960742 202.990401 
L 103.647941 204.862821 
L 100.335139 207.145854 
L 97.022338 209.977513 
L 93.709536 213.510386 
L 90.396735 217.912509 
L 87.083933 223.38576 
L 83.771132 230.180206 
L 80.45833 238.646985 
L 77.145529 249.413585 
L 73.832727 264.018973 
z
" style="fill:#ff0000;fill-opacity:0.4;"/>
   </g>
   <g id="PolyCollection_2">
    <path clip-path="url(#p0f2e7f5892)" d="M 73.832727 236.802102 
L 73.832727 259.256283 
L 77.145529 244.258462 
L 80.45833 233.284017 
L 83.771132 224.804494 
L 87.083933 218.137191 
L 90.396735 212.899482 
L 93.709536 208.821199 
L 97.022338 205.680907 
L 100.335139 203.290981 
L 103.647941 201.489246 
L 106.960742 200.134385 
L 110.273544 199.103493 
L 113.586345 198.287767 
L 116.899147 197.588864 
L 120.211948 196.91909 
L 123.52475 196.209029 
L 126.837551 195.410536 
L 130.150353 194.497905 
L 133.463154 193.466986 
L 136.775955 192.330942 
L 140.088757 191.110616 
L 143.401558 189.826715 
L 146.71436 188.500174 
L 150.027161 187.151112 
L 153.339963 185.792616 
L 156.652764 184.43221 
L 159.965566 183.075924 
L 163.278367 181.730846 
L 166.591169 180.403668 
L 169.90397 179.098428 
L 173.216772 177.818078 
L 176.529573 176.564723 
L 179.842375 175.339959 
L 183.155176 174.14484 
L 186.467978 172.980719 
L 189.780779 171.848385 
L 193.093581 170.747886 
L 196.406382 169.678779 
L 199.719184 168.640433 
L 203.031985 167.632018 
L 206.344787 166.652533 
L 209.657588 165.700587 
L 212.97039 164.774634 
L 216.283191 163.873272 
L 219.595993 162.99529 
L 222.908794 162.139929 
L 226.221596 161.306841 
L 229.534397 160.496005 
L 232.847199 159.707828 
L 236.16 158.943079 
L 239.472801 158.202694 
L 242.785603 157.488273 
L 246.098404 156.802046 
L 249.411206 156.146796 
L 252.724007 155.525624 
L 256.036809 154.941277 
L 259.34961 154.396246 
L 262.662412 153.892783 
L 265.975213 153.43292 
L 269.288015 153.018436 
L 272.600816 152.650801 
L 275.913618 152.331233 
L 279.226419 152.060791 
L 282.539221 151.840174 
L 285.852022 151.669632 
L 289.164824 151.548864 
L 292.477625 151.476992 
L 295.790427 151.452534 
L 299.103228 151.473253 
L 302.41603 151.535974 
L 305.728831 151.636652 
L 309.041633 151.770443 
L 312.354434 151.931629 
L 315.667236 152.114139 
L 318.980037 152.311796 
L 322.292839 152.518527 
L 325.60564 152.728712 
L 328.918442 152.937408 
L 332.231243 153.140195 
L 335.544045 153.332136 
L 338.856846 153.507706 
L 342.169647 153.660919 
L 345.482449 153.78602 
L 348.79525 153.879115 
L 352.108052 153.938992 
L 355.420853 153.966187 
L 358.733655 153.962332 
L 362.046456 153.929798 
L 365.359258 153.871302 
L 368.672059 153.789202 
L 371.984861 153.684889 
L 375.297662 153.559256 
L 378.610464 153.413109 
L 381.923265 153.247182 
L 385.236067 153.062272 
L 388.548868 152.859164 
L 391.86167 152.638818 
L 395.174471 152.402299 
L 398.487273 152.150516 
L 398.487273 149.736468 
L 398.487273 149.736468 
L 395.174471 149.976156 
L 391.86167 150.20301 
L 388.548868 150.416653 
L 385.236067 150.616345 
L 381.923265 150.801198 
L 378.610464 150.97015 
L 375.297662 151.121704 
L 371.984861 151.253987 
L 368.672059 151.364663 
L 365.359258 151.451098 
L 362.046456 151.510354 
L 358.733655 151.538777 
L 355.420853 151.532308 
L 352.108052 151.486954 
L 348.79525 151.399412 
L 345.482449 151.267767 
L 342.169647 151.092324 
L 338.856846 150.876799 
L 335.544045 150.627829 
L 332.231243 150.353339 
L 328.918442 150.061908 
L 325.60564 149.762427 
L 322.292839 149.463319 
L 318.980037 149.172365 
L 315.667236 148.896214 
L 312.354434 148.640319 
L 309.041633 148.409014 
L 305.728831 148.206059 
L 302.41603 148.034713 
L 299.103228 147.897868 
L 295.790427 147.798141 
L 292.477625 147.738035 
L 289.164824 147.719981 
L 285.852022 147.746281 
L 282.539221 147.819002 
L 279.226419 147.939776 
L 275.913618 148.109494 
L 272.600816 148.328215 
L 269.288015 148.595209 
L 265.975213 148.909025 
L 262.662412 149.267451 
L 259.34961 149.667485 
L 256.036809 150.105592 
L 252.724007 150.5778 
L 249.411206 151.079847 
L 246.098404 151.607257 
L 242.785603 152.155409 
L 239.472801 152.719762 
L 236.16 153.29603 
L 232.847199 153.880305 
L 229.534397 154.468972 
L 226.221596 155.058491 
L 222.908794 155.645632 
L 219.595993 156.227278 
L 216.283191 156.800579 
L 212.97039 157.36321 
L 209.657588 157.913435 
L 206.344787 158.449807 
L 203.031985 158.971585 
L 199.719184 159.479045 
L 196.406382 159.973363 
L 193.093581 160.456018 
L 189.780779 160.929187 
L 186.467978 161.3949 
L 183.155176 161.853623 
L 179.842375 162.304709 
L 176.529573 162.746746 
L 173.216772 163.177219 
L 169.90397 163.592432 
L 166.591169 163.988609 
L 163.278367 164.364565 
L 159.965566 164.720345 
L 156.652764 165.056951 
L 153.339963 165.37682 
L 150.027161 165.683966 
L 146.71436 165.984259 
L 143.401558 166.285731 
L 140.088757 166.596555 
L 136.775955 166.925879 
L 133.463154 167.286114 
L 130.150353 167.691558 
L 126.837551 168.15644 
L 123.52475 168.699758 
L 120.211948 169.347641 
L 116.899147 170.135016 
L 113.586345 171.105274 
L 110.273544 172.307704 
L 106.960742 173.799971 
L 103.647941 175.651894 
L 100.335139 177.950878 
L 97.022338 180.808807 
L 93.709536 184.369604 
L 90.396735 188.815597 
L 87.083933 194.374689 
L 83.771132 201.338506 
L 80.45833 210.117661 
L 77.145529 221.413003 
L 73.832727 236.802102 
z
" style="fill:#0000ff;fill-opacity:0.4;"/>
   </g>
   <g id="PolyCollection_3">
    <path clip-path="url(#p0f2e7f5892)" d="M 73.832727 140.503225 
L 73.832727 143.83895 
L 77.145529 129.668586 
L 80.45833 119.343235 
L 83.771132 111.237843 
L 87.083933 104.626539 
L 90.396735 99.114247 
L 93.709536 94.452859 
L 97.022338 90.469343 
L 100.335139 87.034735 
L 103.647941 84.049427 
L 106.960742 81.435086 
L 110.273544 79.129498 
L 113.586345 77.08289 
L 116.899147 75.255176 
L 120.211948 73.613856 
L 123.52475 72.132393 
L 126.837551 70.788967 
L 130.150353 69.565512 
L 133.463154 68.446967 
L 136.775955 67.420695 
L 140.088757 66.476025 
L 143.401558 65.603892 
L 146.71436 64.796554 
L 150.027161 64.047363 
L 153.339963 63.350583 
L 156.652764 62.70124 
L 159.965566 62.095005 
L 163.278367 61.528097 
L 166.591169 60.997195 
L 169.90397 60.499383 
L 173.216772 60.032084 
L 176.529573 59.593022 
L 179.842375 59.180179 
L 183.155176 58.791767 
L 186.467978 58.426201 
L 189.780779 58.082075 
L 193.093581 57.758146 
L 196.406382 57.453318 
L 199.719184 57.166633 
L 203.031985 56.897257 
L 206.344787 56.644476 
L 209.657588 56.407688 
L 212.97039 56.186399 
L 216.283191 55.980219 
L 219.595993 55.788858 
L 222.908794 55.612117 
L 226.221596 55.449885 
L 229.534397 55.302126 
L 232.847199 55.168857 
L 236.16 55.050132 
L 239.472801 54.946002 
L 242.785603 54.856479 
L 246.098404 54.781487 
L 249.411206 54.720811 
L 252.724007 54.674053 
L 256.036809 54.640596 
L 259.34961 54.619581 
L 262.662412 54.609921 
L 265.975213 54.610322 
L 269.288015 54.619338 
L 272.600816 54.635436 
L 275.913618 54.657062 
L 279.226419 54.682708 
L 282.539221 54.710968 
L 285.852022 54.740581 
L 289.164824 54.77045 
L 292.477625 54.799663 
L 295.790427 54.827483 
L 299.103228 54.853345 
L 302.41603 54.876842 
L 305.728831 54.897702 
L 309.041633 54.915776 
L 312.354434 54.931017 
L 315.667236 54.943459 
L 318.980037 54.953209 
L 322.292839 54.960429 
L 325.60564 54.965325 
L 328.918442 54.968137 
L 332.231243 54.969131 
L 335.544045 54.968591 
L 338.856846 54.966816 
L 342.169647 54.964111 
L 345.482449 54.960784 
L 348.79525 54.957142 
L 352.108052 54.953489 
L 355.420853 54.950122 
L 358.733655 54.947328 
L 362.046456 54.945382 
L 365.359258 54.944546 
L 368.672059 54.945064 
L 371.984861 54.947164 
L 375.297662 54.951053 
L 378.610464 54.956916 
L 381.923265 54.964913 
L 385.236067 54.975177 
L 388.548868 54.987811 
L 391.86167 55.002881 
L 395.174471 55.020414 
L 398.487273 55.040387 
L 398.487273 54.113324 
L 398.487273 54.113324 
L 395.174471 54.095533 
L 391.86167 54.080253 
L 388.548868 54.067477 
L 385.236067 54.057153 
L 381.923265 54.04919 
L 378.610464 54.043467 
L 375.297662 54.03983 
L 371.984861 54.0381 
L 368.672059 54.038073 
L 365.359258 54.039519 
L 362.046456 54.042192 
L 358.733655 54.045822 
L 355.420853 54.050123 
L 352.108052 54.054793 
L 348.79525 54.059516 
L 345.482449 54.063964 
L 342.169647 54.0678 
L 338.856846 54.07068 
L 335.544045 54.072257 
L 332.231243 54.072185 
L 328.918442 54.070123 
L 325.60564 54.06574 
L 322.292839 54.05872 
L 318.980037 54.048772 
L 315.667236 54.035638 
L 312.354434 54.019105 
L 309.041633 53.999017 
L 305.728831 53.975297 
L 302.41603 53.947962 
L 299.103228 53.917148 
L 295.790427 53.883135 
L 292.477625 53.846375 
L 289.164824 53.807515 
L 285.852022 53.767417 
L 282.539221 53.727174 
L 279.226419 53.688106 
L 275.913618 53.651738 
L 272.600816 53.619759 
L 269.288015 53.593957 
L 265.975213 53.576131 
L 262.662412 53.568 
L 259.34961 53.571105 
L 256.036809 53.586737 
L 252.724007 53.615881 
L 249.411206 53.659209 
L 246.098404 53.717095 
L 242.785603 53.789662 
L 239.472801 53.876846 
L 236.16 53.978467 
L 232.847199 54.094287 
L 229.534397 54.22407 
L 226.221596 54.367615 
L 222.908794 54.524792 
L 219.595993 54.695556 
L 216.283191 54.879959 
L 212.97039 55.078154 
L 209.657588 55.290401 
L 206.344787 55.517064 
L 203.031985 55.758613 
L 199.719184 56.015627 
L 196.406382 56.288797 
L 193.093581 56.578925 
L 189.780779 56.886937 
L 186.467978 57.213887 
L 183.155176 57.560972 
L 179.842375 57.929538 
L 176.529573 58.321106 
L 173.216772 58.737387 
L 169.90397 59.180309 
L 166.591169 59.652048 
L 163.278367 60.155061 
L 159.965566 60.692136 
L 156.652764 61.26644 
L 153.339963 61.881584 
L 150.027161 62.541703 
L 146.71436 63.25155 
L 143.401558 64.016613 
L 140.088757 64.843257 
L 136.775955 65.738906 
L 133.463154 66.712262 
L 130.150353 67.773591 
L 126.837551 68.935076 
L 123.52475 70.211274 
L 120.211948 71.619699 
L 116.899147 73.181588 
L 113.586345 74.922882 
L 110.273544 76.875535 
L 106.960742 79.07922 
L 103.647941 81.583606 
L 100.335139 84.451375 
L 97.022338 87.762301 
L 93.709536 91.618915 
L 90.396735 96.155027 
L 87.083933 101.550432 
L 83.771132 108.060894 
L 80.45833 116.087965 
L 77.145529 126.360675 
L 73.832727 140.503225 
z
" style="fill:#00ffff;fill-opacity:0.4;"/>
   </g>
   <g id="matplotlib.axis_1">
    <g id="xtick_1">
     <g id="line2d_1">
      <path clip-path="url(#p0f2e7f5892)" d="M 70.519926 307.584 
L 70.519926 41.472 
" style="fill:none;stroke:#b0b0b0;stroke-linecap:square;stroke-width:0.8;"/>
     </g>
     <g id="line2d_2">
      <defs>
       <path d="M 0 0 
L 0 3.5 
" id="m11739bb3d0" style="stroke:#000000;stroke-width:0.8;"/>
      </defs>
      <g>
       <use style="stroke:#000000;stroke-width:0.8;" x="70.519926" xlink:href="#m11739bb3d0" y="307.584"/>
      </g>
     </g>
     <g id="text_1">
      <!-- 0.0 -->
      <defs>
       <path d="M 31.78125 66.40625 
Q 24.171875 66.40625 20.328125 58.90625 
Q 16.5 51.421875 16.5 36.375 
Q 16.5 21.390625 20.328125 13.890625 
Q 24.171875 6.390625 31.78125 6.390625 
Q 39.453125 6.390625 43.28125 13.890625 
Q 47.125 21.390625 47.125 36.375 
Q 47.125 51.421875 43.28125 58.90625 
Q 39.453125 66.40625 31.78125 66.40625 
z
M 31.78125 74.21875 
Q 44.046875 74.21875 50.515625 64.515625 
Q 56.984375 54.828125 56.984375 36.375 
Q 56.984375 17.96875 50.515625 8.265625 
Q 44.046875 -1.421875 31.78125 -1.421875 
Q 19.53125 -1.421875 13.0625 8.265625 
Q 6.59375 17.96875 6.59375 36.375 
Q 6.59375 54.828125 13.0625 64.515625 
Q 19.53125 74.21875 31.78125 74.21875 
z
" id="DejaVuSans-48"/>
       <path d="M 10.6875 12.40625 
L 21 12.40625 
L 21 0 
L 10.6875 0 
z
" id="DejaVuSans-46"/>
      </defs>
      <g transform="translate(62.568363 322.182437)scale(0.1 -0.1)">
       <use xlink:href="#DejaVuSans-48"/>
       <use x="63.623047" xlink:href="#DejaVuSans-46"/>
       <use x="95.410156" xlink:href="#DejaVuSans-48"/>
      </g>
     </g>
    </g>
    <g id="xtick_2">
     <g id="line2d_3">
      <path clip-path="url(#p0f2e7f5892)" d="M 136.775955 307.584 
L 136.775955 41.472 
" style="fill:none;stroke:#b0b0b0;stroke-linecap:square;stroke-width:0.8;"/>
     </g>
     <g id="line2d_4">
      <g>
       <use style="stroke:#000000;stroke-width:0.8;" x="136.775955" xlink:href="#m11739bb3d0" y="307.584"/>
      </g>
     </g>
     <g id="text_2">
      <!-- 0.2 -->
      <defs>
       <path d="M 19.1875 8.296875 
L 53.609375 8.296875 
L 53.609375 0 
L 7.328125 0 
L 7.328125 8.296875 
Q 12.9375 14.109375 22.625 23.890625 
Q 32.328125 33.6875 34.8125 36.53125 
Q 39.546875 41.84375 41.421875 45.53125 
Q 43.3125 49.21875 43.3125 52.78125 
Q 43.3125 58.59375 39.234375 62.25 
Q 35.15625 65.921875 28.609375 65.921875 
Q 23.96875 65.921875 18.8125 64.3125 
Q 13.671875 62.703125 7.8125 59.421875 
L 7.8125 69.390625 
Q 13.765625 71.78125 18.9375 73 
Q 24.125 74.21875 28.421875 74.21875 
Q 39.75 74.21875 46.484375 68.546875 
Q 53.21875 62.890625 53.21875 53.421875 
Q 53.21875 48.921875 51.53125 44.890625 
Q 49.859375 40.875 45.40625 35.40625 
Q 44.1875 33.984375 37.640625 27.21875 
Q 31.109375 20.453125 19.1875 8.296875 
z
" id="DejaVuSans-50"/>
      </defs>
      <g transform="translate(128.824393 322.182437)scale(0.1 -0.1)">
       <use xlink:href="#DejaVuSans-48"/>
       <use x="63.623047" xlink:href="#DejaVuSans-46"/>
       <use x="95.410156" xlink:href="#DejaVuSans-50"/>
      </g>
     </g>
    </g>
    <g id="xtick_3">
     <g id="line2d_5">
      <path clip-path="url(#p0f2e7f5892)" d="M 203.031985 307.584 
L 203.031985 41.472 
" style="fill:none;stroke:#b0b0b0;stroke-linecap:square;stroke-width:0.8;"/>
     </g>
     <g id="line2d_6">
      <g>
       <use style="stroke:#000000;stroke-width:0.8;" x="203.031985" xlink:href="#m11739bb3d0" y="307.584"/>
      </g>
     </g>
     <g id="text_3">
      <!-- 0.4 -->
      <defs>
       <path d="M 37.796875 64.3125 
L 12.890625 25.390625 
L 37.796875 25.390625 
z
M 35.203125 72.90625 
L 47.609375 72.90625 
L 47.609375 25.390625 
L 58.015625 25.390625 
L 58.015625 17.1875 
L 47.609375 17.1875 
L 47.609375 0 
L 37.796875 0 
L 37.796875 17.1875 
L 4.890625 17.1875 
L 4.890625 26.703125 
z
" id="DejaVuSans-52"/>
      </defs>
      <g transform="translate(195.080423 322.182437)scale(0.1 -0.1)">
       <use xlink:href="#DejaVuSans-48"/>
       <use x="63.623047" xlink:href="#DejaVuSans-46"/>
       <use x="95.410156" xlink:href="#DejaVuSans-52"/>
      </g>
     </g>
    </g>
    <g id="xtick_4">
     <g id="line2d_7">
      <path clip-path="url(#p0f2e7f5892)" d="M 269.288015 307.584 
L 269.288015 41.472 
" style="fill:none;stroke:#b0b0b0;stroke-linecap:square;stroke-width:0.8;"/>
     </g>
     <g id="line2d_8">
      <g>
       <use style="stroke:#000000;stroke-width:0.8;" x="269.288015" xlink:href="#m11739bb3d0" y="307.584"/>
      </g>
     </g>
     <g id="text_4">
      <!-- 0.6 -->
      <defs>
       <path d="M 33.015625 40.375 
Q 26.375 40.375 22.484375 35.828125 
Q 18.609375 31.296875 18.609375 23.390625 
Q 18.609375 15.53125 22.484375 10.953125 
Q 26.375 6.390625 33.015625 6.390625 
Q 39.65625 6.390625 43.53125 10.953125 
Q 47.40625 15.53125 47.40625 23.390625 
Q 47.40625 31.296875 43.53125 35.828125 
Q 39.65625 40.375 33.015625 40.375 
z
M 52.59375 71.296875 
L 52.59375 62.3125 
Q 48.875 64.0625 45.09375 64.984375 
Q 41.3125 65.921875 37.59375 65.921875 
Q 27.828125 65.921875 22.671875 59.328125 
Q 17.53125 52.734375 16.796875 39.40625 
Q 19.671875 43.65625 24.015625 45.921875 
Q 28.375 48.1875 33.59375 48.1875 
Q 44.578125 48.1875 50.953125 41.515625 
Q 57.328125 34.859375 57.328125 23.390625 
Q 57.328125 12.15625 50.6875 5.359375 
Q 44.046875 -1.421875 33.015625 -1.421875 
Q 20.359375 -1.421875 13.671875 8.265625 
Q 6.984375 17.96875 6.984375 36.375 
Q 6.984375 53.65625 15.1875 63.9375 
Q 23.390625 74.21875 37.203125 74.21875 
Q 40.921875 74.21875 44.703125 73.484375 
Q 48.484375 72.75 52.59375 71.296875 
z
" id="DejaVuSans-54"/>
      </defs>
      <g transform="translate(261.336452 322.182437)scale(0.1 -0.1)">
       <use xlink:href="#DejaVuSans-48"/>
       <use x="63.623047" xlink:href="#DejaVuSans-46"/>
       <use x="95.410156" xlink:href="#DejaVuSans-54"/>
      </g>
     </g>
    </g>
    <g id="xtick_5">
     <g id="line2d_9">
      <path clip-path="url(#p0f2e7f5892)" d="M 335.544045 307.584 
L 335.544045 41.472 
" style="fill:none;stroke:#b0b0b0;stroke-linecap:square;stroke-width:0.8;"/>
     </g>
     <g id="line2d_10">
      <g>
       <use style="stroke:#000000;stroke-width:0.8;" x="335.544045" xlink:href="#m11739bb3d0" y="307.584"/>
      </g>
     </g>
     <g id="text_5">
      <!-- 0.8 -->
      <defs>
       <path d="M 31.78125 34.625 
Q 24.75 34.625 20.71875 30.859375 
Q 16.703125 27.09375 16.703125 20.515625 
Q 16.703125 13.921875 20.71875 10.15625 
Q 24.75 6.390625 31.78125 6.390625 
Q 38.8125 6.390625 42.859375 10.171875 
Q 46.921875 13.96875 46.921875 20.515625 
Q 46.921875 27.09375 42.890625 30.859375 
Q 38.875 34.625 31.78125 34.625 
z
M 21.921875 38.8125 
Q 15.578125 40.375 12.03125 44.71875 
Q 8.5 49.078125 8.5 55.328125 
Q 8.5 64.0625 14.71875 69.140625 
Q 20.953125 74.21875 31.78125 74.21875 
Q 42.671875 74.21875 48.875 69.140625 
Q 55.078125 64.0625 55.078125 55.328125 
Q 55.078125 49.078125 51.53125 44.71875 
Q 48 40.375 41.703125 38.8125 
Q 48.828125 37.15625 52.796875 32.3125 
Q 56.78125 27.484375 56.78125 20.515625 
Q 56.78125 9.90625 50.3125 4.234375 
Q 43.84375 -1.421875 31.78125 -1.421875 
Q 19.734375 -1.421875 13.25 4.234375 
Q 6.78125 9.90625 6.78125 20.515625 
Q 6.78125 27.484375 10.78125 32.3125 
Q 14.796875 37.15625 21.921875 38.8125 
z
M 18.3125 54.390625 
Q 18.3125 48.734375 21.84375 45.5625 
Q 25.390625 42.390625 31.78125 42.390625 
Q 38.140625 42.390625 41.71875 45.5625 
Q 45.3125 48.734375 45.3125 54.390625 
Q 45.3125 60.0625 41.71875 63.234375 
Q 38.140625 66.40625 31.78125 66.40625 
Q 25.390625 66.40625 21.84375 63.234375 
Q 18.3125 60.0625 18.3125 54.390625 
z
" id="DejaVuSans-56"/>
      </defs>
      <g transform="translate(327.592482 322.182437)scale(0.1 -0.1)">
       <use xlink:href="#DejaVuSans-48"/>
       <use x="63.623047" xlink:href="#DejaVuSans-46"/>
       <use x="95.410156" xlink:href="#DejaVuSans-56"/>
      </g>
     </g>
    </g>
    <g id="xtick_6">
     <g id="line2d_11">
      <path clip-path="url(#p0f2e7f5892)" d="M 401.800074 307.584 
L 401.800074 41.472 
" style="fill:none;stroke:#b0b0b0;stroke-linecap:square;stroke-width:0.8;"/>
     </g>
     <g id="line2d_12">
      <g>
       <use style="stroke:#000000;stroke-width:0.8;" x="401.800074" xlink:href="#m11739bb3d0" y="307.584"/>
      </g>
     </g>
     <g id="text_6">
      <!-- 1.0 -->
      <defs>
       <path d="M 12.40625 8.296875 
L 28.515625 8.296875 
L 28.515625 63.921875 
L 10.984375 60.40625 
L 10.984375 69.390625 
L 28.421875 72.90625 
L 38.28125 72.90625 
L 38.28125 8.296875 
L 54.390625 8.296875 
L 54.390625 0 
L 12.40625 0 
z
" id="DejaVuSans-49"/>
      </defs>
      <g transform="translate(393.848512 322.182437)scale(0.1 -0.1)">
       <use xlink:href="#DejaVuSans-49"/>
       <use x="63.623047" xlink:href="#DejaVuSans-46"/>
       <use x="95.410156" xlink:href="#DejaVuSans-48"/>
      </g>
     </g>
    </g>
    <g id="text_7">
     <!-- $\mathrm{Time \ (seconds)}$ -->
     <defs>
      <path d="M -0.296875 72.90625 
L 61.375 72.90625 
L 61.375 64.59375 
L 35.5 64.59375 
L 35.5 0 
L 25.59375 0 
L 25.59375 64.59375 
L -0.296875 64.59375 
z
" id="DejaVuSans-84"/>
      <path d="M 9.421875 54.6875 
L 18.40625 54.6875 
L 18.40625 0 
L 9.421875 0 
z
M 9.421875 75.984375 
L 18.40625 75.984375 
L 18.40625 64.59375 
L 9.421875 64.59375 
z
" id="DejaVuSans-105"/>
      <path d="M 52 44.1875 
Q 55.375 50.25 60.0625 53.125 
Q 64.75 56 71.09375 56 
Q 79.640625 56 84.28125 50.015625 
Q 88.921875 44.046875 88.921875 33.015625 
L 88.921875 0 
L 79.890625 0 
L 79.890625 32.71875 
Q 79.890625 40.578125 77.09375 44.375 
Q 74.3125 48.1875 68.609375 48.1875 
Q 61.625 48.1875 57.5625 43.546875 
Q 53.515625 38.921875 53.515625 30.90625 
L 53.515625 0 
L 44.484375 0 
L 44.484375 32.71875 
Q 44.484375 40.625 41.703125 44.40625 
Q 38.921875 48.1875 33.109375 48.1875 
Q 26.21875 48.1875 22.15625 43.53125 
Q 18.109375 38.875 18.109375 30.90625 
L 18.109375 0 
L 9.078125 0 
L 9.078125 54.6875 
L 18.109375 54.6875 
L 18.109375 46.1875 
Q 21.1875 51.21875 25.484375 53.609375 
Q 29.78125 56 35.6875 56 
Q 41.65625 56 45.828125 52.96875 
Q 50 49.953125 52 44.1875 
z
" id="DejaVuSans-109"/>
      <path d="M 56.203125 29.59375 
L 56.203125 25.203125 
L 14.890625 25.203125 
Q 15.484375 15.921875 20.484375 11.0625 
Q 25.484375 6.203125 34.421875 6.203125 
Q 39.59375 6.203125 44.453125 7.46875 
Q 49.3125 8.734375 54.109375 11.28125 
L 54.109375 2.78125 
Q 49.265625 0.734375 44.1875 -0.34375 
Q 39.109375 -1.421875 33.890625 -1.421875 
Q 20.796875 -1.421875 13.15625 6.1875 
Q 5.515625 13.8125 5.515625 26.8125 
Q 5.515625 40.234375 12.765625 48.109375 
Q 20.015625 56 32.328125 56 
Q 43.359375 56 49.78125 48.890625 
Q 56.203125 41.796875 56.203125 29.59375 
z
M 47.21875 32.234375 
Q 47.125 39.59375 43.09375 43.984375 
Q 39.0625 48.390625 32.421875 48.390625 
Q 24.90625 48.390625 20.390625 44.140625 
Q 15.875 39.890625 15.1875 32.171875 
z
" id="DejaVuSans-101"/>
      <path d="M 31 75.875 
Q 24.46875 64.65625 21.28125 53.65625 
Q 18.109375 42.671875 18.109375 31.390625 
Q 18.109375 20.125 21.3125 9.0625 
Q 24.515625 -2 31 -13.1875 
L 23.1875 -13.1875 
Q 15.875 -1.703125 12.234375 9.375 
Q 8.59375 20.453125 8.59375 31.390625 
Q 8.59375 42.28125 12.203125 53.3125 
Q 15.828125 64.359375 23.1875 75.875 
z
" id="DejaVuSans-40"/>
      <path d="M 44.28125 53.078125 
L 44.28125 44.578125 
Q 40.484375 46.53125 36.375 47.5 
Q 32.28125 48.484375 27.875 48.484375 
Q 21.1875 48.484375 17.84375 46.4375 
Q 14.5 44.390625 14.5 40.28125 
Q 14.5 37.15625 16.890625 35.375 
Q 19.28125 33.59375 26.515625 31.984375 
L 29.59375 31.296875 
Q 39.15625 29.25 43.1875 25.515625 
Q 47.21875 21.78125 47.21875 15.09375 
Q 47.21875 7.46875 41.1875 3.015625 
Q 35.15625 -1.421875 24.609375 -1.421875 
Q 20.21875 -1.421875 15.453125 -0.5625 
Q 10.6875 0.296875 5.421875 2 
L 5.421875 11.28125 
Q 10.40625 8.6875 15.234375 7.390625 
Q 20.0625 6.109375 24.8125 6.109375 
Q 31.15625 6.109375 34.5625 8.28125 
Q 37.984375 10.453125 37.984375 14.40625 
Q 37.984375 18.0625 35.515625 20.015625 
Q 33.0625 21.96875 24.703125 23.78125 
L 21.578125 24.515625 
Q 13.234375 26.265625 9.515625 29.90625 
Q 5.8125 33.546875 5.8125 39.890625 
Q 5.8125 47.609375 11.28125 51.796875 
Q 16.75 56 26.8125 56 
Q 31.78125 56 36.171875 55.265625 
Q 40.578125 54.546875 44.28125 53.078125 
z
" id="DejaVuSans-115"/>
      <path d="M 48.78125 52.59375 
L 48.78125 44.1875 
Q 44.96875 46.296875 41.140625 47.34375 
Q 37.3125 48.390625 33.40625 48.390625 
Q 24.65625 48.390625 19.8125 42.84375 
Q 14.984375 37.3125 14.984375 27.296875 
Q 14.984375 17.28125 19.8125 11.734375 
Q 24.65625 6.203125 33.40625 6.203125 
Q 37.3125 6.203125 41.140625 7.25 
Q 44.96875 8.296875 48.78125 10.40625 
L 48.78125 2.09375 
Q 45.015625 0.34375 40.984375 -0.53125 
Q 36.96875 -1.421875 32.421875 -1.421875 
Q 20.0625 -1.421875 12.78125 6.34375 
Q 5.515625 14.109375 5.515625 27.296875 
Q 5.515625 40.671875 12.859375 48.328125 
Q 20.21875 56 33.015625 56 
Q 37.15625 56 41.109375 55.140625 
Q 45.0625 54.296875 48.78125 52.59375 
z
" id="DejaVuSans-99"/>
      <path d="M 30.609375 48.390625 
Q 23.390625 48.390625 19.1875 42.75 
Q 14.984375 37.109375 14.984375 27.296875 
Q 14.984375 17.484375 19.15625 11.84375 
Q 23.34375 6.203125 30.609375 6.203125 
Q 37.796875 6.203125 41.984375 11.859375 
Q 46.1875 17.53125 46.1875 27.296875 
Q 46.1875 37.015625 41.984375 42.703125 
Q 37.796875 48.390625 30.609375 48.390625 
z
M 30.609375 56 
Q 42.328125 56 49.015625 48.375 
Q 55.71875 40.765625 55.71875 27.296875 
Q 55.71875 13.875 49.015625 6.21875 
Q 42.328125 -1.421875 30.609375 -1.421875 
Q 18.84375 -1.421875 12.171875 6.21875 
Q 5.515625 13.875 5.515625 27.296875 
Q 5.515625 40.765625 12.171875 48.375 
Q 18.84375 56 30.609375 56 
z
" id="DejaVuSans-111"/>
      <path d="M 54.890625 33.015625 
L 54.890625 0 
L 45.90625 0 
L 45.90625 32.71875 
Q 45.90625 40.484375 42.875 44.328125 
Q 39.84375 48.1875 33.796875 48.1875 
Q 26.515625 48.1875 22.3125 43.546875 
Q 18.109375 38.921875 18.109375 30.90625 
L 18.109375 0 
L 9.078125 0 
L 9.078125 54.6875 
L 18.109375 54.6875 
L 18.109375 46.1875 
Q 21.34375 51.125 25.703125 53.5625 
Q 30.078125 56 35.796875 56 
Q 45.21875 56 50.046875 50.171875 
Q 54.890625 44.34375 54.890625 33.015625 
z
" id="DejaVuSans-110"/>
      <path d="M 45.40625 46.390625 
L 45.40625 75.984375 
L 54.390625 75.984375 
L 54.390625 0 
L 45.40625 0 
L 45.40625 8.203125 
Q 42.578125 3.328125 38.25 0.953125 
Q 33.9375 -1.421875 27.875 -1.421875 
Q 17.96875 -1.421875 11.734375 6.484375 
Q 5.515625 14.40625 5.515625 27.296875 
Q 5.515625 40.1875 11.734375 48.09375 
Q 17.96875 56 27.875 56 
Q 33.9375 56 38.25 53.625 
Q 42.578125 51.265625 45.40625 46.390625 
z
M 14.796875 27.296875 
Q 14.796875 17.390625 18.875 11.75 
Q 22.953125 6.109375 30.078125 6.109375 
Q 37.203125 6.109375 41.296875 11.75 
Q 45.40625 17.390625 45.40625 27.296875 
Q 45.40625 37.203125 41.296875 42.84375 
Q 37.203125 48.484375 30.078125 48.484375 
Q 22.953125 48.484375 18.875 42.84375 
Q 14.796875 37.203125 14.796875 27.296875 
z
" id="DejaVuSans-100"/>
      <path d="M 8.015625 75.875 
L 15.828125 75.875 
Q 23.140625 64.359375 26.78125 53.3125 
Q 30.421875 42.28125 30.421875 31.390625 
Q 30.421875 20.453125 26.78125 9.375 
Q 23.140625 -1.703125 15.828125 -13.1875 
L 8.015625 -13.1875 
Q 14.5 -2 17.703125 9.0625 
Q 20.90625 20.125 20.90625 31.390625 
Q 20.90625 42.671875 17.703125 53.65625 
Q 14.5 64.65625 8.015625 75.875 
z
" id="DejaVuSans-41"/>
     </defs>
     <g transform="translate(197.76 335.860562)scale(0.1 -0.1)">
      <use transform="translate(0 0.015625)" xlink:href="#DejaVuSans-84"/>
      <use transform="translate(61.083984 0.015625)" xlink:href="#DejaVuSans-105"/>
      <use transform="translate(88.867188 0.015625)" xlink:href="#DejaVuSans-109"/>
      <use transform="translate(186.279297 0.015625)" xlink:href="#DejaVuSans-101"/>
      <use transform="translate(280.273113 0.015625)" xlink:href="#DejaVuSans-40"/>
      <use transform="translate(319.286785 0.015625)" xlink:href="#DejaVuSans-115"/>
      <use transform="translate(371.386394 0.015625)" xlink:href="#DejaVuSans-101"/>
      <use transform="translate(432.909832 0.015625)" xlink:href="#DejaVuSans-99"/>
      <use transform="translate(487.8903 0.015625)" xlink:href="#DejaVuSans-111"/>
      <use transform="translate(549.071941 0.015625)" xlink:href="#DejaVuSans-110"/>
      <use transform="translate(612.450847 0.015625)" xlink:href="#DejaVuSans-100"/>
      <use transform="translate(675.92741 0.015625)" xlink:href="#DejaVuSans-115"/>
      <use transform="translate(728.027019 0.015625)" xlink:href="#DejaVuSans-41"/>
     </g>
    </g>
   </g>
   <g id="matplotlib.axis_2">
    <g id="ytick_1">
     <g id="line2d_13">
      <path clip-path="url(#p0f2e7f5892)" d="M 57.6 220.013596 
L 414.72 220.013596 
" style="fill:none;stroke:#b0b0b0;stroke-linecap:square;stroke-width:0.8;"/>
     </g>
     <g id="line2d_14">
      <defs>
       <path d="M 0 0 
L -3.5 0 
" id="ma2267a6084" style="stroke:#000000;stroke-width:0.8;"/>
      </defs>
      <g>
       <use style="stroke:#000000;stroke-width:0.8;" x="57.6" xlink:href="#ma2267a6084" y="220.013596"/>
      </g>
     </g>
     <g id="text_8">
      <!-- $\mathdefault{10^{-2}}$ -->
      <defs>
       <path d="M 10.59375 35.5 
L 73.1875 35.5 
L 73.1875 27.203125 
L 10.59375 27.203125 
z
" id="DejaVuSans-8722"/>
      </defs>
      <g transform="translate(27.1 223.812815)scale(0.1 -0.1)">
       <use transform="translate(0 0.765625)" xlink:href="#DejaVuSans-49"/>
       <use transform="translate(63.623047 0.765625)" xlink:href="#DejaVuSans-48"/>
       <use transform="translate(128.203125 39.046875)scale(0.7)" xlink:href="#DejaVuSans-8722"/>
       <use transform="translate(186.855469 39.046875)scale(0.7)" xlink:href="#DejaVuSans-50"/>
      </g>
     </g>
    </g>
    <g id="ytick_2">
     <g id="line2d_15">
      <path clip-path="url(#p0f2e7f5892)" d="M 57.6 130.559814 
L 414.72 130.559814 
" style="fill:none;stroke:#b0b0b0;stroke-linecap:square;stroke-width:0.8;"/>
     </g>
     <g id="line2d_16">
      <g>
       <use style="stroke:#000000;stroke-width:0.8;" x="57.6" xlink:href="#ma2267a6084" y="130.559814"/>
      </g>
     </g>
     <g id="text_9">
      <!-- $\mathdefault{10^{-1}}$ -->
      <g transform="translate(27.1 134.359033)scale(0.1 -0.1)">
       <use transform="translate(0 0.684375)" xlink:href="#DejaVuSans-49"/>
       <use transform="translate(63.623047 0.684375)" xlink:href="#DejaVuSans-48"/>
       <use transform="translate(128.203125 38.965625)scale(0.7)" xlink:href="#DejaVuSans-8722"/>
       <use transform="translate(186.855469 38.965625)scale(0.7)" xlink:href="#DejaVuSans-49"/>
      </g>
     </g>
    </g>
    <g id="ytick_3">
     <g id="line2d_17">
      <defs>
       <path d="M 0 0 
L -2 0 
" id="mb828b2dd31" style="stroke:#000000;stroke-width:0.6;"/>
      </defs>
      <g>
       <use style="stroke:#000000;stroke-width:0.6;" x="57.6" xlink:href="#mb828b2dd31" y="282.539106"/>
      </g>
     </g>
    </g>
    <g id="ytick_4">
     <g id="line2d_18">
      <g>
       <use style="stroke:#000000;stroke-width:0.6;" x="57.6" xlink:href="#mb828b2dd31" y="266.787077"/>
      </g>
     </g>
    </g>
    <g id="ytick_5">
     <g id="line2d_19">
      <g>
       <use style="stroke:#000000;stroke-width:0.6;" x="57.6" xlink:href="#mb828b2dd31" y="255.610834"/>
      </g>
     </g>
    </g>
    <g id="ytick_6">
     <g id="line2d_20">
      <g>
       <use style="stroke:#000000;stroke-width:0.6;" x="57.6" xlink:href="#mb828b2dd31" y="246.941867"/>
      </g>
     </g>
    </g>
    <g id="ytick_7">
     <g id="line2d_21">
      <g>
       <use style="stroke:#000000;stroke-width:0.6;" x="57.6" xlink:href="#mb828b2dd31" y="239.858805"/>
      </g>
     </g>
    </g>
    <g id="ytick_8">
     <g id="line2d_22">
      <g>
       <use style="stroke:#000000;stroke-width:0.6;" x="57.6" xlink:href="#mb828b2dd31" y="233.870162"/>
      </g>
     </g>
    </g>
    <g id="ytick_9">
     <g id="line2d_23">
      <g>
       <use style="stroke:#000000;stroke-width:0.6;" x="57.6" xlink:href="#mb828b2dd31" y="228.682563"/>
      </g>
     </g>
    </g>
    <g id="ytick_10">
     <g id="line2d_24">
      <g>
       <use style="stroke:#000000;stroke-width:0.6;" x="57.6" xlink:href="#mb828b2dd31" y="224.106776"/>
      </g>
     </g>
    </g>
    <g id="ytick_11">
     <g id="line2d_25">
      <g>
       <use style="stroke:#000000;stroke-width:0.6;" x="57.6" xlink:href="#mb828b2dd31" y="193.085324"/>
      </g>
     </g>
    </g>
    <g id="ytick_12">
     <g id="line2d_26">
      <g>
       <use style="stroke:#000000;stroke-width:0.6;" x="57.6" xlink:href="#mb828b2dd31" y="177.333295"/>
      </g>
     </g>
    </g>
    <g id="ytick_13">
     <g id="line2d_27">
      <g>
       <use style="stroke:#000000;stroke-width:0.6;" x="57.6" xlink:href="#mb828b2dd31" y="166.157053"/>
      </g>
     </g>
    </g>
    <g id="ytick_14">
     <g id="line2d_28">
      <g>
       <use style="stroke:#000000;stroke-width:0.6;" x="57.6" xlink:href="#mb828b2dd31" y="157.488086"/>
      </g>
     </g>
    </g>
    <g id="ytick_15">
     <g id="line2d_29">
      <g>
       <use style="stroke:#000000;stroke-width:0.6;" x="57.6" xlink:href="#mb828b2dd31" y="150.405024"/>
      </g>
     </g>
    </g>
    <g id="ytick_16">
     <g id="line2d_30">
      <g>
       <use style="stroke:#000000;stroke-width:0.6;" x="57.6" xlink:href="#mb828b2dd31" y="144.41638"/>
      </g>
     </g>
    </g>
    <g id="ytick_17">
     <g id="line2d_31">
      <g>
       <use style="stroke:#000000;stroke-width:0.6;" x="57.6" xlink:href="#mb828b2dd31" y="139.228781"/>
      </g>
     </g>
    </g>
    <g id="ytick_18">
     <g id="line2d_32">
      <g>
       <use style="stroke:#000000;stroke-width:0.6;" x="57.6" xlink:href="#mb828b2dd31" y="134.652995"/>
      </g>
     </g>
    </g>
    <g id="ytick_19">
     <g id="line2d_33">
      <g>
       <use style="stroke:#000000;stroke-width:0.6;" x="57.6" xlink:href="#mb828b2dd31" y="103.631543"/>
      </g>
     </g>
    </g>
    <g id="ytick_20">
     <g id="line2d_34">
      <g>
       <use style="stroke:#000000;stroke-width:0.6;" x="57.6" xlink:href="#mb828b2dd31" y="87.879514"/>
      </g>
     </g>
    </g>
    <g id="ytick_21">
     <g id="line2d_35">
      <g>
       <use style="stroke:#000000;stroke-width:0.6;" x="57.6" xlink:href="#mb828b2dd31" y="76.703271"/>
      </g>
     </g>
    </g>
    <g id="ytick_22">
     <g id="line2d_36">
      <g>
       <use style="stroke:#000000;stroke-width:0.6;" x="57.6" xlink:href="#mb828b2dd31" y="68.034304"/>
      </g>
     </g>
    </g>
    <g id="ytick_23">
     <g id="line2d_37">
      <g>
       <use style="stroke:#000000;stroke-width:0.6;" x="57.6" xlink:href="#mb828b2dd31" y="60.951242"/>
      </g>
     </g>
    </g>
    <g id="ytick_24">
     <g id="line2d_38">
      <g>
       <use style="stroke:#000000;stroke-width:0.6;" x="57.6" xlink:href="#mb828b2dd31" y="54.962599"/>
      </g>
     </g>
    </g>
    <g id="ytick_25">
     <g id="line2d_39">
      <g>
       <use style="stroke:#000000;stroke-width:0.6;" x="57.6" xlink:href="#mb828b2dd31" y="49.775"/>
      </g>
     </g>
    </g>
    <g id="ytick_26">
     <g id="line2d_40">
      <g>
       <use style="stroke:#000000;stroke-width:0.6;" x="57.6" xlink:href="#mb828b2dd31" y="45.199213"/>
      </g>
     </g>
    </g>
    <g id="text_10">
     <!-- $\mathrm{Relative \ error}$ ($N_{\mathrm{train}}=100$) -->
     <defs>
      <path d="M 44.390625 34.1875 
Q 47.5625 33.109375 50.5625 29.59375 
Q 53.5625 26.078125 56.59375 19.921875 
L 66.609375 0 
L 56 0 
L 46.6875 18.703125 
Q 43.0625 26.03125 39.671875 28.421875 
Q 36.28125 30.8125 30.421875 30.8125 
L 19.671875 30.8125 
L 19.671875 0 
L 9.8125 0 
L 9.8125 72.90625 
L 32.078125 72.90625 
Q 44.578125 72.90625 50.734375 67.671875 
Q 56.890625 62.453125 56.890625 51.90625 
Q 56.890625 45.015625 53.6875 40.46875 
Q 50.484375 35.9375 44.390625 34.1875 
z
M 19.671875 64.796875 
L 19.671875 38.921875 
L 32.078125 38.921875 
Q 39.203125 38.921875 42.84375 42.21875 
Q 46.484375 45.515625 46.484375 51.90625 
Q 46.484375 58.296875 42.84375 61.546875 
Q 39.203125 64.796875 32.078125 64.796875 
z
" id="DejaVuSans-82"/>
      <path d="M 9.421875 75.984375 
L 18.40625 75.984375 
L 18.40625 0 
L 9.421875 0 
z
" id="DejaVuSans-108"/>
      <path d="M 34.28125 27.484375 
Q 23.390625 27.484375 19.1875 25 
Q 14.984375 22.515625 14.984375 16.5 
Q 14.984375 11.71875 18.140625 8.90625 
Q 21.296875 6.109375 26.703125 6.109375 
Q 34.1875 6.109375 38.703125 11.40625 
Q 43.21875 16.703125 43.21875 25.484375 
L 43.21875 27.484375 
z
M 52.203125 31.203125 
L 52.203125 0 
L 43.21875 0 
L 43.21875 8.296875 
Q 40.140625 3.328125 35.546875 0.953125 
Q 30.953125 -1.421875 24.3125 -1.421875 
Q 15.921875 -1.421875 10.953125 3.296875 
Q 6 8.015625 6 15.921875 
Q 6 25.140625 12.171875 29.828125 
Q 18.359375 34.515625 30.609375 34.515625 
L 43.21875 34.515625 
L 43.21875 35.40625 
Q 43.21875 41.609375 39.140625 45 
Q 35.0625 48.390625 27.6875 48.390625 
Q 23 48.390625 18.546875 47.265625 
Q 14.109375 46.140625 10.015625 43.890625 
L 10.015625 52.203125 
Q 14.9375 54.109375 19.578125 55.046875 
Q 24.21875 56 28.609375 56 
Q 40.484375 56 46.34375 49.84375 
Q 52.203125 43.703125 52.203125 31.203125 
z
" id="DejaVuSans-97"/>
      <path d="M 18.3125 70.21875 
L 18.3125 54.6875 
L 36.8125 54.6875 
L 36.8125 47.703125 
L 18.3125 47.703125 
L 18.3125 18.015625 
Q 18.3125 11.328125 20.140625 9.421875 
Q 21.96875 7.515625 27.59375 7.515625 
L 36.8125 7.515625 
L 36.8125 0 
L 27.59375 0 
Q 17.1875 0 13.234375 3.875 
Q 9.28125 7.765625 9.28125 18.015625 
L 9.28125 47.703125 
L 2.6875 47.703125 
L 2.6875 54.6875 
L 9.28125 54.6875 
L 9.28125 70.21875 
z
" id="DejaVuSans-116"/>
      <path d="M 2.984375 54.6875 
L 12.5 54.6875 
L 29.59375 8.796875 
L 46.6875 54.6875 
L 56.203125 54.6875 
L 35.6875 0 
L 23.484375 0 
z
" id="DejaVuSans-118"/>
      <path d="M 41.109375 46.296875 
Q 39.59375 47.171875 37.8125 47.578125 
Q 36.03125 48 33.890625 48 
Q 26.265625 48 22.1875 43.046875 
Q 18.109375 38.09375 18.109375 28.8125 
L 18.109375 0 
L 9.078125 0 
L 9.078125 54.6875 
L 18.109375 54.6875 
L 18.109375 46.1875 
Q 20.953125 51.171875 25.484375 53.578125 
Q 30.03125 56 36.53125 56 
Q 37.453125 56 38.578125 55.875 
Q 39.703125 55.765625 41.0625 55.515625 
z
" id="DejaVuSans-114"/>
      <path id="DejaVuSans-32"/>
      <path d="M 16.890625 72.90625 
L 30.171875 72.90625 
L 50.296875 10.40625 
L 62.5 72.90625 
L 72.125 72.90625 
L 57.90625 0 
L 44.578125 0 
L 24.515625 62.890625 
L 12.3125 0 
L 2.6875 0 
z
" id="DejaVuSans-Oblique-78"/>
      <path d="M 10.59375 45.40625 
L 73.1875 45.40625 
L 73.1875 37.203125 
L 10.59375 37.203125 
z
M 10.59375 25.484375 
L 73.1875 25.484375 
L 73.1875 17.1875 
L 10.59375 17.1875 
z
" id="DejaVuSans-61"/>
     </defs>
     <g transform="translate(21.020312 242.078)rotate(-90)scale(0.1 -0.1)">
      <use transform="translate(0 0.015625)" xlink:href="#DejaVuSans-82"/>
      <use transform="translate(69.482422 0.015625)" xlink:href="#DejaVuSans-101"/>
      <use transform="translate(131.005859 0.015625)" xlink:href="#DejaVuSans-108"/>
      <use transform="translate(158.789062 0.015625)" xlink:href="#DejaVuSans-97"/>
      <use transform="translate(220.068359 0.015625)" xlink:href="#DejaVuSans-116"/>
      <use transform="translate(259.277344 0.015625)" xlink:href="#DejaVuSans-105"/>
      <use transform="translate(287.060547 0.015625)" xlink:href="#DejaVuSans-118"/>
      <use transform="translate(346.240234 0.015625)" xlink:href="#DejaVuSans-101"/>
      <use transform="translate(440.23405 0.015625)" xlink:href="#DejaVuSans-101"/>
      <use transform="translate(501.757488 0.015625)" xlink:href="#DejaVuSans-114"/>
      <use transform="translate(542.870769 0.015625)" xlink:href="#DejaVuSans-114"/>
      <use transform="translate(583.98405 0.015625)" xlink:href="#DejaVuSans-111"/>
      <use transform="translate(645.165691 0.015625)" xlink:href="#DejaVuSans-114"/>
      <use transform="translate(686.278972 0.015625)" xlink:href="#DejaVuSans-32"/>
      <use transform="translate(718.066082 0.015625)" xlink:href="#DejaVuSans-40"/>
      <use transform="translate(757.079753 0.015625)" xlink:href="#DejaVuSans-Oblique-78"/>
      <use transform="translate(831.884441 -16.390625)scale(0.7)" xlink:href="#DejaVuSans-116"/>
      <use transform="translate(859.33073 -16.390625)scale(0.7)" xlink:href="#DejaVuSans-114"/>
      <use transform="translate(888.110027 -16.390625)scale(0.7)" xlink:href="#DejaVuSans-97"/>
      <use transform="translate(931.005535 -16.390625)scale(0.7)" xlink:href="#DejaVuSans-105"/>
      <use transform="translate(950.453777 -16.390625)scale(0.7)" xlink:href="#DejaVuSans-110"/>
      <use transform="translate(1017.035808 0.015625)" xlink:href="#DejaVuSans-61"/>
      <use transform="translate(1120.307292 0.015625)" xlink:href="#DejaVuSans-49"/>
      <use transform="translate(1183.930339 0.015625)" xlink:href="#DejaVuSans-48"/>
      <use transform="translate(1247.553386 0.015625)" xlink:href="#DejaVuSans-48"/>
      <use transform="translate(1311.176433 0.015625)" xlink:href="#DejaVuSans-41"/>
     </g>
    </g>
   </g>
   <g id="line2d_41">
    <path clip-path="url(#p0f2e7f5892)" d="M 73.832724 276.650627 
L 77.145522 261.752299 
L 80.458321 250.685444 
L 83.771119 241.919545 
L 87.083917 234.824737 
L 90.396716 229.032521 
L 93.709554 224.281027 
L 97.022352 220.365094 
L 100.33515 217.113073 
L 103.647949 214.376667 
L 106.960747 212.029093 
L 110.273545 209.974534 
L 113.586344 208.142954 
L 116.899142 206.480523 
L 120.21194 204.944179 
L 123.524738 203.49967 
L 126.837537 202.120349 
L 130.150375 200.791533 
L 136.775971 198.269991 
L 143.401568 195.890691 
L 153.339963 192.436039 
L 163.278358 189.069022 
L 169.903955 186.944126 
L 173.216753 185.944819 
L 176.529551 184.993742 
L 179.842389 184.089672 
L 183.155187 183.229322 
L 186.467986 182.409389 
L 193.093582 180.877694 
L 199.719179 179.46121 
L 206.344776 178.139016 
L 212.970412 176.892266 
L 219.596008 175.70482 
L 229.534403 174.009032 
L 239.472798 172.382184 
L 249.411193 170.808324 
L 256.03679 169.809819 
L 262.662387 168.862902 
L 269.288023 167.970273 
L 275.913619 167.136178 
L 282.539216 166.367314 
L 289.164852 165.667047 
L 295.790449 165.038323 
L 302.416045 164.482724 
L 309.041642 163.999559 
L 315.667239 163.585458 
L 322.292835 163.237936 
L 328.918432 162.958557 
L 335.544029 162.749922 
L 342.169625 162.614119 
L 348.795222 162.562198 
L 352.10806 162.572382 
L 355.420858 162.610536 
L 358.733656 162.679308 
L 362.046455 162.779089 
L 365.359253 162.909559 
L 368.672051 163.069547 
L 375.297688 163.460468 
L 385.236083 164.105591 
L 388.548881 164.297144 
L 391.861679 164.460094 
L 395.174478 164.587965 
L 398.487276 164.677529 
" style="fill:none;stroke:#ff0000;stroke-linecap:square;stroke-width:1.5;"/>
   </g>
   <g id="line2d_42">
    <path clip-path="url(#p0f2e7f5892)" d="M 73.832724 246.42902 
L 77.145522 231.180091 
L 80.458321 219.999029 
L 83.771119 211.326044 
L 87.083917 204.466754 
L 90.396716 199.020385 
L 93.709554 194.702624 
L 97.022352 191.287501 
L 100.33515 188.590486 
L 103.647949 186.461079 
L 106.960747 184.777246 
L 110.273545 183.439738 
L 113.586344 182.366073 
L 116.899142 181.485664 
L 120.21194 180.737093 
L 123.524738 180.068701 
L 143.401568 176.299748 
L 150.027165 174.953249 
L 156.652761 173.54902 
L 163.278358 172.085306 
L 173.216753 169.811993 
L 189.780784 166.00642 
L 203.031977 163.060973 
L 216.28321 160.176191 
L 226.221605 158.057181 
L 232.847202 156.684898 
L 239.472798 155.36458 
L 246.098395 154.117885 
L 252.723992 152.972996 
L 256.03679 152.448243 
L 259.349588 151.959962 
L 262.662387 151.511318 
L 265.975185 151.10516 
L 269.288023 150.743905 
L 272.600821 150.429421 
L 275.913619 150.16304 
L 279.226418 149.945671 
L 282.539216 149.777589 
L 285.852014 149.658455 
L 289.164852 149.587274 
L 292.477651 149.562544 
L 295.790449 149.582379 
L 299.103247 149.644442 
L 302.416045 149.745919 
L 305.728844 149.883501 
L 309.041642 150.053386 
L 315.667239 150.471873 
L 322.292835 150.960901 
L 332.23123 151.721779 
L 338.856827 152.169984 
L 342.169625 152.355396 
L 345.482424 152.506488 
L 348.795222 152.619483 
L 352.10806 152.693627 
L 355.420858 152.730194 
L 358.733656 152.731654 
L 362.046455 152.701242 
L 365.359253 152.642356 
L 371.984889 152.450429 
L 378.610486 152.172427 
L 385.236083 151.820066 
L 391.861679 151.401823 
L 398.487276 150.924738 
" style="fill:none;stroke:#0000ff;stroke-linecap:square;stroke-width:1.5;"/>
   </g>
   <g id="line2d_43">
    <path clip-path="url(#p0f2e7f5892)" d="M 73.832724 142.135294 
L 77.145522 127.979429 
L 80.458321 117.681516 
L 83.771119 109.616903 
L 87.083917 103.058054 
L 90.396716 97.60646 
L 93.709554 93.010056 
L 97.022352 89.092249 
L 100.33515 85.721594 
L 103.647949 82.796963 
L 106.960747 80.239299 
L 110.273545 77.986173 
L 113.586344 75.987877 
L 116.899142 74.204552 
L 120.21194 72.60398 
L 123.524738 71.159962 
L 126.837537 69.850968 
L 130.150375 68.659224 
L 133.463173 67.569937 
L 136.775971 66.570701 
L 140.08877 65.651064 
L 143.401568 64.802144 
L 146.714366 64.016378 
L 150.027165 63.287245 
L 153.339963 62.60914 
L 156.652761 61.977219 
L 159.96556 61.387235 
L 163.278358 60.835518 
L 166.591156 60.318798 
L 169.903955 59.834247 
L 176.529551 58.951857 
L 183.155187 58.171497 
L 189.780784 57.479911 
L 196.406381 56.866693 
L 203.031977 56.323761 
L 209.657574 55.845023 
L 216.28321 55.426195 
L 222.908807 55.064653 
L 229.534403 54.759359 
L 236.16 54.510608 
L 242.785597 54.319407 
L 249.411193 54.186387 
L 256.03679 54.1101 
L 262.662387 54.085467 
L 269.288023 54.103266 
L 279.226418 54.182231 
L 305.728844 54.433767 
L 318.980037 54.498355 
L 335.544029 54.517838 
L 385.236083 54.513456 
L 398.487276 54.574089 
" style="fill:none;stroke:#00ffff;stroke-linecap:square;stroke-width:1.5;"/>
   </g>
   <g id="patch_3">
    <path d="M 57.6 307.584 
L 57.6 41.472 
" style="fill:none;stroke:#000000;stroke-linecap:square;stroke-linejoin:miter;stroke-width:0.8;"/>
   </g>
   <g id="patch_4">
    <path d="M 414.72 307.584 
L 414.72 41.472 
" style="fill:none;stroke:#000000;stroke-linecap:square;stroke-linejoin:miter;stroke-width:0.8;"/>
   </g>
   <g id="patch_5">
    <path d="M 57.6 307.584 
L 414.72 307.584 
" style="fill:none;stroke:#000000;stroke-linecap:square;stroke-linejoin:miter;stroke-width:0.8;"/>
   </g>
   <g id="patch_6">
    <path d="M 57.6 41.472 
L 414.72 41.472 
" style="fill:none;stroke:#000000;stroke-linecap:square;stroke-linejoin:miter;stroke-width:0.8;"/>
   </g>
   <g id="legend_1">
    <g id="patch_7">
     <path d="M 289.835625 302.584 
L 407.72 302.584 
Q 409.72 302.584 409.72 300.584 
L 409.72 257.549625 
Q 409.72 255.549625 407.72 255.549625 
L 289.835625 255.549625 
Q 287.835625 255.549625 287.835625 257.549625 
L 287.835625 300.584 
Q 287.835625 302.584 289.835625 302.584 
z
" style="fill:#ffffff;opacity:0.8;stroke:#cccccc;stroke-linejoin:miter;"/>
    </g>
    <g id="line2d_44">
     <path d="M 291.835625 263.648062 
L 311.835625 263.648062 
" style="fill:none;stroke:#ff0000;stroke-linecap:square;stroke-width:1.5;"/>
    </g>
    <g id="line2d_45"/>
    <g id="text_11">
     <!-- No grad. reg. -->
     <defs>
      <path d="M 9.8125 72.90625 
L 23.09375 72.90625 
L 55.421875 11.921875 
L 55.421875 72.90625 
L 64.984375 72.90625 
L 64.984375 0 
L 51.703125 0 
L 19.390625 60.984375 
L 19.390625 0 
L 9.8125 0 
z
" id="DejaVuSans-78"/>
      <path d="M 45.40625 27.984375 
Q 45.40625 37.75 41.375 43.109375 
Q 37.359375 48.484375 30.078125 48.484375 
Q 22.859375 48.484375 18.828125 43.109375 
Q 14.796875 37.75 14.796875 27.984375 
Q 14.796875 18.265625 18.828125 12.890625 
Q 22.859375 7.515625 30.078125 7.515625 
Q 37.359375 7.515625 41.375 12.890625 
Q 45.40625 18.265625 45.40625 27.984375 
z
M 54.390625 6.78125 
Q 54.390625 -7.171875 48.1875 -13.984375 
Q 42 -20.796875 29.203125 -20.796875 
Q 24.46875 -20.796875 20.265625 -20.09375 
Q 16.0625 -19.390625 12.109375 -17.921875 
L 12.109375 -9.1875 
Q 16.0625 -11.328125 19.921875 -12.34375 
Q 23.78125 -13.375 27.78125 -13.375 
Q 36.625 -13.375 41.015625 -8.765625 
Q 45.40625 -4.15625 45.40625 5.171875 
L 45.40625 9.625 
Q 42.625 4.78125 38.28125 2.390625 
Q 33.9375 0 27.875 0 
Q 17.828125 0 11.671875 7.65625 
Q 5.515625 15.328125 5.515625 27.984375 
Q 5.515625 40.671875 11.671875 48.328125 
Q 17.828125 56 27.875 56 
Q 33.9375 56 38.28125 53.609375 
Q 42.625 51.21875 45.40625 46.390625 
L 45.40625 54.6875 
L 54.390625 54.6875 
z
" id="DejaVuSans-103"/>
     </defs>
     <g transform="translate(319.835625 267.148062)scale(0.1 -0.1)">
      <use xlink:href="#DejaVuSans-78"/>
      <use x="74.804688" xlink:href="#DejaVuSans-111"/>
      <use x="135.986328" xlink:href="#DejaVuSans-32"/>
      <use x="167.773438" xlink:href="#DejaVuSans-103"/>
      <use x="231.25" xlink:href="#DejaVuSans-114"/>
      <use x="272.363281" xlink:href="#DejaVuSans-97"/>
      <use x="333.642578" xlink:href="#DejaVuSans-100"/>
      <use x="397.119141" xlink:href="#DejaVuSans-46"/>
      <use x="428.90625" xlink:href="#DejaVuSans-32"/>
      <use x="460.693359" xlink:href="#DejaVuSans-114"/>
      <use x="501.775391" xlink:href="#DejaVuSans-101"/>
      <use x="563.298828" xlink:href="#DejaVuSans-103"/>
      <use x="626.775391" xlink:href="#DejaVuSans-46"/>
     </g>
    </g>
    <g id="line2d_46">
     <path d="M 291.835625 278.326188 
L 311.835625 278.326188 
" style="fill:none;stroke:#0000ff;stroke-linecap:square;stroke-width:1.5;"/>
    </g>
    <g id="line2d_47"/>
    <g id="text_12">
     <!-- Grad. reg -->
     <defs>
      <path d="M 59.515625 10.40625 
L 59.515625 29.984375 
L 43.40625 29.984375 
L 43.40625 38.09375 
L 69.28125 38.09375 
L 69.28125 6.78125 
Q 63.578125 2.734375 56.6875 0.65625 
Q 49.8125 -1.421875 42 -1.421875 
Q 24.90625 -1.421875 15.25 8.5625 
Q 5.609375 18.5625 5.609375 36.375 
Q 5.609375 54.25 15.25 64.234375 
Q 24.90625 74.21875 42 74.21875 
Q 49.125 74.21875 55.546875 72.453125 
Q 61.96875 70.703125 67.390625 67.28125 
L 67.390625 56.78125 
Q 61.921875 61.421875 55.765625 63.765625 
Q 49.609375 66.109375 42.828125 66.109375 
Q 29.4375 66.109375 22.71875 58.640625 
Q 16.015625 51.171875 16.015625 36.375 
Q 16.015625 21.625 22.71875 14.15625 
Q 29.4375 6.6875 42.828125 6.6875 
Q 48.046875 6.6875 52.140625 7.59375 
Q 56.25 8.5 59.515625 10.40625 
z
" id="DejaVuSans-71"/>
     </defs>
     <g transform="translate(319.835625 281.826188)scale(0.1 -0.1)">
      <use xlink:href="#DejaVuSans-71"/>
      <use x="77.490234" xlink:href="#DejaVuSans-114"/>
      <use x="118.603516" xlink:href="#DejaVuSans-97"/>
      <use x="179.882812" xlink:href="#DejaVuSans-100"/>
      <use x="243.359375" xlink:href="#DejaVuSans-46"/>
      <use x="275.146484" xlink:href="#DejaVuSans-32"/>
      <use x="306.933594" xlink:href="#DejaVuSans-114"/>
      <use x="348.015625" xlink:href="#DejaVuSans-101"/>
      <use x="409.539062" xlink:href="#DejaVuSans-103"/>
     </g>
    </g>
    <g id="line2d_48">
     <path d="M 291.835625 293.004312 
L 311.835625 293.004312 
" style="fill:none;stroke:#00ffff;stroke-linecap:square;stroke-width:1.5;"/>
    </g>
    <g id="line2d_49"/>
    <g id="text_13">
     <!-- Second grad. reg -->
     <defs>
      <path d="M 53.515625 70.515625 
L 53.515625 60.890625 
Q 47.90625 63.578125 42.921875 64.890625 
Q 37.9375 66.21875 33.296875 66.21875 
Q 25.25 66.21875 20.875 63.09375 
Q 16.5 59.96875 16.5 54.203125 
Q 16.5 49.359375 19.40625 46.890625 
Q 22.3125 44.4375 30.421875 42.921875 
L 36.375 41.703125 
Q 47.40625 39.59375 52.65625 34.296875 
Q 57.90625 29 57.90625 20.125 
Q 57.90625 9.515625 50.796875 4.046875 
Q 43.703125 -1.421875 29.984375 -1.421875 
Q 24.8125 -1.421875 18.96875 -0.25 
Q 13.140625 0.921875 6.890625 3.21875 
L 6.890625 13.375 
Q 12.890625 10.015625 18.65625 8.296875 
Q 24.421875 6.59375 29.984375 6.59375 
Q 38.421875 6.59375 43.015625 9.90625 
Q 47.609375 13.234375 47.609375 19.390625 
Q 47.609375 24.75 44.3125 27.78125 
Q 41.015625 30.8125 33.5 32.328125 
L 27.484375 33.5 
Q 16.453125 35.6875 11.515625 40.375 
Q 6.59375 45.0625 6.59375 53.421875 
Q 6.59375 63.09375 13.40625 68.65625 
Q 20.21875 74.21875 32.171875 74.21875 
Q 37.3125 74.21875 42.625 73.28125 
Q 47.953125 72.359375 53.515625 70.515625 
z
" id="DejaVuSans-83"/>
     </defs>
     <g transform="translate(319.835625 296.504312)scale(0.1 -0.1)">
      <use xlink:href="#DejaVuSans-83"/>
      <use x="63.476562" xlink:href="#DejaVuSans-101"/>
      <use x="125" xlink:href="#DejaVuSans-99"/>
      <use x="179.980469" xlink:href="#DejaVuSans-111"/>
      <use x="241.162109" xlink:href="#DejaVuSans-110"/>
      <use x="304.541016" xlink:href="#DejaVuSans-100"/>
      <use x="368.017578" xlink:href="#DejaVuSans-32"/>
      <use x="399.804688" xlink:href="#DejaVuSans-103"/>
      <use x="463.28125" xlink:href="#DejaVuSans-114"/>
      <use x="504.394531" xlink:href="#DejaVuSans-97"/>
      <use x="565.673828" xlink:href="#DejaVuSans-100"/>
      <use x="629.150391" xlink:href="#DejaVuSans-46"/>
      <use x="660.9375" xlink:href="#DejaVuSans-32"/>
      <use x="692.724609" xlink:href="#DejaVuSans-114"/>
      <use x="733.806641" xlink:href="#DejaVuSans-101"/>
      <use x="795.330078" xlink:href="#DejaVuSans-103"/>
     </g>
    </g>
   </g>
  </g>
 </g>
 <defs>
  <clipPath id="p0f2e7f5892">
   <rect height="266.112" width="357.12" x="57.6" y="41.472"/>
  </clipPath>
 </defs>
</svg>
