<?xml version="1.0" encoding="utf-8" standalone="no"?>
<!DOCTYPE svg PUBLIC "-//W3C//DTD SVG 1.1//EN"
  "http://www.w3.org/Graphics/SVG/1.1/DTD/svg11.dtd">
<!-- Created with matplotlib (https://matplotlib.org/) -->
<svg height="345.6pt" version="1.1" viewBox="0 0 460.8 345.6" width="460.8pt" xmlns="http://www.w3.org/2000/svg" xmlns:xlink="http://www.w3.org/1999/xlink">
 <defs>
  <style type="text/css">
*{stroke-linecap:butt;stroke-linejoin:round;white-space:pre;}
  </style>
 </defs>
 <g id="figure_1">
  <g id="patch_1">
   <path d="M 0 345.6 
L 460.8 345.6 
L 460.8 0 
L 0 0 
z
" style="fill:#ffffff;"/>
  </g>
  <g id="axes_1">
   <g id="patch_2">
    <path d="M 57.6 307.584 
L 414.72 307.584 
L 414.72 41.472 
L 57.6 41.472 
z
" style="fill:#ffffff;"/>
   </g>
   <g id="PolyCollection_1">
    <path clip-path="url(#p0f38404881)" d="M 73.832727 285.252983 
L 73.832727 295.488 
L 77.145529 263.28327 
L 80.45833 239.356098 
L 83.771132 220.267248 
L 87.083933 204.496171 
L 90.396735 191.222014 
L 93.709536 179.927004 
L 97.022338 170.243591 
L 100.335139 161.890489 
L 103.647941 154.643675 
L 106.960742 148.321712 
L 110.273544 142.777078 
L 113.586345 137.889563 
L 116.899147 133.560774 
L 120.211948 129.70979 
L 123.52475 126.269795 
L 126.837551 123.185419 
L 130.150353 120.410526 
L 133.463154 117.906585 
L 136.775955 115.641283 
L 140.088757 113.587361 
L 143.401558 111.721793 
L 146.71436 110.025099 
L 150.027161 108.480678 
L 153.339963 107.074301 
L 156.652764 105.793781 
L 159.965566 104.628688 
L 163.278367 103.570031 
L 166.591169 102.610159 
L 169.90397 101.742781 
L 173.216772 100.962899 
L 176.529573 100.266621 
L 179.842375 99.651015 
L 183.155176 99.113973 
L 186.467978 98.654162 
L 189.780779 98.270961 
L 193.093581 97.964345 
L 196.406382 97.734781 
L 199.719184 97.58314 
L 203.031985 97.510592 
L 206.344787 97.518433 
L 209.657588 97.607831 
L 212.97039 97.779425 
L 216.283191 98.032726 
L 219.595993 98.365263 
L 222.908794 98.771519 
L 226.221596 99.241719 
L 229.534397 99.760759 
L 232.847199 100.307779 
L 236.16 100.857045 
L 239.472801 101.380483 
L 242.785603 101.851421 
L 246.098404 102.248287 
L 249.411206 102.556937 
L 252.724007 102.771155 
L 256.036809 102.891648 
L 259.34961 102.924304 
L 262.662412 102.878315 
L 265.975213 102.76456 
L 269.288015 102.594382 
L 272.600816 102.378754 
L 275.913618 102.127765 
L 279.226419 101.850334 
L 282.539221 101.554064 
L 285.852022 101.245203 
L 289.164824 100.928684 
L 292.477625 100.608214 
L 295.790427 100.286417 
L 299.103228 99.965023 
L 302.41603 99.645075 
L 305.728831 99.327135 
L 309.041633 99.011427 
L 312.354434 98.697984 
L 315.667236 98.386732 
L 318.980037 98.077582 
L 322.292839 97.770451 
L 325.60564 97.465266 
L 328.918442 97.161991 
L 332.231243 96.860688 
L 335.544045 96.561546 
L 338.856846 96.264903 
L 342.169647 95.971221 
L 345.482449 95.681073 
L 348.79525 95.395114 
L 352.108052 95.114062 
L 355.420853 94.838674 
L 358.733655 94.56973 
L 362.046456 94.308018 
L 365.359258 94.054318 
L 368.672059 93.809397 
L 371.984861 93.574007 
L 375.297662 93.348875 
L 378.610464 93.134705 
L 381.923265 92.93218 
L 385.236067 92.741969 
L 388.548868 92.564727 
L 391.86167 92.401122 
L 395.174471 92.251845 
L 398.487273 92.117641 
L 398.487273 84.262626 
L 398.487273 84.262626 
L 395.174471 84.38273 
L 391.86167 84.526464 
L 388.548868 84.693198 
L 385.236067 84.882302 
L 381.923265 85.09312 
L 378.610464 85.324954 
L 375.297662 85.577051 
L 371.984861 85.848608 
L 368.672059 86.138766 
L 365.359258 86.446624 
L 362.046456 86.771239 
L 358.733655 87.111634 
L 355.420853 87.4668 
L 352.108052 87.835688 
L 348.79525 88.217206 
L 345.482449 88.610207 
L 342.169647 89.013478 
L 338.856846 89.425724 
L 335.544045 89.845548 
L 332.231243 90.271436 
L 328.918442 90.701729 
L 325.60564 91.134589 
L 322.292839 91.567958 
L 318.980037 91.999515 
L 315.667236 92.426632 
L 312.354434 92.846327 
L 309.041633 93.255218 
L 305.728831 93.649492 
L 302.41603 94.02491 
L 299.103228 94.376817 
L 295.790427 94.700179 
L 292.477625 94.989661 
L 289.164824 95.239734 
L 285.852022 95.444818 
L 282.539221 95.599443 
L 279.226419 95.698441 
L 275.913618 95.737203 
L 272.600816 95.712015 
L 269.288015 95.620496 
L 265.975213 95.462161 
L 262.662412 95.238984 
L 259.34961 94.955885 
L 256.036809 94.620918 
L 252.724007 94.245024 
L 249.411206 93.841307 
L 246.098404 93.423967 
L 242.785603 93.007128 
L 239.472801 92.603825 
L 236.16 92.225331 
L 232.847199 91.880802 
L 229.534397 91.577163 
L 226.221596 91.319289 
L 222.908794 91.110419 
L 219.595993 90.952671 
L 216.283191 90.847465 
L 212.97039 90.795841 
L 209.657588 90.79868 
L 206.344787 90.856862 
L 203.031985 90.97135 
L 199.719184 91.143231 
L 196.406382 91.373748 
L 193.093581 91.66429 
L 189.780779 92.016409 
L 186.467978 92.431856 
L 183.155176 92.91261 
L 179.842375 93.46094 
L 176.529573 94.079508 
L 173.216772 94.771433 
L 169.90397 95.540424 
L 166.591169 96.390914 
L 163.278367 97.328205 
L 159.965566 98.358624 
L 156.652764 99.489594 
L 153.339963 100.729709 
L 150.027161 102.088937 
L 146.71436 103.578914 
L 143.401558 105.213153 
L 140.088757 107.007443 
L 136.775955 108.980379 
L 133.463154 111.154009 
L 130.150353 113.554506 
L 126.837551 116.213015 
L 123.52475 119.166754 
L 120.211948 122.460333 
L 116.899147 126.147543 
L 113.586345 130.293544 
L 110.273544 134.977807 
L 106.960742 140.297824 
L 103.647941 146.373994 
L 100.335139 153.35559 
L 97.022338 161.428069 
L 93.709536 170.823491 
L 90.396735 181.836033 
L 87.083933 194.84954 
L 83.771132 210.398033 
L 80.45833 229.314314 
L 77.145529 253.121869 
L 73.832727 285.252983 
z
" style="fill:#ff0000;fill-opacity:0.4;"/>
   </g>
   <g id="PolyCollection_2">
    <path clip-path="url(#p0f38404881)" d="M 73.832727 238.798723 
L 73.832727 245.906259 
L 77.145529 215.714274 
L 80.45833 193.714611 
L 83.771132 176.444874 
L 87.083933 162.358499 
L 90.396735 150.61372 
L 93.709536 140.681916 
L 97.022338 132.194413 
L 100.335139 124.87644 
L 103.647941 118.515766 
L 106.960742 112.945494 
L 110.273544 108.033067 
L 113.586345 103.672436 
L 116.899147 99.778195 
L 120.211948 96.281093 
L 123.52475 93.12459 
L 126.837551 90.262197 
L 130.150353 87.65542 
L 133.463154 85.272171 
L 136.775955 83.085523 
L 140.088757 81.07274 
L 143.401558 79.214508 
L 146.71436 77.494332 
L 150.027161 75.898045 
L 153.339963 74.413427 
L 156.652764 73.02988 
L 159.965566 71.738181 
L 163.278367 70.530271 
L 166.591169 69.399078 
L 169.90397 68.338384 
L 173.216772 67.342702 
L 176.529573 66.40718 
L 179.842375 65.52752 
L 183.155176 64.699912 
L 186.467978 63.920978 
L 189.780779 63.187721 
L 193.093581 62.497493 
L 196.406382 61.847961 
L 199.719184 61.23708 
L 203.031985 60.663075 
L 206.344787 60.124423 
L 209.657588 59.619842 
L 212.97039 59.14828 
L 216.283191 58.708904 
L 219.595993 58.301096 
L 222.908794 57.924433 
L 226.221596 57.578679 
L 229.534397 57.263753 
L 232.847199 56.979697 
L 236.16 56.726622 
L 239.472801 56.504639 
L 242.785603 56.313773 
L 246.098404 56.153862 
L 249.411206 56.02445 
L 252.724007 55.924691 
L 256.036809 55.853266 
L 259.34961 55.808354 
L 262.662412 55.787634 
L 265.975213 55.788353 
L 269.288015 55.807432 
L 272.600816 55.841605 
L 275.913618 55.88756 
L 279.226419 55.942087 
L 282.539221 56.002192 
L 285.852022 56.065186 
L 289.164824 56.128735 
L 292.477625 56.190892 
L 295.790427 56.25009 
L 299.103228 56.305124 
L 302.41603 56.355125 
L 305.728831 56.399517 
L 309.041633 56.437978 
L 312.354434 56.470407 
L 315.667236 56.49688 
L 318.980037 56.517622 
L 322.292839 56.532977 
L 325.60564 56.543384 
L 328.918442 56.549354 
L 332.231243 56.551454 
L 335.544045 56.55029 
L 338.856846 56.546495 
L 342.169647 56.54072 
L 345.482449 56.533622 
L 348.79525 56.525854 
L 352.108052 56.518064 
L 355.420853 56.510885 
L 358.733655 56.504926 
L 362.046456 56.500776 
L 365.359258 56.49899 
L 368.672059 56.50009 
L 371.984861 56.50456 
L 375.297662 56.512841 
L 378.610464 56.525328 
L 381.923265 56.542363 
L 385.236067 56.564229 
L 388.548868 56.591144 
L 391.86167 56.62325 
L 395.174471 56.660604 
L 398.487273 56.703157 
L 398.487273 54.729188 
L 398.487273 54.729188 
L 395.174471 54.691269 
L 391.86167 54.658703 
L 388.548868 54.631472 
L 385.236067 54.609464 
L 381.923265 54.592489 
L 378.610464 54.580285 
L 375.297662 54.572526 
L 371.984861 54.568829 
L 368.672059 54.568759 
L 365.359258 54.571831 
L 362.046456 54.577514 
L 358.733655 54.585237 
L 355.420853 54.59439 
L 352.108052 54.60433 
L 348.79525 54.614382 
L 345.482449 54.623848 
L 342.169647 54.632011 
L 338.856846 54.638137 
L 335.544045 54.64149 
L 332.231243 54.641331 
L 328.918442 54.636933 
L 325.60564 54.62759 
L 322.292839 54.612633 
L 318.980037 54.591439 
L 315.667236 54.56346 
L 312.354434 54.528241 
L 309.041633 54.485454 
L 305.728831 54.434933 
L 302.41603 54.376714 
L 299.103228 54.311089 
L 295.790427 54.238655 
L 292.477625 54.160375 
L 289.164824 54.077626 
L 285.852022 53.992251 
L 282.539221 53.906575 
L 279.226419 53.82341 
L 275.913618 53.746007 
L 272.600816 53.677964 
L 269.288015 53.623088 
L 265.975213 53.585213 
L 262.662412 53.568 
L 259.34961 53.574732 
L 256.036809 53.608154 
L 252.724007 53.670369 
L 249.411206 53.762804 
L 246.098404 53.886254 
L 242.785603 54.040982 
L 239.472801 54.226851 
L 236.16 54.443475 
L 232.847199 54.690349 
L 229.534397 54.966965 
L 226.221596 55.272899 
L 222.908794 55.607873 
L 219.595993 55.971792 
L 216.283191 56.364764 
L 212.97039 56.787119 
L 209.657588 57.239408 
L 206.344787 57.722407 
L 203.031985 58.23712 
L 199.719184 58.78478 
L 196.406382 59.366856 
L 193.093581 59.985062 
L 189.780779 60.64137 
L 186.467978 61.338025 
L 183.155176 62.077576 
L 179.842375 62.862894 
L 176.529573 63.697219 
L 173.216772 64.584197 
L 169.90397 65.527935 
L 166.591169 66.533069 
L 163.278367 67.604837 
L 159.965566 68.749177 
L 156.652764 69.972836 
L 153.339963 71.283511 
L 150.027161 72.690012 
L 146.71436 74.202465 
L 143.401558 75.832562 
L 140.088757 77.593866 
L 136.775955 79.502194 
L 133.463154 81.576089 
L 130.150353 83.837424 
L 126.837551 86.312155 
L 123.52475 89.031299 
L 120.211948 92.032175 
L 116.899147 95.360027 
L 113.586345 99.070129 
L 110.273544 103.230562 
L 106.960742 107.925857 
L 103.647941 113.261838 
L 100.335139 119.372063 
L 97.022338 126.426497 
L 93.709536 134.643598 
L 90.396735 144.308466 
L 87.083933 155.804182 
L 83.771132 169.67568 
L 80.45833 186.778526 
L 77.145529 208.666012 
L 73.832727 238.798723 
z
" style="fill:#0000ff;fill-opacity:0.4;"/>
   </g>
   <g id="PolyCollection_3">
    <path clip-path="url(#p0f38404881)" d="M 73.832727 207.288875 
L 73.832727 233.026434 
L 77.145529 202.052386 
L 80.45833 180.232072 
L 83.771132 164.519364 
L 87.083933 152.578275 
L 90.396735 142.996611 
L 93.709536 135.068462 
L 97.022338 128.39355 
L 100.335139 122.710234 
L 103.647941 117.827285 
L 106.960742 113.607418 
L 110.273544 109.947031 
L 113.586345 106.760408 
L 116.899147 103.976111 
L 120.211948 101.535132 
L 123.52475 99.389122 
L 126.837551 97.497736 
L 130.150353 95.826863 
L 133.463154 94.347304 
L 136.775955 93.034102 
L 140.088757 91.865563 
L 143.401558 90.822484 
L 146.71436 89.888188 
L 150.027161 89.048263 
L 153.339963 88.290235 
L 156.652764 87.604168 
L 159.965566 86.982453 
L 163.278367 86.419642 
L 166.591169 85.912012 
L 169.90397 85.456931 
L 173.216772 85.05265 
L 176.529573 84.698236 
L 179.842375 84.393377 
L 183.155176 84.138444 
L 186.467978 83.934373 
L 189.780779 83.782512 
L 193.093581 83.684639 
L 196.406382 83.642795 
L 199.719184 83.659143 
L 203.031985 83.736041 
L 206.344787 83.876087 
L 209.657588 84.08227 
L 212.97039 84.35806 
L 216.283191 84.707275 
L 219.595993 85.133731 
L 222.908794 85.640584 
L 226.221596 86.229383 
L 229.534397 86.8986 
L 232.847199 87.641649 
L 236.16 88.444357 
L 239.472801 89.283049 
L 242.785603 90.124778 
L 246.098404 90.9312 
L 249.411206 91.665682 
L 252.724007 92.300217 
L 256.036809 92.818865 
L 259.34961 93.217021 
L 262.662412 93.498398 
L 265.975213 93.671785 
L 269.288015 93.748422 
L 272.600816 93.740262 
L 275.913618 93.65895 
L 279.226419 93.515348 
L 282.539221 93.319286 
L 285.852022 93.079447 
L 289.164824 92.803431 
L 292.477625 92.497843 
L 295.790427 92.168434 
L 299.103228 91.820233 
L 302.41603 91.457585 
L 305.728831 91.084233 
L 309.041633 90.703424 
L 312.354434 90.317948 
L 315.667236 89.930233 
L 318.980037 89.542421 
L 322.292839 89.15633 
L 325.60564 88.773374 
L 328.918442 88.394662 
L 332.231243 88.021156 
L 335.544045 87.653728 
L 338.856846 87.29322 
L 342.169647 86.940449 
L 345.482449 86.59621 
L 348.79525 86.261267 
L 352.108052 85.936365 
L 355.420853 85.622231 
L 358.733655 85.319577 
L 362.046456 85.02911 
L 365.359258 84.751538 
L 368.672059 84.487567 
L 371.984861 84.237912 
L 375.297662 84.003293 
L 378.610464 83.784455 
L 381.923265 83.582178 
L 385.236067 83.397285 
L 388.548868 83.230648 
L 391.86167 83.083188 
L 395.174471 82.955879 
L 398.487273 82.84969 
L 398.487273 76.440781 
L 398.487273 76.440781 
L 395.174471 76.540234 
L 391.86167 76.656042 
L 388.548868 76.786928 
L 385.236067 76.931692 
L 381.923265 77.089215 
L 378.610464 77.258433 
L 375.297662 77.438321 
L 371.984861 77.627875 
L 368.672059 77.826101 
L 365.359258 78.031992 
L 362.046456 78.244519 
L 358.733655 78.462626 
L 355.420853 78.685229 
L 352.108052 78.911209 
L 348.79525 79.139403 
L 345.482449 79.368609 
L 342.169647 79.597596 
L 338.856846 79.825123 
L 335.544045 80.049959 
L 332.231243 80.270948 
L 328.918442 80.487077 
L 325.60564 80.697508 
L 322.292839 80.901535 
L 318.980037 81.098426 
L 315.667236 81.286994 
L 312.354434 81.465506 
L 309.041633 81.631957 
L 305.728831 81.784135 
L 302.41603 81.919458 
L 299.103228 82.034939 
L 295.790427 82.127156 
L 292.477625 82.192185 
L 289.164824 82.225765 
L 285.852022 82.223489 
L 282.539221 82.180765 
L 279.226419 82.092862 
L 275.913618 81.955092 
L 272.600816 81.763214 
L 269.288015 81.514146 
L 265.975213 81.206406 
L 262.662412 80.840578 
L 259.34961 80.420013 
L 256.036809 79.951226 
L 252.724007 79.443713 
L 249.411206 78.909424 
L 246.098404 78.361972 
L 242.785603 77.81546 
L 239.472801 77.283057 
L 236.16 76.77579 
L 232.847199 76.301776 
L 229.534397 75.866308 
L 226.221596 75.47235 
L 222.908794 75.121171 
L 219.595993 74.812937 
L 216.283191 74.546999 
L 212.97039 74.322235 
L 209.657588 74.137505 
L 206.344787 73.992101 
L 203.031985 73.885975 
L 199.719184 73.819586 
L 196.406382 73.793365 
L 193.093581 73.807362 
L 189.780779 73.861054 
L 186.467978 73.953443 
L 183.155176 74.083794 
L 179.842375 74.252001 
L 176.529573 74.458918 
L 173.216772 74.707068 
L 169.90397 75.000373 
L 166.591169 75.343846 
L 163.278367 75.743716 
L 159.965566 76.206752 
L 156.652764 76.739534 
L 153.339963 77.348521 
L 150.027161 78.040728 
L 146.71436 78.824685 
L 143.401558 79.710323 
L 140.088757 80.708842 
L 136.775955 81.832596 
L 133.463154 83.095364 
L 130.150353 84.513283 
L 126.837551 86.105642 
L 123.52475 87.895327 
L 120.211948 89.909621 
L 116.899147 92.181785 
L 113.586345 94.753 
L 110.273544 97.673352 
L 106.960742 101.003006 
L 103.647941 104.814552 
L 100.335139 109.198369 
L 97.022338 114.277234 
L 93.709536 120.216396 
L 90.396735 127.227628 
L 87.083933 135.605226 
L 83.771132 145.851867 
L 80.45833 159.063566 
L 77.145529 177.976476 
L 73.832727 207.288875 
z
" style="fill:#00ffff;fill-opacity:0.4;"/>
   </g>
   <g id="matplotlib.axis_1">
    <g id="xtick_1">
     <g id="line2d_1">
      <path clip-path="url(#p0f38404881)" d="M 70.519926 307.584 
L 70.519926 41.472 
" style="fill:none;stroke:#b0b0b0;stroke-linecap:square;stroke-width:0.8;"/>
     </g>
     <g id="line2d_2">
      <defs>
       <path d="M 0 0 
L 0 3.5 
" id="ma3f750fbd5" style="stroke:#000000;stroke-width:0.8;"/>
      </defs>
      <g>
       <use style="stroke:#000000;stroke-width:0.8;" x="70.519926" xlink:href="#ma3f750fbd5" y="307.584"/>
      </g>
     </g>
     <g id="text_1">
      <!-- 0.0 -->
      <defs>
       <path d="M 31.78125 66.40625 
Q 24.171875 66.40625 20.328125 58.90625 
Q 16.5 51.421875 16.5 36.375 
Q 16.5 21.390625 20.328125 13.890625 
Q 24.171875 6.390625 31.78125 6.390625 
Q 39.453125 6.390625 43.28125 13.890625 
Q 47.125 21.390625 47.125 36.375 
Q 47.125 51.421875 43.28125 58.90625 
Q 39.453125 66.40625 31.78125 66.40625 
z
M 31.78125 74.21875 
Q 44.046875 74.21875 50.515625 64.515625 
Q 56.984375 54.828125 56.984375 36.375 
Q 56.984375 17.96875 50.515625 8.265625 
Q 44.046875 -1.421875 31.78125 -1.421875 
Q 19.53125 -1.421875 13.0625 8.265625 
Q 6.59375 17.96875 6.59375 36.375 
Q 6.59375 54.828125 13.0625 64.515625 
Q 19.53125 74.21875 31.78125 74.21875 
z
" id="DejaVuSans-48"/>
       <path d="M 10.6875 12.40625 
L 21 12.40625 
L 21 0 
L 10.6875 0 
z
" id="DejaVuSans-46"/>
      </defs>
      <g transform="translate(62.568363 322.182437)scale(0.1 -0.1)">
       <use xlink:href="#DejaVuSans-48"/>
       <use x="63.623047" xlink:href="#DejaVuSans-46"/>
       <use x="95.410156" xlink:href="#DejaVuSans-48"/>
      </g>
     </g>
    </g>
    <g id="xtick_2">
     <g id="line2d_3">
      <path clip-path="url(#p0f38404881)" d="M 136.775955 307.584 
L 136.775955 41.472 
" style="fill:none;stroke:#b0b0b0;stroke-linecap:square;stroke-width:0.8;"/>
     </g>
     <g id="line2d_4">
      <g>
       <use style="stroke:#000000;stroke-width:0.8;" x="136.775955" xlink:href="#ma3f750fbd5" y="307.584"/>
      </g>
     </g>
     <g id="text_2">
      <!-- 0.2 -->
      <defs>
       <path d="M 19.1875 8.296875 
L 53.609375 8.296875 
L 53.609375 0 
L 7.328125 0 
L 7.328125 8.296875 
Q 12.9375 14.109375 22.625 23.890625 
Q 32.328125 33.6875 34.8125 36.53125 
Q 39.546875 41.84375 41.421875 45.53125 
Q 43.3125 49.21875 43.3125 52.78125 
Q 43.3125 58.59375 39.234375 62.25 
Q 35.15625 65.921875 28.609375 65.921875 
Q 23.96875 65.921875 18.8125 64.3125 
Q 13.671875 62.703125 7.8125 59.421875 
L 7.8125 69.390625 
Q 13.765625 71.78125 18.9375 73 
Q 24.125 74.21875 28.421875 74.21875 
Q 39.75 74.21875 46.484375 68.546875 
Q 53.21875 62.890625 53.21875 53.421875 
Q 53.21875 48.921875 51.53125 44.890625 
Q 49.859375 40.875 45.40625 35.40625 
Q 44.1875 33.984375 37.640625 27.21875 
Q 31.109375 20.453125 19.1875 8.296875 
z
" id="DejaVuSans-50"/>
      </defs>
      <g transform="translate(128.824393 322.182437)scale(0.1 -0.1)">
       <use xlink:href="#DejaVuSans-48"/>
       <use x="63.623047" xlink:href="#DejaVuSans-46"/>
       <use x="95.410156" xlink:href="#DejaVuSans-50"/>
      </g>
     </g>
    </g>
    <g id="xtick_3">
     <g id="line2d_5">
      <path clip-path="url(#p0f38404881)" d="M 203.031985 307.584 
L 203.031985 41.472 
" style="fill:none;stroke:#b0b0b0;stroke-linecap:square;stroke-width:0.8;"/>
     </g>
     <g id="line2d_6">
      <g>
       <use style="stroke:#000000;stroke-width:0.8;" x="203.031985" xlink:href="#ma3f750fbd5" y="307.584"/>
      </g>
     </g>
     <g id="text_3">
      <!-- 0.4 -->
      <defs>
       <path d="M 37.796875 64.3125 
L 12.890625 25.390625 
L 37.796875 25.390625 
z
M 35.203125 72.90625 
L 47.609375 72.90625 
L 47.609375 25.390625 
L 58.015625 25.390625 
L 58.015625 17.1875 
L 47.609375 17.1875 
L 47.609375 0 
L 37.796875 0 
L 37.796875 17.1875 
L 4.890625 17.1875 
L 4.890625 26.703125 
z
" id="DejaVuSans-52"/>
      </defs>
      <g transform="translate(195.080423 322.182437)scale(0.1 -0.1)">
       <use xlink:href="#DejaVuSans-48"/>
       <use x="63.623047" xlink:href="#DejaVuSans-46"/>
       <use x="95.410156" xlink:href="#DejaVuSans-52"/>
      </g>
     </g>
    </g>
    <g id="xtick_4">
     <g id="line2d_7">
      <path clip-path="url(#p0f38404881)" d="M 269.288015 307.584 
L 269.288015 41.472 
" style="fill:none;stroke:#b0b0b0;stroke-linecap:square;stroke-width:0.8;"/>
     </g>
     <g id="line2d_8">
      <g>
       <use style="stroke:#000000;stroke-width:0.8;" x="269.288015" xlink:href="#ma3f750fbd5" y="307.584"/>
      </g>
     </g>
     <g id="text_4">
      <!-- 0.6 -->
      <defs>
       <path d="M 33.015625 40.375 
Q 26.375 40.375 22.484375 35.828125 
Q 18.609375 31.296875 18.609375 23.390625 
Q 18.609375 15.53125 22.484375 10.953125 
Q 26.375 6.390625 33.015625 6.390625 
Q 39.65625 6.390625 43.53125 10.953125 
Q 47.40625 15.53125 47.40625 23.390625 
Q 47.40625 31.296875 43.53125 35.828125 
Q 39.65625 40.375 33.015625 40.375 
z
M 52.59375 71.296875 
L 52.59375 62.3125 
Q 48.875 64.0625 45.09375 64.984375 
Q 41.3125 65.921875 37.59375 65.921875 
Q 27.828125 65.921875 22.671875 59.328125 
Q 17.53125 52.734375 16.796875 39.40625 
Q 19.671875 43.65625 24.015625 45.921875 
Q 28.375 48.1875 33.59375 48.1875 
Q 44.578125 48.1875 50.953125 41.515625 
Q 57.328125 34.859375 57.328125 23.390625 
Q 57.328125 12.15625 50.6875 5.359375 
Q 44.046875 -1.421875 33.015625 -1.421875 
Q 20.359375 -1.421875 13.671875 8.265625 
Q 6.984375 17.96875 6.984375 36.375 
Q 6.984375 53.65625 15.1875 63.9375 
Q 23.390625 74.21875 37.203125 74.21875 
Q 40.921875 74.21875 44.703125 73.484375 
Q 48.484375 72.75 52.59375 71.296875 
z
" id="DejaVuSans-54"/>
      </defs>
      <g transform="translate(261.336452 322.182437)scale(0.1 -0.1)">
       <use xlink:href="#DejaVuSans-48"/>
       <use x="63.623047" xlink:href="#DejaVuSans-46"/>
       <use x="95.410156" xlink:href="#DejaVuSans-54"/>
      </g>
     </g>
    </g>
    <g id="xtick_5">
     <g id="line2d_9">
      <path clip-path="url(#p0f38404881)" d="M 335.544045 307.584 
L 335.544045 41.472 
" style="fill:none;stroke:#b0b0b0;stroke-linecap:square;stroke-width:0.8;"/>
     </g>
     <g id="line2d_10">
      <g>
       <use style="stroke:#000000;stroke-width:0.8;" x="335.544045" xlink:href="#ma3f750fbd5" y="307.584"/>
      </g>
     </g>
     <g id="text_5">
      <!-- 0.8 -->
      <defs>
       <path d="M 31.78125 34.625 
Q 24.75 34.625 20.71875 30.859375 
Q 16.703125 27.09375 16.703125 20.515625 
Q 16.703125 13.921875 20.71875 10.15625 
Q 24.75 6.390625 31.78125 6.390625 
Q 38.8125 6.390625 42.859375 10.171875 
Q 46.921875 13.96875 46.921875 20.515625 
Q 46.921875 27.09375 42.890625 30.859375 
Q 38.875 34.625 31.78125 34.625 
z
M 21.921875 38.8125 
Q 15.578125 40.375 12.03125 44.71875 
Q 8.5 49.078125 8.5 55.328125 
Q 8.5 64.0625 14.71875 69.140625 
Q 20.953125 74.21875 31.78125 74.21875 
Q 42.671875 74.21875 48.875 69.140625 
Q 55.078125 64.0625 55.078125 55.328125 
Q 55.078125 49.078125 51.53125 44.71875 
Q 48 40.375 41.703125 38.8125 
Q 48.828125 37.15625 52.796875 32.3125 
Q 56.78125 27.484375 56.78125 20.515625 
Q 56.78125 9.90625 50.3125 4.234375 
Q 43.84375 -1.421875 31.78125 -1.421875 
Q 19.734375 -1.421875 13.25 4.234375 
Q 6.78125 9.90625 6.78125 20.515625 
Q 6.78125 27.484375 10.78125 32.3125 
Q 14.796875 37.15625 21.921875 38.8125 
z
M 18.3125 54.390625 
Q 18.3125 48.734375 21.84375 45.5625 
Q 25.390625 42.390625 31.78125 42.390625 
Q 38.140625 42.390625 41.71875 45.5625 
Q 45.3125 48.734375 45.3125 54.390625 
Q 45.3125 60.0625 41.71875 63.234375 
Q 38.140625 66.40625 31.78125 66.40625 
Q 25.390625 66.40625 21.84375 63.234375 
Q 18.3125 60.0625 18.3125 54.390625 
z
" id="DejaVuSans-56"/>
      </defs>
      <g transform="translate(327.592482 322.182437)scale(0.1 -0.1)">
       <use xlink:href="#DejaVuSans-48"/>
       <use x="63.623047" xlink:href="#DejaVuSans-46"/>
       <use x="95.410156" xlink:href="#DejaVuSans-56"/>
      </g>
     </g>
    </g>
    <g id="xtick_6">
     <g id="line2d_11">
      <path clip-path="url(#p0f38404881)" d="M 401.800074 307.584 
L 401.800074 41.472 
" style="fill:none;stroke:#b0b0b0;stroke-linecap:square;stroke-width:0.8;"/>
     </g>
     <g id="line2d_12">
      <g>
       <use style="stroke:#000000;stroke-width:0.8;" x="401.800074" xlink:href="#ma3f750fbd5" y="307.584"/>
      </g>
     </g>
     <g id="text_6">
      <!-- 1.0 -->
      <defs>
       <path d="M 12.40625 8.296875 
L 28.515625 8.296875 
L 28.515625 63.921875 
L 10.984375 60.40625 
L 10.984375 69.390625 
L 28.421875 72.90625 
L 38.28125 72.90625 
L 38.28125 8.296875 
L 54.390625 8.296875 
L 54.390625 0 
L 12.40625 0 
z
" id="DejaVuSans-49"/>
      </defs>
      <g transform="translate(393.848512 322.182437)scale(0.1 -0.1)">
       <use xlink:href="#DejaVuSans-49"/>
       <use x="63.623047" xlink:href="#DejaVuSans-46"/>
       <use x="95.410156" xlink:href="#DejaVuSans-48"/>
      </g>
     </g>
    </g>
    <g id="text_7">
     <!-- $\mathrm{Time \ (seconds)}$ -->
     <defs>
      <path d="M -0.296875 72.90625 
L 61.375 72.90625 
L 61.375 64.59375 
L 35.5 64.59375 
L 35.5 0 
L 25.59375 0 
L 25.59375 64.59375 
L -0.296875 64.59375 
z
" id="DejaVuSans-84"/>
      <path d="M 9.421875 54.6875 
L 18.40625 54.6875 
L 18.40625 0 
L 9.421875 0 
z
M 9.421875 75.984375 
L 18.40625 75.984375 
L 18.40625 64.59375 
L 9.421875 64.59375 
z
" id="DejaVuSans-105"/>
      <path d="M 52 44.1875 
Q 55.375 50.25 60.0625 53.125 
Q 64.75 56 71.09375 56 
Q 79.640625 56 84.28125 50.015625 
Q 88.921875 44.046875 88.921875 33.015625 
L 88.921875 0 
L 79.890625 0 
L 79.890625 32.71875 
Q 79.890625 40.578125 77.09375 44.375 
Q 74.3125 48.1875 68.609375 48.1875 
Q 61.625 48.1875 57.5625 43.546875 
Q 53.515625 38.921875 53.515625 30.90625 
L 53.515625 0 
L 44.484375 0 
L 44.484375 32.71875 
Q 44.484375 40.625 41.703125 44.40625 
Q 38.921875 48.1875 33.109375 48.1875 
Q 26.21875 48.1875 22.15625 43.53125 
Q 18.109375 38.875 18.109375 30.90625 
L 18.109375 0 
L 9.078125 0 
L 9.078125 54.6875 
L 18.109375 54.6875 
L 18.109375 46.1875 
Q 21.1875 51.21875 25.484375 53.609375 
Q 29.78125 56 35.6875 56 
Q 41.65625 56 45.828125 52.96875 
Q 50 49.953125 52 44.1875 
z
" id="DejaVuSans-109"/>
      <path d="M 56.203125 29.59375 
L 56.203125 25.203125 
L 14.890625 25.203125 
Q 15.484375 15.921875 20.484375 11.0625 
Q 25.484375 6.203125 34.421875 6.203125 
Q 39.59375 6.203125 44.453125 7.46875 
Q 49.3125 8.734375 54.109375 11.28125 
L 54.109375 2.78125 
Q 49.265625 0.734375 44.1875 -0.34375 
Q 39.109375 -1.421875 33.890625 -1.421875 
Q 20.796875 -1.421875 13.15625 6.1875 
Q 5.515625 13.8125 5.515625 26.8125 
Q 5.515625 40.234375 12.765625 48.109375 
Q 20.015625 56 32.328125 56 
Q 43.359375 56 49.78125 48.890625 
Q 56.203125 41.796875 56.203125 29.59375 
z
M 47.21875 32.234375 
Q 47.125 39.59375 43.09375 43.984375 
Q 39.0625 48.390625 32.421875 48.390625 
Q 24.90625 48.390625 20.390625 44.140625 
Q 15.875 39.890625 15.1875 32.171875 
z
" id="DejaVuSans-101"/>
      <path d="M 31 75.875 
Q 24.46875 64.65625 21.28125 53.65625 
Q 18.109375 42.671875 18.109375 31.390625 
Q 18.109375 20.125 21.3125 9.0625 
Q 24.515625 -2 31 -13.1875 
L 23.1875 -13.1875 
Q 15.875 -1.703125 12.234375 9.375 
Q 8.59375 20.453125 8.59375 31.390625 
Q 8.59375 42.28125 12.203125 53.3125 
Q 15.828125 64.359375 23.1875 75.875 
z
" id="DejaVuSans-40"/>
      <path d="M 44.28125 53.078125 
L 44.28125 44.578125 
Q 40.484375 46.53125 36.375 47.5 
Q 32.28125 48.484375 27.875 48.484375 
Q 21.1875 48.484375 17.84375 46.4375 
Q 14.5 44.390625 14.5 40.28125 
Q 14.5 37.15625 16.890625 35.375 
Q 19.28125 33.59375 26.515625 31.984375 
L 29.59375 31.296875 
Q 39.15625 29.25 43.1875 25.515625 
Q 47.21875 21.78125 47.21875 15.09375 
Q 47.21875 7.46875 41.1875 3.015625 
Q 35.15625 -1.421875 24.609375 -1.421875 
Q 20.21875 -1.421875 15.453125 -0.5625 
Q 10.6875 0.296875 5.421875 2 
L 5.421875 11.28125 
Q 10.40625 8.6875 15.234375 7.390625 
Q 20.0625 6.109375 24.8125 6.109375 
Q 31.15625 6.109375 34.5625 8.28125 
Q 37.984375 10.453125 37.984375 14.40625 
Q 37.984375 18.0625 35.515625 20.015625 
Q 33.0625 21.96875 24.703125 23.78125 
L 21.578125 24.515625 
Q 13.234375 26.265625 9.515625 29.90625 
Q 5.8125 33.546875 5.8125 39.890625 
Q 5.8125 47.609375 11.28125 51.796875 
Q 16.75 56 26.8125 56 
Q 31.78125 56 36.171875 55.265625 
Q 40.578125 54.546875 44.28125 53.078125 
z
" id="DejaVuSans-115"/>
      <path d="M 48.78125 52.59375 
L 48.78125 44.1875 
Q 44.96875 46.296875 41.140625 47.34375 
Q 37.3125 48.390625 33.40625 48.390625 
Q 24.65625 48.390625 19.8125 42.84375 
Q 14.984375 37.3125 14.984375 27.296875 
Q 14.984375 17.28125 19.8125 11.734375 
Q 24.65625 6.203125 33.40625 6.203125 
Q 37.3125 6.203125 41.140625 7.25 
Q 44.96875 8.296875 48.78125 10.40625 
L 48.78125 2.09375 
Q 45.015625 0.34375 40.984375 -0.53125 
Q 36.96875 -1.421875 32.421875 -1.421875 
Q 20.0625 -1.421875 12.78125 6.34375 
Q 5.515625 14.109375 5.515625 27.296875 
Q 5.515625 40.671875 12.859375 48.328125 
Q 20.21875 56 33.015625 56 
Q 37.15625 56 41.109375 55.140625 
Q 45.0625 54.296875 48.78125 52.59375 
z
" id="DejaVuSans-99"/>
      <path d="M 30.609375 48.390625 
Q 23.390625 48.390625 19.1875 42.75 
Q 14.984375 37.109375 14.984375 27.296875 
Q 14.984375 17.484375 19.15625 11.84375 
Q 23.34375 6.203125 30.609375 6.203125 
Q 37.796875 6.203125 41.984375 11.859375 
Q 46.1875 17.53125 46.1875 27.296875 
Q 46.1875 37.015625 41.984375 42.703125 
Q 37.796875 48.390625 30.609375 48.390625 
z
M 30.609375 56 
Q 42.328125 56 49.015625 48.375 
Q 55.71875 40.765625 55.71875 27.296875 
Q 55.71875 13.875 49.015625 6.21875 
Q 42.328125 -1.421875 30.609375 -1.421875 
Q 18.84375 -1.421875 12.171875 6.21875 
Q 5.515625 13.875 5.515625 27.296875 
Q 5.515625 40.765625 12.171875 48.375 
Q 18.84375 56 30.609375 56 
z
" id="DejaVuSans-111"/>
      <path d="M 54.890625 33.015625 
L 54.890625 0 
L 45.90625 0 
L 45.90625 32.71875 
Q 45.90625 40.484375 42.875 44.328125 
Q 39.84375 48.1875 33.796875 48.1875 
Q 26.515625 48.1875 22.3125 43.546875 
Q 18.109375 38.921875 18.109375 30.90625 
L 18.109375 0 
L 9.078125 0 
L 9.078125 54.6875 
L 18.109375 54.6875 
L 18.109375 46.1875 
Q 21.34375 51.125 25.703125 53.5625 
Q 30.078125 56 35.796875 56 
Q 45.21875 56 50.046875 50.171875 
Q 54.890625 44.34375 54.890625 33.015625 
z
" id="DejaVuSans-110"/>
      <path d="M 45.40625 46.390625 
L 45.40625 75.984375 
L 54.390625 75.984375 
L 54.390625 0 
L 45.40625 0 
L 45.40625 8.203125 
Q 42.578125 3.328125 38.25 0.953125 
Q 33.9375 -1.421875 27.875 -1.421875 
Q 17.96875 -1.421875 11.734375 6.484375 
Q 5.515625 14.40625 5.515625 27.296875 
Q 5.515625 40.1875 11.734375 48.09375 
Q 17.96875 56 27.875 56 
Q 33.9375 56 38.25 53.625 
Q 42.578125 51.265625 45.40625 46.390625 
z
M 14.796875 27.296875 
Q 14.796875 17.390625 18.875 11.75 
Q 22.953125 6.109375 30.078125 6.109375 
Q 37.203125 6.109375 41.296875 11.75 
Q 45.40625 17.390625 45.40625 27.296875 
Q 45.40625 37.203125 41.296875 42.84375 
Q 37.203125 48.484375 30.078125 48.484375 
Q 22.953125 48.484375 18.875 42.84375 
Q 14.796875 37.203125 14.796875 27.296875 
z
" id="DejaVuSans-100"/>
      <path d="M 8.015625 75.875 
L 15.828125 75.875 
Q 23.140625 64.359375 26.78125 53.3125 
Q 30.421875 42.28125 30.421875 31.390625 
Q 30.421875 20.453125 26.78125 9.375 
Q 23.140625 -1.703125 15.828125 -13.1875 
L 8.015625 -13.1875 
Q 14.5 -2 17.703125 9.0625 
Q 20.90625 20.125 20.90625 31.390625 
Q 20.90625 42.671875 17.703125 53.65625 
Q 14.5 64.65625 8.015625 75.875 
z
" id="DejaVuSans-41"/>
     </defs>
     <g transform="translate(197.76 335.860562)scale(0.1 -0.1)">
      <use transform="translate(0 0.015625)" xlink:href="#DejaVuSans-84"/>
      <use transform="translate(61.083984 0.015625)" xlink:href="#DejaVuSans-105"/>
      <use transform="translate(88.867188 0.015625)" xlink:href="#DejaVuSans-109"/>
      <use transform="translate(186.279297 0.015625)" xlink:href="#DejaVuSans-101"/>
      <use transform="translate(280.273113 0.015625)" xlink:href="#DejaVuSans-40"/>
      <use transform="translate(319.286785 0.015625)" xlink:href="#DejaVuSans-115"/>
      <use transform="translate(371.386394 0.015625)" xlink:href="#DejaVuSans-101"/>
      <use transform="translate(432.909832 0.015625)" xlink:href="#DejaVuSans-99"/>
      <use transform="translate(487.8903 0.015625)" xlink:href="#DejaVuSans-111"/>
      <use transform="translate(549.071941 0.015625)" xlink:href="#DejaVuSans-110"/>
      <use transform="translate(612.450847 0.015625)" xlink:href="#DejaVuSans-100"/>
      <use transform="translate(675.92741 0.015625)" xlink:href="#DejaVuSans-115"/>
      <use transform="translate(728.027019 0.015625)" xlink:href="#DejaVuSans-41"/>
     </g>
    </g>
   </g>
   <g id="matplotlib.axis_2">
    <g id="ytick_1">
     <g id="line2d_13">
      <path clip-path="url(#p0f38404881)" d="M 57.6 217.614016 
L 414.72 217.614016 
" style="fill:none;stroke:#b0b0b0;stroke-linecap:square;stroke-width:0.8;"/>
     </g>
     <g id="line2d_14">
      <defs>
       <path d="M 0 0 
L -3.5 0 
" id="m608500e076" style="stroke:#000000;stroke-width:0.8;"/>
      </defs>
      <g>
       <use style="stroke:#000000;stroke-width:0.8;" x="57.6" xlink:href="#m608500e076" y="217.614016"/>
      </g>
     </g>
     <g id="text_8">
      <!-- $\mathdefault{10^{-1}}$ -->
      <defs>
       <path d="M 10.59375 35.5 
L 73.1875 35.5 
L 73.1875 27.203125 
L 10.59375 27.203125 
z
" id="DejaVuSans-8722"/>
      </defs>
      <g transform="translate(27.1 221.413234)scale(0.1 -0.1)">
       <use transform="translate(0 0.684375)" xlink:href="#DejaVuSans-49"/>
       <use transform="translate(63.623047 0.684375)" xlink:href="#DejaVuSans-48"/>
       <use transform="translate(128.203125 38.965625)scale(0.7)" xlink:href="#DejaVuSans-8722"/>
       <use transform="translate(186.855469 38.965625)scale(0.7)" xlink:href="#DejaVuSans-49"/>
      </g>
     </g>
    </g>
    <g id="ytick_2">
     <g id="line2d_15">
      <defs>
       <path d="M 0 0 
L -2 0 
" id="md549feee5d" style="stroke:#000000;stroke-width:0.6;"/>
      </defs>
      <g>
       <use style="stroke:#000000;stroke-width:0.6;" x="57.6" xlink:href="#md549feee5d" y="293.458811"/>
      </g>
     </g>
    </g>
    <g id="ytick_3">
     <g id="line2d_16">
      <g>
       <use style="stroke:#000000;stroke-width:0.6;" x="57.6" xlink:href="#md549feee5d" y="274.988389"/>
      </g>
     </g>
    </g>
    <g id="ytick_4">
     <g id="line2d_17">
      <g>
       <use style="stroke:#000000;stroke-width:0.6;" x="57.6" xlink:href="#md549feee5d" y="259.896955"/>
      </g>
     </g>
    </g>
    <g id="ytick_5">
     <g id="line2d_18">
      <g>
       <use style="stroke:#000000;stroke-width:0.6;" x="57.6" xlink:href="#md549feee5d" y="247.137329"/>
      </g>
     </g>
    </g>
    <g id="ytick_6">
     <g id="line2d_19">
      <g>
       <use style="stroke:#000000;stroke-width:0.6;" x="57.6" xlink:href="#md549feee5d" y="236.084438"/>
      </g>
     </g>
    </g>
    <g id="ytick_7">
     <g id="line2d_20">
      <g>
       <use style="stroke:#000000;stroke-width:0.6;" x="57.6" xlink:href="#md549feee5d" y="226.335098"/>
      </g>
     </g>
    </g>
    <g id="ytick_8">
     <g id="line2d_21">
      <g>
       <use style="stroke:#000000;stroke-width:0.6;" x="57.6" xlink:href="#md549feee5d" y="160.239642"/>
      </g>
     </g>
    </g>
    <g id="ytick_9">
     <g id="line2d_22">
      <g>
       <use style="stroke:#000000;stroke-width:0.6;" x="57.6" xlink:href="#md549feee5d" y="126.677785"/>
      </g>
     </g>
    </g>
    <g id="ytick_10">
     <g id="line2d_23">
      <g>
       <use style="stroke:#000000;stroke-width:0.6;" x="57.6" xlink:href="#md549feee5d" y="102.865269"/>
      </g>
     </g>
    </g>
    <g id="ytick_11">
     <g id="line2d_24">
      <g>
       <use style="stroke:#000000;stroke-width:0.6;" x="57.6" xlink:href="#md549feee5d" y="84.394846"/>
      </g>
     </g>
    </g>
    <g id="ytick_12">
     <g id="line2d_25">
      <g>
       <use style="stroke:#000000;stroke-width:0.6;" x="57.6" xlink:href="#md549feee5d" y="69.303412"/>
      </g>
     </g>
    </g>
    <g id="ytick_13">
     <g id="line2d_26">
      <g>
       <use style="stroke:#000000;stroke-width:0.6;" x="57.6" xlink:href="#md549feee5d" y="56.543786"/>
      </g>
     </g>
    </g>
    <g id="ytick_14">
     <g id="line2d_27">
      <g>
       <use style="stroke:#000000;stroke-width:0.6;" x="57.6" xlink:href="#md549feee5d" y="45.490896"/>
      </g>
     </g>
    </g>
    <g id="text_9">
     <!-- $\mathrm{Relative \ error}$ ($N_{\mathrm{train}}=5$) -->
     <defs>
      <path d="M 44.390625 34.1875 
Q 47.5625 33.109375 50.5625 29.59375 
Q 53.5625 26.078125 56.59375 19.921875 
L 66.609375 0 
L 56 0 
L 46.6875 18.703125 
Q 43.0625 26.03125 39.671875 28.421875 
Q 36.28125 30.8125 30.421875 30.8125 
L 19.671875 30.8125 
L 19.671875 0 
L 9.8125 0 
L 9.8125 72.90625 
L 32.078125 72.90625 
Q 44.578125 72.90625 50.734375 67.671875 
Q 56.890625 62.453125 56.890625 51.90625 
Q 56.890625 45.015625 53.6875 40.46875 
Q 50.484375 35.9375 44.390625 34.1875 
z
M 19.671875 64.796875 
L 19.671875 38.921875 
L 32.078125 38.921875 
Q 39.203125 38.921875 42.84375 42.21875 
Q 46.484375 45.515625 46.484375 51.90625 
Q 46.484375 58.296875 42.84375 61.546875 
Q 39.203125 64.796875 32.078125 64.796875 
z
" id="DejaVuSans-82"/>
      <path d="M 9.421875 75.984375 
L 18.40625 75.984375 
L 18.40625 0 
L 9.421875 0 
z
" id="DejaVuSans-108"/>
      <path d="M 34.28125 27.484375 
Q 23.390625 27.484375 19.1875 25 
Q 14.984375 22.515625 14.984375 16.5 
Q 14.984375 11.71875 18.140625 8.90625 
Q 21.296875 6.109375 26.703125 6.109375 
Q 34.1875 6.109375 38.703125 11.40625 
Q 43.21875 16.703125 43.21875 25.484375 
L 43.21875 27.484375 
z
M 52.203125 31.203125 
L 52.203125 0 
L 43.21875 0 
L 43.21875 8.296875 
Q 40.140625 3.328125 35.546875 0.953125 
Q 30.953125 -1.421875 24.3125 -1.421875 
Q 15.921875 -1.421875 10.953125 3.296875 
Q 6 8.015625 6 15.921875 
Q 6 25.140625 12.171875 29.828125 
Q 18.359375 34.515625 30.609375 34.515625 
L 43.21875 34.515625 
L 43.21875 35.40625 
Q 43.21875 41.609375 39.140625 45 
Q 35.0625 48.390625 27.6875 48.390625 
Q 23 48.390625 18.546875 47.265625 
Q 14.109375 46.140625 10.015625 43.890625 
L 10.015625 52.203125 
Q 14.9375 54.109375 19.578125 55.046875 
Q 24.21875 56 28.609375 56 
Q 40.484375 56 46.34375 49.84375 
Q 52.203125 43.703125 52.203125 31.203125 
z
" id="DejaVuSans-97"/>
      <path d="M 18.3125 70.21875 
L 18.3125 54.6875 
L 36.8125 54.6875 
L 36.8125 47.703125 
L 18.3125 47.703125 
L 18.3125 18.015625 
Q 18.3125 11.328125 20.140625 9.421875 
Q 21.96875 7.515625 27.59375 7.515625 
L 36.8125 7.515625 
L 36.8125 0 
L 27.59375 0 
Q 17.1875 0 13.234375 3.875 
Q 9.28125 7.765625 9.28125 18.015625 
L 9.28125 47.703125 
L 2.6875 47.703125 
L 2.6875 54.6875 
L 9.28125 54.6875 
L 9.28125 70.21875 
z
" id="DejaVuSans-116"/>
      <path d="M 2.984375 54.6875 
L 12.5 54.6875 
L 29.59375 8.796875 
L 46.6875 54.6875 
L 56.203125 54.6875 
L 35.6875 0 
L 23.484375 0 
z
" id="DejaVuSans-118"/>
      <path d="M 41.109375 46.296875 
Q 39.59375 47.171875 37.8125 47.578125 
Q 36.03125 48 33.890625 48 
Q 26.265625 48 22.1875 43.046875 
Q 18.109375 38.09375 18.109375 28.8125 
L 18.109375 0 
L 9.078125 0 
L 9.078125 54.6875 
L 18.109375 54.6875 
L 18.109375 46.1875 
Q 20.953125 51.171875 25.484375 53.578125 
Q 30.03125 56 36.53125 56 
Q 37.453125 56 38.578125 55.875 
Q 39.703125 55.765625 41.0625 55.515625 
z
" id="DejaVuSans-114"/>
      <path id="DejaVuSans-32"/>
      <path d="M 16.890625 72.90625 
L 30.171875 72.90625 
L 50.296875 10.40625 
L 62.5 72.90625 
L 72.125 72.90625 
L 57.90625 0 
L 44.578125 0 
L 24.515625 62.890625 
L 12.3125 0 
L 2.6875 0 
z
" id="DejaVuSans-Oblique-78"/>
      <path d="M 10.59375 45.40625 
L 73.1875 45.40625 
L 73.1875 37.203125 
L 10.59375 37.203125 
z
M 10.59375 25.484375 
L 73.1875 25.484375 
L 73.1875 17.1875 
L 10.59375 17.1875 
z
" id="DejaVuSans-61"/>
      <path d="M 10.796875 72.90625 
L 49.515625 72.90625 
L 49.515625 64.59375 
L 19.828125 64.59375 
L 19.828125 46.734375 
Q 21.96875 47.46875 24.109375 47.828125 
Q 26.265625 48.1875 28.421875 48.1875 
Q 40.625 48.1875 47.75 41.5 
Q 54.890625 34.8125 54.890625 23.390625 
Q 54.890625 11.625 47.5625 5.09375 
Q 40.234375 -1.421875 26.90625 -1.421875 
Q 22.3125 -1.421875 17.546875 -0.640625 
Q 12.796875 0.140625 7.71875 1.703125 
L 7.71875 11.625 
Q 12.109375 9.234375 16.796875 8.0625 
Q 21.484375 6.890625 26.703125 6.890625 
Q 35.15625 6.890625 40.078125 11.328125 
Q 45.015625 15.765625 45.015625 23.390625 
Q 45.015625 31 40.078125 35.4375 
Q 35.15625 39.890625 26.703125 39.890625 
Q 22.75 39.890625 18.8125 39.015625 
Q 14.890625 38.140625 10.796875 36.28125 
z
" id="DejaVuSans-53"/>
     </defs>
     <g transform="translate(21.020312 235.678)rotate(-90)scale(0.1 -0.1)">
      <use transform="translate(0 0.015625)" xlink:href="#DejaVuSans-82"/>
      <use transform="translate(69.482422 0.015625)" xlink:href="#DejaVuSans-101"/>
      <use transform="translate(131.005859 0.015625)" xlink:href="#DejaVuSans-108"/>
      <use transform="translate(158.789062 0.015625)" xlink:href="#DejaVuSans-97"/>
      <use transform="translate(220.068359 0.015625)" xlink:href="#DejaVuSans-116"/>
      <use transform="translate(259.277344 0.015625)" xlink:href="#DejaVuSans-105"/>
      <use transform="translate(287.060547 0.015625)" xlink:href="#DejaVuSans-118"/>
      <use transform="translate(346.240234 0.015625)" xlink:href="#DejaVuSans-101"/>
      <use transform="translate(440.23405 0.015625)" xlink:href="#DejaVuSans-101"/>
      <use transform="translate(501.757488 0.015625)" xlink:href="#DejaVuSans-114"/>
      <use transform="translate(542.870769 0.015625)" xlink:href="#DejaVuSans-114"/>
      <use transform="translate(583.98405 0.015625)" xlink:href="#DejaVuSans-111"/>
      <use transform="translate(645.165691 0.015625)" xlink:href="#DejaVuSans-114"/>
      <use transform="translate(686.278972 0.015625)" xlink:href="#DejaVuSans-32"/>
      <use transform="translate(718.066082 0.015625)" xlink:href="#DejaVuSans-40"/>
      <use transform="translate(757.079753 0.015625)" xlink:href="#DejaVuSans-Oblique-78"/>
      <use transform="translate(831.884441 -16.390625)scale(0.7)" xlink:href="#DejaVuSans-116"/>
      <use transform="translate(859.33073 -16.390625)scale(0.7)" xlink:href="#DejaVuSans-114"/>
      <use transform="translate(888.110027 -16.390625)scale(0.7)" xlink:href="#DejaVuSans-97"/>
      <use transform="translate(931.005535 -16.390625)scale(0.7)" xlink:href="#DejaVuSans-105"/>
      <use transform="translate(950.453777 -16.390625)scale(0.7)" xlink:href="#DejaVuSans-110"/>
      <use transform="translate(1017.035808 0.015625)" xlink:href="#DejaVuSans-61"/>
      <use transform="translate(1120.307292 0.015625)" xlink:href="#DejaVuSans-53"/>
      <use transform="translate(1183.930339 0.015625)" xlink:href="#DejaVuSans-41"/>
     </g>
    </g>
   </g>
   <g id="line2d_28">
    <path clip-path="url(#p0f38404881)" d="M 73.832724 290.212396 
L 77.145522 258.046751 
L 80.458321 234.183022 
L 83.771119 215.185647 
L 87.083917 199.532412 
L 90.396716 186.396065 
L 93.709554 175.250152 
L 97.022352 165.718526 
L 100.33515 157.513083 
L 103.647949 150.405603 
L 106.960747 144.212579 
L 110.273545 138.78562 
L 113.586344 134.004453 
L 116.899142 129.77121 
L 120.21194 126.00572 
L 123.524738 122.642101 
L 126.837537 119.625819 
L 130.150375 116.911554 
L 133.463173 114.461442 
L 136.775971 112.243853 
L 140.08877 110.232039 
L 143.401568 108.403516 
L 146.714366 106.739284 
L 150.027165 105.22312 
L 153.339963 103.841235 
L 156.652761 102.581678 
L 159.96556 101.434312 
L 163.278358 100.390309 
L 166.591156 99.442134 
L 169.903955 98.583526 
L 173.216753 97.8093 
L 176.529551 97.115277 
L 179.842389 96.498124 
L 183.155187 95.955216 
L 186.467986 95.484559 
L 189.780784 95.084631 
L 193.093582 94.754389 
L 196.406381 94.49317 
L 199.719179 94.300572 
L 203.031977 94.176424 
L 206.344776 94.120645 
L 209.657574 94.133258 
L 212.970412 94.214007 
L 216.28321 94.362143 
L 219.596008 94.576011 
L 222.908807 94.852359 
L 229.534403 95.567874 
L 239.472798 96.875896 
L 246.098395 97.718599 
L 252.723992 98.398354 
L 256.03679 98.653027 
L 259.349588 98.844245 
L 262.662387 98.970547 
L 265.975185 99.032867 
L 269.288023 99.034027 
L 275.913619 98.870826 
L 282.539216 98.523223 
L 289.164852 98.035346 
L 295.790449 97.44618 
L 305.728844 96.439641 
L 322.292835 94.611114 
L 342.169625 92.419267 
L 355.420858 91.070691 
L 365.359253 90.163096 
L 375.297688 89.371785 
L 385.236083 88.718886 
L 391.861679 88.370198 
L 398.487276 88.097002 
" style="fill:none;stroke:#ff0000;stroke-linecap:square;stroke-width:1.5;"/>
   </g>
   <g id="line2d_29">
    <path clip-path="url(#p0f38404881)" d="M 73.832724 242.276231 
L 77.145522 212.115148 
L 80.458321 190.173947 
L 83.771119 172.991093 
L 87.083917 159.016477 
L 90.396716 147.401064 
L 93.709554 137.607701 
L 97.022352 129.260224 
L 100.33515 122.078501 
L 103.647949 115.84712 
L 106.960747 110.397626 
L 110.273545 105.596985 
L 113.586344 101.339299 
L 116.899142 97.53963 
L 120.21194 94.129374 
L 123.524738 91.052648 
L 126.837537 88.263616 
L 130.150375 85.724413 
L 133.463173 83.403489 
L 136.775971 81.274462 
L 140.08877 79.315023 
L 143.401568 77.506269 
L 146.714366 75.832032 
L 150.027165 74.278499 
L 153.339963 72.83368 
L 156.652761 71.48726 
L 159.96556 70.230176 
L 163.278358 69.05464 
L 166.591156 67.953669 
L 169.903955 66.921231 
L 176.529551 65.041104 
L 183.155187 63.378349 
L 189.780784 61.904745 
L 196.406381 60.598107 
L 203.031977 59.441206 
L 209.657574 58.421072 
L 216.28321 57.528546 
L 222.908807 56.758047 
L 229.534403 56.107399 
L 236.16 55.57717 
L 242.785597 55.169587 
L 249.411193 54.885899 
L 256.03679 54.723105 
L 262.662387 54.670369 
L 269.288023 54.708062 
L 279.226418 54.875966 
L 305.728844 55.411399 
L 318.980037 55.548926 
L 335.544029 55.590393 
L 385.236083 55.581078 
L 398.487276 55.710292 
" style="fill:none;stroke:#0000ff;stroke-linecap:square;stroke-width:1.5;"/>
   </g>
   <g id="line2d_30">
    <path clip-path="url(#p0f38404881)" d="M 73.832724 219.161305 
L 77.145522 189.142154 
L 80.458321 168.972947 
L 83.771119 154.660473 
L 87.083917 143.657446 
L 90.396716 134.737194 
L 93.709554 127.309761 
L 97.022352 121.034831 
L 100.33515 115.678901 
L 103.647949 111.065477 
L 106.960747 107.065526 
L 110.273545 103.582905 
L 113.586344 100.539169 
L 116.899142 97.869055 
L 120.21194 95.518435 
L 123.524738 93.442869 
L 126.837537 91.605868 
L 130.150375 89.976921 
L 133.463173 88.530283 
L 136.775971 87.244007 
L 140.08877 86.09937 
L 143.401568 85.080084 
L 146.714366 84.17174 
L 150.027165 83.361643 
L 153.339963 82.63872 
L 156.652761 81.993732 
L 159.96556 81.419376 
L 163.278358 80.909683 
L 169.903955 80.063641 
L 176.529551 79.420353 
L 183.155187 78.958538 
L 189.780784 78.673213 
L 196.406381 78.571652 
L 203.031977 78.664576 
L 209.657574 78.960626 
L 212.970412 79.18815 
L 216.28321 79.471344 
L 219.596008 79.81258 
L 222.908807 80.213897 
L 226.221605 80.676252 
L 229.534403 81.198782 
L 236.16 82.404626 
L 249.411193 85.042047 
L 252.723992 85.622605 
L 256.03679 86.135246 
L 259.349588 86.571456 
L 262.662387 86.92776 
L 265.975185 87.204656 
L 269.288023 87.405458 
L 272.600821 87.535308 
L 275.913619 87.600332 
L 282.539216 87.5628 
L 289.164852 87.34575 
L 295.790449 86.995628 
L 302.416045 86.551213 
L 312.35444 85.773445 
L 332.23123 84.055385 
L 352.10806 82.349283 
L 365.359253 81.323604 
L 375.297688 80.655736 
L 385.236083 80.101378 
L 395.174478 79.685913 
L 398.487276 79.583214 
" style="fill:none;stroke:#00ffff;stroke-linecap:square;stroke-width:1.5;"/>
   </g>
   <g id="patch_3">
    <path d="M 57.6 307.584 
L 57.6 41.472 
" style="fill:none;stroke:#000000;stroke-linecap:square;stroke-linejoin:miter;stroke-width:0.8;"/>
   </g>
   <g id="patch_4">
    <path d="M 414.72 307.584 
L 414.72 41.472 
" style="fill:none;stroke:#000000;stroke-linecap:square;stroke-linejoin:miter;stroke-width:0.8;"/>
   </g>
   <g id="patch_5">
    <path d="M 57.6 307.584 
L 414.72 307.584 
" style="fill:none;stroke:#000000;stroke-linecap:square;stroke-linejoin:miter;stroke-width:0.8;"/>
   </g>
   <g id="patch_6">
    <path d="M 57.6 41.472 
L 414.72 41.472 
" style="fill:none;stroke:#000000;stroke-linecap:square;stroke-linejoin:miter;stroke-width:0.8;"/>
   </g>
   <g id="legend_1">
    <g id="patch_7">
     <path d="M 289.835625 302.584 
L 407.72 302.584 
Q 409.72 302.584 409.72 300.584 
L 409.72 257.549625 
Q 409.72 255.549625 407.72 255.549625 
L 289.835625 255.549625 
Q 287.835625 255.549625 287.835625 257.549625 
L 287.835625 300.584 
Q 287.835625 302.584 289.835625 302.584 
z
" style="fill:#ffffff;opacity:0.8;stroke:#cccccc;stroke-linejoin:miter;"/>
    </g>
    <g id="line2d_31">
     <path d="M 291.835625 263.648062 
L 311.835625 263.648062 
" style="fill:none;stroke:#ff0000;stroke-linecap:square;stroke-width:1.5;"/>
    </g>
    <g id="line2d_32"/>
    <g id="text_10">
     <!-- No grad. reg. -->
     <defs>
      <path d="M 9.8125 72.90625 
L 23.09375 72.90625 
L 55.421875 11.921875 
L 55.421875 72.90625 
L 64.984375 72.90625 
L 64.984375 0 
L 51.703125 0 
L 19.390625 60.984375 
L 19.390625 0 
L 9.8125 0 
z
" id="DejaVuSans-78"/>
      <path d="M 45.40625 27.984375 
Q 45.40625 37.75 41.375 43.109375 
Q 37.359375 48.484375 30.078125 48.484375 
Q 22.859375 48.484375 18.828125 43.109375 
Q 14.796875 37.75 14.796875 27.984375 
Q 14.796875 18.265625 18.828125 12.890625 
Q 22.859375 7.515625 30.078125 7.515625 
Q 37.359375 7.515625 41.375 12.890625 
Q 45.40625 18.265625 45.40625 27.984375 
z
M 54.390625 6.78125 
Q 54.390625 -7.171875 48.1875 -13.984375 
Q 42 -20.796875 29.203125 -20.796875 
Q 24.46875 -20.796875 20.265625 -20.09375 
Q 16.0625 -19.390625 12.109375 -17.921875 
L 12.109375 -9.1875 
Q 16.0625 -11.328125 19.921875 -12.34375 
Q 23.78125 -13.375 27.78125 -13.375 
Q 36.625 -13.375 41.015625 -8.765625 
Q 45.40625 -4.15625 45.40625 5.171875 
L 45.40625 9.625 
Q 42.625 4.78125 38.28125 2.390625 
Q 33.9375 0 27.875 0 
Q 17.828125 0 11.671875 7.65625 
Q 5.515625 15.328125 5.515625 27.984375 
Q 5.515625 40.671875 11.671875 48.328125 
Q 17.828125 56 27.875 56 
Q 33.9375 56 38.28125 53.609375 
Q 42.625 51.21875 45.40625 46.390625 
L 45.40625 54.6875 
L 54.390625 54.6875 
z
" id="DejaVuSans-103"/>
     </defs>
     <g transform="translate(319.835625 267.148062)scale(0.1 -0.1)">
      <use xlink:href="#DejaVuSans-78"/>
      <use x="74.804688" xlink:href="#DejaVuSans-111"/>
      <use x="135.986328" xlink:href="#DejaVuSans-32"/>
      <use x="167.773438" xlink:href="#DejaVuSans-103"/>
      <use x="231.25" xlink:href="#DejaVuSans-114"/>
      <use x="272.363281" xlink:href="#DejaVuSans-97"/>
      <use x="333.642578" xlink:href="#DejaVuSans-100"/>
      <use x="397.119141" xlink:href="#DejaVuSans-46"/>
      <use x="428.90625" xlink:href="#DejaVuSans-32"/>
      <use x="460.693359" xlink:href="#DejaVuSans-114"/>
      <use x="501.775391" xlink:href="#DejaVuSans-101"/>
      <use x="563.298828" xlink:href="#DejaVuSans-103"/>
      <use x="626.775391" xlink:href="#DejaVuSans-46"/>
     </g>
    </g>
    <g id="line2d_33">
     <path d="M 291.835625 278.326188 
L 311.835625 278.326188 
" style="fill:none;stroke:#0000ff;stroke-linecap:square;stroke-width:1.5;"/>
    </g>
    <g id="line2d_34"/>
    <g id="text_11">
     <!-- Grad. reg -->
     <defs>
      <path d="M 59.515625 10.40625 
L 59.515625 29.984375 
L 43.40625 29.984375 
L 43.40625 38.09375 
L 69.28125 38.09375 
L 69.28125 6.78125 
Q 63.578125 2.734375 56.6875 0.65625 
Q 49.8125 -1.421875 42 -1.421875 
Q 24.90625 -1.421875 15.25 8.5625 
Q 5.609375 18.5625 5.609375 36.375 
Q 5.609375 54.25 15.25 64.234375 
Q 24.90625 74.21875 42 74.21875 
Q 49.125 74.21875 55.546875 72.453125 
Q 61.96875 70.703125 67.390625 67.28125 
L 67.390625 56.78125 
Q 61.921875 61.421875 55.765625 63.765625 
Q 49.609375 66.109375 42.828125 66.109375 
Q 29.4375 66.109375 22.71875 58.640625 
Q 16.015625 51.171875 16.015625 36.375 
Q 16.015625 21.625 22.71875 14.15625 
Q 29.4375 6.6875 42.828125 6.6875 
Q 48.046875 6.6875 52.140625 7.59375 
Q 56.25 8.5 59.515625 10.40625 
z
" id="DejaVuSans-71"/>
     </defs>
     <g transform="translate(319.835625 281.826188)scale(0.1 -0.1)">
      <use xlink:href="#DejaVuSans-71"/>
      <use x="77.490234" xlink:href="#DejaVuSans-114"/>
      <use x="118.603516" xlink:href="#DejaVuSans-97"/>
      <use x="179.882812" xlink:href="#DejaVuSans-100"/>
      <use x="243.359375" xlink:href="#DejaVuSans-46"/>
      <use x="275.146484" xlink:href="#DejaVuSans-32"/>
      <use x="306.933594" xlink:href="#DejaVuSans-114"/>
      <use x="348.015625" xlink:href="#DejaVuSans-101"/>
      <use x="409.539062" xlink:href="#DejaVuSans-103"/>
     </g>
    </g>
    <g id="line2d_35">
     <path d="M 291.835625 293.004312 
L 311.835625 293.004312 
" style="fill:none;stroke:#00ffff;stroke-linecap:square;stroke-width:1.5;"/>
    </g>
    <g id="line2d_36"/>
    <g id="text_12">
     <!-- Second grad. reg -->
     <defs>
      <path d="M 53.515625 70.515625 
L 53.515625 60.890625 
Q 47.90625 63.578125 42.921875 64.890625 
Q 37.9375 66.21875 33.296875 66.21875 
Q 25.25 66.21875 20.875 63.09375 
Q 16.5 59.96875 16.5 54.203125 
Q 16.5 49.359375 19.40625 46.890625 
Q 22.3125 44.4375 30.421875 42.921875 
L 36.375 41.703125 
Q 47.40625 39.59375 52.65625 34.296875 
Q 57.90625 29 57.90625 20.125 
Q 57.90625 9.515625 50.796875 4.046875 
Q 43.703125 -1.421875 29.984375 -1.421875 
Q 24.8125 -1.421875 18.96875 -0.25 
Q 13.140625 0.921875 6.890625 3.21875 
L 6.890625 13.375 
Q 12.890625 10.015625 18.65625 8.296875 
Q 24.421875 6.59375 29.984375 6.59375 
Q 38.421875 6.59375 43.015625 9.90625 
Q 47.609375 13.234375 47.609375 19.390625 
Q 47.609375 24.75 44.3125 27.78125 
Q 41.015625 30.8125 33.5 32.328125 
L 27.484375 33.5 
Q 16.453125 35.6875 11.515625 40.375 
Q 6.59375 45.0625 6.59375 53.421875 
Q 6.59375 63.09375 13.40625 68.65625 
Q 20.21875 74.21875 32.171875 74.21875 
Q 37.3125 74.21875 42.625 73.28125 
Q 47.953125 72.359375 53.515625 70.515625 
z
" id="DejaVuSans-83"/>
     </defs>
     <g transform="translate(319.835625 296.504312)scale(0.1 -0.1)">
      <use xlink:href="#DejaVuSans-83"/>
      <use x="63.476562" xlink:href="#DejaVuSans-101"/>
      <use x="125" xlink:href="#DejaVuSans-99"/>
      <use x="179.980469" xlink:href="#DejaVuSans-111"/>
      <use x="241.162109" xlink:href="#DejaVuSans-110"/>
      <use x="304.541016" xlink:href="#DejaVuSans-100"/>
      <use x="368.017578" xlink:href="#DejaVuSans-32"/>
      <use x="399.804688" xlink:href="#DejaVuSans-103"/>
      <use x="463.28125" xlink:href="#DejaVuSans-114"/>
      <use x="504.394531" xlink:href="#DejaVuSans-97"/>
      <use x="565.673828" xlink:href="#DejaVuSans-100"/>
      <use x="629.150391" xlink:href="#DejaVuSans-46"/>
      <use x="660.9375" xlink:href="#DejaVuSans-32"/>
      <use x="692.724609" xlink:href="#DejaVuSans-114"/>
      <use x="733.806641" xlink:href="#DejaVuSans-101"/>
      <use x="795.330078" xlink:href="#DejaVuSans-103"/>
     </g>
    </g>
   </g>
  </g>
 </g>
 <defs>
  <clipPath id="p0f38404881">
   <rect height="266.112" width="357.12" x="57.6" y="41.472"/>
  </clipPath>
 </defs>
</svg>
