<?xml version="1.0" encoding="utf-8" standalone="no"?>
<!DOCTYPE svg PUBLIC "-//W3C//DTD SVG 1.1//EN"
  "http://www.w3.org/Graphics/SVG/1.1/DTD/svg11.dtd">
<!-- Created with matplotlib (https://matplotlib.org/) -->
<svg height="345.6pt" version="1.1" viewBox="0 0 460.8 345.6" width="460.8pt" xmlns="http://www.w3.org/2000/svg" xmlns:xlink="http://www.w3.org/1999/xlink">
 <defs>
  <style type="text/css">
*{stroke-linecap:butt;stroke-linejoin:round;white-space:pre;}
  </style>
 </defs>
 <g id="figure_1">
  <g id="patch_1">
   <path d="M 0 345.6 
L 460.8 345.6 
L 460.8 0 
L 0 0 
z
" style="fill:#ffffff;"/>
  </g>
  <g id="axes_1">
   <g id="patch_2">
    <path d="M 57.6 307.584 
L 414.72 307.584 
L 414.72 41.472 
L 57.6 41.472 
z
" style="fill:#ffffff;"/>
   </g>
   <g id="PolyCollection_1">
    <path clip-path="url(#p758eb46f3a)" d="M 73.832727 285.623175 
L 73.832727 295.488 
L 77.145529 263.409388 
L 80.45833 239.620479 
L 83.771132 220.661841 
L 87.083933 205.002776 
L 90.396735 191.81893 
L 93.709536 180.593066 
L 97.022338 170.959183 
L 100.335139 162.63788 
L 103.647941 155.407787 
L 106.960742 149.090286 
L 110.273544 143.540238 
L 113.586345 138.639443 
L 116.899147 134.291287 
L 120.211948 130.416431 
L 123.52475 126.949507 
L 126.837551 123.836387 
L 130.150353 121.03201 
L 133.463154 118.49869 
L 136.775955 116.20486 
L 140.088757 114.123987 
L 143.401558 112.233648 
L 146.71436 110.514804 
L 150.027161 108.951271 
L 153.339963 107.529304 
L 156.652764 106.23723 
L 159.965566 105.065132 
L 163.278367 104.004507 
L 166.591169 103.048003 
L 169.90397 102.189299 
L 173.216772 101.422955 
L 176.529573 100.744248 
L 179.842375 100.14901 
L 183.155176 99.633685 
L 186.467978 99.195384 
L 189.780779 98.83184 
L 193.093581 98.541353 
L 196.406382 98.322706 
L 199.719184 98.175074 
L 203.031985 98.097856 
L 206.344787 98.09049 
L 209.657588 98.152226 
L 212.97039 98.281884 
L 216.283191 98.477491 
L 219.595993 98.7358 
L 222.908794 99.051697 
L 226.221596 99.417564 
L 229.534397 99.822701 
L 232.847199 100.253017 
L 236.16 100.691305 
L 239.472801 101.118272 
L 242.785603 101.51431 
L 246.098404 101.861593 
L 249.411206 102.145903 
L 252.724007 102.357678 
L 256.036809 102.492173 
L 259.34961 102.548919 
L 262.662412 102.530796 
L 265.975213 102.44302 
L 269.288015 102.29222 
L 272.600816 102.085688 
L 275.913618 101.830831 
L 279.226419 101.534805 
L 282.539221 101.204294 
L 285.852022 100.845402 
L 289.164824 100.463603 
L 292.477625 100.06376 
L 295.790427 99.650152 
L 299.103228 99.226527 
L 302.41603 98.796145 
L 305.728831 98.361837 
L 309.041633 97.926063 
L 312.354434 97.490955 
L 315.667236 97.058363 
L 318.980037 96.629892 
L 322.292839 96.206943 
L 325.60564 95.790754 
L 328.918442 95.382429 
L 332.231243 94.982967 
L 335.544045 94.593281 
L 338.856846 94.214213 
L 342.169647 93.846541 
L 345.482449 93.49098 
L 348.79525 93.148178 
L 352.108052 92.818713 
L 355.420853 92.503086 
L 358.733655 92.201701 
L 362.046456 91.914819 
L 365.359258 91.642588 
L 368.672059 91.385081 
L 371.984861 91.14235 
L 375.297662 90.914442 
L 378.610464 90.701423 
L 381.923265 90.503385 
L 385.236067 90.320447 
L 388.548868 90.152759 
L 391.86167 90.000499 
L 395.174471 89.863882 
L 398.487273 89.743164 
L 398.487273 81.217375 
L 398.487273 81.217375 
L 395.174471 81.361897 
L 391.86167 81.527787 
L 388.548868 81.714472 
L 385.236067 81.921378 
L 381.923265 82.147913 
L 378.610464 82.39347 
L 375.297662 82.65743 
L 371.984861 82.939167 
L 368.672059 83.238053 
L 365.359258 83.553461 
L 362.046456 83.884752 
L 358.733655 84.231283 
L 355.420853 84.592402 
L 352.108052 84.967455 
L 348.79525 85.355788 
L 345.482449 85.756743 
L 342.169647 86.169654 
L 338.856846 86.593843 
L 335.544045 87.028613 
L 332.231243 87.473238 
L 328.918442 87.926945 
L 325.60564 88.388897 
L 322.292839 88.858176 
L 318.980037 89.33376 
L 315.667236 89.814497 
L 312.354434 90.299074 
L 309.041633 90.785988 
L 305.728831 91.273505 
L 302.41603 91.759612 
L 299.103228 92.241962 
L 295.790427 92.717818 
L 292.477625 93.183972 
L 289.164824 93.63668 
L 285.852022 94.071575 
L 282.539221 94.483586 
L 279.226419 94.866862 
L 275.913618 95.214721 
L 272.600816 95.519647 
L 269.288015 95.773368 
L 265.975213 95.967074 
L 262.662412 96.091836 
L 259.34961 96.139308 
L 256.036809 96.102761 
L 252.724007 95.978438 
L 249.411206 95.767052 
L 246.098404 95.475059 
L 242.785603 95.115129 
L 239.472801 94.705384 
L 236.16 94.267356 
L 232.847199 93.823288 
L 229.534397 93.393661 
L 226.221596 92.995645 
L 222.908794 92.642515 
L 219.595993 92.343833 
L 216.283191 92.106069 
L 212.97039 91.933335 
L 209.657588 91.828084 
L 206.344787 91.79169 
L 203.031985 91.824916 
L 199.719184 91.928223 
L 196.406382 92.101984 
L 193.093581 92.346647 
L 189.780779 92.662861 
L 186.467978 93.051599 
L 183.155176 93.514215 
L 179.842375 94.052462 
L 176.529573 94.668573 
L 173.216772 95.36532 
L 169.90397 96.146043 
L 166.591169 97.014711 
L 163.278367 97.976063 
L 159.965566 99.035737 
L 156.652764 100.200403 
L 153.339963 101.477934 
L 150.027161 102.877666 
L 146.71436 104.410653 
L 143.401558 106.089928 
L 140.088757 107.930841 
L 136.775955 109.951466 
L 133.463154 112.173155 
L 130.150353 114.621289 
L 126.837551 117.326131 
L 123.52475 120.323871 
L 120.211948 123.657946 
L 116.899147 127.380791 
L 113.586345 131.556028 
L 110.273544 136.261302 
L 106.960742 141.591996 
L 103.647941 147.665962 
L 100.335139 154.629359 
L 97.022338 162.664385 
L 93.709536 171.999964 
L 90.396735 182.927433 
L 87.083933 195.828828 
L 83.771132 211.239379 
L 80.45833 229.997976 
L 77.145529 253.640535 
L 73.832727 285.623175 
z
" style="fill:#ff0000;fill-opacity:0.4;"/>
   </g>
   <g id="PolyCollection_2">
    <path clip-path="url(#p758eb46f3a)" d="M 73.832727 245.368285 
L 73.832727 252.517462 
L 77.145529 222.147299 
L 80.45833 200.017811 
L 83.771132 182.646168 
L 87.083933 168.476677 
L 90.396735 156.6626 
L 93.709536 146.6722 
L 97.022338 138.134625 
L 100.335139 130.773482 
L 103.647941 124.375288 
L 106.960742 118.77216 
L 110.273544 113.830759 
L 113.586345 109.444411 
L 116.899147 105.527204 
L 120.211948 102.00948 
L 123.52475 98.834365 
L 126.837551 95.955095 
L 130.150353 93.332949 
L 133.463154 90.935651 
L 136.775955 88.736113 
L 140.088757 86.711466 
L 143.401558 84.842282 
L 146.71436 83.111968 
L 150.027161 81.506276 
L 153.339963 80.01291 
L 156.652764 78.621212 
L 159.965566 77.321905 
L 163.278367 76.10688 
L 166.591169 74.969027 
L 169.90397 73.902089 
L 173.216772 72.900547 
L 176.529573 71.959521 
L 179.842375 71.074688 
L 183.155176 70.242216 
L 186.467978 69.458706 
L 189.780779 68.721146 
L 193.093581 68.026871 
L 196.406382 67.373535 
L 199.719184 66.759082 
L 203.031985 66.181726 
L 206.344787 65.639937 
L 209.657588 65.132426 
L 212.97039 64.658134 
L 216.283191 64.216228 
L 219.595993 63.806083 
L 222.908794 63.427279 
L 226.221596 63.079576 
L 229.534397 62.762896 
L 232.847199 62.477283 
L 236.16 62.222848 
L 239.472801 61.999705 
L 242.785603 61.807881 
L 246.098404 61.647213 
L 249.411206 61.517243 
L 252.724007 61.41712 
L 256.036809 61.345518 
L 259.34961 61.300601 
L 262.662412 61.280035 
L 265.975213 61.281047 
L 269.288015 61.30054 
L 272.600816 61.33522 
L 275.913618 61.381758 
L 279.226419 61.436919 
L 282.539221 61.497688 
L 285.852022 61.561358 
L 289.164824 61.62558 
L 292.477625 61.688391 
L 295.790427 61.748215 
L 299.103228 61.80384 
L 302.41603 61.854389 
L 305.728831 61.899283 
L 309.041633 61.938199 
L 312.354434 61.971034 
L 315.667236 61.997866 
L 318.980037 62.018922 
L 322.292839 62.034548 
L 325.60564 62.045186 
L 328.918442 62.051352 
L 332.231243 62.053616 
L 335.544045 62.052589 
L 338.856846 62.048909 
L 342.169647 62.04323 
L 345.482449 62.036214 
L 348.79525 62.028521 
L 352.108052 62.020801 
L 355.420853 62.01369 
L 358.733655 62.007806 
L 362.046456 62.003737 
L 365.359258 62.002045 
L 368.672059 62.003255 
L 371.984861 62.007853 
L 375.297662 62.016285 
L 378.610464 62.028946 
L 381.923265 62.046181 
L 385.236067 62.068276 
L 388.548868 62.095449 
L 391.86167 62.127844 
L 395.174471 62.165516 
L 398.487273 62.208417 
L 398.487273 60.220854 
L 398.487273 60.220854 
L 395.174471 60.182649 
L 391.86167 60.149826 
L 388.548868 60.122369 
L 385.236067 60.100165 
L 381.923265 60.083024 
L 378.610464 60.070682 
L 375.297662 60.06281 
L 371.984861 60.059025 
L 368.672059 60.058886 
L 365.359258 60.061907 
L 362.046456 60.067554 
L 358.733655 60.075252 
L 355.420853 60.084386 
L 352.108052 60.094309 
L 348.79525 60.104342 
L 345.482449 60.113783 
L 342.169647 60.121908 
L 338.856846 60.127981 
L 335.544045 60.131258 
L 332.231243 60.130996 
L 328.918442 60.126465 
L 325.60564 60.116952 
L 322.292839 60.101782 
L 318.980037 60.08033 
L 315.667236 60.052042 
L 312.354434 60.01646 
L 309.041633 59.973254 
L 305.728831 59.922255 
L 302.41603 59.863499 
L 299.103228 59.797279 
L 295.790427 59.724196 
L 292.477625 59.645217 
L 289.164824 59.561731 
L 285.852022 59.475589 
L 282.539221 59.389134 
L 279.226419 59.305196 
L 275.913618 59.227048 
L 272.600816 59.158313 
L 269.288015 59.102825 
L 265.975213 59.064444 
L 262.662412 59.046855 
L 259.34961 59.053366 
L 256.036809 59.08674 
L 252.724007 59.149094 
L 249.411206 59.241865 
L 246.098404 59.365854 
L 242.785603 59.521323 
L 239.472801 59.708138 
L 236.16 59.925905 
L 232.847199 60.174118 
L 229.534397 60.452263 
L 226.221596 60.759914 
L 222.908794 61.096788 
L 219.595993 61.462787 
L 216.283191 61.858021 
L 212.97039 62.282819 
L 209.657588 62.737735 
L 206.344787 63.223548 
L 203.031985 63.741268 
L 199.719184 64.292133 
L 196.406382 64.877621 
L 193.093581 65.499456 
L 189.780779 66.15962 
L 186.467978 66.860372 
L 183.155176 67.604274 
L 179.842375 68.394215 
L 176.529573 69.233453 
L 173.216772 70.125656 
L 169.90397 71.074955 
L 166.591169 72.086012 
L 163.278367 73.164098 
L 159.965566 74.315184 
L 156.652764 75.546058 
L 153.339963 76.864461 
L 150.027161 78.279255 
L 146.71436 79.800628 
L 143.401558 81.440338 
L 140.088757 83.212031 
L 136.775955 85.131615 
L 133.463154 87.217744 
L 130.150353 89.492418 
L 126.837551 91.98175 
L 123.52475 94.716936 
L 120.211948 97.735518 
L 116.899147 101.083005 
L 113.586345 104.815 
L 110.273544 108.999984 
L 106.960742 113.722987 
L 103.647941 119.090459 
L 100.335139 125.236744 
L 97.022338 132.332814 
L 93.709536 140.598412 
L 90.396735 150.320324 
L 87.083933 161.883889 
L 83.771132 175.83726 
L 80.45833 193.041052 
L 77.145529 215.057723 
L 73.832727 245.368285 
z
" style="fill:#0000ff;fill-opacity:0.4;"/>
   </g>
   <g id="PolyCollection_3">
    <path clip-path="url(#p758eb46f3a)" d="M 73.832727 200.475577 
L 73.832727 210.464325 
L 77.145529 180.3893 
L 80.45833 160.760311 
L 83.771132 147.347773 
L 87.083933 136.973404 
L 90.396735 128.483123 
L 93.709536 121.368186 
L 97.022338 115.332008 
L 100.335139 110.165968 
L 103.647941 105.711411 
L 106.960742 101.844114 
L 110.273544 98.466002 
L 113.586345 95.499245 
L 116.899147 92.880952 
L 120.211948 90.560442 
L 123.52475 88.4972 
L 126.837551 86.658603 
L 130.150353 85.017466 
L 133.463154 83.551063 
L 136.775955 82.240326 
L 140.088757 81.069187 
L 143.401558 80.024119 
L 146.71436 79.093789 
L 150.027161 78.268813 
L 153.339963 77.541488 
L 156.652764 76.905431 
L 159.965566 76.355352 
L 163.278367 75.886724 
L 166.591169 75.495373 
L 169.90397 75.177353 
L 173.216772 74.929253 
L 176.529573 74.748685 
L 179.842375 74.63422 
L 183.155176 74.584917 
L 186.467978 74.599822 
L 189.780779 74.67762 
L 193.093581 74.816293 
L 196.406382 75.013353 
L 199.719184 75.266584 
L 203.031985 75.574624 
L 206.344787 75.936964 
L 209.657588 76.353801 
L 212.97039 76.826088 
L 216.283191 77.355834 
L 219.595993 77.945812 
L 222.908794 78.598291 
L 226.221596 79.31356 
L 229.534397 80.08869 
L 232.847199 80.916805 
L 236.16 81.786936 
L 239.472801 82.684204 
L 242.785603 83.590904 
L 246.098404 84.488762 
L 249.411206 85.361026 
L 252.724007 86.192658 
L 256.036809 86.970544 
L 259.34961 87.684567 
L 262.662412 88.327927 
L 265.975213 88.896702 
L 269.288015 89.390183 
L 272.600816 89.81055 
L 275.913618 90.161867 
L 279.226419 90.44924 
L 282.539221 90.678639 
L 285.852022 90.856573 
L 289.164824 90.989539 
L 292.477625 91.083687 
L 295.790427 91.144776 
L 299.103228 91.178139 
L 302.41603 91.188647 
L 305.728831 91.180652 
L 309.041633 91.157936 
L 312.354434 91.123745 
L 315.667236 91.080863 
L 318.980037 91.031691 
L 322.292839 90.978041 
L 325.60564 90.920377 
L 328.918442 90.857785 
L 332.231243 90.789305 
L 335.544045 90.714846 
L 338.856846 90.635031 
L 342.169647 90.550789 
L 345.482449 90.463132 
L 348.79525 90.373121 
L 352.108052 90.281841 
L 355.420853 90.190368 
L 358.733655 90.099718 
L 362.046456 90.010818 
L 365.359258 89.924498 
L 368.672059 89.841479 
L 371.984861 89.762503 
L 375.297662 89.688472 
L 378.610464 89.620435 
L 381.923265 89.559428 
L 385.236067 89.506441 
L 388.548868 89.462428 
L 391.86167 89.428301 
L 395.174471 89.404923 
L 398.487273 89.393099 
L 398.487273 53.568 
L 398.487273 53.568 
L 395.174471 53.683077 
L 391.86167 53.804723 
L 388.548868 53.9327 
L 385.236067 54.066794 
L 381.923265 54.206802 
L 378.610464 54.352538 
L 375.297662 54.503824 
L 371.984861 54.660487 
L 368.672059 54.822361 
L 365.359258 54.989286 
L 362.046456 55.161096 
L 358.733655 55.337615 
L 355.420853 55.518659 
L 352.108052 55.704034 
L 348.79525 55.893532 
L 345.482449 56.086931 
L 342.169647 56.28399 
L 338.856846 56.484447 
L 335.544045 56.688012 
L 332.231243 56.894367 
L 328.918442 57.103169 
L 325.60564 57.31405 
L 322.292839 57.526576 
L 318.980037 57.740203 
L 315.667236 57.954283 
L 312.354434 58.168104 
L 309.041633 58.38088 
L 305.728831 58.591707 
L 302.41603 58.799552 
L 299.103228 59.003235 
L 295.790427 59.201426 
L 292.477625 59.392624 
L 289.164824 59.575157 
L 285.852022 59.747184 
L 282.539221 59.906707 
L 279.226419 60.051626 
L 275.913618 60.17982 
L 272.600816 60.289246 
L 269.288015 60.378111 
L 265.975213 60.445068 
L 262.662412 60.48952 
L 259.34961 60.511847 
L 256.036809 60.513591 
L 252.724007 60.497597 
L 249.411206 60.467981 
L 246.098404 60.429865 
L 242.785603 60.388953 
L 239.472801 60.351187 
L 236.16 60.322223 
L 232.847199 60.307053 
L 229.534397 60.309822 
L 226.221596 60.333787 
L 222.908794 60.381352 
L 219.595993 60.454197 
L 216.283191 60.553418 
L 212.97039 60.679745 
L 209.657588 60.833694 
L 206.344787 61.015675 
L 203.031985 61.226005 
L 199.719184 61.464984 
L 196.406382 61.733011 
L 193.093581 62.030717 
L 189.780779 62.358958 
L 186.467978 62.718729 
L 183.155176 63.111098 
L 179.842375 63.537344 
L 176.529573 63.99917 
L 173.216772 64.498707 
L 169.90397 65.038595 
L 166.591169 65.622123 
L 163.278367 66.253267 
L 159.965566 66.936658 
L 156.652764 67.67761 
L 153.339963 68.482227 
L 150.027161 69.357412 
L 146.71436 70.310869 
L 143.401558 71.351387 
L 140.088757 72.489007 
L 136.775955 73.735206 
L 133.463154 75.103179 
L 130.150353 76.60823 
L 126.837551 78.268453 
L 123.52475 80.105236 
L 120.211948 82.143898 
L 116.899147 84.41492 
L 113.586345 86.956212 
L 110.273544 89.815203 
L 106.960742 93.052295 
L 103.647941 96.746188 
L 100.335139 101.00015 
L 97.022338 105.949359 
L 93.709536 111.772132 
L 90.396735 118.707022 
L 87.083933 127.093113 
L 83.771132 137.488216 
L 80.45833 151.031356 
L 77.145529 170.553977 
L 73.832727 200.475577 
z
" style="fill:#00ffff;fill-opacity:0.4;"/>
   </g>
   <g id="matplotlib.axis_1">
    <g id="xtick_1">
     <g id="line2d_1">
      <path clip-path="url(#p758eb46f3a)" d="M 70.519926 307.584 
L 70.519926 41.472 
" style="fill:none;stroke:#b0b0b0;stroke-linecap:square;stroke-width:0.8;"/>
     </g>
     <g id="line2d_2">
      <defs>
       <path d="M 0 0 
L 0 3.5 
" id="m5aa61507a8" style="stroke:#000000;stroke-width:0.8;"/>
      </defs>
      <g>
       <use style="stroke:#000000;stroke-width:0.8;" x="70.519926" xlink:href="#m5aa61507a8" y="307.584"/>
      </g>
     </g>
     <g id="text_1">
      <!-- 0.0 -->
      <defs>
       <path d="M 31.78125 66.40625 
Q 24.171875 66.40625 20.328125 58.90625 
Q 16.5 51.421875 16.5 36.375 
Q 16.5 21.390625 20.328125 13.890625 
Q 24.171875 6.390625 31.78125 6.390625 
Q 39.453125 6.390625 43.28125 13.890625 
Q 47.125 21.390625 47.125 36.375 
Q 47.125 51.421875 43.28125 58.90625 
Q 39.453125 66.40625 31.78125 66.40625 
z
M 31.78125 74.21875 
Q 44.046875 74.21875 50.515625 64.515625 
Q 56.984375 54.828125 56.984375 36.375 
Q 56.984375 17.96875 50.515625 8.265625 
Q 44.046875 -1.421875 31.78125 -1.421875 
Q 19.53125 -1.421875 13.0625 8.265625 
Q 6.59375 17.96875 6.59375 36.375 
Q 6.59375 54.828125 13.0625 64.515625 
Q 19.53125 74.21875 31.78125 74.21875 
z
" id="DejaVuSans-48"/>
       <path d="M 10.6875 12.40625 
L 21 12.40625 
L 21 0 
L 10.6875 0 
z
" id="DejaVuSans-46"/>
      </defs>
      <g transform="translate(62.568363 322.182437)scale(0.1 -0.1)">
       <use xlink:href="#DejaVuSans-48"/>
       <use x="63.623047" xlink:href="#DejaVuSans-46"/>
       <use x="95.410156" xlink:href="#DejaVuSans-48"/>
      </g>
     </g>
    </g>
    <g id="xtick_2">
     <g id="line2d_3">
      <path clip-path="url(#p758eb46f3a)" d="M 136.775955 307.584 
L 136.775955 41.472 
" style="fill:none;stroke:#b0b0b0;stroke-linecap:square;stroke-width:0.8;"/>
     </g>
     <g id="line2d_4">
      <g>
       <use style="stroke:#000000;stroke-width:0.8;" x="136.775955" xlink:href="#m5aa61507a8" y="307.584"/>
      </g>
     </g>
     <g id="text_2">
      <!-- 0.2 -->
      <defs>
       <path d="M 19.1875 8.296875 
L 53.609375 8.296875 
L 53.609375 0 
L 7.328125 0 
L 7.328125 8.296875 
Q 12.9375 14.109375 22.625 23.890625 
Q 32.328125 33.6875 34.8125 36.53125 
Q 39.546875 41.84375 41.421875 45.53125 
Q 43.3125 49.21875 43.3125 52.78125 
Q 43.3125 58.59375 39.234375 62.25 
Q 35.15625 65.921875 28.609375 65.921875 
Q 23.96875 65.921875 18.8125 64.3125 
Q 13.671875 62.703125 7.8125 59.421875 
L 7.8125 69.390625 
Q 13.765625 71.78125 18.9375 73 
Q 24.125 74.21875 28.421875 74.21875 
Q 39.75 74.21875 46.484375 68.546875 
Q 53.21875 62.890625 53.21875 53.421875 
Q 53.21875 48.921875 51.53125 44.890625 
Q 49.859375 40.875 45.40625 35.40625 
Q 44.1875 33.984375 37.640625 27.21875 
Q 31.109375 20.453125 19.1875 8.296875 
z
" id="DejaVuSans-50"/>
      </defs>
      <g transform="translate(128.824393 322.182437)scale(0.1 -0.1)">
       <use xlink:href="#DejaVuSans-48"/>
       <use x="63.623047" xlink:href="#DejaVuSans-46"/>
       <use x="95.410156" xlink:href="#DejaVuSans-50"/>
      </g>
     </g>
    </g>
    <g id="xtick_3">
     <g id="line2d_5">
      <path clip-path="url(#p758eb46f3a)" d="M 203.031985 307.584 
L 203.031985 41.472 
" style="fill:none;stroke:#b0b0b0;stroke-linecap:square;stroke-width:0.8;"/>
     </g>
     <g id="line2d_6">
      <g>
       <use style="stroke:#000000;stroke-width:0.8;" x="203.031985" xlink:href="#m5aa61507a8" y="307.584"/>
      </g>
     </g>
     <g id="text_3">
      <!-- 0.4 -->
      <defs>
       <path d="M 37.796875 64.3125 
L 12.890625 25.390625 
L 37.796875 25.390625 
z
M 35.203125 72.90625 
L 47.609375 72.90625 
L 47.609375 25.390625 
L 58.015625 25.390625 
L 58.015625 17.1875 
L 47.609375 17.1875 
L 47.609375 0 
L 37.796875 0 
L 37.796875 17.1875 
L 4.890625 17.1875 
L 4.890625 26.703125 
z
" id="DejaVuSans-52"/>
      </defs>
      <g transform="translate(195.080423 322.182437)scale(0.1 -0.1)">
       <use xlink:href="#DejaVuSans-48"/>
       <use x="63.623047" xlink:href="#DejaVuSans-46"/>
       <use x="95.410156" xlink:href="#DejaVuSans-52"/>
      </g>
     </g>
    </g>
    <g id="xtick_4">
     <g id="line2d_7">
      <path clip-path="url(#p758eb46f3a)" d="M 269.288015 307.584 
L 269.288015 41.472 
" style="fill:none;stroke:#b0b0b0;stroke-linecap:square;stroke-width:0.8;"/>
     </g>
     <g id="line2d_8">
      <g>
       <use style="stroke:#000000;stroke-width:0.8;" x="269.288015" xlink:href="#m5aa61507a8" y="307.584"/>
      </g>
     </g>
     <g id="text_4">
      <!-- 0.6 -->
      <defs>
       <path d="M 33.015625 40.375 
Q 26.375 40.375 22.484375 35.828125 
Q 18.609375 31.296875 18.609375 23.390625 
Q 18.609375 15.53125 22.484375 10.953125 
Q 26.375 6.390625 33.015625 6.390625 
Q 39.65625 6.390625 43.53125 10.953125 
Q 47.40625 15.53125 47.40625 23.390625 
Q 47.40625 31.296875 43.53125 35.828125 
Q 39.65625 40.375 33.015625 40.375 
z
M 52.59375 71.296875 
L 52.59375 62.3125 
Q 48.875 64.0625 45.09375 64.984375 
Q 41.3125 65.921875 37.59375 65.921875 
Q 27.828125 65.921875 22.671875 59.328125 
Q 17.53125 52.734375 16.796875 39.40625 
Q 19.671875 43.65625 24.015625 45.921875 
Q 28.375 48.1875 33.59375 48.1875 
Q 44.578125 48.1875 50.953125 41.515625 
Q 57.328125 34.859375 57.328125 23.390625 
Q 57.328125 12.15625 50.6875 5.359375 
Q 44.046875 -1.421875 33.015625 -1.421875 
Q 20.359375 -1.421875 13.671875 8.265625 
Q 6.984375 17.96875 6.984375 36.375 
Q 6.984375 53.65625 15.1875 63.9375 
Q 23.390625 74.21875 37.203125 74.21875 
Q 40.921875 74.21875 44.703125 73.484375 
Q 48.484375 72.75 52.59375 71.296875 
z
" id="DejaVuSans-54"/>
      </defs>
      <g transform="translate(261.336452 322.182437)scale(0.1 -0.1)">
       <use xlink:href="#DejaVuSans-48"/>
       <use x="63.623047" xlink:href="#DejaVuSans-46"/>
       <use x="95.410156" xlink:href="#DejaVuSans-54"/>
      </g>
     </g>
    </g>
    <g id="xtick_5">
     <g id="line2d_9">
      <path clip-path="url(#p758eb46f3a)" d="M 335.544045 307.584 
L 335.544045 41.472 
" style="fill:none;stroke:#b0b0b0;stroke-linecap:square;stroke-width:0.8;"/>
     </g>
     <g id="line2d_10">
      <g>
       <use style="stroke:#000000;stroke-width:0.8;" x="335.544045" xlink:href="#m5aa61507a8" y="307.584"/>
      </g>
     </g>
     <g id="text_5">
      <!-- 0.8 -->
      <defs>
       <path d="M 31.78125 34.625 
Q 24.75 34.625 20.71875 30.859375 
Q 16.703125 27.09375 16.703125 20.515625 
Q 16.703125 13.921875 20.71875 10.15625 
Q 24.75 6.390625 31.78125 6.390625 
Q 38.8125 6.390625 42.859375 10.171875 
Q 46.921875 13.96875 46.921875 20.515625 
Q 46.921875 27.09375 42.890625 30.859375 
Q 38.875 34.625 31.78125 34.625 
z
M 21.921875 38.8125 
Q 15.578125 40.375 12.03125 44.71875 
Q 8.5 49.078125 8.5 55.328125 
Q 8.5 64.0625 14.71875 69.140625 
Q 20.953125 74.21875 31.78125 74.21875 
Q 42.671875 74.21875 48.875 69.140625 
Q 55.078125 64.0625 55.078125 55.328125 
Q 55.078125 49.078125 51.53125 44.71875 
Q 48 40.375 41.703125 38.8125 
Q 48.828125 37.15625 52.796875 32.3125 
Q 56.78125 27.484375 56.78125 20.515625 
Q 56.78125 9.90625 50.3125 4.234375 
Q 43.84375 -1.421875 31.78125 -1.421875 
Q 19.734375 -1.421875 13.25 4.234375 
Q 6.78125 9.90625 6.78125 20.515625 
Q 6.78125 27.484375 10.78125 32.3125 
Q 14.796875 37.15625 21.921875 38.8125 
z
M 18.3125 54.390625 
Q 18.3125 48.734375 21.84375 45.5625 
Q 25.390625 42.390625 31.78125 42.390625 
Q 38.140625 42.390625 41.71875 45.5625 
Q 45.3125 48.734375 45.3125 54.390625 
Q 45.3125 60.0625 41.71875 63.234375 
Q 38.140625 66.40625 31.78125 66.40625 
Q 25.390625 66.40625 21.84375 63.234375 
Q 18.3125 60.0625 18.3125 54.390625 
z
" id="DejaVuSans-56"/>
      </defs>
      <g transform="translate(327.592482 322.182437)scale(0.1 -0.1)">
       <use xlink:href="#DejaVuSans-48"/>
       <use x="63.623047" xlink:href="#DejaVuSans-46"/>
       <use x="95.410156" xlink:href="#DejaVuSans-56"/>
      </g>
     </g>
    </g>
    <g id="xtick_6">
     <g id="line2d_11">
      <path clip-path="url(#p758eb46f3a)" d="M 401.800074 307.584 
L 401.800074 41.472 
" style="fill:none;stroke:#b0b0b0;stroke-linecap:square;stroke-width:0.8;"/>
     </g>
     <g id="line2d_12">
      <g>
       <use style="stroke:#000000;stroke-width:0.8;" x="401.800074" xlink:href="#m5aa61507a8" y="307.584"/>
      </g>
     </g>
     <g id="text_6">
      <!-- 1.0 -->
      <defs>
       <path d="M 12.40625 8.296875 
L 28.515625 8.296875 
L 28.515625 63.921875 
L 10.984375 60.40625 
L 10.984375 69.390625 
L 28.421875 72.90625 
L 38.28125 72.90625 
L 38.28125 8.296875 
L 54.390625 8.296875 
L 54.390625 0 
L 12.40625 0 
z
" id="DejaVuSans-49"/>
      </defs>
      <g transform="translate(393.848512 322.182437)scale(0.1 -0.1)">
       <use xlink:href="#DejaVuSans-49"/>
       <use x="63.623047" xlink:href="#DejaVuSans-46"/>
       <use x="95.410156" xlink:href="#DejaVuSans-48"/>
      </g>
     </g>
    </g>
    <g id="text_7">
     <!-- $\mathrm{Time \ (seconds)}$ -->
     <defs>
      <path d="M -0.296875 72.90625 
L 61.375 72.90625 
L 61.375 64.59375 
L 35.5 64.59375 
L 35.5 0 
L 25.59375 0 
L 25.59375 64.59375 
L -0.296875 64.59375 
z
" id="DejaVuSans-84"/>
      <path d="M 9.421875 54.6875 
L 18.40625 54.6875 
L 18.40625 0 
L 9.421875 0 
z
M 9.421875 75.984375 
L 18.40625 75.984375 
L 18.40625 64.59375 
L 9.421875 64.59375 
z
" id="DejaVuSans-105"/>
      <path d="M 52 44.1875 
Q 55.375 50.25 60.0625 53.125 
Q 64.75 56 71.09375 56 
Q 79.640625 56 84.28125 50.015625 
Q 88.921875 44.046875 88.921875 33.015625 
L 88.921875 0 
L 79.890625 0 
L 79.890625 32.71875 
Q 79.890625 40.578125 77.09375 44.375 
Q 74.3125 48.1875 68.609375 48.1875 
Q 61.625 48.1875 57.5625 43.546875 
Q 53.515625 38.921875 53.515625 30.90625 
L 53.515625 0 
L 44.484375 0 
L 44.484375 32.71875 
Q 44.484375 40.625 41.703125 44.40625 
Q 38.921875 48.1875 33.109375 48.1875 
Q 26.21875 48.1875 22.15625 43.53125 
Q 18.109375 38.875 18.109375 30.90625 
L 18.109375 0 
L 9.078125 0 
L 9.078125 54.6875 
L 18.109375 54.6875 
L 18.109375 46.1875 
Q 21.1875 51.21875 25.484375 53.609375 
Q 29.78125 56 35.6875 56 
Q 41.65625 56 45.828125 52.96875 
Q 50 49.953125 52 44.1875 
z
" id="DejaVuSans-109"/>
      <path d="M 56.203125 29.59375 
L 56.203125 25.203125 
L 14.890625 25.203125 
Q 15.484375 15.921875 20.484375 11.0625 
Q 25.484375 6.203125 34.421875 6.203125 
Q 39.59375 6.203125 44.453125 7.46875 
Q 49.3125 8.734375 54.109375 11.28125 
L 54.109375 2.78125 
Q 49.265625 0.734375 44.1875 -0.34375 
Q 39.109375 -1.421875 33.890625 -1.421875 
Q 20.796875 -1.421875 13.15625 6.1875 
Q 5.515625 13.8125 5.515625 26.8125 
Q 5.515625 40.234375 12.765625 48.109375 
Q 20.015625 56 32.328125 56 
Q 43.359375 56 49.78125 48.890625 
Q 56.203125 41.796875 56.203125 29.59375 
z
M 47.21875 32.234375 
Q 47.125 39.59375 43.09375 43.984375 
Q 39.0625 48.390625 32.421875 48.390625 
Q 24.90625 48.390625 20.390625 44.140625 
Q 15.875 39.890625 15.1875 32.171875 
z
" id="DejaVuSans-101"/>
      <path d="M 31 75.875 
Q 24.46875 64.65625 21.28125 53.65625 
Q 18.109375 42.671875 18.109375 31.390625 
Q 18.109375 20.125 21.3125 9.0625 
Q 24.515625 -2 31 -13.1875 
L 23.1875 -13.1875 
Q 15.875 -1.703125 12.234375 9.375 
Q 8.59375 20.453125 8.59375 31.390625 
Q 8.59375 42.28125 12.203125 53.3125 
Q 15.828125 64.359375 23.1875 75.875 
z
" id="DejaVuSans-40"/>
      <path d="M 44.28125 53.078125 
L 44.28125 44.578125 
Q 40.484375 46.53125 36.375 47.5 
Q 32.28125 48.484375 27.875 48.484375 
Q 21.1875 48.484375 17.84375 46.4375 
Q 14.5 44.390625 14.5 40.28125 
Q 14.5 37.15625 16.890625 35.375 
Q 19.28125 33.59375 26.515625 31.984375 
L 29.59375 31.296875 
Q 39.15625 29.25 43.1875 25.515625 
Q 47.21875 21.78125 47.21875 15.09375 
Q 47.21875 7.46875 41.1875 3.015625 
Q 35.15625 -1.421875 24.609375 -1.421875 
Q 20.21875 -1.421875 15.453125 -0.5625 
Q 10.6875 0.296875 5.421875 2 
L 5.421875 11.28125 
Q 10.40625 8.6875 15.234375 7.390625 
Q 20.0625 6.109375 24.8125 6.109375 
Q 31.15625 6.109375 34.5625 8.28125 
Q 37.984375 10.453125 37.984375 14.40625 
Q 37.984375 18.0625 35.515625 20.015625 
Q 33.0625 21.96875 24.703125 23.78125 
L 21.578125 24.515625 
Q 13.234375 26.265625 9.515625 29.90625 
Q 5.8125 33.546875 5.8125 39.890625 
Q 5.8125 47.609375 11.28125 51.796875 
Q 16.75 56 26.8125 56 
Q 31.78125 56 36.171875 55.265625 
Q 40.578125 54.546875 44.28125 53.078125 
z
" id="DejaVuSans-115"/>
      <path d="M 48.78125 52.59375 
L 48.78125 44.1875 
Q 44.96875 46.296875 41.140625 47.34375 
Q 37.3125 48.390625 33.40625 48.390625 
Q 24.65625 48.390625 19.8125 42.84375 
Q 14.984375 37.3125 14.984375 27.296875 
Q 14.984375 17.28125 19.8125 11.734375 
Q 24.65625 6.203125 33.40625 6.203125 
Q 37.3125 6.203125 41.140625 7.25 
Q 44.96875 8.296875 48.78125 10.40625 
L 48.78125 2.09375 
Q 45.015625 0.34375 40.984375 -0.53125 
Q 36.96875 -1.421875 32.421875 -1.421875 
Q 20.0625 -1.421875 12.78125 6.34375 
Q 5.515625 14.109375 5.515625 27.296875 
Q 5.515625 40.671875 12.859375 48.328125 
Q 20.21875 56 33.015625 56 
Q 37.15625 56 41.109375 55.140625 
Q 45.0625 54.296875 48.78125 52.59375 
z
" id="DejaVuSans-99"/>
      <path d="M 30.609375 48.390625 
Q 23.390625 48.390625 19.1875 42.75 
Q 14.984375 37.109375 14.984375 27.296875 
Q 14.984375 17.484375 19.15625 11.84375 
Q 23.34375 6.203125 30.609375 6.203125 
Q 37.796875 6.203125 41.984375 11.859375 
Q 46.1875 17.53125 46.1875 27.296875 
Q 46.1875 37.015625 41.984375 42.703125 
Q 37.796875 48.390625 30.609375 48.390625 
z
M 30.609375 56 
Q 42.328125 56 49.015625 48.375 
Q 55.71875 40.765625 55.71875 27.296875 
Q 55.71875 13.875 49.015625 6.21875 
Q 42.328125 -1.421875 30.609375 -1.421875 
Q 18.84375 -1.421875 12.171875 6.21875 
Q 5.515625 13.875 5.515625 27.296875 
Q 5.515625 40.765625 12.171875 48.375 
Q 18.84375 56 30.609375 56 
z
" id="DejaVuSans-111"/>
      <path d="M 54.890625 33.015625 
L 54.890625 0 
L 45.90625 0 
L 45.90625 32.71875 
Q 45.90625 40.484375 42.875 44.328125 
Q 39.84375 48.1875 33.796875 48.1875 
Q 26.515625 48.1875 22.3125 43.546875 
Q 18.109375 38.921875 18.109375 30.90625 
L 18.109375 0 
L 9.078125 0 
L 9.078125 54.6875 
L 18.109375 54.6875 
L 18.109375 46.1875 
Q 21.34375 51.125 25.703125 53.5625 
Q 30.078125 56 35.796875 56 
Q 45.21875 56 50.046875 50.171875 
Q 54.890625 44.34375 54.890625 33.015625 
z
" id="DejaVuSans-110"/>
      <path d="M 45.40625 46.390625 
L 45.40625 75.984375 
L 54.390625 75.984375 
L 54.390625 0 
L 45.40625 0 
L 45.40625 8.203125 
Q 42.578125 3.328125 38.25 0.953125 
Q 33.9375 -1.421875 27.875 -1.421875 
Q 17.96875 -1.421875 11.734375 6.484375 
Q 5.515625 14.40625 5.515625 27.296875 
Q 5.515625 40.1875 11.734375 48.09375 
Q 17.96875 56 27.875 56 
Q 33.9375 56 38.25 53.625 
Q 42.578125 51.265625 45.40625 46.390625 
z
M 14.796875 27.296875 
Q 14.796875 17.390625 18.875 11.75 
Q 22.953125 6.109375 30.078125 6.109375 
Q 37.203125 6.109375 41.296875 11.75 
Q 45.40625 17.390625 45.40625 27.296875 
Q 45.40625 37.203125 41.296875 42.84375 
Q 37.203125 48.484375 30.078125 48.484375 
Q 22.953125 48.484375 18.875 42.84375 
Q 14.796875 37.203125 14.796875 27.296875 
z
" id="DejaVuSans-100"/>
      <path d="M 8.015625 75.875 
L 15.828125 75.875 
Q 23.140625 64.359375 26.78125 53.3125 
Q 30.421875 42.28125 30.421875 31.390625 
Q 30.421875 20.453125 26.78125 9.375 
Q 23.140625 -1.703125 15.828125 -13.1875 
L 8.015625 -13.1875 
Q 14.5 -2 17.703125 9.0625 
Q 20.90625 20.125 20.90625 31.390625 
Q 20.90625 42.671875 17.703125 53.65625 
Q 14.5 64.65625 8.015625 75.875 
z
" id="DejaVuSans-41"/>
     </defs>
     <g transform="translate(197.76 335.860562)scale(0.1 -0.1)">
      <use transform="translate(0 0.015625)" xlink:href="#DejaVuSans-84"/>
      <use transform="translate(61.083984 0.015625)" xlink:href="#DejaVuSans-105"/>
      <use transform="translate(88.867188 0.015625)" xlink:href="#DejaVuSans-109"/>
      <use transform="translate(186.279297 0.015625)" xlink:href="#DejaVuSans-101"/>
      <use transform="translate(280.273113 0.015625)" xlink:href="#DejaVuSans-40"/>
      <use transform="translate(319.286785 0.015625)" xlink:href="#DejaVuSans-115"/>
      <use transform="translate(371.386394 0.015625)" xlink:href="#DejaVuSans-101"/>
      <use transform="translate(432.909832 0.015625)" xlink:href="#DejaVuSans-99"/>
      <use transform="translate(487.8903 0.015625)" xlink:href="#DejaVuSans-111"/>
      <use transform="translate(549.071941 0.015625)" xlink:href="#DejaVuSans-110"/>
      <use transform="translate(612.450847 0.015625)" xlink:href="#DejaVuSans-100"/>
      <use transform="translate(675.92741 0.015625)" xlink:href="#DejaVuSans-115"/>
      <use transform="translate(728.027019 0.015625)" xlink:href="#DejaVuSans-41"/>
     </g>
    </g>
   </g>
   <g id="matplotlib.axis_2">
    <g id="ytick_1">
     <g id="line2d_13">
      <path clip-path="url(#p758eb46f3a)" d="M 57.6 224.061025 
L 414.72 224.061025 
" style="fill:none;stroke:#b0b0b0;stroke-linecap:square;stroke-width:0.8;"/>
     </g>
     <g id="line2d_14">
      <defs>
       <path d="M 0 0 
L -3.5 0 
" id="m510f9d4b9d" style="stroke:#000000;stroke-width:0.8;"/>
      </defs>
      <g>
       <use style="stroke:#000000;stroke-width:0.8;" x="57.6" xlink:href="#m510f9d4b9d" y="224.061025"/>
      </g>
     </g>
     <g id="text_8">
      <!-- $\mathdefault{10^{-1}}$ -->
      <defs>
       <path d="M 10.59375 35.5 
L 73.1875 35.5 
L 73.1875 27.203125 
L 10.59375 27.203125 
z
" id="DejaVuSans-8722"/>
      </defs>
      <g transform="translate(27.1 227.860244)scale(0.1 -0.1)">
       <use transform="translate(0 0.684375)" xlink:href="#DejaVuSans-49"/>
       <use transform="translate(63.623047 0.684375)" xlink:href="#DejaVuSans-48"/>
       <use transform="translate(128.203125 38.965625)scale(0.7)" xlink:href="#DejaVuSans-8722"/>
       <use transform="translate(186.855469 38.965625)scale(0.7)" xlink:href="#DejaVuSans-49"/>
      </g>
     </g>
    </g>
    <g id="ytick_2">
     <g id="line2d_15">
      <defs>
       <path d="M 0 0 
L -2 0 
" id="m8ffb9bc2ee" style="stroke:#000000;stroke-width:0.6;"/>
      </defs>
      <g>
       <use style="stroke:#000000;stroke-width:0.6;" x="57.6" xlink:href="#m8ffb9bc2ee" y="300.353488"/>
      </g>
     </g>
    </g>
    <g id="ytick_3">
     <g id="line2d_16">
      <g>
       <use style="stroke:#000000;stroke-width:0.6;" x="57.6" xlink:href="#m8ffb9bc2ee" y="281.774045"/>
      </g>
     </g>
    </g>
    <g id="ytick_4">
     <g id="line2d_17">
      <g>
       <use style="stroke:#000000;stroke-width:0.6;" x="57.6" xlink:href="#m8ffb9bc2ee" y="266.593535"/>
      </g>
     </g>
    </g>
    <g id="ytick_5">
     <g id="line2d_18">
      <g>
       <use style="stroke:#000000;stroke-width:0.6;" x="57.6" xlink:href="#m8ffb9bc2ee" y="253.758597"/>
      </g>
     </g>
    </g>
    <g id="ytick_6">
     <g id="line2d_19">
      <g>
       <use style="stroke:#000000;stroke-width:0.6;" x="57.6" xlink:href="#m8ffb9bc2ee" y="242.640468"/>
      </g>
     </g>
    </g>
    <g id="ytick_7">
     <g id="line2d_20">
      <g>
       <use style="stroke:#000000;stroke-width:0.6;" x="57.6" xlink:href="#m8ffb9bc2ee" y="232.833583"/>
      </g>
     </g>
    </g>
    <g id="ytick_8">
     <g id="line2d_21">
      <g>
       <use style="stroke:#000000;stroke-width:0.6;" x="57.6" xlink:href="#m8ffb9bc2ee" y="166.348005"/>
      </g>
     </g>
    </g>
    <g id="ytick_9">
     <g id="line2d_22">
      <g>
       <use style="stroke:#000000;stroke-width:0.6;" x="57.6" xlink:href="#m8ffb9bc2ee" y="132.588052"/>
      </g>
     </g>
    </g>
    <g id="ytick_10">
     <g id="line2d_23">
      <g>
       <use style="stroke:#000000;stroke-width:0.6;" x="57.6" xlink:href="#m8ffb9bc2ee" y="108.634985"/>
      </g>
     </g>
    </g>
    <g id="ytick_11">
     <g id="line2d_24">
      <g>
       <use style="stroke:#000000;stroke-width:0.6;" x="57.6" xlink:href="#m8ffb9bc2ee" y="90.055542"/>
      </g>
     </g>
    </g>
    <g id="ytick_12">
     <g id="line2d_25">
      <g>
       <use style="stroke:#000000;stroke-width:0.6;" x="57.6" xlink:href="#m8ffb9bc2ee" y="74.875032"/>
      </g>
     </g>
    </g>
    <g id="ytick_13">
     <g id="line2d_26">
      <g>
       <use style="stroke:#000000;stroke-width:0.6;" x="57.6" xlink:href="#m8ffb9bc2ee" y="62.040094"/>
      </g>
     </g>
    </g>
    <g id="ytick_14">
     <g id="line2d_27">
      <g>
       <use style="stroke:#000000;stroke-width:0.6;" x="57.6" xlink:href="#m8ffb9bc2ee" y="50.921965"/>
      </g>
     </g>
    </g>
    <g id="text_9">
     <!-- $\mathrm{Relative \ error}$ ($N_{\mathrm{train}}=1$) -->
     <defs>
      <path d="M 44.390625 34.1875 
Q 47.5625 33.109375 50.5625 29.59375 
Q 53.5625 26.078125 56.59375 19.921875 
L 66.609375 0 
L 56 0 
L 46.6875 18.703125 
Q 43.0625 26.03125 39.671875 28.421875 
Q 36.28125 30.8125 30.421875 30.8125 
L 19.671875 30.8125 
L 19.671875 0 
L 9.8125 0 
L 9.8125 72.90625 
L 32.078125 72.90625 
Q 44.578125 72.90625 50.734375 67.671875 
Q 56.890625 62.453125 56.890625 51.90625 
Q 56.890625 45.015625 53.6875 40.46875 
Q 50.484375 35.9375 44.390625 34.1875 
z
M 19.671875 64.796875 
L 19.671875 38.921875 
L 32.078125 38.921875 
Q 39.203125 38.921875 42.84375 42.21875 
Q 46.484375 45.515625 46.484375 51.90625 
Q 46.484375 58.296875 42.84375 61.546875 
Q 39.203125 64.796875 32.078125 64.796875 
z
" id="DejaVuSans-82"/>
      <path d="M 9.421875 75.984375 
L 18.40625 75.984375 
L 18.40625 0 
L 9.421875 0 
z
" id="DejaVuSans-108"/>
      <path d="M 34.28125 27.484375 
Q 23.390625 27.484375 19.1875 25 
Q 14.984375 22.515625 14.984375 16.5 
Q 14.984375 11.71875 18.140625 8.90625 
Q 21.296875 6.109375 26.703125 6.109375 
Q 34.1875 6.109375 38.703125 11.40625 
Q 43.21875 16.703125 43.21875 25.484375 
L 43.21875 27.484375 
z
M 52.203125 31.203125 
L 52.203125 0 
L 43.21875 0 
L 43.21875 8.296875 
Q 40.140625 3.328125 35.546875 0.953125 
Q 30.953125 -1.421875 24.3125 -1.421875 
Q 15.921875 -1.421875 10.953125 3.296875 
Q 6 8.015625 6 15.921875 
Q 6 25.140625 12.171875 29.828125 
Q 18.359375 34.515625 30.609375 34.515625 
L 43.21875 34.515625 
L 43.21875 35.40625 
Q 43.21875 41.609375 39.140625 45 
Q 35.0625 48.390625 27.6875 48.390625 
Q 23 48.390625 18.546875 47.265625 
Q 14.109375 46.140625 10.015625 43.890625 
L 10.015625 52.203125 
Q 14.9375 54.109375 19.578125 55.046875 
Q 24.21875 56 28.609375 56 
Q 40.484375 56 46.34375 49.84375 
Q 52.203125 43.703125 52.203125 31.203125 
z
" id="DejaVuSans-97"/>
      <path d="M 18.3125 70.21875 
L 18.3125 54.6875 
L 36.8125 54.6875 
L 36.8125 47.703125 
L 18.3125 47.703125 
L 18.3125 18.015625 
Q 18.3125 11.328125 20.140625 9.421875 
Q 21.96875 7.515625 27.59375 7.515625 
L 36.8125 7.515625 
L 36.8125 0 
L 27.59375 0 
Q 17.1875 0 13.234375 3.875 
Q 9.28125 7.765625 9.28125 18.015625 
L 9.28125 47.703125 
L 2.6875 47.703125 
L 2.6875 54.6875 
L 9.28125 54.6875 
L 9.28125 70.21875 
z
" id="DejaVuSans-116"/>
      <path d="M 2.984375 54.6875 
L 12.5 54.6875 
L 29.59375 8.796875 
L 46.6875 54.6875 
L 56.203125 54.6875 
L 35.6875 0 
L 23.484375 0 
z
" id="DejaVuSans-118"/>
      <path d="M 41.109375 46.296875 
Q 39.59375 47.171875 37.8125 47.578125 
Q 36.03125 48 33.890625 48 
Q 26.265625 48 22.1875 43.046875 
Q 18.109375 38.09375 18.109375 28.8125 
L 18.109375 0 
L 9.078125 0 
L 9.078125 54.6875 
L 18.109375 54.6875 
L 18.109375 46.1875 
Q 20.953125 51.171875 25.484375 53.578125 
Q 30.03125 56 36.53125 56 
Q 37.453125 56 38.578125 55.875 
Q 39.703125 55.765625 41.0625 55.515625 
z
" id="DejaVuSans-114"/>
      <path id="DejaVuSans-32"/>
      <path d="M 16.890625 72.90625 
L 30.171875 72.90625 
L 50.296875 10.40625 
L 62.5 72.90625 
L 72.125 72.90625 
L 57.90625 0 
L 44.578125 0 
L 24.515625 62.890625 
L 12.3125 0 
L 2.6875 0 
z
" id="DejaVuSans-Oblique-78"/>
      <path d="M 10.59375 45.40625 
L 73.1875 45.40625 
L 73.1875 37.203125 
L 10.59375 37.203125 
z
M 10.59375 25.484375 
L 73.1875 25.484375 
L 73.1875 17.1875 
L 10.59375 17.1875 
z
" id="DejaVuSans-61"/>
     </defs>
     <g transform="translate(21.020312 235.678)rotate(-90)scale(0.1 -0.1)">
      <use transform="translate(0 0.015625)" xlink:href="#DejaVuSans-82"/>
      <use transform="translate(69.482422 0.015625)" xlink:href="#DejaVuSans-101"/>
      <use transform="translate(131.005859 0.015625)" xlink:href="#DejaVuSans-108"/>
      <use transform="translate(158.789062 0.015625)" xlink:href="#DejaVuSans-97"/>
      <use transform="translate(220.068359 0.015625)" xlink:href="#DejaVuSans-116"/>
      <use transform="translate(259.277344 0.015625)" xlink:href="#DejaVuSans-105"/>
      <use transform="translate(287.060547 0.015625)" xlink:href="#DejaVuSans-118"/>
      <use transform="translate(346.240234 0.015625)" xlink:href="#DejaVuSans-101"/>
      <use transform="translate(440.23405 0.015625)" xlink:href="#DejaVuSans-101"/>
      <use transform="translate(501.757488 0.015625)" xlink:href="#DejaVuSans-114"/>
      <use transform="translate(542.870769 0.015625)" xlink:href="#DejaVuSans-114"/>
      <use transform="translate(583.98405 0.015625)" xlink:href="#DejaVuSans-111"/>
      <use transform="translate(645.165691 0.015625)" xlink:href="#DejaVuSans-114"/>
      <use transform="translate(686.278972 0.015625)" xlink:href="#DejaVuSans-32"/>
      <use transform="translate(718.066082 0.015625)" xlink:href="#DejaVuSans-40"/>
      <use transform="translate(757.079753 0.015625)" xlink:href="#DejaVuSans-Oblique-78"/>
      <use transform="translate(831.884441 -16.390625)scale(0.7)" xlink:href="#DejaVuSans-116"/>
      <use transform="translate(859.33073 -16.390625)scale(0.7)" xlink:href="#DejaVuSans-114"/>
      <use transform="translate(888.110027 -16.390625)scale(0.7)" xlink:href="#DejaVuSans-97"/>
      <use transform="translate(931.005535 -16.390625)scale(0.7)" xlink:href="#DejaVuSans-105"/>
      <use transform="translate(950.453777 -16.390625)scale(0.7)" xlink:href="#DejaVuSans-110"/>
      <use transform="translate(1017.035808 0.015625)" xlink:href="#DejaVuSans-61"/>
      <use transform="translate(1120.307292 0.015625)" xlink:href="#DejaVuSans-49"/>
      <use transform="translate(1183.930339 0.015625)" xlink:href="#DejaVuSans-41"/>
     </g>
    </g>
   </g>
   <g id="line2d_28">
    <path clip-path="url(#p758eb46f3a)" d="M 73.832724 290.40958 
L 77.145522 258.38177 
L 80.458321 234.670302 
L 83.771119 215.817407 
L 87.083917 200.28952 
L 90.396716 187.254538 
L 93.709554 176.185699 
L 97.022352 166.708525 
L 100.33515 158.537357 
L 103.647949 151.446938 
L 106.960747 145.256768 
L 110.273545 139.82125 
L 113.586344 135.022443 
L 116.899142 130.764373 
L 120.21194 126.968629 
L 123.524738 123.570811 
L 126.837537 120.517635 
L 130.150375 117.76498 
L 133.463173 115.275883 
L 136.775971 113.01947 
L 140.08877 110.969842 
L 143.401568 109.105134 
L 146.714366 107.406806 
L 150.027165 105.859091 
L 153.339963 104.448664 
L 156.652761 103.164116 
L 159.96556 101.99588 
L 163.278358 100.935745 
L 166.591156 99.97672 
L 169.903955 99.112864 
L 173.216753 98.339049 
L 176.529551 97.65101 
L 179.842389 97.044953 
L 183.155187 96.517745 
L 186.467986 96.066844 
L 189.780784 95.690247 
L 193.093582 95.386416 
L 196.406381 95.15426 
L 199.719179 94.993085 
L 203.031977 94.902333 
L 206.344776 94.881531 
L 209.657574 94.930122 
L 212.970412 95.047117 
L 216.28321 95.230843 
L 219.596008 95.478498 
L 226.221605 96.144709 
L 232.847202 96.976089 
L 242.785597 98.253252 
L 246.098395 98.607114 
L 249.411193 98.895403 
L 252.723992 99.106966 
L 256.03679 99.236184 
L 259.349588 99.282445 
L 262.662387 99.249096 
L 265.975185 99.142095 
L 269.288023 98.969016 
L 275.913619 98.457071 
L 282.539216 97.77614 
L 289.164852 96.980204 
L 299.103247 95.661035 
L 328.918432 91.571267 
L 338.856827 90.316872 
L 348.795222 89.160865 
L 358.733656 88.121159 
L 368.672051 87.211959 
L 378.610486 86.443882 
L 388.548881 85.826761 
L 395.174478 85.504418 
L 398.487276 85.3712 
" style="fill:none;stroke:#ff0000;stroke-linecap:square;stroke-width:1.5;"/>
   </g>
   <g id="line2d_29">
    <path clip-path="url(#p758eb46f3a)" d="M 73.832724 248.866158 
L 77.145522 218.527077 
L 80.458321 196.456384 
L 83.771119 179.172114 
L 87.083917 165.115058 
L 90.396716 153.431087 
L 93.709554 143.579942 
L 97.022352 135.183174 
L 100.33515 127.959102 
L 103.647949 121.690949 
L 106.960747 116.209314 
L 110.273545 111.380356 
L 113.586344 107.097535 
L 116.899142 103.275468 
L 120.21194 99.845076 
L 123.524738 96.750194 
L 126.837537 93.944724 
L 130.150375 91.390536 
L 133.463173 89.05596 
L 136.775971 86.91437 
L 140.08877 84.943355 
L 143.401568 83.12395 
L 146.714366 81.439832 
L 150.027165 79.87713 
L 153.339963 78.423806 
L 156.652761 77.069435 
L 159.96556 75.804983 
L 163.278358 74.622482 
L 166.591156 73.515044 
L 169.903955 72.476524 
L 176.529551 70.585327 
L 183.155187 68.912803 
L 189.780784 67.430547 
L 196.406381 66.116223 
L 203.031977 64.952552 
L 209.657574 63.926473 
L 216.28321 63.028786 
L 222.908807 62.253877 
L 229.534403 61.599551 
L 236.16 61.066448 
L 242.785597 60.656751 
L 249.411193 60.371782 
L 256.03679 60.208486 
L 262.662387 60.155966 
L 269.288023 60.194429 
L 279.226418 60.364236 
L 305.728844 60.904911 
L 318.980037 61.043978 
L 335.544029 61.086372 
L 385.236083 61.078396 
L 398.487276 61.208713 
" style="fill:none;stroke:#0000ff;stroke-linecap:square;stroke-width:1.5;"/>
   </g>
   <g id="line2d_30">
    <path clip-path="url(#p758eb46f3a)" d="M 73.832724 205.320259 
L 77.145522 175.326502 
L 80.458321 155.753805 
L 83.771119 142.272129 
L 87.083917 131.886787 
L 90.396716 123.45167 
L 93.709554 116.431983 
L 97.022352 110.508589 
L 100.33515 105.456988 
L 103.647949 101.108188 
L 106.960747 97.332212 
L 110.273545 94.028301 
L 113.586344 91.118224 
L 116.899142 88.540378 
L 120.21194 86.245868 
L 123.524738 84.195535 
L 126.837537 82.35791 
L 130.150375 80.706733 
L 133.463173 79.220036 
L 136.775971 77.879224 
L 140.08877 76.668632 
L 143.401568 75.574882 
L 146.714366 74.586577 
L 150.027165 73.693949 
L 153.339963 72.888713 
L 156.652761 72.163737 
L 159.96556 71.512904 
L 163.278358 70.930757 
L 166.591156 70.412478 
L 169.903955 69.95374 
L 176.529551 69.200571 
L 183.155187 68.650523 
L 189.780784 68.290681 
L 196.406381 68.108683 
L 203.031977 68.091611 
L 209.657574 68.232649 
L 216.28321 68.531499 
L 222.908807 68.992611 
L 229.534403 69.613318 
L 236.16 70.364803 
L 252.723992 72.357845 
L 259.349588 72.994622 
L 265.975185 73.461469 
L 272.600821 73.748319 
L 279.226418 73.870861 
L 285.852014 73.857312 
L 292.477651 73.739408 
L 302.416045 73.429012 
L 315.667239 72.880872 
L 375.297688 70.251285 
L 388.548881 69.816617 
L 398.487276 69.568434 
" style="fill:none;stroke:#00ffff;stroke-linecap:square;stroke-width:1.5;"/>
   </g>
   <g id="patch_3">
    <path d="M 57.6 307.584 
L 57.6 41.472 
" style="fill:none;stroke:#000000;stroke-linecap:square;stroke-linejoin:miter;stroke-width:0.8;"/>
   </g>
   <g id="patch_4">
    <path d="M 414.72 307.584 
L 414.72 41.472 
" style="fill:none;stroke:#000000;stroke-linecap:square;stroke-linejoin:miter;stroke-width:0.8;"/>
   </g>
   <g id="patch_5">
    <path d="M 57.6 307.584 
L 414.72 307.584 
" style="fill:none;stroke:#000000;stroke-linecap:square;stroke-linejoin:miter;stroke-width:0.8;"/>
   </g>
   <g id="patch_6">
    <path d="M 57.6 41.472 
L 414.72 41.472 
" style="fill:none;stroke:#000000;stroke-linecap:square;stroke-linejoin:miter;stroke-width:0.8;"/>
   </g>
   <g id="legend_1">
    <g id="patch_7">
     <path d="M 289.835625 302.584 
L 407.72 302.584 
Q 409.72 302.584 409.72 300.584 
L 409.72 257.549625 
Q 409.72 255.549625 407.72 255.549625 
L 289.835625 255.549625 
Q 287.835625 255.549625 287.835625 257.549625 
L 287.835625 300.584 
Q 287.835625 302.584 289.835625 302.584 
z
" style="fill:#ffffff;opacity:0.8;stroke:#cccccc;stroke-linejoin:miter;"/>
    </g>
    <g id="line2d_31">
     <path d="M 291.835625 263.648062 
L 311.835625 263.648062 
" style="fill:none;stroke:#ff0000;stroke-linecap:square;stroke-width:1.5;"/>
    </g>
    <g id="line2d_32"/>
    <g id="text_10">
     <!-- No grad. reg. -->
     <defs>
      <path d="M 9.8125 72.90625 
L 23.09375 72.90625 
L 55.421875 11.921875 
L 55.421875 72.90625 
L 64.984375 72.90625 
L 64.984375 0 
L 51.703125 0 
L 19.390625 60.984375 
L 19.390625 0 
L 9.8125 0 
z
" id="DejaVuSans-78"/>
      <path d="M 45.40625 27.984375 
Q 45.40625 37.75 41.375 43.109375 
Q 37.359375 48.484375 30.078125 48.484375 
Q 22.859375 48.484375 18.828125 43.109375 
Q 14.796875 37.75 14.796875 27.984375 
Q 14.796875 18.265625 18.828125 12.890625 
Q 22.859375 7.515625 30.078125 7.515625 
Q 37.359375 7.515625 41.375 12.890625 
Q 45.40625 18.265625 45.40625 27.984375 
z
M 54.390625 6.78125 
Q 54.390625 -7.171875 48.1875 -13.984375 
Q 42 -20.796875 29.203125 -20.796875 
Q 24.46875 -20.796875 20.265625 -20.09375 
Q 16.0625 -19.390625 12.109375 -17.921875 
L 12.109375 -9.1875 
Q 16.0625 -11.328125 19.921875 -12.34375 
Q 23.78125 -13.375 27.78125 -13.375 
Q 36.625 -13.375 41.015625 -8.765625 
Q 45.40625 -4.15625 45.40625 5.171875 
L 45.40625 9.625 
Q 42.625 4.78125 38.28125 2.390625 
Q 33.9375 0 27.875 0 
Q 17.828125 0 11.671875 7.65625 
Q 5.515625 15.328125 5.515625 27.984375 
Q 5.515625 40.671875 11.671875 48.328125 
Q 17.828125 56 27.875 56 
Q 33.9375 56 38.28125 53.609375 
Q 42.625 51.21875 45.40625 46.390625 
L 45.40625 54.6875 
L 54.390625 54.6875 
z
" id="DejaVuSans-103"/>
     </defs>
     <g transform="translate(319.835625 267.148062)scale(0.1 -0.1)">
      <use xlink:href="#DejaVuSans-78"/>
      <use x="74.804688" xlink:href="#DejaVuSans-111"/>
      <use x="135.986328" xlink:href="#DejaVuSans-32"/>
      <use x="167.773438" xlink:href="#DejaVuSans-103"/>
      <use x="231.25" xlink:href="#DejaVuSans-114"/>
      <use x="272.363281" xlink:href="#DejaVuSans-97"/>
      <use x="333.642578" xlink:href="#DejaVuSans-100"/>
      <use x="397.119141" xlink:href="#DejaVuSans-46"/>
      <use x="428.90625" xlink:href="#DejaVuSans-32"/>
      <use x="460.693359" xlink:href="#DejaVuSans-114"/>
      <use x="501.775391" xlink:href="#DejaVuSans-101"/>
      <use x="563.298828" xlink:href="#DejaVuSans-103"/>
      <use x="626.775391" xlink:href="#DejaVuSans-46"/>
     </g>
    </g>
    <g id="line2d_33">
     <path d="M 291.835625 278.326188 
L 311.835625 278.326188 
" style="fill:none;stroke:#0000ff;stroke-linecap:square;stroke-width:1.5;"/>
    </g>
    <g id="line2d_34"/>
    <g id="text_11">
     <!-- Grad. reg -->
     <defs>
      <path d="M 59.515625 10.40625 
L 59.515625 29.984375 
L 43.40625 29.984375 
L 43.40625 38.09375 
L 69.28125 38.09375 
L 69.28125 6.78125 
Q 63.578125 2.734375 56.6875 0.65625 
Q 49.8125 -1.421875 42 -1.421875 
Q 24.90625 -1.421875 15.25 8.5625 
Q 5.609375 18.5625 5.609375 36.375 
Q 5.609375 54.25 15.25 64.234375 
Q 24.90625 74.21875 42 74.21875 
Q 49.125 74.21875 55.546875 72.453125 
Q 61.96875 70.703125 67.390625 67.28125 
L 67.390625 56.78125 
Q 61.921875 61.421875 55.765625 63.765625 
Q 49.609375 66.109375 42.828125 66.109375 
Q 29.4375 66.109375 22.71875 58.640625 
Q 16.015625 51.171875 16.015625 36.375 
Q 16.015625 21.625 22.71875 14.15625 
Q 29.4375 6.6875 42.828125 6.6875 
Q 48.046875 6.6875 52.140625 7.59375 
Q 56.25 8.5 59.515625 10.40625 
z
" id="DejaVuSans-71"/>
     </defs>
     <g transform="translate(319.835625 281.826188)scale(0.1 -0.1)">
      <use xlink:href="#DejaVuSans-71"/>
      <use x="77.490234" xlink:href="#DejaVuSans-114"/>
      <use x="118.603516" xlink:href="#DejaVuSans-97"/>
      <use x="179.882812" xlink:href="#DejaVuSans-100"/>
      <use x="243.359375" xlink:href="#DejaVuSans-46"/>
      <use x="275.146484" xlink:href="#DejaVuSans-32"/>
      <use x="306.933594" xlink:href="#DejaVuSans-114"/>
      <use x="348.015625" xlink:href="#DejaVuSans-101"/>
      <use x="409.539062" xlink:href="#DejaVuSans-103"/>
     </g>
    </g>
    <g id="line2d_35">
     <path d="M 291.835625 293.004312 
L 311.835625 293.004312 
" style="fill:none;stroke:#00ffff;stroke-linecap:square;stroke-width:1.5;"/>
    </g>
    <g id="line2d_36"/>
    <g id="text_12">
     <!-- Second grad. reg -->
     <defs>
      <path d="M 53.515625 70.515625 
L 53.515625 60.890625 
Q 47.90625 63.578125 42.921875 64.890625 
Q 37.9375 66.21875 33.296875 66.21875 
Q 25.25 66.21875 20.875 63.09375 
Q 16.5 59.96875 16.5 54.203125 
Q 16.5 49.359375 19.40625 46.890625 
Q 22.3125 44.4375 30.421875 42.921875 
L 36.375 41.703125 
Q 47.40625 39.59375 52.65625 34.296875 
Q 57.90625 29 57.90625 20.125 
Q 57.90625 9.515625 50.796875 4.046875 
Q 43.703125 -1.421875 29.984375 -1.421875 
Q 24.8125 -1.421875 18.96875 -0.25 
Q 13.140625 0.921875 6.890625 3.21875 
L 6.890625 13.375 
Q 12.890625 10.015625 18.65625 8.296875 
Q 24.421875 6.59375 29.984375 6.59375 
Q 38.421875 6.59375 43.015625 9.90625 
Q 47.609375 13.234375 47.609375 19.390625 
Q 47.609375 24.75 44.3125 27.78125 
Q 41.015625 30.8125 33.5 32.328125 
L 27.484375 33.5 
Q 16.453125 35.6875 11.515625 40.375 
Q 6.59375 45.0625 6.59375 53.421875 
Q 6.59375 63.09375 13.40625 68.65625 
Q 20.21875 74.21875 32.171875 74.21875 
Q 37.3125 74.21875 42.625 73.28125 
Q 47.953125 72.359375 53.515625 70.515625 
z
" id="DejaVuSans-83"/>
     </defs>
     <g transform="translate(319.835625 296.504312)scale(0.1 -0.1)">
      <use xlink:href="#DejaVuSans-83"/>
      <use x="63.476562" xlink:href="#DejaVuSans-101"/>
      <use x="125" xlink:href="#DejaVuSans-99"/>
      <use x="179.980469" xlink:href="#DejaVuSans-111"/>
      <use x="241.162109" xlink:href="#DejaVuSans-110"/>
      <use x="304.541016" xlink:href="#DejaVuSans-100"/>
      <use x="368.017578" xlink:href="#DejaVuSans-32"/>
      <use x="399.804688" xlink:href="#DejaVuSans-103"/>
      <use x="463.28125" xlink:href="#DejaVuSans-114"/>
      <use x="504.394531" xlink:href="#DejaVuSans-97"/>
      <use x="565.673828" xlink:href="#DejaVuSans-100"/>
      <use x="629.150391" xlink:href="#DejaVuSans-46"/>
      <use x="660.9375" xlink:href="#DejaVuSans-32"/>
      <use x="692.724609" xlink:href="#DejaVuSans-114"/>
      <use x="733.806641" xlink:href="#DejaVuSans-101"/>
      <use x="795.330078" xlink:href="#DejaVuSans-103"/>
     </g>
    </g>
   </g>
  </g>
 </g>
 <defs>
  <clipPath id="p758eb46f3a">
   <rect height="266.112" width="357.12" x="57.6" y="41.472"/>
  </clipPath>
 </defs>
</svg>
