<?xml version="1.0" encoding="utf-8" standalone="no"?>
<!DOCTYPE svg PUBLIC "-//W3C//DTD SVG 1.1//EN"
  "http://www.w3.org/Graphics/SVG/1.1/DTD/svg11.dtd">
<!-- Created with matplotlib (https://matplotlib.org/) -->
<svg height="345.6pt" version="1.1" viewBox="0 0 460.8 345.6" width="460.8pt" xmlns="http://www.w3.org/2000/svg" xmlns:xlink="http://www.w3.org/1999/xlink">
 <defs>
  <style type="text/css">
*{stroke-linecap:butt;stroke-linejoin:round;white-space:pre;}
  </style>
 </defs>
 <g id="figure_1">
  <g id="patch_1">
   <path d="M 0 345.6 
L 460.8 345.6 
L 460.8 0 
L 0 0 
z
" style="fill:#ffffff;"/>
  </g>
  <g id="axes_1">
   <g id="patch_2">
    <path d="M 57.6 307.584 
L 414.72 307.584 
L 414.72 41.472 
L 57.6 41.472 
z
" style="fill:#ffffff;"/>
   </g>
   <g id="PolyCollection_1">
    <path clip-path="url(#pb0938f8bab)" d="M 73.832727 268.529786 
L 73.832727 293.495633 
L 77.145529 276.113527 
L 80.45833 263.279246 
L 83.771132 253.142501 
L 87.083933 244.908064 
L 90.396735 238.117655 
L 93.709536 232.456816 
L 97.022338 227.688389 
L 100.335139 223.625917 
L 103.647941 220.120905 
L 106.960742 217.056599 
L 110.273544 214.341213 
L 113.586345 211.902847 
L 116.899147 209.683402 
L 120.211948 207.635143 
L 123.52475 205.722601 
L 126.837551 203.921417 
L 130.150353 202.21306 
L 133.463154 200.586015 
L 136.775955 199.031636 
L 140.088757 197.543814 
L 143.401558 196.119322 
L 146.71436 194.75779 
L 150.027161 193.457328 
L 153.339963 192.216486 
L 156.652764 191.034517 
L 159.965566 189.908166 
L 163.278367 188.836207 
L 166.591169 187.817963 
L 169.90397 186.852176 
L 173.216772 185.936904 
L 176.529573 185.069804 
L 179.842375 184.248841 
L 183.155176 183.472656 
L 186.467978 182.740579 
L 189.780779 182.051705 
L 193.093581 181.404633 
L 196.406382 180.797441 
L 199.719184 180.228008 
L 203.031985 179.694245 
L 206.344787 179.194158 
L 209.657588 178.725104 
L 212.97039 178.283542 
L 216.283191 177.865213 
L 219.595993 177.465646 
L 222.908794 177.080337 
L 226.221596 176.704174 
L 229.534397 176.331312 
L 232.847199 175.955219 
L 236.16 175.569167 
L 239.472801 175.166686 
L 242.785603 174.742032 
L 246.098404 174.291113 
L 249.411206 173.811707 
L 252.724007 173.303409 
L 256.036809 172.76752 
L 259.34961 172.20679 
L 262.662412 171.624836 
L 265.975213 171.025761 
L 269.288015 170.413704 
L 272.600816 169.792522 
L 275.913618 169.165584 
L 279.226419 168.535785 
L 282.539221 167.905552 
L 285.852022 167.276825 
L 289.164824 166.651068 
L 292.477625 166.029305 
L 295.790427 165.412245 
L 299.103228 164.800356 
L 302.41603 164.194085 
L 305.728831 163.594039 
L 309.041633 163.001 
L 312.354434 162.415768 
L 315.667236 161.839169 
L 318.980037 161.272041 
L 322.292839 160.715162 
L 325.60564 160.16911 
L 328.918442 159.634274 
L 332.231243 159.11122 
L 335.544045 158.600626 
L 338.856846 158.103131 
L 342.169647 157.619367 
L 345.482449 157.150176 
L 348.79525 156.696703 
L 352.108052 156.260217 
L 355.420853 155.841948 
L 358.733655 155.443163 
L 362.046456 155.065185 
L 365.359258 154.709394 
L 368.672059 154.377301 
L 371.984861 154.070439 
L 375.297662 153.790301 
L 378.610464 153.538351 
L 381.923265 153.316072 
L 385.236067 153.124799 
L 388.548868 152.965476 
L 391.86167 152.83875 
L 395.174471 152.745109 
L 398.487273 152.684696 
L 398.487273 138.661899 
L 398.487273 138.661899 
L 395.174471 138.78235 
L 391.86167 138.922445 
L 388.548868 139.082847 
L 385.236067 139.263947 
L 381.923265 139.465834 
L 378.610464 139.688359 
L 375.297662 139.931176 
L 371.984861 140.193756 
L 368.672059 140.475429 
L 365.359258 140.775413 
L 362.046456 141.092888 
L 358.733655 141.426978 
L 355.420853 141.776746 
L 352.108052 142.141233 
L 348.79525 142.519531 
L 345.482449 142.910767 
L 342.169647 143.314099 
L 338.856846 143.728704 
L 335.544045 144.153799 
L 332.231243 144.58885 
L 328.918442 145.033397 
L 325.60564 145.48699 
L 322.292839 145.949316 
L 318.980037 146.420269 
L 315.667236 146.899833 
L 312.354434 147.387957 
L 309.041633 147.884615 
L 305.728831 148.38976 
L 302.41603 148.903237 
L 299.103228 149.42474 
L 295.790427 149.953787 
L 292.477625 150.489715 
L 289.164824 151.031644 
L 285.852022 151.57842 
L 282.539221 152.128415 
L 279.226419 152.679371 
L 275.913618 153.228325 
L 272.600816 153.771572 
L 269.288015 154.304671 
L 265.975213 154.822384 
L 262.662412 155.31866 
L 259.34961 155.786684 
L 256.036809 156.218896 
L 252.724007 156.607272 
L 249.411206 156.943828 
L 246.098404 157.221502 
L 242.785603 157.435203 
L 239.472801 157.582915 
L 236.16 157.667069 
L 232.847199 157.695737 
L 229.534397 157.682571 
L 226.221596 157.645114 
L 222.908794 157.602051 
L 219.595993 157.570779 
L 216.283191 157.565432 
L 212.97039 157.595964 
L 209.657588 157.668609 
L 206.344787 157.786866 
L 203.031985 157.952501 
L 199.719184 158.16653 
L 196.406382 158.429384 
L 193.093581 158.74096 
L 189.780779 159.100593 
L 186.467978 159.507256 
L 183.155176 159.959788 
L 179.842375 160.457207 
L 176.529573 160.998727 
L 173.216772 161.583981 
L 169.90397 162.213338 
L 166.591169 162.887386 
L 163.278367 163.607101 
L 159.965566 164.373725 
L 156.652764 165.189509 
L 153.339963 166.057199 
L 150.027161 166.98002 
L 146.71436 167.961538 
L 143.401558 169.006108 
L 140.088757 170.11963 
L 136.775955 171.310958 
L 133.463154 172.590043 
L 130.150353 173.969939 
L 126.837551 175.467602 
L 123.52475 177.104202 
L 120.211948 178.909488 
L 116.899147 180.920722 
L 113.586345 183.177602 
L 110.273544 185.72384 
L 106.960742 188.613927 
L 103.647941 191.916541 
L 100.335139 195.717936 
L 97.022338 200.130016 
L 93.709536 205.293641 
L 90.396735 211.386029 
L 87.083933 218.62548 
L 83.771132 227.294098 
L 80.45833 237.813581 
L 77.145529 250.958709 
L 73.832727 268.529786 
z
" style="fill:#ff0000;fill-opacity:0.4;"/>
   </g>
   <g id="PolyCollection_2">
    <path clip-path="url(#pb0938f8bab)" d="M 73.832727 282.758257 
L 73.832727 295.488 
L 77.145529 278.249904 
L 80.45833 265.565548 
L 83.771132 255.607045 
L 87.083933 247.589499 
L 90.396735 241.067705 
L 93.709536 235.737631 
L 97.022338 231.36985 
L 100.335139 227.780586 
L 103.647941 224.820824 
L 106.960742 222.373177 
L 110.273544 220.344274 
L 113.586345 218.658884 
L 116.899147 217.253402 
L 120.211948 216.072677 
L 123.52475 215.066669 
L 126.837551 214.187941 
L 130.150353 213.392304 
L 133.463154 212.646681 
L 136.775955 211.922019 
L 140.088757 211.193994 
L 143.401558 210.448954 
L 146.71436 209.675184 
L 150.027161 208.863451 
L 153.339963 208.019945 
L 156.652764 207.156563 
L 159.965566 206.28542 
L 163.278367 205.418073 
L 166.591169 204.563991 
L 169.90397 203.728263 
L 173.216772 202.912114 
L 176.529573 202.114741 
L 179.842375 201.336024 
L 183.155176 200.576482 
L 186.467978 199.837658 
L 189.780779 199.121004 
L 193.093581 198.427631 
L 196.406382 197.758654 
L 199.719184 197.115483 
L 203.031985 196.499891 
L 206.344787 195.914693 
L 209.657588 195.36285 
L 212.97039 194.845992 
L 216.283191 194.363125 
L 219.595993 193.910237 
L 222.908794 193.480841 
L 226.221596 193.067431 
L 229.534397 192.661525 
L 232.847199 192.253716 
L 236.16 191.835119 
L 239.472801 191.398304 
L 242.785603 190.938146 
L 246.098404 190.452174 
L 249.411206 189.939988 
L 252.724007 189.402714 
L 256.036809 188.842728 
L 259.34961 188.263314 
L 262.662412 187.668139 
L 265.975213 187.060927 
L 269.288015 186.445143 
L 272.600816 185.823776 
L 275.913618 185.199513 
L 279.226419 184.574569 
L 282.539221 183.950592 
L 285.852022 183.328763 
L 289.164824 182.709934 
L 292.477625 182.094589 
L 295.790427 181.482821 
L 299.103228 180.874592 
L 302.41603 180.269828 
L 305.728831 179.668725 
L 309.041633 179.07166 
L 312.354434 178.479114 
L 315.667236 177.89139 
L 318.980037 177.308885 
L 322.292839 176.73219 
L 325.60564 176.162168 
L 328.918442 175.599572 
L 332.231243 175.044918 
L 335.544045 174.498832 
L 338.856846 173.962067 
L 342.169647 173.435235 
L 345.482449 172.918774 
L 348.79525 172.413059 
L 352.108052 171.918504 
L 355.420853 171.435765 
L 358.733655 170.966213 
L 362.046456 170.511127 
L 365.359258 170.071649 
L 368.672059 169.649035 
L 371.984861 169.244611 
L 375.297662 168.859506 
L 378.610464 168.494857 
L 381.923265 168.151781 
L 385.236067 167.831245 
L 388.548868 167.534097 
L 391.86167 167.261095 
L 395.174471 167.012859 
L 398.487273 166.789891 
L 398.487273 152.194502 
L 398.487273 152.194502 
L 395.174471 152.246073 
L 391.86167 152.331063 
L 388.548868 152.449244 
L 385.236067 152.600068 
L 381.923265 152.782838 
L 378.610464 152.996536 
L 375.297662 153.239763 
L 371.984861 153.511014 
L 368.672059 153.80882 
L 365.359258 154.131695 
L 362.046456 154.478126 
L 358.733655 154.846638 
L 355.420853 155.23591 
L 352.108052 155.644671 
L 348.79525 156.071729 
L 345.482449 156.515935 
L 342.169647 156.976111 
L 338.856846 157.451205 
L 335.544045 157.940479 
L 332.231243 158.443378 
L 328.918442 158.959315 
L 325.60564 159.487653 
L 322.292839 160.027874 
L 318.980037 160.579593 
L 315.667236 161.14222 
L 312.354434 161.714947 
L 309.041633 162.296908 
L 305.728831 162.887219 
L 302.41603 163.484994 
L 299.103228 164.089347 
L 295.790427 164.699552 
L 292.477625 165.315028 
L 289.164824 165.935142 
L 285.852022 166.559001 
L 282.539221 167.185355 
L 279.226419 167.812498 
L 275.913618 168.438227 
L 272.600816 169.059835 
L 269.288015 169.674132 
L 265.975213 170.277439 
L 262.662412 170.865579 
L 259.34961 171.434104 
L 256.036809 171.978656 
L 252.724007 172.495442 
L 249.411206 172.981636 
L 246.098404 173.43603 
L 242.785603 173.859302 
L 239.472801 174.25416 
L 236.16 174.625379 
L 232.847199 174.979455 
L 229.534397 175.323541 
L 226.221596 175.664827 
L 222.908794 176.010032 
L 219.595993 176.364864 
L 216.283191 176.734047 
L 212.97039 177.121512 
L 209.657588 177.531183 
L 206.344787 177.966611 
L 203.031985 178.430597 
L 199.719184 178.925062 
L 196.406382 179.451366 
L 193.093581 180.01112 
L 189.780779 180.606007 
L 186.467978 181.237515 
L 183.155176 181.906622 
L 179.842375 182.61389 
L 176.529573 183.359674 
L 173.216772 184.145143 
L 169.90397 184.972163 
L 166.591169 185.842832 
L 163.278367 186.758712 
L 159.965566 187.720638 
L 156.652764 188.728495 
L 153.339963 189.782493 
L 150.027161 190.883631 
L 146.71436 192.029283 
L 143.401558 193.216848 
L 140.088757 194.443126 
L 136.775955 195.702279 
L 133.463154 196.989106 
L 130.150353 198.301383 
L 126.837551 199.64072 
L 123.52475 201.016578 
L 120.211948 202.451294 
L 116.899147 203.978716 
L 113.586345 205.645787 
L 110.273544 207.512848 
L 106.960742 209.653147 
L 103.647941 212.155393 
L 100.335139 215.125166 
L 97.022338 218.691592 
L 93.709536 223.014512 
L 90.396735 228.291814 
L 87.083933 234.768827 
L 83.771132 242.757848 
L 80.45833 252.713251 
L 77.145529 265.433639 
L 73.832727 282.758257 
z
" style="fill:#0000ff;fill-opacity:0.4;"/>
   </g>
   <g id="PolyCollection_3">
    <path clip-path="url(#pb0938f8bab)" d="M 73.832727 153.608485 
L 73.832727 157.447095 
L 77.145529 141.140725 
L 80.45833 129.258944 
L 83.771132 119.931749 
L 87.083933 112.323856 
L 90.396735 105.980634 
L 93.709536 100.61658 
L 97.022338 96.032578 
L 100.335139 92.080227 
L 103.647941 88.644903 
L 106.960742 85.636466 
L 110.273544 82.983324 
L 113.586345 80.6282 
L 116.899147 78.524969 
L 120.211948 76.636228 
L 123.52475 74.93144 
L 126.837551 73.385498 
L 130.150353 71.977612 
L 133.463154 70.690451 
L 136.775955 69.509472 
L 140.088757 68.422395 
L 143.401558 67.41879 
L 146.71436 66.489748 
L 150.027161 65.627618 
L 153.339963 64.825799 
L 156.652764 64.078568 
L 159.965566 63.380943 
L 163.278367 62.728572 
L 166.591169 62.117637 
L 169.90397 61.544777 
L 173.216772 61.007031 
L 176.529573 60.501777 
L 179.842375 60.026695 
L 183.155176 59.579726 
L 186.467978 59.159047 
L 189.780779 58.763038 
L 193.093581 58.39027 
L 196.406382 58.039483 
L 199.719184 57.709572 
L 203.031985 57.399579 
L 206.344787 57.108681 
L 209.657588 56.836187 
L 212.97039 56.581526 
L 216.283191 56.344251 
L 219.595993 56.124027 
L 222.908794 55.920626 
L 226.221596 55.73392 
L 229.534397 55.563866 
L 232.847199 55.410485 
L 236.16 55.273839 
L 239.472801 55.153985 
L 242.785603 55.050939 
L 246.098404 54.964611 
L 249.411206 54.894755 
L 252.724007 54.840914 
L 256.036809 54.802375 
L 259.34961 54.778153 
L 262.662412 54.766995 
L 265.975213 54.767413 
L 269.288015 54.777745 
L 272.600816 54.796224 
L 275.913618 54.821063 
L 279.226419 54.850528 
L 282.539221 54.883002 
L 285.852022 54.917032 
L 289.164824 54.951359 
L 292.477625 54.98493 
L 295.790427 55.016899 
L 299.103228 55.046617 
L 302.41603 55.073614 
L 305.728831 55.097579 
L 309.041633 55.11834 
L 312.354434 55.13584 
L 315.667236 55.150122 
L 318.980037 55.161308 
L 322.292839 55.169583 
L 325.60564 55.175185 
L 328.918442 55.17839 
L 332.231243 55.179503 
L 335.544045 55.178854 
L 338.856846 55.176784 
L 342.169647 55.173643 
L 345.482449 55.169788 
L 348.79525 55.165571 
L 352.108052 55.161342 
L 355.420853 55.157443 
L 358.733655 55.154203 
L 362.046456 55.151939 
L 365.359258 55.150952 
L 368.672059 55.151524 
L 371.984861 55.153916 
L 375.297662 55.158367 
L 378.610464 55.165088 
L 381.923265 55.174266 
L 385.236067 55.186052 
L 388.548868 55.200566 
L 391.86167 55.217883 
L 395.174471 55.238033 
L 398.487273 55.260991 
L 398.487273 54.194388 
L 398.487273 54.194388 
L 395.174471 54.173935 
L 391.86167 54.156373 
L 388.548868 54.141691 
L 385.236067 54.129831 
L 381.923265 54.120688 
L 378.610464 54.114121 
L 375.297662 54.109955 
L 371.984861 54.107983 
L 368.672059 54.10797 
L 365.359258 54.109653 
L 362.046456 54.112747 
L 358.733655 54.116942 
L 355.420853 54.12191 
L 352.108052 54.127303 
L 348.79525 54.132756 
L 345.482449 54.137893 
L 342.169647 54.142327 
L 338.856846 54.14566 
L 335.544045 54.147496 
L 332.231243 54.147435 
L 328.918442 54.145085 
L 325.60564 54.140064 
L 322.292839 54.13201 
L 318.980037 54.120589 
L 315.667236 54.105502 
L 312.354434 54.086505 
L 309.041633 54.06342 
L 305.728831 54.036156 
L 302.41603 54.004734 
L 299.103228 53.96931 
L 295.790427 53.930208 
L 292.477625 53.887945 
L 289.164824 53.843267 
L 285.852022 53.797167 
L 282.539221 53.750902 
L 279.226419 53.705989 
L 275.913618 53.664183 
L 272.600816 53.627429 
L 269.288015 53.597782 
L 265.975213 53.577314 
L 262.662412 53.568 
L 259.34961 53.571615 
L 256.036809 53.589643 
L 252.724007 53.623219 
L 249.411206 53.673115 
L 246.098404 53.73976 
L 242.785603 53.823297 
L 239.472801 53.923654 
L 236.16 54.04062 
L 232.847199 54.173925 
L 229.534397 54.323294 
L 226.221596 54.488499 
L 222.908794 54.669389 
L 219.595993 54.865912 
L 216.283191 55.078129 
L 212.97039 55.306216 
L 209.657588 55.550472 
L 206.344787 55.811314 
L 203.031985 56.089287 
L 199.719184 56.385055 
L 196.406382 56.699412 
L 193.093581 57.033284 
L 189.780779 57.387735 
L 186.467978 57.763979 
L 183.155176 58.16339 
L 179.842375 58.587522 
L 176.529573 59.038122 
L 173.216772 59.51716 
L 169.90397 60.026855 
L 166.591169 60.569709 
L 163.278367 61.148553 
L 159.965566 61.766592 
L 156.652764 62.427472 
L 153.339963 63.135348 
L 150.027161 63.89498 
L 146.71436 64.711835 
L 143.401558 65.592229 
L 140.088757 66.543487 
L 136.775955 67.574151 
L 133.463154 68.694237 
L 130.150353 69.915557 
L 126.837551 71.25213 
L 123.52475 72.720708 
L 120.211948 74.341447 
L 116.899147 76.138781 
L 113.586345 78.142566 
L 110.273544 80.389569 
L 106.960742 82.925446 
L 103.647941 85.80735 
L 100.335139 89.107415 
L 97.022338 92.917438 
L 93.709536 97.355405 
L 90.396735 102.575296 
L 87.083933 108.784008 
L 83.771132 116.275857 
L 80.45833 125.512922 
L 77.145529 137.334122 
L 73.832727 153.608485 
z
" style="fill:#00ffff;fill-opacity:0.4;"/>
   </g>
   <g id="matplotlib.axis_1">
    <g id="xtick_1">
     <g id="line2d_1">
      <path clip-path="url(#pb0938f8bab)" d="M 70.519926 307.584 
L 70.519926 41.472 
" style="fill:none;stroke:#b0b0b0;stroke-linecap:square;stroke-width:0.8;"/>
     </g>
     <g id="line2d_2">
      <defs>
       <path d="M 0 0 
L 0 3.5 
" id="mf9d476842a" style="stroke:#000000;stroke-width:0.8;"/>
      </defs>
      <g>
       <use style="stroke:#000000;stroke-width:0.8;" x="70.519926" xlink:href="#mf9d476842a" y="307.584"/>
      </g>
     </g>
     <g id="text_1">
      <!-- 0.0 -->
      <defs>
       <path d="M 31.78125 66.40625 
Q 24.171875 66.40625 20.328125 58.90625 
Q 16.5 51.421875 16.5 36.375 
Q 16.5 21.390625 20.328125 13.890625 
Q 24.171875 6.390625 31.78125 6.390625 
Q 39.453125 6.390625 43.28125 13.890625 
Q 47.125 21.390625 47.125 36.375 
Q 47.125 51.421875 43.28125 58.90625 
Q 39.453125 66.40625 31.78125 66.40625 
z
M 31.78125 74.21875 
Q 44.046875 74.21875 50.515625 64.515625 
Q 56.984375 54.828125 56.984375 36.375 
Q 56.984375 17.96875 50.515625 8.265625 
Q 44.046875 -1.421875 31.78125 -1.421875 
Q 19.53125 -1.421875 13.0625 8.265625 
Q 6.59375 17.96875 6.59375 36.375 
Q 6.59375 54.828125 13.0625 64.515625 
Q 19.53125 74.21875 31.78125 74.21875 
z
" id="DejaVuSans-48"/>
       <path d="M 10.6875 12.40625 
L 21 12.40625 
L 21 0 
L 10.6875 0 
z
" id="DejaVuSans-46"/>
      </defs>
      <g transform="translate(62.568363 322.182437)scale(0.1 -0.1)">
       <use xlink:href="#DejaVuSans-48"/>
       <use x="63.623047" xlink:href="#DejaVuSans-46"/>
       <use x="95.410156" xlink:href="#DejaVuSans-48"/>
      </g>
     </g>
    </g>
    <g id="xtick_2">
     <g id="line2d_3">
      <path clip-path="url(#pb0938f8bab)" d="M 136.775955 307.584 
L 136.775955 41.472 
" style="fill:none;stroke:#b0b0b0;stroke-linecap:square;stroke-width:0.8;"/>
     </g>
     <g id="line2d_4">
      <g>
       <use style="stroke:#000000;stroke-width:0.8;" x="136.775955" xlink:href="#mf9d476842a" y="307.584"/>
      </g>
     </g>
     <g id="text_2">
      <!-- 0.2 -->
      <defs>
       <path d="M 19.1875 8.296875 
L 53.609375 8.296875 
L 53.609375 0 
L 7.328125 0 
L 7.328125 8.296875 
Q 12.9375 14.109375 22.625 23.890625 
Q 32.328125 33.6875 34.8125 36.53125 
Q 39.546875 41.84375 41.421875 45.53125 
Q 43.3125 49.21875 43.3125 52.78125 
Q 43.3125 58.59375 39.234375 62.25 
Q 35.15625 65.921875 28.609375 65.921875 
Q 23.96875 65.921875 18.8125 64.3125 
Q 13.671875 62.703125 7.8125 59.421875 
L 7.8125 69.390625 
Q 13.765625 71.78125 18.9375 73 
Q 24.125 74.21875 28.421875 74.21875 
Q 39.75 74.21875 46.484375 68.546875 
Q 53.21875 62.890625 53.21875 53.421875 
Q 53.21875 48.921875 51.53125 44.890625 
Q 49.859375 40.875 45.40625 35.40625 
Q 44.1875 33.984375 37.640625 27.21875 
Q 31.109375 20.453125 19.1875 8.296875 
z
" id="DejaVuSans-50"/>
      </defs>
      <g transform="translate(128.824393 322.182437)scale(0.1 -0.1)">
       <use xlink:href="#DejaVuSans-48"/>
       <use x="63.623047" xlink:href="#DejaVuSans-46"/>
       <use x="95.410156" xlink:href="#DejaVuSans-50"/>
      </g>
     </g>
    </g>
    <g id="xtick_3">
     <g id="line2d_5">
      <path clip-path="url(#pb0938f8bab)" d="M 203.031985 307.584 
L 203.031985 41.472 
" style="fill:none;stroke:#b0b0b0;stroke-linecap:square;stroke-width:0.8;"/>
     </g>
     <g id="line2d_6">
      <g>
       <use style="stroke:#000000;stroke-width:0.8;" x="203.031985" xlink:href="#mf9d476842a" y="307.584"/>
      </g>
     </g>
     <g id="text_3">
      <!-- 0.4 -->
      <defs>
       <path d="M 37.796875 64.3125 
L 12.890625 25.390625 
L 37.796875 25.390625 
z
M 35.203125 72.90625 
L 47.609375 72.90625 
L 47.609375 25.390625 
L 58.015625 25.390625 
L 58.015625 17.1875 
L 47.609375 17.1875 
L 47.609375 0 
L 37.796875 0 
L 37.796875 17.1875 
L 4.890625 17.1875 
L 4.890625 26.703125 
z
" id="DejaVuSans-52"/>
      </defs>
      <g transform="translate(195.080423 322.182437)scale(0.1 -0.1)">
       <use xlink:href="#DejaVuSans-48"/>
       <use x="63.623047" xlink:href="#DejaVuSans-46"/>
       <use x="95.410156" xlink:href="#DejaVuSans-52"/>
      </g>
     </g>
    </g>
    <g id="xtick_4">
     <g id="line2d_7">
      <path clip-path="url(#pb0938f8bab)" d="M 269.288015 307.584 
L 269.288015 41.472 
" style="fill:none;stroke:#b0b0b0;stroke-linecap:square;stroke-width:0.8;"/>
     </g>
     <g id="line2d_8">
      <g>
       <use style="stroke:#000000;stroke-width:0.8;" x="269.288015" xlink:href="#mf9d476842a" y="307.584"/>
      </g>
     </g>
     <g id="text_4">
      <!-- 0.6 -->
      <defs>
       <path d="M 33.015625 40.375 
Q 26.375 40.375 22.484375 35.828125 
Q 18.609375 31.296875 18.609375 23.390625 
Q 18.609375 15.53125 22.484375 10.953125 
Q 26.375 6.390625 33.015625 6.390625 
Q 39.65625 6.390625 43.53125 10.953125 
Q 47.40625 15.53125 47.40625 23.390625 
Q 47.40625 31.296875 43.53125 35.828125 
Q 39.65625 40.375 33.015625 40.375 
z
M 52.59375 71.296875 
L 52.59375 62.3125 
Q 48.875 64.0625 45.09375 64.984375 
Q 41.3125 65.921875 37.59375 65.921875 
Q 27.828125 65.921875 22.671875 59.328125 
Q 17.53125 52.734375 16.796875 39.40625 
Q 19.671875 43.65625 24.015625 45.921875 
Q 28.375 48.1875 33.59375 48.1875 
Q 44.578125 48.1875 50.953125 41.515625 
Q 57.328125 34.859375 57.328125 23.390625 
Q 57.328125 12.15625 50.6875 5.359375 
Q 44.046875 -1.421875 33.015625 -1.421875 
Q 20.359375 -1.421875 13.671875 8.265625 
Q 6.984375 17.96875 6.984375 36.375 
Q 6.984375 53.65625 15.1875 63.9375 
Q 23.390625 74.21875 37.203125 74.21875 
Q 40.921875 74.21875 44.703125 73.484375 
Q 48.484375 72.75 52.59375 71.296875 
z
" id="DejaVuSans-54"/>
      </defs>
      <g transform="translate(261.336452 322.182437)scale(0.1 -0.1)">
       <use xlink:href="#DejaVuSans-48"/>
       <use x="63.623047" xlink:href="#DejaVuSans-46"/>
       <use x="95.410156" xlink:href="#DejaVuSans-54"/>
      </g>
     </g>
    </g>
    <g id="xtick_5">
     <g id="line2d_9">
      <path clip-path="url(#pb0938f8bab)" d="M 335.544045 307.584 
L 335.544045 41.472 
" style="fill:none;stroke:#b0b0b0;stroke-linecap:square;stroke-width:0.8;"/>
     </g>
     <g id="line2d_10">
      <g>
       <use style="stroke:#000000;stroke-width:0.8;" x="335.544045" xlink:href="#mf9d476842a" y="307.584"/>
      </g>
     </g>
     <g id="text_5">
      <!-- 0.8 -->
      <defs>
       <path d="M 31.78125 34.625 
Q 24.75 34.625 20.71875 30.859375 
Q 16.703125 27.09375 16.703125 20.515625 
Q 16.703125 13.921875 20.71875 10.15625 
Q 24.75 6.390625 31.78125 6.390625 
Q 38.8125 6.390625 42.859375 10.171875 
Q 46.921875 13.96875 46.921875 20.515625 
Q 46.921875 27.09375 42.890625 30.859375 
Q 38.875 34.625 31.78125 34.625 
z
M 21.921875 38.8125 
Q 15.578125 40.375 12.03125 44.71875 
Q 8.5 49.078125 8.5 55.328125 
Q 8.5 64.0625 14.71875 69.140625 
Q 20.953125 74.21875 31.78125 74.21875 
Q 42.671875 74.21875 48.875 69.140625 
Q 55.078125 64.0625 55.078125 55.328125 
Q 55.078125 49.078125 51.53125 44.71875 
Q 48 40.375 41.703125 38.8125 
Q 48.828125 37.15625 52.796875 32.3125 
Q 56.78125 27.484375 56.78125 20.515625 
Q 56.78125 9.90625 50.3125 4.234375 
Q 43.84375 -1.421875 31.78125 -1.421875 
Q 19.734375 -1.421875 13.25 4.234375 
Q 6.78125 9.90625 6.78125 20.515625 
Q 6.78125 27.484375 10.78125 32.3125 
Q 14.796875 37.15625 21.921875 38.8125 
z
M 18.3125 54.390625 
Q 18.3125 48.734375 21.84375 45.5625 
Q 25.390625 42.390625 31.78125 42.390625 
Q 38.140625 42.390625 41.71875 45.5625 
Q 45.3125 48.734375 45.3125 54.390625 
Q 45.3125 60.0625 41.71875 63.234375 
Q 38.140625 66.40625 31.78125 66.40625 
Q 25.390625 66.40625 21.84375 63.234375 
Q 18.3125 60.0625 18.3125 54.390625 
z
" id="DejaVuSans-56"/>
      </defs>
      <g transform="translate(327.592482 322.182437)scale(0.1 -0.1)">
       <use xlink:href="#DejaVuSans-48"/>
       <use x="63.623047" xlink:href="#DejaVuSans-46"/>
       <use x="95.410156" xlink:href="#DejaVuSans-56"/>
      </g>
     </g>
    </g>
    <g id="xtick_6">
     <g id="line2d_11">
      <path clip-path="url(#pb0938f8bab)" d="M 401.800074 307.584 
L 401.800074 41.472 
" style="fill:none;stroke:#b0b0b0;stroke-linecap:square;stroke-width:0.8;"/>
     </g>
     <g id="line2d_12">
      <g>
       <use style="stroke:#000000;stroke-width:0.8;" x="401.800074" xlink:href="#mf9d476842a" y="307.584"/>
      </g>
     </g>
     <g id="text_6">
      <!-- 1.0 -->
      <defs>
       <path d="M 12.40625 8.296875 
L 28.515625 8.296875 
L 28.515625 63.921875 
L 10.984375 60.40625 
L 10.984375 69.390625 
L 28.421875 72.90625 
L 38.28125 72.90625 
L 38.28125 8.296875 
L 54.390625 8.296875 
L 54.390625 0 
L 12.40625 0 
z
" id="DejaVuSans-49"/>
      </defs>
      <g transform="translate(393.848512 322.182437)scale(0.1 -0.1)">
       <use xlink:href="#DejaVuSans-49"/>
       <use x="63.623047" xlink:href="#DejaVuSans-46"/>
       <use x="95.410156" xlink:href="#DejaVuSans-48"/>
      </g>
     </g>
    </g>
    <g id="text_7">
     <!-- $\mathrm{Time \ (seconds)}$ -->
     <defs>
      <path d="M -0.296875 72.90625 
L 61.375 72.90625 
L 61.375 64.59375 
L 35.5 64.59375 
L 35.5 0 
L 25.59375 0 
L 25.59375 64.59375 
L -0.296875 64.59375 
z
" id="DejaVuSans-84"/>
      <path d="M 9.421875 54.6875 
L 18.40625 54.6875 
L 18.40625 0 
L 9.421875 0 
z
M 9.421875 75.984375 
L 18.40625 75.984375 
L 18.40625 64.59375 
L 9.421875 64.59375 
z
" id="DejaVuSans-105"/>
      <path d="M 52 44.1875 
Q 55.375 50.25 60.0625 53.125 
Q 64.75 56 71.09375 56 
Q 79.640625 56 84.28125 50.015625 
Q 88.921875 44.046875 88.921875 33.015625 
L 88.921875 0 
L 79.890625 0 
L 79.890625 32.71875 
Q 79.890625 40.578125 77.09375 44.375 
Q 74.3125 48.1875 68.609375 48.1875 
Q 61.625 48.1875 57.5625 43.546875 
Q 53.515625 38.921875 53.515625 30.90625 
L 53.515625 0 
L 44.484375 0 
L 44.484375 32.71875 
Q 44.484375 40.625 41.703125 44.40625 
Q 38.921875 48.1875 33.109375 48.1875 
Q 26.21875 48.1875 22.15625 43.53125 
Q 18.109375 38.875 18.109375 30.90625 
L 18.109375 0 
L 9.078125 0 
L 9.078125 54.6875 
L 18.109375 54.6875 
L 18.109375 46.1875 
Q 21.1875 51.21875 25.484375 53.609375 
Q 29.78125 56 35.6875 56 
Q 41.65625 56 45.828125 52.96875 
Q 50 49.953125 52 44.1875 
z
" id="DejaVuSans-109"/>
      <path d="M 56.203125 29.59375 
L 56.203125 25.203125 
L 14.890625 25.203125 
Q 15.484375 15.921875 20.484375 11.0625 
Q 25.484375 6.203125 34.421875 6.203125 
Q 39.59375 6.203125 44.453125 7.46875 
Q 49.3125 8.734375 54.109375 11.28125 
L 54.109375 2.78125 
Q 49.265625 0.734375 44.1875 -0.34375 
Q 39.109375 -1.421875 33.890625 -1.421875 
Q 20.796875 -1.421875 13.15625 6.1875 
Q 5.515625 13.8125 5.515625 26.8125 
Q 5.515625 40.234375 12.765625 48.109375 
Q 20.015625 56 32.328125 56 
Q 43.359375 56 49.78125 48.890625 
Q 56.203125 41.796875 56.203125 29.59375 
z
M 47.21875 32.234375 
Q 47.125 39.59375 43.09375 43.984375 
Q 39.0625 48.390625 32.421875 48.390625 
Q 24.90625 48.390625 20.390625 44.140625 
Q 15.875 39.890625 15.1875 32.171875 
z
" id="DejaVuSans-101"/>
      <path d="M 31 75.875 
Q 24.46875 64.65625 21.28125 53.65625 
Q 18.109375 42.671875 18.109375 31.390625 
Q 18.109375 20.125 21.3125 9.0625 
Q 24.515625 -2 31 -13.1875 
L 23.1875 -13.1875 
Q 15.875 -1.703125 12.234375 9.375 
Q 8.59375 20.453125 8.59375 31.390625 
Q 8.59375 42.28125 12.203125 53.3125 
Q 15.828125 64.359375 23.1875 75.875 
z
" id="DejaVuSans-40"/>
      <path d="M 44.28125 53.078125 
L 44.28125 44.578125 
Q 40.484375 46.53125 36.375 47.5 
Q 32.28125 48.484375 27.875 48.484375 
Q 21.1875 48.484375 17.84375 46.4375 
Q 14.5 44.390625 14.5 40.28125 
Q 14.5 37.15625 16.890625 35.375 
Q 19.28125 33.59375 26.515625 31.984375 
L 29.59375 31.296875 
Q 39.15625 29.25 43.1875 25.515625 
Q 47.21875 21.78125 47.21875 15.09375 
Q 47.21875 7.46875 41.1875 3.015625 
Q 35.15625 -1.421875 24.609375 -1.421875 
Q 20.21875 -1.421875 15.453125 -0.5625 
Q 10.6875 0.296875 5.421875 2 
L 5.421875 11.28125 
Q 10.40625 8.6875 15.234375 7.390625 
Q 20.0625 6.109375 24.8125 6.109375 
Q 31.15625 6.109375 34.5625 8.28125 
Q 37.984375 10.453125 37.984375 14.40625 
Q 37.984375 18.0625 35.515625 20.015625 
Q 33.0625 21.96875 24.703125 23.78125 
L 21.578125 24.515625 
Q 13.234375 26.265625 9.515625 29.90625 
Q 5.8125 33.546875 5.8125 39.890625 
Q 5.8125 47.609375 11.28125 51.796875 
Q 16.75 56 26.8125 56 
Q 31.78125 56 36.171875 55.265625 
Q 40.578125 54.546875 44.28125 53.078125 
z
" id="DejaVuSans-115"/>
      <path d="M 48.78125 52.59375 
L 48.78125 44.1875 
Q 44.96875 46.296875 41.140625 47.34375 
Q 37.3125 48.390625 33.40625 48.390625 
Q 24.65625 48.390625 19.8125 42.84375 
Q 14.984375 37.3125 14.984375 27.296875 
Q 14.984375 17.28125 19.8125 11.734375 
Q 24.65625 6.203125 33.40625 6.203125 
Q 37.3125 6.203125 41.140625 7.25 
Q 44.96875 8.296875 48.78125 10.40625 
L 48.78125 2.09375 
Q 45.015625 0.34375 40.984375 -0.53125 
Q 36.96875 -1.421875 32.421875 -1.421875 
Q 20.0625 -1.421875 12.78125 6.34375 
Q 5.515625 14.109375 5.515625 27.296875 
Q 5.515625 40.671875 12.859375 48.328125 
Q 20.21875 56 33.015625 56 
Q 37.15625 56 41.109375 55.140625 
Q 45.0625 54.296875 48.78125 52.59375 
z
" id="DejaVuSans-99"/>
      <path d="M 30.609375 48.390625 
Q 23.390625 48.390625 19.1875 42.75 
Q 14.984375 37.109375 14.984375 27.296875 
Q 14.984375 17.484375 19.15625 11.84375 
Q 23.34375 6.203125 30.609375 6.203125 
Q 37.796875 6.203125 41.984375 11.859375 
Q 46.1875 17.53125 46.1875 27.296875 
Q 46.1875 37.015625 41.984375 42.703125 
Q 37.796875 48.390625 30.609375 48.390625 
z
M 30.609375 56 
Q 42.328125 56 49.015625 48.375 
Q 55.71875 40.765625 55.71875 27.296875 
Q 55.71875 13.875 49.015625 6.21875 
Q 42.328125 -1.421875 30.609375 -1.421875 
Q 18.84375 -1.421875 12.171875 6.21875 
Q 5.515625 13.875 5.515625 27.296875 
Q 5.515625 40.765625 12.171875 48.375 
Q 18.84375 56 30.609375 56 
z
" id="DejaVuSans-111"/>
      <path d="M 54.890625 33.015625 
L 54.890625 0 
L 45.90625 0 
L 45.90625 32.71875 
Q 45.90625 40.484375 42.875 44.328125 
Q 39.84375 48.1875 33.796875 48.1875 
Q 26.515625 48.1875 22.3125 43.546875 
Q 18.109375 38.921875 18.109375 30.90625 
L 18.109375 0 
L 9.078125 0 
L 9.078125 54.6875 
L 18.109375 54.6875 
L 18.109375 46.1875 
Q 21.34375 51.125 25.703125 53.5625 
Q 30.078125 56 35.796875 56 
Q 45.21875 56 50.046875 50.171875 
Q 54.890625 44.34375 54.890625 33.015625 
z
" id="DejaVuSans-110"/>
      <path d="M 45.40625 46.390625 
L 45.40625 75.984375 
L 54.390625 75.984375 
L 54.390625 0 
L 45.40625 0 
L 45.40625 8.203125 
Q 42.578125 3.328125 38.25 0.953125 
Q 33.9375 -1.421875 27.875 -1.421875 
Q 17.96875 -1.421875 11.734375 6.484375 
Q 5.515625 14.40625 5.515625 27.296875 
Q 5.515625 40.1875 11.734375 48.09375 
Q 17.96875 56 27.875 56 
Q 33.9375 56 38.25 53.625 
Q 42.578125 51.265625 45.40625 46.390625 
z
M 14.796875 27.296875 
Q 14.796875 17.390625 18.875 11.75 
Q 22.953125 6.109375 30.078125 6.109375 
Q 37.203125 6.109375 41.296875 11.75 
Q 45.40625 17.390625 45.40625 27.296875 
Q 45.40625 37.203125 41.296875 42.84375 
Q 37.203125 48.484375 30.078125 48.484375 
Q 22.953125 48.484375 18.875 42.84375 
Q 14.796875 37.203125 14.796875 27.296875 
z
" id="DejaVuSans-100"/>
      <path d="M 8.015625 75.875 
L 15.828125 75.875 
Q 23.140625 64.359375 26.78125 53.3125 
Q 30.421875 42.28125 30.421875 31.390625 
Q 30.421875 20.453125 26.78125 9.375 
Q 23.140625 -1.703125 15.828125 -13.1875 
L 8.015625 -13.1875 
Q 14.5 -2 17.703125 9.0625 
Q 20.90625 20.125 20.90625 31.390625 
Q 20.90625 42.671875 17.703125 53.65625 
Q 14.5 64.65625 8.015625 75.875 
z
" id="DejaVuSans-41"/>
     </defs>
     <g transform="translate(197.76 335.860562)scale(0.1 -0.1)">
      <use transform="translate(0 0.015625)" xlink:href="#DejaVuSans-84"/>
      <use transform="translate(61.083984 0.015625)" xlink:href="#DejaVuSans-105"/>
      <use transform="translate(88.867188 0.015625)" xlink:href="#DejaVuSans-109"/>
      <use transform="translate(186.279297 0.015625)" xlink:href="#DejaVuSans-101"/>
      <use transform="translate(280.273113 0.015625)" xlink:href="#DejaVuSans-40"/>
      <use transform="translate(319.286785 0.015625)" xlink:href="#DejaVuSans-115"/>
      <use transform="translate(371.386394 0.015625)" xlink:href="#DejaVuSans-101"/>
      <use transform="translate(432.909832 0.015625)" xlink:href="#DejaVuSans-99"/>
      <use transform="translate(487.8903 0.015625)" xlink:href="#DejaVuSans-111"/>
      <use transform="translate(549.071941 0.015625)" xlink:href="#DejaVuSans-110"/>
      <use transform="translate(612.450847 0.015625)" xlink:href="#DejaVuSans-100"/>
      <use transform="translate(675.92741 0.015625)" xlink:href="#DejaVuSans-115"/>
      <use transform="translate(728.027019 0.015625)" xlink:href="#DejaVuSans-41"/>
     </g>
    </g>
   </g>
   <g id="matplotlib.axis_2">
    <g id="ytick_1">
     <g id="line2d_13">
      <path clip-path="url(#pb0938f8bab)" d="M 57.6 245.103612 
L 414.72 245.103612 
" style="fill:none;stroke:#b0b0b0;stroke-linecap:square;stroke-width:0.8;"/>
     </g>
     <g id="line2d_14">
      <defs>
       <path d="M 0 0 
L -3.5 0 
" id="m0eede584a9" style="stroke:#000000;stroke-width:0.8;"/>
      </defs>
      <g>
       <use style="stroke:#000000;stroke-width:0.8;" x="57.6" xlink:href="#m0eede584a9" y="245.103612"/>
      </g>
     </g>
     <g id="text_8">
      <!-- $\mathdefault{10^{-2}}$ -->
      <defs>
       <path d="M 10.59375 35.5 
L 73.1875 35.5 
L 73.1875 27.203125 
L 10.59375 27.203125 
z
" id="DejaVuSans-8722"/>
      </defs>
      <g transform="translate(27.1 248.902831)scale(0.1 -0.1)">
       <use transform="translate(0 0.765625)" xlink:href="#DejaVuSans-49"/>
       <use transform="translate(63.623047 0.765625)" xlink:href="#DejaVuSans-48"/>
       <use transform="translate(128.203125 39.046875)scale(0.7)" xlink:href="#DejaVuSans-8722"/>
       <use transform="translate(186.855469 39.046875)scale(0.7)" xlink:href="#DejaVuSans-50"/>
      </g>
     </g>
    </g>
    <g id="ytick_2">
     <g id="line2d_15">
      <path clip-path="url(#pb0938f8bab)" d="M 57.6 142.165987 
L 414.72 142.165987 
" style="fill:none;stroke:#b0b0b0;stroke-linecap:square;stroke-width:0.8;"/>
     </g>
     <g id="line2d_16">
      <g>
       <use style="stroke:#000000;stroke-width:0.8;" x="57.6" xlink:href="#m0eede584a9" y="142.165987"/>
      </g>
     </g>
     <g id="text_9">
      <!-- $\mathdefault{10^{-1}}$ -->
      <g transform="translate(27.1 145.965206)scale(0.1 -0.1)">
       <use transform="translate(0 0.684375)" xlink:href="#DejaVuSans-49"/>
       <use transform="translate(63.623047 0.684375)" xlink:href="#DejaVuSans-48"/>
       <use transform="translate(128.203125 38.965625)scale(0.7)" xlink:href="#DejaVuSans-8722"/>
       <use transform="translate(186.855469 38.965625)scale(0.7)" xlink:href="#DejaVuSans-49"/>
      </g>
     </g>
    </g>
    <g id="ytick_3">
     <g id="line2d_17">
      <defs>
       <path d="M 0 0 
L -2 0 
" id="me9c26aecce" style="stroke:#000000;stroke-width:0.6;"/>
      </defs>
      <g>
       <use style="stroke:#000000;stroke-width:0.6;" x="57.6" xlink:href="#me9c26aecce" y="298.927509"/>
      </g>
     </g>
    </g>
    <g id="ytick_4">
     <g id="line2d_18">
      <g>
       <use style="stroke:#000000;stroke-width:0.6;" x="57.6" xlink:href="#me9c26aecce" y="286.066612"/>
      </g>
     </g>
    </g>
    <g id="ytick_5">
     <g id="line2d_19">
      <g>
       <use style="stroke:#000000;stroke-width:0.6;" x="57.6" xlink:href="#me9c26aecce" y="276.090925"/>
      </g>
     </g>
    </g>
    <g id="ytick_6">
     <g id="line2d_20">
      <g>
       <use style="stroke:#000000;stroke-width:0.6;" x="57.6" xlink:href="#me9c26aecce" y="267.940196"/>
      </g>
     </g>
    </g>
    <g id="ytick_7">
     <g id="line2d_21">
      <g>
       <use style="stroke:#000000;stroke-width:0.6;" x="57.6" xlink:href="#me9c26aecce" y="261.048852"/>
      </g>
     </g>
    </g>
    <g id="ytick_8">
     <g id="line2d_22">
      <g>
       <use style="stroke:#000000;stroke-width:0.6;" x="57.6" xlink:href="#me9c26aecce" y="255.079299"/>
      </g>
     </g>
    </g>
    <g id="ytick_9">
     <g id="line2d_23">
      <g>
       <use style="stroke:#000000;stroke-width:0.6;" x="57.6" xlink:href="#me9c26aecce" y="249.81378"/>
      </g>
     </g>
    </g>
    <g id="ytick_10">
     <g id="line2d_24">
      <g>
       <use style="stroke:#000000;stroke-width:0.6;" x="57.6" xlink:href="#me9c26aecce" y="214.116299"/>
      </g>
     </g>
    </g>
    <g id="ytick_11">
     <g id="line2d_25">
      <g>
       <use style="stroke:#000000;stroke-width:0.6;" x="57.6" xlink:href="#me9c26aecce" y="195.989883"/>
      </g>
     </g>
    </g>
    <g id="ytick_12">
     <g id="line2d_26">
      <g>
       <use style="stroke:#000000;stroke-width:0.6;" x="57.6" xlink:href="#me9c26aecce" y="183.128986"/>
      </g>
     </g>
    </g>
    <g id="ytick_13">
     <g id="line2d_27">
      <g>
       <use style="stroke:#000000;stroke-width:0.6;" x="57.6" xlink:href="#me9c26aecce" y="173.1533"/>
      </g>
     </g>
    </g>
    <g id="ytick_14">
     <g id="line2d_28">
      <g>
       <use style="stroke:#000000;stroke-width:0.6;" x="57.6" xlink:href="#me9c26aecce" y="165.00257"/>
      </g>
     </g>
    </g>
    <g id="ytick_15">
     <g id="line2d_29">
      <g>
       <use style="stroke:#000000;stroke-width:0.6;" x="57.6" xlink:href="#me9c26aecce" y="158.111227"/>
      </g>
     </g>
    </g>
    <g id="ytick_16">
     <g id="line2d_30">
      <g>
       <use style="stroke:#000000;stroke-width:0.6;" x="57.6" xlink:href="#me9c26aecce" y="152.141673"/>
      </g>
     </g>
    </g>
    <g id="ytick_17">
     <g id="line2d_31">
      <g>
       <use style="stroke:#000000;stroke-width:0.6;" x="57.6" xlink:href="#me9c26aecce" y="146.876154"/>
      </g>
     </g>
    </g>
    <g id="ytick_18">
     <g id="line2d_32">
      <g>
       <use style="stroke:#000000;stroke-width:0.6;" x="57.6" xlink:href="#me9c26aecce" y="111.178674"/>
      </g>
     </g>
    </g>
    <g id="ytick_19">
     <g id="line2d_33">
      <g>
       <use style="stroke:#000000;stroke-width:0.6;" x="57.6" xlink:href="#me9c26aecce" y="93.052258"/>
      </g>
     </g>
    </g>
    <g id="ytick_20">
     <g id="line2d_34">
      <g>
       <use style="stroke:#000000;stroke-width:0.6;" x="57.6" xlink:href="#me9c26aecce" y="80.191361"/>
      </g>
     </g>
    </g>
    <g id="ytick_21">
     <g id="line2d_35">
      <g>
       <use style="stroke:#000000;stroke-width:0.6;" x="57.6" xlink:href="#me9c26aecce" y="70.215674"/>
      </g>
     </g>
    </g>
    <g id="ytick_22">
     <g id="line2d_36">
      <g>
       <use style="stroke:#000000;stroke-width:0.6;" x="57.6" xlink:href="#me9c26aecce" y="62.064945"/>
      </g>
     </g>
    </g>
    <g id="ytick_23">
     <g id="line2d_37">
      <g>
       <use style="stroke:#000000;stroke-width:0.6;" x="57.6" xlink:href="#me9c26aecce" y="55.173601"/>
      </g>
     </g>
    </g>
    <g id="ytick_24">
     <g id="line2d_38">
      <g>
       <use style="stroke:#000000;stroke-width:0.6;" x="57.6" xlink:href="#me9c26aecce" y="49.204048"/>
      </g>
     </g>
    </g>
    <g id="ytick_25">
     <g id="line2d_39">
      <g>
       <use style="stroke:#000000;stroke-width:0.6;" x="57.6" xlink:href="#me9c26aecce" y="43.938529"/>
      </g>
     </g>
    </g>
    <g id="text_10">
     <!-- $\mathrm{Relative \ error}$ ($N_{\mathrm{train}}=10$) -->
     <defs>
      <path d="M 44.390625 34.1875 
Q 47.5625 33.109375 50.5625 29.59375 
Q 53.5625 26.078125 56.59375 19.921875 
L 66.609375 0 
L 56 0 
L 46.6875 18.703125 
Q 43.0625 26.03125 39.671875 28.421875 
Q 36.28125 30.8125 30.421875 30.8125 
L 19.671875 30.8125 
L 19.671875 0 
L 9.8125 0 
L 9.8125 72.90625 
L 32.078125 72.90625 
Q 44.578125 72.90625 50.734375 67.671875 
Q 56.890625 62.453125 56.890625 51.90625 
Q 56.890625 45.015625 53.6875 40.46875 
Q 50.484375 35.9375 44.390625 34.1875 
z
M 19.671875 64.796875 
L 19.671875 38.921875 
L 32.078125 38.921875 
Q 39.203125 38.921875 42.84375 42.21875 
Q 46.484375 45.515625 46.484375 51.90625 
Q 46.484375 58.296875 42.84375 61.546875 
Q 39.203125 64.796875 32.078125 64.796875 
z
" id="DejaVuSans-82"/>
      <path d="M 9.421875 75.984375 
L 18.40625 75.984375 
L 18.40625 0 
L 9.421875 0 
z
" id="DejaVuSans-108"/>
      <path d="M 34.28125 27.484375 
Q 23.390625 27.484375 19.1875 25 
Q 14.984375 22.515625 14.984375 16.5 
Q 14.984375 11.71875 18.140625 8.90625 
Q 21.296875 6.109375 26.703125 6.109375 
Q 34.1875 6.109375 38.703125 11.40625 
Q 43.21875 16.703125 43.21875 25.484375 
L 43.21875 27.484375 
z
M 52.203125 31.203125 
L 52.203125 0 
L 43.21875 0 
L 43.21875 8.296875 
Q 40.140625 3.328125 35.546875 0.953125 
Q 30.953125 -1.421875 24.3125 -1.421875 
Q 15.921875 -1.421875 10.953125 3.296875 
Q 6 8.015625 6 15.921875 
Q 6 25.140625 12.171875 29.828125 
Q 18.359375 34.515625 30.609375 34.515625 
L 43.21875 34.515625 
L 43.21875 35.40625 
Q 43.21875 41.609375 39.140625 45 
Q 35.0625 48.390625 27.6875 48.390625 
Q 23 48.390625 18.546875 47.265625 
Q 14.109375 46.140625 10.015625 43.890625 
L 10.015625 52.203125 
Q 14.9375 54.109375 19.578125 55.046875 
Q 24.21875 56 28.609375 56 
Q 40.484375 56 46.34375 49.84375 
Q 52.203125 43.703125 52.203125 31.203125 
z
" id="DejaVuSans-97"/>
      <path d="M 18.3125 70.21875 
L 18.3125 54.6875 
L 36.8125 54.6875 
L 36.8125 47.703125 
L 18.3125 47.703125 
L 18.3125 18.015625 
Q 18.3125 11.328125 20.140625 9.421875 
Q 21.96875 7.515625 27.59375 7.515625 
L 36.8125 7.515625 
L 36.8125 0 
L 27.59375 0 
Q 17.1875 0 13.234375 3.875 
Q 9.28125 7.765625 9.28125 18.015625 
L 9.28125 47.703125 
L 2.6875 47.703125 
L 2.6875 54.6875 
L 9.28125 54.6875 
L 9.28125 70.21875 
z
" id="DejaVuSans-116"/>
      <path d="M 2.984375 54.6875 
L 12.5 54.6875 
L 29.59375 8.796875 
L 46.6875 54.6875 
L 56.203125 54.6875 
L 35.6875 0 
L 23.484375 0 
z
" id="DejaVuSans-118"/>
      <path d="M 41.109375 46.296875 
Q 39.59375 47.171875 37.8125 47.578125 
Q 36.03125 48 33.890625 48 
Q 26.265625 48 22.1875 43.046875 
Q 18.109375 38.09375 18.109375 28.8125 
L 18.109375 0 
L 9.078125 0 
L 9.078125 54.6875 
L 18.109375 54.6875 
L 18.109375 46.1875 
Q 20.953125 51.171875 25.484375 53.578125 
Q 30.03125 56 36.53125 56 
Q 37.453125 56 38.578125 55.875 
Q 39.703125 55.765625 41.0625 55.515625 
z
" id="DejaVuSans-114"/>
      <path id="DejaVuSans-32"/>
      <path d="M 16.890625 72.90625 
L 30.171875 72.90625 
L 50.296875 10.40625 
L 62.5 72.90625 
L 72.125 72.90625 
L 57.90625 0 
L 44.578125 0 
L 24.515625 62.890625 
L 12.3125 0 
L 2.6875 0 
z
" id="DejaVuSans-Oblique-78"/>
      <path d="M 10.59375 45.40625 
L 73.1875 45.40625 
L 73.1875 37.203125 
L 10.59375 37.203125 
z
M 10.59375 25.484375 
L 73.1875 25.484375 
L 73.1875 17.1875 
L 10.59375 17.1875 
z
" id="DejaVuSans-61"/>
     </defs>
     <g transform="translate(21.020312 238.878)rotate(-90)scale(0.1 -0.1)">
      <use transform="translate(0 0.015625)" xlink:href="#DejaVuSans-82"/>
      <use transform="translate(69.482422 0.015625)" xlink:href="#DejaVuSans-101"/>
      <use transform="translate(131.005859 0.015625)" xlink:href="#DejaVuSans-108"/>
      <use transform="translate(158.789062 0.015625)" xlink:href="#DejaVuSans-97"/>
      <use transform="translate(220.068359 0.015625)" xlink:href="#DejaVuSans-116"/>
      <use transform="translate(259.277344 0.015625)" xlink:href="#DejaVuSans-105"/>
      <use transform="translate(287.060547 0.015625)" xlink:href="#DejaVuSans-118"/>
      <use transform="translate(346.240234 0.015625)" xlink:href="#DejaVuSans-101"/>
      <use transform="translate(440.23405 0.015625)" xlink:href="#DejaVuSans-101"/>
      <use transform="translate(501.757488 0.015625)" xlink:href="#DejaVuSans-114"/>
      <use transform="translate(542.870769 0.015625)" xlink:href="#DejaVuSans-114"/>
      <use transform="translate(583.98405 0.015625)" xlink:href="#DejaVuSans-111"/>
      <use transform="translate(645.165691 0.015625)" xlink:href="#DejaVuSans-114"/>
      <use transform="translate(686.278972 0.015625)" xlink:href="#DejaVuSans-32"/>
      <use transform="translate(718.066082 0.015625)" xlink:href="#DejaVuSans-40"/>
      <use transform="translate(757.079753 0.015625)" xlink:href="#DejaVuSans-Oblique-78"/>
      <use transform="translate(831.884441 -16.390625)scale(0.7)" xlink:href="#DejaVuSans-116"/>
      <use transform="translate(859.33073 -16.390625)scale(0.7)" xlink:href="#DejaVuSans-114"/>
      <use transform="translate(888.110027 -16.390625)scale(0.7)" xlink:href="#DejaVuSans-97"/>
      <use transform="translate(931.005535 -16.390625)scale(0.7)" xlink:href="#DejaVuSans-105"/>
      <use transform="translate(950.453777 -16.390625)scale(0.7)" xlink:href="#DejaVuSans-110"/>
      <use transform="translate(1017.035808 0.015625)" xlink:href="#DejaVuSans-61"/>
      <use transform="translate(1120.307292 0.015625)" xlink:href="#DejaVuSans-49"/>
      <use transform="translate(1183.930339 0.015625)" xlink:href="#DejaVuSans-48"/>
      <use transform="translate(1247.553386 0.015625)" xlink:href="#DejaVuSans-41"/>
     </g>
    </g>
   </g>
   <g id="line2d_40">
    <path clip-path="url(#pb0938f8bab)" d="M 73.832724 279.292111 
L 77.145522 261.789713 
L 80.458321 248.757144 
L 83.771119 238.375578 
L 87.083917 229.8625 
L 90.396716 222.782886 
L 93.709554 216.843145 
L 97.022352 211.818464 
L 100.33515 207.52864 
L 103.647949 203.830408 
L 106.960747 200.610418 
L 110.273545 197.780719 
L 113.586344 195.271693 
L 116.899142 193.027712 
L 120.21194 191.003713 
L 123.524738 189.161436 
L 126.837537 187.467948 
L 130.150375 185.897268 
L 133.463173 184.431422 
L 136.775971 183.056248 
L 140.08877 181.760994 
L 143.401568 180.537981 
L 146.714366 179.381316 
L 150.027165 178.286474 
L 153.339963 177.250139 
L 156.652761 176.269765 
L 159.96556 175.342128 
L 163.278358 174.465051 
L 166.591156 173.636873 
L 169.903955 172.856381 
L 173.216753 172.122283 
L 176.529551 171.43336 
L 179.842389 170.788648 
L 183.155187 170.18789 
L 186.467986 169.631308 
L 189.780784 169.119198 
L 193.093582 168.651729 
L 196.406381 168.228794 
L 199.719179 167.849972 
L 203.031977 167.51448 
L 206.344776 167.221198 
L 209.657574 166.968427 
L 212.970412 166.753621 
L 219.596008 166.420519 
L 232.847202 165.899648 
L 236.16 165.727938 
L 239.472798 165.515796 
L 242.785597 165.256298 
L 246.098395 164.946513 
L 249.411193 164.586883 
L 252.723992 164.18039 
L 256.03679 163.731807 
L 262.662387 162.732375 
L 269.288023 161.637497 
L 279.226418 159.908224 
L 295.790449 157.018155 
L 305.728844 155.34862 
L 315.667239 153.748344 
L 325.605634 152.228 
L 335.544029 150.796154 
L 342.169625 149.896964 
L 348.795222 149.048466 
L 355.420858 148.258462 
L 362.046455 147.535377 
L 368.672051 146.888149 
L 375.297688 146.325823 
L 381.923284 145.856712 
L 388.548881 145.487435 
L 395.174478 145.220808 
L 398.487276 145.12572 
" style="fill:none;stroke:#ff0000;stroke-linecap:square;stroke-width:1.5;"/>
   </g>
   <g id="line2d_41">
    <path clip-path="url(#pb0938f8bab)" d="M 73.832724 288.671565 
L 77.145522 271.384058 
L 80.458321 258.67913 
L 83.771119 248.722391 
L 87.083917 240.721127 
L 90.396716 234.224921 
L 93.709554 228.924961 
L 97.022352 224.582787 
L 100.33515 221.006542 
L 103.647949 218.04108 
L 106.960747 215.562274 
L 110.273545 213.469764 
L 113.586344 211.680501 
L 116.899142 210.125137 
L 120.21194 208.745187 
L 123.524738 207.491913 
L 126.837537 206.325212 
L 133.463173 204.135886 
L 143.401568 201.007706 
L 153.339963 197.977598 
L 159.96556 196.046196 
L 166.591156 194.230514 
L 173.216753 192.550991 
L 179.842389 191.001955 
L 186.467986 189.57713 
L 193.093582 188.277657 
L 199.719179 187.101385 
L 206.344776 186.04592 
L 212.970412 185.111034 
L 219.596008 184.282266 
L 229.534403 183.157225 
L 236.16 182.407179 
L 242.785597 181.588057 
L 249.411193 180.661476 
L 256.03679 179.620159 
L 262.662387 178.482051 
L 269.288023 177.277764 
L 285.852014 174.162114 
L 299.103247 171.698771 
L 309.041642 169.902058 
L 318.980037 168.166223 
L 328.918432 166.509633 
L 335.544029 165.457372 
L 342.169625 164.452441 
L 348.795222 163.499847 
L 355.420858 162.60603 
L 362.046455 161.779691 
L 368.672051 161.030996 
L 375.297688 160.370895 
L 381.923284 159.81009 
L 388.548881 159.358418 
L 391.861679 159.175685 
L 395.174478 159.022508 
L 398.487276 158.899184 
" style="fill:none;stroke:#0000ff;stroke-linecap:square;stroke-width:1.5;"/>
   </g>
   <g id="line2d_42">
    <path clip-path="url(#pb0938f8bab)" d="M 73.832724 155.48661 
L 77.145522 139.196915 
L 80.458321 127.346704 
L 83.771119 118.066437 
L 87.083917 110.518911 
L 90.396716 104.245547 
L 93.709554 98.956265 
L 97.022352 94.447877 
L 100.33515 90.569113 
L 103.647949 87.20361 
L 106.960747 84.260407 
L 110.273545 81.667642 
L 113.586344 79.368106 
L 116.899142 77.315959 
L 120.21194 75.474113 
L 123.524738 73.812406 
L 126.837537 72.30609 
L 130.150375 70.934694 
L 133.463173 69.6812 
L 136.775971 68.531346 
L 140.08877 67.47307 
L 143.401568 66.49618 
L 146.714366 65.591956 
L 150.027165 64.752905 
L 153.339963 63.972584 
L 156.652761 63.245399 
L 159.96556 62.566486 
L 163.278358 61.931581 
L 166.591156 61.336972 
L 169.903955 60.779371 
L 176.529551 59.763962 
L 183.155187 58.865945 
L 189.780784 58.070105 
L 196.406381 57.36443 
L 203.031977 56.739631 
L 209.657574 56.188707 
L 216.28321 55.706712 
L 222.908807 55.290634 
L 229.534403 54.939276 
L 236.16 54.652975 
L 242.785597 54.432908 
L 249.411193 54.279764 
L 256.03679 54.191901 
L 262.662387 54.163481 
L 269.288023 54.183865 
L 279.226418 54.274597 
L 305.728844 54.563715 
L 318.980037 54.63792 
L 335.544029 54.660203 
L 385.236083 54.654819 
L 398.487276 54.724506 
" style="fill:none;stroke:#00ffff;stroke-linecap:square;stroke-width:1.5;"/>
   </g>
   <g id="patch_3">
    <path d="M 57.6 307.584 
L 57.6 41.472 
" style="fill:none;stroke:#000000;stroke-linecap:square;stroke-linejoin:miter;stroke-width:0.8;"/>
   </g>
   <g id="patch_4">
    <path d="M 414.72 307.584 
L 414.72 41.472 
" style="fill:none;stroke:#000000;stroke-linecap:square;stroke-linejoin:miter;stroke-width:0.8;"/>
   </g>
   <g id="patch_5">
    <path d="M 57.6 307.584 
L 414.72 307.584 
" style="fill:none;stroke:#000000;stroke-linecap:square;stroke-linejoin:miter;stroke-width:0.8;"/>
   </g>
   <g id="patch_6">
    <path d="M 57.6 41.472 
L 414.72 41.472 
" style="fill:none;stroke:#000000;stroke-linecap:square;stroke-linejoin:miter;stroke-width:0.8;"/>
   </g>
   <g id="legend_1">
    <g id="patch_7">
     <path d="M 289.835625 302.584 
L 407.72 302.584 
Q 409.72 302.584 409.72 300.584 
L 409.72 257.549625 
Q 409.72 255.549625 407.72 255.549625 
L 289.835625 255.549625 
Q 287.835625 255.549625 287.835625 257.549625 
L 287.835625 300.584 
Q 287.835625 302.584 289.835625 302.584 
z
" style="fill:#ffffff;opacity:0.8;stroke:#cccccc;stroke-linejoin:miter;"/>
    </g>
    <g id="line2d_43">
     <path d="M 291.835625 263.648062 
L 311.835625 263.648062 
" style="fill:none;stroke:#ff0000;stroke-linecap:square;stroke-width:1.5;"/>
    </g>
    <g id="line2d_44"/>
    <g id="text_11">
     <!-- No grad. reg. -->
     <defs>
      <path d="M 9.8125 72.90625 
L 23.09375 72.90625 
L 55.421875 11.921875 
L 55.421875 72.90625 
L 64.984375 72.90625 
L 64.984375 0 
L 51.703125 0 
L 19.390625 60.984375 
L 19.390625 0 
L 9.8125 0 
z
" id="DejaVuSans-78"/>
      <path d="M 45.40625 27.984375 
Q 45.40625 37.75 41.375 43.109375 
Q 37.359375 48.484375 30.078125 48.484375 
Q 22.859375 48.484375 18.828125 43.109375 
Q 14.796875 37.75 14.796875 27.984375 
Q 14.796875 18.265625 18.828125 12.890625 
Q 22.859375 7.515625 30.078125 7.515625 
Q 37.359375 7.515625 41.375 12.890625 
Q 45.40625 18.265625 45.40625 27.984375 
z
M 54.390625 6.78125 
Q 54.390625 -7.171875 48.1875 -13.984375 
Q 42 -20.796875 29.203125 -20.796875 
Q 24.46875 -20.796875 20.265625 -20.09375 
Q 16.0625 -19.390625 12.109375 -17.921875 
L 12.109375 -9.1875 
Q 16.0625 -11.328125 19.921875 -12.34375 
Q 23.78125 -13.375 27.78125 -13.375 
Q 36.625 -13.375 41.015625 -8.765625 
Q 45.40625 -4.15625 45.40625 5.171875 
L 45.40625 9.625 
Q 42.625 4.78125 38.28125 2.390625 
Q 33.9375 0 27.875 0 
Q 17.828125 0 11.671875 7.65625 
Q 5.515625 15.328125 5.515625 27.984375 
Q 5.515625 40.671875 11.671875 48.328125 
Q 17.828125 56 27.875 56 
Q 33.9375 56 38.28125 53.609375 
Q 42.625 51.21875 45.40625 46.390625 
L 45.40625 54.6875 
L 54.390625 54.6875 
z
" id="DejaVuSans-103"/>
     </defs>
     <g transform="translate(319.835625 267.148062)scale(0.1 -0.1)">
      <use xlink:href="#DejaVuSans-78"/>
      <use x="74.804688" xlink:href="#DejaVuSans-111"/>
      <use x="135.986328" xlink:href="#DejaVuSans-32"/>
      <use x="167.773438" xlink:href="#DejaVuSans-103"/>
      <use x="231.25" xlink:href="#DejaVuSans-114"/>
      <use x="272.363281" xlink:href="#DejaVuSans-97"/>
      <use x="333.642578" xlink:href="#DejaVuSans-100"/>
      <use x="397.119141" xlink:href="#DejaVuSans-46"/>
      <use x="428.90625" xlink:href="#DejaVuSans-32"/>
      <use x="460.693359" xlink:href="#DejaVuSans-114"/>
      <use x="501.775391" xlink:href="#DejaVuSans-101"/>
      <use x="563.298828" xlink:href="#DejaVuSans-103"/>
      <use x="626.775391" xlink:href="#DejaVuSans-46"/>
     </g>
    </g>
    <g id="line2d_45">
     <path d="M 291.835625 278.326188 
L 311.835625 278.326188 
" style="fill:none;stroke:#0000ff;stroke-linecap:square;stroke-width:1.5;"/>
    </g>
    <g id="line2d_46"/>
    <g id="text_12">
     <!-- Grad. reg -->
     <defs>
      <path d="M 59.515625 10.40625 
L 59.515625 29.984375 
L 43.40625 29.984375 
L 43.40625 38.09375 
L 69.28125 38.09375 
L 69.28125 6.78125 
Q 63.578125 2.734375 56.6875 0.65625 
Q 49.8125 -1.421875 42 -1.421875 
Q 24.90625 -1.421875 15.25 8.5625 
Q 5.609375 18.5625 5.609375 36.375 
Q 5.609375 54.25 15.25 64.234375 
Q 24.90625 74.21875 42 74.21875 
Q 49.125 74.21875 55.546875 72.453125 
Q 61.96875 70.703125 67.390625 67.28125 
L 67.390625 56.78125 
Q 61.921875 61.421875 55.765625 63.765625 
Q 49.609375 66.109375 42.828125 66.109375 
Q 29.4375 66.109375 22.71875 58.640625 
Q 16.015625 51.171875 16.015625 36.375 
Q 16.015625 21.625 22.71875 14.15625 
Q 29.4375 6.6875 42.828125 6.6875 
Q 48.046875 6.6875 52.140625 7.59375 
Q 56.25 8.5 59.515625 10.40625 
z
" id="DejaVuSans-71"/>
     </defs>
     <g transform="translate(319.835625 281.826188)scale(0.1 -0.1)">
      <use xlink:href="#DejaVuSans-71"/>
      <use x="77.490234" xlink:href="#DejaVuSans-114"/>
      <use x="118.603516" xlink:href="#DejaVuSans-97"/>
      <use x="179.882812" xlink:href="#DejaVuSans-100"/>
      <use x="243.359375" xlink:href="#DejaVuSans-46"/>
      <use x="275.146484" xlink:href="#DejaVuSans-32"/>
      <use x="306.933594" xlink:href="#DejaVuSans-114"/>
      <use x="348.015625" xlink:href="#DejaVuSans-101"/>
      <use x="409.539062" xlink:href="#DejaVuSans-103"/>
     </g>
    </g>
    <g id="line2d_47">
     <path d="M 291.835625 293.004312 
L 311.835625 293.004312 
" style="fill:none;stroke:#00ffff;stroke-linecap:square;stroke-width:1.5;"/>
    </g>
    <g id="line2d_48"/>
    <g id="text_13">
     <!-- Second grad. reg -->
     <defs>
      <path d="M 53.515625 70.515625 
L 53.515625 60.890625 
Q 47.90625 63.578125 42.921875 64.890625 
Q 37.9375 66.21875 33.296875 66.21875 
Q 25.25 66.21875 20.875 63.09375 
Q 16.5 59.96875 16.5 54.203125 
Q 16.5 49.359375 19.40625 46.890625 
Q 22.3125 44.4375 30.421875 42.921875 
L 36.375 41.703125 
Q 47.40625 39.59375 52.65625 34.296875 
Q 57.90625 29 57.90625 20.125 
Q 57.90625 9.515625 50.796875 4.046875 
Q 43.703125 -1.421875 29.984375 -1.421875 
Q 24.8125 -1.421875 18.96875 -0.25 
Q 13.140625 0.921875 6.890625 3.21875 
L 6.890625 13.375 
Q 12.890625 10.015625 18.65625 8.296875 
Q 24.421875 6.59375 29.984375 6.59375 
Q 38.421875 6.59375 43.015625 9.90625 
Q 47.609375 13.234375 47.609375 19.390625 
Q 47.609375 24.75 44.3125 27.78125 
Q 41.015625 30.8125 33.5 32.328125 
L 27.484375 33.5 
Q 16.453125 35.6875 11.515625 40.375 
Q 6.59375 45.0625 6.59375 53.421875 
Q 6.59375 63.09375 13.40625 68.65625 
Q 20.21875 74.21875 32.171875 74.21875 
Q 37.3125 74.21875 42.625 73.28125 
Q 47.953125 72.359375 53.515625 70.515625 
z
" id="DejaVuSans-83"/>
     </defs>
     <g transform="translate(319.835625 296.504312)scale(0.1 -0.1)">
      <use xlink:href="#DejaVuSans-83"/>
      <use x="63.476562" xlink:href="#DejaVuSans-101"/>
      <use x="125" xlink:href="#DejaVuSans-99"/>
      <use x="179.980469" xlink:href="#DejaVuSans-111"/>
      <use x="241.162109" xlink:href="#DejaVuSans-110"/>
      <use x="304.541016" xlink:href="#DejaVuSans-100"/>
      <use x="368.017578" xlink:href="#DejaVuSans-32"/>
      <use x="399.804688" xlink:href="#DejaVuSans-103"/>
      <use x="463.28125" xlink:href="#DejaVuSans-114"/>
      <use x="504.394531" xlink:href="#DejaVuSans-97"/>
      <use x="565.673828" xlink:href="#DejaVuSans-100"/>
      <use x="629.150391" xlink:href="#DejaVuSans-46"/>
      <use x="660.9375" xlink:href="#DejaVuSans-32"/>
      <use x="692.724609" xlink:href="#DejaVuSans-114"/>
      <use x="733.806641" xlink:href="#DejaVuSans-101"/>
      <use x="795.330078" xlink:href="#DejaVuSans-103"/>
     </g>
    </g>
   </g>
  </g>
 </g>
 <defs>
  <clipPath id="pb0938f8bab">
   <rect height="266.112" width="357.12" x="57.6" y="41.472"/>
  </clipPath>
 </defs>
</svg>
