<?xml version="1.0" encoding="utf-8" standalone="no"?>
<!DOCTYPE svg PUBLIC "-//W3C//DTD SVG 1.1//EN"
  "http://www.w3.org/Graphics/SVG/1.1/DTD/svg11.dtd">
<!-- Created with matplotlib (https://matplotlib.org/) -->
<svg height="345.6pt" version="1.1" viewBox="0 0 460.8 345.6" width="460.8pt" xmlns="http://www.w3.org/2000/svg" xmlns:xlink="http://www.w3.org/1999/xlink">
 <defs>
  <style type="text/css">
*{stroke-linecap:butt;stroke-linejoin:round;white-space:pre;}
  </style>
 </defs>
 <g id="figure_1">
  <g id="patch_1">
   <path d="M 0 345.6 
L 460.8 345.6 
L 460.8 0 
L 0 0 
z
" style="fill:#ffffff;"/>
  </g>
  <g id="axes_1">
   <g id="patch_2">
    <path d="M 57.6 307.584 
L 414.72 307.584 
L 414.72 41.472 
L 57.6 41.472 
z
" style="fill:#ffffff;"/>
   </g>
   <g id="PolyCollection_1">
    <path clip-path="url(#p440f27477b)" d="M 73.832727 264.940874 
L 73.832727 295.488 
L 77.145529 272.719833 
L 80.45833 256.021132 
L 83.771132 242.923314 
L 87.083933 232.346459 
L 90.396735 223.709961 
L 93.709536 216.632285 
L 97.022338 210.822163 
L 100.335139 206.038593 
L 103.647941 202.079969 
L 106.960742 198.781022 
L 110.273544 196.008699 
L 113.586345 193.657957 
L 116.899147 191.647358 
L 120.211948 189.913488 
L 123.52475 188.407624 
L 126.837551 187.094712 
L 130.150353 185.950325 
L 133.463154 184.956584 
L 136.775955 184.099298 
L 140.088757 183.367743 
L 143.401558 182.751854 
L 146.71436 182.240427 
L 150.027161 181.820982 
L 153.339963 181.482462 
L 156.652764 181.213852 
L 159.965566 181.003437 
L 163.278367 180.840996 
L 166.591169 180.715599 
L 169.90397 180.615853 
L 173.216772 180.530933 
L 176.529573 180.449909 
L 179.842375 180.361126 
L 183.155176 180.252407 
L 186.467978 180.111399 
L 189.780779 179.926565 
L 193.093581 179.687596 
L 196.406382 179.38523 
L 199.719184 179.011515 
L 203.031985 178.561452 
L 206.344787 178.033613 
L 209.657588 177.428932 
L 212.97039 176.749676 
L 216.283191 175.998812 
L 219.595993 175.179928 
L 222.908794 174.297358 
L 226.221596 173.355909 
L 229.534397 172.360726 
L 232.847199 171.317379 
L 236.16 170.23181 
L 239.472801 169.110286 
L 242.785603 167.959523 
L 246.098404 166.786653 
L 249.411206 165.599082 
L 252.724007 164.404241 
L 256.036809 163.209619 
L 259.34961 162.02271 
L 262.662412 160.850825 
L 265.975213 159.700877 
L 269.288015 158.579115 
L 272.600816 157.490944 
L 275.913618 156.4408 
L 279.226419 155.432054 
L 282.539221 154.467013 
L 285.852022 153.546984 
L 289.164824 152.672404 
L 292.477625 151.842927 
L 295.790427 151.057556 
L 299.103228 150.314792 
L 302.41603 149.612901 
L 305.728831 148.950005 
L 309.041633 148.324204 
L 312.354434 147.73368 
L 315.667236 147.176823 
L 318.980037 146.652273 
L 322.292839 146.158724 
L 325.60564 145.69489 
L 328.918442 145.259532 
L 332.231243 144.851717 
L 335.544045 144.470985 
L 338.856846 144.116894 
L 342.169647 143.788903 
L 345.482449 143.486514 
L 348.79525 143.209361 
L 352.108052 142.95709 
L 355.420853 142.729256 
L 358.733655 142.525167 
L 362.046456 142.344121 
L 365.359258 142.185964 
L 368.672059 142.050667 
L 371.984861 141.938027 
L 375.297662 141.847251 
L 378.610464 141.777098 
L 381.923265 141.725901 
L 385.236067 141.691597 
L 388.548868 141.671765 
L 391.86167 141.663383 
L 395.174471 141.662635 
L 398.487273 141.665414 
L 398.487273 127.030146 
L 398.487273 127.030146 
L 395.174471 126.577391 
L 391.86167 126.127616 
L 388.548868 125.711461 
L 385.236067 125.348172 
L 381.923265 125.046415 
L 378.610464 124.808085 
L 375.297662 124.631585 
L 371.984861 124.513919 
L 368.672059 124.451844 
L 365.359258 124.44225 
L 362.046456 124.482196 
L 358.733655 124.569037 
L 355.420853 124.700476 
L 352.108052 124.874558 
L 348.79525 125.089563 
L 345.482449 125.344023 
L 342.169647 125.636682 
L 338.856846 125.966537 
L 335.544045 126.332816 
L 332.231243 126.734931 
L 328.918442 127.172379 
L 325.60564 127.644752 
L 322.292839 128.151853 
L 318.980037 128.693615 
L 315.667236 129.270066 
L 312.354434 129.881314 
L 309.041633 130.527573 
L 305.728831 131.209148 
L 302.41603 131.9263 
L 299.103228 132.679156 
L 295.790427 133.467607 
L 292.477625 134.291197 
L 289.164824 135.149 
L 285.852022 136.039525 
L 282.539221 136.960656 
L 279.226419 137.909607 
L 275.913618 138.882923 
L 272.600816 139.876503 
L 269.288015 140.885569 
L 265.975213 141.904637 
L 262.662412 142.927548 
L 259.34961 143.947485 
L 256.036809 144.957024 
L 252.724007 145.948176 
L 249.411206 146.912406 
L 246.098404 147.840616 
L 242.785603 148.723091 
L 239.472801 149.549396 
L 236.16 150.308223 
L 232.847199 150.987135 
L 229.534397 151.572153 
L 226.221596 152.047168 
L 222.908794 152.393522 
L 219.595993 152.589754 
L 216.283191 152.611936 
L 212.97039 152.434476 
L 209.657588 152.032865 
L 206.344787 151.390378 
L 203.031985 150.510858 
L 199.719184 149.435802 
L 196.406382 148.249408 
L 193.093581 147.052545 
L 189.780779 145.925174 
L 186.467978 144.912273 
L 183.155176 144.031664 
L 179.842375 143.286351 
L 176.529573 142.673075 
L 173.216772 142.187025 
L 169.90397 141.823067 
L 166.591169 141.575566 
L 163.278367 141.439857 
L 159.965566 141.412629 
L 156.652764 141.492812 
L 153.339963 141.681299 
L 150.027161 141.979956 
L 146.71436 142.391226 
L 143.401558 142.919574 
L 140.088757 143.573219 
L 136.775955 144.363417 
L 133.463154 145.303611 
L 130.150353 146.409852 
L 126.837551 147.700903 
L 123.52475 149.2005 
L 120.211948 150.93995 
L 116.899147 152.959867 
L 113.586345 155.311712 
L 110.273544 158.060299 
L 106.960742 161.286764 
L 103.647941 165.093099 
L 100.335139 169.607196 
L 97.022338 174.988025 
L 93.709536 181.42942 
L 90.396735 189.16555 
L 87.083933 198.487341 
L 83.771132 209.788243 
L 80.45833 223.671708 
L 77.145529 241.233079 
L 73.832727 264.940874 
z
" style="fill:#ffa500;fill-opacity:0.4;"/>
   </g>
   <g id="PolyCollection_2">
    <path clip-path="url(#p440f27477b)" d="M 73.832727 230.43108 
L 73.832727 238.745965 
L 77.145529 214.524082 
L 80.45833 196.38683 
L 83.771132 181.838229 
L 87.083933 169.781129 
L 90.396735 159.622003 
L 93.709536 150.980789 
L 97.022338 143.580888 
L 100.335139 137.206895 
L 103.647941 131.685025 
L 106.960742 126.873671 
L 110.273544 122.657565 
L 113.586345 118.943745 
L 116.899147 115.656625 
L 120.211948 112.733817 
L 123.52475 110.123578 
L 126.837551 107.783647 
L 130.150353 105.679267 
L 133.463154 103.781783 
L 136.775955 102.067577 
L 140.088757 100.516976 
L 143.401558 99.113466 
L 146.71436 97.842833 
L 150.027161 96.692966 
L 153.339963 95.653487 
L 156.652764 94.715595 
L 159.965566 93.871965 
L 163.278367 93.116453 
L 166.591169 92.443916 
L 169.90397 91.850232 
L 173.216772 91.332155 
L 176.529573 90.886905 
L 179.842375 90.511836 
L 183.155176 90.204509 
L 186.467978 89.962963 
L 189.780779 89.785739 
L 193.093581 89.671827 
L 196.406382 89.62054 
L 199.719184 89.631394 
L 203.031985 89.703925 
L 206.344787 89.837441 
L 209.657588 90.030676 
L 212.97039 90.281272 
L 216.283191 90.585059 
L 219.595993 90.935164 
L 222.908794 91.321056 
L 226.221596 91.727679 
L 229.534397 92.13532 
L 232.847199 92.520805 
L 236.16 92.860181 
L 239.472801 93.132337 
L 242.785603 93.322039 
L 246.098404 93.421152 
L 249.411206 93.428055 
L 252.724007 93.346088 
L 256.036809 93.181855 
L 259.34961 92.943788 
L 262.662412 92.641094 
L 265.975213 92.283016 
L 269.288015 91.878392 
L 272.600816 91.435384 
L 275.913618 90.961364 
L 279.226419 90.462874 
L 282.539221 89.945661 
L 285.852022 89.414735 
L 289.164824 88.874445 
L 292.477625 88.328564 
L 295.790427 87.780351 
L 299.103228 87.232611 
L 302.41603 86.687743 
L 305.728831 86.147801 
L 309.041633 85.614547 
L 312.354434 85.089498 
L 315.667236 84.573973 
L 318.980037 84.069137 
L 322.292839 83.576052 
L 325.60564 83.095689 
L 328.918442 82.628942 
L 332.231243 82.17665 
L 335.544045 81.739621 
L 338.856846 81.318653 
L 342.169647 80.914535 
L 345.482449 80.528048 
L 348.79525 80.15998 
L 352.108052 79.811117 
L 355.420853 79.482223 
L 358.733655 79.173995 
L 362.046456 78.887011 
L 365.359258 78.621704 
L 368.672059 78.378425 
L 371.984861 78.157528 
L 375.297662 77.95942 
L 378.610464 77.784567 
L 381.923265 77.63349 
L 385.236067 77.506775 
L 388.548868 77.405101 
L 391.86167 77.329248 
L 395.174471 77.280092 
L 398.487273 77.258599 
L 398.487273 72.277738 
L 398.487273 72.277738 
L 395.174471 72.29776 
L 391.86167 72.342882 
L 388.548868 72.412325 
L 385.236067 72.505355 
L 381.923265 72.621291 
L 378.610464 72.759521 
L 375.297662 72.919493 
L 371.984861 73.100697 
L 368.672059 73.302666 
L 365.359258 73.524972 
L 362.046456 73.767211 
L 358.733655 74.028963 
L 355.420853 74.309749 
L 352.108052 74.608996 
L 348.79525 74.926025 
L 345.482449 75.260087 
L 342.169647 75.610404 
L 338.856846 75.976194 
L 335.544045 76.356667 
L 332.231243 76.751013 
L 328.918442 77.158399 
L 325.60564 77.577955 
L 322.292839 78.008748 
L 318.980037 78.449774 
L 315.667236 78.89994 
L 312.354434 79.358049 
L 309.041633 79.822764 
L 305.728831 80.292555 
L 302.41603 80.765654 
L 299.103228 81.240023 
L 295.790427 81.713292 
L 292.477625 82.182705 
L 289.164824 82.645052 
L 285.852022 83.096596 
L 282.539221 83.532981 
L 279.226419 83.949133 
L 275.913618 84.339163 
L 272.600816 84.696285 
L 269.288015 85.01277 
L 265.975213 85.279937 
L 262.662412 85.488235 
L 259.34961 85.627461 
L 256.036809 85.687255 
L 252.724007 85.657966 
L 249.411206 85.532052 
L 246.098404 85.306052 
L 242.785603 84.98295 
L 239.472801 84.574166 
L 236.16 84.099958 
L 232.847199 83.587199 
L 229.534397 83.064928 
L 226.221596 82.559597 
L 222.908794 82.09205 
L 219.595993 81.676783 
L 216.283191 81.322799 
L 212.97039 81.035078 
L 209.657588 80.81601 
L 206.344787 80.666432 
L 203.031985 80.586358 
L 199.719184 80.575431 
L 196.406382 80.633221 
L 193.093581 80.759401 
L 189.780779 80.953822 
L 186.467978 81.2166 
L 183.155176 81.548136 
L 179.842375 81.949082 
L 176.529573 82.42036 
L 173.216772 82.963211 
L 169.90397 83.579295 
L 166.591169 84.270778 
L 163.278367 85.040488 
L 159.965566 85.892004 
L 156.652764 86.829706 
L 153.339963 87.858883 
L 150.027161 88.985972 
L 146.71436 90.218721 
L 143.401558 91.566353 
L 140.088757 93.039837 
L 136.775955 94.652047 
L 133.463154 96.418143 
L 130.150353 98.356279 
L 126.837551 100.488676 
L 123.52475 102.842292 
L 120.211948 105.450235 
L 116.899147 108.353469 
L 113.586345 111.602192 
L 110.273544 115.258127 
L 106.960742 119.398074 
L 103.647941 124.117123 
L 100.335139 129.532221 
L 97.022338 135.787587 
L 93.709536 143.063323 
L 90.396735 151.584228 
L 87.083933 161.637252 
L 83.771132 173.612232 
L 80.45833 188.110394 
L 77.145529 206.226186 
L 73.832727 230.43108 
z
" style="fill:#ff00ff;fill-opacity:0.4;"/>
   </g>
   <g id="PolyCollection_3">
    <path clip-path="url(#p440f27477b)" d="M 73.832727 200.277696 
L 73.832727 207.748583 
L 77.145529 184.241256 
L 80.45833 166.776 
L 83.771132 152.842398 
L 87.083933 141.330553 
L 90.396735 131.641294 
L 93.709536 123.396683 
L 97.022338 116.32843 
L 100.335139 110.231217 
L 103.647941 104.941521 
L 106.960742 100.326905 
L 110.273544 96.279688 
L 113.586345 92.712125 
L 116.899147 89.552394 
L 120.211948 86.741431 
L 123.52475 84.230461 
L 126.837551 81.97907 
L 130.150353 79.953581 
L 133.463154 78.12587 
L 136.775955 76.472349 
L 140.088757 74.973121 
L 143.401558 73.61138 
L 146.71436 72.372905 
L 150.027161 71.24558 
L 153.339963 70.219017 
L 156.652764 69.284322 
L 159.965566 68.433881 
L 163.278367 67.661131 
L 166.591169 66.960488 
L 169.90397 66.32736 
L 173.216772 65.758097 
L 176.529573 65.24986 
L 179.842375 64.800508 
L 183.155176 64.408503 
L 186.467978 64.072871 
L 189.780779 63.79316 
L 193.093581 63.56935 
L 196.406382 63.401784 
L 199.719184 63.291096 
L 203.031985 63.238141 
L 206.344787 63.243864 
L 209.657588 63.309119 
L 212.97039 63.434371 
L 216.283191 63.619264 
L 219.595993 63.861994 
L 222.908794 64.158535 
L 226.221596 64.501749 
L 229.534397 64.880614 
L 232.847199 65.279902 
L 236.16 65.680831 
L 239.472801 66.062906 
L 242.785603 66.406659 
L 246.098404 66.696345 
L 249.411206 66.92164 
L 252.724007 67.078005 
L 256.036809 67.165957 
L 259.34961 67.189793 
L 262.662412 67.156224 
L 265.975213 67.07319 
L 269.288015 66.948972 
L 272.600816 66.791578 
L 275.913618 66.608372 
L 279.226419 66.405866 
L 282.539221 66.189608 
L 285.852022 65.96416 
L 289.164824 65.733123 
L 292.477625 65.499201 
L 295.790427 65.26431 
L 299.103228 65.029713 
L 302.41603 64.796173 
L 305.728831 64.564097 
L 309.041633 64.333651 
L 312.354434 64.104858 
L 315.667236 63.877665 
L 318.980037 63.652006 
L 322.292839 63.427821 
L 325.60564 63.205056 
L 328.918442 62.983685 
L 332.231243 62.763754 
L 335.544045 62.5454 
L 338.856846 62.32887 
L 342.169647 62.114502 
L 345.482449 61.902712 
L 348.79525 61.693982 
L 352.108052 61.488832 
L 355.420853 61.287817 
L 358.733655 61.091506 
L 362.046456 60.900473 
L 365.359258 60.715289 
L 368.672059 60.536513 
L 371.984861 60.364693 
L 375.297662 60.200362 
L 378.610464 60.044032 
L 381.923265 59.896202 
L 385.236067 59.757361 
L 388.548868 59.627986 
L 391.86167 59.508565 
L 395.174471 59.399603 
L 398.487273 59.301642 
L 398.487273 53.568 
L 398.487273 53.568 
L 395.174471 53.655668 
L 391.86167 53.760584 
L 388.548868 53.882289 
L 385.236067 54.020322 
L 381.923265 54.174206 
L 378.610464 54.343429 
L 375.297662 54.527444 
L 371.984861 54.725662 
L 368.672059 54.937458 
L 365.359258 55.162174 
L 362.046456 55.399122 
L 358.733655 55.647588 
L 355.420853 55.906836 
L 352.108052 56.1761 
L 348.79525 56.454582 
L 345.482449 56.741447 
L 342.169647 57.035809 
L 338.856846 57.336721 
L 335.544045 57.643165 
L 332.231243 57.954035 
L 328.918442 58.26812 
L 325.60564 58.584079 
L 322.292839 58.90041 
L 318.980037 59.215418 
L 315.667236 59.527186 
L 312.354434 59.833535 
L 309.041633 60.131998 
L 305.728831 60.419792 
L 302.41603 60.693823 
L 299.103228 60.950692 
L 295.790427 61.186725 
L 292.477625 61.398028 
L 289.164824 61.580564 
L 285.852022 61.730262 
L 282.539221 61.843128 
L 279.226419 61.91539 
L 275.913618 61.943684 
L 272.600816 61.925298 
L 269.288015 61.858496 
L 265.975213 61.742921 
L 262.662412 61.580017 
L 259.34961 61.373373 
L 256.036809 61.128869 
L 252.724007 60.854492 
L 249.411206 60.559805 
L 246.098404 60.255174 
L 242.785603 59.950909 
L 239.472801 59.656525 
L 236.16 59.380249 
L 232.847199 59.128766 
L 229.534397 58.907129 
L 226.221596 58.718898 
L 222.908794 58.566437 
L 219.595993 58.451291 
L 216.283191 58.374498 
L 212.97039 58.336816 
L 209.657588 58.338888 
L 206.344787 58.381357 
L 203.031985 58.464925 
L 199.719184 58.590388 
L 196.406382 58.75865 
L 193.093581 58.970726 
L 189.780779 59.22775 
L 186.467978 59.530998 
L 183.155176 59.881917 
L 179.842375 60.282162 
L 176.529573 60.733676 
L 173.216772 61.238736 
L 169.90397 61.800048 
L 166.591169 62.42085 
L 163.278367 63.105011 
L 159.965566 63.857148 
L 156.652764 64.682682 
L 153.339963 65.587884 
L 150.027161 66.580031 
L 146.71436 67.667616 
L 143.401558 68.860502 
L 140.088757 70.170215 
L 136.775955 71.610328 
L 133.463154 73.196935 
L 130.150353 74.949139 
L 126.837551 76.889676 
L 123.52475 79.045709 
L 120.211948 81.449805 
L 116.899147 84.141225 
L 113.586345 87.167532 
L 110.273544 90.586735 
L 106.960742 94.469996 
L 103.647941 98.9052 
L 100.335139 104.001304 
L 97.022338 109.893681 
L 93.709536 116.751719 
L 90.396735 124.790147 
L 87.083933 134.289149 
L 83.771132 145.638523 
L 80.45833 159.44616 
L 77.145529 176.824104 
L 73.832727 200.277696 
z
" style="fill:#ff0000;fill-opacity:0.4;"/>
   </g>
   <g id="matplotlib.axis_1">
    <g id="xtick_1">
     <g id="line2d_1">
      <path clip-path="url(#p440f27477b)" d="M 70.519926 307.584 
L 70.519926 41.472 
" style="fill:none;stroke:#b0b0b0;stroke-linecap:square;stroke-width:0.8;"/>
     </g>
     <g id="line2d_2">
      <defs>
       <path d="M 0 0 
L 0 3.5 
" id="m84d2318453" style="stroke:#000000;stroke-width:0.8;"/>
      </defs>
      <g>
       <use style="stroke:#000000;stroke-width:0.8;" x="70.519926" xlink:href="#m84d2318453" y="307.584"/>
      </g>
     </g>
     <g id="text_1">
      <!-- 0.0 -->
      <defs>
       <path d="M 31.78125 66.40625 
Q 24.171875 66.40625 20.328125 58.90625 
Q 16.5 51.421875 16.5 36.375 
Q 16.5 21.390625 20.328125 13.890625 
Q 24.171875 6.390625 31.78125 6.390625 
Q 39.453125 6.390625 43.28125 13.890625 
Q 47.125 21.390625 47.125 36.375 
Q 47.125 51.421875 43.28125 58.90625 
Q 39.453125 66.40625 31.78125 66.40625 
z
M 31.78125 74.21875 
Q 44.046875 74.21875 50.515625 64.515625 
Q 56.984375 54.828125 56.984375 36.375 
Q 56.984375 17.96875 50.515625 8.265625 
Q 44.046875 -1.421875 31.78125 -1.421875 
Q 19.53125 -1.421875 13.0625 8.265625 
Q 6.59375 17.96875 6.59375 36.375 
Q 6.59375 54.828125 13.0625 64.515625 
Q 19.53125 74.21875 31.78125 74.21875 
z
" id="DejaVuSans-48"/>
       <path d="M 10.6875 12.40625 
L 21 12.40625 
L 21 0 
L 10.6875 0 
z
" id="DejaVuSans-46"/>
      </defs>
      <g transform="translate(62.568363 322.182437)scale(0.1 -0.1)">
       <use xlink:href="#DejaVuSans-48"/>
       <use x="63.623047" xlink:href="#DejaVuSans-46"/>
       <use x="95.410156" xlink:href="#DejaVuSans-48"/>
      </g>
     </g>
    </g>
    <g id="xtick_2">
     <g id="line2d_3">
      <path clip-path="url(#p440f27477b)" d="M 136.775955 307.584 
L 136.775955 41.472 
" style="fill:none;stroke:#b0b0b0;stroke-linecap:square;stroke-width:0.8;"/>
     </g>
     <g id="line2d_4">
      <g>
       <use style="stroke:#000000;stroke-width:0.8;" x="136.775955" xlink:href="#m84d2318453" y="307.584"/>
      </g>
     </g>
     <g id="text_2">
      <!-- 0.2 -->
      <defs>
       <path d="M 19.1875 8.296875 
L 53.609375 8.296875 
L 53.609375 0 
L 7.328125 0 
L 7.328125 8.296875 
Q 12.9375 14.109375 22.625 23.890625 
Q 32.328125 33.6875 34.8125 36.53125 
Q 39.546875 41.84375 41.421875 45.53125 
Q 43.3125 49.21875 43.3125 52.78125 
Q 43.3125 58.59375 39.234375 62.25 
Q 35.15625 65.921875 28.609375 65.921875 
Q 23.96875 65.921875 18.8125 64.3125 
Q 13.671875 62.703125 7.8125 59.421875 
L 7.8125 69.390625 
Q 13.765625 71.78125 18.9375 73 
Q 24.125 74.21875 28.421875 74.21875 
Q 39.75 74.21875 46.484375 68.546875 
Q 53.21875 62.890625 53.21875 53.421875 
Q 53.21875 48.921875 51.53125 44.890625 
Q 49.859375 40.875 45.40625 35.40625 
Q 44.1875 33.984375 37.640625 27.21875 
Q 31.109375 20.453125 19.1875 8.296875 
z
" id="DejaVuSans-50"/>
      </defs>
      <g transform="translate(128.824393 322.182437)scale(0.1 -0.1)">
       <use xlink:href="#DejaVuSans-48"/>
       <use x="63.623047" xlink:href="#DejaVuSans-46"/>
       <use x="95.410156" xlink:href="#DejaVuSans-50"/>
      </g>
     </g>
    </g>
    <g id="xtick_3">
     <g id="line2d_5">
      <path clip-path="url(#p440f27477b)" d="M 203.031985 307.584 
L 203.031985 41.472 
" style="fill:none;stroke:#b0b0b0;stroke-linecap:square;stroke-width:0.8;"/>
     </g>
     <g id="line2d_6">
      <g>
       <use style="stroke:#000000;stroke-width:0.8;" x="203.031985" xlink:href="#m84d2318453" y="307.584"/>
      </g>
     </g>
     <g id="text_3">
      <!-- 0.4 -->
      <defs>
       <path d="M 37.796875 64.3125 
L 12.890625 25.390625 
L 37.796875 25.390625 
z
M 35.203125 72.90625 
L 47.609375 72.90625 
L 47.609375 25.390625 
L 58.015625 25.390625 
L 58.015625 17.1875 
L 47.609375 17.1875 
L 47.609375 0 
L 37.796875 0 
L 37.796875 17.1875 
L 4.890625 17.1875 
L 4.890625 26.703125 
z
" id="DejaVuSans-52"/>
      </defs>
      <g transform="translate(195.080423 322.182437)scale(0.1 -0.1)">
       <use xlink:href="#DejaVuSans-48"/>
       <use x="63.623047" xlink:href="#DejaVuSans-46"/>
       <use x="95.410156" xlink:href="#DejaVuSans-52"/>
      </g>
     </g>
    </g>
    <g id="xtick_4">
     <g id="line2d_7">
      <path clip-path="url(#p440f27477b)" d="M 269.288015 307.584 
L 269.288015 41.472 
" style="fill:none;stroke:#b0b0b0;stroke-linecap:square;stroke-width:0.8;"/>
     </g>
     <g id="line2d_8">
      <g>
       <use style="stroke:#000000;stroke-width:0.8;" x="269.288015" xlink:href="#m84d2318453" y="307.584"/>
      </g>
     </g>
     <g id="text_4">
      <!-- 0.6 -->
      <defs>
       <path d="M 33.015625 40.375 
Q 26.375 40.375 22.484375 35.828125 
Q 18.609375 31.296875 18.609375 23.390625 
Q 18.609375 15.53125 22.484375 10.953125 
Q 26.375 6.390625 33.015625 6.390625 
Q 39.65625 6.390625 43.53125 10.953125 
Q 47.40625 15.53125 47.40625 23.390625 
Q 47.40625 31.296875 43.53125 35.828125 
Q 39.65625 40.375 33.015625 40.375 
z
M 52.59375 71.296875 
L 52.59375 62.3125 
Q 48.875 64.0625 45.09375 64.984375 
Q 41.3125 65.921875 37.59375 65.921875 
Q 27.828125 65.921875 22.671875 59.328125 
Q 17.53125 52.734375 16.796875 39.40625 
Q 19.671875 43.65625 24.015625 45.921875 
Q 28.375 48.1875 33.59375 48.1875 
Q 44.578125 48.1875 50.953125 41.515625 
Q 57.328125 34.859375 57.328125 23.390625 
Q 57.328125 12.15625 50.6875 5.359375 
Q 44.046875 -1.421875 33.015625 -1.421875 
Q 20.359375 -1.421875 13.671875 8.265625 
Q 6.984375 17.96875 6.984375 36.375 
Q 6.984375 53.65625 15.1875 63.9375 
Q 23.390625 74.21875 37.203125 74.21875 
Q 40.921875 74.21875 44.703125 73.484375 
Q 48.484375 72.75 52.59375 71.296875 
z
" id="DejaVuSans-54"/>
      </defs>
      <g transform="translate(261.336452 322.182437)scale(0.1 -0.1)">
       <use xlink:href="#DejaVuSans-48"/>
       <use x="63.623047" xlink:href="#DejaVuSans-46"/>
       <use x="95.410156" xlink:href="#DejaVuSans-54"/>
      </g>
     </g>
    </g>
    <g id="xtick_5">
     <g id="line2d_9">
      <path clip-path="url(#p440f27477b)" d="M 335.544045 307.584 
L 335.544045 41.472 
" style="fill:none;stroke:#b0b0b0;stroke-linecap:square;stroke-width:0.8;"/>
     </g>
     <g id="line2d_10">
      <g>
       <use style="stroke:#000000;stroke-width:0.8;" x="335.544045" xlink:href="#m84d2318453" y="307.584"/>
      </g>
     </g>
     <g id="text_5">
      <!-- 0.8 -->
      <defs>
       <path d="M 31.78125 34.625 
Q 24.75 34.625 20.71875 30.859375 
Q 16.703125 27.09375 16.703125 20.515625 
Q 16.703125 13.921875 20.71875 10.15625 
Q 24.75 6.390625 31.78125 6.390625 
Q 38.8125 6.390625 42.859375 10.171875 
Q 46.921875 13.96875 46.921875 20.515625 
Q 46.921875 27.09375 42.890625 30.859375 
Q 38.875 34.625 31.78125 34.625 
z
M 21.921875 38.8125 
Q 15.578125 40.375 12.03125 44.71875 
Q 8.5 49.078125 8.5 55.328125 
Q 8.5 64.0625 14.71875 69.140625 
Q 20.953125 74.21875 31.78125 74.21875 
Q 42.671875 74.21875 48.875 69.140625 
Q 55.078125 64.0625 55.078125 55.328125 
Q 55.078125 49.078125 51.53125 44.71875 
Q 48 40.375 41.703125 38.8125 
Q 48.828125 37.15625 52.796875 32.3125 
Q 56.78125 27.484375 56.78125 20.515625 
Q 56.78125 9.90625 50.3125 4.234375 
Q 43.84375 -1.421875 31.78125 -1.421875 
Q 19.734375 -1.421875 13.25 4.234375 
Q 6.78125 9.90625 6.78125 20.515625 
Q 6.78125 27.484375 10.78125 32.3125 
Q 14.796875 37.15625 21.921875 38.8125 
z
M 18.3125 54.390625 
Q 18.3125 48.734375 21.84375 45.5625 
Q 25.390625 42.390625 31.78125 42.390625 
Q 38.140625 42.390625 41.71875 45.5625 
Q 45.3125 48.734375 45.3125 54.390625 
Q 45.3125 60.0625 41.71875 63.234375 
Q 38.140625 66.40625 31.78125 66.40625 
Q 25.390625 66.40625 21.84375 63.234375 
Q 18.3125 60.0625 18.3125 54.390625 
z
" id="DejaVuSans-56"/>
      </defs>
      <g transform="translate(327.592482 322.182437)scale(0.1 -0.1)">
       <use xlink:href="#DejaVuSans-48"/>
       <use x="63.623047" xlink:href="#DejaVuSans-46"/>
       <use x="95.410156" xlink:href="#DejaVuSans-56"/>
      </g>
     </g>
    </g>
    <g id="xtick_6">
     <g id="line2d_11">
      <path clip-path="url(#p440f27477b)" d="M 401.800074 307.584 
L 401.800074 41.472 
" style="fill:none;stroke:#b0b0b0;stroke-linecap:square;stroke-width:0.8;"/>
     </g>
     <g id="line2d_12">
      <g>
       <use style="stroke:#000000;stroke-width:0.8;" x="401.800074" xlink:href="#m84d2318453" y="307.584"/>
      </g>
     </g>
     <g id="text_6">
      <!-- 1.0 -->
      <defs>
       <path d="M 12.40625 8.296875 
L 28.515625 8.296875 
L 28.515625 63.921875 
L 10.984375 60.40625 
L 10.984375 69.390625 
L 28.421875 72.90625 
L 38.28125 72.90625 
L 38.28125 8.296875 
L 54.390625 8.296875 
L 54.390625 0 
L 12.40625 0 
z
" id="DejaVuSans-49"/>
      </defs>
      <g transform="translate(393.848512 322.182437)scale(0.1 -0.1)">
       <use xlink:href="#DejaVuSans-49"/>
       <use x="63.623047" xlink:href="#DejaVuSans-46"/>
       <use x="95.410156" xlink:href="#DejaVuSans-48"/>
      </g>
     </g>
    </g>
    <g id="text_7">
     <!-- $\mathrm{Time \ (seconds)}$ -->
     <defs>
      <path d="M -0.296875 72.90625 
L 61.375 72.90625 
L 61.375 64.59375 
L 35.5 64.59375 
L 35.5 0 
L 25.59375 0 
L 25.59375 64.59375 
L -0.296875 64.59375 
z
" id="DejaVuSans-84"/>
      <path d="M 9.421875 54.6875 
L 18.40625 54.6875 
L 18.40625 0 
L 9.421875 0 
z
M 9.421875 75.984375 
L 18.40625 75.984375 
L 18.40625 64.59375 
L 9.421875 64.59375 
z
" id="DejaVuSans-105"/>
      <path d="M 52 44.1875 
Q 55.375 50.25 60.0625 53.125 
Q 64.75 56 71.09375 56 
Q 79.640625 56 84.28125 50.015625 
Q 88.921875 44.046875 88.921875 33.015625 
L 88.921875 0 
L 79.890625 0 
L 79.890625 32.71875 
Q 79.890625 40.578125 77.09375 44.375 
Q 74.3125 48.1875 68.609375 48.1875 
Q 61.625 48.1875 57.5625 43.546875 
Q 53.515625 38.921875 53.515625 30.90625 
L 53.515625 0 
L 44.484375 0 
L 44.484375 32.71875 
Q 44.484375 40.625 41.703125 44.40625 
Q 38.921875 48.1875 33.109375 48.1875 
Q 26.21875 48.1875 22.15625 43.53125 
Q 18.109375 38.875 18.109375 30.90625 
L 18.109375 0 
L 9.078125 0 
L 9.078125 54.6875 
L 18.109375 54.6875 
L 18.109375 46.1875 
Q 21.1875 51.21875 25.484375 53.609375 
Q 29.78125 56 35.6875 56 
Q 41.65625 56 45.828125 52.96875 
Q 50 49.953125 52 44.1875 
z
" id="DejaVuSans-109"/>
      <path d="M 56.203125 29.59375 
L 56.203125 25.203125 
L 14.890625 25.203125 
Q 15.484375 15.921875 20.484375 11.0625 
Q 25.484375 6.203125 34.421875 6.203125 
Q 39.59375 6.203125 44.453125 7.46875 
Q 49.3125 8.734375 54.109375 11.28125 
L 54.109375 2.78125 
Q 49.265625 0.734375 44.1875 -0.34375 
Q 39.109375 -1.421875 33.890625 -1.421875 
Q 20.796875 -1.421875 13.15625 6.1875 
Q 5.515625 13.8125 5.515625 26.8125 
Q 5.515625 40.234375 12.765625 48.109375 
Q 20.015625 56 32.328125 56 
Q 43.359375 56 49.78125 48.890625 
Q 56.203125 41.796875 56.203125 29.59375 
z
M 47.21875 32.234375 
Q 47.125 39.59375 43.09375 43.984375 
Q 39.0625 48.390625 32.421875 48.390625 
Q 24.90625 48.390625 20.390625 44.140625 
Q 15.875 39.890625 15.1875 32.171875 
z
" id="DejaVuSans-101"/>
      <path d="M 31 75.875 
Q 24.46875 64.65625 21.28125 53.65625 
Q 18.109375 42.671875 18.109375 31.390625 
Q 18.109375 20.125 21.3125 9.0625 
Q 24.515625 -2 31 -13.1875 
L 23.1875 -13.1875 
Q 15.875 -1.703125 12.234375 9.375 
Q 8.59375 20.453125 8.59375 31.390625 
Q 8.59375 42.28125 12.203125 53.3125 
Q 15.828125 64.359375 23.1875 75.875 
z
" id="DejaVuSans-40"/>
      <path d="M 44.28125 53.078125 
L 44.28125 44.578125 
Q 40.484375 46.53125 36.375 47.5 
Q 32.28125 48.484375 27.875 48.484375 
Q 21.1875 48.484375 17.84375 46.4375 
Q 14.5 44.390625 14.5 40.28125 
Q 14.5 37.15625 16.890625 35.375 
Q 19.28125 33.59375 26.515625 31.984375 
L 29.59375 31.296875 
Q 39.15625 29.25 43.1875 25.515625 
Q 47.21875 21.78125 47.21875 15.09375 
Q 47.21875 7.46875 41.1875 3.015625 
Q 35.15625 -1.421875 24.609375 -1.421875 
Q 20.21875 -1.421875 15.453125 -0.5625 
Q 10.6875 0.296875 5.421875 2 
L 5.421875 11.28125 
Q 10.40625 8.6875 15.234375 7.390625 
Q 20.0625 6.109375 24.8125 6.109375 
Q 31.15625 6.109375 34.5625 8.28125 
Q 37.984375 10.453125 37.984375 14.40625 
Q 37.984375 18.0625 35.515625 20.015625 
Q 33.0625 21.96875 24.703125 23.78125 
L 21.578125 24.515625 
Q 13.234375 26.265625 9.515625 29.90625 
Q 5.8125 33.546875 5.8125 39.890625 
Q 5.8125 47.609375 11.28125 51.796875 
Q 16.75 56 26.8125 56 
Q 31.78125 56 36.171875 55.265625 
Q 40.578125 54.546875 44.28125 53.078125 
z
" id="DejaVuSans-115"/>
      <path d="M 48.78125 52.59375 
L 48.78125 44.1875 
Q 44.96875 46.296875 41.140625 47.34375 
Q 37.3125 48.390625 33.40625 48.390625 
Q 24.65625 48.390625 19.8125 42.84375 
Q 14.984375 37.3125 14.984375 27.296875 
Q 14.984375 17.28125 19.8125 11.734375 
Q 24.65625 6.203125 33.40625 6.203125 
Q 37.3125 6.203125 41.140625 7.25 
Q 44.96875 8.296875 48.78125 10.40625 
L 48.78125 2.09375 
Q 45.015625 0.34375 40.984375 -0.53125 
Q 36.96875 -1.421875 32.421875 -1.421875 
Q 20.0625 -1.421875 12.78125 6.34375 
Q 5.515625 14.109375 5.515625 27.296875 
Q 5.515625 40.671875 12.859375 48.328125 
Q 20.21875 56 33.015625 56 
Q 37.15625 56 41.109375 55.140625 
Q 45.0625 54.296875 48.78125 52.59375 
z
" id="DejaVuSans-99"/>
      <path d="M 30.609375 48.390625 
Q 23.390625 48.390625 19.1875 42.75 
Q 14.984375 37.109375 14.984375 27.296875 
Q 14.984375 17.484375 19.15625 11.84375 
Q 23.34375 6.203125 30.609375 6.203125 
Q 37.796875 6.203125 41.984375 11.859375 
Q 46.1875 17.53125 46.1875 27.296875 
Q 46.1875 37.015625 41.984375 42.703125 
Q 37.796875 48.390625 30.609375 48.390625 
z
M 30.609375 56 
Q 42.328125 56 49.015625 48.375 
Q 55.71875 40.765625 55.71875 27.296875 
Q 55.71875 13.875 49.015625 6.21875 
Q 42.328125 -1.421875 30.609375 -1.421875 
Q 18.84375 -1.421875 12.171875 6.21875 
Q 5.515625 13.875 5.515625 27.296875 
Q 5.515625 40.765625 12.171875 48.375 
Q 18.84375 56 30.609375 56 
z
" id="DejaVuSans-111"/>
      <path d="M 54.890625 33.015625 
L 54.890625 0 
L 45.90625 0 
L 45.90625 32.71875 
Q 45.90625 40.484375 42.875 44.328125 
Q 39.84375 48.1875 33.796875 48.1875 
Q 26.515625 48.1875 22.3125 43.546875 
Q 18.109375 38.921875 18.109375 30.90625 
L 18.109375 0 
L 9.078125 0 
L 9.078125 54.6875 
L 18.109375 54.6875 
L 18.109375 46.1875 
Q 21.34375 51.125 25.703125 53.5625 
Q 30.078125 56 35.796875 56 
Q 45.21875 56 50.046875 50.171875 
Q 54.890625 44.34375 54.890625 33.015625 
z
" id="DejaVuSans-110"/>
      <path d="M 45.40625 46.390625 
L 45.40625 75.984375 
L 54.390625 75.984375 
L 54.390625 0 
L 45.40625 0 
L 45.40625 8.203125 
Q 42.578125 3.328125 38.25 0.953125 
Q 33.9375 -1.421875 27.875 -1.421875 
Q 17.96875 -1.421875 11.734375 6.484375 
Q 5.515625 14.40625 5.515625 27.296875 
Q 5.515625 40.1875 11.734375 48.09375 
Q 17.96875 56 27.875 56 
Q 33.9375 56 38.25 53.625 
Q 42.578125 51.265625 45.40625 46.390625 
z
M 14.796875 27.296875 
Q 14.796875 17.390625 18.875 11.75 
Q 22.953125 6.109375 30.078125 6.109375 
Q 37.203125 6.109375 41.296875 11.75 
Q 45.40625 17.390625 45.40625 27.296875 
Q 45.40625 37.203125 41.296875 42.84375 
Q 37.203125 48.484375 30.078125 48.484375 
Q 22.953125 48.484375 18.875 42.84375 
Q 14.796875 37.203125 14.796875 27.296875 
z
" id="DejaVuSans-100"/>
      <path d="M 8.015625 75.875 
L 15.828125 75.875 
Q 23.140625 64.359375 26.78125 53.3125 
Q 30.421875 42.28125 30.421875 31.390625 
Q 30.421875 20.453125 26.78125 9.375 
Q 23.140625 -1.703125 15.828125 -13.1875 
L 8.015625 -13.1875 
Q 14.5 -2 17.703125 9.0625 
Q 20.90625 20.125 20.90625 31.390625 
Q 20.90625 42.671875 17.703125 53.65625 
Q 14.5 64.65625 8.015625 75.875 
z
" id="DejaVuSans-41"/>
     </defs>
     <g transform="translate(197.76 335.860562)scale(0.1 -0.1)">
      <use transform="translate(0 0.015625)" xlink:href="#DejaVuSans-84"/>
      <use transform="translate(61.083984 0.015625)" xlink:href="#DejaVuSans-105"/>
      <use transform="translate(88.867188 0.015625)" xlink:href="#DejaVuSans-109"/>
      <use transform="translate(186.279297 0.015625)" xlink:href="#DejaVuSans-101"/>
      <use transform="translate(280.273113 0.015625)" xlink:href="#DejaVuSans-40"/>
      <use transform="translate(319.286785 0.015625)" xlink:href="#DejaVuSans-115"/>
      <use transform="translate(371.386394 0.015625)" xlink:href="#DejaVuSans-101"/>
      <use transform="translate(432.909832 0.015625)" xlink:href="#DejaVuSans-99"/>
      <use transform="translate(487.8903 0.015625)" xlink:href="#DejaVuSans-111"/>
      <use transform="translate(549.071941 0.015625)" xlink:href="#DejaVuSans-110"/>
      <use transform="translate(612.450847 0.015625)" xlink:href="#DejaVuSans-100"/>
      <use transform="translate(675.92741 0.015625)" xlink:href="#DejaVuSans-115"/>
      <use transform="translate(728.027019 0.015625)" xlink:href="#DejaVuSans-41"/>
     </g>
    </g>
   </g>
   <g id="matplotlib.axis_2">
    <g id="ytick_1">
     <g id="line2d_13">
      <path clip-path="url(#p440f27477b)" d="M 57.6 290.026422 
L 414.72 290.026422 
" style="fill:none;stroke:#b0b0b0;stroke-linecap:square;stroke-width:0.8;"/>
     </g>
     <g id="line2d_14">
      <defs>
       <path d="M 0 0 
L -3.5 0 
" id="m0bdd256f64" style="stroke:#000000;stroke-width:0.8;"/>
      </defs>
      <g>
       <use style="stroke:#000000;stroke-width:0.8;" x="57.6" xlink:href="#m0bdd256f64" y="290.026422"/>
      </g>
     </g>
     <g id="text_8">
      <!-- $\mathdefault{10^{-2}}$ -->
      <defs>
       <path d="M 10.59375 35.5 
L 73.1875 35.5 
L 73.1875 27.203125 
L 10.59375 27.203125 
z
" id="DejaVuSans-8722"/>
      </defs>
      <g transform="translate(27.1 293.825641)scale(0.1 -0.1)">
       <use transform="translate(0 0.765625)" xlink:href="#DejaVuSans-49"/>
       <use transform="translate(63.623047 0.765625)" xlink:href="#DejaVuSans-48"/>
       <use transform="translate(128.203125 39.046875)scale(0.7)" xlink:href="#DejaVuSans-8722"/>
       <use transform="translate(186.855469 39.046875)scale(0.7)" xlink:href="#DejaVuSans-50"/>
      </g>
     </g>
    </g>
    <g id="ytick_2">
     <g id="line2d_15">
      <path clip-path="url(#p440f27477b)" d="M 57.6 150.905714 
L 414.72 150.905714 
" style="fill:none;stroke:#b0b0b0;stroke-linecap:square;stroke-width:0.8;"/>
     </g>
     <g id="line2d_16">
      <g>
       <use style="stroke:#000000;stroke-width:0.8;" x="57.6" xlink:href="#m0bdd256f64" y="150.905714"/>
      </g>
     </g>
     <g id="text_9">
      <!-- $\mathdefault{10^{-1}}$ -->
      <g transform="translate(27.1 154.704933)scale(0.1 -0.1)">
       <use transform="translate(0 0.684375)" xlink:href="#DejaVuSans-49"/>
       <use transform="translate(63.623047 0.684375)" xlink:href="#DejaVuSans-48"/>
       <use transform="translate(128.203125 38.965625)scale(0.7)" xlink:href="#DejaVuSans-8722"/>
       <use transform="translate(186.855469 38.965625)scale(0.7)" xlink:href="#DejaVuSans-49"/>
      </g>
     </g>
    </g>
    <g id="ytick_3">
     <g id="line2d_17">
      <defs>
       <path d="M 0 0 
L -2 0 
" id="m1ebf012d77" style="stroke:#000000;stroke-width:0.6;"/>
      </defs>
      <g>
       <use style="stroke:#000000;stroke-width:0.6;" x="57.6" xlink:href="#m1ebf012d77" y="303.508612"/>
      </g>
     </g>
    </g>
    <g id="ytick_4">
     <g id="line2d_18">
      <g>
       <use style="stroke:#000000;stroke-width:0.6;" x="57.6" xlink:href="#m1ebf012d77" y="296.392237"/>
      </g>
     </g>
    </g>
    <g id="ytick_5">
     <g id="line2d_19">
      <g>
       <use style="stroke:#000000;stroke-width:0.6;" x="57.6" xlink:href="#m1ebf012d77" y="248.146916"/>
      </g>
     </g>
    </g>
    <g id="ytick_6">
     <g id="line2d_20">
      <g>
       <use style="stroke:#000000;stroke-width:0.6;" x="57.6" xlink:href="#m1ebf012d77" y="223.648975"/>
      </g>
     </g>
    </g>
    <g id="ytick_7">
     <g id="line2d_21">
      <g>
       <use style="stroke:#000000;stroke-width:0.6;" x="57.6" xlink:href="#m1ebf012d77" y="206.26741"/>
      </g>
     </g>
    </g>
    <g id="ytick_8">
     <g id="line2d_22">
      <g>
       <use style="stroke:#000000;stroke-width:0.6;" x="57.6" xlink:href="#m1ebf012d77" y="192.78522"/>
      </g>
     </g>
    </g>
    <g id="ytick_9">
     <g id="line2d_23">
      <g>
       <use style="stroke:#000000;stroke-width:0.6;" x="57.6" xlink:href="#m1ebf012d77" y="181.769469"/>
      </g>
     </g>
    </g>
    <g id="ytick_10">
     <g id="line2d_24">
      <g>
       <use style="stroke:#000000;stroke-width:0.6;" x="57.6" xlink:href="#m1ebf012d77" y="172.455784"/>
      </g>
     </g>
    </g>
    <g id="ytick_11">
     <g id="line2d_25">
      <g>
       <use style="stroke:#000000;stroke-width:0.6;" x="57.6" xlink:href="#m1ebf012d77" y="164.387904"/>
      </g>
     </g>
    </g>
    <g id="ytick_12">
     <g id="line2d_26">
      <g>
       <use style="stroke:#000000;stroke-width:0.6;" x="57.6" xlink:href="#m1ebf012d77" y="157.271528"/>
      </g>
     </g>
    </g>
    <g id="ytick_13">
     <g id="line2d_27">
      <g>
       <use style="stroke:#000000;stroke-width:0.6;" x="57.6" xlink:href="#m1ebf012d77" y="109.026208"/>
      </g>
     </g>
    </g>
    <g id="ytick_14">
     <g id="line2d_28">
      <g>
       <use style="stroke:#000000;stroke-width:0.6;" x="57.6" xlink:href="#m1ebf012d77" y="84.528267"/>
      </g>
     </g>
    </g>
    <g id="ytick_15">
     <g id="line2d_29">
      <g>
       <use style="stroke:#000000;stroke-width:0.6;" x="57.6" xlink:href="#m1ebf012d77" y="67.146702"/>
      </g>
     </g>
    </g>
    <g id="ytick_16">
     <g id="line2d_30">
      <g>
       <use style="stroke:#000000;stroke-width:0.6;" x="57.6" xlink:href="#m1ebf012d77" y="53.664512"/>
      </g>
     </g>
    </g>
    <g id="ytick_17">
     <g id="line2d_31">
      <g>
       <use style="stroke:#000000;stroke-width:0.6;" x="57.6" xlink:href="#m1ebf012d77" y="42.648761"/>
      </g>
     </g>
    </g>
    <g id="text_10">
     <!-- $\mathrm{Relative \ error}$ ($N_{\mathrm{train}}=5$) -->
     <defs>
      <path d="M 44.390625 34.1875 
Q 47.5625 33.109375 50.5625 29.59375 
Q 53.5625 26.078125 56.59375 19.921875 
L 66.609375 0 
L 56 0 
L 46.6875 18.703125 
Q 43.0625 26.03125 39.671875 28.421875 
Q 36.28125 30.8125 30.421875 30.8125 
L 19.671875 30.8125 
L 19.671875 0 
L 9.8125 0 
L 9.8125 72.90625 
L 32.078125 72.90625 
Q 44.578125 72.90625 50.734375 67.671875 
Q 56.890625 62.453125 56.890625 51.90625 
Q 56.890625 45.015625 53.6875 40.46875 
Q 50.484375 35.9375 44.390625 34.1875 
z
M 19.671875 64.796875 
L 19.671875 38.921875 
L 32.078125 38.921875 
Q 39.203125 38.921875 42.84375 42.21875 
Q 46.484375 45.515625 46.484375 51.90625 
Q 46.484375 58.296875 42.84375 61.546875 
Q 39.203125 64.796875 32.078125 64.796875 
z
" id="DejaVuSans-82"/>
      <path d="M 9.421875 75.984375 
L 18.40625 75.984375 
L 18.40625 0 
L 9.421875 0 
z
" id="DejaVuSans-108"/>
      <path d="M 34.28125 27.484375 
Q 23.390625 27.484375 19.1875 25 
Q 14.984375 22.515625 14.984375 16.5 
Q 14.984375 11.71875 18.140625 8.90625 
Q 21.296875 6.109375 26.703125 6.109375 
Q 34.1875 6.109375 38.703125 11.40625 
Q 43.21875 16.703125 43.21875 25.484375 
L 43.21875 27.484375 
z
M 52.203125 31.203125 
L 52.203125 0 
L 43.21875 0 
L 43.21875 8.296875 
Q 40.140625 3.328125 35.546875 0.953125 
Q 30.953125 -1.421875 24.3125 -1.421875 
Q 15.921875 -1.421875 10.953125 3.296875 
Q 6 8.015625 6 15.921875 
Q 6 25.140625 12.171875 29.828125 
Q 18.359375 34.515625 30.609375 34.515625 
L 43.21875 34.515625 
L 43.21875 35.40625 
Q 43.21875 41.609375 39.140625 45 
Q 35.0625 48.390625 27.6875 48.390625 
Q 23 48.390625 18.546875 47.265625 
Q 14.109375 46.140625 10.015625 43.890625 
L 10.015625 52.203125 
Q 14.9375 54.109375 19.578125 55.046875 
Q 24.21875 56 28.609375 56 
Q 40.484375 56 46.34375 49.84375 
Q 52.203125 43.703125 52.203125 31.203125 
z
" id="DejaVuSans-97"/>
      <path d="M 18.3125 70.21875 
L 18.3125 54.6875 
L 36.8125 54.6875 
L 36.8125 47.703125 
L 18.3125 47.703125 
L 18.3125 18.015625 
Q 18.3125 11.328125 20.140625 9.421875 
Q 21.96875 7.515625 27.59375 7.515625 
L 36.8125 7.515625 
L 36.8125 0 
L 27.59375 0 
Q 17.1875 0 13.234375 3.875 
Q 9.28125 7.765625 9.28125 18.015625 
L 9.28125 47.703125 
L 2.6875 47.703125 
L 2.6875 54.6875 
L 9.28125 54.6875 
L 9.28125 70.21875 
z
" id="DejaVuSans-116"/>
      <path d="M 2.984375 54.6875 
L 12.5 54.6875 
L 29.59375 8.796875 
L 46.6875 54.6875 
L 56.203125 54.6875 
L 35.6875 0 
L 23.484375 0 
z
" id="DejaVuSans-118"/>
      <path d="M 41.109375 46.296875 
Q 39.59375 47.171875 37.8125 47.578125 
Q 36.03125 48 33.890625 48 
Q 26.265625 48 22.1875 43.046875 
Q 18.109375 38.09375 18.109375 28.8125 
L 18.109375 0 
L 9.078125 0 
L 9.078125 54.6875 
L 18.109375 54.6875 
L 18.109375 46.1875 
Q 20.953125 51.171875 25.484375 53.578125 
Q 30.03125 56 36.53125 56 
Q 37.453125 56 38.578125 55.875 
Q 39.703125 55.765625 41.0625 55.515625 
z
" id="DejaVuSans-114"/>
      <path id="DejaVuSans-32"/>
      <path d="M 16.890625 72.90625 
L 30.171875 72.90625 
L 50.296875 10.40625 
L 62.5 72.90625 
L 72.125 72.90625 
L 57.90625 0 
L 44.578125 0 
L 24.515625 62.890625 
L 12.3125 0 
L 2.6875 0 
z
" id="DejaVuSans-Oblique-78"/>
      <path d="M 10.59375 45.40625 
L 73.1875 45.40625 
L 73.1875 37.203125 
L 10.59375 37.203125 
z
M 10.59375 25.484375 
L 73.1875 25.484375 
L 73.1875 17.1875 
L 10.59375 17.1875 
z
" id="DejaVuSans-61"/>
      <path d="M 10.796875 72.90625 
L 49.515625 72.90625 
L 49.515625 64.59375 
L 19.828125 64.59375 
L 19.828125 46.734375 
Q 21.96875 47.46875 24.109375 47.828125 
Q 26.265625 48.1875 28.421875 48.1875 
Q 40.625 48.1875 47.75 41.5 
Q 54.890625 34.8125 54.890625 23.390625 
Q 54.890625 11.625 47.5625 5.09375 
Q 40.234375 -1.421875 26.90625 -1.421875 
Q 22.3125 -1.421875 17.546875 -0.640625 
Q 12.796875 0.140625 7.71875 1.703125 
L 7.71875 11.625 
Q 12.109375 9.234375 16.796875 8.0625 
Q 21.484375 6.890625 26.703125 6.890625 
Q 35.15625 6.890625 40.078125 11.328125 
Q 45.015625 15.765625 45.015625 23.390625 
Q 45.015625 31 40.078125 35.4375 
Q 35.15625 39.890625 26.703125 39.890625 
Q 22.75 39.890625 18.8125 39.015625 
Q 14.890625 38.140625 10.796875 36.28125 
z
" id="DejaVuSans-53"/>
     </defs>
     <g transform="translate(21.020312 235.678)rotate(-90)scale(0.1 -0.1)">
      <use transform="translate(0 0.015625)" xlink:href="#DejaVuSans-82"/>
      <use transform="translate(69.482422 0.015625)" xlink:href="#DejaVuSans-101"/>
      <use transform="translate(131.005859 0.015625)" xlink:href="#DejaVuSans-108"/>
      <use transform="translate(158.789062 0.015625)" xlink:href="#DejaVuSans-97"/>
      <use transform="translate(220.068359 0.015625)" xlink:href="#DejaVuSans-116"/>
      <use transform="translate(259.277344 0.015625)" xlink:href="#DejaVuSans-105"/>
      <use transform="translate(287.060547 0.015625)" xlink:href="#DejaVuSans-118"/>
      <use transform="translate(346.240234 0.015625)" xlink:href="#DejaVuSans-101"/>
      <use transform="translate(440.23405 0.015625)" xlink:href="#DejaVuSans-101"/>
      <use transform="translate(501.757488 0.015625)" xlink:href="#DejaVuSans-114"/>
      <use transform="translate(542.870769 0.015625)" xlink:href="#DejaVuSans-114"/>
      <use transform="translate(583.98405 0.015625)" xlink:href="#DejaVuSans-111"/>
      <use transform="translate(645.165691 0.015625)" xlink:href="#DejaVuSans-114"/>
      <use transform="translate(686.278972 0.015625)" xlink:href="#DejaVuSans-32"/>
      <use transform="translate(718.066082 0.015625)" xlink:href="#DejaVuSans-40"/>
      <use transform="translate(757.079753 0.015625)" xlink:href="#DejaVuSans-Oblique-78"/>
      <use transform="translate(831.884441 -16.390625)scale(0.7)" xlink:href="#DejaVuSans-116"/>
      <use transform="translate(859.33073 -16.390625)scale(0.7)" xlink:href="#DejaVuSans-114"/>
      <use transform="translate(888.110027 -16.390625)scale(0.7)" xlink:href="#DejaVuSans-97"/>
      <use transform="translate(931.005535 -16.390625)scale(0.7)" xlink:href="#DejaVuSans-105"/>
      <use transform="translate(950.453777 -16.390625)scale(0.7)" xlink:href="#DejaVuSans-110"/>
      <use transform="translate(1017.035808 0.015625)" xlink:href="#DejaVuSans-61"/>
      <use transform="translate(1120.307292 0.015625)" xlink:href="#DejaVuSans-53"/>
      <use transform="translate(1183.930339 0.015625)" xlink:href="#DejaVuSans-41"/>
     </g>
    </g>
   </g>
   <g id="line2d_32">
    <path clip-path="url(#p440f27477b)" d="M 73.832724 278.304129 
L 77.145522 254.948139 
L 80.458321 237.706748 
L 83.771119 224.112199 
L 87.083917 213.07546 
L 90.396716 204.00186 
L 93.709554 196.502488 
L 97.022352 190.286527 
L 100.33515 185.117609 
L 103.647949 180.799374 
L 106.960747 177.170939 
L 110.273545 174.102876 
L 113.586344 171.492428 
L 116.899142 169.258582 
L 120.21194 167.337255 
L 123.524738 165.678077 
L 126.837537 164.242487 
L 130.150375 163.001639 
L 133.463173 161.933846 
L 136.775971 161.021968 
L 140.08877 160.251768 
L 143.401568 159.610992 
L 146.714366 159.088416 
L 150.027165 158.674347 
L 153.339963 158.362112 
L 156.652761 158.14628 
L 159.96556 158.021617 
L 163.278358 157.983955 
L 166.591156 158.03011 
L 169.903955 158.158105 
L 173.216753 158.366925 
L 176.529551 158.655905 
L 179.842389 159.02352 
L 183.155187 159.467486 
L 186.467986 159.98399 
L 189.780784 160.564963 
L 199.719179 162.431765 
L 203.031977 162.922698 
L 206.344776 163.25513 
L 209.657574 163.406264 
L 212.970412 163.377062 
L 216.28321 163.180799 
L 219.596008 162.835161 
L 222.908807 162.358227 
L 226.221605 161.766972 
L 229.534403 161.076709 
L 232.847202 160.301156 
L 236.16 159.452477 
L 239.472798 158.541658 
L 246.098395 156.574024 
L 252.723992 154.474214 
L 272.600821 148.04408 
L 279.226418 146.037838 
L 285.852014 144.161334 
L 292.477651 142.431941 
L 299.103247 140.855784 
L 305.728844 139.430747 
L 312.35444 138.150523 
L 318.980037 137.008151 
L 325.605634 135.998258 
L 332.23123 135.116808 
L 338.856827 134.36271 
L 345.482424 133.736848 
L 352.10806 133.241867 
L 358.733656 132.882495 
L 365.359253 132.665071 
L 368.672051 132.612736 
L 371.984889 132.600027 
L 375.297688 132.628309 
L 378.610486 132.698805 
L 381.923284 132.812412 
L 385.236083 132.96895 
L 391.861679 133.397529 
L 398.487276 133.905723 
" style="fill:none;stroke:#ffa500;stroke-linecap:square;stroke-width:1.5;"/>
   </g>
   <g id="line2d_33">
    <path clip-path="url(#p440f27477b)" d="M 73.832724 234.44559 
L 77.145522 210.232795 
L 80.458321 192.107004 
L 83.771119 177.585347 
L 87.083917 165.572082 
L 90.396716 155.469564 
L 93.709554 146.892468 
L 97.022352 139.558679 
L 100.33515 133.247789 
L 103.647949 127.782669 
L 106.960747 123.020333 
L 110.273545 118.844644 
L 113.586344 115.161528 
L 116.899142 111.894768 
L 120.21194 108.982337 
L 123.524738 106.373317 
L 126.837537 104.026129 
L 130.150375 101.906897 
L 133.463173 99.98784 
L 136.775971 98.246107 
L 140.08877 96.662818 
L 143.401568 95.222145 
L 146.714366 93.910591 
L 150.027165 92.716656 
L 153.339963 91.630576 
L 156.652761 90.644082 
L 159.96556 89.750345 
L 163.278358 88.943641 
L 166.591156 88.219244 
L 169.903955 87.573349 
L 173.216753 87.002893 
L 176.529551 86.505458 
L 179.842389 86.078901 
L 183.155187 85.721427 
L 186.467986 85.43166 
L 189.780784 85.20855 
L 193.093582 85.05143 
L 196.406381 84.959933 
L 199.719179 84.933908 
L 203.031977 84.973313 
L 206.344776 85.078093 
L 209.657574 85.247836 
L 212.970412 85.481481 
L 216.28321 85.776616 
L 219.596008 86.128822 
L 226.221605 86.969917 
L 236.16 88.32144 
L 239.472798 88.701852 
L 242.785597 89.008752 
L 246.098395 89.227467 
L 249.411193 89.351156 
L 252.723992 89.379825 
L 256.03679 89.318413 
L 259.349588 89.17494 
L 262.662387 88.958882 
L 265.975185 88.68006 
L 269.288023 88.348122 
L 275.913619 87.559583 
L 282.539216 86.654286 
L 292.477651 85.177521 
L 315.667239 81.670382 
L 325.605634 80.273851 
L 335.544029 78.988208 
L 342.169625 78.204292 
L 348.795222 77.486352 
L 355.420858 76.840648 
L 362.046455 76.272896 
L 368.672051 75.787268 
L 375.297688 75.386918 
L 381.923284 75.075431 
L 388.548881 74.857146 
L 395.174478 74.737589 
L 398.487276 74.716859 
" style="fill:none;stroke:#ff00ff;stroke-linecap:square;stroke-width:1.5;"/>
   </g>
   <g id="line2d_34">
    <path clip-path="url(#p440f27477b)" d="M 73.832724 203.897741 
L 77.145522 180.418943 
L 80.458321 162.999995 
L 83.771119 149.133165 
L 87.083917 137.707336 
L 90.396716 128.118671 
L 93.709554 119.982889 
L 97.022352 113.025431 
L 100.33515 107.036 
L 103.647949 101.848008 
L 106.960747 97.32751 
L 110.273545 93.366188 
L 113.586344 89.876251 
L 116.899142 86.786263 
L 120.21194 84.037703 
L 123.524738 81.582484 
L 126.837537 79.380797 
L 130.150375 77.399563 
L 133.463173 75.611142 
L 136.775971 73.992449 
L 140.08877 72.523958 
L 143.401568 71.189256 
L 146.714366 69.974477 
L 150.027165 68.867777 
L 153.339963 67.859093 
L 156.652761 66.939699 
L 159.96556 66.102197 
L 163.278358 65.340144 
L 166.591156 64.648039 
L 169.903955 64.021311 
L 173.216753 63.456178 
L 176.529551 62.949587 
L 179.842389 62.499106 
L 183.155187 62.102819 
L 186.467986 61.75927 
L 189.780784 61.467349 
L 193.093582 61.226294 
L 196.406381 61.035622 
L 199.719179 60.895038 
L 203.031977 60.804418 
L 206.344776 60.763703 
L 209.657574 60.77291 
L 212.970412 60.831851 
L 216.28321 60.939981 
L 219.596008 61.096091 
L 222.908807 61.297806 
L 229.534403 61.820085 
L 239.472798 62.774855 
L 246.098395 63.389972 
L 252.723992 63.886149 
L 256.03679 64.072043 
L 259.349588 64.211619 
L 262.662387 64.303812 
L 265.975185 64.349301 
L 269.288023 64.350147 
L 275.913619 64.231022 
L 282.539216 63.977294 
L 289.164852 63.621177 
L 295.790449 63.191124 
L 305.728844 62.456417 
L 322.292835 61.121713 
L 342.169625 59.521809 
L 355.420858 58.537438 
L 365.359253 57.874954 
L 375.297688 57.297349 
L 385.236083 56.820775 
L 391.861679 56.566256 
L 398.487276 56.366841 
" style="fill:none;stroke:#ff0000;stroke-linecap:square;stroke-width:1.5;"/>
   </g>
   <g id="patch_3">
    <path d="M 57.6 307.584 
L 57.6 41.472 
" style="fill:none;stroke:#000000;stroke-linecap:square;stroke-linejoin:miter;stroke-width:0.8;"/>
   </g>
   <g id="patch_4">
    <path d="M 414.72 307.584 
L 414.72 41.472 
" style="fill:none;stroke:#000000;stroke-linecap:square;stroke-linejoin:miter;stroke-width:0.8;"/>
   </g>
   <g id="patch_5">
    <path d="M 57.6 307.584 
L 414.72 307.584 
" style="fill:none;stroke:#000000;stroke-linecap:square;stroke-linejoin:miter;stroke-width:0.8;"/>
   </g>
   <g id="patch_6">
    <path d="M 57.6 41.472 
L 414.72 41.472 
" style="fill:none;stroke:#000000;stroke-linecap:square;stroke-linejoin:miter;stroke-width:0.8;"/>
   </g>
   <g id="legend_1">
    <g id="patch_7">
     <path d="M 323.679375 302.584 
L 407.72 302.584 
Q 409.72 302.584 409.72 300.584 
L 409.72 257.549625 
Q 409.72 255.549625 407.72 255.549625 
L 323.679375 255.549625 
Q 321.679375 255.549625 321.679375 257.549625 
L 321.679375 300.584 
Q 321.679375 302.584 323.679375 302.584 
z
" style="fill:#ffffff;opacity:0.8;stroke:#cccccc;stroke-linejoin:miter;"/>
    </g>
    <g id="line2d_35">
     <path d="M 325.679375 263.648062 
L 345.679375 263.648062 
" style="fill:none;stroke:#ffa500;stroke-linecap:square;stroke-width:1.5;"/>
    </g>
    <g id="line2d_36"/>
    <g id="text_11">
     <!-- 0.01 noise -->
     <g transform="translate(353.679375 267.148062)scale(0.1 -0.1)">
      <use xlink:href="#DejaVuSans-48"/>
      <use x="63.623047" xlink:href="#DejaVuSans-46"/>
      <use x="95.410156" xlink:href="#DejaVuSans-48"/>
      <use x="159.033203" xlink:href="#DejaVuSans-49"/>
      <use x="222.65625" xlink:href="#DejaVuSans-32"/>
      <use x="254.443359" xlink:href="#DejaVuSans-110"/>
      <use x="317.822266" xlink:href="#DejaVuSans-111"/>
      <use x="379.003906" xlink:href="#DejaVuSans-105"/>
      <use x="406.787109" xlink:href="#DejaVuSans-115"/>
      <use x="458.886719" xlink:href="#DejaVuSans-101"/>
     </g>
    </g>
    <g id="line2d_37">
     <path d="M 325.679375 278.326188 
L 345.679375 278.326188 
" style="fill:none;stroke:#ff00ff;stroke-linecap:square;stroke-width:1.5;"/>
    </g>
    <g id="line2d_38"/>
    <g id="text_12">
     <!-- 0.05 noise -->
     <g transform="translate(353.679375 281.826188)scale(0.1 -0.1)">
      <use xlink:href="#DejaVuSans-48"/>
      <use x="63.623047" xlink:href="#DejaVuSans-46"/>
      <use x="95.410156" xlink:href="#DejaVuSans-48"/>
      <use x="159.033203" xlink:href="#DejaVuSans-53"/>
      <use x="222.65625" xlink:href="#DejaVuSans-32"/>
      <use x="254.443359" xlink:href="#DejaVuSans-110"/>
      <use x="317.822266" xlink:href="#DejaVuSans-111"/>
      <use x="379.003906" xlink:href="#DejaVuSans-105"/>
      <use x="406.787109" xlink:href="#DejaVuSans-115"/>
      <use x="458.886719" xlink:href="#DejaVuSans-101"/>
     </g>
    </g>
    <g id="line2d_39">
     <path d="M 325.679375 293.004312 
L 345.679375 293.004312 
" style="fill:none;stroke:#ff0000;stroke-linecap:square;stroke-width:1.5;"/>
    </g>
    <g id="line2d_40"/>
    <g id="text_13">
     <!-- 0.1 noise -->
     <g transform="translate(353.679375 296.504312)scale(0.1 -0.1)">
      <use xlink:href="#DejaVuSans-48"/>
      <use x="63.623047" xlink:href="#DejaVuSans-46"/>
      <use x="95.410156" xlink:href="#DejaVuSans-49"/>
      <use x="159.033203" xlink:href="#DejaVuSans-32"/>
      <use x="190.820312" xlink:href="#DejaVuSans-110"/>
      <use x="254.199219" xlink:href="#DejaVuSans-111"/>
      <use x="315.380859" xlink:href="#DejaVuSans-105"/>
      <use x="343.164062" xlink:href="#DejaVuSans-115"/>
      <use x="395.263672" xlink:href="#DejaVuSans-101"/>
     </g>
    </g>
   </g>
  </g>
 </g>
 <defs>
  <clipPath id="p440f27477b">
   <rect height="266.112" width="357.12" x="57.6" y="41.472"/>
  </clipPath>
 </defs>
</svg>
