<?xml version="1.0" encoding="utf-8" standalone="no"?>
<!DOCTYPE svg PUBLIC "-//W3C//DTD SVG 1.1//EN"
  "http://www.w3.org/Graphics/SVG/1.1/DTD/svg11.dtd">
<!-- Created with matplotlib (https://matplotlib.org/) -->
<svg height="345.6pt" version="1.1" viewBox="0 0 460.8 345.6" width="460.8pt" xmlns="http://www.w3.org/2000/svg" xmlns:xlink="http://www.w3.org/1999/xlink">
 <defs>
  <style type="text/css">
*{stroke-linecap:butt;stroke-linejoin:round;white-space:pre;}
  </style>
 </defs>
 <g id="figure_1">
  <g id="patch_1">
   <path d="M 0 345.6 
L 460.8 345.6 
L 460.8 0 
L 0 0 
z
" style="fill:#ffffff;"/>
  </g>
  <g id="axes_1">
   <g id="patch_2">
    <path d="M 57.6 307.584 
L 414.72 307.584 
L 414.72 41.472 
L 57.6 41.472 
z
" style="fill:#ffffff;"/>
   </g>
   <g id="PolyCollection_1">
    <path clip-path="url(#pd72a43bdeb)" d="M 73.832727 279.634786 
L 73.832727 295.488 
L 77.145529 261.251682 
L 80.45833 236.061916 
L 83.771132 216.141713 
L 87.083933 199.816582 
L 90.396735 186.179677 
L 93.709536 174.658982 
L 97.022338 164.849246 
L 100.335139 156.441991 
L 103.647941 149.193806 
L 106.960742 142.90957 
L 110.273544 137.431607 
L 113.586345 132.631996 
L 116.899147 128.406746 
L 120.211948 124.671012 
L 123.52475 121.355345 
L 126.837551 118.402694 
L 130.150353 115.766014 
L 133.463154 113.406442 
L 136.775955 111.291802 
L 140.088757 109.395391 
L 143.401558 107.695036 
L 146.71436 106.172298 
L 150.027161 104.811878 
L 153.339963 103.60118 
L 156.652764 102.529904 
L 159.965566 101.589725 
L 163.278367 100.774058 
L 166.591169 100.077938 
L 169.90397 99.497866 
L 173.216772 99.031602 
L 176.529573 98.678082 
L 179.842375 98.437402 
L 183.155176 98.31087 
L 186.467978 98.300961 
L 189.780779 98.411193 
L 193.093581 98.645962 
L 196.406382 99.010355 
L 199.719184 99.5098 
L 203.031985 100.149313 
L 206.344787 100.932112 
L 209.657588 101.857227 
L 212.97039 102.915596 
L 216.283191 104.084534 
L 219.595993 105.321995 
L 222.908794 106.56499 
L 226.221596 107.737769 
L 229.534397 108.768882 
L 232.847199 109.607157 
L 236.16 110.2275 
L 239.472801 110.627116 
L 242.785603 110.81783 
L 246.098404 110.819033 
L 249.411206 110.652945 
L 252.724007 110.341932 
L 256.036809 109.90716 
L 259.34961 109.36802 
L 262.662412 108.741911 
L 265.975213 108.044211 
L 269.288015 107.288356 
L 272.600816 106.485954 
L 275.913618 105.646954 
L 279.226419 104.77984 
L 282.539221 103.891819 
L 285.852022 102.989004 
L 289.164824 102.076563 
L 292.477625 101.158849 
L 295.790427 100.239518 
L 299.103228 99.321636 
L 302.41603 98.407778 
L 305.728831 97.500111 
L 309.041633 96.600464 
L 312.354434 95.710393 
L 315.667236 94.831229 
L 318.980037 93.964121 
L 322.292839 93.110056 
L 325.60564 92.269882 
L 328.918442 91.444331 
L 332.231243 90.634048 
L 335.544045 89.839606 
L 338.856846 89.061527 
L 342.169647 88.300297 
L 345.482449 87.556386 
L 348.79525 86.830267 
L 352.108052 86.122436 
L 355.420853 85.433419 
L 358.733655 84.763782 
L 362.046456 84.11415 
L 365.359258 83.48521 
L 368.672059 82.87774 
L 371.984861 82.292621 
L 375.297662 81.730862 
L 378.610464 81.193619 
L 381.923265 80.682221 
L 385.236067 80.198198 
L 388.548868 79.743315 
L 391.86167 79.319614 
L 395.174471 78.929452 
L 398.487273 78.575558 
L 398.487273 67.178677 
L 398.487273 67.178677 
L 395.174471 67.509932 
L 391.86167 67.86822 
L 388.548868 68.251684 
L 385.236067 68.658727 
L 381.923265 69.087971 
L 378.610464 69.538221 
L 375.297662 70.008433 
L 371.984861 70.497694 
L 368.672059 71.005199 
L 365.359258 71.530232 
L 362.046456 72.072151 
L 358.733655 72.630371 
L 355.420853 73.204342 
L 352.108052 73.793547 
L 348.79525 74.397481 
L 345.482449 75.01565 
L 342.169647 75.647559 
L 338.856846 76.292699 
L 335.544045 76.950535 
L 332.231243 77.62049 
L 328.918442 78.301925 
L 325.60564 78.994124 
L 322.292839 79.696274 
L 318.980037 80.40744 
L 315.667236 81.126544 
L 312.354434 81.852333 
L 309.041633 82.583348 
L 305.728831 83.317878 
L 302.41603 84.05391 
L 299.103228 84.789063 
L 295.790427 85.520518 
L 292.477625 86.244929 
L 289.164824 86.958315 
L 285.852022 87.655939 
L 282.539221 88.332179 
L 279.226419 88.980357 
L 275.913618 89.592551 
L 272.600816 90.159386 
L 269.288015 90.669825 
L 265.975213 91.110945 
L 262.662412 91.467755 
L 259.34961 91.723097 
L 256.036809 91.857735 
L 252.724007 91.850762 
L 249.411206 91.680574 
L 246.098404 91.326896 
L 242.785603 90.774543 
L 239.472801 90.019741 
L 236.16 89.078484 
L 232.847199 87.99309 
L 229.534397 86.829559 
L 226.221596 85.662553 
L 222.908794 84.556664 
L 219.595993 83.555981 
L 216.283191 82.68436 
L 212.97039 81.950941 
L 209.657588 81.356069 
L 206.344787 80.895689 
L 203.031985 80.563959 
L 199.719184 80.354589 
L 196.406382 80.261524 
L 193.093581 80.279295 
L 189.780779 80.403145 
L 186.467978 80.629103 
L 183.155176 80.954063 
L 179.842375 81.375773 
L 176.529573 81.892831 
L 173.216772 82.504733 
L 169.90397 83.212024 
L 166.591169 84.016391 
L 163.278367 84.920767 
L 159.965566 85.929469 
L 156.652764 87.048253 
L 153.339963 88.284334 
L 150.027161 89.646542 
L 146.71436 91.145615 
L 143.401558 92.794514 
L 140.088757 94.60872 
L 136.775955 96.606668 
L 133.463154 98.810327 
L 130.150353 101.245945 
L 126.837551 103.944995 
L 123.52475 106.945313 
L 120.211948 110.292477 
L 116.899147 114.04164 
L 113.586345 118.259877 
L 110.273544 123.029354 
L 106.960742 128.451343 
L 103.647941 134.651331 
L 100.335139 141.785667 
L 97.022338 150.050313 
L 93.709536 159.692807 
L 90.396735 171.030125 
L 87.083933 184.480476 
L 83.771132 200.631556 
L 80.45833 220.404192 
L 77.145529 245.480183 
L 73.832727 279.634786 
z
" style="fill:#ffa500;fill-opacity:0.4;"/>
   </g>
   <g id="PolyCollection_2">
    <path clip-path="url(#pd72a43bdeb)" d="M 73.832727 262.662089 
L 73.832727 294.774855 
L 77.145529 259.045242 
L 80.45833 232.401278 
L 83.771132 211.079922 
L 87.083933 193.418881 
L 90.396735 178.519823 
L 93.709536 165.8121 
L 97.022338 154.886739 
L 100.335139 145.429219 
L 103.647941 137.19064 
L 106.960742 129.971439 
L 110.273544 123.609904 
L 113.586345 117.974273 
L 116.899147 112.956931 
L 120.211948 108.469428 
L 123.52475 104.438804 
L 126.837551 100.804861 
L 130.150353 97.517708 
L 133.463154 94.535798 
L 136.775955 91.824364 
L 140.088757 89.354132 
L 143.401558 87.100366 
L 146.71436 85.042137 
L 150.027161 83.161649 
L 153.339963 81.443684 
L 156.652764 79.875199 
L 159.965566 78.444989 
L 163.278367 77.143453 
L 166.591169 75.962401 
L 169.90397 74.894879 
L 173.216772 73.935048 
L 176.529573 73.078056 
L 179.842375 72.319965 
L 183.155176 71.657671 
L 186.467978 71.088816 
L 189.780779 70.611747 
L 193.093581 70.225479 
L 196.406382 69.929679 
L 199.719184 69.724613 
L 203.031985 69.611066 
L 206.344787 69.590226 
L 209.657588 69.663511 
L 212.97039 69.832346 
L 216.283191 70.097828 
L 219.595993 70.460236 
L 222.908794 70.918327 
L 226.221596 71.468337 
L 229.534397 72.102815 
L 232.847199 72.809183 
L 236.16 73.568448 
L 239.472801 74.354735 
L 242.785603 75.136473 
L 246.098404 75.879665 
L 249.411206 76.552615 
L 252.724007 77.130428 
L 256.036809 77.597523 
L 259.34961 77.947661 
L 262.662412 78.182205 
L 265.975213 78.307733 
L 269.288015 78.333848 
L 272.600816 78.271503 
L 275.913618 78.131889 
L 279.226419 77.925755 
L 282.539221 77.663043 
L 285.852022 77.352729 
L 289.164824 77.002789 
L 292.477625 76.620232 
L 295.790427 76.211175 
L 299.103228 75.780938 
L 302.41603 75.334135 
L 305.728831 74.874773 
L 309.041633 74.406326 
L 312.354434 73.931825 
L 315.667236 73.453919 
L 318.980037 72.974936 
L 322.292839 72.496936 
L 325.60564 72.021753 
L 328.918442 71.55103 
L 332.231243 71.086249 
L 335.544045 70.628758 
L 338.856846 70.179794 
L 342.169647 69.740504 
L 345.482449 69.31196 
L 348.79525 68.895172 
L 352.108052 68.491109 
L 355.420853 68.100709 
L 358.733655 67.724899 
L 362.046456 67.364604 
L 365.359258 67.020751 
L 368.672059 66.694272 
L 371.984861 66.386109 
L 375.297662 66.097214 
L 378.610464 65.828557 
L 381.923265 65.581145 
L 385.236067 65.356021 
L 388.548868 65.154272 
L 391.86167 64.977037 
L 395.174471 64.8255 
L 398.487273 64.700875 
L 398.487273 53.568 
L 398.487273 53.568 
L 395.174471 53.780036 
L 391.86167 54.010741 
L 388.548868 54.259299 
L 385.236067 54.524962 
L 381.923265 54.807044 
L 378.610464 55.104901 
L 375.297662 55.417926 
L 371.984861 55.745538 
L 368.672059 56.087175 
L 365.359258 56.442292 
L 362.046456 56.810348 
L 358.733655 57.190808 
L 355.420853 57.583131 
L 352.108052 57.986766 
L 348.79525 58.401144 
L 345.482449 58.825675 
L 342.169647 59.259735 
L 338.856846 59.702659 
L 335.544045 60.153732 
L 332.231243 60.612171 
L 328.918442 61.077117 
L 325.60564 61.547613 
L 322.292839 62.022588 
L 318.980037 62.500832 
L 315.667236 62.980971 
L 312.354434 63.461437 
L 309.041633 63.940425 
L 305.728831 64.415854 
L 302.41603 64.88531 
L 299.103228 65.345985 
L 295.790427 65.794611 
L 292.477625 66.22738 
L 289.164824 66.639857 
L 285.852022 67.026882 
L 282.539221 67.382476 
L 279.226419 67.699752 
L 275.913618 67.970842 
L 272.600816 68.186881 
L 269.288015 68.338079 
L 265.975213 68.413951 
L 262.662412 68.40381 
L 259.34961 68.297605 
L 256.036809 68.087253 
L 252.724007 67.768459 
L 249.411206 67.342856 
L 246.098404 66.819854 
L 242.785603 66.217286 
L 239.472801 65.560064 
L 236.16 64.876968 
L 232.847199 64.196675 
L 229.534397 63.54446 
L 226.221596 62.940429 
L 222.908794 62.399232 
L 219.595993 61.930718 
L 216.283191 61.540959 
L 212.97039 61.233321 
L 209.657588 61.009353 
L 206.344787 60.869496 
L 203.031985 60.813569 
L 199.719184 60.841115 
L 196.406382 60.951634 
L 193.093581 61.14474 
L 189.780779 61.420279 
L 186.467978 61.778434 
L 183.155176 62.219801 
L 179.842375 62.745481 
L 176.529573 63.357154 
L 173.216772 64.057142 
L 169.90397 64.848476 
L 166.591169 65.734983 
L 163.278367 66.721387 
L 159.965566 67.813413 
L 156.652764 69.017917 
L 153.339963 70.343037 
L 150.027161 71.798386 
L 146.71436 73.395289 
L 143.401558 75.147074 
L 140.088757 77.069436 
L 136.775955 79.180884 
L 133.463154 81.503278 
L 130.150353 84.062488 
L 126.837551 86.889249 
L 123.52475 90.020265 
L 120.211948 93.499606 
L 116.899147 97.380495 
L 113.586345 101.727581 
L 110.273544 106.619958 
L 106.960742 112.155067 
L 103.647941 118.453742 
L 100.335139 125.666762 
L 97.022338 133.983582 
L 93.709536 143.644286 
L 90.396735 154.957749 
L 87.083933 168.334619 
L 83.771132 184.357493 
L 80.45833 203.946223 
L 77.145529 228.786628 
L 73.832727 262.662089 
z
" style="fill:#ff00ff;fill-opacity:0.4;"/>
   </g>
   <g id="PolyCollection_3">
    <path clip-path="url(#pd72a43bdeb)" d="M 73.832727 278.896969 
L 73.832727 289.660624 
L 77.145529 254.65918 
L 80.45833 228.702753 
L 83.771132 208.016706 
L 87.083933 190.930871 
L 90.396735 176.545783 
L 93.709536 164.297079 
L 97.022338 153.785408 
L 100.335139 144.705913 
L 103.647941 136.817052 
L 106.960742 129.923934 
L 110.273544 123.868196 
L 113.586345 118.520866 
L 116.899147 113.77653 
L 120.211948 109.548617 
L 123.52475 105.765806 
L 126.837551 102.369035 
L 130.150353 99.309138 
L 133.463154 96.544995 
L 136.775955 94.042164 
L 140.088757 91.771694 
L 143.401558 89.709117 
L 146.71436 87.833661 
L 150.027161 86.127667 
L 153.339963 84.576138 
L 156.652764 83.166338 
L 159.965566 81.887444 
L 163.278367 80.730181 
L 166.591169 79.686525 
L 169.90397 78.74958 
L 173.216772 77.913412 
L 176.529573 77.172864 
L 179.842375 76.523391 
L 183.155176 75.961112 
L 186.467978 75.482876 
L 189.780779 75.086208 
L 193.093581 74.769253 
L 196.406382 74.530684 
L 199.719184 74.369601 
L 203.031985 74.285347 
L 206.344787 74.27731 
L 209.657588 74.34467 
L 212.97039 74.486143 
L 216.283191 74.699572 
L 219.595993 74.981417 
L 222.908794 75.326097 
L 226.221596 75.7253 
L 229.534397 76.167351 
L 232.847199 76.636875 
L 236.16 77.115097 
L 239.472801 77.580967 
L 242.785603 78.01309 
L 246.098404 78.392016 
L 249.411206 78.70223 
L 252.724007 78.933301 
L 256.036809 79.080051 
L 259.34961 79.141967 
L 262.662412 79.122193 
L 265.975213 79.026419 
L 269.288015 78.861879 
L 272.600816 78.636529 
L 275.913618 78.358451 
L 279.226419 78.035452 
L 282.539221 77.674827 
L 285.852022 77.283234 
L 289.164824 76.866648 
L 292.477625 76.430373 
L 295.790427 75.97908 
L 299.103228 75.516856 
L 302.41603 75.04726 
L 305.728831 74.573381 
L 309.041633 74.097901 
L 312.354434 73.623149 
L 315.667236 73.151141 
L 318.980037 72.68363 
L 322.292839 72.222145 
L 325.60564 71.768034 
L 328.918442 71.322505 
L 332.231243 70.886646 
L 335.544045 70.461454 
L 338.856846 70.047847 
L 342.169647 69.646675 
L 345.482449 69.258717 
L 348.79525 68.884681 
L 352.108052 68.525197 
L 355.420853 68.180811 
L 358.733655 67.851966 
L 362.046456 67.538945 
L 365.359258 67.24191 
L 368.672059 66.96094 
L 371.984861 66.696092 
L 375.297662 66.447419 
L 378.610464 66.214991 
L 381.923265 65.998909 
L 385.236067 65.799302 
L 388.548868 65.616335 
L 391.86167 65.450202 
L 395.174471 65.301137 
L 398.487273 65.16942 
L 398.487273 55.866807 
L 398.487273 55.866807 
L 395.174471 56.024497 
L 391.86167 56.205502 
L 388.548868 56.409197 
L 385.236067 56.634956 
L 381.923265 56.882131 
L 378.610464 57.150062 
L 375.297662 57.438073 
L 371.984861 57.745479 
L 368.672059 58.071599 
L 365.359258 58.415744 
L 362.046456 58.777221 
L 358.733655 59.155326 
L 355.420853 59.549348 
L 352.108052 59.958574 
L 348.79525 60.38229 
L 345.482449 60.819778 
L 342.169647 61.270311 
L 338.856846 61.73315 
L 335.544045 62.207534 
L 332.231243 62.692671 
L 328.918442 63.187717 
L 325.60564 63.69176 
L 322.292839 64.203797 
L 318.980037 64.722714 
L 315.667236 65.247252 
L 312.354434 65.775982 
L 309.041633 66.307261 
L 305.728831 66.839197 
L 302.41603 67.369596 
L 299.103228 67.895896 
L 295.790427 68.415108 
L 292.477625 68.923736 
L 289.164824 69.417692 
L 285.852022 69.892213 
L 282.539221 70.341764 
L 279.226419 70.759962 
L 275.913618 71.139516 
L 272.600816 71.472225 
L 269.288015 71.749064 
L 265.975213 71.96042 
L 262.662412 72.09655 
L 259.34961 72.148347 
L 256.036809 72.10847 
L 252.724007 71.972819 
L 249.411206 71.742173 
L 246.098404 71.423574 
L 242.785603 71.03085 
L 239.472801 70.583771 
L 236.16 70.105833 
L 232.847199 69.621303 
L 229.534397 69.152531 
L 226.221596 68.71825 
L 222.908794 68.332944 
L 219.595993 68.007048 
L 216.283191 67.747621 
L 212.97039 67.559148 
L 209.657588 67.444307 
L 206.344787 67.404597 
L 203.031985 67.440851 
L 199.719184 67.55357 
L 196.406382 67.743164 
L 193.093581 68.010119 
L 189.780779 68.355145 
L 186.467978 68.779302 
L 183.155176 69.284069 
L 179.842375 69.871359 
L 176.529573 70.543606 
L 173.216772 71.303837 
L 169.90397 72.155695 
L 166.591169 73.103512 
L 163.278367 74.152456 
L 159.965566 75.308683 
L 156.652764 76.579467 
L 153.339963 77.973399 
L 150.027161 79.500668 
L 146.71436 81.173332 
L 143.401558 83.005614 
L 140.088757 85.014261 
L 136.775955 87.218994 
L 133.463154 89.643112 
L 130.150353 92.314307 
L 126.837551 95.2656 
L 123.52475 98.536478 
L 120.211948 102.174336 
L 116.899147 106.236386 
L 113.586345 110.792049 
L 110.273544 115.926042 
L 106.960742 121.74244 
L 103.647941 128.369833 
L 100.335139 135.967698 
L 97.022338 144.734833 
L 93.709536 154.921019 
L 90.396735 166.844141 
L 87.083933 180.921042 
L 83.771132 197.73572 
L 80.45833 218.203499 
L 77.145529 244.000241 
L 73.832727 278.896969 
z
" style="fill:#ff0000;fill-opacity:0.4;"/>
   </g>
   <g id="matplotlib.axis_1">
    <g id="xtick_1">
     <g id="line2d_1">
      <path clip-path="url(#pd72a43bdeb)" d="M 70.519926 307.584 
L 70.519926 41.472 
" style="fill:none;stroke:#b0b0b0;stroke-linecap:square;stroke-width:0.8;"/>
     </g>
     <g id="line2d_2">
      <defs>
       <path d="M 0 0 
L 0 3.5 
" id="m74ae71e846" style="stroke:#000000;stroke-width:0.8;"/>
      </defs>
      <g>
       <use style="stroke:#000000;stroke-width:0.8;" x="70.519926" xlink:href="#m74ae71e846" y="307.584"/>
      </g>
     </g>
     <g id="text_1">
      <!-- 0.0 -->
      <defs>
       <path d="M 31.78125 66.40625 
Q 24.171875 66.40625 20.328125 58.90625 
Q 16.5 51.421875 16.5 36.375 
Q 16.5 21.390625 20.328125 13.890625 
Q 24.171875 6.390625 31.78125 6.390625 
Q 39.453125 6.390625 43.28125 13.890625 
Q 47.125 21.390625 47.125 36.375 
Q 47.125 51.421875 43.28125 58.90625 
Q 39.453125 66.40625 31.78125 66.40625 
z
M 31.78125 74.21875 
Q 44.046875 74.21875 50.515625 64.515625 
Q 56.984375 54.828125 56.984375 36.375 
Q 56.984375 17.96875 50.515625 8.265625 
Q 44.046875 -1.421875 31.78125 -1.421875 
Q 19.53125 -1.421875 13.0625 8.265625 
Q 6.59375 17.96875 6.59375 36.375 
Q 6.59375 54.828125 13.0625 64.515625 
Q 19.53125 74.21875 31.78125 74.21875 
z
" id="DejaVuSans-48"/>
       <path d="M 10.6875 12.40625 
L 21 12.40625 
L 21 0 
L 10.6875 0 
z
" id="DejaVuSans-46"/>
      </defs>
      <g transform="translate(62.568363 322.182437)scale(0.1 -0.1)">
       <use xlink:href="#DejaVuSans-48"/>
       <use x="63.623047" xlink:href="#DejaVuSans-46"/>
       <use x="95.410156" xlink:href="#DejaVuSans-48"/>
      </g>
     </g>
    </g>
    <g id="xtick_2">
     <g id="line2d_3">
      <path clip-path="url(#pd72a43bdeb)" d="M 136.775955 307.584 
L 136.775955 41.472 
" style="fill:none;stroke:#b0b0b0;stroke-linecap:square;stroke-width:0.8;"/>
     </g>
     <g id="line2d_4">
      <g>
       <use style="stroke:#000000;stroke-width:0.8;" x="136.775955" xlink:href="#m74ae71e846" y="307.584"/>
      </g>
     </g>
     <g id="text_2">
      <!-- 0.2 -->
      <defs>
       <path d="M 19.1875 8.296875 
L 53.609375 8.296875 
L 53.609375 0 
L 7.328125 0 
L 7.328125 8.296875 
Q 12.9375 14.109375 22.625 23.890625 
Q 32.328125 33.6875 34.8125 36.53125 
Q 39.546875 41.84375 41.421875 45.53125 
Q 43.3125 49.21875 43.3125 52.78125 
Q 43.3125 58.59375 39.234375 62.25 
Q 35.15625 65.921875 28.609375 65.921875 
Q 23.96875 65.921875 18.8125 64.3125 
Q 13.671875 62.703125 7.8125 59.421875 
L 7.8125 69.390625 
Q 13.765625 71.78125 18.9375 73 
Q 24.125 74.21875 28.421875 74.21875 
Q 39.75 74.21875 46.484375 68.546875 
Q 53.21875 62.890625 53.21875 53.421875 
Q 53.21875 48.921875 51.53125 44.890625 
Q 49.859375 40.875 45.40625 35.40625 
Q 44.1875 33.984375 37.640625 27.21875 
Q 31.109375 20.453125 19.1875 8.296875 
z
" id="DejaVuSans-50"/>
      </defs>
      <g transform="translate(128.824393 322.182437)scale(0.1 -0.1)">
       <use xlink:href="#DejaVuSans-48"/>
       <use x="63.623047" xlink:href="#DejaVuSans-46"/>
       <use x="95.410156" xlink:href="#DejaVuSans-50"/>
      </g>
     </g>
    </g>
    <g id="xtick_3">
     <g id="line2d_5">
      <path clip-path="url(#pd72a43bdeb)" d="M 203.031985 307.584 
L 203.031985 41.472 
" style="fill:none;stroke:#b0b0b0;stroke-linecap:square;stroke-width:0.8;"/>
     </g>
     <g id="line2d_6">
      <g>
       <use style="stroke:#000000;stroke-width:0.8;" x="203.031985" xlink:href="#m74ae71e846" y="307.584"/>
      </g>
     </g>
     <g id="text_3">
      <!-- 0.4 -->
      <defs>
       <path d="M 37.796875 64.3125 
L 12.890625 25.390625 
L 37.796875 25.390625 
z
M 35.203125 72.90625 
L 47.609375 72.90625 
L 47.609375 25.390625 
L 58.015625 25.390625 
L 58.015625 17.1875 
L 47.609375 17.1875 
L 47.609375 0 
L 37.796875 0 
L 37.796875 17.1875 
L 4.890625 17.1875 
L 4.890625 26.703125 
z
" id="DejaVuSans-52"/>
      </defs>
      <g transform="translate(195.080423 322.182437)scale(0.1 -0.1)">
       <use xlink:href="#DejaVuSans-48"/>
       <use x="63.623047" xlink:href="#DejaVuSans-46"/>
       <use x="95.410156" xlink:href="#DejaVuSans-52"/>
      </g>
     </g>
    </g>
    <g id="xtick_4">
     <g id="line2d_7">
      <path clip-path="url(#pd72a43bdeb)" d="M 269.288015 307.584 
L 269.288015 41.472 
" style="fill:none;stroke:#b0b0b0;stroke-linecap:square;stroke-width:0.8;"/>
     </g>
     <g id="line2d_8">
      <g>
       <use style="stroke:#000000;stroke-width:0.8;" x="269.288015" xlink:href="#m74ae71e846" y="307.584"/>
      </g>
     </g>
     <g id="text_4">
      <!-- 0.6 -->
      <defs>
       <path d="M 33.015625 40.375 
Q 26.375 40.375 22.484375 35.828125 
Q 18.609375 31.296875 18.609375 23.390625 
Q 18.609375 15.53125 22.484375 10.953125 
Q 26.375 6.390625 33.015625 6.390625 
Q 39.65625 6.390625 43.53125 10.953125 
Q 47.40625 15.53125 47.40625 23.390625 
Q 47.40625 31.296875 43.53125 35.828125 
Q 39.65625 40.375 33.015625 40.375 
z
M 52.59375 71.296875 
L 52.59375 62.3125 
Q 48.875 64.0625 45.09375 64.984375 
Q 41.3125 65.921875 37.59375 65.921875 
Q 27.828125 65.921875 22.671875 59.328125 
Q 17.53125 52.734375 16.796875 39.40625 
Q 19.671875 43.65625 24.015625 45.921875 
Q 28.375 48.1875 33.59375 48.1875 
Q 44.578125 48.1875 50.953125 41.515625 
Q 57.328125 34.859375 57.328125 23.390625 
Q 57.328125 12.15625 50.6875 5.359375 
Q 44.046875 -1.421875 33.015625 -1.421875 
Q 20.359375 -1.421875 13.671875 8.265625 
Q 6.984375 17.96875 6.984375 36.375 
Q 6.984375 53.65625 15.1875 63.9375 
Q 23.390625 74.21875 37.203125 74.21875 
Q 40.921875 74.21875 44.703125 73.484375 
Q 48.484375 72.75 52.59375 71.296875 
z
" id="DejaVuSans-54"/>
      </defs>
      <g transform="translate(261.336452 322.182437)scale(0.1 -0.1)">
       <use xlink:href="#DejaVuSans-48"/>
       <use x="63.623047" xlink:href="#DejaVuSans-46"/>
       <use x="95.410156" xlink:href="#DejaVuSans-54"/>
      </g>
     </g>
    </g>
    <g id="xtick_5">
     <g id="line2d_9">
      <path clip-path="url(#pd72a43bdeb)" d="M 335.544045 307.584 
L 335.544045 41.472 
" style="fill:none;stroke:#b0b0b0;stroke-linecap:square;stroke-width:0.8;"/>
     </g>
     <g id="line2d_10">
      <g>
       <use style="stroke:#000000;stroke-width:0.8;" x="335.544045" xlink:href="#m74ae71e846" y="307.584"/>
      </g>
     </g>
     <g id="text_5">
      <!-- 0.8 -->
      <defs>
       <path d="M 31.78125 34.625 
Q 24.75 34.625 20.71875 30.859375 
Q 16.703125 27.09375 16.703125 20.515625 
Q 16.703125 13.921875 20.71875 10.15625 
Q 24.75 6.390625 31.78125 6.390625 
Q 38.8125 6.390625 42.859375 10.171875 
Q 46.921875 13.96875 46.921875 20.515625 
Q 46.921875 27.09375 42.890625 30.859375 
Q 38.875 34.625 31.78125 34.625 
z
M 21.921875 38.8125 
Q 15.578125 40.375 12.03125 44.71875 
Q 8.5 49.078125 8.5 55.328125 
Q 8.5 64.0625 14.71875 69.140625 
Q 20.953125 74.21875 31.78125 74.21875 
Q 42.671875 74.21875 48.875 69.140625 
Q 55.078125 64.0625 55.078125 55.328125 
Q 55.078125 49.078125 51.53125 44.71875 
Q 48 40.375 41.703125 38.8125 
Q 48.828125 37.15625 52.796875 32.3125 
Q 56.78125 27.484375 56.78125 20.515625 
Q 56.78125 9.90625 50.3125 4.234375 
Q 43.84375 -1.421875 31.78125 -1.421875 
Q 19.734375 -1.421875 13.25 4.234375 
Q 6.78125 9.90625 6.78125 20.515625 
Q 6.78125 27.484375 10.78125 32.3125 
Q 14.796875 37.15625 21.921875 38.8125 
z
M 18.3125 54.390625 
Q 18.3125 48.734375 21.84375 45.5625 
Q 25.390625 42.390625 31.78125 42.390625 
Q 38.140625 42.390625 41.71875 45.5625 
Q 45.3125 48.734375 45.3125 54.390625 
Q 45.3125 60.0625 41.71875 63.234375 
Q 38.140625 66.40625 31.78125 66.40625 
Q 25.390625 66.40625 21.84375 63.234375 
Q 18.3125 60.0625 18.3125 54.390625 
z
" id="DejaVuSans-56"/>
      </defs>
      <g transform="translate(327.592482 322.182437)scale(0.1 -0.1)">
       <use xlink:href="#DejaVuSans-48"/>
       <use x="63.623047" xlink:href="#DejaVuSans-46"/>
       <use x="95.410156" xlink:href="#DejaVuSans-56"/>
      </g>
     </g>
    </g>
    <g id="xtick_6">
     <g id="line2d_11">
      <path clip-path="url(#pd72a43bdeb)" d="M 401.800074 307.584 
L 401.800074 41.472 
" style="fill:none;stroke:#b0b0b0;stroke-linecap:square;stroke-width:0.8;"/>
     </g>
     <g id="line2d_12">
      <g>
       <use style="stroke:#000000;stroke-width:0.8;" x="401.800074" xlink:href="#m74ae71e846" y="307.584"/>
      </g>
     </g>
     <g id="text_6">
      <!-- 1.0 -->
      <defs>
       <path d="M 12.40625 8.296875 
L 28.515625 8.296875 
L 28.515625 63.921875 
L 10.984375 60.40625 
L 10.984375 69.390625 
L 28.421875 72.90625 
L 38.28125 72.90625 
L 38.28125 8.296875 
L 54.390625 8.296875 
L 54.390625 0 
L 12.40625 0 
z
" id="DejaVuSans-49"/>
      </defs>
      <g transform="translate(393.848512 322.182437)scale(0.1 -0.1)">
       <use xlink:href="#DejaVuSans-49"/>
       <use x="63.623047" xlink:href="#DejaVuSans-46"/>
       <use x="95.410156" xlink:href="#DejaVuSans-48"/>
      </g>
     </g>
    </g>
    <g id="text_7">
     <!-- $\mathrm{Time \ (seconds)}$ -->
     <defs>
      <path d="M -0.296875 72.90625 
L 61.375 72.90625 
L 61.375 64.59375 
L 35.5 64.59375 
L 35.5 0 
L 25.59375 0 
L 25.59375 64.59375 
L -0.296875 64.59375 
z
" id="DejaVuSans-84"/>
      <path d="M 9.421875 54.6875 
L 18.40625 54.6875 
L 18.40625 0 
L 9.421875 0 
z
M 9.421875 75.984375 
L 18.40625 75.984375 
L 18.40625 64.59375 
L 9.421875 64.59375 
z
" id="DejaVuSans-105"/>
      <path d="M 52 44.1875 
Q 55.375 50.25 60.0625 53.125 
Q 64.75 56 71.09375 56 
Q 79.640625 56 84.28125 50.015625 
Q 88.921875 44.046875 88.921875 33.015625 
L 88.921875 0 
L 79.890625 0 
L 79.890625 32.71875 
Q 79.890625 40.578125 77.09375 44.375 
Q 74.3125 48.1875 68.609375 48.1875 
Q 61.625 48.1875 57.5625 43.546875 
Q 53.515625 38.921875 53.515625 30.90625 
L 53.515625 0 
L 44.484375 0 
L 44.484375 32.71875 
Q 44.484375 40.625 41.703125 44.40625 
Q 38.921875 48.1875 33.109375 48.1875 
Q 26.21875 48.1875 22.15625 43.53125 
Q 18.109375 38.875 18.109375 30.90625 
L 18.109375 0 
L 9.078125 0 
L 9.078125 54.6875 
L 18.109375 54.6875 
L 18.109375 46.1875 
Q 21.1875 51.21875 25.484375 53.609375 
Q 29.78125 56 35.6875 56 
Q 41.65625 56 45.828125 52.96875 
Q 50 49.953125 52 44.1875 
z
" id="DejaVuSans-109"/>
      <path d="M 56.203125 29.59375 
L 56.203125 25.203125 
L 14.890625 25.203125 
Q 15.484375 15.921875 20.484375 11.0625 
Q 25.484375 6.203125 34.421875 6.203125 
Q 39.59375 6.203125 44.453125 7.46875 
Q 49.3125 8.734375 54.109375 11.28125 
L 54.109375 2.78125 
Q 49.265625 0.734375 44.1875 -0.34375 
Q 39.109375 -1.421875 33.890625 -1.421875 
Q 20.796875 -1.421875 13.15625 6.1875 
Q 5.515625 13.8125 5.515625 26.8125 
Q 5.515625 40.234375 12.765625 48.109375 
Q 20.015625 56 32.328125 56 
Q 43.359375 56 49.78125 48.890625 
Q 56.203125 41.796875 56.203125 29.59375 
z
M 47.21875 32.234375 
Q 47.125 39.59375 43.09375 43.984375 
Q 39.0625 48.390625 32.421875 48.390625 
Q 24.90625 48.390625 20.390625 44.140625 
Q 15.875 39.890625 15.1875 32.171875 
z
" id="DejaVuSans-101"/>
      <path d="M 31 75.875 
Q 24.46875 64.65625 21.28125 53.65625 
Q 18.109375 42.671875 18.109375 31.390625 
Q 18.109375 20.125 21.3125 9.0625 
Q 24.515625 -2 31 -13.1875 
L 23.1875 -13.1875 
Q 15.875 -1.703125 12.234375 9.375 
Q 8.59375 20.453125 8.59375 31.390625 
Q 8.59375 42.28125 12.203125 53.3125 
Q 15.828125 64.359375 23.1875 75.875 
z
" id="DejaVuSans-40"/>
      <path d="M 44.28125 53.078125 
L 44.28125 44.578125 
Q 40.484375 46.53125 36.375 47.5 
Q 32.28125 48.484375 27.875 48.484375 
Q 21.1875 48.484375 17.84375 46.4375 
Q 14.5 44.390625 14.5 40.28125 
Q 14.5 37.15625 16.890625 35.375 
Q 19.28125 33.59375 26.515625 31.984375 
L 29.59375 31.296875 
Q 39.15625 29.25 43.1875 25.515625 
Q 47.21875 21.78125 47.21875 15.09375 
Q 47.21875 7.46875 41.1875 3.015625 
Q 35.15625 -1.421875 24.609375 -1.421875 
Q 20.21875 -1.421875 15.453125 -0.5625 
Q 10.6875 0.296875 5.421875 2 
L 5.421875 11.28125 
Q 10.40625 8.6875 15.234375 7.390625 
Q 20.0625 6.109375 24.8125 6.109375 
Q 31.15625 6.109375 34.5625 8.28125 
Q 37.984375 10.453125 37.984375 14.40625 
Q 37.984375 18.0625 35.515625 20.015625 
Q 33.0625 21.96875 24.703125 23.78125 
L 21.578125 24.515625 
Q 13.234375 26.265625 9.515625 29.90625 
Q 5.8125 33.546875 5.8125 39.890625 
Q 5.8125 47.609375 11.28125 51.796875 
Q 16.75 56 26.8125 56 
Q 31.78125 56 36.171875 55.265625 
Q 40.578125 54.546875 44.28125 53.078125 
z
" id="DejaVuSans-115"/>
      <path d="M 48.78125 52.59375 
L 48.78125 44.1875 
Q 44.96875 46.296875 41.140625 47.34375 
Q 37.3125 48.390625 33.40625 48.390625 
Q 24.65625 48.390625 19.8125 42.84375 
Q 14.984375 37.3125 14.984375 27.296875 
Q 14.984375 17.28125 19.8125 11.734375 
Q 24.65625 6.203125 33.40625 6.203125 
Q 37.3125 6.203125 41.140625 7.25 
Q 44.96875 8.296875 48.78125 10.40625 
L 48.78125 2.09375 
Q 45.015625 0.34375 40.984375 -0.53125 
Q 36.96875 -1.421875 32.421875 -1.421875 
Q 20.0625 -1.421875 12.78125 6.34375 
Q 5.515625 14.109375 5.515625 27.296875 
Q 5.515625 40.671875 12.859375 48.328125 
Q 20.21875 56 33.015625 56 
Q 37.15625 56 41.109375 55.140625 
Q 45.0625 54.296875 48.78125 52.59375 
z
" id="DejaVuSans-99"/>
      <path d="M 30.609375 48.390625 
Q 23.390625 48.390625 19.1875 42.75 
Q 14.984375 37.109375 14.984375 27.296875 
Q 14.984375 17.484375 19.15625 11.84375 
Q 23.34375 6.203125 30.609375 6.203125 
Q 37.796875 6.203125 41.984375 11.859375 
Q 46.1875 17.53125 46.1875 27.296875 
Q 46.1875 37.015625 41.984375 42.703125 
Q 37.796875 48.390625 30.609375 48.390625 
z
M 30.609375 56 
Q 42.328125 56 49.015625 48.375 
Q 55.71875 40.765625 55.71875 27.296875 
Q 55.71875 13.875 49.015625 6.21875 
Q 42.328125 -1.421875 30.609375 -1.421875 
Q 18.84375 -1.421875 12.171875 6.21875 
Q 5.515625 13.875 5.515625 27.296875 
Q 5.515625 40.765625 12.171875 48.375 
Q 18.84375 56 30.609375 56 
z
" id="DejaVuSans-111"/>
      <path d="M 54.890625 33.015625 
L 54.890625 0 
L 45.90625 0 
L 45.90625 32.71875 
Q 45.90625 40.484375 42.875 44.328125 
Q 39.84375 48.1875 33.796875 48.1875 
Q 26.515625 48.1875 22.3125 43.546875 
Q 18.109375 38.921875 18.109375 30.90625 
L 18.109375 0 
L 9.078125 0 
L 9.078125 54.6875 
L 18.109375 54.6875 
L 18.109375 46.1875 
Q 21.34375 51.125 25.703125 53.5625 
Q 30.078125 56 35.796875 56 
Q 45.21875 56 50.046875 50.171875 
Q 54.890625 44.34375 54.890625 33.015625 
z
" id="DejaVuSans-110"/>
      <path d="M 45.40625 46.390625 
L 45.40625 75.984375 
L 54.390625 75.984375 
L 54.390625 0 
L 45.40625 0 
L 45.40625 8.203125 
Q 42.578125 3.328125 38.25 0.953125 
Q 33.9375 -1.421875 27.875 -1.421875 
Q 17.96875 -1.421875 11.734375 6.484375 
Q 5.515625 14.40625 5.515625 27.296875 
Q 5.515625 40.1875 11.734375 48.09375 
Q 17.96875 56 27.875 56 
Q 33.9375 56 38.25 53.625 
Q 42.578125 51.265625 45.40625 46.390625 
z
M 14.796875 27.296875 
Q 14.796875 17.390625 18.875 11.75 
Q 22.953125 6.109375 30.078125 6.109375 
Q 37.203125 6.109375 41.296875 11.75 
Q 45.40625 17.390625 45.40625 27.296875 
Q 45.40625 37.203125 41.296875 42.84375 
Q 37.203125 48.484375 30.078125 48.484375 
Q 22.953125 48.484375 18.875 42.84375 
Q 14.796875 37.203125 14.796875 27.296875 
z
" id="DejaVuSans-100"/>
      <path d="M 8.015625 75.875 
L 15.828125 75.875 
Q 23.140625 64.359375 26.78125 53.3125 
Q 30.421875 42.28125 30.421875 31.390625 
Q 30.421875 20.453125 26.78125 9.375 
Q 23.140625 -1.703125 15.828125 -13.1875 
L 8.015625 -13.1875 
Q 14.5 -2 17.703125 9.0625 
Q 20.90625 20.125 20.90625 31.390625 
Q 20.90625 42.671875 17.703125 53.65625 
Q 14.5 64.65625 8.015625 75.875 
z
" id="DejaVuSans-41"/>
     </defs>
     <g transform="translate(197.76 335.860562)scale(0.1 -0.1)">
      <use transform="translate(0 0.015625)" xlink:href="#DejaVuSans-84"/>
      <use transform="translate(61.083984 0.015625)" xlink:href="#DejaVuSans-105"/>
      <use transform="translate(88.867188 0.015625)" xlink:href="#DejaVuSans-109"/>
      <use transform="translate(186.279297 0.015625)" xlink:href="#DejaVuSans-101"/>
      <use transform="translate(280.273113 0.015625)" xlink:href="#DejaVuSans-40"/>
      <use transform="translate(319.286785 0.015625)" xlink:href="#DejaVuSans-115"/>
      <use transform="translate(371.386394 0.015625)" xlink:href="#DejaVuSans-101"/>
      <use transform="translate(432.909832 0.015625)" xlink:href="#DejaVuSans-99"/>
      <use transform="translate(487.8903 0.015625)" xlink:href="#DejaVuSans-111"/>
      <use transform="translate(549.071941 0.015625)" xlink:href="#DejaVuSans-110"/>
      <use transform="translate(612.450847 0.015625)" xlink:href="#DejaVuSans-100"/>
      <use transform="translate(675.92741 0.015625)" xlink:href="#DejaVuSans-115"/>
      <use transform="translate(728.027019 0.015625)" xlink:href="#DejaVuSans-41"/>
     </g>
    </g>
   </g>
   <g id="matplotlib.axis_2">
    <g id="ytick_1">
     <g id="line2d_13">
      <path clip-path="url(#pd72a43bdeb)" d="M 57.6 211.725605 
L 414.72 211.725605 
" style="fill:none;stroke:#b0b0b0;stroke-linecap:square;stroke-width:0.8;"/>
     </g>
     <g id="line2d_14">
      <defs>
       <path d="M 0 0 
L -3.5 0 
" id="mbbd816de11" style="stroke:#000000;stroke-width:0.8;"/>
      </defs>
      <g>
       <use style="stroke:#000000;stroke-width:0.8;" x="57.6" xlink:href="#mbbd816de11" y="211.725605"/>
      </g>
     </g>
     <g id="text_8">
      <!-- $\mathdefault{10^{-1}}$ -->
      <defs>
       <path d="M 10.59375 35.5 
L 73.1875 35.5 
L 73.1875 27.203125 
L 10.59375 27.203125 
z
" id="DejaVuSans-8722"/>
      </defs>
      <g transform="translate(27.1 215.524824)scale(0.1 -0.1)">
       <use transform="translate(0 0.684375)" xlink:href="#DejaVuSans-49"/>
       <use transform="translate(63.623047 0.684375)" xlink:href="#DejaVuSans-48"/>
       <use transform="translate(128.203125 38.965625)scale(0.7)" xlink:href="#DejaVuSans-8722"/>
       <use transform="translate(186.855469 38.965625)scale(0.7)" xlink:href="#DejaVuSans-49"/>
      </g>
     </g>
    </g>
    <g id="ytick_2">
     <g id="line2d_15">
      <defs>
       <path d="M 0 0 
L -2 0 
" id="m35e0286fd0" style="stroke:#000000;stroke-width:0.6;"/>
      </defs>
      <g>
       <use style="stroke:#000000;stroke-width:0.6;" x="57.6" xlink:href="#m35e0286fd0" y="294.969429"/>
      </g>
     </g>
    </g>
    <g id="ytick_3">
     <g id="line2d_16">
      <g>
       <use style="stroke:#000000;stroke-width:0.6;" x="57.6" xlink:href="#m35e0286fd0" y="274.697127"/>
      </g>
     </g>
    </g>
    <g id="ytick_4">
     <g id="line2d_17">
      <g>
       <use style="stroke:#000000;stroke-width:0.6;" x="57.6" xlink:href="#m35e0286fd0" y="258.13345"/>
      </g>
     </g>
    </g>
    <g id="ytick_5">
     <g id="line2d_18">
      <g>
       <use style="stroke:#000000;stroke-width:0.6;" x="57.6" xlink:href="#m35e0286fd0" y="244.129061"/>
      </g>
     </g>
    </g>
    <g id="ytick_6">
     <g id="line2d_19">
      <g>
       <use style="stroke:#000000;stroke-width:0.6;" x="57.6" xlink:href="#m35e0286fd0" y="231.997907"/>
      </g>
     </g>
    </g>
    <g id="ytick_7">
     <g id="line2d_20">
      <g>
       <use style="stroke:#000000;stroke-width:0.6;" x="57.6" xlink:href="#m35e0286fd0" y="221.297471"/>
      </g>
     </g>
    </g>
    <g id="ytick_8">
     <g id="line2d_21">
      <g>
       <use style="stroke:#000000;stroke-width:0.6;" x="57.6" xlink:href="#m35e0286fd0" y="148.754084"/>
      </g>
     </g>
    </g>
    <g id="ytick_9">
     <g id="line2d_22">
      <g>
       <use style="stroke:#000000;stroke-width:0.6;" x="57.6" xlink:href="#m35e0286fd0" y="111.918105"/>
      </g>
     </g>
    </g>
    <g id="ytick_10">
     <g id="line2d_23">
      <g>
       <use style="stroke:#000000;stroke-width:0.6;" x="57.6" xlink:href="#m35e0286fd0" y="85.782563"/>
      </g>
     </g>
    </g>
    <g id="ytick_11">
     <g id="line2d_24">
      <g>
       <use style="stroke:#000000;stroke-width:0.6;" x="57.6" xlink:href="#m35e0286fd0" y="65.510261"/>
      </g>
     </g>
    </g>
    <g id="ytick_12">
     <g id="line2d_25">
      <g>
       <use style="stroke:#000000;stroke-width:0.6;" x="57.6" xlink:href="#m35e0286fd0" y="48.946584"/>
      </g>
     </g>
    </g>
    <g id="text_9">
     <!-- $\mathrm{Relative \ error}$ ($N_{\mathrm{train}}=1$) -->
     <defs>
      <path d="M 44.390625 34.1875 
Q 47.5625 33.109375 50.5625 29.59375 
Q 53.5625 26.078125 56.59375 19.921875 
L 66.609375 0 
L 56 0 
L 46.6875 18.703125 
Q 43.0625 26.03125 39.671875 28.421875 
Q 36.28125 30.8125 30.421875 30.8125 
L 19.671875 30.8125 
L 19.671875 0 
L 9.8125 0 
L 9.8125 72.90625 
L 32.078125 72.90625 
Q 44.578125 72.90625 50.734375 67.671875 
Q 56.890625 62.453125 56.890625 51.90625 
Q 56.890625 45.015625 53.6875 40.46875 
Q 50.484375 35.9375 44.390625 34.1875 
z
M 19.671875 64.796875 
L 19.671875 38.921875 
L 32.078125 38.921875 
Q 39.203125 38.921875 42.84375 42.21875 
Q 46.484375 45.515625 46.484375 51.90625 
Q 46.484375 58.296875 42.84375 61.546875 
Q 39.203125 64.796875 32.078125 64.796875 
z
" id="DejaVuSans-82"/>
      <path d="M 9.421875 75.984375 
L 18.40625 75.984375 
L 18.40625 0 
L 9.421875 0 
z
" id="DejaVuSans-108"/>
      <path d="M 34.28125 27.484375 
Q 23.390625 27.484375 19.1875 25 
Q 14.984375 22.515625 14.984375 16.5 
Q 14.984375 11.71875 18.140625 8.90625 
Q 21.296875 6.109375 26.703125 6.109375 
Q 34.1875 6.109375 38.703125 11.40625 
Q 43.21875 16.703125 43.21875 25.484375 
L 43.21875 27.484375 
z
M 52.203125 31.203125 
L 52.203125 0 
L 43.21875 0 
L 43.21875 8.296875 
Q 40.140625 3.328125 35.546875 0.953125 
Q 30.953125 -1.421875 24.3125 -1.421875 
Q 15.921875 -1.421875 10.953125 3.296875 
Q 6 8.015625 6 15.921875 
Q 6 25.140625 12.171875 29.828125 
Q 18.359375 34.515625 30.609375 34.515625 
L 43.21875 34.515625 
L 43.21875 35.40625 
Q 43.21875 41.609375 39.140625 45 
Q 35.0625 48.390625 27.6875 48.390625 
Q 23 48.390625 18.546875 47.265625 
Q 14.109375 46.140625 10.015625 43.890625 
L 10.015625 52.203125 
Q 14.9375 54.109375 19.578125 55.046875 
Q 24.21875 56 28.609375 56 
Q 40.484375 56 46.34375 49.84375 
Q 52.203125 43.703125 52.203125 31.203125 
z
" id="DejaVuSans-97"/>
      <path d="M 18.3125 70.21875 
L 18.3125 54.6875 
L 36.8125 54.6875 
L 36.8125 47.703125 
L 18.3125 47.703125 
L 18.3125 18.015625 
Q 18.3125 11.328125 20.140625 9.421875 
Q 21.96875 7.515625 27.59375 7.515625 
L 36.8125 7.515625 
L 36.8125 0 
L 27.59375 0 
Q 17.1875 0 13.234375 3.875 
Q 9.28125 7.765625 9.28125 18.015625 
L 9.28125 47.703125 
L 2.6875 47.703125 
L 2.6875 54.6875 
L 9.28125 54.6875 
L 9.28125 70.21875 
z
" id="DejaVuSans-116"/>
      <path d="M 2.984375 54.6875 
L 12.5 54.6875 
L 29.59375 8.796875 
L 46.6875 54.6875 
L 56.203125 54.6875 
L 35.6875 0 
L 23.484375 0 
z
" id="DejaVuSans-118"/>
      <path d="M 41.109375 46.296875 
Q 39.59375 47.171875 37.8125 47.578125 
Q 36.03125 48 33.890625 48 
Q 26.265625 48 22.1875 43.046875 
Q 18.109375 38.09375 18.109375 28.8125 
L 18.109375 0 
L 9.078125 0 
L 9.078125 54.6875 
L 18.109375 54.6875 
L 18.109375 46.1875 
Q 20.953125 51.171875 25.484375 53.578125 
Q 30.03125 56 36.53125 56 
Q 37.453125 56 38.578125 55.875 
Q 39.703125 55.765625 41.0625 55.515625 
z
" id="DejaVuSans-114"/>
      <path id="DejaVuSans-32"/>
      <path d="M 16.890625 72.90625 
L 30.171875 72.90625 
L 50.296875 10.40625 
L 62.5 72.90625 
L 72.125 72.90625 
L 57.90625 0 
L 44.578125 0 
L 24.515625 62.890625 
L 12.3125 0 
L 2.6875 0 
z
" id="DejaVuSans-Oblique-78"/>
      <path d="M 10.59375 45.40625 
L 73.1875 45.40625 
L 73.1875 37.203125 
L 10.59375 37.203125 
z
M 10.59375 25.484375 
L 73.1875 25.484375 
L 73.1875 17.1875 
L 10.59375 17.1875 
z
" id="DejaVuSans-61"/>
     </defs>
     <g transform="translate(21.020312 235.678)rotate(-90)scale(0.1 -0.1)">
      <use transform="translate(0 0.015625)" xlink:href="#DejaVuSans-82"/>
      <use transform="translate(69.482422 0.015625)" xlink:href="#DejaVuSans-101"/>
      <use transform="translate(131.005859 0.015625)" xlink:href="#DejaVuSans-108"/>
      <use transform="translate(158.789062 0.015625)" xlink:href="#DejaVuSans-97"/>
      <use transform="translate(220.068359 0.015625)" xlink:href="#DejaVuSans-116"/>
      <use transform="translate(259.277344 0.015625)" xlink:href="#DejaVuSans-105"/>
      <use transform="translate(287.060547 0.015625)" xlink:href="#DejaVuSans-118"/>
      <use transform="translate(346.240234 0.015625)" xlink:href="#DejaVuSans-101"/>
      <use transform="translate(440.23405 0.015625)" xlink:href="#DejaVuSans-101"/>
      <use transform="translate(501.757488 0.015625)" xlink:href="#DejaVuSans-114"/>
      <use transform="translate(542.870769 0.015625)" xlink:href="#DejaVuSans-114"/>
      <use transform="translate(583.98405 0.015625)" xlink:href="#DejaVuSans-111"/>
      <use transform="translate(645.165691 0.015625)" xlink:href="#DejaVuSans-114"/>
      <use transform="translate(686.278972 0.015625)" xlink:href="#DejaVuSans-32"/>
      <use transform="translate(718.066082 0.015625)" xlink:href="#DejaVuSans-40"/>
      <use transform="translate(757.079753 0.015625)" xlink:href="#DejaVuSans-Oblique-78"/>
      <use transform="translate(831.884441 -16.390625)scale(0.7)" xlink:href="#DejaVuSans-116"/>
      <use transform="translate(859.33073 -16.390625)scale(0.7)" xlink:href="#DejaVuSans-114"/>
      <use transform="translate(888.110027 -16.390625)scale(0.7)" xlink:href="#DejaVuSans-97"/>
      <use transform="translate(931.005535 -16.390625)scale(0.7)" xlink:href="#DejaVuSans-105"/>
      <use transform="translate(950.453777 -16.390625)scale(0.7)" xlink:href="#DejaVuSans-110"/>
      <use transform="translate(1017.035808 0.015625)" xlink:href="#DejaVuSans-61"/>
      <use transform="translate(1120.307292 0.015625)" xlink:href="#DejaVuSans-49"/>
      <use transform="translate(1183.930339 0.015625)" xlink:href="#DejaVuSans-41"/>
     </g>
    </g>
   </g>
   <g id="line2d_26">
    <path clip-path="url(#pd72a43bdeb)" d="M 73.832724 287.216041 
L 77.145522 253.024127 
L 80.458321 227.896141 
L 83.771119 208.056024 
L 87.083917 191.825317 
L 90.396716 178.289505 
L 93.709554 166.868046 
L 97.022352 157.148773 
L 100.33515 148.818585 
L 103.647949 141.631891 
L 106.960747 135.393147 
L 110.273545 129.94538 
L 113.586344 125.162032 
L 116.899142 120.940546 
L 120.21194 117.197577 
L 123.524738 113.864921 
L 126.837537 110.886538 
L 130.150375 108.216212 
L 133.463173 105.815576 
L 136.775971 103.652833 
L 140.08877 101.701539 
L 143.401568 99.939637 
L 146.714366 98.348631 
L 150.027165 96.913133 
L 153.339963 95.620345 
L 156.652761 94.459706 
L 159.96556 93.422596 
L 163.278358 92.502046 
L 166.591156 91.692666 
L 169.903955 90.990488 
L 173.216753 90.392874 
L 176.529551 89.89835 
L 179.842389 89.506637 
L 183.155187 89.21859 
L 186.467986 89.03603 
L 189.780784 88.961717 
L 193.093582 88.999269 
L 196.406381 89.153132 
L 199.719179 89.428288 
L 203.031977 89.829875 
L 206.344776 90.36265 
L 209.657574 91.029591 
L 212.970412 91.829869 
L 216.28321 92.755781 
L 219.596008 93.788672 
L 232.847202 98.158861 
L 236.16 99.038965 
L 239.472798 99.740393 
L 242.785597 100.244571 
L 246.098395 100.551193 
L 249.411193 100.672384 
L 252.723992 100.626703 
L 256.03679 100.434935 
L 259.349588 100.117838 
L 262.662387 99.694879 
L 265.975185 99.183622 
L 272.600821 97.956398 
L 279.226418 96.537085 
L 289.164852 94.203329 
L 322.292835 86.155825 
L 332.23123 83.894463 
L 342.169625 81.753821 
L 352.10806 79.749008 
L 362.046455 77.89377 
L 371.984889 76.203885 
L 378.610486 75.179128 
L 385.236083 74.245381 
L 391.861679 73.413611 
L 398.487276 72.698516 
" style="fill:none;stroke:#ffa500;stroke-linecap:square;stroke-width:1.5;"/>
   </g>
   <g id="line2d_27">
    <path clip-path="url(#pd72a43bdeb)" d="M 73.832724 277.306916 
L 77.145522 242.661949 
L 80.458321 217.06422 
L 83.771119 196.739705 
L 87.083917 180.013752 
L 90.396716 165.977052 
L 93.709554 154.053714 
L 97.022352 143.835272 
L 100.33515 135.011657 
L 103.647949 127.34001 
L 106.960747 120.627215 
L 110.273545 114.718336 
L 113.586344 109.488226 
L 116.899142 104.835271 
L 120.21194 100.676531 
L 123.524738 96.943803 
L 126.837537 93.580875 
L 130.150375 90.541228 
L 133.463173 87.786037 
L 136.775971 85.282854 
L 140.08877 83.004309 
L 143.401568 80.927258 
L 146.714366 79.032195 
L 150.027165 77.302462 
L 153.339963 75.723921 
L 156.652761 74.284461 
L 159.96556 72.973772 
L 163.278358 71.783053 
L 166.591156 70.704849 
L 169.903955 69.732881 
L 173.216753 68.861907 
L 176.529551 68.087636 
L 179.842389 67.406654 
L 183.155187 66.816247 
L 186.467986 66.314412 
L 189.780784 65.899811 
L 193.093582 65.571688 
L 196.406381 65.329796 
L 199.719179 65.17434 
L 203.031977 65.105871 
L 206.344776 65.125269 
L 209.657574 65.233424 
L 212.970412 65.431117 
L 216.28321 65.718696 
L 219.596008 66.095418 
L 222.908807 66.558944 
L 226.221605 67.104366 
L 232.847202 68.400916 
L 246.098395 71.236881 
L 249.411193 71.831083 
L 252.723992 72.328897 
L 256.03679 72.717994 
L 259.349588 72.994567 
L 262.662387 73.161518 
L 265.975185 73.226204 
L 269.288023 73.198549 
L 272.600821 73.089325 
L 275.913619 72.909382 
L 282.539216 72.377399 
L 289.164852 71.673656 
L 295.790449 70.853701 
L 305.728844 69.49488 
L 342.169625 64.349079 
L 352.10806 63.087212 
L 362.046455 61.934306 
L 371.984889 60.910114 
L 381.923284 60.034471 
L 388.548881 59.543563 
L 395.174478 59.134996 
L 398.487276 58.963999 
" style="fill:none;stroke:#ff00ff;stroke-linecap:square;stroke-width:1.5;"/>
   </g>
   <g id="line2d_28">
    <path clip-path="url(#pd72a43bdeb)" d="M 73.832724 284.119485 
L 77.145522 249.173473 
L 80.458321 223.301543 
L 83.771119 202.730873 
L 87.083917 185.788168 
L 90.396716 171.565508 
L 93.709554 159.488136 
L 97.022352 149.147453 
L 100.33515 140.231771 
L 103.647949 132.495311 
L 106.960747 125.741126 
L 110.273545 119.810353 
L 113.586344 114.574305 
L 116.899142 109.928262 
L 120.21194 105.78667 
L 123.524738 102.079261 
L 126.837537 98.747896 
L 130.150375 95.744434 
L 133.463173 93.028544 
L 136.775971 90.566538 
L 140.08877 88.33016 
L 143.401568 86.295549 
L 146.714366 84.442479 
L 150.027165 82.753744 
L 153.339963 81.214807 
L 156.652761 79.813218 
L 159.96556 78.538538 
L 163.278358 77.38181 
L 166.591156 76.335403 
L 169.903955 75.392837 
L 173.216753 74.548516 
L 176.529551 73.797786 
L 179.842389 73.136509 
L 183.155187 72.561264 
L 186.467986 72.06928 
L 189.780784 71.65837 
L 193.093582 71.326855 
L 196.406381 71.073547 
L 199.719179 70.897686 
L 203.031977 70.798665 
L 206.344776 70.775968 
L 209.657574 70.828987 
L 212.970412 70.956641 
L 216.28321 71.157107 
L 219.596008 71.427327 
L 226.221605 72.154239 
L 232.847202 73.061371 
L 242.785597 74.454901 
L 246.098395 74.841006 
L 249.411193 75.155562 
L 252.723992 75.386402 
L 256.03679 75.527393 
L 259.349588 75.577869 
L 262.662387 75.541482 
L 265.975185 75.424732 
L 269.288023 75.235883 
L 275.913619 74.677292 
L 282.539216 73.934318 
L 289.164852 73.06586 
L 299.103247 71.626496 
L 328.918432 67.164091 
L 338.856827 65.795402 
L 348.795222 64.534066 
L 358.733656 63.399627 
L 368.672051 62.407585 
L 378.610486 61.569525 
L 388.548881 60.896175 
L 395.174478 60.544462 
L 398.487276 60.399106 
" style="fill:none;stroke:#ff0000;stroke-linecap:square;stroke-width:1.5;"/>
   </g>
   <g id="patch_3">
    <path d="M 57.6 307.584 
L 57.6 41.472 
" style="fill:none;stroke:#000000;stroke-linecap:square;stroke-linejoin:miter;stroke-width:0.8;"/>
   </g>
   <g id="patch_4">
    <path d="M 414.72 307.584 
L 414.72 41.472 
" style="fill:none;stroke:#000000;stroke-linecap:square;stroke-linejoin:miter;stroke-width:0.8;"/>
   </g>
   <g id="patch_5">
    <path d="M 57.6 307.584 
L 414.72 307.584 
" style="fill:none;stroke:#000000;stroke-linecap:square;stroke-linejoin:miter;stroke-width:0.8;"/>
   </g>
   <g id="patch_6">
    <path d="M 57.6 41.472 
L 414.72 41.472 
" style="fill:none;stroke:#000000;stroke-linecap:square;stroke-linejoin:miter;stroke-width:0.8;"/>
   </g>
   <g id="legend_1">
    <g id="patch_7">
     <path d="M 323.679375 302.584 
L 407.72 302.584 
Q 409.72 302.584 409.72 300.584 
L 409.72 257.549625 
Q 409.72 255.549625 407.72 255.549625 
L 323.679375 255.549625 
Q 321.679375 255.549625 321.679375 257.549625 
L 321.679375 300.584 
Q 321.679375 302.584 323.679375 302.584 
z
" style="fill:#ffffff;opacity:0.8;stroke:#cccccc;stroke-linejoin:miter;"/>
    </g>
    <g id="line2d_29">
     <path d="M 325.679375 263.648062 
L 345.679375 263.648062 
" style="fill:none;stroke:#ffa500;stroke-linecap:square;stroke-width:1.5;"/>
    </g>
    <g id="line2d_30"/>
    <g id="text_10">
     <!-- 0.01 noise -->
     <g transform="translate(353.679375 267.148062)scale(0.1 -0.1)">
      <use xlink:href="#DejaVuSans-48"/>
      <use x="63.623047" xlink:href="#DejaVuSans-46"/>
      <use x="95.410156" xlink:href="#DejaVuSans-48"/>
      <use x="159.033203" xlink:href="#DejaVuSans-49"/>
      <use x="222.65625" xlink:href="#DejaVuSans-32"/>
      <use x="254.443359" xlink:href="#DejaVuSans-110"/>
      <use x="317.822266" xlink:href="#DejaVuSans-111"/>
      <use x="379.003906" xlink:href="#DejaVuSans-105"/>
      <use x="406.787109" xlink:href="#DejaVuSans-115"/>
      <use x="458.886719" xlink:href="#DejaVuSans-101"/>
     </g>
    </g>
    <g id="line2d_31">
     <path d="M 325.679375 278.326188 
L 345.679375 278.326188 
" style="fill:none;stroke:#ff00ff;stroke-linecap:square;stroke-width:1.5;"/>
    </g>
    <g id="line2d_32"/>
    <g id="text_11">
     <!-- 0.05 noise -->
     <defs>
      <path d="M 10.796875 72.90625 
L 49.515625 72.90625 
L 49.515625 64.59375 
L 19.828125 64.59375 
L 19.828125 46.734375 
Q 21.96875 47.46875 24.109375 47.828125 
Q 26.265625 48.1875 28.421875 48.1875 
Q 40.625 48.1875 47.75 41.5 
Q 54.890625 34.8125 54.890625 23.390625 
Q 54.890625 11.625 47.5625 5.09375 
Q 40.234375 -1.421875 26.90625 -1.421875 
Q 22.3125 -1.421875 17.546875 -0.640625 
Q 12.796875 0.140625 7.71875 1.703125 
L 7.71875 11.625 
Q 12.109375 9.234375 16.796875 8.0625 
Q 21.484375 6.890625 26.703125 6.890625 
Q 35.15625 6.890625 40.078125 11.328125 
Q 45.015625 15.765625 45.015625 23.390625 
Q 45.015625 31 40.078125 35.4375 
Q 35.15625 39.890625 26.703125 39.890625 
Q 22.75 39.890625 18.8125 39.015625 
Q 14.890625 38.140625 10.796875 36.28125 
z
" id="DejaVuSans-53"/>
     </defs>
     <g transform="translate(353.679375 281.826188)scale(0.1 -0.1)">
      <use xlink:href="#DejaVuSans-48"/>
      <use x="63.623047" xlink:href="#DejaVuSans-46"/>
      <use x="95.410156" xlink:href="#DejaVuSans-48"/>
      <use x="159.033203" xlink:href="#DejaVuSans-53"/>
      <use x="222.65625" xlink:href="#DejaVuSans-32"/>
      <use x="254.443359" xlink:href="#DejaVuSans-110"/>
      <use x="317.822266" xlink:href="#DejaVuSans-111"/>
      <use x="379.003906" xlink:href="#DejaVuSans-105"/>
      <use x="406.787109" xlink:href="#DejaVuSans-115"/>
      <use x="458.886719" xlink:href="#DejaVuSans-101"/>
     </g>
    </g>
    <g id="line2d_33">
     <path d="M 325.679375 293.004312 
L 345.679375 293.004312 
" style="fill:none;stroke:#ff0000;stroke-linecap:square;stroke-width:1.5;"/>
    </g>
    <g id="line2d_34"/>
    <g id="text_12">
     <!-- 0.1 noise -->
     <g transform="translate(353.679375 296.504312)scale(0.1 -0.1)">
      <use xlink:href="#DejaVuSans-48"/>
      <use x="63.623047" xlink:href="#DejaVuSans-46"/>
      <use x="95.410156" xlink:href="#DejaVuSans-49"/>
      <use x="159.033203" xlink:href="#DejaVuSans-32"/>
      <use x="190.820312" xlink:href="#DejaVuSans-110"/>
      <use x="254.199219" xlink:href="#DejaVuSans-111"/>
      <use x="315.380859" xlink:href="#DejaVuSans-105"/>
      <use x="343.164062" xlink:href="#DejaVuSans-115"/>
      <use x="395.263672" xlink:href="#DejaVuSans-101"/>
     </g>
    </g>
   </g>
  </g>
 </g>
 <defs>
  <clipPath id="pd72a43bdeb">
   <rect height="266.112" width="357.12" x="57.6" y="41.472"/>
  </clipPath>
 </defs>
</svg>
