<?xml version="1.0" encoding="utf-8" standalone="no"?>
<!DOCTYPE svg PUBLIC "-//W3C//DTD SVG 1.1//EN"
  "http://www.w3.org/Graphics/SVG/1.1/DTD/svg11.dtd">
<!-- Created with matplotlib (https://matplotlib.org/) -->
<svg height="345.6pt" version="1.1" viewBox="0 0 460.8 345.6" width="460.8pt" xmlns="http://www.w3.org/2000/svg" xmlns:xlink="http://www.w3.org/1999/xlink">
 <defs>
  <style type="text/css">
*{stroke-linecap:butt;stroke-linejoin:round;white-space:pre;}
  </style>
 </defs>
 <g id="figure_1">
  <g id="patch_1">
   <path d="M 0 345.6 
L 460.8 345.6 
L 460.8 0 
L 0 0 
z
" style="fill:#ffffff;"/>
  </g>
  <g id="axes_1">
   <g id="patch_2">
    <path d="M 57.6 307.584 
L 414.72 307.584 
L 414.72 41.472 
L 57.6 41.472 
z
" style="fill:#ffffff;"/>
   </g>
   <g id="PolyCollection_1">
    <path clip-path="url(#p852170a7c5)" d="M 73.832727 262.704206 
L 73.832727 295.330994 
L 77.145529 278.672434 
L 80.45833 266.337327 
L 83.771132 256.579386 
L 87.083933 248.637654 
L 90.396735 242.093996 
L 93.709536 236.669239 
L 97.022338 232.147126 
L 100.335139 228.349946 
L 103.647941 225.131671 
L 106.960742 222.374341 
L 110.273544 219.984906 
L 113.586345 217.896147 
L 116.899147 216.058481 
L 120.211948 214.43092 
L 123.52475 212.983575 
L 126.837551 211.692308 
L 130.150353 210.540501 
L 133.463154 209.51084 
L 136.775955 208.581201 
L 140.088757 207.727791 
L 143.401558 206.929378 
L 146.71436 206.169481 
L 150.027161 205.441486 
L 153.339963 204.744456 
L 156.652764 204.079289 
L 159.965566 203.448122 
L 163.278367 202.852987 
L 166.591169 202.294387 
L 169.90397 201.772338 
L 173.216772 201.287658 
L 176.529573 200.842674 
L 179.842375 200.440244 
L 183.155176 200.082184 
L 186.467978 199.769073 
L 189.780779 199.499822 
L 193.093581 199.270023 
L 196.406382 199.071884 
L 199.719184 198.893891 
L 203.031985 198.720702 
L 206.344787 198.533661 
L 209.657588 198.312799 
L 212.97039 198.038873 
L 216.283191 197.696002 
L 219.595993 197.273874 
L 222.908794 196.767926 
L 226.221596 196.177803 
L 229.534397 195.506564 
L 232.847199 194.759831 
L 236.16 193.944783 
L 239.472801 193.069578 
L 242.785603 192.142874 
L 246.098404 191.173556 
L 249.411206 190.170459 
L 252.724007 189.142016 
L 256.036809 188.096163 
L 259.34961 187.040269 
L 262.662412 185.981145 
L 265.975213 184.92499 
L 269.288015 183.877179 
L 272.600816 182.842164 
L 275.913618 181.823496 
L 279.226419 180.823861 
L 282.539221 179.845144 
L 285.852022 178.888548 
L 289.164824 177.954765 
L 292.477625 177.044173 
L 295.790427 176.156934 
L 299.103228 175.293115 
L 302.41603 174.452713 
L 305.728831 173.635616 
L 309.041633 172.841625 
L 312.354434 172.070623 
L 315.667236 171.322771 
L 318.980037 170.598364 
L 322.292839 169.897797 
L 325.60564 169.221466 
L 328.918442 168.569785 
L 332.231243 167.943287 
L 335.544045 167.342568 
L 338.856846 166.768193 
L 342.169647 166.2208 
L 345.482449 165.701383 
L 348.79525 165.210953 
L 352.108052 164.750601 
L 355.420853 164.321568 
L 358.733655 163.925135 
L 362.046456 163.562666 
L 365.359258 163.235663 
L 368.672059 162.945754 
L 371.984861 162.6946 
L 375.297662 162.483649 
L 378.610464 162.313917 
L 381.923265 162.185472 
L 385.236067 162.096654 
L 388.548868 162.043117 
L 391.86167 162.016757 
L 395.174471 162.00528 
L 398.487273 161.993602 
L 398.487273 137.188163 
L 398.487273 137.188163 
L 395.174471 137.141247 
L 391.86167 137.121544 
L 388.548868 137.132101 
L 385.236067 137.174394 
L 381.923265 137.248823 
L 378.610464 137.355106 
L 375.297662 137.492536 
L 371.984861 137.660153 
L 368.672059 137.856866 
L 365.359258 138.081514 
L 362.046456 138.332965 
L 358.733655 138.610154 
L 355.420853 138.912087 
L 352.108052 139.237816 
L 348.79525 139.586455 
L 345.482449 139.957163 
L 342.169647 140.349228 
L 338.856846 140.762027 
L 335.544045 141.195044 
L 332.231243 141.647828 
L 328.918442 142.120027 
L 325.60564 142.611479 
L 322.292839 143.12229 
L 318.980037 143.652752 
L 315.667236 144.203232 
L 312.354434 144.774175 
L 309.041633 145.36606 
L 305.728831 145.979387 
L 302.41603 146.614707 
L 299.103228 147.27254 
L 295.790427 147.95328 
L 292.477625 148.657029 
L 289.164824 149.383519 
L 285.852022 150.132085 
L 282.539221 150.901602 
L 279.226419 151.690451 
L 275.913618 152.496482 
L 272.600816 153.316885 
L 269.288015 154.148143 
L 265.975213 154.986029 
L 262.662412 155.825638 
L 259.34961 156.661415 
L 256.036809 157.487119 
L 252.724007 158.295891 
L 249.411206 159.080438 
L 246.098404 159.833243 
L 242.785603 160.546559 
L 239.472801 161.212488 
L 236.16 161.82316 
L 232.847199 162.370758 
L 229.534397 162.847816 
L 226.221596 163.247733 
L 222.908794 163.565395 
L 219.595993 163.798156 
L 216.283191 163.947188 
L 212.97039 164.018917 
L 209.657588 164.025566 
L 206.344787 163.984244 
L 203.031985 163.914666 
L 199.719184 163.836495 
L 196.406382 163.767136 
L 193.093581 163.720526 
L 189.780779 163.706918 
L 186.467978 163.733262 
L 183.155176 163.803948 
L 179.842375 163.921352 
L 176.529573 164.086476 
L 173.216772 164.299278 
L 169.90397 164.559313 
L 166.591169 164.866479 
L 163.278367 165.221199 
L 159.965566 165.624016 
L 156.652764 166.075701 
L 153.339963 166.577824 
L 150.027161 167.133964 
L 146.71436 167.749017 
L 143.401558 168.429024 
L 140.088757 169.182908 
L 136.775955 170.023713 
L 133.463154 170.963839 
L 130.150353 172.017501 
L 126.837551 173.200736 
L 123.52475 174.532826 
L 120.211948 176.037619 
L 116.899147 177.743278 
L 113.586345 179.684166 
L 110.273544 181.904456 
L 106.960742 184.461604 
L 103.647941 187.430872 
L 100.335139 190.909367 
L 97.022338 195.018164 
L 93.709536 199.906723 
L 90.396735 205.760856 
L 87.083933 212.811287 
L 83.771132 221.354795 
L 80.45833 231.827908 
L 77.145529 245.014711 
L 73.832727 262.704206 
z
" style="fill:#ff0000;fill-opacity:0.4;"/>
   </g>
   <g id="PolyCollection_2">
    <path clip-path="url(#p852170a7c5)" d="M 73.832727 248.911737 
L 73.832727 295.488 
L 77.145529 278.347014 
L 80.45833 265.75257 
L 83.771132 255.935814 
L 87.083933 248.106872 
L 90.396735 241.815504 
L 93.709536 236.736816 
L 97.022338 232.608681 
L 100.335139 229.207499 
L 103.647941 226.343536 
L 106.960742 223.856775 
L 110.273544 221.618219 
L 113.586345 219.53336 
L 116.899147 217.536455 
L 120.211948 215.589072 
L 123.52475 213.671598 
L 126.837551 211.780792 
L 130.150353 209.924068 
L 133.463154 208.108957 
L 136.775955 206.342169 
L 140.088757 204.629167 
L 143.401558 202.969275 
L 146.71436 201.361361 
L 150.027161 199.807618 
L 153.339963 198.312073 
L 156.652764 196.879503 
L 159.965566 195.513536 
L 163.278367 194.2161 
L 166.591169 192.986039 
L 169.90397 191.82129 
L 173.216772 190.721099 
L 176.529573 189.684306 
L 179.842375 188.709206 
L 183.155176 187.793484 
L 186.467978 186.934392 
L 189.780779 186.129006 
L 193.093581 185.374461 
L 196.406382 184.666327 
L 199.719184 183.998457 
L 203.031985 183.363682 
L 206.344787 182.75349 
L 209.657588 182.157996 
L 212.97039 181.566989 
L 216.283191 180.971489 
L 219.595993 180.364568 
L 222.908794 179.741612 
L 226.221596 179.099772 
L 229.534397 178.437736 
L 232.847199 177.755323 
L 236.16 177.053445 
L 239.472801 176.333974 
L 242.785603 175.599531 
L 246.098404 174.853829 
L 249.411206 174.101425 
L 252.724007 173.347257 
L 256.036809 172.596396 
L 259.34961 171.8538 
L 262.662412 171.124134 
L 265.975213 170.411623 
L 269.288015 169.719831 
L 272.600816 169.051527 
L 275.913618 168.40857 
L 279.226419 167.791974 
L 282.539221 167.20206 
L 285.852022 166.638607 
L 289.164824 166.100961 
L 292.477625 165.588124 
L 295.790427 165.098893 
L 299.103228 164.631959 
L 302.41603 164.186005 
L 305.728831 163.759822 
L 309.041633 163.352275 
L 312.354434 162.96229 
L 315.667236 162.5889 
L 318.980037 162.231402 
L 322.292839 161.889315 
L 325.60564 161.562257 
L 328.918442 161.250057 
L 332.231243 160.952611 
L 335.544045 160.669816 
L 338.856846 160.401686 
L 342.169647 160.14851 
L 345.482449 159.910928 
L 348.79525 159.690018 
L 352.108052 159.487237 
L 355.420853 159.304238 
L 358.733655 159.142861 
L 362.046456 159.005039 
L 365.359258 158.893531 
L 368.672059 158.812762 
L 371.984861 158.769396 
L 375.297662 158.772114 
L 378.610464 158.830025 
L 381.923265 158.949173 
L 385.236067 159.128058 
L 388.548868 159.354171 
L 391.86167 159.604997 
L 395.174471 159.853662 
L 398.487273 160.076274 
L 398.487273 156.289995 
L 398.487273 156.289995 
L 395.174471 156.341194 
L 391.86167 156.38017 
L 388.548868 156.406305 
L 385.236067 156.419208 
L 381.923265 156.419413 
L 378.610464 156.409763 
L 375.297662 156.39593 
L 371.984861 156.385146 
L 368.672059 156.384433 
L 365.359258 156.399449 
L 362.046456 156.43416 
L 358.733655 156.490848 
L 355.420853 156.570602 
L 352.108052 156.673749 
L 348.79525 156.799968 
L 345.482449 156.948766 
L 342.169647 157.119335 
L 338.856846 157.310403 
L 335.544045 157.520648 
L 332.231243 157.748434 
L 328.918442 157.992238 
L 325.60564 158.250844 
L 322.292839 158.523092 
L 318.980037 158.808171 
L 315.667236 159.10568 
L 312.354434 159.415955 
L 309.041633 159.739958 
L 305.728831 160.079167 
L 302.41603 160.435448 
L 299.103228 160.810944 
L 295.790427 161.207958 
L 292.477625 161.628844 
L 289.164824 162.075842 
L 285.852022 162.550988 
L 282.539221 163.056022 
L 279.226419 163.592175 
L 275.913618 164.160031 
L 272.600816 164.759331 
L 269.288015 165.388759 
L 265.975213 166.045866 
L 262.662412 166.727076 
L 259.34961 167.427872 
L 256.036809 168.142954 
L 252.724007 168.866486 
L 249.411206 169.59227 
L 246.098404 170.313957 
L 242.785603 171.025316 
L 239.472801 171.720629 
L 236.16 172.395079 
L 232.847199 173.045024 
L 229.534397 173.667946 
L 226.221596 174.262506 
L 222.908794 174.8281 
L 219.595993 175.364433 
L 216.283191 175.870851 
L 212.97039 176.345755 
L 209.657588 176.785923 
L 206.344787 177.186113 
L 203.031985 177.539227 
L 199.719184 177.837237 
L 196.406382 178.072258 
L 193.093581 178.238214 
L 189.780779 178.331652 
L 186.467978 178.352092 
L 183.155176 178.301899 
L 179.842375 178.184906 
L 176.529573 178.005053 
L 173.216772 177.767563 
L 169.90397 177.47924 
L 166.591169 177.149212 
L 163.278367 176.787186 
L 159.965566 176.403787 
L 156.652764 176.01108 
L 153.339963 175.622936 
L 150.027161 175.256318 
L 146.71436 174.928543 
L 143.401558 174.656924 
L 140.088757 174.457234 
L 136.775955 174.34035 
L 133.463154 174.314782 
L 130.150353 174.393788 
L 126.837551 174.595068 
L 123.52475 174.941427 
L 120.211948 175.458473 
L 116.899147 176.173579 
L 113.586345 177.116576 
L 110.273544 178.327469 
L 106.960742 179.860086 
L 103.647941 181.785703 
L 100.335139 184.201276 
L 97.022338 187.233971 
L 93.709536 191.049432 
L 90.396735 195.859471 
L 87.083933 201.922806 
L 83.771132 209.570736 
L 80.45833 219.261714 
L 77.145529 231.78098 
L 73.832727 248.911737 
z
" style="fill:#0000ff;fill-opacity:0.4;"/>
   </g>
   <g id="PolyCollection_3">
    <path clip-path="url(#p852170a7c5)" d="M 73.832727 152.60119 
L 73.832727 156.401299 
L 77.145529 140.259124 
L 80.45833 128.496983 
L 83.771132 119.263702 
L 87.083933 111.73241 
L 90.396735 105.453055 
L 93.709536 100.143008 
L 97.022338 95.605159 
L 100.335139 91.692601 
L 103.647941 88.291863 
L 106.960742 85.313715 
L 110.273544 82.687285 
L 113.586345 80.355873 
L 116.899147 78.273817 
L 120.211948 76.404092 
L 123.52475 74.716469 
L 126.837551 73.186092 
L 130.150353 71.792382 
L 133.463154 70.518181 
L 136.775955 69.349093 
L 140.088757 68.272962 
L 143.401558 67.279464 
L 146.71436 66.359777 
L 150.027161 65.506329 
L 153.339963 64.712584 
L 156.652764 63.972879 
L 159.965566 63.282281 
L 163.278367 62.636481 
L 166.591169 62.0317 
L 169.90397 61.464611 
L 173.216772 60.932283 
L 176.529573 60.43212 
L 179.842375 59.961825 
L 183.155176 59.519361 
L 186.467978 59.102921 
L 189.780779 58.710904 
L 193.093581 58.341894 
L 196.406382 57.994643 
L 199.719184 57.668059 
L 203.031985 57.361191 
L 206.344787 57.073227 
L 209.657588 56.803479 
L 212.97039 56.551386 
L 216.283191 56.316503 
L 219.595993 56.098498 
L 222.908794 55.897145 
L 226.221596 55.712318 
L 229.534397 55.543973 
L 232.847199 55.392131 
L 236.16 55.256853 
L 239.472801 55.138195 
L 242.785603 55.036172 
L 246.098404 54.950695 
L 249.411206 54.88152 
L 252.724007 54.828194 
L 256.036809 54.790011 
L 259.34961 54.765996 
L 262.662412 54.754909 
L 265.975213 54.755276 
L 269.288015 54.765452 
L 272.600816 54.78369 
L 275.913618 54.80822 
L 279.226419 54.837326 
L 282.539221 54.869408 
L 285.852022 54.903029 
L 289.164824 54.936942 
L 292.477625 54.970106 
L 295.790427 55.001685 
L 299.103228 55.031035 
L 302.41603 55.057691 
L 305.728831 55.081348 
L 309.041633 55.101832 
L 312.354434 55.119091 
L 315.667236 55.133164 
L 318.980037 55.144174 
L 322.292839 55.152304 
L 325.60564 55.157789 
L 328.918442 55.160901 
L 332.231243 55.161945 
L 335.544045 55.161245 
L 338.856846 55.159138 
L 342.169647 55.155974 
L 345.482449 55.152101 
L 348.79525 55.147872 
L 352.108052 55.14363 
L 355.420853 55.139715 
L 358.733655 55.136452 
L 362.046456 55.134155 
L 365.359258 55.133122 
L 368.672059 55.133631 
L 371.984861 55.135941 
L 375.297662 55.140287 
L 378.610464 55.14688 
L 381.923265 55.155903 
L 385.236067 55.167506 
L 388.548868 55.181806 
L 391.86167 55.19888 
L 395.174471 55.218755 
L 398.487273 55.241407 
L 398.487273 54.185905 
L 398.487273 54.185905 
L 395.174471 54.165717 
L 391.86167 54.148387 
L 388.548868 54.133908 
L 385.236067 54.122218 
L 381.923265 54.113218 
L 378.610464 54.106766 
L 375.297662 54.102689 
L 371.984861 54.100783 
L 368.672059 54.100814 
L 365.359258 54.102525 
L 362.046456 54.105631 
L 358.733655 54.109827 
L 355.420853 54.114788 
L 352.108052 54.12017 
L 348.79525 54.125612 
L 345.482449 54.130741 
L 342.169647 54.135174 
L 338.856846 54.138519 
L 335.544045 54.140382 
L 332.231243 54.140369 
L 328.918442 54.138091 
L 325.60564 54.133171 
L 322.292839 54.125251 
L 318.980037 54.113997 
L 315.667236 54.099118 
L 312.354434 54.080369 
L 309.041633 54.057576 
L 305.728831 54.030648 
L 302.41603 53.999605 
L 299.103228 53.964602 
L 295.790427 53.925959 
L 292.477625 53.884189 
L 289.164824 53.840028 
L 285.852022 53.794459 
L 282.539221 53.748726 
L 279.226419 53.704329 
L 275.913618 53.663007 
L 272.600816 53.626681 
L 269.288015 53.597388 
L 265.975213 53.577175 
L 262.662412 53.568 
L 259.34961 53.571618 
L 256.036809 53.589498 
L 252.724007 53.622764 
L 249.411206 53.672181 
L 246.098404 53.738173 
L 242.785603 53.820884 
L 239.472801 53.92024 
L 236.16 54.036035 
L 232.847199 54.168002 
L 229.534397 54.315869 
L 226.221596 54.47941 
L 222.908794 54.658476 
L 219.595993 54.853018 
L 216.283191 55.063094 
L 212.97039 55.288879 
L 209.657588 55.53067 
L 206.344787 55.788881 
L 203.031985 56.064049 
L 199.719184 56.356833 
L 196.406382 56.66802 
L 193.093581 56.998524 
L 189.780779 57.3494 
L 186.467978 57.72185 
L 183.155176 58.117235 
L 179.842375 58.537092 
L 176.529573 58.98315 
L 173.216772 59.45736 
L 169.90397 59.961919 
L 166.591169 60.499304 
L 163.278367 61.072316 
L 159.965566 61.684129 
L 156.652764 62.338351 
L 153.339963 63.039097 
L 150.027161 63.791077 
L 146.71436 64.599706 
L 143.401558 65.471233 
L 140.088757 66.412911 
L 136.775955 67.433195 
L 133.463154 68.542002 
L 130.150353 69.751022 
L 126.837551 71.074137 
L 123.52475 72.527927 
L 120.211948 74.132345 
L 116.899147 75.911581 
L 113.586345 77.895189 
L 110.273544 80.119566 
L 106.960742 82.629908 
L 103.647941 85.482793 
L 100.335139 88.749629 
L 97.022338 92.521287 
L 93.709536 96.914566 
L 90.396735 102.081894 
L 87.083933 108.228087 
L 83.771132 115.644494 
L 80.45833 124.788545 
L 77.145529 136.490708 
L 73.832727 152.60119 
z
" style="fill:#00ffff;fill-opacity:0.4;"/>
   </g>
   <g id="matplotlib.axis_1">
    <g id="xtick_1">
     <g id="line2d_1">
      <path clip-path="url(#p852170a7c5)" d="M 70.519926 307.584 
L 70.519926 41.472 
" style="fill:none;stroke:#b0b0b0;stroke-linecap:square;stroke-width:0.8;"/>
     </g>
     <g id="line2d_2">
      <defs>
       <path d="M 0 0 
L 0 3.5 
" id="m5b9dee8654" style="stroke:#000000;stroke-width:0.8;"/>
      </defs>
      <g>
       <use style="stroke:#000000;stroke-width:0.8;" x="70.519926" xlink:href="#m5b9dee8654" y="307.584"/>
      </g>
     </g>
     <g id="text_1">
      <!-- 0.0 -->
      <defs>
       <path d="M 31.78125 66.40625 
Q 24.171875 66.40625 20.328125 58.90625 
Q 16.5 51.421875 16.5 36.375 
Q 16.5 21.390625 20.328125 13.890625 
Q 24.171875 6.390625 31.78125 6.390625 
Q 39.453125 6.390625 43.28125 13.890625 
Q 47.125 21.390625 47.125 36.375 
Q 47.125 51.421875 43.28125 58.90625 
Q 39.453125 66.40625 31.78125 66.40625 
z
M 31.78125 74.21875 
Q 44.046875 74.21875 50.515625 64.515625 
Q 56.984375 54.828125 56.984375 36.375 
Q 56.984375 17.96875 50.515625 8.265625 
Q 44.046875 -1.421875 31.78125 -1.421875 
Q 19.53125 -1.421875 13.0625 8.265625 
Q 6.59375 17.96875 6.59375 36.375 
Q 6.59375 54.828125 13.0625 64.515625 
Q 19.53125 74.21875 31.78125 74.21875 
z
" id="DejaVuSans-48"/>
       <path d="M 10.6875 12.40625 
L 21 12.40625 
L 21 0 
L 10.6875 0 
z
" id="DejaVuSans-46"/>
      </defs>
      <g transform="translate(62.568363 322.182437)scale(0.1 -0.1)">
       <use xlink:href="#DejaVuSans-48"/>
       <use x="63.623047" xlink:href="#DejaVuSans-46"/>
       <use x="95.410156" xlink:href="#DejaVuSans-48"/>
      </g>
     </g>
    </g>
    <g id="xtick_2">
     <g id="line2d_3">
      <path clip-path="url(#p852170a7c5)" d="M 136.775955 307.584 
L 136.775955 41.472 
" style="fill:none;stroke:#b0b0b0;stroke-linecap:square;stroke-width:0.8;"/>
     </g>
     <g id="line2d_4">
      <g>
       <use style="stroke:#000000;stroke-width:0.8;" x="136.775955" xlink:href="#m5b9dee8654" y="307.584"/>
      </g>
     </g>
     <g id="text_2">
      <!-- 0.2 -->
      <defs>
       <path d="M 19.1875 8.296875 
L 53.609375 8.296875 
L 53.609375 0 
L 7.328125 0 
L 7.328125 8.296875 
Q 12.9375 14.109375 22.625 23.890625 
Q 32.328125 33.6875 34.8125 36.53125 
Q 39.546875 41.84375 41.421875 45.53125 
Q 43.3125 49.21875 43.3125 52.78125 
Q 43.3125 58.59375 39.234375 62.25 
Q 35.15625 65.921875 28.609375 65.921875 
Q 23.96875 65.921875 18.8125 64.3125 
Q 13.671875 62.703125 7.8125 59.421875 
L 7.8125 69.390625 
Q 13.765625 71.78125 18.9375 73 
Q 24.125 74.21875 28.421875 74.21875 
Q 39.75 74.21875 46.484375 68.546875 
Q 53.21875 62.890625 53.21875 53.421875 
Q 53.21875 48.921875 51.53125 44.890625 
Q 49.859375 40.875 45.40625 35.40625 
Q 44.1875 33.984375 37.640625 27.21875 
Q 31.109375 20.453125 19.1875 8.296875 
z
" id="DejaVuSans-50"/>
      </defs>
      <g transform="translate(128.824393 322.182437)scale(0.1 -0.1)">
       <use xlink:href="#DejaVuSans-48"/>
       <use x="63.623047" xlink:href="#DejaVuSans-46"/>
       <use x="95.410156" xlink:href="#DejaVuSans-50"/>
      </g>
     </g>
    </g>
    <g id="xtick_3">
     <g id="line2d_5">
      <path clip-path="url(#p852170a7c5)" d="M 203.031985 307.584 
L 203.031985 41.472 
" style="fill:none;stroke:#b0b0b0;stroke-linecap:square;stroke-width:0.8;"/>
     </g>
     <g id="line2d_6">
      <g>
       <use style="stroke:#000000;stroke-width:0.8;" x="203.031985" xlink:href="#m5b9dee8654" y="307.584"/>
      </g>
     </g>
     <g id="text_3">
      <!-- 0.4 -->
      <defs>
       <path d="M 37.796875 64.3125 
L 12.890625 25.390625 
L 37.796875 25.390625 
z
M 35.203125 72.90625 
L 47.609375 72.90625 
L 47.609375 25.390625 
L 58.015625 25.390625 
L 58.015625 17.1875 
L 47.609375 17.1875 
L 47.609375 0 
L 37.796875 0 
L 37.796875 17.1875 
L 4.890625 17.1875 
L 4.890625 26.703125 
z
" id="DejaVuSans-52"/>
      </defs>
      <g transform="translate(195.080423 322.182437)scale(0.1 -0.1)">
       <use xlink:href="#DejaVuSans-48"/>
       <use x="63.623047" xlink:href="#DejaVuSans-46"/>
       <use x="95.410156" xlink:href="#DejaVuSans-52"/>
      </g>
     </g>
    </g>
    <g id="xtick_4">
     <g id="line2d_7">
      <path clip-path="url(#p852170a7c5)" d="M 269.288015 307.584 
L 269.288015 41.472 
" style="fill:none;stroke:#b0b0b0;stroke-linecap:square;stroke-width:0.8;"/>
     </g>
     <g id="line2d_8">
      <g>
       <use style="stroke:#000000;stroke-width:0.8;" x="269.288015" xlink:href="#m5b9dee8654" y="307.584"/>
      </g>
     </g>
     <g id="text_4">
      <!-- 0.6 -->
      <defs>
       <path d="M 33.015625 40.375 
Q 26.375 40.375 22.484375 35.828125 
Q 18.609375 31.296875 18.609375 23.390625 
Q 18.609375 15.53125 22.484375 10.953125 
Q 26.375 6.390625 33.015625 6.390625 
Q 39.65625 6.390625 43.53125 10.953125 
Q 47.40625 15.53125 47.40625 23.390625 
Q 47.40625 31.296875 43.53125 35.828125 
Q 39.65625 40.375 33.015625 40.375 
z
M 52.59375 71.296875 
L 52.59375 62.3125 
Q 48.875 64.0625 45.09375 64.984375 
Q 41.3125 65.921875 37.59375 65.921875 
Q 27.828125 65.921875 22.671875 59.328125 
Q 17.53125 52.734375 16.796875 39.40625 
Q 19.671875 43.65625 24.015625 45.921875 
Q 28.375 48.1875 33.59375 48.1875 
Q 44.578125 48.1875 50.953125 41.515625 
Q 57.328125 34.859375 57.328125 23.390625 
Q 57.328125 12.15625 50.6875 5.359375 
Q 44.046875 -1.421875 33.015625 -1.421875 
Q 20.359375 -1.421875 13.671875 8.265625 
Q 6.984375 17.96875 6.984375 36.375 
Q 6.984375 53.65625 15.1875 63.9375 
Q 23.390625 74.21875 37.203125 74.21875 
Q 40.921875 74.21875 44.703125 73.484375 
Q 48.484375 72.75 52.59375 71.296875 
z
" id="DejaVuSans-54"/>
      </defs>
      <g transform="translate(261.336452 322.182437)scale(0.1 -0.1)">
       <use xlink:href="#DejaVuSans-48"/>
       <use x="63.623047" xlink:href="#DejaVuSans-46"/>
       <use x="95.410156" xlink:href="#DejaVuSans-54"/>
      </g>
     </g>
    </g>
    <g id="xtick_5">
     <g id="line2d_9">
      <path clip-path="url(#p852170a7c5)" d="M 335.544045 307.584 
L 335.544045 41.472 
" style="fill:none;stroke:#b0b0b0;stroke-linecap:square;stroke-width:0.8;"/>
     </g>
     <g id="line2d_10">
      <g>
       <use style="stroke:#000000;stroke-width:0.8;" x="335.544045" xlink:href="#m5b9dee8654" y="307.584"/>
      </g>
     </g>
     <g id="text_5">
      <!-- 0.8 -->
      <defs>
       <path d="M 31.78125 34.625 
Q 24.75 34.625 20.71875 30.859375 
Q 16.703125 27.09375 16.703125 20.515625 
Q 16.703125 13.921875 20.71875 10.15625 
Q 24.75 6.390625 31.78125 6.390625 
Q 38.8125 6.390625 42.859375 10.171875 
Q 46.921875 13.96875 46.921875 20.515625 
Q 46.921875 27.09375 42.890625 30.859375 
Q 38.875 34.625 31.78125 34.625 
z
M 21.921875 38.8125 
Q 15.578125 40.375 12.03125 44.71875 
Q 8.5 49.078125 8.5 55.328125 
Q 8.5 64.0625 14.71875 69.140625 
Q 20.953125 74.21875 31.78125 74.21875 
Q 42.671875 74.21875 48.875 69.140625 
Q 55.078125 64.0625 55.078125 55.328125 
Q 55.078125 49.078125 51.53125 44.71875 
Q 48 40.375 41.703125 38.8125 
Q 48.828125 37.15625 52.796875 32.3125 
Q 56.78125 27.484375 56.78125 20.515625 
Q 56.78125 9.90625 50.3125 4.234375 
Q 43.84375 -1.421875 31.78125 -1.421875 
Q 19.734375 -1.421875 13.25 4.234375 
Q 6.78125 9.90625 6.78125 20.515625 
Q 6.78125 27.484375 10.78125 32.3125 
Q 14.796875 37.15625 21.921875 38.8125 
z
M 18.3125 54.390625 
Q 18.3125 48.734375 21.84375 45.5625 
Q 25.390625 42.390625 31.78125 42.390625 
Q 38.140625 42.390625 41.71875 45.5625 
Q 45.3125 48.734375 45.3125 54.390625 
Q 45.3125 60.0625 41.71875 63.234375 
Q 38.140625 66.40625 31.78125 66.40625 
Q 25.390625 66.40625 21.84375 63.234375 
Q 18.3125 60.0625 18.3125 54.390625 
z
" id="DejaVuSans-56"/>
      </defs>
      <g transform="translate(327.592482 322.182437)scale(0.1 -0.1)">
       <use xlink:href="#DejaVuSans-48"/>
       <use x="63.623047" xlink:href="#DejaVuSans-46"/>
       <use x="95.410156" xlink:href="#DejaVuSans-56"/>
      </g>
     </g>
    </g>
    <g id="xtick_6">
     <g id="line2d_11">
      <path clip-path="url(#p852170a7c5)" d="M 401.800074 307.584 
L 401.800074 41.472 
" style="fill:none;stroke:#b0b0b0;stroke-linecap:square;stroke-width:0.8;"/>
     </g>
     <g id="line2d_12">
      <g>
       <use style="stroke:#000000;stroke-width:0.8;" x="401.800074" xlink:href="#m5b9dee8654" y="307.584"/>
      </g>
     </g>
     <g id="text_6">
      <!-- 1.0 -->
      <defs>
       <path d="M 12.40625 8.296875 
L 28.515625 8.296875 
L 28.515625 63.921875 
L 10.984375 60.40625 
L 10.984375 69.390625 
L 28.421875 72.90625 
L 38.28125 72.90625 
L 38.28125 8.296875 
L 54.390625 8.296875 
L 54.390625 0 
L 12.40625 0 
z
" id="DejaVuSans-49"/>
      </defs>
      <g transform="translate(393.848512 322.182437)scale(0.1 -0.1)">
       <use xlink:href="#DejaVuSans-49"/>
       <use x="63.623047" xlink:href="#DejaVuSans-46"/>
       <use x="95.410156" xlink:href="#DejaVuSans-48"/>
      </g>
     </g>
    </g>
    <g id="text_7">
     <!-- $\mathrm{Time \ (seconds)}$ -->
     <defs>
      <path d="M -0.296875 72.90625 
L 61.375 72.90625 
L 61.375 64.59375 
L 35.5 64.59375 
L 35.5 0 
L 25.59375 0 
L 25.59375 64.59375 
L -0.296875 64.59375 
z
" id="DejaVuSans-84"/>
      <path d="M 9.421875 54.6875 
L 18.40625 54.6875 
L 18.40625 0 
L 9.421875 0 
z
M 9.421875 75.984375 
L 18.40625 75.984375 
L 18.40625 64.59375 
L 9.421875 64.59375 
z
" id="DejaVuSans-105"/>
      <path d="M 52 44.1875 
Q 55.375 50.25 60.0625 53.125 
Q 64.75 56 71.09375 56 
Q 79.640625 56 84.28125 50.015625 
Q 88.921875 44.046875 88.921875 33.015625 
L 88.921875 0 
L 79.890625 0 
L 79.890625 32.71875 
Q 79.890625 40.578125 77.09375 44.375 
Q 74.3125 48.1875 68.609375 48.1875 
Q 61.625 48.1875 57.5625 43.546875 
Q 53.515625 38.921875 53.515625 30.90625 
L 53.515625 0 
L 44.484375 0 
L 44.484375 32.71875 
Q 44.484375 40.625 41.703125 44.40625 
Q 38.921875 48.1875 33.109375 48.1875 
Q 26.21875 48.1875 22.15625 43.53125 
Q 18.109375 38.875 18.109375 30.90625 
L 18.109375 0 
L 9.078125 0 
L 9.078125 54.6875 
L 18.109375 54.6875 
L 18.109375 46.1875 
Q 21.1875 51.21875 25.484375 53.609375 
Q 29.78125 56 35.6875 56 
Q 41.65625 56 45.828125 52.96875 
Q 50 49.953125 52 44.1875 
z
" id="DejaVuSans-109"/>
      <path d="M 56.203125 29.59375 
L 56.203125 25.203125 
L 14.890625 25.203125 
Q 15.484375 15.921875 20.484375 11.0625 
Q 25.484375 6.203125 34.421875 6.203125 
Q 39.59375 6.203125 44.453125 7.46875 
Q 49.3125 8.734375 54.109375 11.28125 
L 54.109375 2.78125 
Q 49.265625 0.734375 44.1875 -0.34375 
Q 39.109375 -1.421875 33.890625 -1.421875 
Q 20.796875 -1.421875 13.15625 6.1875 
Q 5.515625 13.8125 5.515625 26.8125 
Q 5.515625 40.234375 12.765625 48.109375 
Q 20.015625 56 32.328125 56 
Q 43.359375 56 49.78125 48.890625 
Q 56.203125 41.796875 56.203125 29.59375 
z
M 47.21875 32.234375 
Q 47.125 39.59375 43.09375 43.984375 
Q 39.0625 48.390625 32.421875 48.390625 
Q 24.90625 48.390625 20.390625 44.140625 
Q 15.875 39.890625 15.1875 32.171875 
z
" id="DejaVuSans-101"/>
      <path d="M 31 75.875 
Q 24.46875 64.65625 21.28125 53.65625 
Q 18.109375 42.671875 18.109375 31.390625 
Q 18.109375 20.125 21.3125 9.0625 
Q 24.515625 -2 31 -13.1875 
L 23.1875 -13.1875 
Q 15.875 -1.703125 12.234375 9.375 
Q 8.59375 20.453125 8.59375 31.390625 
Q 8.59375 42.28125 12.203125 53.3125 
Q 15.828125 64.359375 23.1875 75.875 
z
" id="DejaVuSans-40"/>
      <path d="M 44.28125 53.078125 
L 44.28125 44.578125 
Q 40.484375 46.53125 36.375 47.5 
Q 32.28125 48.484375 27.875 48.484375 
Q 21.1875 48.484375 17.84375 46.4375 
Q 14.5 44.390625 14.5 40.28125 
Q 14.5 37.15625 16.890625 35.375 
Q 19.28125 33.59375 26.515625 31.984375 
L 29.59375 31.296875 
Q 39.15625 29.25 43.1875 25.515625 
Q 47.21875 21.78125 47.21875 15.09375 
Q 47.21875 7.46875 41.1875 3.015625 
Q 35.15625 -1.421875 24.609375 -1.421875 
Q 20.21875 -1.421875 15.453125 -0.5625 
Q 10.6875 0.296875 5.421875 2 
L 5.421875 11.28125 
Q 10.40625 8.6875 15.234375 7.390625 
Q 20.0625 6.109375 24.8125 6.109375 
Q 31.15625 6.109375 34.5625 8.28125 
Q 37.984375 10.453125 37.984375 14.40625 
Q 37.984375 18.0625 35.515625 20.015625 
Q 33.0625 21.96875 24.703125 23.78125 
L 21.578125 24.515625 
Q 13.234375 26.265625 9.515625 29.90625 
Q 5.8125 33.546875 5.8125 39.890625 
Q 5.8125 47.609375 11.28125 51.796875 
Q 16.75 56 26.8125 56 
Q 31.78125 56 36.171875 55.265625 
Q 40.578125 54.546875 44.28125 53.078125 
z
" id="DejaVuSans-115"/>
      <path d="M 48.78125 52.59375 
L 48.78125 44.1875 
Q 44.96875 46.296875 41.140625 47.34375 
Q 37.3125 48.390625 33.40625 48.390625 
Q 24.65625 48.390625 19.8125 42.84375 
Q 14.984375 37.3125 14.984375 27.296875 
Q 14.984375 17.28125 19.8125 11.734375 
Q 24.65625 6.203125 33.40625 6.203125 
Q 37.3125 6.203125 41.140625 7.25 
Q 44.96875 8.296875 48.78125 10.40625 
L 48.78125 2.09375 
Q 45.015625 0.34375 40.984375 -0.53125 
Q 36.96875 -1.421875 32.421875 -1.421875 
Q 20.0625 -1.421875 12.78125 6.34375 
Q 5.515625 14.109375 5.515625 27.296875 
Q 5.515625 40.671875 12.859375 48.328125 
Q 20.21875 56 33.015625 56 
Q 37.15625 56 41.109375 55.140625 
Q 45.0625 54.296875 48.78125 52.59375 
z
" id="DejaVuSans-99"/>
      <path d="M 30.609375 48.390625 
Q 23.390625 48.390625 19.1875 42.75 
Q 14.984375 37.109375 14.984375 27.296875 
Q 14.984375 17.484375 19.15625 11.84375 
Q 23.34375 6.203125 30.609375 6.203125 
Q 37.796875 6.203125 41.984375 11.859375 
Q 46.1875 17.53125 46.1875 27.296875 
Q 46.1875 37.015625 41.984375 42.703125 
Q 37.796875 48.390625 30.609375 48.390625 
z
M 30.609375 56 
Q 42.328125 56 49.015625 48.375 
Q 55.71875 40.765625 55.71875 27.296875 
Q 55.71875 13.875 49.015625 6.21875 
Q 42.328125 -1.421875 30.609375 -1.421875 
Q 18.84375 -1.421875 12.171875 6.21875 
Q 5.515625 13.875 5.515625 27.296875 
Q 5.515625 40.765625 12.171875 48.375 
Q 18.84375 56 30.609375 56 
z
" id="DejaVuSans-111"/>
      <path d="M 54.890625 33.015625 
L 54.890625 0 
L 45.90625 0 
L 45.90625 32.71875 
Q 45.90625 40.484375 42.875 44.328125 
Q 39.84375 48.1875 33.796875 48.1875 
Q 26.515625 48.1875 22.3125 43.546875 
Q 18.109375 38.921875 18.109375 30.90625 
L 18.109375 0 
L 9.078125 0 
L 9.078125 54.6875 
L 18.109375 54.6875 
L 18.109375 46.1875 
Q 21.34375 51.125 25.703125 53.5625 
Q 30.078125 56 35.796875 56 
Q 45.21875 56 50.046875 50.171875 
Q 54.890625 44.34375 54.890625 33.015625 
z
" id="DejaVuSans-110"/>
      <path d="M 45.40625 46.390625 
L 45.40625 75.984375 
L 54.390625 75.984375 
L 54.390625 0 
L 45.40625 0 
L 45.40625 8.203125 
Q 42.578125 3.328125 38.25 0.953125 
Q 33.9375 -1.421875 27.875 -1.421875 
Q 17.96875 -1.421875 11.734375 6.484375 
Q 5.515625 14.40625 5.515625 27.296875 
Q 5.515625 40.1875 11.734375 48.09375 
Q 17.96875 56 27.875 56 
Q 33.9375 56 38.25 53.625 
Q 42.578125 51.265625 45.40625 46.390625 
z
M 14.796875 27.296875 
Q 14.796875 17.390625 18.875 11.75 
Q 22.953125 6.109375 30.078125 6.109375 
Q 37.203125 6.109375 41.296875 11.75 
Q 45.40625 17.390625 45.40625 27.296875 
Q 45.40625 37.203125 41.296875 42.84375 
Q 37.203125 48.484375 30.078125 48.484375 
Q 22.953125 48.484375 18.875 42.84375 
Q 14.796875 37.203125 14.796875 27.296875 
z
" id="DejaVuSans-100"/>
      <path d="M 8.015625 75.875 
L 15.828125 75.875 
Q 23.140625 64.359375 26.78125 53.3125 
Q 30.421875 42.28125 30.421875 31.390625 
Q 30.421875 20.453125 26.78125 9.375 
Q 23.140625 -1.703125 15.828125 -13.1875 
L 8.015625 -13.1875 
Q 14.5 -2 17.703125 9.0625 
Q 20.90625 20.125 20.90625 31.390625 
Q 20.90625 42.671875 17.703125 53.65625 
Q 14.5 64.65625 8.015625 75.875 
z
" id="DejaVuSans-41"/>
     </defs>
     <g transform="translate(197.76 335.860562)scale(0.1 -0.1)">
      <use transform="translate(0 0.015625)" xlink:href="#DejaVuSans-84"/>
      <use transform="translate(61.083984 0.015625)" xlink:href="#DejaVuSans-105"/>
      <use transform="translate(88.867188 0.015625)" xlink:href="#DejaVuSans-109"/>
      <use transform="translate(186.279297 0.015625)" xlink:href="#DejaVuSans-101"/>
      <use transform="translate(280.273113 0.015625)" xlink:href="#DejaVuSans-40"/>
      <use transform="translate(319.286785 0.015625)" xlink:href="#DejaVuSans-115"/>
      <use transform="translate(371.386394 0.015625)" xlink:href="#DejaVuSans-101"/>
      <use transform="translate(432.909832 0.015625)" xlink:href="#DejaVuSans-99"/>
      <use transform="translate(487.8903 0.015625)" xlink:href="#DejaVuSans-111"/>
      <use transform="translate(549.071941 0.015625)" xlink:href="#DejaVuSans-110"/>
      <use transform="translate(612.450847 0.015625)" xlink:href="#DejaVuSans-100"/>
      <use transform="translate(675.92741 0.015625)" xlink:href="#DejaVuSans-115"/>
      <use transform="translate(728.027019 0.015625)" xlink:href="#DejaVuSans-41"/>
     </g>
    </g>
   </g>
   <g id="matplotlib.axis_2">
    <g id="ytick_1">
     <g id="line2d_13">
      <path clip-path="url(#p852170a7c5)" d="M 57.6 243.174174 
L 414.72 243.174174 
" style="fill:none;stroke:#b0b0b0;stroke-linecap:square;stroke-width:0.8;"/>
     </g>
     <g id="line2d_14">
      <defs>
       <path d="M 0 0 
L -3.5 0 
" id="mb5a9ad9a6f" style="stroke:#000000;stroke-width:0.8;"/>
      </defs>
      <g>
       <use style="stroke:#000000;stroke-width:0.8;" x="57.6" xlink:href="#mb5a9ad9a6f" y="243.174174"/>
      </g>
     </g>
     <g id="text_8">
      <!-- $\mathdefault{10^{-2}}$ -->
      <defs>
       <path d="M 10.59375 35.5 
L 73.1875 35.5 
L 73.1875 27.203125 
L 10.59375 27.203125 
z
" id="DejaVuSans-8722"/>
      </defs>
      <g transform="translate(27.1 246.973393)scale(0.1 -0.1)">
       <use transform="translate(0 0.765625)" xlink:href="#DejaVuSans-49"/>
       <use transform="translate(63.623047 0.765625)" xlink:href="#DejaVuSans-48"/>
       <use transform="translate(128.203125 39.046875)scale(0.7)" xlink:href="#DejaVuSans-8722"/>
       <use transform="translate(186.855469 39.046875)scale(0.7)" xlink:href="#DejaVuSans-50"/>
      </g>
     </g>
    </g>
    <g id="ytick_2">
     <g id="line2d_15">
      <path clip-path="url(#p852170a7c5)" d="M 57.6 141.273145 
L 414.72 141.273145 
" style="fill:none;stroke:#b0b0b0;stroke-linecap:square;stroke-width:0.8;"/>
     </g>
     <g id="line2d_16">
      <g>
       <use style="stroke:#000000;stroke-width:0.8;" x="57.6" xlink:href="#mb5a9ad9a6f" y="141.273145"/>
      </g>
     </g>
     <g id="text_9">
      <!-- $\mathdefault{10^{-1}}$ -->
      <g transform="translate(27.1 145.072364)scale(0.1 -0.1)">
       <use transform="translate(0 0.684375)" xlink:href="#DejaVuSans-49"/>
       <use transform="translate(63.623047 0.684375)" xlink:href="#DejaVuSans-48"/>
       <use transform="translate(128.203125 38.965625)scale(0.7)" xlink:href="#DejaVuSans-8722"/>
       <use transform="translate(186.855469 38.965625)scale(0.7)" xlink:href="#DejaVuSans-49"/>
      </g>
     </g>
    </g>
    <g id="ytick_3">
     <g id="line2d_17">
      <defs>
       <path d="M 0 0 
L -2 0 
" id="m859212dd78" style="stroke:#000000;stroke-width:0.6;"/>
      </defs>
      <g>
       <use style="stroke:#000000;stroke-width:0.6;" x="57.6" xlink:href="#m859212dd78" y="296.456056"/>
      </g>
     </g>
    </g>
    <g id="ytick_4">
     <g id="line2d_18">
      <g>
       <use style="stroke:#000000;stroke-width:0.6;" x="57.6" xlink:href="#m859212dd78" y="283.724671"/>
      </g>
     </g>
    </g>
    <g id="ytick_5">
     <g id="line2d_19">
      <g>
       <use style="stroke:#000000;stroke-width:0.6;" x="57.6" xlink:href="#m859212dd78" y="273.849441"/>
      </g>
     </g>
    </g>
    <g id="ytick_6">
     <g id="line2d_20">
      <g>
       <use style="stroke:#000000;stroke-width:0.6;" x="57.6" xlink:href="#m859212dd78" y="265.78079"/>
      </g>
     </g>
    </g>
    <g id="ytick_7">
     <g id="line2d_21">
      <g>
       <use style="stroke:#000000;stroke-width:0.6;" x="57.6" xlink:href="#m859212dd78" y="258.958843"/>
      </g>
     </g>
    </g>
    <g id="ytick_8">
     <g id="line2d_22">
      <g>
       <use style="stroke:#000000;stroke-width:0.6;" x="57.6" xlink:href="#m859212dd78" y="253.049404"/>
      </g>
     </g>
    </g>
    <g id="ytick_9">
     <g id="line2d_23">
      <g>
       <use style="stroke:#000000;stroke-width:0.6;" x="57.6" xlink:href="#m859212dd78" y="247.83691"/>
      </g>
     </g>
    </g>
    <g id="ytick_10">
     <g id="line2d_24">
      <g>
       <use style="stroke:#000000;stroke-width:0.6;" x="57.6" xlink:href="#m859212dd78" y="212.498908"/>
      </g>
     </g>
    </g>
    <g id="ytick_11">
     <g id="line2d_25">
      <g>
       <use style="stroke:#000000;stroke-width:0.6;" x="57.6" xlink:href="#m859212dd78" y="194.555027"/>
      </g>
     </g>
    </g>
    <g id="ytick_12">
     <g id="line2d_26">
      <g>
       <use style="stroke:#000000;stroke-width:0.6;" x="57.6" xlink:href="#m859212dd78" y="181.823642"/>
      </g>
     </g>
    </g>
    <g id="ytick_13">
     <g id="line2d_27">
      <g>
       <use style="stroke:#000000;stroke-width:0.6;" x="57.6" xlink:href="#m859212dd78" y="171.948412"/>
      </g>
     </g>
    </g>
    <g id="ytick_14">
     <g id="line2d_28">
      <g>
       <use style="stroke:#000000;stroke-width:0.6;" x="57.6" xlink:href="#m859212dd78" y="163.879761"/>
      </g>
     </g>
    </g>
    <g id="ytick_15">
     <g id="line2d_29">
      <g>
       <use style="stroke:#000000;stroke-width:0.6;" x="57.6" xlink:href="#m859212dd78" y="157.057814"/>
      </g>
     </g>
    </g>
    <g id="ytick_16">
     <g id="line2d_30">
      <g>
       <use style="stroke:#000000;stroke-width:0.6;" x="57.6" xlink:href="#m859212dd78" y="151.148375"/>
      </g>
     </g>
    </g>
    <g id="ytick_17">
     <g id="line2d_31">
      <g>
       <use style="stroke:#000000;stroke-width:0.6;" x="57.6" xlink:href="#m859212dd78" y="145.935881"/>
      </g>
     </g>
    </g>
    <g id="ytick_18">
     <g id="line2d_32">
      <g>
       <use style="stroke:#000000;stroke-width:0.6;" x="57.6" xlink:href="#m859212dd78" y="110.597879"/>
      </g>
     </g>
    </g>
    <g id="ytick_19">
     <g id="line2d_33">
      <g>
       <use style="stroke:#000000;stroke-width:0.6;" x="57.6" xlink:href="#m859212dd78" y="92.653999"/>
      </g>
     </g>
    </g>
    <g id="ytick_20">
     <g id="line2d_34">
      <g>
       <use style="stroke:#000000;stroke-width:0.6;" x="57.6" xlink:href="#m859212dd78" y="79.922613"/>
      </g>
     </g>
    </g>
    <g id="ytick_21">
     <g id="line2d_35">
      <g>
       <use style="stroke:#000000;stroke-width:0.6;" x="57.6" xlink:href="#m859212dd78" y="70.047383"/>
      </g>
     </g>
    </g>
    <g id="ytick_22">
     <g id="line2d_36">
      <g>
       <use style="stroke:#000000;stroke-width:0.6;" x="57.6" xlink:href="#m859212dd78" y="61.978732"/>
      </g>
     </g>
    </g>
    <g id="ytick_23">
     <g id="line2d_37">
      <g>
       <use style="stroke:#000000;stroke-width:0.6;" x="57.6" xlink:href="#m859212dd78" y="55.156786"/>
      </g>
     </g>
    </g>
    <g id="ytick_24">
     <g id="line2d_38">
      <g>
       <use style="stroke:#000000;stroke-width:0.6;" x="57.6" xlink:href="#m859212dd78" y="49.247347"/>
      </g>
     </g>
    </g>
    <g id="ytick_25">
     <g id="line2d_39">
      <g>
       <use style="stroke:#000000;stroke-width:0.6;" x="57.6" xlink:href="#m859212dd78" y="44.034852"/>
      </g>
     </g>
    </g>
    <g id="text_10">
     <!-- $\mathrm{Relative \ error}$ ($N_{\mathrm{train}}=20$) -->
     <defs>
      <path d="M 44.390625 34.1875 
Q 47.5625 33.109375 50.5625 29.59375 
Q 53.5625 26.078125 56.59375 19.921875 
L 66.609375 0 
L 56 0 
L 46.6875 18.703125 
Q 43.0625 26.03125 39.671875 28.421875 
Q 36.28125 30.8125 30.421875 30.8125 
L 19.671875 30.8125 
L 19.671875 0 
L 9.8125 0 
L 9.8125 72.90625 
L 32.078125 72.90625 
Q 44.578125 72.90625 50.734375 67.671875 
Q 56.890625 62.453125 56.890625 51.90625 
Q 56.890625 45.015625 53.6875 40.46875 
Q 50.484375 35.9375 44.390625 34.1875 
z
M 19.671875 64.796875 
L 19.671875 38.921875 
L 32.078125 38.921875 
Q 39.203125 38.921875 42.84375 42.21875 
Q 46.484375 45.515625 46.484375 51.90625 
Q 46.484375 58.296875 42.84375 61.546875 
Q 39.203125 64.796875 32.078125 64.796875 
z
" id="DejaVuSans-82"/>
      <path d="M 9.421875 75.984375 
L 18.40625 75.984375 
L 18.40625 0 
L 9.421875 0 
z
" id="DejaVuSans-108"/>
      <path d="M 34.28125 27.484375 
Q 23.390625 27.484375 19.1875 25 
Q 14.984375 22.515625 14.984375 16.5 
Q 14.984375 11.71875 18.140625 8.90625 
Q 21.296875 6.109375 26.703125 6.109375 
Q 34.1875 6.109375 38.703125 11.40625 
Q 43.21875 16.703125 43.21875 25.484375 
L 43.21875 27.484375 
z
M 52.203125 31.203125 
L 52.203125 0 
L 43.21875 0 
L 43.21875 8.296875 
Q 40.140625 3.328125 35.546875 0.953125 
Q 30.953125 -1.421875 24.3125 -1.421875 
Q 15.921875 -1.421875 10.953125 3.296875 
Q 6 8.015625 6 15.921875 
Q 6 25.140625 12.171875 29.828125 
Q 18.359375 34.515625 30.609375 34.515625 
L 43.21875 34.515625 
L 43.21875 35.40625 
Q 43.21875 41.609375 39.140625 45 
Q 35.0625 48.390625 27.6875 48.390625 
Q 23 48.390625 18.546875 47.265625 
Q 14.109375 46.140625 10.015625 43.890625 
L 10.015625 52.203125 
Q 14.9375 54.109375 19.578125 55.046875 
Q 24.21875 56 28.609375 56 
Q 40.484375 56 46.34375 49.84375 
Q 52.203125 43.703125 52.203125 31.203125 
z
" id="DejaVuSans-97"/>
      <path d="M 18.3125 70.21875 
L 18.3125 54.6875 
L 36.8125 54.6875 
L 36.8125 47.703125 
L 18.3125 47.703125 
L 18.3125 18.015625 
Q 18.3125 11.328125 20.140625 9.421875 
Q 21.96875 7.515625 27.59375 7.515625 
L 36.8125 7.515625 
L 36.8125 0 
L 27.59375 0 
Q 17.1875 0 13.234375 3.875 
Q 9.28125 7.765625 9.28125 18.015625 
L 9.28125 47.703125 
L 2.6875 47.703125 
L 2.6875 54.6875 
L 9.28125 54.6875 
L 9.28125 70.21875 
z
" id="DejaVuSans-116"/>
      <path d="M 2.984375 54.6875 
L 12.5 54.6875 
L 29.59375 8.796875 
L 46.6875 54.6875 
L 56.203125 54.6875 
L 35.6875 0 
L 23.484375 0 
z
" id="DejaVuSans-118"/>
      <path d="M 41.109375 46.296875 
Q 39.59375 47.171875 37.8125 47.578125 
Q 36.03125 48 33.890625 48 
Q 26.265625 48 22.1875 43.046875 
Q 18.109375 38.09375 18.109375 28.8125 
L 18.109375 0 
L 9.078125 0 
L 9.078125 54.6875 
L 18.109375 54.6875 
L 18.109375 46.1875 
Q 20.953125 51.171875 25.484375 53.578125 
Q 30.03125 56 36.53125 56 
Q 37.453125 56 38.578125 55.875 
Q 39.703125 55.765625 41.0625 55.515625 
z
" id="DejaVuSans-114"/>
      <path id="DejaVuSans-32"/>
      <path d="M 16.890625 72.90625 
L 30.171875 72.90625 
L 50.296875 10.40625 
L 62.5 72.90625 
L 72.125 72.90625 
L 57.90625 0 
L 44.578125 0 
L 24.515625 62.890625 
L 12.3125 0 
L 2.6875 0 
z
" id="DejaVuSans-Oblique-78"/>
      <path d="M 10.59375 45.40625 
L 73.1875 45.40625 
L 73.1875 37.203125 
L 10.59375 37.203125 
z
M 10.59375 25.484375 
L 73.1875 25.484375 
L 73.1875 17.1875 
L 10.59375 17.1875 
z
" id="DejaVuSans-61"/>
     </defs>
     <g transform="translate(21.020312 238.878)rotate(-90)scale(0.1 -0.1)">
      <use transform="translate(0 0.015625)" xlink:href="#DejaVuSans-82"/>
      <use transform="translate(69.482422 0.015625)" xlink:href="#DejaVuSans-101"/>
      <use transform="translate(131.005859 0.015625)" xlink:href="#DejaVuSans-108"/>
      <use transform="translate(158.789062 0.015625)" xlink:href="#DejaVuSans-97"/>
      <use transform="translate(220.068359 0.015625)" xlink:href="#DejaVuSans-116"/>
      <use transform="translate(259.277344 0.015625)" xlink:href="#DejaVuSans-105"/>
      <use transform="translate(287.060547 0.015625)" xlink:href="#DejaVuSans-118"/>
      <use transform="translate(346.240234 0.015625)" xlink:href="#DejaVuSans-101"/>
      <use transform="translate(440.23405 0.015625)" xlink:href="#DejaVuSans-101"/>
      <use transform="translate(501.757488 0.015625)" xlink:href="#DejaVuSans-114"/>
      <use transform="translate(542.870769 0.015625)" xlink:href="#DejaVuSans-114"/>
      <use transform="translate(583.98405 0.015625)" xlink:href="#DejaVuSans-111"/>
      <use transform="translate(645.165691 0.015625)" xlink:href="#DejaVuSans-114"/>
      <use transform="translate(686.278972 0.015625)" xlink:href="#DejaVuSans-32"/>
      <use transform="translate(718.066082 0.015625)" xlink:href="#DejaVuSans-40"/>
      <use transform="translate(757.079753 0.015625)" xlink:href="#DejaVuSans-Oblique-78"/>
      <use transform="translate(831.884441 -16.390625)scale(0.7)" xlink:href="#DejaVuSans-116"/>
      <use transform="translate(859.33073 -16.390625)scale(0.7)" xlink:href="#DejaVuSans-114"/>
      <use transform="translate(888.110027 -16.390625)scale(0.7)" xlink:href="#DejaVuSans-97"/>
      <use transform="translate(931.005535 -16.390625)scale(0.7)" xlink:href="#DejaVuSans-105"/>
      <use transform="translate(950.453777 -16.390625)scale(0.7)" xlink:href="#DejaVuSans-110"/>
      <use transform="translate(1017.035808 0.015625)" xlink:href="#DejaVuSans-61"/>
      <use transform="translate(1120.307292 0.015625)" xlink:href="#DejaVuSans-50"/>
      <use transform="translate(1183.930339 0.015625)" xlink:href="#DejaVuSans-48"/>
      <use transform="translate(1247.553386 0.015625)" xlink:href="#DejaVuSans-41"/>
     </g>
    </g>
   </g>
   <g id="line2d_40">
    <path clip-path="url(#p852170a7c5)" d="M 73.832724 276.07659 
L 77.145522 258.71808 
L 80.458321 245.800789 
L 83.771119 235.551273 
L 87.083917 227.193976 
L 90.396716 220.299005 
L 93.709554 214.575623 
L 97.022352 209.797958 
L 100.33515 205.782962 
L 103.647949 202.382449 
L 106.960747 199.47645 
L 110.273545 196.969221 
L 113.586344 194.787982 
L 116.899142 192.877683 
L 120.21194 191.195149 
L 123.524738 189.70733 
L 126.837537 188.387306 
L 130.150375 187.213341 
L 133.463173 186.166772 
L 136.775971 185.229734 
L 140.08877 184.385212 
L 143.401568 183.618178 
L 146.714366 182.914568 
L 150.027165 182.266105 
L 153.339963 181.668191 
L 156.652761 181.117604 
L 159.96556 180.612425 
L 163.278358 180.152131 
L 166.591156 179.736271 
L 169.903955 179.364457 
L 173.216753 179.036609 
L 176.529551 178.753461 
L 179.842389 178.516173 
L 183.155187 178.325319 
L 186.467986 178.18035 
L 189.780784 178.079295 
L 193.093582 178.017757 
L 199.719179 177.980925 
L 206.344776 177.9697 
L 209.657574 177.928484 
L 212.970412 177.837353 
L 216.28321 177.679556 
L 219.596008 177.44348 
L 222.908807 177.123271 
L 226.221605 176.718028 
L 229.534403 176.230535 
L 232.847202 175.666064 
L 236.16 175.031426 
L 239.472798 174.334316 
L 242.785597 173.582831 
L 246.098395 172.7852 
L 252.723992 171.084154 
L 262.662387 168.383098 
L 272.600821 165.66161 
L 279.226418 163.901892 
L 285.852014 162.214585 
L 292.477651 160.612481 
L 299.103247 159.101219 
L 305.728844 157.681374 
L 312.35444 156.350391 
L 318.980037 155.10567 
L 325.605634 153.945868 
L 332.23123 152.870605 
L 338.856827 151.881687 
L 345.482424 150.983081 
L 352.10806 150.180615 
L 358.733656 149.481707 
L 365.359253 148.894967 
L 368.672051 148.646707 
L 371.984889 148.430286 
L 375.297688 148.246969 
L 378.610486 148.097834 
L 381.923284 147.983501 
L 385.236083 147.903849 
L 388.548881 147.857482 
L 395.174478 147.849574 
L 398.487276 147.875205 
" style="fill:none;stroke:#ff0000;stroke-linecap:square;stroke-width:1.5;"/>
   </g>
   <g id="line2d_41">
    <path clip-path="url(#p852170a7c5)" d="M 73.832724 266.335978 
L 77.145522 249.202592 
L 80.458321 236.663853 
L 83.771119 226.940252 
L 87.083917 219.24524 
L 90.396716 213.122403 
L 93.709554 208.241963 
L 97.022352 204.344169 
L 100.33515 201.213905 
L 103.647949 198.678783 
L 106.960747 196.602306 
L 110.273545 194.877912 
L 113.586344 193.426486 
L 116.899142 192.188845 
L 120.21194 191.122761 
L 123.524738 190.198324 
L 126.837537 189.391993 
L 130.150375 188.685066 
L 133.463173 188.061583 
L 136.775971 187.509522 
L 140.08877 187.020206 
L 143.401568 186.586578 
L 146.714366 186.200116 
L 153.339963 185.529099 
L 163.278358 184.649129 
L 173.216753 183.772074 
L 179.842389 183.134935 
L 186.467986 182.435517 
L 193.093582 181.662655 
L 199.719179 180.810709 
L 206.344776 179.882307 
L 212.970412 178.879417 
L 219.596008 177.793927 
L 226.221605 176.61508 
L 232.847202 175.337534 
L 239.472798 173.967217 
L 246.098395 172.525705 
L 262.662387 168.871017 
L 269.288023 167.501332 
L 275.913619 166.233335 
L 282.539216 165.080509 
L 289.164852 164.042658 
L 295.790449 163.110672 
L 302.416045 162.27101 
L 309.041642 161.509276 
L 315.667239 160.813039 
L 322.292835 160.174211 
L 328.918432 159.591174 
L 335.544029 159.067229 
L 342.169625 158.608012 
L 348.795222 158.221404 
L 355.420858 157.916319 
L 362.046455 157.700932 
L 368.672051 157.581948 
L 375.297688 157.568075 
L 381.923284 157.666214 
L 388.548881 157.855703 
L 395.174478 158.062589 
L 398.487276 158.142654 
" style="fill:none;stroke:#0000ff;stroke-linecap:square;stroke-width:1.5;"/>
   </g>
   <g id="line2d_42">
    <path clip-path="url(#p852170a7c5)" d="M 73.832724 154.460463 
L 77.145522 138.334824 
L 80.458321 126.603937 
L 83.771119 117.417109 
L 87.083917 109.945576 
L 90.396716 103.735383 
L 93.709554 98.499355 
L 97.022352 94.036367 
L 100.33515 90.196663 
L 103.647949 86.86505 
L 106.960747 83.951471 
L 110.273545 81.384804 
L 113.586344 79.108425 
L 116.899142 77.076942 
L 120.21194 75.253646 
L 123.524738 73.608673 
L 126.837537 72.117511 
L 130.150375 70.759939 
L 133.463173 69.519068 
L 136.775971 68.380778 
L 140.08877 67.333162 
L 143.401568 66.366107 
L 146.714366 65.470992 
L 150.027165 64.64039 
L 153.339963 63.867928 
L 156.652761 63.148076 
L 159.96556 62.475988 
L 163.278358 61.847488 
L 166.591156 61.258864 
L 169.903955 60.706882 
L 176.529551 59.70171 
L 183.155187 58.81275 
L 189.780784 58.024921 
L 196.406381 57.326363 
L 203.031977 56.707872 
L 209.657574 56.162494 
L 216.28321 55.685363 
L 222.908807 55.273478 
L 229.534403 54.925656 
L 236.16 54.642229 
L 242.785597 54.424352 
L 249.411193 54.272725 
L 256.03679 54.18569 
L 262.662387 54.157482 
L 269.288023 54.177562 
L 279.226418 54.2672 
L 305.728844 54.552885 
L 318.980037 54.626085 
L 335.544029 54.647865 
L 385.236083 54.641782 
L 398.487276 54.710511 
" style="fill:none;stroke:#00ffff;stroke-linecap:square;stroke-width:1.5;"/>
   </g>
   <g id="patch_3">
    <path d="M 57.6 307.584 
L 57.6 41.472 
" style="fill:none;stroke:#000000;stroke-linecap:square;stroke-linejoin:miter;stroke-width:0.8;"/>
   </g>
   <g id="patch_4">
    <path d="M 414.72 307.584 
L 414.72 41.472 
" style="fill:none;stroke:#000000;stroke-linecap:square;stroke-linejoin:miter;stroke-width:0.8;"/>
   </g>
   <g id="patch_5">
    <path d="M 57.6 307.584 
L 414.72 307.584 
" style="fill:none;stroke:#000000;stroke-linecap:square;stroke-linejoin:miter;stroke-width:0.8;"/>
   </g>
   <g id="patch_6">
    <path d="M 57.6 41.472 
L 414.72 41.472 
" style="fill:none;stroke:#000000;stroke-linecap:square;stroke-linejoin:miter;stroke-width:0.8;"/>
   </g>
   <g id="legend_1">
    <g id="patch_7">
     <path d="M 289.835625 302.584 
L 407.72 302.584 
Q 409.72 302.584 409.72 300.584 
L 409.72 257.549625 
Q 409.72 255.549625 407.72 255.549625 
L 289.835625 255.549625 
Q 287.835625 255.549625 287.835625 257.549625 
L 287.835625 300.584 
Q 287.835625 302.584 289.835625 302.584 
z
" style="fill:#ffffff;opacity:0.8;stroke:#cccccc;stroke-linejoin:miter;"/>
    </g>
    <g id="line2d_43">
     <path d="M 291.835625 263.648062 
L 311.835625 263.648062 
" style="fill:none;stroke:#ff0000;stroke-linecap:square;stroke-width:1.5;"/>
    </g>
    <g id="line2d_44"/>
    <g id="text_11">
     <!-- No grad. reg. -->
     <defs>
      <path d="M 9.8125 72.90625 
L 23.09375 72.90625 
L 55.421875 11.921875 
L 55.421875 72.90625 
L 64.984375 72.90625 
L 64.984375 0 
L 51.703125 0 
L 19.390625 60.984375 
L 19.390625 0 
L 9.8125 0 
z
" id="DejaVuSans-78"/>
      <path d="M 45.40625 27.984375 
Q 45.40625 37.75 41.375 43.109375 
Q 37.359375 48.484375 30.078125 48.484375 
Q 22.859375 48.484375 18.828125 43.109375 
Q 14.796875 37.75 14.796875 27.984375 
Q 14.796875 18.265625 18.828125 12.890625 
Q 22.859375 7.515625 30.078125 7.515625 
Q 37.359375 7.515625 41.375 12.890625 
Q 45.40625 18.265625 45.40625 27.984375 
z
M 54.390625 6.78125 
Q 54.390625 -7.171875 48.1875 -13.984375 
Q 42 -20.796875 29.203125 -20.796875 
Q 24.46875 -20.796875 20.265625 -20.09375 
Q 16.0625 -19.390625 12.109375 -17.921875 
L 12.109375 -9.1875 
Q 16.0625 -11.328125 19.921875 -12.34375 
Q 23.78125 -13.375 27.78125 -13.375 
Q 36.625 -13.375 41.015625 -8.765625 
Q 45.40625 -4.15625 45.40625 5.171875 
L 45.40625 9.625 
Q 42.625 4.78125 38.28125 2.390625 
Q 33.9375 0 27.875 0 
Q 17.828125 0 11.671875 7.65625 
Q 5.515625 15.328125 5.515625 27.984375 
Q 5.515625 40.671875 11.671875 48.328125 
Q 17.828125 56 27.875 56 
Q 33.9375 56 38.28125 53.609375 
Q 42.625 51.21875 45.40625 46.390625 
L 45.40625 54.6875 
L 54.390625 54.6875 
z
" id="DejaVuSans-103"/>
     </defs>
     <g transform="translate(319.835625 267.148062)scale(0.1 -0.1)">
      <use xlink:href="#DejaVuSans-78"/>
      <use x="74.804688" xlink:href="#DejaVuSans-111"/>
      <use x="135.986328" xlink:href="#DejaVuSans-32"/>
      <use x="167.773438" xlink:href="#DejaVuSans-103"/>
      <use x="231.25" xlink:href="#DejaVuSans-114"/>
      <use x="272.363281" xlink:href="#DejaVuSans-97"/>
      <use x="333.642578" xlink:href="#DejaVuSans-100"/>
      <use x="397.119141" xlink:href="#DejaVuSans-46"/>
      <use x="428.90625" xlink:href="#DejaVuSans-32"/>
      <use x="460.693359" xlink:href="#DejaVuSans-114"/>
      <use x="501.775391" xlink:href="#DejaVuSans-101"/>
      <use x="563.298828" xlink:href="#DejaVuSans-103"/>
      <use x="626.775391" xlink:href="#DejaVuSans-46"/>
     </g>
    </g>
    <g id="line2d_45">
     <path d="M 291.835625 278.326188 
L 311.835625 278.326188 
" style="fill:none;stroke:#0000ff;stroke-linecap:square;stroke-width:1.5;"/>
    </g>
    <g id="line2d_46"/>
    <g id="text_12">
     <!-- Grad. reg -->
     <defs>
      <path d="M 59.515625 10.40625 
L 59.515625 29.984375 
L 43.40625 29.984375 
L 43.40625 38.09375 
L 69.28125 38.09375 
L 69.28125 6.78125 
Q 63.578125 2.734375 56.6875 0.65625 
Q 49.8125 -1.421875 42 -1.421875 
Q 24.90625 -1.421875 15.25 8.5625 
Q 5.609375 18.5625 5.609375 36.375 
Q 5.609375 54.25 15.25 64.234375 
Q 24.90625 74.21875 42 74.21875 
Q 49.125 74.21875 55.546875 72.453125 
Q 61.96875 70.703125 67.390625 67.28125 
L 67.390625 56.78125 
Q 61.921875 61.421875 55.765625 63.765625 
Q 49.609375 66.109375 42.828125 66.109375 
Q 29.4375 66.109375 22.71875 58.640625 
Q 16.015625 51.171875 16.015625 36.375 
Q 16.015625 21.625 22.71875 14.15625 
Q 29.4375 6.6875 42.828125 6.6875 
Q 48.046875 6.6875 52.140625 7.59375 
Q 56.25 8.5 59.515625 10.40625 
z
" id="DejaVuSans-71"/>
     </defs>
     <g transform="translate(319.835625 281.826188)scale(0.1 -0.1)">
      <use xlink:href="#DejaVuSans-71"/>
      <use x="77.490234" xlink:href="#DejaVuSans-114"/>
      <use x="118.603516" xlink:href="#DejaVuSans-97"/>
      <use x="179.882812" xlink:href="#DejaVuSans-100"/>
      <use x="243.359375" xlink:href="#DejaVuSans-46"/>
      <use x="275.146484" xlink:href="#DejaVuSans-32"/>
      <use x="306.933594" xlink:href="#DejaVuSans-114"/>
      <use x="348.015625" xlink:href="#DejaVuSans-101"/>
      <use x="409.539062" xlink:href="#DejaVuSans-103"/>
     </g>
    </g>
    <g id="line2d_47">
     <path d="M 291.835625 293.004312 
L 311.835625 293.004312 
" style="fill:none;stroke:#00ffff;stroke-linecap:square;stroke-width:1.5;"/>
    </g>
    <g id="line2d_48"/>
    <g id="text_13">
     <!-- Second grad. reg -->
     <defs>
      <path d="M 53.515625 70.515625 
L 53.515625 60.890625 
Q 47.90625 63.578125 42.921875 64.890625 
Q 37.9375 66.21875 33.296875 66.21875 
Q 25.25 66.21875 20.875 63.09375 
Q 16.5 59.96875 16.5 54.203125 
Q 16.5 49.359375 19.40625 46.890625 
Q 22.3125 44.4375 30.421875 42.921875 
L 36.375 41.703125 
Q 47.40625 39.59375 52.65625 34.296875 
Q 57.90625 29 57.90625 20.125 
Q 57.90625 9.515625 50.796875 4.046875 
Q 43.703125 -1.421875 29.984375 -1.421875 
Q 24.8125 -1.421875 18.96875 -0.25 
Q 13.140625 0.921875 6.890625 3.21875 
L 6.890625 13.375 
Q 12.890625 10.015625 18.65625 8.296875 
Q 24.421875 6.59375 29.984375 6.59375 
Q 38.421875 6.59375 43.015625 9.90625 
Q 47.609375 13.234375 47.609375 19.390625 
Q 47.609375 24.75 44.3125 27.78125 
Q 41.015625 30.8125 33.5 32.328125 
L 27.484375 33.5 
Q 16.453125 35.6875 11.515625 40.375 
Q 6.59375 45.0625 6.59375 53.421875 
Q 6.59375 63.09375 13.40625 68.65625 
Q 20.21875 74.21875 32.171875 74.21875 
Q 37.3125 74.21875 42.625 73.28125 
Q 47.953125 72.359375 53.515625 70.515625 
z
" id="DejaVuSans-83"/>
     </defs>
     <g transform="translate(319.835625 296.504312)scale(0.1 -0.1)">
      <use xlink:href="#DejaVuSans-83"/>
      <use x="63.476562" xlink:href="#DejaVuSans-101"/>
      <use x="125" xlink:href="#DejaVuSans-99"/>
      <use x="179.980469" xlink:href="#DejaVuSans-111"/>
      <use x="241.162109" xlink:href="#DejaVuSans-110"/>
      <use x="304.541016" xlink:href="#DejaVuSans-100"/>
      <use x="368.017578" xlink:href="#DejaVuSans-32"/>
      <use x="399.804688" xlink:href="#DejaVuSans-103"/>
      <use x="463.28125" xlink:href="#DejaVuSans-114"/>
      <use x="504.394531" xlink:href="#DejaVuSans-97"/>
      <use x="565.673828" xlink:href="#DejaVuSans-100"/>
      <use x="629.150391" xlink:href="#DejaVuSans-46"/>
      <use x="660.9375" xlink:href="#DejaVuSans-32"/>
      <use x="692.724609" xlink:href="#DejaVuSans-114"/>
      <use x="733.806641" xlink:href="#DejaVuSans-101"/>
      <use x="795.330078" xlink:href="#DejaVuSans-103"/>
     </g>
    </g>
   </g>
  </g>
 </g>
 <defs>
  <clipPath id="p852170a7c5">
   <rect height="266.112" width="357.12" x="57.6" y="41.472"/>
  </clipPath>
 </defs>
</svg>
