<?xml version="1.0" encoding="utf-8" standalone="no"?>
<!DOCTYPE svg PUBLIC "-//W3C//DTD SVG 1.1//EN"
  "http://www.w3.org/Graphics/SVG/1.1/DTD/svg11.dtd">
<!-- Created with matplotlib (https://matplotlib.org/) -->
<svg height="345.6pt" version="1.1" viewBox="0 0 460.8 345.6" width="460.8pt" xmlns="http://www.w3.org/2000/svg" xmlns:xlink="http://www.w3.org/1999/xlink">
 <defs>
  <style type="text/css">
*{stroke-linecap:butt;stroke-linejoin:round;white-space:pre;}
  </style>
 </defs>
 <g id="figure_1">
  <g id="patch_1">
   <path d="M 0 345.6 
L 460.8 345.6 
L 460.8 0 
L 0 0 
z
" style="fill:#ffffff;"/>
  </g>
  <g id="axes_1">
   <g id="patch_2">
    <path d="M 57.6 307.584 
L 414.72 307.584 
L 414.72 41.472 
L 57.6 41.472 
z
" style="fill:#ffffff;"/>
   </g>
   <g id="PolyCollection_1">
    <path clip-path="url(#p41e3ff5575)" d="M 73.832727 268.773413 
L 73.832727 295.488 
L 77.145529 276.888359 
L 80.45833 263.155097 
L 83.771132 252.308321 
L 87.083933 243.4971 
L 90.396735 236.231054 
L 93.709536 230.1737 
L 97.022338 225.071267 
L 100.335139 220.724239 
L 103.647941 216.973717 
L 106.960742 213.694771 
L 110.273544 210.789185 
L 113.586345 208.180022 
L 116.899147 205.805116 
L 120.211948 203.613386 
L 123.52475 201.566879 
L 126.837551 199.639531 
L 130.150353 197.811512 
L 133.463154 196.070499 
L 136.775955 194.407244 
L 140.088757 192.815207 
L 143.401558 191.290936 
L 146.71436 189.834034 
L 150.027161 188.442482 
L 153.339963 187.114724 
L 156.652764 185.849964 
L 159.965566 184.644718 
L 163.278367 183.497673 
L 166.591169 182.408105 
L 169.90397 181.37467 
L 173.216772 180.395287 
L 176.529573 179.467451 
L 179.842375 178.588984 
L 183.155176 177.75843 
L 186.467978 176.975075 
L 189.780779 176.237948 
L 193.093581 175.545552 
L 196.406382 174.895829 
L 199.719184 174.28651 
L 203.031985 173.715359 
L 206.344787 173.180244 
L 209.657588 172.678335 
L 212.97039 172.205843 
L 216.283191 171.758213 
L 219.595993 171.330657 
L 222.908794 170.918359 
L 226.221596 170.515848 
L 229.534397 170.116869 
L 232.847199 169.714432 
L 236.16 169.30134 
L 239.472801 168.870666 
L 242.785603 168.416267 
L 246.098404 167.933763 
L 249.411206 167.420777 
L 252.724007 166.876876 
L 256.036809 166.30345 
L 259.34961 165.703444 
L 262.662412 165.080726 
L 265.975213 164.439688 
L 269.288015 163.78476 
L 272.600816 163.120068 
L 275.913618 162.449215 
L 279.226419 161.775302 
L 282.539221 161.100923 
L 285.852022 160.428158 
L 289.164824 159.75857 
L 292.477625 159.093255 
L 295.790427 158.432972 
L 299.103228 157.778223 
L 302.41603 157.129486 
L 305.728831 156.48741 
L 309.041633 155.852831 
L 312.354434 155.226606 
L 315.667236 154.609619 
L 318.980037 154.002766 
L 322.292839 153.40688 
L 325.60564 152.822581 
L 328.918442 152.250282 
L 332.231243 151.69059 
L 335.544045 151.144231 
L 338.856846 150.611889 
L 342.169647 150.09424 
L 345.482449 149.592185 
L 348.79525 149.106948 
L 352.108052 148.639888 
L 355.420853 148.192321 
L 358.733655 147.765603 
L 362.046456 147.36115 
L 365.359258 146.980437 
L 368.672059 146.625083 
L 371.984861 146.296727 
L 375.297662 145.996966 
L 378.610464 145.727368 
L 381.923265 145.489519 
L 385.236067 145.284849 
L 388.548868 145.114366 
L 391.86167 144.978763 
L 395.174471 144.878563 
L 398.487273 144.813919 
L 398.487273 129.808891 
L 398.487273 129.808891 
L 395.174471 129.937778 
L 391.86167 130.087686 
L 388.548868 130.259324 
L 385.236067 130.453109 
L 381.923265 130.669137 
L 378.610464 130.907249 
L 375.297662 131.167074 
L 371.984861 131.448046 
L 368.672059 131.749449 
L 365.359258 132.070447 
L 362.046456 132.410159 
L 358.733655 132.767651 
L 355.420853 133.141917 
L 352.108052 133.531935 
L 348.79525 133.936731 
L 345.482449 134.355371 
L 342.169647 134.786956 
L 338.856846 135.230601 
L 335.544045 135.685472 
L 332.231243 136.150997 
L 328.918442 136.626682 
L 325.60564 137.112046 
L 322.292839 137.606757 
L 318.980037 138.110698 
L 315.667236 138.623853 
L 312.354434 139.146167 
L 309.041633 139.677614 
L 305.728831 140.218142 
L 302.41603 140.767586 
L 299.103228 141.325618 
L 295.790427 141.891722 
L 292.477625 142.465189 
L 289.164824 143.045078 
L 285.852022 143.630153 
L 282.539221 144.218673 
L 279.226419 144.808221 
L 275.913618 145.395626 
L 272.600816 145.976925 
L 269.288015 146.547365 
L 265.975213 147.101341 
L 262.662412 147.63238 
L 259.34961 148.133187 
L 256.036809 148.595672 
L 252.724007 149.011252 
L 249.411206 149.371383 
L 246.098404 149.668507 
L 242.785603 149.897176 
L 239.472801 150.055234 
L 236.16 150.145284 
L 232.847199 150.175959 
L 229.534397 150.161871 
L 226.221596 150.121791 
L 222.908794 150.075711 
L 219.595993 150.042248 
L 216.283191 150.036528 
L 212.97039 150.069197 
L 209.657588 150.146931 
L 206.344787 150.273471 
L 203.031985 150.450709 
L 199.719184 150.679729 
L 196.406382 150.960995 
L 193.093581 151.294396 
L 189.780779 151.679219 
L 186.467978 152.114367 
L 183.155176 152.598597 
L 179.842375 153.130857 
L 176.529573 153.710309 
L 173.216772 154.336557 
L 169.90397 155.009997 
L 166.591169 155.731259 
L 163.278367 156.501386 
L 159.965566 157.321709 
L 156.652764 158.194635 
L 153.339963 159.123103 
L 150.027161 160.110562 
L 146.71436 161.160832 
L 143.401558 162.278569 
L 140.088757 163.470088 
L 136.775955 164.744863 
L 133.463154 166.113541 
L 130.150353 167.590093 
L 126.837551 169.19266 
L 123.52475 170.943896 
L 120.211948 172.875634 
L 116.899147 175.027745 
L 113.586345 177.44271 
L 110.273544 180.167299 
L 106.960742 183.259823 
L 103.647941 186.79377 
L 100.335139 190.861435 
L 97.022338 195.58256 
L 93.709536 201.107873 
L 90.396735 207.627004 
L 87.083933 215.373545 
L 83.771132 224.649359 
L 80.45833 235.905681 
L 77.145529 249.971564 
L 73.832727 268.773413 
z
" style="fill:#ffa500;fill-opacity:0.4;"/>
   </g>
   <g id="PolyCollection_2">
    <path clip-path="url(#p41e3ff5575)" d="M 73.832727 198.733947 
L 73.832727 216.621576 
L 77.145529 197.257203 
L 80.45833 182.739794 
L 83.771132 171.106315 
L 87.083933 161.493104 
L 90.396735 153.433114 
L 93.709536 146.624754 
L 97.022338 140.844054 
L 100.335139 135.912091 
L 103.647941 131.682083 
L 106.960742 128.033528 
L 110.273544 124.869004 
L 113.586345 122.109734 
L 116.899147 119.691936 
L 120.211948 117.563546 
L 123.52475 115.682049 
L 126.837551 114.013208 
L 130.150353 112.529311 
L 133.463154 111.208069 
L 136.775955 110.0313 
L 140.088757 108.983955 
L 143.401558 108.053391 
L 146.71436 107.22894 
L 150.027161 106.501463 
L 153.339963 105.863043 
L 156.652764 105.306853 
L 159.965566 104.826996 
L 163.278367 104.418463 
L 166.591169 104.077127 
L 169.90397 103.799651 
L 173.216772 103.583235 
L 176.529573 103.425633 
L 179.842375 103.325001 
L 183.155176 103.279709 
L 186.467978 103.28805 
L 189.780779 103.347933 
L 193.093581 103.456424 
L 196.406382 103.609242 
L 199.719184 103.800295 
L 203.031985 104.021281 
L 206.344787 104.261285 
L 209.657588 104.506597 
L 212.97039 104.741057 
L 216.283191 104.947124 
L 219.595993 105.107528 
L 222.908794 105.207123 
L 226.221596 105.234408 
L 229.534397 105.182285 
L 232.847199 105.047993 
L 236.16 104.832453 
L 239.472801 104.539416 
L 242.785603 104.174623 
L 246.098404 103.745086 
L 249.411206 103.258509 
L 252.724007 102.722823 
L 256.036809 102.145828 
L 259.34961 101.534966 
L 262.662412 100.897176 
L 265.975213 100.238841 
L 269.288015 99.565759 
L 272.600816 98.883135 
L 275.913618 98.195592 
L 279.226419 97.507199 
L 282.539221 96.821516 
L 285.852022 96.141632 
L 289.164824 95.470202 
L 292.477625 94.80948 
L 295.790427 94.161339 
L 299.103228 93.52731 
L 302.41603 92.908619 
L 305.728831 92.306219 
L 309.041633 91.720847 
L 312.354434 91.153054 
L 315.667236 90.603242 
L 318.980037 90.071688 
L 322.292839 89.558587 
L 325.60564 89.064061 
L 328.918442 88.588192 
L 332.231243 88.131036 
L 335.544045 87.692629 
L 338.856846 87.273023 
L 342.169647 86.872286 
L 345.482449 86.490493 
L 348.79525 86.127699 
L 352.108052 85.783927 
L 355.420853 85.45914 
L 358.733655 85.153287 
L 362.046456 84.866327 
L 365.359258 84.598228 
L 368.672059 84.348956 
L 371.984861 84.118472 
L 375.297662 83.90668 
L 378.610464 83.713398 
L 381.923265 83.538383 
L 385.236067 83.381356 
L 388.548868 83.241988 
L 391.86167 83.119891 
L 395.174471 83.014617 
L 398.487273 82.925637 
L 398.487273 68.540868 
L 398.487273 68.540868 
L 395.174471 68.587931 
L 391.86167 68.650623 
L 388.548868 68.728623 
L 385.236067 68.82161 
L 381.923265 68.929276 
L 378.610464 69.05132 
L 375.297662 69.187457 
L 371.984861 69.337406 
L 368.672059 69.5009 
L 365.359258 69.677685 
L 362.046456 69.867526 
L 358.733655 70.070183 
L 355.420853 70.285395 
L 352.108052 70.512886 
L 348.79525 70.752359 
L 345.482449 71.003491 
L 342.169647 71.265914 
L 338.856846 71.539205 
L 335.544045 71.822884 
L 332.231243 72.116411 
L 328.918442 72.419203 
L 325.60564 72.730631 
L 322.292839 73.050021 
L 318.980037 73.376654 
L 315.667236 73.709743 
L 312.354434 74.048418 
L 309.041633 74.391706 
L 305.728831 74.738505 
L 302.41603 75.087562 
L 299.103228 75.437433 
L 295.790427 75.78645 
L 292.477625 76.132673 
L 289.164824 76.47385 
L 285.852022 76.807373 
L 282.539221 77.130236 
L 279.226419 77.439 
L 275.913618 77.729747 
L 272.600816 77.998067 
L 269.288015 78.239066 
L 265.975213 78.447473 
L 262.662412 78.617852 
L 259.34961 78.744958 
L 256.036809 78.824238 
L 252.724007 78.852512 
L 249.411206 78.828802 
L 246.098404 78.755135 
L 242.785603 78.63709 
L 239.472801 78.483758 
L 236.16 78.306953 
L 232.847199 78.119804 
L 229.534397 77.935184 
L 226.221596 77.764438 
L 222.908794 77.616734 
L 219.595993 77.498966 
L 216.283191 77.416031 
L 212.97039 77.371242 
L 209.657588 77.366739 
L 206.344787 77.403865 
L 203.031985 77.483443 
L 199.719184 77.606057 
L 196.406382 77.77223 
L 193.093581 77.982514 
L 189.780779 78.237578 
L 186.467978 78.53827 
L 183.155176 78.885634 
L 179.842375 79.280915 
L 176.529573 79.725587 
L 173.216772 80.221381 
L 169.90397 80.770296 
L 166.591169 81.374632 
L 163.278367 82.037089 
L 159.965566 82.760871 
L 156.652764 83.549733 
L 153.339963 84.408082 
L 150.027161 85.34112 
L 146.71436 86.355029 
L 143.401558 87.457116 
L 140.088757 88.656198 
L 136.775955 89.962876 
L 133.463154 91.389769 
L 130.150353 92.951973 
L 126.837551 94.66762 
L 123.52475 96.55894 
L 120.211948 98.65324 
L 116.899147 100.984035 
L 113.586345 103.592533 
L 110.273544 106.529479 
L 106.960742 109.857689 
L 103.647941 113.654805 
L 100.335139 118.016244 
L 97.022338 123.058632 
L 93.709536 128.92393 
L 90.396735 135.786262 
L 87.083933 143.867672 
L 83.771132 153.46955 
L 80.45833 165.058083 
L 77.145529 179.492939 
L 73.832727 198.733947 
z
" style="fill:#ff00ff;fill-opacity:0.4;"/>
   </g>
   <g id="PolyCollection_3">
    <path clip-path="url(#p41e3ff5575)" d="M 73.832727 171.918693 
L 73.832727 177.378081 
L 77.145529 158.774701 
L 80.45833 144.948158 
L 83.771132 133.910672 
L 87.083933 124.782374 
L 90.396735 117.088641 
L 93.709536 110.531949 
L 97.022338 104.901972 
L 100.335139 100.037561 
L 103.647941 95.810252 
L 106.960742 92.116122 
L 110.273544 88.870659 
L 113.586345 86.00482 
L 116.899147 83.462046 
L 120.211948 81.195864 
L 123.52475 79.167952 
L 126.837551 77.34654 
L 130.150353 75.705172 
L 133.463154 74.22171 
L 136.775955 72.877576 
L 140.088757 71.657194 
L 143.401558 70.547421 
L 146.71436 69.537124 
L 150.027161 68.616876 
L 153.339963 67.778713 
L 156.652764 67.015902 
L 159.965566 66.322735 
L 163.278367 65.694345 
L 166.591169 65.126574 
L 169.90397 64.615848 
L 173.216772 64.159059 
L 176.529573 63.753527 
L 179.842375 63.396954 
L 183.155176 63.087371 
L 186.467978 62.823132 
L 189.780779 62.60291 
L 193.093581 62.425711 
L 196.406382 62.290798 
L 199.719184 62.197618 
L 203.031985 62.145749 
L 206.344787 62.134799 
L 209.657588 62.164275 
L 212.97039 62.233436 
L 216.283191 62.341081 
L 219.595993 62.485281 
L 222.908794 62.663011 
L 226.221596 62.869749 
L 229.534397 63.099117 
L 232.847199 63.342669 
L 236.16 63.589995 
L 239.472801 63.8293 
L 242.785603 64.048533 
L 246.098404 64.2368 
L 249.411206 64.385602 
L 252.724007 64.489525 
L 256.036809 64.546286 
L 259.34961 64.556287 
L 262.662412 64.52192 
L 265.975213 64.446867 
L 269.288015 64.335494 
L 272.600816 64.192409 
L 275.913618 64.022159 
L 279.226419 63.829044 
L 282.539221 63.61701 
L 285.852022 63.389616 
L 289.164824 63.150023 
L 292.477625 62.901015 
L 295.790427 62.645029 
L 299.103228 62.384188 
L 302.41603 62.120337 
L 305.728831 61.855078 
L 309.041633 61.589804 
L 312.354434 61.325723 
L 315.667236 61.063894 
L 318.980037 60.805241 
L 322.292839 60.550573 
L 325.60564 60.300602 
L 328.918442 60.055959 
L 332.231243 59.817213 
L 335.544045 59.58487 
L 338.856846 59.359381 
L 342.169647 59.141142 
L 345.482449 58.930505 
L 348.79525 58.727787 
L 352.108052 58.533266 
L 355.420853 58.347187 
L 358.733655 58.169765 
L 362.046456 58.001196 
L 365.359258 57.841671 
L 368.672059 57.691374 
L 371.984861 57.550484 
L 375.297662 57.419169 
L 378.610464 57.297589 
L 381.923265 57.185897 
L 385.236067 57.084258 
L 388.548868 56.99285 
L 391.86167 56.911882 
L 395.174471 56.841605 
L 398.487273 56.78232 
L 398.487273 53.568 
L 398.487273 53.568 
L 395.174471 53.642176 
L 391.86167 53.726329 
L 388.548868 53.820259 
L 385.236067 53.923775 
L 381.923265 54.036682 
L 378.610464 54.158783 
L 375.297662 54.28987 
L 371.984861 54.429728 
L 368.672059 54.578139 
L 365.359258 54.734882 
L 362.046456 54.899739 
L 358.733655 55.07249 
L 355.420853 55.252909 
L 352.108052 55.440762 
L 348.79525 55.635799 
L 345.482449 55.837742 
L 342.169647 56.046283 
L 338.856846 56.261077 
L 335.544045 56.481748 
L 332.231243 56.707881 
L 328.918442 56.939019 
L 325.60564 57.174658 
L 322.292839 57.414236 
L 318.980037 57.65713 
L 315.667236 57.902637 
L 312.354434 58.149959 
L 309.041633 58.39818 
L 305.728831 58.646244 
L 302.41603 58.892928 
L 299.103228 59.136817 
L 295.790427 59.37627 
L 292.477625 59.609383 
L 289.164824 59.833952 
L 285.852022 60.047434 
L 282.539221 60.246913 
L 279.226419 60.429077 
L 275.913618 60.590214 
L 272.600816 60.726246 
L 269.288015 60.832825 
L 265.975213 60.90551 
L 262.662412 60.94006 
L 259.34961 60.932875 
L 256.036809 60.881579 
L 252.724007 60.785708 
L 249.411206 60.647361 
L 246.098404 60.471615 
L 242.785603 60.266449 
L 239.472801 60.04207 
L 236.16 59.809744 
L 232.847199 59.58048 
L 229.534397 59.363981 
L 226.221596 59.16808 
L 222.908794 58.998672 
L 219.595993 58.859926 
L 216.283191 58.754643 
L 212.97039 58.684604 
L 209.657588 58.650894 
L 206.344787 58.654156 
L 203.031985 58.694779 
L 199.719184 58.77304 
L 196.406382 58.889226 
L 193.093581 59.043721 
L 189.780779 59.237089 
L 186.467978 59.470126 
L 183.155176 59.743899 
L 179.842375 60.05977 
L 176.529573 60.419376 
L 173.216772 60.82466 
L 169.90397 61.27793 
L 166.591169 61.78187 
L 163.278367 62.339565 
L 159.965566 62.954565 
L 156.652764 63.630975 
L 153.339963 64.373563 
L 150.027161 65.187913 
L 146.71436 66.080583 
L 143.401558 67.059281 
L 140.088757 68.133056 
L 136.775955 69.312543 
L 133.463154 70.610325 
L 130.150353 72.041375 
L 126.837551 73.623498 
L 123.52475 75.377923 
L 120.211948 77.330154 
L 116.899147 79.510979 
L 113.586345 81.957749 
L 110.273544 84.716021 
L 106.960742 87.841632 
L 103.647941 91.403427 
L 100.335139 95.486765 
L 97.022338 100.197902 
L 93.709536 105.669741 
L 90.396735 112.07065 
L 87.083933 119.621029 
L 83.771132 128.629119 
L 80.45833 139.576794 
L 77.145529 153.345459 
L 73.832727 171.918693 
z
" style="fill:#ff0000;fill-opacity:0.4;"/>
   </g>
   <g id="matplotlib.axis_1">
    <g id="xtick_1">
     <g id="line2d_1">
      <path clip-path="url(#p41e3ff5575)" d="M 70.519926 307.584 
L 70.519926 41.472 
" style="fill:none;stroke:#b0b0b0;stroke-linecap:square;stroke-width:0.8;"/>
     </g>
     <g id="line2d_2">
      <defs>
       <path d="M 0 0 
L 0 3.5 
" id="mf9f8fc22f4" style="stroke:#000000;stroke-width:0.8;"/>
      </defs>
      <g>
       <use style="stroke:#000000;stroke-width:0.8;" x="70.519926" xlink:href="#mf9f8fc22f4" y="307.584"/>
      </g>
     </g>
     <g id="text_1">
      <!-- 0.0 -->
      <defs>
       <path d="M 31.78125 66.40625 
Q 24.171875 66.40625 20.328125 58.90625 
Q 16.5 51.421875 16.5 36.375 
Q 16.5 21.390625 20.328125 13.890625 
Q 24.171875 6.390625 31.78125 6.390625 
Q 39.453125 6.390625 43.28125 13.890625 
Q 47.125 21.390625 47.125 36.375 
Q 47.125 51.421875 43.28125 58.90625 
Q 39.453125 66.40625 31.78125 66.40625 
z
M 31.78125 74.21875 
Q 44.046875 74.21875 50.515625 64.515625 
Q 56.984375 54.828125 56.984375 36.375 
Q 56.984375 17.96875 50.515625 8.265625 
Q 44.046875 -1.421875 31.78125 -1.421875 
Q 19.53125 -1.421875 13.0625 8.265625 
Q 6.59375 17.96875 6.59375 36.375 
Q 6.59375 54.828125 13.0625 64.515625 
Q 19.53125 74.21875 31.78125 74.21875 
z
" id="DejaVuSans-48"/>
       <path d="M 10.6875 12.40625 
L 21 12.40625 
L 21 0 
L 10.6875 0 
z
" id="DejaVuSans-46"/>
      </defs>
      <g transform="translate(62.568363 322.182437)scale(0.1 -0.1)">
       <use xlink:href="#DejaVuSans-48"/>
       <use x="63.623047" xlink:href="#DejaVuSans-46"/>
       <use x="95.410156" xlink:href="#DejaVuSans-48"/>
      </g>
     </g>
    </g>
    <g id="xtick_2">
     <g id="line2d_3">
      <path clip-path="url(#p41e3ff5575)" d="M 136.775955 307.584 
L 136.775955 41.472 
" style="fill:none;stroke:#b0b0b0;stroke-linecap:square;stroke-width:0.8;"/>
     </g>
     <g id="line2d_4">
      <g>
       <use style="stroke:#000000;stroke-width:0.8;" x="136.775955" xlink:href="#mf9f8fc22f4" y="307.584"/>
      </g>
     </g>
     <g id="text_2">
      <!-- 0.2 -->
      <defs>
       <path d="M 19.1875 8.296875 
L 53.609375 8.296875 
L 53.609375 0 
L 7.328125 0 
L 7.328125 8.296875 
Q 12.9375 14.109375 22.625 23.890625 
Q 32.328125 33.6875 34.8125 36.53125 
Q 39.546875 41.84375 41.421875 45.53125 
Q 43.3125 49.21875 43.3125 52.78125 
Q 43.3125 58.59375 39.234375 62.25 
Q 35.15625 65.921875 28.609375 65.921875 
Q 23.96875 65.921875 18.8125 64.3125 
Q 13.671875 62.703125 7.8125 59.421875 
L 7.8125 69.390625 
Q 13.765625 71.78125 18.9375 73 
Q 24.125 74.21875 28.421875 74.21875 
Q 39.75 74.21875 46.484375 68.546875 
Q 53.21875 62.890625 53.21875 53.421875 
Q 53.21875 48.921875 51.53125 44.890625 
Q 49.859375 40.875 45.40625 35.40625 
Q 44.1875 33.984375 37.640625 27.21875 
Q 31.109375 20.453125 19.1875 8.296875 
z
" id="DejaVuSans-50"/>
      </defs>
      <g transform="translate(128.824393 322.182437)scale(0.1 -0.1)">
       <use xlink:href="#DejaVuSans-48"/>
       <use x="63.623047" xlink:href="#DejaVuSans-46"/>
       <use x="95.410156" xlink:href="#DejaVuSans-50"/>
      </g>
     </g>
    </g>
    <g id="xtick_3">
     <g id="line2d_5">
      <path clip-path="url(#p41e3ff5575)" d="M 203.031985 307.584 
L 203.031985 41.472 
" style="fill:none;stroke:#b0b0b0;stroke-linecap:square;stroke-width:0.8;"/>
     </g>
     <g id="line2d_6">
      <g>
       <use style="stroke:#000000;stroke-width:0.8;" x="203.031985" xlink:href="#mf9f8fc22f4" y="307.584"/>
      </g>
     </g>
     <g id="text_3">
      <!-- 0.4 -->
      <defs>
       <path d="M 37.796875 64.3125 
L 12.890625 25.390625 
L 37.796875 25.390625 
z
M 35.203125 72.90625 
L 47.609375 72.90625 
L 47.609375 25.390625 
L 58.015625 25.390625 
L 58.015625 17.1875 
L 47.609375 17.1875 
L 47.609375 0 
L 37.796875 0 
L 37.796875 17.1875 
L 4.890625 17.1875 
L 4.890625 26.703125 
z
" id="DejaVuSans-52"/>
      </defs>
      <g transform="translate(195.080423 322.182437)scale(0.1 -0.1)">
       <use xlink:href="#DejaVuSans-48"/>
       <use x="63.623047" xlink:href="#DejaVuSans-46"/>
       <use x="95.410156" xlink:href="#DejaVuSans-52"/>
      </g>
     </g>
    </g>
    <g id="xtick_4">
     <g id="line2d_7">
      <path clip-path="url(#p41e3ff5575)" d="M 269.288015 307.584 
L 269.288015 41.472 
" style="fill:none;stroke:#b0b0b0;stroke-linecap:square;stroke-width:0.8;"/>
     </g>
     <g id="line2d_8">
      <g>
       <use style="stroke:#000000;stroke-width:0.8;" x="269.288015" xlink:href="#mf9f8fc22f4" y="307.584"/>
      </g>
     </g>
     <g id="text_4">
      <!-- 0.6 -->
      <defs>
       <path d="M 33.015625 40.375 
Q 26.375 40.375 22.484375 35.828125 
Q 18.609375 31.296875 18.609375 23.390625 
Q 18.609375 15.53125 22.484375 10.953125 
Q 26.375 6.390625 33.015625 6.390625 
Q 39.65625 6.390625 43.53125 10.953125 
Q 47.40625 15.53125 47.40625 23.390625 
Q 47.40625 31.296875 43.53125 35.828125 
Q 39.65625 40.375 33.015625 40.375 
z
M 52.59375 71.296875 
L 52.59375 62.3125 
Q 48.875 64.0625 45.09375 64.984375 
Q 41.3125 65.921875 37.59375 65.921875 
Q 27.828125 65.921875 22.671875 59.328125 
Q 17.53125 52.734375 16.796875 39.40625 
Q 19.671875 43.65625 24.015625 45.921875 
Q 28.375 48.1875 33.59375 48.1875 
Q 44.578125 48.1875 50.953125 41.515625 
Q 57.328125 34.859375 57.328125 23.390625 
Q 57.328125 12.15625 50.6875 5.359375 
Q 44.046875 -1.421875 33.015625 -1.421875 
Q 20.359375 -1.421875 13.671875 8.265625 
Q 6.984375 17.96875 6.984375 36.375 
Q 6.984375 53.65625 15.1875 63.9375 
Q 23.390625 74.21875 37.203125 74.21875 
Q 40.921875 74.21875 44.703125 73.484375 
Q 48.484375 72.75 52.59375 71.296875 
z
" id="DejaVuSans-54"/>
      </defs>
      <g transform="translate(261.336452 322.182437)scale(0.1 -0.1)">
       <use xlink:href="#DejaVuSans-48"/>
       <use x="63.623047" xlink:href="#DejaVuSans-46"/>
       <use x="95.410156" xlink:href="#DejaVuSans-54"/>
      </g>
     </g>
    </g>
    <g id="xtick_5">
     <g id="line2d_9">
      <path clip-path="url(#p41e3ff5575)" d="M 335.544045 307.584 
L 335.544045 41.472 
" style="fill:none;stroke:#b0b0b0;stroke-linecap:square;stroke-width:0.8;"/>
     </g>
     <g id="line2d_10">
      <g>
       <use style="stroke:#000000;stroke-width:0.8;" x="335.544045" xlink:href="#mf9f8fc22f4" y="307.584"/>
      </g>
     </g>
     <g id="text_5">
      <!-- 0.8 -->
      <defs>
       <path d="M 31.78125 34.625 
Q 24.75 34.625 20.71875 30.859375 
Q 16.703125 27.09375 16.703125 20.515625 
Q 16.703125 13.921875 20.71875 10.15625 
Q 24.75 6.390625 31.78125 6.390625 
Q 38.8125 6.390625 42.859375 10.171875 
Q 46.921875 13.96875 46.921875 20.515625 
Q 46.921875 27.09375 42.890625 30.859375 
Q 38.875 34.625 31.78125 34.625 
z
M 21.921875 38.8125 
Q 15.578125 40.375 12.03125 44.71875 
Q 8.5 49.078125 8.5 55.328125 
Q 8.5 64.0625 14.71875 69.140625 
Q 20.953125 74.21875 31.78125 74.21875 
Q 42.671875 74.21875 48.875 69.140625 
Q 55.078125 64.0625 55.078125 55.328125 
Q 55.078125 49.078125 51.53125 44.71875 
Q 48 40.375 41.703125 38.8125 
Q 48.828125 37.15625 52.796875 32.3125 
Q 56.78125 27.484375 56.78125 20.515625 
Q 56.78125 9.90625 50.3125 4.234375 
Q 43.84375 -1.421875 31.78125 -1.421875 
Q 19.734375 -1.421875 13.25 4.234375 
Q 6.78125 9.90625 6.78125 20.515625 
Q 6.78125 27.484375 10.78125 32.3125 
Q 14.796875 37.15625 21.921875 38.8125 
z
M 18.3125 54.390625 
Q 18.3125 48.734375 21.84375 45.5625 
Q 25.390625 42.390625 31.78125 42.390625 
Q 38.140625 42.390625 41.71875 45.5625 
Q 45.3125 48.734375 45.3125 54.390625 
Q 45.3125 60.0625 41.71875 63.234375 
Q 38.140625 66.40625 31.78125 66.40625 
Q 25.390625 66.40625 21.84375 63.234375 
Q 18.3125 60.0625 18.3125 54.390625 
z
" id="DejaVuSans-56"/>
      </defs>
      <g transform="translate(327.592482 322.182437)scale(0.1 -0.1)">
       <use xlink:href="#DejaVuSans-48"/>
       <use x="63.623047" xlink:href="#DejaVuSans-46"/>
       <use x="95.410156" xlink:href="#DejaVuSans-56"/>
      </g>
     </g>
    </g>
    <g id="xtick_6">
     <g id="line2d_11">
      <path clip-path="url(#p41e3ff5575)" d="M 401.800074 307.584 
L 401.800074 41.472 
" style="fill:none;stroke:#b0b0b0;stroke-linecap:square;stroke-width:0.8;"/>
     </g>
     <g id="line2d_12">
      <g>
       <use style="stroke:#000000;stroke-width:0.8;" x="401.800074" xlink:href="#mf9f8fc22f4" y="307.584"/>
      </g>
     </g>
     <g id="text_6">
      <!-- 1.0 -->
      <defs>
       <path d="M 12.40625 8.296875 
L 28.515625 8.296875 
L 28.515625 63.921875 
L 10.984375 60.40625 
L 10.984375 69.390625 
L 28.421875 72.90625 
L 38.28125 72.90625 
L 38.28125 8.296875 
L 54.390625 8.296875 
L 54.390625 0 
L 12.40625 0 
z
" id="DejaVuSans-49"/>
      </defs>
      <g transform="translate(393.848512 322.182437)scale(0.1 -0.1)">
       <use xlink:href="#DejaVuSans-49"/>
       <use x="63.623047" xlink:href="#DejaVuSans-46"/>
       <use x="95.410156" xlink:href="#DejaVuSans-48"/>
      </g>
     </g>
    </g>
    <g id="text_7">
     <!-- $\mathrm{Time \ (seconds)}$ -->
     <defs>
      <path d="M -0.296875 72.90625 
L 61.375 72.90625 
L 61.375 64.59375 
L 35.5 64.59375 
L 35.5 0 
L 25.59375 0 
L 25.59375 64.59375 
L -0.296875 64.59375 
z
" id="DejaVuSans-84"/>
      <path d="M 9.421875 54.6875 
L 18.40625 54.6875 
L 18.40625 0 
L 9.421875 0 
z
M 9.421875 75.984375 
L 18.40625 75.984375 
L 18.40625 64.59375 
L 9.421875 64.59375 
z
" id="DejaVuSans-105"/>
      <path d="M 52 44.1875 
Q 55.375 50.25 60.0625 53.125 
Q 64.75 56 71.09375 56 
Q 79.640625 56 84.28125 50.015625 
Q 88.921875 44.046875 88.921875 33.015625 
L 88.921875 0 
L 79.890625 0 
L 79.890625 32.71875 
Q 79.890625 40.578125 77.09375 44.375 
Q 74.3125 48.1875 68.609375 48.1875 
Q 61.625 48.1875 57.5625 43.546875 
Q 53.515625 38.921875 53.515625 30.90625 
L 53.515625 0 
L 44.484375 0 
L 44.484375 32.71875 
Q 44.484375 40.625 41.703125 44.40625 
Q 38.921875 48.1875 33.109375 48.1875 
Q 26.21875 48.1875 22.15625 43.53125 
Q 18.109375 38.875 18.109375 30.90625 
L 18.109375 0 
L 9.078125 0 
L 9.078125 54.6875 
L 18.109375 54.6875 
L 18.109375 46.1875 
Q 21.1875 51.21875 25.484375 53.609375 
Q 29.78125 56 35.6875 56 
Q 41.65625 56 45.828125 52.96875 
Q 50 49.953125 52 44.1875 
z
" id="DejaVuSans-109"/>
      <path d="M 56.203125 29.59375 
L 56.203125 25.203125 
L 14.890625 25.203125 
Q 15.484375 15.921875 20.484375 11.0625 
Q 25.484375 6.203125 34.421875 6.203125 
Q 39.59375 6.203125 44.453125 7.46875 
Q 49.3125 8.734375 54.109375 11.28125 
L 54.109375 2.78125 
Q 49.265625 0.734375 44.1875 -0.34375 
Q 39.109375 -1.421875 33.890625 -1.421875 
Q 20.796875 -1.421875 13.15625 6.1875 
Q 5.515625 13.8125 5.515625 26.8125 
Q 5.515625 40.234375 12.765625 48.109375 
Q 20.015625 56 32.328125 56 
Q 43.359375 56 49.78125 48.890625 
Q 56.203125 41.796875 56.203125 29.59375 
z
M 47.21875 32.234375 
Q 47.125 39.59375 43.09375 43.984375 
Q 39.0625 48.390625 32.421875 48.390625 
Q 24.90625 48.390625 20.390625 44.140625 
Q 15.875 39.890625 15.1875 32.171875 
z
" id="DejaVuSans-101"/>
      <path d="M 31 75.875 
Q 24.46875 64.65625 21.28125 53.65625 
Q 18.109375 42.671875 18.109375 31.390625 
Q 18.109375 20.125 21.3125 9.0625 
Q 24.515625 -2 31 -13.1875 
L 23.1875 -13.1875 
Q 15.875 -1.703125 12.234375 9.375 
Q 8.59375 20.453125 8.59375 31.390625 
Q 8.59375 42.28125 12.203125 53.3125 
Q 15.828125 64.359375 23.1875 75.875 
z
" id="DejaVuSans-40"/>
      <path d="M 44.28125 53.078125 
L 44.28125 44.578125 
Q 40.484375 46.53125 36.375 47.5 
Q 32.28125 48.484375 27.875 48.484375 
Q 21.1875 48.484375 17.84375 46.4375 
Q 14.5 44.390625 14.5 40.28125 
Q 14.5 37.15625 16.890625 35.375 
Q 19.28125 33.59375 26.515625 31.984375 
L 29.59375 31.296875 
Q 39.15625 29.25 43.1875 25.515625 
Q 47.21875 21.78125 47.21875 15.09375 
Q 47.21875 7.46875 41.1875 3.015625 
Q 35.15625 -1.421875 24.609375 -1.421875 
Q 20.21875 -1.421875 15.453125 -0.5625 
Q 10.6875 0.296875 5.421875 2 
L 5.421875 11.28125 
Q 10.40625 8.6875 15.234375 7.390625 
Q 20.0625 6.109375 24.8125 6.109375 
Q 31.15625 6.109375 34.5625 8.28125 
Q 37.984375 10.453125 37.984375 14.40625 
Q 37.984375 18.0625 35.515625 20.015625 
Q 33.0625 21.96875 24.703125 23.78125 
L 21.578125 24.515625 
Q 13.234375 26.265625 9.515625 29.90625 
Q 5.8125 33.546875 5.8125 39.890625 
Q 5.8125 47.609375 11.28125 51.796875 
Q 16.75 56 26.8125 56 
Q 31.78125 56 36.171875 55.265625 
Q 40.578125 54.546875 44.28125 53.078125 
z
" id="DejaVuSans-115"/>
      <path d="M 48.78125 52.59375 
L 48.78125 44.1875 
Q 44.96875 46.296875 41.140625 47.34375 
Q 37.3125 48.390625 33.40625 48.390625 
Q 24.65625 48.390625 19.8125 42.84375 
Q 14.984375 37.3125 14.984375 27.296875 
Q 14.984375 17.28125 19.8125 11.734375 
Q 24.65625 6.203125 33.40625 6.203125 
Q 37.3125 6.203125 41.140625 7.25 
Q 44.96875 8.296875 48.78125 10.40625 
L 48.78125 2.09375 
Q 45.015625 0.34375 40.984375 -0.53125 
Q 36.96875 -1.421875 32.421875 -1.421875 
Q 20.0625 -1.421875 12.78125 6.34375 
Q 5.515625 14.109375 5.515625 27.296875 
Q 5.515625 40.671875 12.859375 48.328125 
Q 20.21875 56 33.015625 56 
Q 37.15625 56 41.109375 55.140625 
Q 45.0625 54.296875 48.78125 52.59375 
z
" id="DejaVuSans-99"/>
      <path d="M 30.609375 48.390625 
Q 23.390625 48.390625 19.1875 42.75 
Q 14.984375 37.109375 14.984375 27.296875 
Q 14.984375 17.484375 19.15625 11.84375 
Q 23.34375 6.203125 30.609375 6.203125 
Q 37.796875 6.203125 41.984375 11.859375 
Q 46.1875 17.53125 46.1875 27.296875 
Q 46.1875 37.015625 41.984375 42.703125 
Q 37.796875 48.390625 30.609375 48.390625 
z
M 30.609375 56 
Q 42.328125 56 49.015625 48.375 
Q 55.71875 40.765625 55.71875 27.296875 
Q 55.71875 13.875 49.015625 6.21875 
Q 42.328125 -1.421875 30.609375 -1.421875 
Q 18.84375 -1.421875 12.171875 6.21875 
Q 5.515625 13.875 5.515625 27.296875 
Q 5.515625 40.765625 12.171875 48.375 
Q 18.84375 56 30.609375 56 
z
" id="DejaVuSans-111"/>
      <path d="M 54.890625 33.015625 
L 54.890625 0 
L 45.90625 0 
L 45.90625 32.71875 
Q 45.90625 40.484375 42.875 44.328125 
Q 39.84375 48.1875 33.796875 48.1875 
Q 26.515625 48.1875 22.3125 43.546875 
Q 18.109375 38.921875 18.109375 30.90625 
L 18.109375 0 
L 9.078125 0 
L 9.078125 54.6875 
L 18.109375 54.6875 
L 18.109375 46.1875 
Q 21.34375 51.125 25.703125 53.5625 
Q 30.078125 56 35.796875 56 
Q 45.21875 56 50.046875 50.171875 
Q 54.890625 44.34375 54.890625 33.015625 
z
" id="DejaVuSans-110"/>
      <path d="M 45.40625 46.390625 
L 45.40625 75.984375 
L 54.390625 75.984375 
L 54.390625 0 
L 45.40625 0 
L 45.40625 8.203125 
Q 42.578125 3.328125 38.25 0.953125 
Q 33.9375 -1.421875 27.875 -1.421875 
Q 17.96875 -1.421875 11.734375 6.484375 
Q 5.515625 14.40625 5.515625 27.296875 
Q 5.515625 40.1875 11.734375 48.09375 
Q 17.96875 56 27.875 56 
Q 33.9375 56 38.25 53.625 
Q 42.578125 51.265625 45.40625 46.390625 
z
M 14.796875 27.296875 
Q 14.796875 17.390625 18.875 11.75 
Q 22.953125 6.109375 30.078125 6.109375 
Q 37.203125 6.109375 41.296875 11.75 
Q 45.40625 17.390625 45.40625 27.296875 
Q 45.40625 37.203125 41.296875 42.84375 
Q 37.203125 48.484375 30.078125 48.484375 
Q 22.953125 48.484375 18.875 42.84375 
Q 14.796875 37.203125 14.796875 27.296875 
z
" id="DejaVuSans-100"/>
      <path d="M 8.015625 75.875 
L 15.828125 75.875 
Q 23.140625 64.359375 26.78125 53.3125 
Q 30.421875 42.28125 30.421875 31.390625 
Q 30.421875 20.453125 26.78125 9.375 
Q 23.140625 -1.703125 15.828125 -13.1875 
L 8.015625 -13.1875 
Q 14.5 -2 17.703125 9.0625 
Q 20.90625 20.125 20.90625 31.390625 
Q 20.90625 42.671875 17.703125 53.65625 
Q 14.5 64.65625 8.015625 75.875 
z
" id="DejaVuSans-41"/>
     </defs>
     <g transform="translate(197.76 335.860562)scale(0.1 -0.1)">
      <use transform="translate(0 0.015625)" xlink:href="#DejaVuSans-84"/>
      <use transform="translate(61.083984 0.015625)" xlink:href="#DejaVuSans-105"/>
      <use transform="translate(88.867188 0.015625)" xlink:href="#DejaVuSans-109"/>
      <use transform="translate(186.279297 0.015625)" xlink:href="#DejaVuSans-101"/>
      <use transform="translate(280.273113 0.015625)" xlink:href="#DejaVuSans-40"/>
      <use transform="translate(319.286785 0.015625)" xlink:href="#DejaVuSans-115"/>
      <use transform="translate(371.386394 0.015625)" xlink:href="#DejaVuSans-101"/>
      <use transform="translate(432.909832 0.015625)" xlink:href="#DejaVuSans-99"/>
      <use transform="translate(487.8903 0.015625)" xlink:href="#DejaVuSans-111"/>
      <use transform="translate(549.071941 0.015625)" xlink:href="#DejaVuSans-110"/>
      <use transform="translate(612.450847 0.015625)" xlink:href="#DejaVuSans-100"/>
      <use transform="translate(675.92741 0.015625)" xlink:href="#DejaVuSans-115"/>
      <use transform="translate(728.027019 0.015625)" xlink:href="#DejaVuSans-41"/>
     </g>
    </g>
   </g>
   <g id="matplotlib.axis_2">
    <g id="ytick_1">
     <g id="line2d_13">
      <path clip-path="url(#p41e3ff5575)" d="M 57.6 243.706346 
L 414.72 243.706346 
" style="fill:none;stroke:#b0b0b0;stroke-linecap:square;stroke-width:0.8;"/>
     </g>
     <g id="line2d_14">
      <defs>
       <path d="M 0 0 
L -3.5 0 
" id="me8cc791bec" style="stroke:#000000;stroke-width:0.8;"/>
      </defs>
      <g>
       <use style="stroke:#000000;stroke-width:0.8;" x="57.6" xlink:href="#me8cc791bec" y="243.706346"/>
      </g>
     </g>
     <g id="text_8">
      <!-- $\mathdefault{10^{-2}}$ -->
      <defs>
       <path d="M 10.59375 35.5 
L 73.1875 35.5 
L 73.1875 27.203125 
L 10.59375 27.203125 
z
" id="DejaVuSans-8722"/>
      </defs>
      <g transform="translate(27.1 247.505564)scale(0.1 -0.1)">
       <use transform="translate(0 0.765625)" xlink:href="#DejaVuSans-49"/>
       <use transform="translate(63.623047 0.765625)" xlink:href="#DejaVuSans-48"/>
       <use transform="translate(128.203125 39.046875)scale(0.7)" xlink:href="#DejaVuSans-8722"/>
       <use transform="translate(186.855469 39.046875)scale(0.7)" xlink:href="#DejaVuSans-50"/>
      </g>
     </g>
    </g>
    <g id="ytick_2">
     <g id="line2d_15">
      <path clip-path="url(#p41e3ff5575)" d="M 57.6 133.558423 
L 414.72 133.558423 
" style="fill:none;stroke:#b0b0b0;stroke-linecap:square;stroke-width:0.8;"/>
     </g>
     <g id="line2d_16">
      <g>
       <use style="stroke:#000000;stroke-width:0.8;" x="57.6" xlink:href="#me8cc791bec" y="133.558423"/>
      </g>
     </g>
     <g id="text_9">
      <!-- $\mathdefault{10^{-1}}$ -->
      <g transform="translate(27.1 137.357642)scale(0.1 -0.1)">
       <use transform="translate(0 0.684375)" xlink:href="#DejaVuSans-49"/>
       <use transform="translate(63.623047 0.684375)" xlink:href="#DejaVuSans-48"/>
       <use transform="translate(128.203125 38.965625)scale(0.7)" xlink:href="#DejaVuSans-8722"/>
       <use transform="translate(186.855469 38.965625)scale(0.7)" xlink:href="#DejaVuSans-49"/>
      </g>
     </g>
    </g>
    <g id="ytick_3">
     <g id="line2d_17">
      <defs>
       <path d="M 0 0 
L -2 0 
" id="mda4d1a2c16" style="stroke:#000000;stroke-width:0.6;"/>
      </defs>
      <g>
       <use style="stroke:#000000;stroke-width:0.6;" x="57.6" xlink:href="#mda4d1a2c16" y="301.300353"/>
      </g>
     </g>
    </g>
    <g id="ytick_4">
     <g id="line2d_18">
      <g>
       <use style="stroke:#000000;stroke-width:0.6;" x="57.6" xlink:href="#mda4d1a2c16" y="287.538611"/>
      </g>
     </g>
    </g>
    <g id="ytick_5">
     <g id="line2d_19">
      <g>
       <use style="stroke:#000000;stroke-width:0.6;" x="57.6" xlink:href="#mda4d1a2c16" y="276.864174"/>
      </g>
     </g>
    </g>
    <g id="ytick_6">
     <g id="line2d_20">
      <g>
       <use style="stroke:#000000;stroke-width:0.6;" x="57.6" xlink:href="#mda4d1a2c16" y="268.142525"/>
      </g>
     </g>
    </g>
    <g id="ytick_7">
     <g id="line2d_21">
      <g>
       <use style="stroke:#000000;stroke-width:0.6;" x="57.6" xlink:href="#mda4d1a2c16" y="260.768475"/>
      </g>
     </g>
    </g>
    <g id="ytick_8">
     <g id="line2d_22">
      <g>
       <use style="stroke:#000000;stroke-width:0.6;" x="57.6" xlink:href="#mda4d1a2c16" y="254.380782"/>
      </g>
     </g>
    </g>
    <g id="ytick_9">
     <g id="line2d_23">
      <g>
       <use style="stroke:#000000;stroke-width:0.6;" x="57.6" xlink:href="#mda4d1a2c16" y="248.746438"/>
      </g>
     </g>
    </g>
    <g id="ytick_10">
     <g id="line2d_24">
      <g>
       <use style="stroke:#000000;stroke-width:0.6;" x="57.6" xlink:href="#mda4d1a2c16" y="210.548517"/>
      </g>
     </g>
    </g>
    <g id="ytick_11">
     <g id="line2d_25">
      <g>
       <use style="stroke:#000000;stroke-width:0.6;" x="57.6" xlink:href="#mda4d1a2c16" y="191.152431"/>
      </g>
     </g>
    </g>
    <g id="ytick_12">
     <g id="line2d_26">
      <g>
       <use style="stroke:#000000;stroke-width:0.6;" x="57.6" xlink:href="#mda4d1a2c16" y="177.390688"/>
      </g>
     </g>
    </g>
    <g id="ytick_13">
     <g id="line2d_27">
      <g>
       <use style="stroke:#000000;stroke-width:0.6;" x="57.6" xlink:href="#mda4d1a2c16" y="166.716252"/>
      </g>
     </g>
    </g>
    <g id="ytick_14">
     <g id="line2d_28">
      <g>
       <use style="stroke:#000000;stroke-width:0.6;" x="57.6" xlink:href="#mda4d1a2c16" y="157.994602"/>
      </g>
     </g>
    </g>
    <g id="ytick_15">
     <g id="line2d_29">
      <g>
       <use style="stroke:#000000;stroke-width:0.6;" x="57.6" xlink:href="#mda4d1a2c16" y="150.620552"/>
      </g>
     </g>
    </g>
    <g id="ytick_16">
     <g id="line2d_30">
      <g>
       <use style="stroke:#000000;stroke-width:0.6;" x="57.6" xlink:href="#mda4d1a2c16" y="144.23286"/>
      </g>
     </g>
    </g>
    <g id="ytick_17">
     <g id="line2d_31">
      <g>
       <use style="stroke:#000000;stroke-width:0.6;" x="57.6" xlink:href="#mda4d1a2c16" y="138.598516"/>
      </g>
     </g>
    </g>
    <g id="ytick_18">
     <g id="line2d_32">
      <g>
       <use style="stroke:#000000;stroke-width:0.6;" x="57.6" xlink:href="#mda4d1a2c16" y="100.400594"/>
      </g>
     </g>
    </g>
    <g id="ytick_19">
     <g id="line2d_33">
      <g>
       <use style="stroke:#000000;stroke-width:0.6;" x="57.6" xlink:href="#mda4d1a2c16" y="81.004508"/>
      </g>
     </g>
    </g>
    <g id="ytick_20">
     <g id="line2d_34">
      <g>
       <use style="stroke:#000000;stroke-width:0.6;" x="57.6" xlink:href="#mda4d1a2c16" y="67.242766"/>
      </g>
     </g>
    </g>
    <g id="ytick_21">
     <g id="line2d_35">
      <g>
       <use style="stroke:#000000;stroke-width:0.6;" x="57.6" xlink:href="#mda4d1a2c16" y="56.568329"/>
      </g>
     </g>
    </g>
    <g id="ytick_22">
     <g id="line2d_36">
      <g>
       <use style="stroke:#000000;stroke-width:0.6;" x="57.6" xlink:href="#mda4d1a2c16" y="47.846679"/>
      </g>
     </g>
    </g>
    <g id="text_10">
     <!-- $\mathrm{Relative \ error}$ ($N_{\mathrm{train}}=10$) -->
     <defs>
      <path d="M 44.390625 34.1875 
Q 47.5625 33.109375 50.5625 29.59375 
Q 53.5625 26.078125 56.59375 19.921875 
L 66.609375 0 
L 56 0 
L 46.6875 18.703125 
Q 43.0625 26.03125 39.671875 28.421875 
Q 36.28125 30.8125 30.421875 30.8125 
L 19.671875 30.8125 
L 19.671875 0 
L 9.8125 0 
L 9.8125 72.90625 
L 32.078125 72.90625 
Q 44.578125 72.90625 50.734375 67.671875 
Q 56.890625 62.453125 56.890625 51.90625 
Q 56.890625 45.015625 53.6875 40.46875 
Q 50.484375 35.9375 44.390625 34.1875 
z
M 19.671875 64.796875 
L 19.671875 38.921875 
L 32.078125 38.921875 
Q 39.203125 38.921875 42.84375 42.21875 
Q 46.484375 45.515625 46.484375 51.90625 
Q 46.484375 58.296875 42.84375 61.546875 
Q 39.203125 64.796875 32.078125 64.796875 
z
" id="DejaVuSans-82"/>
      <path d="M 9.421875 75.984375 
L 18.40625 75.984375 
L 18.40625 0 
L 9.421875 0 
z
" id="DejaVuSans-108"/>
      <path d="M 34.28125 27.484375 
Q 23.390625 27.484375 19.1875 25 
Q 14.984375 22.515625 14.984375 16.5 
Q 14.984375 11.71875 18.140625 8.90625 
Q 21.296875 6.109375 26.703125 6.109375 
Q 34.1875 6.109375 38.703125 11.40625 
Q 43.21875 16.703125 43.21875 25.484375 
L 43.21875 27.484375 
z
M 52.203125 31.203125 
L 52.203125 0 
L 43.21875 0 
L 43.21875 8.296875 
Q 40.140625 3.328125 35.546875 0.953125 
Q 30.953125 -1.421875 24.3125 -1.421875 
Q 15.921875 -1.421875 10.953125 3.296875 
Q 6 8.015625 6 15.921875 
Q 6 25.140625 12.171875 29.828125 
Q 18.359375 34.515625 30.609375 34.515625 
L 43.21875 34.515625 
L 43.21875 35.40625 
Q 43.21875 41.609375 39.140625 45 
Q 35.0625 48.390625 27.6875 48.390625 
Q 23 48.390625 18.546875 47.265625 
Q 14.109375 46.140625 10.015625 43.890625 
L 10.015625 52.203125 
Q 14.9375 54.109375 19.578125 55.046875 
Q 24.21875 56 28.609375 56 
Q 40.484375 56 46.34375 49.84375 
Q 52.203125 43.703125 52.203125 31.203125 
z
" id="DejaVuSans-97"/>
      <path d="M 18.3125 70.21875 
L 18.3125 54.6875 
L 36.8125 54.6875 
L 36.8125 47.703125 
L 18.3125 47.703125 
L 18.3125 18.015625 
Q 18.3125 11.328125 20.140625 9.421875 
Q 21.96875 7.515625 27.59375 7.515625 
L 36.8125 7.515625 
L 36.8125 0 
L 27.59375 0 
Q 17.1875 0 13.234375 3.875 
Q 9.28125 7.765625 9.28125 18.015625 
L 9.28125 47.703125 
L 2.6875 47.703125 
L 2.6875 54.6875 
L 9.28125 54.6875 
L 9.28125 70.21875 
z
" id="DejaVuSans-116"/>
      <path d="M 2.984375 54.6875 
L 12.5 54.6875 
L 29.59375 8.796875 
L 46.6875 54.6875 
L 56.203125 54.6875 
L 35.6875 0 
L 23.484375 0 
z
" id="DejaVuSans-118"/>
      <path d="M 41.109375 46.296875 
Q 39.59375 47.171875 37.8125 47.578125 
Q 36.03125 48 33.890625 48 
Q 26.265625 48 22.1875 43.046875 
Q 18.109375 38.09375 18.109375 28.8125 
L 18.109375 0 
L 9.078125 0 
L 9.078125 54.6875 
L 18.109375 54.6875 
L 18.109375 46.1875 
Q 20.953125 51.171875 25.484375 53.578125 
Q 30.03125 56 36.53125 56 
Q 37.453125 56 38.578125 55.875 
Q 39.703125 55.765625 41.0625 55.515625 
z
" id="DejaVuSans-114"/>
      <path id="DejaVuSans-32"/>
      <path d="M 16.890625 72.90625 
L 30.171875 72.90625 
L 50.296875 10.40625 
L 62.5 72.90625 
L 72.125 72.90625 
L 57.90625 0 
L 44.578125 0 
L 24.515625 62.890625 
L 12.3125 0 
L 2.6875 0 
z
" id="DejaVuSans-Oblique-78"/>
      <path d="M 10.59375 45.40625 
L 73.1875 45.40625 
L 73.1875 37.203125 
L 10.59375 37.203125 
z
M 10.59375 25.484375 
L 73.1875 25.484375 
L 73.1875 17.1875 
L 10.59375 17.1875 
z
" id="DejaVuSans-61"/>
     </defs>
     <g transform="translate(21.020312 238.878)rotate(-90)scale(0.1 -0.1)">
      <use transform="translate(0 0.015625)" xlink:href="#DejaVuSans-82"/>
      <use transform="translate(69.482422 0.015625)" xlink:href="#DejaVuSans-101"/>
      <use transform="translate(131.005859 0.015625)" xlink:href="#DejaVuSans-108"/>
      <use transform="translate(158.789062 0.015625)" xlink:href="#DejaVuSans-97"/>
      <use transform="translate(220.068359 0.015625)" xlink:href="#DejaVuSans-116"/>
      <use transform="translate(259.277344 0.015625)" xlink:href="#DejaVuSans-105"/>
      <use transform="translate(287.060547 0.015625)" xlink:href="#DejaVuSans-118"/>
      <use transform="translate(346.240234 0.015625)" xlink:href="#DejaVuSans-101"/>
      <use transform="translate(440.23405 0.015625)" xlink:href="#DejaVuSans-101"/>
      <use transform="translate(501.757488 0.015625)" xlink:href="#DejaVuSans-114"/>
      <use transform="translate(542.870769 0.015625)" xlink:href="#DejaVuSans-114"/>
      <use transform="translate(583.98405 0.015625)" xlink:href="#DejaVuSans-111"/>
      <use transform="translate(645.165691 0.015625)" xlink:href="#DejaVuSans-114"/>
      <use transform="translate(686.278972 0.015625)" xlink:href="#DejaVuSans-32"/>
      <use transform="translate(718.066082 0.015625)" xlink:href="#DejaVuSans-40"/>
      <use transform="translate(757.079753 0.015625)" xlink:href="#DejaVuSans-Oblique-78"/>
      <use transform="translate(831.884441 -16.390625)scale(0.7)" xlink:href="#DejaVuSans-116"/>
      <use transform="translate(859.33073 -16.390625)scale(0.7)" xlink:href="#DejaVuSans-114"/>
      <use transform="translate(888.110027 -16.390625)scale(0.7)" xlink:href="#DejaVuSans-97"/>
      <use transform="translate(931.005535 -16.390625)scale(0.7)" xlink:href="#DejaVuSans-105"/>
      <use transform="translate(950.453777 -16.390625)scale(0.7)" xlink:href="#DejaVuSans-110"/>
      <use transform="translate(1017.035808 0.015625)" xlink:href="#DejaVuSans-61"/>
      <use transform="translate(1120.307292 0.015625)" xlink:href="#DejaVuSans-49"/>
      <use transform="translate(1183.930339 0.015625)" xlink:href="#DejaVuSans-48"/>
      <use transform="translate(1247.553386 0.015625)" xlink:href="#DejaVuSans-41"/>
     </g>
    </g>
   </g>
   <g id="line2d_37">
    <path clip-path="url(#p41e3ff5575)" d="M 73.832724 280.289588 
L 77.145522 261.561229 
L 80.458321 247.61579 
L 83.771119 236.507044 
L 87.083917 227.397664 
L 90.396716 219.822158 
L 93.709554 213.466365 
L 97.022352 208.089729 
L 100.33515 203.499423 
L 103.647949 199.542147 
L 106.960747 196.096612 
L 110.273545 193.068706 
L 113.586344 190.383935 
L 116.899142 187.982774 
L 120.21194 185.817002 
L 123.524738 183.845683 
L 126.837537 182.033573 
L 130.150375 180.352875 
L 133.463173 178.784353 
L 136.775971 177.312855 
L 140.08877 175.926874 
L 143.401568 174.618195 
L 146.714366 173.380511 
L 150.027165 172.20898 
L 153.339963 171.100056 
L 156.652761 170.051011 
L 159.96556 169.058397 
L 163.278358 168.119885 
L 166.591156 167.233697 
L 169.903955 166.398535 
L 173.216753 165.613017 
L 176.529551 164.875838 
L 179.842389 164.185967 
L 183.155187 163.543129 
L 186.467986 162.947561 
L 189.780784 162.39958 
L 193.093582 161.899367 
L 196.406381 161.446808 
L 199.719179 161.04145 
L 203.031977 160.682459 
L 206.344776 160.368634 
L 209.657574 160.098158 
L 212.970412 159.868305 
L 219.596008 159.511872 
L 232.847202 158.954515 
L 236.16 158.770779 
L 239.472798 158.543776 
L 242.785597 158.266102 
L 246.098395 157.934618 
L 249.411193 157.549798 
L 252.723992 157.114832 
L 256.03679 156.634828 
L 262.662387 155.56539 
L 269.288023 154.393821 
L 279.226418 152.543421 
L 295.790449 149.450916 
L 305.728844 147.664437 
L 315.667239 145.95207 
L 325.605634 144.325234 
L 335.544029 142.793093 
L 342.169625 141.830919 
L 348.795222 140.922988 
L 355.420858 140.077648 
L 362.046455 139.303913 
L 368.672051 138.61135 
L 375.297688 138.009636 
L 381.923284 137.507666 
L 388.548881 137.112523 
L 395.174478 136.82722 
L 398.487276 136.725471 
" style="fill:none;stroke:#ffa500;stroke-linecap:square;stroke-width:1.5;"/>
   </g>
   <g id="line2d_38">
    <path clip-path="url(#p41e3ff5575)" d="M 73.832724 206.846494 
L 77.145522 187.55517 
L 80.458321 173.086596 
L 83.771119 161.479684 
L 87.083917 151.873178 
L 90.396716 143.800516 
L 93.709554 136.960246 
L 97.022352 131.129488 
L 100.33515 126.132144 
L 103.647949 121.824225 
L 106.960747 118.087505 
L 110.273545 114.825703 
L 113.586344 111.960686 
L 116.899142 109.429214 
L 120.21194 107.179988 
L 123.524738 105.171207 
L 126.837537 103.369062 
L 130.150375 101.746049 
L 133.463173 100.279852 
L 136.775971 98.952332 
L 140.08877 97.748342 
L 143.401568 96.655241 
L 146.714366 95.66234 
L 150.027165 94.760686 
L 153.339963 93.942685 
L 156.652761 93.201853 
L 159.96556 92.532713 
L 163.278358 91.930594 
L 166.591156 91.391555 
L 169.903955 90.912313 
L 173.216753 90.490109 
L 176.529551 90.122648 
L 179.842389 89.807945 
L 183.155187 89.544284 
L 186.467986 89.330071 
L 189.780784 89.163731 
L 193.093582 89.043465 
L 196.406381 88.967188 
L 199.719179 88.932222 
L 203.031977 88.935228 
L 209.657574 89.037242 
L 216.28321 89.22773 
L 229.534403 89.644453 
L 236.16 89.75424 
L 239.472798 89.759099 
L 242.785597 89.721573 
L 246.098395 89.636483 
L 249.411193 89.500822 
L 252.723992 89.313972 
L 256.03679 89.077658 
L 259.349588 88.795425 
L 262.662387 88.472032 
L 269.288023 87.723636 
L 275.913619 86.876434 
L 285.852014 85.504281 
L 305.728844 82.720396 
L 315.667239 81.414591 
L 322.292835 80.595659 
L 328.918432 79.823773 
L 335.544029 79.102652 
L 342.169625 78.435473 
L 348.795222 77.824933 
L 355.420858 77.273132 
L 362.046455 76.781467 
L 368.672051 76.351136 
L 375.297688 75.983151 
L 381.923284 75.678281 
L 388.548881 75.436993 
L 395.174478 75.259467 
L 398.487276 75.194576 
" style="fill:none;stroke:#ff00ff;stroke-linecap:square;stroke-width:1.5;"/>
   </g>
   <g id="line2d_39">
    <path clip-path="url(#p41e3ff5575)" d="M 73.832724 174.570542 
L 77.145522 155.983103 
L 80.458321 142.18713 
L 83.771119 131.197032 
L 87.083917 122.132128 
L 90.396716 114.51388 
L 93.709554 108.039097 
L 97.022352 102.492133 
L 100.33515 97.708069 
L 103.647949 93.556117 
L 106.960747 89.93115 
L 110.273545 86.748255 
L 113.586344 83.938501 
L 116.899142 81.445742 
L 120.21194 79.223966 
L 123.524738 77.235407 
L 126.837537 75.448813 
L 130.150375 73.838206 
L 133.463173 72.381938 
L 136.775971 71.061859 
L 140.08877 69.862676 
L 143.401568 68.771559 
L 146.714366 67.777648 
L 150.027165 66.871684 
L 153.339963 66.045844 
L 156.652761 65.293511 
L 159.96556 64.609009 
L 163.278358 63.987547 
L 166.591156 63.424992 
L 169.903955 62.917781 
L 173.216753 62.462817 
L 176.529551 62.057409 
L 179.842389 61.699269 
L 183.155187 61.386431 
L 186.467986 61.117253 
L 189.780784 60.890407 
L 193.093582 60.704831 
L 196.406381 60.559776 
L 199.719179 60.454692 
L 203.031977 60.389158 
L 206.344776 60.362831 
L 209.657574 60.375346 
L 212.970412 60.426121 
L 216.28321 60.514255 
L 219.596008 60.638274 
L 226.221605 60.983122 
L 232.847202 61.424602 
L 242.785597 62.12012 
L 246.098395 62.317171 
L 249.411193 62.479978 
L 252.723992 62.60178 
L 256.03679 62.67884 
L 259.349588 62.71029 
L 262.662387 62.697476 
L 265.975185 62.64343 
L 269.288023 62.552106 
L 275.913619 62.275415 
L 282.539216 61.902281 
L 289.164852 61.463259 
L 299.103247 60.732946 
L 328.918432 58.472109 
L 338.856827 57.785153 
L 348.795222 57.15681 
L 358.733656 56.596066 
L 368.672051 56.109433 
L 378.610486 55.702448 
L 388.548881 55.380259 
L 398.487276 55.148175 
" style="fill:none;stroke:#ff0000;stroke-linecap:square;stroke-width:1.5;"/>
   </g>
   <g id="patch_3">
    <path d="M 57.6 307.584 
L 57.6 41.472 
" style="fill:none;stroke:#000000;stroke-linecap:square;stroke-linejoin:miter;stroke-width:0.8;"/>
   </g>
   <g id="patch_4">
    <path d="M 414.72 307.584 
L 414.72 41.472 
" style="fill:none;stroke:#000000;stroke-linecap:square;stroke-linejoin:miter;stroke-width:0.8;"/>
   </g>
   <g id="patch_5">
    <path d="M 57.6 307.584 
L 414.72 307.584 
" style="fill:none;stroke:#000000;stroke-linecap:square;stroke-linejoin:miter;stroke-width:0.8;"/>
   </g>
   <g id="patch_6">
    <path d="M 57.6 41.472 
L 414.72 41.472 
" style="fill:none;stroke:#000000;stroke-linecap:square;stroke-linejoin:miter;stroke-width:0.8;"/>
   </g>
   <g id="legend_1">
    <g id="patch_7">
     <path d="M 323.679375 302.584 
L 407.72 302.584 
Q 409.72 302.584 409.72 300.584 
L 409.72 257.549625 
Q 409.72 255.549625 407.72 255.549625 
L 323.679375 255.549625 
Q 321.679375 255.549625 321.679375 257.549625 
L 321.679375 300.584 
Q 321.679375 302.584 323.679375 302.584 
z
" style="fill:#ffffff;opacity:0.8;stroke:#cccccc;stroke-linejoin:miter;"/>
    </g>
    <g id="line2d_40">
     <path d="M 325.679375 263.648062 
L 345.679375 263.648062 
" style="fill:none;stroke:#ffa500;stroke-linecap:square;stroke-width:1.5;"/>
    </g>
    <g id="line2d_41"/>
    <g id="text_11">
     <!-- 0.01 noise -->
     <g transform="translate(353.679375 267.148062)scale(0.1 -0.1)">
      <use xlink:href="#DejaVuSans-48"/>
      <use x="63.623047" xlink:href="#DejaVuSans-46"/>
      <use x="95.410156" xlink:href="#DejaVuSans-48"/>
      <use x="159.033203" xlink:href="#DejaVuSans-49"/>
      <use x="222.65625" xlink:href="#DejaVuSans-32"/>
      <use x="254.443359" xlink:href="#DejaVuSans-110"/>
      <use x="317.822266" xlink:href="#DejaVuSans-111"/>
      <use x="379.003906" xlink:href="#DejaVuSans-105"/>
      <use x="406.787109" xlink:href="#DejaVuSans-115"/>
      <use x="458.886719" xlink:href="#DejaVuSans-101"/>
     </g>
    </g>
    <g id="line2d_42">
     <path d="M 325.679375 278.326188 
L 345.679375 278.326188 
" style="fill:none;stroke:#ff00ff;stroke-linecap:square;stroke-width:1.5;"/>
    </g>
    <g id="line2d_43"/>
    <g id="text_12">
     <!-- 0.05 noise -->
     <defs>
      <path d="M 10.796875 72.90625 
L 49.515625 72.90625 
L 49.515625 64.59375 
L 19.828125 64.59375 
L 19.828125 46.734375 
Q 21.96875 47.46875 24.109375 47.828125 
Q 26.265625 48.1875 28.421875 48.1875 
Q 40.625 48.1875 47.75 41.5 
Q 54.890625 34.8125 54.890625 23.390625 
Q 54.890625 11.625 47.5625 5.09375 
Q 40.234375 -1.421875 26.90625 -1.421875 
Q 22.3125 -1.421875 17.546875 -0.640625 
Q 12.796875 0.140625 7.71875 1.703125 
L 7.71875 11.625 
Q 12.109375 9.234375 16.796875 8.0625 
Q 21.484375 6.890625 26.703125 6.890625 
Q 35.15625 6.890625 40.078125 11.328125 
Q 45.015625 15.765625 45.015625 23.390625 
Q 45.015625 31 40.078125 35.4375 
Q 35.15625 39.890625 26.703125 39.890625 
Q 22.75 39.890625 18.8125 39.015625 
Q 14.890625 38.140625 10.796875 36.28125 
z
" id="DejaVuSans-53"/>
     </defs>
     <g transform="translate(353.679375 281.826188)scale(0.1 -0.1)">
      <use xlink:href="#DejaVuSans-48"/>
      <use x="63.623047" xlink:href="#DejaVuSans-46"/>
      <use x="95.410156" xlink:href="#DejaVuSans-48"/>
      <use x="159.033203" xlink:href="#DejaVuSans-53"/>
      <use x="222.65625" xlink:href="#DejaVuSans-32"/>
      <use x="254.443359" xlink:href="#DejaVuSans-110"/>
      <use x="317.822266" xlink:href="#DejaVuSans-111"/>
      <use x="379.003906" xlink:href="#DejaVuSans-105"/>
      <use x="406.787109" xlink:href="#DejaVuSans-115"/>
      <use x="458.886719" xlink:href="#DejaVuSans-101"/>
     </g>
    </g>
    <g id="line2d_44">
     <path d="M 325.679375 293.004312 
L 345.679375 293.004312 
" style="fill:none;stroke:#ff0000;stroke-linecap:square;stroke-width:1.5;"/>
    </g>
    <g id="line2d_45"/>
    <g id="text_13">
     <!-- 0.1 noise -->
     <g transform="translate(353.679375 296.504312)scale(0.1 -0.1)">
      <use xlink:href="#DejaVuSans-48"/>
      <use x="63.623047" xlink:href="#DejaVuSans-46"/>
      <use x="95.410156" xlink:href="#DejaVuSans-49"/>
      <use x="159.033203" xlink:href="#DejaVuSans-32"/>
      <use x="190.820312" xlink:href="#DejaVuSans-110"/>
      <use x="254.199219" xlink:href="#DejaVuSans-111"/>
      <use x="315.380859" xlink:href="#DejaVuSans-105"/>
      <use x="343.164062" xlink:href="#DejaVuSans-115"/>
      <use x="395.263672" xlink:href="#DejaVuSans-101"/>
     </g>
    </g>
   </g>
  </g>
 </g>
 <defs>
  <clipPath id="p41e3ff5575">
   <rect height="266.112" width="357.12" x="57.6" y="41.472"/>
  </clipPath>
 </defs>
</svg>
