<?xml version="1.0" encoding="utf-8" standalone="no"?>
<!DOCTYPE svg PUBLIC "-//W3C//DTD SVG 1.1//EN"
  "http://www.w3.org/Graphics/SVG/1.1/DTD/svg11.dtd">
<!-- Created with matplotlib (https://matplotlib.org/) -->
<svg height="345.6pt" version="1.1" viewBox="0 0 460.8 345.6" width="460.8pt" xmlns="http://www.w3.org/2000/svg" xmlns:xlink="http://www.w3.org/1999/xlink">
 <defs>
  <style type="text/css">
*{stroke-linecap:butt;stroke-linejoin:round;white-space:pre;}
  </style>
 </defs>
 <g id="figure_1">
  <g id="patch_1">
   <path d="M 0 345.6 
L 460.8 345.6 
L 460.8 0 
L 0 0 
z
" style="fill:#ffffff;"/>
  </g>
  <g id="axes_1">
   <g id="patch_2">
    <path d="M 57.6 307.584 
L 414.72 307.584 
L 414.72 41.472 
L 57.6 41.472 
z
" style="fill:#ffffff;"/>
   </g>
   <g id="PolyCollection_1">
    <path clip-path="url(#p371cea21df)" d="M 73.832727 268.449314 
L 73.832727 279.746662 
L 77.145529 246.83664 
L 80.45833 222.193743 
L 83.771132 202.42671 
L 87.083933 186.044852 
L 90.396735 172.241751 
L 93.709536 160.501024 
L 97.022338 150.446854 
L 100.335139 141.786575 
L 103.647941 134.284068 
L 106.960742 127.746931 
L 110.273544 122.018551 
L 113.586345 116.972623 
L 116.899147 112.506446 
L 120.211948 108.535257 
L 123.52475 104.988753 
L 126.837551 101.809513 
L 130.150353 98.950313 
L 133.463154 96.372221 
L 136.775955 94.043148 
L 140.088757 91.936362 
L 143.401558 90.029428 
L 146.71436 88.303031 
L 150.027161 86.740718 
L 153.339963 85.328389 
L 156.652764 84.054085 
L 159.965566 82.907854 
L 163.278367 81.881348 
L 166.591169 80.967579 
L 169.90397 80.160946 
L 173.216772 79.45704 
L 176.529573 78.852084 
L 179.842375 78.342482 
L 183.155176 77.924919 
L 186.467978 77.596733 
L 189.780779 77.355941 
L 193.093581 77.20117 
L 196.406382 77.131486 
L 199.719184 77.146233 
L 203.031985 77.24478 
L 206.344787 77.426187 
L 209.657588 77.688734 
L 212.97039 78.029217 
L 216.283191 78.441969 
L 219.595993 78.917653 
L 222.908794 79.44196 
L 226.221596 79.994434 
L 229.534397 80.548292 
L 232.847199 81.072046 
L 236.16 81.533153 
L 239.472801 81.902928 
L 242.785603 82.160675 
L 246.098404 82.295339 
L 249.411206 82.304717 
L 252.724007 82.19335 
L 256.036809 81.970208 
L 259.34961 81.64675 
L 262.662412 81.235482 
L 265.975213 80.748965 
L 269.288015 80.199206 
L 272.600816 79.597296 
L 275.913618 78.95325 
L 279.226419 78.275957 
L 282.539221 77.573225 
L 285.852022 76.851861 
L 289.164824 76.117775 
L 292.477625 75.376091 
L 295.790427 74.631241 
L 299.103228 73.887032 
L 302.41603 73.146726 
L 305.728831 72.413112 
L 309.041633 71.688585 
L 312.354434 70.975207 
L 315.667236 70.274768 
L 318.980037 69.588853 
L 322.292839 68.918903 
L 325.60564 68.266239 
L 328.918442 67.632074 
L 332.231243 67.017549 
L 335.544045 66.423763 
L 338.856846 65.851798 
L 342.169647 65.302727 
L 345.482449 64.777612 
L 348.79525 64.277521 
L 352.108052 63.803525 
L 355.420853 63.35666 
L 358.733655 62.937874 
L 362.046456 62.547951 
L 365.359258 62.187481 
L 368.672059 61.856941 
L 371.984861 61.55681 
L 375.297662 61.287643 
L 378.610464 61.050071 
L 381.923265 60.844806 
L 385.236067 60.672639 
L 388.548868 60.534495 
L 391.86167 60.431434 
L 395.174471 60.364647 
L 398.487273 60.335445 
L 398.487273 53.568 
L 398.487273 53.568 
L 395.174471 53.595204 
L 391.86167 53.65651 
L 388.548868 53.750863 
L 385.236067 53.877261 
L 381.923265 54.034782 
L 378.610464 54.222594 
L 375.297662 54.439946 
L 371.984861 54.686147 
L 368.672059 54.96056 
L 365.359258 55.262604 
L 362.046456 55.591732 
L 358.733655 55.947371 
L 355.420853 56.328873 
L 352.108052 56.735456 
L 348.79525 57.166201 
L 345.482449 57.620088 
L 342.169647 58.09606 
L 338.856846 58.593055 
L 335.544045 59.109998 
L 332.231243 59.645792 
L 328.918442 60.199304 
L 325.60564 60.76935 
L 322.292839 61.354665 
L 318.980037 61.953882 
L 315.667236 62.565518 
L 312.354434 63.187946 
L 309.041633 63.81935 
L 305.728831 64.457649 
L 302.41603 65.100445 
L 299.103228 65.744964 
L 295.790427 66.38799 
L 292.477625 67.025777 
L 289.164824 67.653963 
L 285.852022 68.267471 
L 282.539221 68.860382 
L 279.226419 69.425804 
L 275.913618 69.955733 
L 272.600816 70.440951 
L 269.288015 70.870956 
L 265.975213 71.233955 
L 262.662412 71.516966 
L 259.34961 71.706132 
L 256.036809 71.787373 
L 252.724007 71.747578 
L 249.411206 71.576499 
L 246.098404 71.269437 
L 242.785603 70.83044 
L 239.472801 70.27503 
L 236.16 69.630728 
L 232.847199 68.934048 
L 229.534397 68.224444 
L 226.221596 67.537856 
L 222.908794 66.902604 
L 219.595993 66.338386 
L 216.283191 65.857431 
L 212.97039 65.466508 
L 209.657588 65.168862 
L 206.344787 64.965632 
L 203.031985 64.856836 
L 199.719184 64.84199 
L 196.406382 64.920509 
L 193.093581 65.091948 
L 189.780779 65.356106 
L 186.467978 65.71314 
L 183.155176 66.163594 
L 179.842375 66.708355 
L 176.529573 67.348676 
L 173.216772 68.086242 
L 169.90397 68.923309 
L 166.591169 69.86282 
L 163.278367 70.908617 
L 159.965566 72.065563 
L 156.652764 73.339609 
L 153.339963 74.737941 
L 150.027161 76.269305 
L 146.71436 77.944229 
L 143.401558 79.775243 
L 140.088757 81.77725 
L 136.775955 83.967743 
L 133.463154 86.367319 
L 130.150353 89.000645 
L 126.837551 91.897911 
L 123.52475 95.095744 
L 120.211948 98.639129 
L 116.899147 102.583724 
L 113.586345 106.99773 
L 110.273544 111.965011 
L 106.960742 117.589915 
L 103.647941 124.001638 
L 100.335139 131.359075 
L 97.022338 139.858177 
L 93.709536 149.743644 
L 90.396735 161.32091 
L 87.083933 174.979849 
L 83.771132 191.250131 
L 80.45833 210.948635 
L 77.145529 235.562374 
L 73.832727 268.449314 
z
" style="fill:#ff0000;fill-opacity:0.4;"/>
   </g>
   <g id="PolyCollection_2">
    <path clip-path="url(#p371cea21df)" d="M 73.832727 269.324785 
L 73.832727 295.488 
L 77.145529 262.240636 
L 80.45833 237.326276 
L 83.771132 217.364839 
L 87.083933 200.862137 
L 90.396735 187.007408 
L 93.709536 175.278489 
L 97.022338 165.292422 
L 100.335139 156.746736 
L 103.647941 149.394081 
L 106.960742 143.034292 
L 110.273544 137.504226 
L 113.586345 132.670916 
L 116.899147 128.425804 
L 120.211948 124.679644 
L 123.52475 121.360828 
L 126.837551 118.413058 
L 130.150353 115.789705 
L 133.463154 113.451507 
L 136.775955 111.365483 
L 140.088757 109.50381 
L 143.401558 107.842948 
L 146.71436 106.362984 
L 150.027161 105.046661 
L 153.339963 103.879226 
L 156.652764 102.848589 
L 159.965566 101.944712 
L 163.278367 101.159035 
L 166.591169 100.484415 
L 169.90397 99.914677 
L 173.216772 99.444399 
L 176.529573 99.06897 
L 179.842375 98.784327 
L 183.155176 98.586674 
L 186.467978 98.472182 
L 189.780779 98.436681 
L 193.093581 98.4753 
L 196.406382 98.581947 
L 199.719184 98.748891 
L 203.031985 98.966317 
L 206.344787 99.221736 
L 209.657588 99.499483 
L 212.97039 99.780572 
L 216.283191 100.043142 
L 219.595993 100.263653 
L 222.908794 100.418786 
L 226.221596 100.487538 
L 229.534397 100.452943 
L 232.847199 100.303391 
L 236.16 100.033211 
L 239.472801 99.64249 
L 242.785603 99.136231 
L 246.098404 98.52302 
L 249.411206 97.813614 
L 252.724007 97.019792 
L 256.036809 96.153619 
L 259.34961 95.226994 
L 262.662412 94.251345 
L 265.975213 93.237432 
L 269.288015 92.195184 
L 272.600816 91.133625 
L 275.913618 90.060856 
L 279.226419 88.984076 
L 282.539221 87.909629 
L 285.852022 86.843045 
L 289.164824 85.789075 
L 292.477625 84.751755 
L 295.790427 83.734453 
L 299.103228 82.73993 
L 302.41603 81.770395 
L 305.728831 80.827583 
L 309.041633 79.91284 
L 312.354434 79.027205 
L 315.667236 78.171471 
L 318.980037 77.346218 
L 322.292839 76.551888 
L 325.60564 75.788828 
L 328.918442 75.057323 
L 332.231243 74.357626 
L 335.544045 73.689986 
L 338.856846 73.054654 
L 342.169647 72.451913 
L 345.482449 71.882118 
L 348.79525 71.345671 
L 352.108052 70.842969 
L 355.420853 70.374428 
L 358.733655 69.94044 
L 362.046456 69.541357 
L 365.359258 69.177478 
L 368.672059 68.848988 
L 371.984861 68.55603 
L 375.297662 68.298749 
L 378.610464 68.077282 
L 381.923265 67.891726 
L 385.236067 67.742102 
L 388.548868 67.628351 
L 391.86167 67.550309 
L 395.174471 67.507653 
L 398.487273 67.499829 
L 398.487273 54.685924 
L 398.487273 54.685924 
L 395.174471 54.668786 
L 391.86167 54.689364 
L 388.548868 54.746298 
L 385.236067 54.838296 
L 381.923265 54.964159 
L 378.610464 55.122797 
L 375.297662 55.313234 
L 371.984861 55.534581 
L 368.672059 55.786031 
L 365.359258 56.066846 
L 362.046456 56.376339 
L 358.733655 56.713842 
L 355.420853 57.078667 
L 352.108052 57.470032 
L 348.79525 57.886992 
L 345.482449 58.328468 
L 342.169647 58.793327 
L 338.856846 59.28043 
L 335.544045 59.78863 
L 332.231243 60.316762 
L 328.918442 60.86362 
L 325.60564 61.427943 
L 322.292839 62.008391 
L 318.980037 62.603521 
L 315.667236 63.211774 
L 312.354434 63.831444 
L 309.041633 64.460637 
L 305.728831 65.097201 
L 302.41603 65.738672 
L 299.103228 66.382217 
L 295.790427 67.02457 
L 292.477625 67.661948 
L 289.164824 68.289969 
L 285.852022 68.90356 
L 282.539221 69.496829 
L 279.226419 70.062941 
L 275.913618 70.593985 
L 272.600816 71.080871 
L 269.288015 71.513264 
L 265.975213 71.879558 
L 262.662412 72.166963 
L 259.34961 72.361773 
L 256.036809 72.449951 
L 252.724007 72.418228 
L 249.411206 72.255875 
L 246.098404 71.957262 
L 242.785603 71.525007 
L 239.472801 70.972816 
L 236.16 70.326418 
L 232.847199 69.621131 
L 229.534397 68.896257 
L 226.221596 68.188662 
L 222.908794 67.528305 
L 219.595993 66.936734 
L 216.283191 66.427864 
L 212.97039 66.009801 
L 209.657588 65.686709 
L 206.344787 65.460285 
L 203.031985 65.330832 
L 199.719184 65.297966 
L 196.406382 65.36109 
L 193.093581 65.519691 
L 189.780779 65.773479 
L 186.467978 66.122504 
L 183.155176 66.567203 
L 179.842375 67.108345 
L 176.529573 67.747044 
L 173.216772 68.484861 
L 169.90397 69.323981 
L 166.591169 70.267324 
L 163.278367 71.31872 
L 159.965566 72.483011 
L 156.652764 73.766105 
L 153.339963 75.175151 
L 150.027161 76.718844 
L 146.71436 78.407661 
L 143.401558 80.254073 
L 140.088757 82.272899 
L 136.775955 84.481555 
L 133.463154 86.900538 
L 130.150353 89.554331 
L 126.837551 92.472931 
L 123.52475 95.692647 
L 120.211948 99.257997 
L 116.899147 103.224507 
L 113.586345 107.660477 
L 110.273544 112.650015 
L 106.960742 118.297931 
L 103.647941 124.733889 
L 100.335139 132.116874 
L 97.022338 140.642614 
L 93.709536 150.555415 
L 90.396735 162.159249 
L 87.083933 175.841926 
L 83.771132 192.13057 
L 80.45833 211.839408 
L 77.145529 236.452698 
L 73.832727 269.324785 
z
" style="fill:#0000ff;fill-opacity:0.4;"/>
   </g>
   <g id="matplotlib.axis_1">
    <g id="xtick_1">
     <g id="line2d_1">
      <path clip-path="url(#p371cea21df)" d="M 70.519926 307.584 
L 70.519926 41.472 
" style="fill:none;stroke:#b0b0b0;stroke-linecap:square;stroke-width:0.8;"/>
     </g>
     <g id="line2d_2">
      <defs>
       <path d="M 0 0 
L 0 3.5 
" id="mef9b88e7b2" style="stroke:#000000;stroke-width:0.8;"/>
      </defs>
      <g>
       <use style="stroke:#000000;stroke-width:0.8;" x="70.519926" xlink:href="#mef9b88e7b2" y="307.584"/>
      </g>
     </g>
     <g id="text_1">
      <!-- 0.0 -->
      <defs>
       <path d="M 31.78125 66.40625 
Q 24.171875 66.40625 20.328125 58.90625 
Q 16.5 51.421875 16.5 36.375 
Q 16.5 21.390625 20.328125 13.890625 
Q 24.171875 6.390625 31.78125 6.390625 
Q 39.453125 6.390625 43.28125 13.890625 
Q 47.125 21.390625 47.125 36.375 
Q 47.125 51.421875 43.28125 58.90625 
Q 39.453125 66.40625 31.78125 66.40625 
z
M 31.78125 74.21875 
Q 44.046875 74.21875 50.515625 64.515625 
Q 56.984375 54.828125 56.984375 36.375 
Q 56.984375 17.96875 50.515625 8.265625 
Q 44.046875 -1.421875 31.78125 -1.421875 
Q 19.53125 -1.421875 13.0625 8.265625 
Q 6.59375 17.96875 6.59375 36.375 
Q 6.59375 54.828125 13.0625 64.515625 
Q 19.53125 74.21875 31.78125 74.21875 
z
" id="DejaVuSans-48"/>
       <path d="M 10.6875 12.40625 
L 21 12.40625 
L 21 0 
L 10.6875 0 
z
" id="DejaVuSans-46"/>
      </defs>
      <g transform="translate(62.568363 322.182437)scale(0.1 -0.1)">
       <use xlink:href="#DejaVuSans-48"/>
       <use x="63.623047" xlink:href="#DejaVuSans-46"/>
       <use x="95.410156" xlink:href="#DejaVuSans-48"/>
      </g>
     </g>
    </g>
    <g id="xtick_2">
     <g id="line2d_3">
      <path clip-path="url(#p371cea21df)" d="M 136.775955 307.584 
L 136.775955 41.472 
" style="fill:none;stroke:#b0b0b0;stroke-linecap:square;stroke-width:0.8;"/>
     </g>
     <g id="line2d_4">
      <g>
       <use style="stroke:#000000;stroke-width:0.8;" x="136.775955" xlink:href="#mef9b88e7b2" y="307.584"/>
      </g>
     </g>
     <g id="text_2">
      <!-- 0.2 -->
      <defs>
       <path d="M 19.1875 8.296875 
L 53.609375 8.296875 
L 53.609375 0 
L 7.328125 0 
L 7.328125 8.296875 
Q 12.9375 14.109375 22.625 23.890625 
Q 32.328125 33.6875 34.8125 36.53125 
Q 39.546875 41.84375 41.421875 45.53125 
Q 43.3125 49.21875 43.3125 52.78125 
Q 43.3125 58.59375 39.234375 62.25 
Q 35.15625 65.921875 28.609375 65.921875 
Q 23.96875 65.921875 18.8125 64.3125 
Q 13.671875 62.703125 7.8125 59.421875 
L 7.8125 69.390625 
Q 13.765625 71.78125 18.9375 73 
Q 24.125 74.21875 28.421875 74.21875 
Q 39.75 74.21875 46.484375 68.546875 
Q 53.21875 62.890625 53.21875 53.421875 
Q 53.21875 48.921875 51.53125 44.890625 
Q 49.859375 40.875 45.40625 35.40625 
Q 44.1875 33.984375 37.640625 27.21875 
Q 31.109375 20.453125 19.1875 8.296875 
z
" id="DejaVuSans-50"/>
      </defs>
      <g transform="translate(128.824393 322.182437)scale(0.1 -0.1)">
       <use xlink:href="#DejaVuSans-48"/>
       <use x="63.623047" xlink:href="#DejaVuSans-46"/>
       <use x="95.410156" xlink:href="#DejaVuSans-50"/>
      </g>
     </g>
    </g>
    <g id="xtick_3">
     <g id="line2d_5">
      <path clip-path="url(#p371cea21df)" d="M 203.031985 307.584 
L 203.031985 41.472 
" style="fill:none;stroke:#b0b0b0;stroke-linecap:square;stroke-width:0.8;"/>
     </g>
     <g id="line2d_6">
      <g>
       <use style="stroke:#000000;stroke-width:0.8;" x="203.031985" xlink:href="#mef9b88e7b2" y="307.584"/>
      </g>
     </g>
     <g id="text_3">
      <!-- 0.4 -->
      <defs>
       <path d="M 37.796875 64.3125 
L 12.890625 25.390625 
L 37.796875 25.390625 
z
M 35.203125 72.90625 
L 47.609375 72.90625 
L 47.609375 25.390625 
L 58.015625 25.390625 
L 58.015625 17.1875 
L 47.609375 17.1875 
L 47.609375 0 
L 37.796875 0 
L 37.796875 17.1875 
L 4.890625 17.1875 
L 4.890625 26.703125 
z
" id="DejaVuSans-52"/>
      </defs>
      <g transform="translate(195.080423 322.182437)scale(0.1 -0.1)">
       <use xlink:href="#DejaVuSans-48"/>
       <use x="63.623047" xlink:href="#DejaVuSans-46"/>
       <use x="95.410156" xlink:href="#DejaVuSans-52"/>
      </g>
     </g>
    </g>
    <g id="xtick_4">
     <g id="line2d_7">
      <path clip-path="url(#p371cea21df)" d="M 269.288015 307.584 
L 269.288015 41.472 
" style="fill:none;stroke:#b0b0b0;stroke-linecap:square;stroke-width:0.8;"/>
     </g>
     <g id="line2d_8">
      <g>
       <use style="stroke:#000000;stroke-width:0.8;" x="269.288015" xlink:href="#mef9b88e7b2" y="307.584"/>
      </g>
     </g>
     <g id="text_4">
      <!-- 0.6 -->
      <defs>
       <path d="M 33.015625 40.375 
Q 26.375 40.375 22.484375 35.828125 
Q 18.609375 31.296875 18.609375 23.390625 
Q 18.609375 15.53125 22.484375 10.953125 
Q 26.375 6.390625 33.015625 6.390625 
Q 39.65625 6.390625 43.53125 10.953125 
Q 47.40625 15.53125 47.40625 23.390625 
Q 47.40625 31.296875 43.53125 35.828125 
Q 39.65625 40.375 33.015625 40.375 
z
M 52.59375 71.296875 
L 52.59375 62.3125 
Q 48.875 64.0625 45.09375 64.984375 
Q 41.3125 65.921875 37.59375 65.921875 
Q 27.828125 65.921875 22.671875 59.328125 
Q 17.53125 52.734375 16.796875 39.40625 
Q 19.671875 43.65625 24.015625 45.921875 
Q 28.375 48.1875 33.59375 48.1875 
Q 44.578125 48.1875 50.953125 41.515625 
Q 57.328125 34.859375 57.328125 23.390625 
Q 57.328125 12.15625 50.6875 5.359375 
Q 44.046875 -1.421875 33.015625 -1.421875 
Q 20.359375 -1.421875 13.671875 8.265625 
Q 6.984375 17.96875 6.984375 36.375 
Q 6.984375 53.65625 15.1875 63.9375 
Q 23.390625 74.21875 37.203125 74.21875 
Q 40.921875 74.21875 44.703125 73.484375 
Q 48.484375 72.75 52.59375 71.296875 
z
" id="DejaVuSans-54"/>
      </defs>
      <g transform="translate(261.336452 322.182437)scale(0.1 -0.1)">
       <use xlink:href="#DejaVuSans-48"/>
       <use x="63.623047" xlink:href="#DejaVuSans-46"/>
       <use x="95.410156" xlink:href="#DejaVuSans-54"/>
      </g>
     </g>
    </g>
    <g id="xtick_5">
     <g id="line2d_9">
      <path clip-path="url(#p371cea21df)" d="M 335.544045 307.584 
L 335.544045 41.472 
" style="fill:none;stroke:#b0b0b0;stroke-linecap:square;stroke-width:0.8;"/>
     </g>
     <g id="line2d_10">
      <g>
       <use style="stroke:#000000;stroke-width:0.8;" x="335.544045" xlink:href="#mef9b88e7b2" y="307.584"/>
      </g>
     </g>
     <g id="text_5">
      <!-- 0.8 -->
      <defs>
       <path d="M 31.78125 34.625 
Q 24.75 34.625 20.71875 30.859375 
Q 16.703125 27.09375 16.703125 20.515625 
Q 16.703125 13.921875 20.71875 10.15625 
Q 24.75 6.390625 31.78125 6.390625 
Q 38.8125 6.390625 42.859375 10.171875 
Q 46.921875 13.96875 46.921875 20.515625 
Q 46.921875 27.09375 42.890625 30.859375 
Q 38.875 34.625 31.78125 34.625 
z
M 21.921875 38.8125 
Q 15.578125 40.375 12.03125 44.71875 
Q 8.5 49.078125 8.5 55.328125 
Q 8.5 64.0625 14.71875 69.140625 
Q 20.953125 74.21875 31.78125 74.21875 
Q 42.671875 74.21875 48.875 69.140625 
Q 55.078125 64.0625 55.078125 55.328125 
Q 55.078125 49.078125 51.53125 44.71875 
Q 48 40.375 41.703125 38.8125 
Q 48.828125 37.15625 52.796875 32.3125 
Q 56.78125 27.484375 56.78125 20.515625 
Q 56.78125 9.90625 50.3125 4.234375 
Q 43.84375 -1.421875 31.78125 -1.421875 
Q 19.734375 -1.421875 13.25 4.234375 
Q 6.78125 9.90625 6.78125 20.515625 
Q 6.78125 27.484375 10.78125 32.3125 
Q 14.796875 37.15625 21.921875 38.8125 
z
M 18.3125 54.390625 
Q 18.3125 48.734375 21.84375 45.5625 
Q 25.390625 42.390625 31.78125 42.390625 
Q 38.140625 42.390625 41.71875 45.5625 
Q 45.3125 48.734375 45.3125 54.390625 
Q 45.3125 60.0625 41.71875 63.234375 
Q 38.140625 66.40625 31.78125 66.40625 
Q 25.390625 66.40625 21.84375 63.234375 
Q 18.3125 60.0625 18.3125 54.390625 
z
" id="DejaVuSans-56"/>
      </defs>
      <g transform="translate(327.592482 322.182437)scale(0.1 -0.1)">
       <use xlink:href="#DejaVuSans-48"/>
       <use x="63.623047" xlink:href="#DejaVuSans-46"/>
       <use x="95.410156" xlink:href="#DejaVuSans-56"/>
      </g>
     </g>
    </g>
    <g id="xtick_6">
     <g id="line2d_11">
      <path clip-path="url(#p371cea21df)" d="M 401.800074 307.584 
L 401.800074 41.472 
" style="fill:none;stroke:#b0b0b0;stroke-linecap:square;stroke-width:0.8;"/>
     </g>
     <g id="line2d_12">
      <g>
       <use style="stroke:#000000;stroke-width:0.8;" x="401.800074" xlink:href="#mef9b88e7b2" y="307.584"/>
      </g>
     </g>
     <g id="text_6">
      <!-- 1.0 -->
      <defs>
       <path d="M 12.40625 8.296875 
L 28.515625 8.296875 
L 28.515625 63.921875 
L 10.984375 60.40625 
L 10.984375 69.390625 
L 28.421875 72.90625 
L 38.28125 72.90625 
L 38.28125 8.296875 
L 54.390625 8.296875 
L 54.390625 0 
L 12.40625 0 
z
" id="DejaVuSans-49"/>
      </defs>
      <g transform="translate(393.848512 322.182437)scale(0.1 -0.1)">
       <use xlink:href="#DejaVuSans-49"/>
       <use x="63.623047" xlink:href="#DejaVuSans-46"/>
       <use x="95.410156" xlink:href="#DejaVuSans-48"/>
      </g>
     </g>
    </g>
    <g id="text_7">
     <!-- $\mathrm{Time \ (seconds)}$ -->
     <defs>
      <path d="M -0.296875 72.90625 
L 61.375 72.90625 
L 61.375 64.59375 
L 35.5 64.59375 
L 35.5 0 
L 25.59375 0 
L 25.59375 64.59375 
L -0.296875 64.59375 
z
" id="DejaVuSans-84"/>
      <path d="M 9.421875 54.6875 
L 18.40625 54.6875 
L 18.40625 0 
L 9.421875 0 
z
M 9.421875 75.984375 
L 18.40625 75.984375 
L 18.40625 64.59375 
L 9.421875 64.59375 
z
" id="DejaVuSans-105"/>
      <path d="M 52 44.1875 
Q 55.375 50.25 60.0625 53.125 
Q 64.75 56 71.09375 56 
Q 79.640625 56 84.28125 50.015625 
Q 88.921875 44.046875 88.921875 33.015625 
L 88.921875 0 
L 79.890625 0 
L 79.890625 32.71875 
Q 79.890625 40.578125 77.09375 44.375 
Q 74.3125 48.1875 68.609375 48.1875 
Q 61.625 48.1875 57.5625 43.546875 
Q 53.515625 38.921875 53.515625 30.90625 
L 53.515625 0 
L 44.484375 0 
L 44.484375 32.71875 
Q 44.484375 40.625 41.703125 44.40625 
Q 38.921875 48.1875 33.109375 48.1875 
Q 26.21875 48.1875 22.15625 43.53125 
Q 18.109375 38.875 18.109375 30.90625 
L 18.109375 0 
L 9.078125 0 
L 9.078125 54.6875 
L 18.109375 54.6875 
L 18.109375 46.1875 
Q 21.1875 51.21875 25.484375 53.609375 
Q 29.78125 56 35.6875 56 
Q 41.65625 56 45.828125 52.96875 
Q 50 49.953125 52 44.1875 
z
" id="DejaVuSans-109"/>
      <path d="M 56.203125 29.59375 
L 56.203125 25.203125 
L 14.890625 25.203125 
Q 15.484375 15.921875 20.484375 11.0625 
Q 25.484375 6.203125 34.421875 6.203125 
Q 39.59375 6.203125 44.453125 7.46875 
Q 49.3125 8.734375 54.109375 11.28125 
L 54.109375 2.78125 
Q 49.265625 0.734375 44.1875 -0.34375 
Q 39.109375 -1.421875 33.890625 -1.421875 
Q 20.796875 -1.421875 13.15625 6.1875 
Q 5.515625 13.8125 5.515625 26.8125 
Q 5.515625 40.234375 12.765625 48.109375 
Q 20.015625 56 32.328125 56 
Q 43.359375 56 49.78125 48.890625 
Q 56.203125 41.796875 56.203125 29.59375 
z
M 47.21875 32.234375 
Q 47.125 39.59375 43.09375 43.984375 
Q 39.0625 48.390625 32.421875 48.390625 
Q 24.90625 48.390625 20.390625 44.140625 
Q 15.875 39.890625 15.1875 32.171875 
z
" id="DejaVuSans-101"/>
      <path d="M 31 75.875 
Q 24.46875 64.65625 21.28125 53.65625 
Q 18.109375 42.671875 18.109375 31.390625 
Q 18.109375 20.125 21.3125 9.0625 
Q 24.515625 -2 31 -13.1875 
L 23.1875 -13.1875 
Q 15.875 -1.703125 12.234375 9.375 
Q 8.59375 20.453125 8.59375 31.390625 
Q 8.59375 42.28125 12.203125 53.3125 
Q 15.828125 64.359375 23.1875 75.875 
z
" id="DejaVuSans-40"/>
      <path d="M 44.28125 53.078125 
L 44.28125 44.578125 
Q 40.484375 46.53125 36.375 47.5 
Q 32.28125 48.484375 27.875 48.484375 
Q 21.1875 48.484375 17.84375 46.4375 
Q 14.5 44.390625 14.5 40.28125 
Q 14.5 37.15625 16.890625 35.375 
Q 19.28125 33.59375 26.515625 31.984375 
L 29.59375 31.296875 
Q 39.15625 29.25 43.1875 25.515625 
Q 47.21875 21.78125 47.21875 15.09375 
Q 47.21875 7.46875 41.1875 3.015625 
Q 35.15625 -1.421875 24.609375 -1.421875 
Q 20.21875 -1.421875 15.453125 -0.5625 
Q 10.6875 0.296875 5.421875 2 
L 5.421875 11.28125 
Q 10.40625 8.6875 15.234375 7.390625 
Q 20.0625 6.109375 24.8125 6.109375 
Q 31.15625 6.109375 34.5625 8.28125 
Q 37.984375 10.453125 37.984375 14.40625 
Q 37.984375 18.0625 35.515625 20.015625 
Q 33.0625 21.96875 24.703125 23.78125 
L 21.578125 24.515625 
Q 13.234375 26.265625 9.515625 29.90625 
Q 5.8125 33.546875 5.8125 39.890625 
Q 5.8125 47.609375 11.28125 51.796875 
Q 16.75 56 26.8125 56 
Q 31.78125 56 36.171875 55.265625 
Q 40.578125 54.546875 44.28125 53.078125 
z
" id="DejaVuSans-115"/>
      <path d="M 48.78125 52.59375 
L 48.78125 44.1875 
Q 44.96875 46.296875 41.140625 47.34375 
Q 37.3125 48.390625 33.40625 48.390625 
Q 24.65625 48.390625 19.8125 42.84375 
Q 14.984375 37.3125 14.984375 27.296875 
Q 14.984375 17.28125 19.8125 11.734375 
Q 24.65625 6.203125 33.40625 6.203125 
Q 37.3125 6.203125 41.140625 7.25 
Q 44.96875 8.296875 48.78125 10.40625 
L 48.78125 2.09375 
Q 45.015625 0.34375 40.984375 -0.53125 
Q 36.96875 -1.421875 32.421875 -1.421875 
Q 20.0625 -1.421875 12.78125 6.34375 
Q 5.515625 14.109375 5.515625 27.296875 
Q 5.515625 40.671875 12.859375 48.328125 
Q 20.21875 56 33.015625 56 
Q 37.15625 56 41.109375 55.140625 
Q 45.0625 54.296875 48.78125 52.59375 
z
" id="DejaVuSans-99"/>
      <path d="M 30.609375 48.390625 
Q 23.390625 48.390625 19.1875 42.75 
Q 14.984375 37.109375 14.984375 27.296875 
Q 14.984375 17.484375 19.15625 11.84375 
Q 23.34375 6.203125 30.609375 6.203125 
Q 37.796875 6.203125 41.984375 11.859375 
Q 46.1875 17.53125 46.1875 27.296875 
Q 46.1875 37.015625 41.984375 42.703125 
Q 37.796875 48.390625 30.609375 48.390625 
z
M 30.609375 56 
Q 42.328125 56 49.015625 48.375 
Q 55.71875 40.765625 55.71875 27.296875 
Q 55.71875 13.875 49.015625 6.21875 
Q 42.328125 -1.421875 30.609375 -1.421875 
Q 18.84375 -1.421875 12.171875 6.21875 
Q 5.515625 13.875 5.515625 27.296875 
Q 5.515625 40.765625 12.171875 48.375 
Q 18.84375 56 30.609375 56 
z
" id="DejaVuSans-111"/>
      <path d="M 54.890625 33.015625 
L 54.890625 0 
L 45.90625 0 
L 45.90625 32.71875 
Q 45.90625 40.484375 42.875 44.328125 
Q 39.84375 48.1875 33.796875 48.1875 
Q 26.515625 48.1875 22.3125 43.546875 
Q 18.109375 38.921875 18.109375 30.90625 
L 18.109375 0 
L 9.078125 0 
L 9.078125 54.6875 
L 18.109375 54.6875 
L 18.109375 46.1875 
Q 21.34375 51.125 25.703125 53.5625 
Q 30.078125 56 35.796875 56 
Q 45.21875 56 50.046875 50.171875 
Q 54.890625 44.34375 54.890625 33.015625 
z
" id="DejaVuSans-110"/>
      <path d="M 45.40625 46.390625 
L 45.40625 75.984375 
L 54.390625 75.984375 
L 54.390625 0 
L 45.40625 0 
L 45.40625 8.203125 
Q 42.578125 3.328125 38.25 0.953125 
Q 33.9375 -1.421875 27.875 -1.421875 
Q 17.96875 -1.421875 11.734375 6.484375 
Q 5.515625 14.40625 5.515625 27.296875 
Q 5.515625 40.1875 11.734375 48.09375 
Q 17.96875 56 27.875 56 
Q 33.9375 56 38.25 53.625 
Q 42.578125 51.265625 45.40625 46.390625 
z
M 14.796875 27.296875 
Q 14.796875 17.390625 18.875 11.75 
Q 22.953125 6.109375 30.078125 6.109375 
Q 37.203125 6.109375 41.296875 11.75 
Q 45.40625 17.390625 45.40625 27.296875 
Q 45.40625 37.203125 41.296875 42.84375 
Q 37.203125 48.484375 30.078125 48.484375 
Q 22.953125 48.484375 18.875 42.84375 
Q 14.796875 37.203125 14.796875 27.296875 
z
" id="DejaVuSans-100"/>
      <path d="M 8.015625 75.875 
L 15.828125 75.875 
Q 23.140625 64.359375 26.78125 53.3125 
Q 30.421875 42.28125 30.421875 31.390625 
Q 30.421875 20.453125 26.78125 9.375 
Q 23.140625 -1.703125 15.828125 -13.1875 
L 8.015625 -13.1875 
Q 14.5 -2 17.703125 9.0625 
Q 20.90625 20.125 20.90625 31.390625 
Q 20.90625 42.671875 17.703125 53.65625 
Q 14.5 64.65625 8.015625 75.875 
z
" id="DejaVuSans-41"/>
     </defs>
     <g transform="translate(197.76 335.860562)scale(0.1 -0.1)">
      <use transform="translate(0 0.015625)" xlink:href="#DejaVuSans-84"/>
      <use transform="translate(61.083984 0.015625)" xlink:href="#DejaVuSans-105"/>
      <use transform="translate(88.867188 0.015625)" xlink:href="#DejaVuSans-109"/>
      <use transform="translate(186.279297 0.015625)" xlink:href="#DejaVuSans-101"/>
      <use transform="translate(280.273113 0.015625)" xlink:href="#DejaVuSans-40"/>
      <use transform="translate(319.286785 0.015625)" xlink:href="#DejaVuSans-115"/>
      <use transform="translate(371.386394 0.015625)" xlink:href="#DejaVuSans-101"/>
      <use transform="translate(432.909832 0.015625)" xlink:href="#DejaVuSans-99"/>
      <use transform="translate(487.8903 0.015625)" xlink:href="#DejaVuSans-111"/>
      <use transform="translate(549.071941 0.015625)" xlink:href="#DejaVuSans-110"/>
      <use transform="translate(612.450847 0.015625)" xlink:href="#DejaVuSans-100"/>
      <use transform="translate(675.92741 0.015625)" xlink:href="#DejaVuSans-115"/>
      <use transform="translate(728.027019 0.015625)" xlink:href="#DejaVuSans-41"/>
     </g>
    </g>
   </g>
   <g id="matplotlib.axis_2">
    <g id="ytick_1">
     <g id="line2d_13">
      <path clip-path="url(#p371cea21df)" d="M 57.6 160.39902 
L 414.72 160.39902 
" style="fill:none;stroke:#b0b0b0;stroke-linecap:square;stroke-width:0.8;"/>
     </g>
     <g id="line2d_14">
      <defs>
       <path d="M 0 0 
L -3.5 0 
" id="mff19b694e5" style="stroke:#000000;stroke-width:0.8;"/>
      </defs>
      <g>
       <use style="stroke:#000000;stroke-width:0.8;" x="57.6" xlink:href="#mff19b694e5" y="160.39902"/>
      </g>
     </g>
     <g id="text_8">
      <!-- $\mathdefault{10^{-1}}$ -->
      <defs>
       <path d="M 10.59375 35.5 
L 73.1875 35.5 
L 73.1875 27.203125 
L 10.59375 27.203125 
z
" id="DejaVuSans-8722"/>
      </defs>
      <g transform="translate(27.1 164.198239)scale(0.1 -0.1)">
       <use transform="translate(0 0.684375)" xlink:href="#DejaVuSans-49"/>
       <use transform="translate(63.623047 0.684375)" xlink:href="#DejaVuSans-48"/>
       <use transform="translate(128.203125 38.965625)scale(0.7)" xlink:href="#DejaVuSans-8722"/>
       <use transform="translate(186.855469 38.965625)scale(0.7)" xlink:href="#DejaVuSans-49"/>
      </g>
     </g>
    </g>
    <g id="ytick_2">
     <g id="line2d_15">
      <defs>
       <path d="M 0 0 
L -2 0 
" id="m4352d6bc46" style="stroke:#000000;stroke-width:0.6;"/>
      </defs>
      <g>
       <use style="stroke:#000000;stroke-width:0.6;" x="57.6" xlink:href="#m4352d6bc46" y="292.519638"/>
      </g>
     </g>
    </g>
    <g id="ytick_3">
     <g id="line2d_16">
      <g>
       <use style="stroke:#000000;stroke-width:0.6;" x="57.6" xlink:href="#m4352d6bc46" y="259.234538"/>
      </g>
     </g>
    </g>
    <g id="ytick_4">
     <g id="line2d_17">
      <g>
       <use style="stroke:#000000;stroke-width:0.6;" x="57.6" xlink:href="#m4352d6bc46" y="235.618385"/>
      </g>
     </g>
    </g>
    <g id="ytick_5">
     <g id="line2d_18">
      <g>
       <use style="stroke:#000000;stroke-width:0.6;" x="57.6" xlink:href="#m4352d6bc46" y="217.300273"/>
      </g>
     </g>
    </g>
    <g id="ytick_6">
     <g id="line2d_19">
      <g>
       <use style="stroke:#000000;stroke-width:0.6;" x="57.6" xlink:href="#m4352d6bc46" y="202.333286"/>
      </g>
     </g>
    </g>
    <g id="ytick_7">
     <g id="line2d_20">
      <g>
       <use style="stroke:#000000;stroke-width:0.6;" x="57.6" xlink:href="#m4352d6bc46" y="189.678878"/>
      </g>
     </g>
    </g>
    <g id="ytick_8">
     <g id="line2d_21">
      <g>
       <use style="stroke:#000000;stroke-width:0.6;" x="57.6" xlink:href="#m4352d6bc46" y="178.717132"/>
      </g>
     </g>
    </g>
    <g id="ytick_9">
     <g id="line2d_22">
      <g>
       <use style="stroke:#000000;stroke-width:0.6;" x="57.6" xlink:href="#m4352d6bc46" y="169.048186"/>
      </g>
     </g>
    </g>
    <g id="ytick_10">
     <g id="line2d_23">
      <g>
       <use style="stroke:#000000;stroke-width:0.6;" x="57.6" xlink:href="#m4352d6bc46" y="103.497767"/>
      </g>
     </g>
    </g>
    <g id="ytick_11">
     <g id="line2d_24">
      <g>
       <use style="stroke:#000000;stroke-width:0.6;" x="57.6" xlink:href="#m4352d6bc46" y="70.212668"/>
      </g>
     </g>
    </g>
    <g id="ytick_12">
     <g id="line2d_25">
      <g>
       <use style="stroke:#000000;stroke-width:0.6;" x="57.6" xlink:href="#m4352d6bc46" y="46.596514"/>
      </g>
     </g>
    </g>
    <g id="text_9">
     <!-- $\mathrm{Relative \ error}$ ($N_{\mathrm{train}}=5$) -->
     <defs>
      <path d="M 44.390625 34.1875 
Q 47.5625 33.109375 50.5625 29.59375 
Q 53.5625 26.078125 56.59375 19.921875 
L 66.609375 0 
L 56 0 
L 46.6875 18.703125 
Q 43.0625 26.03125 39.671875 28.421875 
Q 36.28125 30.8125 30.421875 30.8125 
L 19.671875 30.8125 
L 19.671875 0 
L 9.8125 0 
L 9.8125 72.90625 
L 32.078125 72.90625 
Q 44.578125 72.90625 50.734375 67.671875 
Q 56.890625 62.453125 56.890625 51.90625 
Q 56.890625 45.015625 53.6875 40.46875 
Q 50.484375 35.9375 44.390625 34.1875 
z
M 19.671875 64.796875 
L 19.671875 38.921875 
L 32.078125 38.921875 
Q 39.203125 38.921875 42.84375 42.21875 
Q 46.484375 45.515625 46.484375 51.90625 
Q 46.484375 58.296875 42.84375 61.546875 
Q 39.203125 64.796875 32.078125 64.796875 
z
" id="DejaVuSans-82"/>
      <path d="M 9.421875 75.984375 
L 18.40625 75.984375 
L 18.40625 0 
L 9.421875 0 
z
" id="DejaVuSans-108"/>
      <path d="M 34.28125 27.484375 
Q 23.390625 27.484375 19.1875 25 
Q 14.984375 22.515625 14.984375 16.5 
Q 14.984375 11.71875 18.140625 8.90625 
Q 21.296875 6.109375 26.703125 6.109375 
Q 34.1875 6.109375 38.703125 11.40625 
Q 43.21875 16.703125 43.21875 25.484375 
L 43.21875 27.484375 
z
M 52.203125 31.203125 
L 52.203125 0 
L 43.21875 0 
L 43.21875 8.296875 
Q 40.140625 3.328125 35.546875 0.953125 
Q 30.953125 -1.421875 24.3125 -1.421875 
Q 15.921875 -1.421875 10.953125 3.296875 
Q 6 8.015625 6 15.921875 
Q 6 25.140625 12.171875 29.828125 
Q 18.359375 34.515625 30.609375 34.515625 
L 43.21875 34.515625 
L 43.21875 35.40625 
Q 43.21875 41.609375 39.140625 45 
Q 35.0625 48.390625 27.6875 48.390625 
Q 23 48.390625 18.546875 47.265625 
Q 14.109375 46.140625 10.015625 43.890625 
L 10.015625 52.203125 
Q 14.9375 54.109375 19.578125 55.046875 
Q 24.21875 56 28.609375 56 
Q 40.484375 56 46.34375 49.84375 
Q 52.203125 43.703125 52.203125 31.203125 
z
" id="DejaVuSans-97"/>
      <path d="M 18.3125 70.21875 
L 18.3125 54.6875 
L 36.8125 54.6875 
L 36.8125 47.703125 
L 18.3125 47.703125 
L 18.3125 18.015625 
Q 18.3125 11.328125 20.140625 9.421875 
Q 21.96875 7.515625 27.59375 7.515625 
L 36.8125 7.515625 
L 36.8125 0 
L 27.59375 0 
Q 17.1875 0 13.234375 3.875 
Q 9.28125 7.765625 9.28125 18.015625 
L 9.28125 47.703125 
L 2.6875 47.703125 
L 2.6875 54.6875 
L 9.28125 54.6875 
L 9.28125 70.21875 
z
" id="DejaVuSans-116"/>
      <path d="M 2.984375 54.6875 
L 12.5 54.6875 
L 29.59375 8.796875 
L 46.6875 54.6875 
L 56.203125 54.6875 
L 35.6875 0 
L 23.484375 0 
z
" id="DejaVuSans-118"/>
      <path d="M 41.109375 46.296875 
Q 39.59375 47.171875 37.8125 47.578125 
Q 36.03125 48 33.890625 48 
Q 26.265625 48 22.1875 43.046875 
Q 18.109375 38.09375 18.109375 28.8125 
L 18.109375 0 
L 9.078125 0 
L 9.078125 54.6875 
L 18.109375 54.6875 
L 18.109375 46.1875 
Q 20.953125 51.171875 25.484375 53.578125 
Q 30.03125 56 36.53125 56 
Q 37.453125 56 38.578125 55.875 
Q 39.703125 55.765625 41.0625 55.515625 
z
" id="DejaVuSans-114"/>
      <path id="DejaVuSans-32"/>
      <path d="M 16.890625 72.90625 
L 30.171875 72.90625 
L 50.296875 10.40625 
L 62.5 72.90625 
L 72.125 72.90625 
L 57.90625 0 
L 44.578125 0 
L 24.515625 62.890625 
L 12.3125 0 
L 2.6875 0 
z
" id="DejaVuSans-Oblique-78"/>
      <path d="M 10.59375 45.40625 
L 73.1875 45.40625 
L 73.1875 37.203125 
L 10.59375 37.203125 
z
M 10.59375 25.484375 
L 73.1875 25.484375 
L 73.1875 17.1875 
L 10.59375 17.1875 
z
" id="DejaVuSans-61"/>
      <path d="M 10.796875 72.90625 
L 49.515625 72.90625 
L 49.515625 64.59375 
L 19.828125 64.59375 
L 19.828125 46.734375 
Q 21.96875 47.46875 24.109375 47.828125 
Q 26.265625 48.1875 28.421875 48.1875 
Q 40.625 48.1875 47.75 41.5 
Q 54.890625 34.8125 54.890625 23.390625 
Q 54.890625 11.625 47.5625 5.09375 
Q 40.234375 -1.421875 26.90625 -1.421875 
Q 22.3125 -1.421875 17.546875 -0.640625 
Q 12.796875 0.140625 7.71875 1.703125 
L 7.71875 11.625 
Q 12.109375 9.234375 16.796875 8.0625 
Q 21.484375 6.890625 26.703125 6.890625 
Q 35.15625 6.890625 40.078125 11.328125 
Q 45.015625 15.765625 45.015625 23.390625 
Q 45.015625 31 40.078125 35.4375 
Q 35.15625 39.890625 26.703125 39.890625 
Q 22.75 39.890625 18.8125 39.015625 
Q 14.890625 38.140625 10.796875 36.28125 
z
" id="DejaVuSans-53"/>
     </defs>
     <g transform="translate(21.020312 235.678)rotate(-90)scale(0.1 -0.1)">
      <use transform="translate(0 0.015625)" xlink:href="#DejaVuSans-82"/>
      <use transform="translate(69.482422 0.015625)" xlink:href="#DejaVuSans-101"/>
      <use transform="translate(131.005859 0.015625)" xlink:href="#DejaVuSans-108"/>
      <use transform="translate(158.789062 0.015625)" xlink:href="#DejaVuSans-97"/>
      <use transform="translate(220.068359 0.015625)" xlink:href="#DejaVuSans-116"/>
      <use transform="translate(259.277344 0.015625)" xlink:href="#DejaVuSans-105"/>
      <use transform="translate(287.060547 0.015625)" xlink:href="#DejaVuSans-118"/>
      <use transform="translate(346.240234 0.015625)" xlink:href="#DejaVuSans-101"/>
      <use transform="translate(440.23405 0.015625)" xlink:href="#DejaVuSans-101"/>
      <use transform="translate(501.757488 0.015625)" xlink:href="#DejaVuSans-114"/>
      <use transform="translate(542.870769 0.015625)" xlink:href="#DejaVuSans-114"/>
      <use transform="translate(583.98405 0.015625)" xlink:href="#DejaVuSans-111"/>
      <use transform="translate(645.165691 0.015625)" xlink:href="#DejaVuSans-114"/>
      <use transform="translate(686.278972 0.015625)" xlink:href="#DejaVuSans-32"/>
      <use transform="translate(718.066082 0.015625)" xlink:href="#DejaVuSans-40"/>
      <use transform="translate(757.079753 0.015625)" xlink:href="#DejaVuSans-Oblique-78"/>
      <use transform="translate(831.884441 -16.390625)scale(0.7)" xlink:href="#DejaVuSans-116"/>
      <use transform="translate(859.33073 -16.390625)scale(0.7)" xlink:href="#DejaVuSans-114"/>
      <use transform="translate(888.110027 -16.390625)scale(0.7)" xlink:href="#DejaVuSans-97"/>
      <use transform="translate(931.005535 -16.390625)scale(0.7)" xlink:href="#DejaVuSans-105"/>
      <use transform="translate(950.453777 -16.390625)scale(0.7)" xlink:href="#DejaVuSans-110"/>
      <use transform="translate(1017.035808 0.015625)" xlink:href="#DejaVuSans-61"/>
      <use transform="translate(1120.307292 0.015625)" xlink:href="#DejaVuSans-53"/>
      <use transform="translate(1183.930339 0.015625)" xlink:href="#DejaVuSans-41"/>
     </g>
    </g>
   </g>
   <g id="line2d_26">
    <path clip-path="url(#p371cea21df)" d="M 73.832724 273.903787 
L 77.145522 241.006112 
L 80.458321 216.378787 
L 83.771119 196.648362 
L 87.083917 180.326063 
L 90.396716 166.599876 
L 93.709554 154.946264 
L 97.022352 144.981921 
L 100.33515 136.407379 
L 103.647949 128.981978 
L 106.960747 122.511441 
L 110.273545 116.837974 
L 113.586344 111.833764 
L 116.899142 107.39525 
L 120.21194 103.43816 
L 123.524738 99.893311 
L 126.837537 96.704211 
L 130.150375 93.824833 
L 133.463173 91.21743 
L 136.775971 88.850955 
L 140.08877 86.699756 
L 143.401568 84.74233 
L 146.714366 82.960334 
L 150.027165 81.338148 
L 153.339963 79.862501 
L 156.652761 78.522162 
L 159.96556 77.307851 
L 163.278358 76.211791 
L 166.591156 75.22756 
L 169.903955 74.349989 
L 173.216753 73.574917 
L 176.529551 72.899057 
L 179.842389 72.319499 
L 183.155187 71.833802 
L 186.467986 71.440099 
L 189.780784 71.136961 
L 193.093582 70.923483 
L 196.406381 70.799168 
L 199.719179 70.763809 
L 203.031977 70.817347 
L 206.344776 70.95971 
L 209.657574 71.190338 
L 212.970412 71.50779 
L 216.28321 71.908786 
L 219.596008 72.387325 
L 226.221605 73.530113 
L 236.16 75.366412 
L 239.472798 75.883275 
L 242.785597 76.300256 
L 246.098395 76.597422 
L 249.411193 76.765477 
L 252.723992 76.804429 
L 256.03679 76.72099 
L 259.349588 76.526055 
L 262.662387 76.232499 
L 265.975185 75.853666 
L 269.288023 75.402665 
L 275.913619 74.331286 
L 282.539216 73.101268 
L 292.477651 71.094803 
L 315.667239 66.329689 
L 325.605634 64.432236 
L 335.544029 62.685446 
L 342.169625 61.620349 
L 348.795222 60.644891 
L 355.420858 59.767578 
L 362.046455 58.99618 
L 368.672051 58.336362 
L 375.297688 57.792412 
L 381.923284 57.369197 
L 388.548881 57.072616 
L 395.174478 56.910175 
L 398.487276 56.882009 
" style="fill:none;stroke:#ff0000;stroke-linecap:square;stroke-width:1.5;"/>
   </g>
   <g id="line2d_27">
    <path clip-path="url(#p371cea21df)" d="M 73.832724 281.368466 
L 77.145522 248.338184 
L 80.458321 223.597668 
L 83.771119 203.781895 
L 87.083917 187.402472 
L 90.396716 173.646738 
L 93.709554 161.989723 
L 97.022352 152.045754 
L 100.33515 143.511542 
L 103.647949 136.14146 
L 106.960747 129.737895 
L 110.273545 124.140071 
L 113.586344 119.216869 
L 116.899142 114.861866 
L 120.21194 110.988659 
L 123.524738 107.527568 
L 126.837537 104.422635 
L 130.150375 101.628387 
L 133.463173 99.107241 
L 136.775971 96.827876 
L 140.08877 94.764378 
L 143.401568 92.894936 
L 146.714366 91.201027 
L 150.027165 89.666859 
L 153.339963 88.278928 
L 156.652761 87.026129 
L 159.96556 85.8992 
L 163.278358 84.890391 
L 166.591156 83.993326 
L 169.903955 83.202569 
L 173.216753 82.513704 
L 176.529551 81.923107 
L 179.842389 81.427904 
L 183.155187 81.025591 
L 186.467986 80.714053 
L 189.780784 80.491148 
L 193.093582 80.354736 
L 196.406381 80.302369 
L 199.719179 80.331255 
L 203.031977 80.437797 
L 206.344776 80.617473 
L 209.657574 80.864368 
L 216.28321 81.526771 
L 226.221605 82.759745 
L 232.847202 83.537047 
L 236.16 83.843319 
L 239.472798 84.062389 
L 242.785597 84.175193 
L 246.098395 84.170166 
L 249.411193 84.044116 
L 252.723992 83.800842 
L 256.03679 83.449191 
L 259.349588 83.000854 
L 262.662387 82.468756 
L 265.975185 81.865857 
L 272.600821 80.496472 
L 279.226418 78.979583 
L 292.477651 75.762924 
L 305.728844 72.586204 
L 315.667239 70.351319 
L 322.292835 68.958502 
L 328.918432 67.654095 
L 335.544029 66.445394 
L 342.169625 65.338884 
L 348.795222 64.340822 
L 355.420858 63.457658 
L 362.046455 62.695224 
L 368.672051 62.057944 
L 375.297688 61.549504 
L 381.923284 61.173743 
L 388.548881 60.934889 
L 395.174478 60.837479 
L 398.487276 60.84311 
" style="fill:none;stroke:#0000ff;stroke-linecap:square;stroke-width:1.5;"/>
   </g>
   <g id="patch_3">
    <path d="M 57.6 307.584 
L 57.6 41.472 
" style="fill:none;stroke:#000000;stroke-linecap:square;stroke-linejoin:miter;stroke-width:0.8;"/>
   </g>
   <g id="patch_4">
    <path d="M 414.72 307.584 
L 414.72 41.472 
" style="fill:none;stroke:#000000;stroke-linecap:square;stroke-linejoin:miter;stroke-width:0.8;"/>
   </g>
   <g id="patch_5">
    <path d="M 57.6 307.584 
L 414.72 307.584 
" style="fill:none;stroke:#000000;stroke-linecap:square;stroke-linejoin:miter;stroke-width:0.8;"/>
   </g>
   <g id="patch_6">
    <path d="M 57.6 41.472 
L 414.72 41.472 
" style="fill:none;stroke:#000000;stroke-linecap:square;stroke-linejoin:miter;stroke-width:0.8;"/>
   </g>
   <g id="legend_1">
    <g id="patch_7">
     <path d="M 309.862188 302.584 
L 407.72 302.584 
Q 409.72 302.584 409.72 300.584 
L 409.72 272.22775 
Q 409.72 270.22775 407.72 270.22775 
L 309.862188 270.22775 
Q 307.862188 270.22775 307.862188 272.22775 
L 307.862188 300.584 
Q 307.862188 302.584 309.862188 302.584 
z
" style="fill:#ffffff;opacity:0.8;stroke:#cccccc;stroke-linejoin:miter;"/>
    </g>
    <g id="line2d_28">
     <path d="M 311.862188 278.326187 
L 331.862188 278.326187 
" style="fill:none;stroke:#ff0000;stroke-linecap:square;stroke-width:1.5;"/>
    </g>
    <g id="line2d_29"/>
    <g id="text_10">
     <!-- No grad. reg. -->
     <defs>
      <path d="M 9.8125 72.90625 
L 23.09375 72.90625 
L 55.421875 11.921875 
L 55.421875 72.90625 
L 64.984375 72.90625 
L 64.984375 0 
L 51.703125 0 
L 19.390625 60.984375 
L 19.390625 0 
L 9.8125 0 
z
" id="DejaVuSans-78"/>
      <path d="M 45.40625 27.984375 
Q 45.40625 37.75 41.375 43.109375 
Q 37.359375 48.484375 30.078125 48.484375 
Q 22.859375 48.484375 18.828125 43.109375 
Q 14.796875 37.75 14.796875 27.984375 
Q 14.796875 18.265625 18.828125 12.890625 
Q 22.859375 7.515625 30.078125 7.515625 
Q 37.359375 7.515625 41.375 12.890625 
Q 45.40625 18.265625 45.40625 27.984375 
z
M 54.390625 6.78125 
Q 54.390625 -7.171875 48.1875 -13.984375 
Q 42 -20.796875 29.203125 -20.796875 
Q 24.46875 -20.796875 20.265625 -20.09375 
Q 16.0625 -19.390625 12.109375 -17.921875 
L 12.109375 -9.1875 
Q 16.0625 -11.328125 19.921875 -12.34375 
Q 23.78125 -13.375 27.78125 -13.375 
Q 36.625 -13.375 41.015625 -8.765625 
Q 45.40625 -4.15625 45.40625 5.171875 
L 45.40625 9.625 
Q 42.625 4.78125 38.28125 2.390625 
Q 33.9375 0 27.875 0 
Q 17.828125 0 11.671875 7.65625 
Q 5.515625 15.328125 5.515625 27.984375 
Q 5.515625 40.671875 11.671875 48.328125 
Q 17.828125 56 27.875 56 
Q 33.9375 56 38.28125 53.609375 
Q 42.625 51.21875 45.40625 46.390625 
L 45.40625 54.6875 
L 54.390625 54.6875 
z
" id="DejaVuSans-103"/>
     </defs>
     <g transform="translate(339.862188 281.826187)scale(0.1 -0.1)">
      <use xlink:href="#DejaVuSans-78"/>
      <use x="74.804688" xlink:href="#DejaVuSans-111"/>
      <use x="135.986328" xlink:href="#DejaVuSans-32"/>
      <use x="167.773438" xlink:href="#DejaVuSans-103"/>
      <use x="231.25" xlink:href="#DejaVuSans-114"/>
      <use x="272.363281" xlink:href="#DejaVuSans-97"/>
      <use x="333.642578" xlink:href="#DejaVuSans-100"/>
      <use x="397.119141" xlink:href="#DejaVuSans-46"/>
      <use x="428.90625" xlink:href="#DejaVuSans-32"/>
      <use x="460.693359" xlink:href="#DejaVuSans-114"/>
      <use x="501.775391" xlink:href="#DejaVuSans-101"/>
      <use x="563.298828" xlink:href="#DejaVuSans-103"/>
      <use x="626.775391" xlink:href="#DejaVuSans-46"/>
     </g>
    </g>
    <g id="line2d_30">
     <path d="M 311.862188 293.004312 
L 331.862188 293.004312 
" style="fill:none;stroke:#0000ff;stroke-linecap:square;stroke-width:1.5;"/>
    </g>
    <g id="line2d_31"/>
    <g id="text_11">
     <!-- Grad. reg -->
     <defs>
      <path d="M 59.515625 10.40625 
L 59.515625 29.984375 
L 43.40625 29.984375 
L 43.40625 38.09375 
L 69.28125 38.09375 
L 69.28125 6.78125 
Q 63.578125 2.734375 56.6875 0.65625 
Q 49.8125 -1.421875 42 -1.421875 
Q 24.90625 -1.421875 15.25 8.5625 
Q 5.609375 18.5625 5.609375 36.375 
Q 5.609375 54.25 15.25 64.234375 
Q 24.90625 74.21875 42 74.21875 
Q 49.125 74.21875 55.546875 72.453125 
Q 61.96875 70.703125 67.390625 67.28125 
L 67.390625 56.78125 
Q 61.921875 61.421875 55.765625 63.765625 
Q 49.609375 66.109375 42.828125 66.109375 
Q 29.4375 66.109375 22.71875 58.640625 
Q 16.015625 51.171875 16.015625 36.375 
Q 16.015625 21.625 22.71875 14.15625 
Q 29.4375 6.6875 42.828125 6.6875 
Q 48.046875 6.6875 52.140625 7.59375 
Q 56.25 8.5 59.515625 10.40625 
z
" id="DejaVuSans-71"/>
     </defs>
     <g transform="translate(339.862188 296.504312)scale(0.1 -0.1)">
      <use xlink:href="#DejaVuSans-71"/>
      <use x="77.490234" xlink:href="#DejaVuSans-114"/>
      <use x="118.603516" xlink:href="#DejaVuSans-97"/>
      <use x="179.882812" xlink:href="#DejaVuSans-100"/>
      <use x="243.359375" xlink:href="#DejaVuSans-46"/>
      <use x="275.146484" xlink:href="#DejaVuSans-32"/>
      <use x="306.933594" xlink:href="#DejaVuSans-114"/>
      <use x="348.015625" xlink:href="#DejaVuSans-101"/>
      <use x="409.539062" xlink:href="#DejaVuSans-103"/>
     </g>
    </g>
   </g>
  </g>
 </g>
 <defs>
  <clipPath id="p371cea21df">
   <rect height="266.112" width="357.12" x="57.6" y="41.472"/>
  </clipPath>
 </defs>
</svg>
