<?xml version="1.0" encoding="utf-8" standalone="no"?>
<!DOCTYPE svg PUBLIC "-//W3C//DTD SVG 1.1//EN"
  "http://www.w3.org/Graphics/SVG/1.1/DTD/svg11.dtd">
<!-- Created with matplotlib (https://matplotlib.org/) -->
<svg height="345.6pt" version="1.1" viewBox="0 0 460.8 345.6" width="460.8pt" xmlns="http://www.w3.org/2000/svg" xmlns:xlink="http://www.w3.org/1999/xlink">
 <defs>
  <style type="text/css">
*{stroke-linecap:butt;stroke-linejoin:round;white-space:pre;}
  </style>
 </defs>
 <g id="figure_1">
  <g id="patch_1">
   <path d="M 0 345.6 
L 460.8 345.6 
L 460.8 0 
L 0 0 
z
" style="fill:#ffffff;"/>
  </g>
  <g id="axes_1">
   <g id="patch_2">
    <path d="M 57.6 307.584 
L 414.72 307.584 
L 414.72 41.472 
L 57.6 41.472 
z
" style="fill:#ffffff;"/>
   </g>
   <g id="PolyCollection_1">
    <path clip-path="url(#p4f40682e6f)" d="M 73.832727 285.960598 
L 73.832727 295.488 
L 77.145529 263.022476 
L 80.45833 238.893206 
L 83.771132 219.631235 
L 87.083933 203.701066 
L 90.396735 190.274416 
L 93.709536 178.832062 
L 97.022338 169.006958 
L 100.335139 160.517875 
L 103.647941 153.140624 
L 106.960742 146.693846 
L 110.273544 141.030053 
L 113.586345 136.02876 
L 116.899147 131.59126 
L 120.211948 127.636453 
L 123.52475 124.09746 
L 126.837551 120.918839 
L 130.150353 118.054421 
L 133.463154 115.465569 
L 136.775955 113.119866 
L 140.088757 110.990127 
L 143.401558 109.053417 
L 146.71436 107.290306 
L 150.027161 105.684343 
L 153.339963 104.22163 
L 156.652764 102.890417 
L 159.965566 101.680743 
L 163.278367 100.584114 
L 166.591169 99.593274 
L 169.90397 98.701984 
L 173.216772 97.904822 
L 176.529573 97.197113 
L 179.842375 96.574842 
L 183.155176 96.034577 
L 186.467978 95.573443 
L 189.780779 95.189124 
L 193.093581 94.879886 
L 196.406382 94.644444 
L 199.719184 94.481832 
L 203.031985 94.391314 
L 206.344787 94.372203 
L 209.657588 94.423644 
L 212.97039 94.544339 
L 216.283191 94.732196 
L 219.595993 94.983845 
L 222.908794 95.294007 
L 226.221596 95.654795 
L 229.534397 96.055075 
L 232.847199 96.480108 
L 236.16 96.911726 
L 239.472801 97.329347 
L 242.785603 97.71194 
L 246.098404 98.040493 
L 249.411206 98.300173 
L 252.724007 98.481533 
L 256.036809 98.580589 
L 259.34961 98.598042 
L 262.662412 98.538068 
L 265.975213 98.407088 
L 269.288015 98.212726 
L 272.600816 97.963023 
L 275.913618 97.665914 
L 279.226419 97.3289 
L 282.539221 96.958871 
L 285.852022 96.562036 
L 289.164824 96.143912 
L 292.477625 95.709359 
L 295.790427 95.262628 
L 299.103228 94.807423 
L 302.41603 94.346965 
L 305.728831 93.884052 
L 309.041633 93.42111 
L 312.354434 92.960253 
L 315.667236 92.503324 
L 318.980037 92.051937 
L 322.292839 91.607505 
L 325.60564 91.17127 
L 328.918442 90.744335 
L 332.231243 90.327689 
L 335.544045 89.922218 
L 338.856846 89.528707 
L 342.169647 89.14785 
L 345.482449 88.780259 
L 348.79525 88.426486 
L 352.108052 88.08702 
L 355.420853 87.762287 
L 358.733655 87.45266 
L 362.046456 87.158483 
L 365.359258 86.880089 
L 368.672059 86.6178 
L 371.984861 86.371926 
L 375.297662 86.142764 
L 378.610464 85.930589 
L 381.923265 85.735672 
L 385.236067 85.558297 
L 388.548868 85.398777 
L 391.86167 85.257476 
L 395.174471 85.134833 
L 398.487273 85.031371 
L 398.487273 79.42193 
L 398.487273 79.42193 
L 395.174471 79.551377 
L 391.86167 79.698236 
L 388.548868 79.862158 
L 385.236067 80.042807 
L 381.923265 80.239847 
L 378.610464 80.45293 
L 375.297662 80.681696 
L 371.984861 80.925768 
L 368.672059 81.184765 
L 365.359258 81.458304 
L 362.046456 81.746003 
L 358.733655 82.047477 
L 355.420853 82.362334 
L 352.108052 82.690164 
L 348.79525 83.030531 
L 345.482449 83.382951 
L 342.169647 83.746884 
L 338.856846 84.121729 
L 335.544045 84.506831 
L 332.231243 84.901465 
L 328.918442 85.304835 
L 325.60564 85.716057 
L 322.292839 86.134154 
L 318.980037 86.558038 
L 315.667236 86.986483 
L 312.354434 87.418096 
L 309.041633 87.851276 
L 305.728831 88.284182 
L 302.41603 88.714681 
L 299.103228 89.140302 
L 295.790427 89.558182 
L 292.477625 89.964997 
L 289.164824 90.356901 
L 285.852022 90.729457 
L 282.539221 91.077576 
L 279.226419 91.395478 
L 275.913618 91.676685 
L 272.600816 91.91408 
L 269.288015 92.100075 
L 265.975213 92.22692 
L 262.662412 92.287215 
L 259.34961 92.274676 
L 256.036809 92.185158 
L 252.724007 92.017849 
L 249.411206 91.776415 
L 246.098404 91.469713 
L 242.785603 91.11167 
L 239.472801 90.720096 
L 236.16 90.314654 
L 232.847199 89.914556 
L 229.534397 89.536735 
L 226.221596 89.194861 
L 222.908794 88.899219 
L 219.595993 88.657089 
L 216.283191 88.473354 
L 212.97039 88.351126 
L 209.657588 88.292298 
L 206.344787 88.29799 
L 203.031985 88.368883 
L 199.719184 88.50546 
L 196.406382 88.70822 
L 193.093581 88.977836 
L 189.780779 89.315291 
L 186.467978 89.721974 
L 183.155176 90.199746 
L 179.842375 90.750985 
L 176.529573 91.378548 
L 173.216772 92.085827 
L 169.90397 92.876847 
L 166.591169 93.756293 
L 163.278367 94.729549 
L 159.965566 95.802811 
L 156.652764 96.983242 
L 153.339963 98.279163 
L 150.027161 99.700319 
L 146.71436 101.258154 
L 143.401558 102.96612 
L 140.088757 104.840008 
L 136.775955 106.898381 
L 133.463154 109.163193 
L 130.150353 111.660578 
L 126.837551 114.421605 
L 123.52475 117.483324 
L 120.211948 120.890243 
L 116.899147 124.696091 
L 113.586345 128.96605 
L 110.273544 133.779624 
L 106.960742 139.234257 
L 103.647941 145.450091 
L 100.335139 152.576094 
L 97.022338 160.797692 
L 93.709536 170.346824 
L 90.396735 181.517313 
L 87.083933 194.69379 
L 83.771132 210.414179 
L 80.45833 229.519419 
L 77.145529 253.547682 
L 73.832727 285.960598 
z
" style="fill:#ff0000;fill-opacity:0.4;"/>
   </g>
   <g id="PolyCollection_2">
    <path clip-path="url(#p4f40682e6f)" d="M 73.832727 240.381214 
L 73.832727 247.549335 
L 77.145529 217.099135 
L 80.45833 194.911326 
L 83.771132 177.493899 
L 87.083933 163.28706 
L 90.396735 151.441844 
L 93.709536 141.425109 
L 97.022338 132.865027 
L 100.335139 125.484479 
L 103.647941 119.069415 
L 106.960742 113.451514 
L 110.273544 108.497083 
L 113.586345 104.099167 
L 116.899147 100.17163 
L 120.211948 96.644628 
L 123.52475 93.461138 
L 126.837551 90.574272 
L 130.150353 87.94521 
L 133.463154 85.541587 
L 136.775955 83.336246 
L 140.088757 81.306256 
L 143.401558 79.43214 
L 146.71436 77.697261 
L 150.027161 76.087331 
L 153.339963 74.590023 
L 156.652764 73.194652 
L 159.965566 71.891916 
L 163.278367 70.673684 
L 166.591169 69.532827 
L 169.90397 68.463072 
L 173.216772 67.458885 
L 176.529573 66.515374 
L 179.842375 65.628204 
L 183.155176 64.793532 
L 186.467978 64.007951 
L 189.780779 63.268441 
L 193.093581 62.57233 
L 196.406382 61.917264 
L 199.719184 61.301184 
L 203.031985 60.722297 
L 206.344787 60.17907 
L 209.657588 59.670209 
L 212.97039 59.194654 
L 216.283191 58.751566 
L 219.595993 58.340322 
L 222.908794 57.960497 
L 226.221596 57.611853 
L 229.534397 57.29431 
L 232.847199 57.00791 
L 236.16 56.752767 
L 239.472801 56.528992 
L 242.785603 56.336613 
L 246.098404 56.175466 
L 249.411206 56.045092 
L 252.724007 55.944636 
L 256.036809 55.872769 
L 259.34961 55.827652 
L 262.662412 55.806944 
L 265.975213 55.807867 
L 269.288015 55.827314 
L 272.600816 55.861985 
L 275.913618 55.908543 
L 279.226419 55.963745 
L 282.539221 56.024571 
L 285.852022 56.088306 
L 289.164824 56.152596 
L 292.477625 56.215474 
L 295.790427 56.27536 
L 299.103228 56.331039 
L 302.41603 56.381632 
L 305.728831 56.42656 
L 309.041633 56.465498 
L 312.354434 56.498343 
L 315.667236 56.525173 
L 318.980037 56.546216 
L 322.292839 56.561819 
L 325.60564 56.572424 
L 328.918442 56.578549 
L 332.231243 56.580764 
L 335.544045 56.579682 
L 338.856846 56.575944 
L 342.169647 56.570203 
L 345.482449 56.563124 
L 348.79525 56.555368 
L 352.108052 56.547587 
L 355.420853 56.540419 
L 358.733655 56.534482 
L 362.046456 56.530367 
L 365.359258 56.528635 
L 368.672059 56.529814 
L 371.984861 56.534392 
L 375.297662 56.542815 
L 378.610464 56.555479 
L 381.923265 56.57273 
L 385.236067 56.594855 
L 388.548868 56.622074 
L 391.86167 56.654529 
L 395.174471 56.692278 
L 398.487273 56.735272 
L 398.487273 54.742998 
L 398.487273 54.742998 
L 395.174471 54.704704 
L 391.86167 54.671809 
L 388.548868 54.644295 
L 385.236067 54.622051 
L 381.923265 54.604884 
L 378.610464 54.592529 
L 375.297662 54.584658 
L 371.984861 54.580884 
L 368.672059 54.580769 
L 365.359258 54.583822 
L 362.046456 54.589509 
L 358.733655 54.597253 
L 355.420853 54.606438 
L 352.108052 54.616416 
L 348.79525 54.626506 
L 345.482449 54.636003 
L 342.169647 54.644183 
L 338.856846 54.650306 
L 335.544045 54.653629 
L 332.231243 54.653406 
L 328.918442 54.648904 
L 325.60564 54.63941 
L 322.292839 54.624248 
L 318.980037 54.60279 
L 315.667236 54.574481 
L 312.354434 54.538864 
L 309.041633 54.495606 
L 305.728831 54.444539 
L 302.41603 54.385699 
L 299.103228 54.319379 
L 295.790427 54.246184 
L 292.477625 54.167082 
L 289.164824 54.083464 
L 285.852022 53.997187 
L 282.539221 53.9106 
L 279.226419 53.826539 
L 275.913618 53.748284 
L 272.600816 53.679467 
L 269.288015 53.623931 
L 265.975213 53.585544 
L 262.662412 53.568 
L 259.34961 53.574614 
L 256.036809 53.608156 
L 252.724007 53.670748 
L 249.411206 53.76383 
L 246.098404 53.888206 
L 242.785603 54.044139 
L 239.472801 54.231492 
L 236.16 54.449874 
L 232.847199 54.698775 
L 229.534397 54.977684 
L 226.221596 55.286171 
L 222.908794 55.623954 
L 219.595993 55.990935 
L 216.283191 56.387226 
L 212.97039 56.813157 
L 209.657588 57.269282 
L 206.344787 57.756385 
L 203.031985 58.275476 
L 199.719184 58.827799 
L 196.406382 59.414835 
L 193.093581 60.038313 
L 189.780779 60.70022 
L 186.467978 61.402822 
L 183.155176 62.148687 
L 179.842375 62.940713 
L 176.529573 63.782166 
L 173.216772 64.676722 
L 169.90397 65.628525 
L 166.591169 66.642249 
L 163.278367 67.723178 
L 159.965566 68.8773 
L 156.652764 70.11142 
L 153.339963 71.433301 
L 150.027161 72.851827 
L 146.71436 74.377211 
L 143.401558 76.021245 
L 140.088757 77.79761 
L 136.775955 79.722256 
L 133.463154 81.813885 
L 130.150353 84.094557 
L 126.837551 86.590452 
L 123.52475 89.332849 
L 120.211948 92.359388 
L 116.899147 95.7157 
L 113.586345 99.457532 
L 110.273544 103.653546 
L 106.960742 108.388998 
L 103.647941 113.770617 
L 100.335139 119.933101 
L 97.022338 127.047872 
L 93.709536 135.335253 
L 90.396735 145.082785 
L 87.083933 156.676823 
L 83.771132 170.666964 
L 80.45833 187.916092 
L 77.145529 209.990781 
L 73.832727 240.381214 
z
" style="fill:#0000ff;fill-opacity:0.4;"/>
   </g>
   <g id="PolyCollection_3">
    <path clip-path="url(#p4f40682e6f)" d="M 73.832727 199.785803 
L 73.832727 212.240076 
L 77.145529 184.735314 
L 80.45833 165.316816 
L 83.771132 151.010545 
L 87.083933 139.729931 
L 90.396735 130.461206 
L 93.709536 122.712295 
L 97.022338 116.184802 
L 100.335139 110.662136 
L 103.647941 105.974247 
L 106.960742 101.983057 
L 110.273544 98.575504 
L 113.586345 95.658754 
L 116.899147 93.156534 
L 120.211948 91.006342 
L 123.52475 89.156843 
L 126.837551 87.565147 
L 130.150353 86.195207 
L 133.463154 85.017216 
L 136.775955 84.00678 
L 140.088757 83.14391 
L 143.401558 82.412086 
L 146.71436 81.797673 
L 150.027161 81.28915 
L 153.339963 80.876629 
L 156.652764 80.551823 
L 159.965566 80.308177 
L 163.278367 80.140613 
L 166.591169 80.04539 
L 169.90397 80.020086 
L 173.216772 80.063267 
L 176.529573 80.173875 
L 179.842375 80.35101 
L 183.155176 80.59405 
L 186.467978 80.902947 
L 189.780779 81.278424 
L 193.093581 81.722156 
L 196.406382 82.236784 
L 199.719184 82.825861 
L 203.031985 83.493917 
L 206.344787 84.246774 
L 209.657588 85.091679 
L 212.97039 86.037288 
L 216.283191 87.093516 
L 219.595993 88.270861 
L 222.908794 89.578867 
L 226.221596 91.022917 
L 229.534397 92.597605 
L 232.847199 94.275665 
L 236.16 95.996409 
L 239.472801 97.6678 
L 242.785603 99.193076 
L 246.098404 100.504308 
L 249.411206 101.574483 
L 252.724007 102.407575 
L 256.036809 103.023642 
L 259.34961 103.44849 
L 262.662412 103.708364 
L 265.975213 103.827658 
L 269.288015 103.828156 
L 272.600816 103.728861 
L 275.913618 103.546166 
L 279.226419 103.294107 
L 282.539221 102.984646 
L 285.852022 102.628002 
L 289.164824 102.232874 
L 292.477625 101.806658 
L 295.790427 101.355628 
L 299.103228 100.885119 
L 302.41603 100.399681 
L 305.728831 99.903209 
L 309.041633 99.399057 
L 312.354434 98.890118 
L 315.667236 98.378917 
L 318.980037 97.867669 
L 322.292839 97.358332 
L 325.60564 96.85265 
L 328.918442 96.352172 
L 332.231243 95.8583 
L 335.544045 95.372324 
L 338.856846 94.895451 
L 342.169647 94.428828 
L 345.482449 93.973533 
L 348.79525 93.530555 
L 352.108052 93.100775 
L 355.420853 92.68496 
L 358.733655 92.283781 
L 362.046456 91.897808 
L 365.359258 91.527521 
L 368.672059 91.173316 
L 371.984861 90.835498 
L 375.297662 90.5143 
L 378.610464 90.209938 
L 381.923265 89.922642 
L 385.236067 89.652675 
L 388.548868 89.400369 
L 391.86167 89.166095 
L 395.174471 88.950252 
L 398.487273 88.753245 
L 398.487273 81.309987 
L 398.487273 81.309987 
L 395.174471 81.389577 
L 391.86167 81.469561 
L 388.548868 81.549918 
L 385.236067 81.630728 
L 381.923265 81.712241 
L 378.610464 81.794935 
L 375.297662 81.879507 
L 371.984861 81.966827 
L 368.672059 82.057846 
L 365.359258 82.153487 
L 362.046456 82.254549 
L 358.733655 82.361656 
L 355.420853 82.47518 
L 352.108052 82.595181 
L 348.79525 82.721376 
L 345.482449 82.853122 
L 342.169647 82.989467 
L 338.856846 83.129213 
L 335.544045 83.271007 
L 332.231243 83.413383 
L 328.918442 83.554762 
L 325.60564 83.693426 
L 322.292839 83.827473 
L 318.980037 83.9548 
L 315.667236 84.073092 
L 312.354434 84.179795 
L 309.041633 84.272087 
L 305.728831 84.346816 
L 302.41603 84.400439 
L 299.103228 84.428932 
L 295.790427 84.427735 
L 292.477625 84.391671 
L 289.164824 84.314895 
L 285.852022 84.190893 
L 282.539221 84.012569 
L 279.226419 83.772371 
L 275.913618 83.462513 
L 272.600816 83.07527 
L 269.288015 82.60355 
L 265.975213 82.041767 
L 262.662412 81.387184 
L 259.34961 80.64145 
L 256.036809 79.812031 
L 252.724007 78.912818 
L 249.411206 77.963255 
L 246.098404 76.986111 
L 242.785603 76.004851 
L 239.472801 75.041667 
L 236.16 74.115814 
L 232.847199 73.241449 
L 229.534397 72.426626 
L 226.221596 71.674886 
L 222.908794 70.987413 
L 219.595993 70.364135 
L 216.283191 69.804159 
L 212.97039 69.306015 
L 209.657588 68.867821 
L 206.344787 68.487421 
L 203.031985 68.162618 
L 199.719184 67.891522 
L 196.406382 67.672908 
L 193.093581 67.506375 
L 189.780779 67.392313 
L 186.467978 67.331692 
L 183.155176 67.325819 
L 179.842375 67.376197 
L 176.529573 67.484488 
L 173.216772 67.652595 
L 169.90397 67.882739 
L 166.591169 68.17759 
L 163.278367 68.540477 
L 159.965566 68.975575 
L 156.652764 69.487992 
L 153.339963 70.083791 
L 150.027161 70.76995 
L 146.71436 71.55429 
L 143.401558 72.445546 
L 140.088757 73.453679 
L 136.775955 74.590269 
L 133.463154 75.868985 
L 130.150353 77.30608 
L 126.837551 78.921078 
L 123.52475 80.737592 
L 120.211948 82.784194 
L 116.899147 85.095808 
L 113.586345 87.715539 
L 110.273544 90.697086 
L 106.960742 94.107732 
L 103.647941 98.031966 
L 100.335139 102.575983 
L 97.022338 107.87292 
L 93.709536 114.091491 
L 90.396735 121.450328 
L 87.083933 130.254117 
L 83.771132 140.995764 
L 80.45833 154.657332 
L 77.145529 173.285213 
L 73.832727 199.785803 
z
" style="fill:#00ffff;fill-opacity:0.4;"/>
   </g>
   <g id="matplotlib.axis_1">
    <g id="xtick_1">
     <g id="line2d_1">
      <path clip-path="url(#p4f40682e6f)" d="M 70.519926 307.584 
L 70.519926 41.472 
" style="fill:none;stroke:#b0b0b0;stroke-linecap:square;stroke-width:0.8;"/>
     </g>
     <g id="line2d_2">
      <defs>
       <path d="M 0 0 
L 0 3.5 
" id="mcb058f46d9" style="stroke:#000000;stroke-width:0.8;"/>
      </defs>
      <g>
       <use style="stroke:#000000;stroke-width:0.8;" x="70.519926" xlink:href="#mcb058f46d9" y="307.584"/>
      </g>
     </g>
     <g id="text_1">
      <!-- 0.0 -->
      <defs>
       <path d="M 31.78125 66.40625 
Q 24.171875 66.40625 20.328125 58.90625 
Q 16.5 51.421875 16.5 36.375 
Q 16.5 21.390625 20.328125 13.890625 
Q 24.171875 6.390625 31.78125 6.390625 
Q 39.453125 6.390625 43.28125 13.890625 
Q 47.125 21.390625 47.125 36.375 
Q 47.125 51.421875 43.28125 58.90625 
Q 39.453125 66.40625 31.78125 66.40625 
z
M 31.78125 74.21875 
Q 44.046875 74.21875 50.515625 64.515625 
Q 56.984375 54.828125 56.984375 36.375 
Q 56.984375 17.96875 50.515625 8.265625 
Q 44.046875 -1.421875 31.78125 -1.421875 
Q 19.53125 -1.421875 13.0625 8.265625 
Q 6.59375 17.96875 6.59375 36.375 
Q 6.59375 54.828125 13.0625 64.515625 
Q 19.53125 74.21875 31.78125 74.21875 
z
" id="DejaVuSans-48"/>
       <path d="M 10.6875 12.40625 
L 21 12.40625 
L 21 0 
L 10.6875 0 
z
" id="DejaVuSans-46"/>
      </defs>
      <g transform="translate(62.568363 322.182437)scale(0.1 -0.1)">
       <use xlink:href="#DejaVuSans-48"/>
       <use x="63.623047" xlink:href="#DejaVuSans-46"/>
       <use x="95.410156" xlink:href="#DejaVuSans-48"/>
      </g>
     </g>
    </g>
    <g id="xtick_2">
     <g id="line2d_3">
      <path clip-path="url(#p4f40682e6f)" d="M 136.775955 307.584 
L 136.775955 41.472 
" style="fill:none;stroke:#b0b0b0;stroke-linecap:square;stroke-width:0.8;"/>
     </g>
     <g id="line2d_4">
      <g>
       <use style="stroke:#000000;stroke-width:0.8;" x="136.775955" xlink:href="#mcb058f46d9" y="307.584"/>
      </g>
     </g>
     <g id="text_2">
      <!-- 0.2 -->
      <defs>
       <path d="M 19.1875 8.296875 
L 53.609375 8.296875 
L 53.609375 0 
L 7.328125 0 
L 7.328125 8.296875 
Q 12.9375 14.109375 22.625 23.890625 
Q 32.328125 33.6875 34.8125 36.53125 
Q 39.546875 41.84375 41.421875 45.53125 
Q 43.3125 49.21875 43.3125 52.78125 
Q 43.3125 58.59375 39.234375 62.25 
Q 35.15625 65.921875 28.609375 65.921875 
Q 23.96875 65.921875 18.8125 64.3125 
Q 13.671875 62.703125 7.8125 59.421875 
L 7.8125 69.390625 
Q 13.765625 71.78125 18.9375 73 
Q 24.125 74.21875 28.421875 74.21875 
Q 39.75 74.21875 46.484375 68.546875 
Q 53.21875 62.890625 53.21875 53.421875 
Q 53.21875 48.921875 51.53125 44.890625 
Q 49.859375 40.875 45.40625 35.40625 
Q 44.1875 33.984375 37.640625 27.21875 
Q 31.109375 20.453125 19.1875 8.296875 
z
" id="DejaVuSans-50"/>
      </defs>
      <g transform="translate(128.824393 322.182437)scale(0.1 -0.1)">
       <use xlink:href="#DejaVuSans-48"/>
       <use x="63.623047" xlink:href="#DejaVuSans-46"/>
       <use x="95.410156" xlink:href="#DejaVuSans-50"/>
      </g>
     </g>
    </g>
    <g id="xtick_3">
     <g id="line2d_5">
      <path clip-path="url(#p4f40682e6f)" d="M 203.031985 307.584 
L 203.031985 41.472 
" style="fill:none;stroke:#b0b0b0;stroke-linecap:square;stroke-width:0.8;"/>
     </g>
     <g id="line2d_6">
      <g>
       <use style="stroke:#000000;stroke-width:0.8;" x="203.031985" xlink:href="#mcb058f46d9" y="307.584"/>
      </g>
     </g>
     <g id="text_3">
      <!-- 0.4 -->
      <defs>
       <path d="M 37.796875 64.3125 
L 12.890625 25.390625 
L 37.796875 25.390625 
z
M 35.203125 72.90625 
L 47.609375 72.90625 
L 47.609375 25.390625 
L 58.015625 25.390625 
L 58.015625 17.1875 
L 47.609375 17.1875 
L 47.609375 0 
L 37.796875 0 
L 37.796875 17.1875 
L 4.890625 17.1875 
L 4.890625 26.703125 
z
" id="DejaVuSans-52"/>
      </defs>
      <g transform="translate(195.080423 322.182437)scale(0.1 -0.1)">
       <use xlink:href="#DejaVuSans-48"/>
       <use x="63.623047" xlink:href="#DejaVuSans-46"/>
       <use x="95.410156" xlink:href="#DejaVuSans-52"/>
      </g>
     </g>
    </g>
    <g id="xtick_4">
     <g id="line2d_7">
      <path clip-path="url(#p4f40682e6f)" d="M 269.288015 307.584 
L 269.288015 41.472 
" style="fill:none;stroke:#b0b0b0;stroke-linecap:square;stroke-width:0.8;"/>
     </g>
     <g id="line2d_8">
      <g>
       <use style="stroke:#000000;stroke-width:0.8;" x="269.288015" xlink:href="#mcb058f46d9" y="307.584"/>
      </g>
     </g>
     <g id="text_4">
      <!-- 0.6 -->
      <defs>
       <path d="M 33.015625 40.375 
Q 26.375 40.375 22.484375 35.828125 
Q 18.609375 31.296875 18.609375 23.390625 
Q 18.609375 15.53125 22.484375 10.953125 
Q 26.375 6.390625 33.015625 6.390625 
Q 39.65625 6.390625 43.53125 10.953125 
Q 47.40625 15.53125 47.40625 23.390625 
Q 47.40625 31.296875 43.53125 35.828125 
Q 39.65625 40.375 33.015625 40.375 
z
M 52.59375 71.296875 
L 52.59375 62.3125 
Q 48.875 64.0625 45.09375 64.984375 
Q 41.3125 65.921875 37.59375 65.921875 
Q 27.828125 65.921875 22.671875 59.328125 
Q 17.53125 52.734375 16.796875 39.40625 
Q 19.671875 43.65625 24.015625 45.921875 
Q 28.375 48.1875 33.59375 48.1875 
Q 44.578125 48.1875 50.953125 41.515625 
Q 57.328125 34.859375 57.328125 23.390625 
Q 57.328125 12.15625 50.6875 5.359375 
Q 44.046875 -1.421875 33.015625 -1.421875 
Q 20.359375 -1.421875 13.671875 8.265625 
Q 6.984375 17.96875 6.984375 36.375 
Q 6.984375 53.65625 15.1875 63.9375 
Q 23.390625 74.21875 37.203125 74.21875 
Q 40.921875 74.21875 44.703125 73.484375 
Q 48.484375 72.75 52.59375 71.296875 
z
" id="DejaVuSans-54"/>
      </defs>
      <g transform="translate(261.336452 322.182437)scale(0.1 -0.1)">
       <use xlink:href="#DejaVuSans-48"/>
       <use x="63.623047" xlink:href="#DejaVuSans-46"/>
       <use x="95.410156" xlink:href="#DejaVuSans-54"/>
      </g>
     </g>
    </g>
    <g id="xtick_5">
     <g id="line2d_9">
      <path clip-path="url(#p4f40682e6f)" d="M 335.544045 307.584 
L 335.544045 41.472 
" style="fill:none;stroke:#b0b0b0;stroke-linecap:square;stroke-width:0.8;"/>
     </g>
     <g id="line2d_10">
      <g>
       <use style="stroke:#000000;stroke-width:0.8;" x="335.544045" xlink:href="#mcb058f46d9" y="307.584"/>
      </g>
     </g>
     <g id="text_5">
      <!-- 0.8 -->
      <defs>
       <path d="M 31.78125 34.625 
Q 24.75 34.625 20.71875 30.859375 
Q 16.703125 27.09375 16.703125 20.515625 
Q 16.703125 13.921875 20.71875 10.15625 
Q 24.75 6.390625 31.78125 6.390625 
Q 38.8125 6.390625 42.859375 10.171875 
Q 46.921875 13.96875 46.921875 20.515625 
Q 46.921875 27.09375 42.890625 30.859375 
Q 38.875 34.625 31.78125 34.625 
z
M 21.921875 38.8125 
Q 15.578125 40.375 12.03125 44.71875 
Q 8.5 49.078125 8.5 55.328125 
Q 8.5 64.0625 14.71875 69.140625 
Q 20.953125 74.21875 31.78125 74.21875 
Q 42.671875 74.21875 48.875 69.140625 
Q 55.078125 64.0625 55.078125 55.328125 
Q 55.078125 49.078125 51.53125 44.71875 
Q 48 40.375 41.703125 38.8125 
Q 48.828125 37.15625 52.796875 32.3125 
Q 56.78125 27.484375 56.78125 20.515625 
Q 56.78125 9.90625 50.3125 4.234375 
Q 43.84375 -1.421875 31.78125 -1.421875 
Q 19.734375 -1.421875 13.25 4.234375 
Q 6.78125 9.90625 6.78125 20.515625 
Q 6.78125 27.484375 10.78125 32.3125 
Q 14.796875 37.15625 21.921875 38.8125 
z
M 18.3125 54.390625 
Q 18.3125 48.734375 21.84375 45.5625 
Q 25.390625 42.390625 31.78125 42.390625 
Q 38.140625 42.390625 41.71875 45.5625 
Q 45.3125 48.734375 45.3125 54.390625 
Q 45.3125 60.0625 41.71875 63.234375 
Q 38.140625 66.40625 31.78125 66.40625 
Q 25.390625 66.40625 21.84375 63.234375 
Q 18.3125 60.0625 18.3125 54.390625 
z
" id="DejaVuSans-56"/>
      </defs>
      <g transform="translate(327.592482 322.182437)scale(0.1 -0.1)">
       <use xlink:href="#DejaVuSans-48"/>
       <use x="63.623047" xlink:href="#DejaVuSans-46"/>
       <use x="95.410156" xlink:href="#DejaVuSans-56"/>
      </g>
     </g>
    </g>
    <g id="xtick_6">
     <g id="line2d_11">
      <path clip-path="url(#p4f40682e6f)" d="M 401.800074 307.584 
L 401.800074 41.472 
" style="fill:none;stroke:#b0b0b0;stroke-linecap:square;stroke-width:0.8;"/>
     </g>
     <g id="line2d_12">
      <g>
       <use style="stroke:#000000;stroke-width:0.8;" x="401.800074" xlink:href="#mcb058f46d9" y="307.584"/>
      </g>
     </g>
     <g id="text_6">
      <!-- 1.0 -->
      <defs>
       <path d="M 12.40625 8.296875 
L 28.515625 8.296875 
L 28.515625 63.921875 
L 10.984375 60.40625 
L 10.984375 69.390625 
L 28.421875 72.90625 
L 38.28125 72.90625 
L 38.28125 8.296875 
L 54.390625 8.296875 
L 54.390625 0 
L 12.40625 0 
z
" id="DejaVuSans-49"/>
      </defs>
      <g transform="translate(393.848512 322.182437)scale(0.1 -0.1)">
       <use xlink:href="#DejaVuSans-49"/>
       <use x="63.623047" xlink:href="#DejaVuSans-46"/>
       <use x="95.410156" xlink:href="#DejaVuSans-48"/>
      </g>
     </g>
    </g>
    <g id="text_7">
     <!-- $\mathrm{Time \ (seconds)}$ -->
     <defs>
      <path d="M -0.296875 72.90625 
L 61.375 72.90625 
L 61.375 64.59375 
L 35.5 64.59375 
L 35.5 0 
L 25.59375 0 
L 25.59375 64.59375 
L -0.296875 64.59375 
z
" id="DejaVuSans-84"/>
      <path d="M 9.421875 54.6875 
L 18.40625 54.6875 
L 18.40625 0 
L 9.421875 0 
z
M 9.421875 75.984375 
L 18.40625 75.984375 
L 18.40625 64.59375 
L 9.421875 64.59375 
z
" id="DejaVuSans-105"/>
      <path d="M 52 44.1875 
Q 55.375 50.25 60.0625 53.125 
Q 64.75 56 71.09375 56 
Q 79.640625 56 84.28125 50.015625 
Q 88.921875 44.046875 88.921875 33.015625 
L 88.921875 0 
L 79.890625 0 
L 79.890625 32.71875 
Q 79.890625 40.578125 77.09375 44.375 
Q 74.3125 48.1875 68.609375 48.1875 
Q 61.625 48.1875 57.5625 43.546875 
Q 53.515625 38.921875 53.515625 30.90625 
L 53.515625 0 
L 44.484375 0 
L 44.484375 32.71875 
Q 44.484375 40.625 41.703125 44.40625 
Q 38.921875 48.1875 33.109375 48.1875 
Q 26.21875 48.1875 22.15625 43.53125 
Q 18.109375 38.875 18.109375 30.90625 
L 18.109375 0 
L 9.078125 0 
L 9.078125 54.6875 
L 18.109375 54.6875 
L 18.109375 46.1875 
Q 21.1875 51.21875 25.484375 53.609375 
Q 29.78125 56 35.6875 56 
Q 41.65625 56 45.828125 52.96875 
Q 50 49.953125 52 44.1875 
z
" id="DejaVuSans-109"/>
      <path d="M 56.203125 29.59375 
L 56.203125 25.203125 
L 14.890625 25.203125 
Q 15.484375 15.921875 20.484375 11.0625 
Q 25.484375 6.203125 34.421875 6.203125 
Q 39.59375 6.203125 44.453125 7.46875 
Q 49.3125 8.734375 54.109375 11.28125 
L 54.109375 2.78125 
Q 49.265625 0.734375 44.1875 -0.34375 
Q 39.109375 -1.421875 33.890625 -1.421875 
Q 20.796875 -1.421875 13.15625 6.1875 
Q 5.515625 13.8125 5.515625 26.8125 
Q 5.515625 40.234375 12.765625 48.109375 
Q 20.015625 56 32.328125 56 
Q 43.359375 56 49.78125 48.890625 
Q 56.203125 41.796875 56.203125 29.59375 
z
M 47.21875 32.234375 
Q 47.125 39.59375 43.09375 43.984375 
Q 39.0625 48.390625 32.421875 48.390625 
Q 24.90625 48.390625 20.390625 44.140625 
Q 15.875 39.890625 15.1875 32.171875 
z
" id="DejaVuSans-101"/>
      <path d="M 31 75.875 
Q 24.46875 64.65625 21.28125 53.65625 
Q 18.109375 42.671875 18.109375 31.390625 
Q 18.109375 20.125 21.3125 9.0625 
Q 24.515625 -2 31 -13.1875 
L 23.1875 -13.1875 
Q 15.875 -1.703125 12.234375 9.375 
Q 8.59375 20.453125 8.59375 31.390625 
Q 8.59375 42.28125 12.203125 53.3125 
Q 15.828125 64.359375 23.1875 75.875 
z
" id="DejaVuSans-40"/>
      <path d="M 44.28125 53.078125 
L 44.28125 44.578125 
Q 40.484375 46.53125 36.375 47.5 
Q 32.28125 48.484375 27.875 48.484375 
Q 21.1875 48.484375 17.84375 46.4375 
Q 14.5 44.390625 14.5 40.28125 
Q 14.5 37.15625 16.890625 35.375 
Q 19.28125 33.59375 26.515625 31.984375 
L 29.59375 31.296875 
Q 39.15625 29.25 43.1875 25.515625 
Q 47.21875 21.78125 47.21875 15.09375 
Q 47.21875 7.46875 41.1875 3.015625 
Q 35.15625 -1.421875 24.609375 -1.421875 
Q 20.21875 -1.421875 15.453125 -0.5625 
Q 10.6875 0.296875 5.421875 2 
L 5.421875 11.28125 
Q 10.40625 8.6875 15.234375 7.390625 
Q 20.0625 6.109375 24.8125 6.109375 
Q 31.15625 6.109375 34.5625 8.28125 
Q 37.984375 10.453125 37.984375 14.40625 
Q 37.984375 18.0625 35.515625 20.015625 
Q 33.0625 21.96875 24.703125 23.78125 
L 21.578125 24.515625 
Q 13.234375 26.265625 9.515625 29.90625 
Q 5.8125 33.546875 5.8125 39.890625 
Q 5.8125 47.609375 11.28125 51.796875 
Q 16.75 56 26.8125 56 
Q 31.78125 56 36.171875 55.265625 
Q 40.578125 54.546875 44.28125 53.078125 
z
" id="DejaVuSans-115"/>
      <path d="M 48.78125 52.59375 
L 48.78125 44.1875 
Q 44.96875 46.296875 41.140625 47.34375 
Q 37.3125 48.390625 33.40625 48.390625 
Q 24.65625 48.390625 19.8125 42.84375 
Q 14.984375 37.3125 14.984375 27.296875 
Q 14.984375 17.28125 19.8125 11.734375 
Q 24.65625 6.203125 33.40625 6.203125 
Q 37.3125 6.203125 41.140625 7.25 
Q 44.96875 8.296875 48.78125 10.40625 
L 48.78125 2.09375 
Q 45.015625 0.34375 40.984375 -0.53125 
Q 36.96875 -1.421875 32.421875 -1.421875 
Q 20.0625 -1.421875 12.78125 6.34375 
Q 5.515625 14.109375 5.515625 27.296875 
Q 5.515625 40.671875 12.859375 48.328125 
Q 20.21875 56 33.015625 56 
Q 37.15625 56 41.109375 55.140625 
Q 45.0625 54.296875 48.78125 52.59375 
z
" id="DejaVuSans-99"/>
      <path d="M 30.609375 48.390625 
Q 23.390625 48.390625 19.1875 42.75 
Q 14.984375 37.109375 14.984375 27.296875 
Q 14.984375 17.484375 19.15625 11.84375 
Q 23.34375 6.203125 30.609375 6.203125 
Q 37.796875 6.203125 41.984375 11.859375 
Q 46.1875 17.53125 46.1875 27.296875 
Q 46.1875 37.015625 41.984375 42.703125 
Q 37.796875 48.390625 30.609375 48.390625 
z
M 30.609375 56 
Q 42.328125 56 49.015625 48.375 
Q 55.71875 40.765625 55.71875 27.296875 
Q 55.71875 13.875 49.015625 6.21875 
Q 42.328125 -1.421875 30.609375 -1.421875 
Q 18.84375 -1.421875 12.171875 6.21875 
Q 5.515625 13.875 5.515625 27.296875 
Q 5.515625 40.765625 12.171875 48.375 
Q 18.84375 56 30.609375 56 
z
" id="DejaVuSans-111"/>
      <path d="M 54.890625 33.015625 
L 54.890625 0 
L 45.90625 0 
L 45.90625 32.71875 
Q 45.90625 40.484375 42.875 44.328125 
Q 39.84375 48.1875 33.796875 48.1875 
Q 26.515625 48.1875 22.3125 43.546875 
Q 18.109375 38.921875 18.109375 30.90625 
L 18.109375 0 
L 9.078125 0 
L 9.078125 54.6875 
L 18.109375 54.6875 
L 18.109375 46.1875 
Q 21.34375 51.125 25.703125 53.5625 
Q 30.078125 56 35.796875 56 
Q 45.21875 56 50.046875 50.171875 
Q 54.890625 44.34375 54.890625 33.015625 
z
" id="DejaVuSans-110"/>
      <path d="M 45.40625 46.390625 
L 45.40625 75.984375 
L 54.390625 75.984375 
L 54.390625 0 
L 45.40625 0 
L 45.40625 8.203125 
Q 42.578125 3.328125 38.25 0.953125 
Q 33.9375 -1.421875 27.875 -1.421875 
Q 17.96875 -1.421875 11.734375 6.484375 
Q 5.515625 14.40625 5.515625 27.296875 
Q 5.515625 40.1875 11.734375 48.09375 
Q 17.96875 56 27.875 56 
Q 33.9375 56 38.25 53.625 
Q 42.578125 51.265625 45.40625 46.390625 
z
M 14.796875 27.296875 
Q 14.796875 17.390625 18.875 11.75 
Q 22.953125 6.109375 30.078125 6.109375 
Q 37.203125 6.109375 41.296875 11.75 
Q 45.40625 17.390625 45.40625 27.296875 
Q 45.40625 37.203125 41.296875 42.84375 
Q 37.203125 48.484375 30.078125 48.484375 
Q 22.953125 48.484375 18.875 42.84375 
Q 14.796875 37.203125 14.796875 27.296875 
z
" id="DejaVuSans-100"/>
      <path d="M 8.015625 75.875 
L 15.828125 75.875 
Q 23.140625 64.359375 26.78125 53.3125 
Q 30.421875 42.28125 30.421875 31.390625 
Q 30.421875 20.453125 26.78125 9.375 
Q 23.140625 -1.703125 15.828125 -13.1875 
L 8.015625 -13.1875 
Q 14.5 -2 17.703125 9.0625 
Q 20.90625 20.125 20.90625 31.390625 
Q 20.90625 42.671875 17.703125 53.65625 
Q 14.5 64.65625 8.015625 75.875 
z
" id="DejaVuSans-41"/>
     </defs>
     <g transform="translate(197.76 335.860562)scale(0.1 -0.1)">
      <use transform="translate(0 0.015625)" xlink:href="#DejaVuSans-84"/>
      <use transform="translate(61.083984 0.015625)" xlink:href="#DejaVuSans-105"/>
      <use transform="translate(88.867188 0.015625)" xlink:href="#DejaVuSans-109"/>
      <use transform="translate(186.279297 0.015625)" xlink:href="#DejaVuSans-101"/>
      <use transform="translate(280.273113 0.015625)" xlink:href="#DejaVuSans-40"/>
      <use transform="translate(319.286785 0.015625)" xlink:href="#DejaVuSans-115"/>
      <use transform="translate(371.386394 0.015625)" xlink:href="#DejaVuSans-101"/>
      <use transform="translate(432.909832 0.015625)" xlink:href="#DejaVuSans-99"/>
      <use transform="translate(487.8903 0.015625)" xlink:href="#DejaVuSans-111"/>
      <use transform="translate(549.071941 0.015625)" xlink:href="#DejaVuSans-110"/>
      <use transform="translate(612.450847 0.015625)" xlink:href="#DejaVuSans-100"/>
      <use transform="translate(675.92741 0.015625)" xlink:href="#DejaVuSans-115"/>
      <use transform="translate(728.027019 0.015625)" xlink:href="#DejaVuSans-41"/>
     </g>
    </g>
   </g>
   <g id="matplotlib.axis_2">
    <g id="ytick_1">
     <g id="line2d_13">
      <path clip-path="url(#p4f40682e6f)" d="M 57.6 219.016511 
L 414.72 219.016511 
" style="fill:none;stroke:#b0b0b0;stroke-linecap:square;stroke-width:0.8;"/>
     </g>
     <g id="line2d_14">
      <defs>
       <path d="M 0 0 
L -3.5 0 
" id="m6365d3a2de" style="stroke:#000000;stroke-width:0.8;"/>
      </defs>
      <g>
       <use style="stroke:#000000;stroke-width:0.8;" x="57.6" xlink:href="#m6365d3a2de" y="219.016511"/>
      </g>
     </g>
     <g id="text_8">
      <!-- $\mathdefault{10^{-1}}$ -->
      <defs>
       <path d="M 10.59375 35.5 
L 73.1875 35.5 
L 73.1875 27.203125 
L 10.59375 27.203125 
z
" id="DejaVuSans-8722"/>
      </defs>
      <g transform="translate(27.1 222.81573)scale(0.1 -0.1)">
       <use transform="translate(0 0.684375)" xlink:href="#DejaVuSans-49"/>
       <use transform="translate(63.623047 0.684375)" xlink:href="#DejaVuSans-48"/>
       <use transform="translate(128.203125 38.965625)scale(0.7)" xlink:href="#DejaVuSans-8722"/>
       <use transform="translate(186.855469 38.965625)scale(0.7)" xlink:href="#DejaVuSans-49"/>
      </g>
     </g>
    </g>
    <g id="ytick_2">
     <g id="line2d_15">
      <defs>
       <path d="M 0 0 
L -2 0 
" id="mcad5b3515f" style="stroke:#000000;stroke-width:0.6;"/>
      </defs>
      <g>
       <use style="stroke:#000000;stroke-width:0.6;" x="57.6" xlink:href="#mcad5b3515f" y="295.510002"/>
      </g>
     </g>
    </g>
    <g id="ytick_3">
     <g id="line2d_16">
      <g>
       <use style="stroke:#000000;stroke-width:0.6;" x="57.6" xlink:href="#mcad5b3515f" y="276.881603"/>
      </g>
     </g>
    </g>
    <g id="ytick_4">
     <g id="line2d_17">
      <g>
       <use style="stroke:#000000;stroke-width:0.6;" x="57.6" xlink:href="#mcad5b3515f" y="261.661093"/>
      </g>
     </g>
    </g>
    <g id="ytick_5">
     <g id="line2d_18">
      <g>
       <use style="stroke:#000000;stroke-width:0.6;" x="57.6" xlink:href="#mcad5b3515f" y="248.792335"/>
      </g>
     </g>
    </g>
    <g id="ytick_6">
     <g id="line2d_19">
      <g>
       <use style="stroke:#000000;stroke-width:0.6;" x="57.6" xlink:href="#mcad5b3515f" y="237.64491"/>
      </g>
     </g>
    </g>
    <g id="ytick_7">
     <g id="line2d_20">
      <g>
       <use style="stroke:#000000;stroke-width:0.6;" x="57.6" xlink:href="#mcad5b3515f" y="227.812184"/>
      </g>
     </g>
    </g>
    <g id="ytick_8">
     <g id="line2d_21">
      <g>
       <use style="stroke:#000000;stroke-width:0.6;" x="57.6" xlink:href="#mcad5b3515f" y="161.151419"/>
      </g>
     </g>
    </g>
    <g id="ytick_9">
     <g id="line2d_22">
      <g>
       <use style="stroke:#000000;stroke-width:0.6;" x="57.6" xlink:href="#mcad5b3515f" y="127.30251"/>
      </g>
     </g>
    </g>
    <g id="ytick_10">
     <g id="line2d_23">
      <g>
       <use style="stroke:#000000;stroke-width:0.6;" x="57.6" xlink:href="#mcad5b3515f" y="103.286327"/>
      </g>
     </g>
    </g>
    <g id="ytick_11">
     <g id="line2d_24">
      <g>
       <use style="stroke:#000000;stroke-width:0.6;" x="57.6" xlink:href="#mcad5b3515f" y="84.657928"/>
      </g>
     </g>
    </g>
    <g id="ytick_12">
     <g id="line2d_25">
      <g>
       <use style="stroke:#000000;stroke-width:0.6;" x="57.6" xlink:href="#mcad5b3515f" y="69.437418"/>
      </g>
     </g>
    </g>
    <g id="ytick_13">
     <g id="line2d_26">
      <g>
       <use style="stroke:#000000;stroke-width:0.6;" x="57.6" xlink:href="#mcad5b3515f" y="56.56866"/>
      </g>
     </g>
    </g>
    <g id="ytick_14">
     <g id="line2d_27">
      <g>
       <use style="stroke:#000000;stroke-width:0.6;" x="57.6" xlink:href="#mcad5b3515f" y="45.421235"/>
      </g>
     </g>
    </g>
    <g id="text_9">
     <!-- $\mathrm{Relative \ error}$ ($N_{\mathrm{train}}=10$) -->
     <defs>
      <path d="M 44.390625 34.1875 
Q 47.5625 33.109375 50.5625 29.59375 
Q 53.5625 26.078125 56.59375 19.921875 
L 66.609375 0 
L 56 0 
L 46.6875 18.703125 
Q 43.0625 26.03125 39.671875 28.421875 
Q 36.28125 30.8125 30.421875 30.8125 
L 19.671875 30.8125 
L 19.671875 0 
L 9.8125 0 
L 9.8125 72.90625 
L 32.078125 72.90625 
Q 44.578125 72.90625 50.734375 67.671875 
Q 56.890625 62.453125 56.890625 51.90625 
Q 56.890625 45.015625 53.6875 40.46875 
Q 50.484375 35.9375 44.390625 34.1875 
z
M 19.671875 64.796875 
L 19.671875 38.921875 
L 32.078125 38.921875 
Q 39.203125 38.921875 42.84375 42.21875 
Q 46.484375 45.515625 46.484375 51.90625 
Q 46.484375 58.296875 42.84375 61.546875 
Q 39.203125 64.796875 32.078125 64.796875 
z
" id="DejaVuSans-82"/>
      <path d="M 9.421875 75.984375 
L 18.40625 75.984375 
L 18.40625 0 
L 9.421875 0 
z
" id="DejaVuSans-108"/>
      <path d="M 34.28125 27.484375 
Q 23.390625 27.484375 19.1875 25 
Q 14.984375 22.515625 14.984375 16.5 
Q 14.984375 11.71875 18.140625 8.90625 
Q 21.296875 6.109375 26.703125 6.109375 
Q 34.1875 6.109375 38.703125 11.40625 
Q 43.21875 16.703125 43.21875 25.484375 
L 43.21875 27.484375 
z
M 52.203125 31.203125 
L 52.203125 0 
L 43.21875 0 
L 43.21875 8.296875 
Q 40.140625 3.328125 35.546875 0.953125 
Q 30.953125 -1.421875 24.3125 -1.421875 
Q 15.921875 -1.421875 10.953125 3.296875 
Q 6 8.015625 6 15.921875 
Q 6 25.140625 12.171875 29.828125 
Q 18.359375 34.515625 30.609375 34.515625 
L 43.21875 34.515625 
L 43.21875 35.40625 
Q 43.21875 41.609375 39.140625 45 
Q 35.0625 48.390625 27.6875 48.390625 
Q 23 48.390625 18.546875 47.265625 
Q 14.109375 46.140625 10.015625 43.890625 
L 10.015625 52.203125 
Q 14.9375 54.109375 19.578125 55.046875 
Q 24.21875 56 28.609375 56 
Q 40.484375 56 46.34375 49.84375 
Q 52.203125 43.703125 52.203125 31.203125 
z
" id="DejaVuSans-97"/>
      <path d="M 18.3125 70.21875 
L 18.3125 54.6875 
L 36.8125 54.6875 
L 36.8125 47.703125 
L 18.3125 47.703125 
L 18.3125 18.015625 
Q 18.3125 11.328125 20.140625 9.421875 
Q 21.96875 7.515625 27.59375 7.515625 
L 36.8125 7.515625 
L 36.8125 0 
L 27.59375 0 
Q 17.1875 0 13.234375 3.875 
Q 9.28125 7.765625 9.28125 18.015625 
L 9.28125 47.703125 
L 2.6875 47.703125 
L 2.6875 54.6875 
L 9.28125 54.6875 
L 9.28125 70.21875 
z
" id="DejaVuSans-116"/>
      <path d="M 2.984375 54.6875 
L 12.5 54.6875 
L 29.59375 8.796875 
L 46.6875 54.6875 
L 56.203125 54.6875 
L 35.6875 0 
L 23.484375 0 
z
" id="DejaVuSans-118"/>
      <path d="M 41.109375 46.296875 
Q 39.59375 47.171875 37.8125 47.578125 
Q 36.03125 48 33.890625 48 
Q 26.265625 48 22.1875 43.046875 
Q 18.109375 38.09375 18.109375 28.8125 
L 18.109375 0 
L 9.078125 0 
L 9.078125 54.6875 
L 18.109375 54.6875 
L 18.109375 46.1875 
Q 20.953125 51.171875 25.484375 53.578125 
Q 30.03125 56 36.53125 56 
Q 37.453125 56 38.578125 55.875 
Q 39.703125 55.765625 41.0625 55.515625 
z
" id="DejaVuSans-114"/>
      <path id="DejaVuSans-32"/>
      <path d="M 16.890625 72.90625 
L 30.171875 72.90625 
L 50.296875 10.40625 
L 62.5 72.90625 
L 72.125 72.90625 
L 57.90625 0 
L 44.578125 0 
L 24.515625 62.890625 
L 12.3125 0 
L 2.6875 0 
z
" id="DejaVuSans-Oblique-78"/>
      <path d="M 10.59375 45.40625 
L 73.1875 45.40625 
L 73.1875 37.203125 
L 10.59375 37.203125 
z
M 10.59375 25.484375 
L 73.1875 25.484375 
L 73.1875 17.1875 
L 10.59375 17.1875 
z
" id="DejaVuSans-61"/>
     </defs>
     <g transform="translate(21.020312 238.878)rotate(-90)scale(0.1 -0.1)">
      <use transform="translate(0 0.015625)" xlink:href="#DejaVuSans-82"/>
      <use transform="translate(69.482422 0.015625)" xlink:href="#DejaVuSans-101"/>
      <use transform="translate(131.005859 0.015625)" xlink:href="#DejaVuSans-108"/>
      <use transform="translate(158.789062 0.015625)" xlink:href="#DejaVuSans-97"/>
      <use transform="translate(220.068359 0.015625)" xlink:href="#DejaVuSans-116"/>
      <use transform="translate(259.277344 0.015625)" xlink:href="#DejaVuSans-105"/>
      <use transform="translate(287.060547 0.015625)" xlink:href="#DejaVuSans-118"/>
      <use transform="translate(346.240234 0.015625)" xlink:href="#DejaVuSans-101"/>
      <use transform="translate(440.23405 0.015625)" xlink:href="#DejaVuSans-101"/>
      <use transform="translate(501.757488 0.015625)" xlink:href="#DejaVuSans-114"/>
      <use transform="translate(542.870769 0.015625)" xlink:href="#DejaVuSans-114"/>
      <use transform="translate(583.98405 0.015625)" xlink:href="#DejaVuSans-111"/>
      <use transform="translate(645.165691 0.015625)" xlink:href="#DejaVuSans-114"/>
      <use transform="translate(686.278972 0.015625)" xlink:href="#DejaVuSans-32"/>
      <use transform="translate(718.066082 0.015625)" xlink:href="#DejaVuSans-40"/>
      <use transform="translate(757.079753 0.015625)" xlink:href="#DejaVuSans-Oblique-78"/>
      <use transform="translate(831.884441 -16.390625)scale(0.7)" xlink:href="#DejaVuSans-116"/>
      <use transform="translate(859.33073 -16.390625)scale(0.7)" xlink:href="#DejaVuSans-114"/>
      <use transform="translate(888.110027 -16.390625)scale(0.7)" xlink:href="#DejaVuSans-97"/>
      <use transform="translate(931.005535 -16.390625)scale(0.7)" xlink:href="#DejaVuSans-105"/>
      <use transform="translate(950.453777 -16.390625)scale(0.7)" xlink:href="#DejaVuSans-110"/>
      <use transform="translate(1017.035808 0.015625)" xlink:href="#DejaVuSans-61"/>
      <use transform="translate(1120.307292 0.015625)" xlink:href="#DejaVuSans-49"/>
      <use transform="translate(1183.930339 0.015625)" xlink:href="#DejaVuSans-48"/>
      <use transform="translate(1247.553386 0.015625)" xlink:href="#DejaVuSans-41"/>
     </g>
    </g>
   </g>
   <g id="line2d_28">
    <path clip-path="url(#p4f40682e6f)" d="M 73.832724 290.588449 
L 77.145522 258.150744 
L 80.458321 234.074823 
L 83.771119 214.89555 
L 87.083917 199.076014 
L 90.396716 185.781095 
L 93.709554 174.481685 
L 97.022352 164.801449 
L 100.33515 156.452582 
L 103.647949 149.206839 
L 106.960747 142.880761 
L 110.273545 137.32616 
L 113.586344 132.422742 
L 116.899142 128.072526 
L 120.21194 124.195212 
L 123.524738 120.724896 
L 126.837537 117.607038 
L 130.150375 114.796301 
L 133.463173 112.254908 
L 136.775971 109.951184 
L 140.08877 107.858439 
L 143.401568 105.954287 
L 146.714366 104.219772 
L 150.027165 102.638737 
L 153.339963 101.197529 
L 156.652761 99.884602 
L 159.96556 98.690049 
L 163.278358 97.605511 
L 166.591156 96.623772 
L 169.903955 95.738617 
L 173.216753 94.944642 
L 176.529551 94.237146 
L 179.842389 93.612142 
L 183.155187 93.066196 
L 186.467986 92.596442 
L 189.780784 92.200564 
L 193.093582 91.876707 
L 196.406381 91.623566 
L 199.719179 91.440179 
L 203.031977 91.325814 
L 206.344776 91.279869 
L 209.657574 91.301709 
L 212.970412 91.39032 
L 216.28321 91.544126 
L 219.596008 91.760556 
L 226.221605 92.362365 
L 232.847202 93.132811 
L 242.785597 94.346587 
L 246.098395 94.690468 
L 249.411193 94.974591 
L 252.723992 95.187151 
L 256.03679 95.321633 
L 259.349588 95.376516 
L 262.662387 95.354155 
L 265.975185 95.259836 
L 269.288023 95.100464 
L 275.913619 94.617598 
L 282.539216 93.966426 
L 289.164852 93.200272 
L 299.103247 91.925772 
L 328.918432 87.980292 
L 338.856827 86.781456 
L 348.795222 85.68491 
L 358.733656 84.706332 
L 368.672051 83.857089 
L 378.610486 83.146843 
L 388.548881 82.584579 
L 398.487276 82.179559 
" style="fill:none;stroke:#ff0000;stroke-linecap:square;stroke-width:1.5;"/>
   </g>
   <g id="line2d_29">
    <path clip-path="url(#p4f40682e6f)" d="M 73.832724 243.888354 
L 77.145522 213.469332 
L 80.458321 191.340463 
L 83.771119 174.010647 
L 87.083917 159.916554 
L 90.396716 148.201797 
L 93.709554 138.324669 
L 97.022352 129.905804 
L 100.33515 122.662649 
L 103.647949 116.377973 
L 106.960747 110.881895 
L 110.273545 106.040192 
L 113.586344 101.746108 
L 116.899142 97.913924 
L 120.21194 94.474522 
L 123.524738 91.371482 
L 126.837537 88.558593 
L 130.150375 85.997678 
L 133.463173 83.656951 
L 136.775971 81.509686 
L 140.08877 79.533515 
L 143.401568 77.709261 
L 146.714366 76.020736 
L 150.027165 74.453911 
L 153.339963 72.996754 
L 156.652761 71.638795 
L 159.96556 70.37101 
L 163.278358 69.185393 
L 166.591156 68.075037 
L 169.903955 67.033757 
L 176.529551 65.137583 
L 183.155187 63.460628 
L 189.780784 61.974462 
L 196.406381 60.656671 
L 203.031977 59.489918 
L 209.657574 58.461107 
L 216.28321 57.561036 
L 222.908807 56.784061 
L 229.534403 56.127967 
L 236.16 55.593382 
L 242.785597 55.182497 
L 249.411193 54.896663 
L 256.03679 54.732774 
L 262.662387 54.679977 
L 269.288023 54.71836 
L 279.226418 54.888295 
L 305.728844 55.429658 
L 318.980037 55.568845 
L 335.544029 55.611096 
L 385.236083 55.602622 
L 398.487276 55.733188 
" style="fill:none;stroke:#0000ff;stroke-linecap:square;stroke-width:1.5;"/>
   </g>
   <g id="line2d_30">
    <path clip-path="url(#p4f40682e6f)" d="M 73.832724 205.780896 
L 77.145522 178.814109 
L 80.458321 159.817055 
L 83.771119 145.853069 
L 87.083917 134.857654 
L 90.396716 125.834245 
L 93.709554 118.290678 
L 97.022352 111.925458 
L 100.33515 106.521197 
L 103.647949 101.90869 
L 106.960747 97.95256 
L 110.273545 94.543379 
L 113.586344 91.592703 
L 116.899142 89.028922 
L 120.21194 86.79408 
L 123.524738 84.841142 
L 126.837537 83.131276 
L 130.150375 81.632397 
L 133.463173 80.317865 
L 136.775971 79.165823 
L 140.08877 78.15828 
L 143.401568 77.28018 
L 146.714366 76.518973 
L 150.027165 75.863971 
L 153.339963 75.305906 
L 156.652761 74.836747 
L 159.96556 74.449737 
L 163.278358 74.139223 
L 166.591156 73.900771 
L 169.903955 73.731037 
L 173.216753 73.627509 
L 176.529551 73.588305 
L 179.842389 73.611789 
L 183.155187 73.696618 
L 186.467986 73.841852 
L 189.780784 74.046966 
L 193.093582 74.31204 
L 196.406381 74.637664 
L 199.719179 75.025176 
L 203.031977 75.476808 
L 206.344776 75.995784 
L 209.657574 76.586254 
L 212.970412 77.253182 
L 216.28321 78.002047 
L 219.596008 78.838299 
L 222.908807 79.766671 
L 226.221605 80.789631 
L 229.534403 81.904374 
L 236.16 84.341276 
L 242.785597 86.796443 
L 246.098395 87.919748 
L 249.411193 88.936894 
L 252.723992 89.836372 
L 256.03679 90.613687 
L 259.349588 91.268525 
L 262.662387 91.803953 
L 265.975185 92.226047 
L 269.288023 92.543143 
L 272.600821 92.764957 
L 275.913619 92.901829 
L 279.226418 92.963905 
L 282.539216 92.96081 
L 289.164852 92.794084 
L 295.790449 92.463353 
L 302.416045 92.017363 
L 312.35444 91.211378 
L 328.918432 89.708484 
L 345.482424 88.2283 
L 355.420858 87.424079 
L 365.359253 86.709 
L 375.297688 86.085301 
L 388.548881 85.382895 
L 398.487276 84.948678 
" style="fill:none;stroke:#00ffff;stroke-linecap:square;stroke-width:1.5;"/>
   </g>
   <g id="patch_3">
    <path d="M 57.6 307.584 
L 57.6 41.472 
" style="fill:none;stroke:#000000;stroke-linecap:square;stroke-linejoin:miter;stroke-width:0.8;"/>
   </g>
   <g id="patch_4">
    <path d="M 414.72 307.584 
L 414.72 41.472 
" style="fill:none;stroke:#000000;stroke-linecap:square;stroke-linejoin:miter;stroke-width:0.8;"/>
   </g>
   <g id="patch_5">
    <path d="M 57.6 307.584 
L 414.72 307.584 
" style="fill:none;stroke:#000000;stroke-linecap:square;stroke-linejoin:miter;stroke-width:0.8;"/>
   </g>
   <g id="patch_6">
    <path d="M 57.6 41.472 
L 414.72 41.472 
" style="fill:none;stroke:#000000;stroke-linecap:square;stroke-linejoin:miter;stroke-width:0.8;"/>
   </g>
   <g id="legend_1">
    <g id="patch_7">
     <path d="M 289.835625 302.584 
L 407.72 302.584 
Q 409.72 302.584 409.72 300.584 
L 409.72 257.549625 
Q 409.72 255.549625 407.72 255.549625 
L 289.835625 255.549625 
Q 287.835625 255.549625 287.835625 257.549625 
L 287.835625 300.584 
Q 287.835625 302.584 289.835625 302.584 
z
" style="fill:#ffffff;opacity:0.8;stroke:#cccccc;stroke-linejoin:miter;"/>
    </g>
    <g id="line2d_31">
     <path d="M 291.835625 263.648062 
L 311.835625 263.648062 
" style="fill:none;stroke:#ff0000;stroke-linecap:square;stroke-width:1.5;"/>
    </g>
    <g id="line2d_32"/>
    <g id="text_10">
     <!-- No grad. reg. -->
     <defs>
      <path d="M 9.8125 72.90625 
L 23.09375 72.90625 
L 55.421875 11.921875 
L 55.421875 72.90625 
L 64.984375 72.90625 
L 64.984375 0 
L 51.703125 0 
L 19.390625 60.984375 
L 19.390625 0 
L 9.8125 0 
z
" id="DejaVuSans-78"/>
      <path d="M 45.40625 27.984375 
Q 45.40625 37.75 41.375 43.109375 
Q 37.359375 48.484375 30.078125 48.484375 
Q 22.859375 48.484375 18.828125 43.109375 
Q 14.796875 37.75 14.796875 27.984375 
Q 14.796875 18.265625 18.828125 12.890625 
Q 22.859375 7.515625 30.078125 7.515625 
Q 37.359375 7.515625 41.375 12.890625 
Q 45.40625 18.265625 45.40625 27.984375 
z
M 54.390625 6.78125 
Q 54.390625 -7.171875 48.1875 -13.984375 
Q 42 -20.796875 29.203125 -20.796875 
Q 24.46875 -20.796875 20.265625 -20.09375 
Q 16.0625 -19.390625 12.109375 -17.921875 
L 12.109375 -9.1875 
Q 16.0625 -11.328125 19.921875 -12.34375 
Q 23.78125 -13.375 27.78125 -13.375 
Q 36.625 -13.375 41.015625 -8.765625 
Q 45.40625 -4.15625 45.40625 5.171875 
L 45.40625 9.625 
Q 42.625 4.78125 38.28125 2.390625 
Q 33.9375 0 27.875 0 
Q 17.828125 0 11.671875 7.65625 
Q 5.515625 15.328125 5.515625 27.984375 
Q 5.515625 40.671875 11.671875 48.328125 
Q 17.828125 56 27.875 56 
Q 33.9375 56 38.28125 53.609375 
Q 42.625 51.21875 45.40625 46.390625 
L 45.40625 54.6875 
L 54.390625 54.6875 
z
" id="DejaVuSans-103"/>
     </defs>
     <g transform="translate(319.835625 267.148062)scale(0.1 -0.1)">
      <use xlink:href="#DejaVuSans-78"/>
      <use x="74.804688" xlink:href="#DejaVuSans-111"/>
      <use x="135.986328" xlink:href="#DejaVuSans-32"/>
      <use x="167.773438" xlink:href="#DejaVuSans-103"/>
      <use x="231.25" xlink:href="#DejaVuSans-114"/>
      <use x="272.363281" xlink:href="#DejaVuSans-97"/>
      <use x="333.642578" xlink:href="#DejaVuSans-100"/>
      <use x="397.119141" xlink:href="#DejaVuSans-46"/>
      <use x="428.90625" xlink:href="#DejaVuSans-32"/>
      <use x="460.693359" xlink:href="#DejaVuSans-114"/>
      <use x="501.775391" xlink:href="#DejaVuSans-101"/>
      <use x="563.298828" xlink:href="#DejaVuSans-103"/>
      <use x="626.775391" xlink:href="#DejaVuSans-46"/>
     </g>
    </g>
    <g id="line2d_33">
     <path d="M 291.835625 278.326188 
L 311.835625 278.326188 
" style="fill:none;stroke:#0000ff;stroke-linecap:square;stroke-width:1.5;"/>
    </g>
    <g id="line2d_34"/>
    <g id="text_11">
     <!-- Grad. reg -->
     <defs>
      <path d="M 59.515625 10.40625 
L 59.515625 29.984375 
L 43.40625 29.984375 
L 43.40625 38.09375 
L 69.28125 38.09375 
L 69.28125 6.78125 
Q 63.578125 2.734375 56.6875 0.65625 
Q 49.8125 -1.421875 42 -1.421875 
Q 24.90625 -1.421875 15.25 8.5625 
Q 5.609375 18.5625 5.609375 36.375 
Q 5.609375 54.25 15.25 64.234375 
Q 24.90625 74.21875 42 74.21875 
Q 49.125 74.21875 55.546875 72.453125 
Q 61.96875 70.703125 67.390625 67.28125 
L 67.390625 56.78125 
Q 61.921875 61.421875 55.765625 63.765625 
Q 49.609375 66.109375 42.828125 66.109375 
Q 29.4375 66.109375 22.71875 58.640625 
Q 16.015625 51.171875 16.015625 36.375 
Q 16.015625 21.625 22.71875 14.15625 
Q 29.4375 6.6875 42.828125 6.6875 
Q 48.046875 6.6875 52.140625 7.59375 
Q 56.25 8.5 59.515625 10.40625 
z
" id="DejaVuSans-71"/>
     </defs>
     <g transform="translate(319.835625 281.826188)scale(0.1 -0.1)">
      <use xlink:href="#DejaVuSans-71"/>
      <use x="77.490234" xlink:href="#DejaVuSans-114"/>
      <use x="118.603516" xlink:href="#DejaVuSans-97"/>
      <use x="179.882812" xlink:href="#DejaVuSans-100"/>
      <use x="243.359375" xlink:href="#DejaVuSans-46"/>
      <use x="275.146484" xlink:href="#DejaVuSans-32"/>
      <use x="306.933594" xlink:href="#DejaVuSans-114"/>
      <use x="348.015625" xlink:href="#DejaVuSans-101"/>
      <use x="409.539062" xlink:href="#DejaVuSans-103"/>
     </g>
    </g>
    <g id="line2d_35">
     <path d="M 291.835625 293.004312 
L 311.835625 293.004312 
" style="fill:none;stroke:#00ffff;stroke-linecap:square;stroke-width:1.5;"/>
    </g>
    <g id="line2d_36"/>
    <g id="text_12">
     <!-- Second grad. reg -->
     <defs>
      <path d="M 53.515625 70.515625 
L 53.515625 60.890625 
Q 47.90625 63.578125 42.921875 64.890625 
Q 37.9375 66.21875 33.296875 66.21875 
Q 25.25 66.21875 20.875 63.09375 
Q 16.5 59.96875 16.5 54.203125 
Q 16.5 49.359375 19.40625 46.890625 
Q 22.3125 44.4375 30.421875 42.921875 
L 36.375 41.703125 
Q 47.40625 39.59375 52.65625 34.296875 
Q 57.90625 29 57.90625 20.125 
Q 57.90625 9.515625 50.796875 4.046875 
Q 43.703125 -1.421875 29.984375 -1.421875 
Q 24.8125 -1.421875 18.96875 -0.25 
Q 13.140625 0.921875 6.890625 3.21875 
L 6.890625 13.375 
Q 12.890625 10.015625 18.65625 8.296875 
Q 24.421875 6.59375 29.984375 6.59375 
Q 38.421875 6.59375 43.015625 9.90625 
Q 47.609375 13.234375 47.609375 19.390625 
Q 47.609375 24.75 44.3125 27.78125 
Q 41.015625 30.8125 33.5 32.328125 
L 27.484375 33.5 
Q 16.453125 35.6875 11.515625 40.375 
Q 6.59375 45.0625 6.59375 53.421875 
Q 6.59375 63.09375 13.40625 68.65625 
Q 20.21875 74.21875 32.171875 74.21875 
Q 37.3125 74.21875 42.625 73.28125 
Q 47.953125 72.359375 53.515625 70.515625 
z
" id="DejaVuSans-83"/>
     </defs>
     <g transform="translate(319.835625 296.504312)scale(0.1 -0.1)">
      <use xlink:href="#DejaVuSans-83"/>
      <use x="63.476562" xlink:href="#DejaVuSans-101"/>
      <use x="125" xlink:href="#DejaVuSans-99"/>
      <use x="179.980469" xlink:href="#DejaVuSans-111"/>
      <use x="241.162109" xlink:href="#DejaVuSans-110"/>
      <use x="304.541016" xlink:href="#DejaVuSans-100"/>
      <use x="368.017578" xlink:href="#DejaVuSans-32"/>
      <use x="399.804688" xlink:href="#DejaVuSans-103"/>
      <use x="463.28125" xlink:href="#DejaVuSans-114"/>
      <use x="504.394531" xlink:href="#DejaVuSans-97"/>
      <use x="565.673828" xlink:href="#DejaVuSans-100"/>
      <use x="629.150391" xlink:href="#DejaVuSans-46"/>
      <use x="660.9375" xlink:href="#DejaVuSans-32"/>
      <use x="692.724609" xlink:href="#DejaVuSans-114"/>
      <use x="733.806641" xlink:href="#DejaVuSans-101"/>
      <use x="795.330078" xlink:href="#DejaVuSans-103"/>
     </g>
    </g>
   </g>
  </g>
 </g>
 <defs>
  <clipPath id="p4f40682e6f">
   <rect height="266.112" width="357.12" x="57.6" y="41.472"/>
  </clipPath>
 </defs>
</svg>
