<?xml version="1.0" encoding="utf-8" standalone="no"?>
<!DOCTYPE svg PUBLIC "-//W3C//DTD SVG 1.1//EN"
  "http://www.w3.org/Graphics/SVG/1.1/DTD/svg11.dtd">
<!-- Created with matplotlib (https://matplotlib.org/) -->
<svg height="345.6pt" version="1.1" viewBox="0 0 460.8 345.6" width="460.8pt" xmlns="http://www.w3.org/2000/svg" xmlns:xlink="http://www.w3.org/1999/xlink">
 <defs>
  <style type="text/css">
*{stroke-linecap:butt;stroke-linejoin:round;white-space:pre;}
  </style>
 </defs>
 <g id="figure_1">
  <g id="patch_1">
   <path d="M 0 345.6 
L 460.8 345.6 
L 460.8 0 
L 0 0 
z
" style="fill:#ffffff;"/>
  </g>
  <g id="axes_1">
   <g id="patch_2">
    <path d="M 57.6 307.584 
L 414.72 307.584 
L 414.72 41.472 
L 57.6 41.472 
z
" style="fill:#ffffff;"/>
   </g>
   <g id="PolyCollection_1">
    <path clip-path="url(#pbcf770225d)" d="M 73.832727 285.602191 
L 73.832727 295.488 
L 77.145529 262.884767 
L 80.45833 238.682546 
L 83.771132 219.386951 
L 87.083933 203.447676 
L 90.396735 190.029106 
L 93.709536 178.607599 
L 97.022338 168.811711 
L 100.335139 160.357246 
L 103.647941 153.018888 
L 106.960742 146.614679 
L 110.273544 140.996566 
L 113.586345 136.043829 
L 116.899147 131.657732 
L 120.211948 127.757066 
L 123.52475 124.274779 
L 126.837551 121.155356 
L 130.150353 118.35264 
L 133.463154 115.828116 
L 136.775955 113.549552 
L 140.088757 111.489859 
L 143.401558 109.626155 
L 146.71436 107.939091 
L 150.027161 106.41242 
L 153.339963 105.032513 
L 156.652764 103.787874 
L 159.965566 102.66883 
L 163.278367 101.667258 
L 166.591169 100.776324 
L 169.90397 99.990215 
L 173.216772 99.303972 
L 176.529573 98.713354 
L 179.842375 98.214762 
L 183.155176 97.8052 
L 186.467978 97.4822 
L 189.780779 97.243885 
L 193.093581 97.088986 
L 196.406382 97.016854 
L 199.719184 97.027393 
L 203.031985 97.120974 
L 206.344787 97.298375 
L 209.657588 97.560682 
L 212.97039 97.909127 
L 216.283191 98.344762 
L 219.595993 98.867983 
L 222.908794 99.47778 
L 226.221596 100.170653 
L 229.534397 100.939081 
L 232.847199 101.769672 
L 236.16 102.641512 
L 239.472801 103.525756 
L 242.785603 104.387648 
L 246.098404 105.19132 
L 249.411206 105.905792 
L 252.724007 106.509517 
L 256.036809 106.991832 
L 259.34961 107.351586 
L 262.662412 107.594441 
L 265.975213 107.730121 
L 269.288015 107.770274 
L 272.600816 107.727023 
L 275.913618 107.612102 
L 279.226419 107.436392 
L 282.539221 107.209723 
L 285.852022 106.94083 
L 289.164824 106.637388 
L 292.477625 106.306101 
L 295.790427 105.952804 
L 299.103228 105.582575 
L 302.41603 105.199829 
L 305.728831 104.808416 
L 309.041633 104.411688 
L 312.354434 104.012599 
L 315.667236 103.613758 
L 318.980037 103.217493 
L 322.292839 102.825897 
L 325.60564 102.440875 
L 328.918442 102.06419 
L 332.231243 101.697495 
L 335.544045 101.342363 
L 338.856846 101.000306 
L 342.169647 100.672799 
L 345.482449 100.361279 
L 348.79525 100.067172 
L 352.108052 99.791891 
L 355.420853 99.536832 
L 358.733655 99.303393 
L 362.046456 99.092977 
L 365.359258 98.906985 
L 368.672059 98.746824 
L 371.984861 98.613908 
L 375.297662 98.509647 
L 378.610464 98.435457 
L 381.923265 98.392796 
L 385.236067 98.383214 
L 388.548868 98.408411 
L 391.86167 98.470283 
L 395.174471 98.570969 
L 398.487273 98.712898 
L 398.487273 77.258459 
L 398.487273 77.258459 
L 395.174471 77.471711 
L 391.86167 77.701179 
L 388.548868 77.946738 
L 385.236067 78.208251 
L 381.923265 78.485553 
L 378.610464 78.778433 
L 375.297662 79.086626 
L 371.984861 79.409827 
L 368.672059 79.747699 
L 365.359258 80.099883 
L 362.046456 80.466005 
L 358.733655 80.845673 
L 355.420853 81.238476 
L 352.108052 81.643986 
L 348.79525 82.061756 
L 345.482449 82.491316 
L 342.169647 82.93217 
L 338.856846 83.383791 
L 335.544045 83.845607 
L 332.231243 84.316995 
L 328.918442 84.797267 
L 325.60564 85.285654 
L 322.292839 85.781289 
L 318.980037 86.283188 
L 315.667236 86.790231 
L 312.354434 87.301132 
L 309.041633 87.814409 
L 305.728831 88.328346 
L 302.41603 88.840943 
L 299.103228 89.34987 
L 295.790427 89.8524 
L 292.477625 90.345348 
L 289.164824 90.824997 
L 285.852022 91.287024 
L 282.539221 91.726429 
L 279.226419 92.137469 
L 275.913618 92.513622 
L 272.600816 92.847592 
L 269.288015 93.131387 
L 265.975213 93.35653 
L 262.662412 93.514432 
L 259.34961 93.597025 
L 256.036809 93.597674 
L 252.724007 93.512411 
L 249.411206 93.341381 
L 246.098404 93.090168 
L 242.785603 92.770418 
L 239.472801 92.399189 
L 236.16 91.996959 
L 232.847199 91.584946 
L 229.534397 91.182735 
L 226.221596 90.806824 
L 222.908794 90.470076 
L 219.595993 90.181905 
L 216.283191 89.948847 
L 212.97039 89.775245 
L 209.657588 89.663883 
L 206.344787 89.616522 
L 203.031985 89.634326 
L 199.719184 89.71817 
L 196.406382 89.868866 
L 193.093581 90.087348 
L 189.780779 90.374828 
L 186.467978 90.732909 
L 183.155176 91.163653 
L 179.842375 91.669591 
L 176.529573 92.253721 
L 173.216772 92.919527 
L 169.90397 93.671033 
L 166.591169 94.512836 
L 163.278367 95.450185 
L 159.965566 96.489117 
L 156.652764 97.636596 
L 153.339963 98.900749 
L 150.027161 100.291132 
L 146.71436 101.818966 
L 143.401558 103.497456 
L 140.088757 105.342188 
L 136.775955 107.371515 
L 133.463154 109.6071 
L 130.150353 112.074685 
L 126.837551 114.804939 
L 123.52475 117.834536 
L 120.211948 121.207555 
L 116.899147 124.977247 
L 113.586345 129.208204 
L 110.273544 133.979142 
L 106.960742 139.386869 
L 103.647941 145.551037 
L 100.335139 152.619993 
L 97.022338 160.778797 
L 93.709536 170.260098 
L 90.396735 181.359704 
L 87.083933 194.464724 
L 83.771132 210.117015 
L 80.45833 229.166296 
L 77.145529 253.165188 
L 73.832727 285.602191 
z
" style="fill:#ff0000;fill-opacity:0.4;"/>
   </g>
   <g id="PolyCollection_2">
    <path clip-path="url(#pbcf770225d)" d="M 73.832727 241.608613 
L 73.832727 248.823964 
L 77.145529 218.17358 
L 80.45833 195.839906 
L 83.771132 178.307975 
L 87.083933 164.007742 
L 90.396735 152.084656 
L 93.709536 142.002074 
L 97.022338 133.385721 
L 100.335139 125.956655 
L 103.647941 119.499423 
L 106.960742 113.844593 
L 110.273544 108.857597 
L 113.586345 104.430774 
L 116.899147 100.477422 
L 120.211948 96.927239 
L 123.52475 93.722827 
L 126.837551 90.816989 
L 130.150353 88.170649 
L 133.463154 85.751231 
L 136.775955 83.531399 
L 140.088757 81.488071 
L 143.401558 79.601642 
L 146.71436 77.855365 
L 150.027161 76.23486 
L 153.339963 74.727718 
L 156.652764 73.323183 
L 159.965566 72.011892 
L 163.278367 70.785662 
L 166.591169 69.637316 
L 169.90397 68.560541 
L 173.216772 67.549765 
L 176.529573 66.600065 
L 179.842375 65.707077 
L 183.155176 64.866934 
L 186.467978 64.076205 
L 189.780779 63.331851 
L 193.093581 62.631182 
L 196.406382 61.971829 
L 199.719184 61.351719 
L 203.031985 60.769048 
L 206.344787 60.222272 
L 209.657588 59.710089 
L 212.97039 59.231432 
L 216.283191 58.785456 
L 219.595993 58.371533 
L 222.908794 57.989237 
L 226.221596 57.638326 
L 229.534397 57.318721 
L 232.847199 57.030462 
L 236.16 56.773664 
L 239.472801 56.54844 
L 242.785603 56.354814 
L 246.098404 56.192623 
L 249.411206 56.061403 
L 252.724007 55.960293 
L 256.036809 55.887956 
L 259.34961 55.842538 
L 262.662412 55.821683 
L 265.975213 55.822596 
L 269.288015 55.842147 
L 272.600816 55.877018 
L 275.913618 55.923846 
L 279.226419 55.979371 
L 282.539221 56.040552 
L 285.852022 56.104656 
L 289.164824 56.169315 
L 292.477625 56.23255 
L 295.790427 56.292771 
L 299.103228 56.348756 
L 302.41603 56.39962 
L 305.728831 56.44478 
L 309.041633 56.483911 
L 312.354434 56.516908 
L 315.667236 56.543851 
L 318.980037 56.564969 
L 322.292839 56.580611 
L 325.60564 56.591223 
L 328.918442 56.597324 
L 332.231243 56.599491 
L 335.544045 56.59834 
L 338.856846 56.594515 
L 342.169647 56.588675 
L 345.482449 56.581487 
L 348.79525 56.573618 
L 352.108052 56.565723 
L 355.420853 56.558445 
L 358.733655 56.552406 
L 362.046456 56.548199 
L 365.359258 56.546391 
L 368.672059 56.547511 
L 371.984861 56.552051 
L 375.297662 56.560459 
L 378.610464 56.573134 
L 381.923265 56.590425 
L 385.236067 56.612618 
L 388.548868 56.639935 
L 391.86167 56.67252 
L 395.174471 56.710428 
L 398.487273 56.753613 
L 398.487273 54.748206 
L 398.487273 54.748206 
L 395.174471 54.709751 
L 391.86167 54.676727 
L 388.548868 54.649115 
L 385.236067 54.626804 
L 381.923265 54.6096 
L 378.610464 54.597237 
L 375.297662 54.589385 
L 371.984861 54.585656 
L 368.672059 54.585607 
L 365.359258 54.588745 
L 362.046456 54.594534 
L 358.733655 54.602392 
L 355.420853 54.611701 
L 352.108052 54.621806 
L 348.79525 54.632024 
L 345.482449 54.641646 
L 342.169647 54.649941 
L 338.856846 54.656168 
L 335.544045 54.659575 
L 332.231243 54.659414 
L 328.918442 54.654947 
L 325.60564 54.645456 
L 322.292839 54.630259 
L 318.980037 54.608726 
L 315.667236 54.580298 
L 312.354434 54.544514 
L 309.041633 54.501039 
L 305.728831 54.449703 
L 302.41603 54.390543 
L 299.103228 54.323854 
L 295.790427 54.250242 
L 292.477625 54.170682 
L 289.164824 54.086574 
L 285.852022 53.999785 
L 282.539221 53.91268 
L 279.226419 53.828112 
L 275.913618 53.749382 
L 272.600816 53.680146 
L 269.288015 53.62427 
L 265.975213 53.585649 
L 262.662412 53.568 
L 259.34961 53.574661 
L 256.036809 53.60842 
L 252.724007 53.671415 
L 249.411206 53.765095 
L 246.098404 53.890269 
L 242.785603 54.047205 
L 239.472801 54.235765 
L 236.16 54.455557 
L 232.847199 54.706067 
L 229.534397 54.98678 
L 226.221596 55.297267 
L 222.908794 55.637242 
L 219.595993 56.006608 
L 216.283191 56.405477 
L 212.97039 56.834181 
L 209.657588 57.293279 
L 206.344787 57.78356 
L 203.031985 58.30604 
L 199.719184 58.861973 
L 196.406382 59.452848 
L 193.093581 60.080405 
L 189.780779 60.746645 
L 186.467978 61.453849 
L 183.155176 62.204601 
L 179.842375 63.001819 
L 176.529573 63.848789 
L 173.216772 64.749213 
L 169.90397 65.707261 
L 166.591169 66.727639 
L 163.278367 67.815663 
L 159.965566 68.977362 
L 156.652764 70.219586 
L 153.339963 71.550148 
L 150.027161 72.977992 
L 146.71436 74.513396 
L 143.401558 76.168232 
L 140.088757 77.956268 
L 136.775955 79.89356 
L 133.463154 81.998934 
L 130.150353 84.294594 
L 126.837551 86.806891 
L 123.52475 89.567311 
L 120.211948 92.613742 
L 116.899147 95.992114 
L 113.586345 99.75854 
L 110.273544 103.982135 
L 106.960742 108.748713 
L 103.647941 114.165706 
L 100.335139 120.368698 
L 97.022338 127.530236 
L 93.709536 135.872094 
L 90.396735 145.683702 
L 87.083933 157.353955 
L 83.771132 171.436064 
L 80.45833 188.798583 
L 77.145529 211.018389 
L 73.832727 241.608613 
z
" style="fill:#0000ff;fill-opacity:0.4;"/>
   </g>
   <g id="PolyCollection_3">
    <path clip-path="url(#pbcf770225d)" d="M 73.832727 192.304426 
L 73.832727 228.688819 
L 77.145529 198.731842 
L 80.45833 177.121164 
L 83.771132 160.715202 
L 87.083933 147.778392 
L 90.396735 137.221937 
L 93.709536 128.425792 
L 97.022338 120.998347 
L 100.335139 114.667352 
L 103.647941 109.229647 
L 106.960742 104.527439 
L 110.273544 100.435611 
L 113.586345 96.85386 
L 116.899147 93.701498 
L 120.211948 90.91345 
L 123.52475 88.43703 
L 126.837551 86.229125 
L 130.150353 84.254256 
L 133.463154 82.48314 
L 136.775955 80.891463 
L 140.088757 79.459035 
L 143.401558 78.169111 
L 146.71436 77.007659 
L 150.027161 75.962683 
L 153.339963 75.023736 
L 156.652764 74.181704 
L 159.965566 73.4287 
L 163.278367 72.757877 
L 166.591169 72.16324 
L 169.90397 71.639557 
L 173.216772 71.1823 
L 176.529573 70.787544 
L 179.842375 70.451775 
L 183.155176 70.171784 
L 186.467978 69.944575 
L 189.780779 69.767086 
L 193.093581 69.635905 
L 196.406382 69.547041 
L 199.719184 69.495865 
L 203.031985 69.477751 
L 206.344787 69.489174 
L 209.657588 69.528279 
L 212.97039 69.594629 
L 216.283191 69.688588 
L 219.595993 69.811084 
L 222.908794 69.963259 
L 226.221596 70.146126 
L 229.534397 70.360252 
L 232.847199 70.605546 
L 236.16 70.881059 
L 239.472801 71.184734 
L 242.785603 71.513188 
L 246.098404 71.861589 
L 249.411206 72.223663 
L 252.724007 72.591892 
L 256.036809 72.958009 
L 259.34961 73.31368 
L 262.662412 73.651184 
L 265.975213 73.963978 
L 269.288015 74.24706 
L 272.600816 74.497153 
L 275.913618 74.712549 
L 279.226419 74.892844 
L 282.539221 75.038699 
L 285.852022 75.151619 
L 289.164824 75.233711 
L 292.477625 75.287412 
L 295.790427 75.315249 
L 299.103228 75.319651 
L 302.41603 75.302859 
L 305.728831 75.266902 
L 309.041633 75.213544 
L 312.354434 75.144216 
L 315.667236 75.060011 
L 318.980037 74.961796 
L 322.292839 74.850401 
L 325.60564 74.726723 
L 328.918442 74.591756 
L 332.231243 74.446576 
L 335.544045 74.292295 
L 338.856846 74.130045 
L 342.169647 73.960944 
L 345.482449 73.786085 
L 348.79525 73.606525 
L 352.108052 73.42329 
L 355.420853 73.237379 
L 358.733655 73.049762 
L 362.046456 72.861369 
L 365.359258 72.673076 
L 368.672059 72.485694 
L 371.984861 72.29998 
L 375.297662 72.116634 
L 378.610464 71.936291 
L 381.923265 71.759514 
L 385.236067 71.586806 
L 388.548868 71.418611 
L 391.86167 71.255325 
L 395.174471 71.097296 
L 398.487273 70.944828 
L 398.487273 56.067968 
L 398.487273 56.067968 
L 395.174471 56.151099 
L 391.86167 56.243672 
L 388.548868 56.345408 
L 385.236067 56.456018 
L 381.923265 56.5752 
L 378.610464 56.702643 
L 375.297662 56.83802 
L 371.984861 56.980991 
L 368.672059 57.131203 
L 365.359258 57.288282 
L 362.046456 57.451837 
L 358.733655 57.621456 
L 355.420853 57.796701 
L 352.108052 57.977109 
L 348.79525 58.162191 
L 345.482449 58.351418 
L 342.169647 58.544227 
L 338.856846 58.740011 
L 335.544045 58.938111 
L 332.231243 59.137812 
L 328.918442 59.338331 
L 325.60564 59.538807 
L 322.292839 59.738287 
L 318.980037 59.935715 
L 315.667236 60.12991 
L 312.354434 60.319548 
L 309.041633 60.503137 
L 305.728831 60.678986 
L 302.41603 60.845171 
L 299.103228 60.999498 
L 295.790427 61.139469 
L 292.477625 61.262248 
L 289.164824 61.364627 
L 285.852022 61.443014 
L 282.539221 61.493413 
L 279.226419 61.511466 
L 275.913618 61.492538 
L 272.600816 61.431862 
L 269.288015 61.324803 
L 265.975213 61.167242 
L 262.662412 60.956114 
L 259.34961 60.690116 
L 256.036809 60.370454 
L 252.724007 60.001526 
L 249.411206 59.591259 
L 246.098404 59.150906 
L 242.785603 58.694118 
L 239.472801 58.235509 
L 236.16 57.789037 
L 232.847199 57.36687 
L 229.534397 56.978653 
L 226.221596 56.631484 
L 222.908794 56.330136 
L 219.595993 56.077673 
L 216.283191 55.875751 
L 212.97039 55.725155 
L 209.657588 55.626112 
L 206.344787 55.578601 
L 203.031985 55.582536 
L 199.719184 55.637911 
L 196.406382 55.744886 
L 193.093581 55.90372 
L 189.780779 56.114772 
L 186.467978 56.378459 
L 183.155176 56.695292 
L 179.842375 57.065878 
L 176.529573 57.491085 
L 173.216772 57.972052 
L 169.90397 58.510394 
L 166.591169 59.108242 
L 163.278367 59.768373 
L 159.965566 60.494286 
L 156.652764 61.290304 
L 153.339963 62.161677 
L 150.027161 63.114733 
L 146.71436 64.157018 
L 143.401558 65.297517 
L 140.088757 66.5469 
L 136.775955 67.917904 
L 133.463154 69.425747 
L 130.150353 71.088692 
L 126.837551 72.928689 
L 123.52475 74.972255 
L 120.211948 77.251469 
L 116.899147 79.805251 
L 113.586345 82.681211 
L 110.273544 85.937747 
L 106.960742 89.64672 
L 103.647941 93.896806 
L 100.335139 98.797937 
L 97.022338 104.486521 
L 93.709536 111.131423 
L 90.396735 118.944087 
L 87.083933 128.20478 
L 83.771132 139.338931 
L 80.45833 153.089915 
L 77.145529 170.311014 
L 73.832727 192.304426 
z
" style="fill:#00ffff;fill-opacity:0.4;"/>
   </g>
   <g id="matplotlib.axis_1">
    <g id="xtick_1">
     <g id="line2d_1">
      <path clip-path="url(#pbcf770225d)" d="M 70.519926 307.584 
L 70.519926 41.472 
" style="fill:none;stroke:#b0b0b0;stroke-linecap:square;stroke-width:0.8;"/>
     </g>
     <g id="line2d_2">
      <defs>
       <path d="M 0 0 
L 0 3.5 
" id="m324dd1f5c8" style="stroke:#000000;stroke-width:0.8;"/>
      </defs>
      <g>
       <use style="stroke:#000000;stroke-width:0.8;" x="70.519926" xlink:href="#m324dd1f5c8" y="307.584"/>
      </g>
     </g>
     <g id="text_1">
      <!-- 0.0 -->
      <defs>
       <path d="M 31.78125 66.40625 
Q 24.171875 66.40625 20.328125 58.90625 
Q 16.5 51.421875 16.5 36.375 
Q 16.5 21.390625 20.328125 13.890625 
Q 24.171875 6.390625 31.78125 6.390625 
Q 39.453125 6.390625 43.28125 13.890625 
Q 47.125 21.390625 47.125 36.375 
Q 47.125 51.421875 43.28125 58.90625 
Q 39.453125 66.40625 31.78125 66.40625 
z
M 31.78125 74.21875 
Q 44.046875 74.21875 50.515625 64.515625 
Q 56.984375 54.828125 56.984375 36.375 
Q 56.984375 17.96875 50.515625 8.265625 
Q 44.046875 -1.421875 31.78125 -1.421875 
Q 19.53125 -1.421875 13.0625 8.265625 
Q 6.59375 17.96875 6.59375 36.375 
Q 6.59375 54.828125 13.0625 64.515625 
Q 19.53125 74.21875 31.78125 74.21875 
z
" id="DejaVuSans-48"/>
       <path d="M 10.6875 12.40625 
L 21 12.40625 
L 21 0 
L 10.6875 0 
z
" id="DejaVuSans-46"/>
      </defs>
      <g transform="translate(62.568363 322.182437)scale(0.1 -0.1)">
       <use xlink:href="#DejaVuSans-48"/>
       <use x="63.623047" xlink:href="#DejaVuSans-46"/>
       <use x="95.410156" xlink:href="#DejaVuSans-48"/>
      </g>
     </g>
    </g>
    <g id="xtick_2">
     <g id="line2d_3">
      <path clip-path="url(#pbcf770225d)" d="M 136.775955 307.584 
L 136.775955 41.472 
" style="fill:none;stroke:#b0b0b0;stroke-linecap:square;stroke-width:0.8;"/>
     </g>
     <g id="line2d_4">
      <g>
       <use style="stroke:#000000;stroke-width:0.8;" x="136.775955" xlink:href="#m324dd1f5c8" y="307.584"/>
      </g>
     </g>
     <g id="text_2">
      <!-- 0.2 -->
      <defs>
       <path d="M 19.1875 8.296875 
L 53.609375 8.296875 
L 53.609375 0 
L 7.328125 0 
L 7.328125 8.296875 
Q 12.9375 14.109375 22.625 23.890625 
Q 32.328125 33.6875 34.8125 36.53125 
Q 39.546875 41.84375 41.421875 45.53125 
Q 43.3125 49.21875 43.3125 52.78125 
Q 43.3125 58.59375 39.234375 62.25 
Q 35.15625 65.921875 28.609375 65.921875 
Q 23.96875 65.921875 18.8125 64.3125 
Q 13.671875 62.703125 7.8125 59.421875 
L 7.8125 69.390625 
Q 13.765625 71.78125 18.9375 73 
Q 24.125 74.21875 28.421875 74.21875 
Q 39.75 74.21875 46.484375 68.546875 
Q 53.21875 62.890625 53.21875 53.421875 
Q 53.21875 48.921875 51.53125 44.890625 
Q 49.859375 40.875 45.40625 35.40625 
Q 44.1875 33.984375 37.640625 27.21875 
Q 31.109375 20.453125 19.1875 8.296875 
z
" id="DejaVuSans-50"/>
      </defs>
      <g transform="translate(128.824393 322.182437)scale(0.1 -0.1)">
       <use xlink:href="#DejaVuSans-48"/>
       <use x="63.623047" xlink:href="#DejaVuSans-46"/>
       <use x="95.410156" xlink:href="#DejaVuSans-50"/>
      </g>
     </g>
    </g>
    <g id="xtick_3">
     <g id="line2d_5">
      <path clip-path="url(#pbcf770225d)" d="M 203.031985 307.584 
L 203.031985 41.472 
" style="fill:none;stroke:#b0b0b0;stroke-linecap:square;stroke-width:0.8;"/>
     </g>
     <g id="line2d_6">
      <g>
       <use style="stroke:#000000;stroke-width:0.8;" x="203.031985" xlink:href="#m324dd1f5c8" y="307.584"/>
      </g>
     </g>
     <g id="text_3">
      <!-- 0.4 -->
      <defs>
       <path d="M 37.796875 64.3125 
L 12.890625 25.390625 
L 37.796875 25.390625 
z
M 35.203125 72.90625 
L 47.609375 72.90625 
L 47.609375 25.390625 
L 58.015625 25.390625 
L 58.015625 17.1875 
L 47.609375 17.1875 
L 47.609375 0 
L 37.796875 0 
L 37.796875 17.1875 
L 4.890625 17.1875 
L 4.890625 26.703125 
z
" id="DejaVuSans-52"/>
      </defs>
      <g transform="translate(195.080423 322.182437)scale(0.1 -0.1)">
       <use xlink:href="#DejaVuSans-48"/>
       <use x="63.623047" xlink:href="#DejaVuSans-46"/>
       <use x="95.410156" xlink:href="#DejaVuSans-52"/>
      </g>
     </g>
    </g>
    <g id="xtick_4">
     <g id="line2d_7">
      <path clip-path="url(#pbcf770225d)" d="M 269.288015 307.584 
L 269.288015 41.472 
" style="fill:none;stroke:#b0b0b0;stroke-linecap:square;stroke-width:0.8;"/>
     </g>
     <g id="line2d_8">
      <g>
       <use style="stroke:#000000;stroke-width:0.8;" x="269.288015" xlink:href="#m324dd1f5c8" y="307.584"/>
      </g>
     </g>
     <g id="text_4">
      <!-- 0.6 -->
      <defs>
       <path d="M 33.015625 40.375 
Q 26.375 40.375 22.484375 35.828125 
Q 18.609375 31.296875 18.609375 23.390625 
Q 18.609375 15.53125 22.484375 10.953125 
Q 26.375 6.390625 33.015625 6.390625 
Q 39.65625 6.390625 43.53125 10.953125 
Q 47.40625 15.53125 47.40625 23.390625 
Q 47.40625 31.296875 43.53125 35.828125 
Q 39.65625 40.375 33.015625 40.375 
z
M 52.59375 71.296875 
L 52.59375 62.3125 
Q 48.875 64.0625 45.09375 64.984375 
Q 41.3125 65.921875 37.59375 65.921875 
Q 27.828125 65.921875 22.671875 59.328125 
Q 17.53125 52.734375 16.796875 39.40625 
Q 19.671875 43.65625 24.015625 45.921875 
Q 28.375 48.1875 33.59375 48.1875 
Q 44.578125 48.1875 50.953125 41.515625 
Q 57.328125 34.859375 57.328125 23.390625 
Q 57.328125 12.15625 50.6875 5.359375 
Q 44.046875 -1.421875 33.015625 -1.421875 
Q 20.359375 -1.421875 13.671875 8.265625 
Q 6.984375 17.96875 6.984375 36.375 
Q 6.984375 53.65625 15.1875 63.9375 
Q 23.390625 74.21875 37.203125 74.21875 
Q 40.921875 74.21875 44.703125 73.484375 
Q 48.484375 72.75 52.59375 71.296875 
z
" id="DejaVuSans-54"/>
      </defs>
      <g transform="translate(261.336452 322.182437)scale(0.1 -0.1)">
       <use xlink:href="#DejaVuSans-48"/>
       <use x="63.623047" xlink:href="#DejaVuSans-46"/>
       <use x="95.410156" xlink:href="#DejaVuSans-54"/>
      </g>
     </g>
    </g>
    <g id="xtick_5">
     <g id="line2d_9">
      <path clip-path="url(#pbcf770225d)" d="M 335.544045 307.584 
L 335.544045 41.472 
" style="fill:none;stroke:#b0b0b0;stroke-linecap:square;stroke-width:0.8;"/>
     </g>
     <g id="line2d_10">
      <g>
       <use style="stroke:#000000;stroke-width:0.8;" x="335.544045" xlink:href="#m324dd1f5c8" y="307.584"/>
      </g>
     </g>
     <g id="text_5">
      <!-- 0.8 -->
      <defs>
       <path d="M 31.78125 34.625 
Q 24.75 34.625 20.71875 30.859375 
Q 16.703125 27.09375 16.703125 20.515625 
Q 16.703125 13.921875 20.71875 10.15625 
Q 24.75 6.390625 31.78125 6.390625 
Q 38.8125 6.390625 42.859375 10.171875 
Q 46.921875 13.96875 46.921875 20.515625 
Q 46.921875 27.09375 42.890625 30.859375 
Q 38.875 34.625 31.78125 34.625 
z
M 21.921875 38.8125 
Q 15.578125 40.375 12.03125 44.71875 
Q 8.5 49.078125 8.5 55.328125 
Q 8.5 64.0625 14.71875 69.140625 
Q 20.953125 74.21875 31.78125 74.21875 
Q 42.671875 74.21875 48.875 69.140625 
Q 55.078125 64.0625 55.078125 55.328125 
Q 55.078125 49.078125 51.53125 44.71875 
Q 48 40.375 41.703125 38.8125 
Q 48.828125 37.15625 52.796875 32.3125 
Q 56.78125 27.484375 56.78125 20.515625 
Q 56.78125 9.90625 50.3125 4.234375 
Q 43.84375 -1.421875 31.78125 -1.421875 
Q 19.734375 -1.421875 13.25 4.234375 
Q 6.78125 9.90625 6.78125 20.515625 
Q 6.78125 27.484375 10.78125 32.3125 
Q 14.796875 37.15625 21.921875 38.8125 
z
M 18.3125 54.390625 
Q 18.3125 48.734375 21.84375 45.5625 
Q 25.390625 42.390625 31.78125 42.390625 
Q 38.140625 42.390625 41.71875 45.5625 
Q 45.3125 48.734375 45.3125 54.390625 
Q 45.3125 60.0625 41.71875 63.234375 
Q 38.140625 66.40625 31.78125 66.40625 
Q 25.390625 66.40625 21.84375 63.234375 
Q 18.3125 60.0625 18.3125 54.390625 
z
" id="DejaVuSans-56"/>
      </defs>
      <g transform="translate(327.592482 322.182437)scale(0.1 -0.1)">
       <use xlink:href="#DejaVuSans-48"/>
       <use x="63.623047" xlink:href="#DejaVuSans-46"/>
       <use x="95.410156" xlink:href="#DejaVuSans-56"/>
      </g>
     </g>
    </g>
    <g id="xtick_6">
     <g id="line2d_11">
      <path clip-path="url(#pbcf770225d)" d="M 401.800074 307.584 
L 401.800074 41.472 
" style="fill:none;stroke:#b0b0b0;stroke-linecap:square;stroke-width:0.8;"/>
     </g>
     <g id="line2d_12">
      <g>
       <use style="stroke:#000000;stroke-width:0.8;" x="401.800074" xlink:href="#m324dd1f5c8" y="307.584"/>
      </g>
     </g>
     <g id="text_6">
      <!-- 1.0 -->
      <defs>
       <path d="M 12.40625 8.296875 
L 28.515625 8.296875 
L 28.515625 63.921875 
L 10.984375 60.40625 
L 10.984375 69.390625 
L 28.421875 72.90625 
L 38.28125 72.90625 
L 38.28125 8.296875 
L 54.390625 8.296875 
L 54.390625 0 
L 12.40625 0 
z
" id="DejaVuSans-49"/>
      </defs>
      <g transform="translate(393.848512 322.182437)scale(0.1 -0.1)">
       <use xlink:href="#DejaVuSans-49"/>
       <use x="63.623047" xlink:href="#DejaVuSans-46"/>
       <use x="95.410156" xlink:href="#DejaVuSans-48"/>
      </g>
     </g>
    </g>
    <g id="text_7">
     <!-- $\mathrm{Time \ (seconds)}$ -->
     <defs>
      <path d="M -0.296875 72.90625 
L 61.375 72.90625 
L 61.375 64.59375 
L 35.5 64.59375 
L 35.5 0 
L 25.59375 0 
L 25.59375 64.59375 
L -0.296875 64.59375 
z
" id="DejaVuSans-84"/>
      <path d="M 9.421875 54.6875 
L 18.40625 54.6875 
L 18.40625 0 
L 9.421875 0 
z
M 9.421875 75.984375 
L 18.40625 75.984375 
L 18.40625 64.59375 
L 9.421875 64.59375 
z
" id="DejaVuSans-105"/>
      <path d="M 52 44.1875 
Q 55.375 50.25 60.0625 53.125 
Q 64.75 56 71.09375 56 
Q 79.640625 56 84.28125 50.015625 
Q 88.921875 44.046875 88.921875 33.015625 
L 88.921875 0 
L 79.890625 0 
L 79.890625 32.71875 
Q 79.890625 40.578125 77.09375 44.375 
Q 74.3125 48.1875 68.609375 48.1875 
Q 61.625 48.1875 57.5625 43.546875 
Q 53.515625 38.921875 53.515625 30.90625 
L 53.515625 0 
L 44.484375 0 
L 44.484375 32.71875 
Q 44.484375 40.625 41.703125 44.40625 
Q 38.921875 48.1875 33.109375 48.1875 
Q 26.21875 48.1875 22.15625 43.53125 
Q 18.109375 38.875 18.109375 30.90625 
L 18.109375 0 
L 9.078125 0 
L 9.078125 54.6875 
L 18.109375 54.6875 
L 18.109375 46.1875 
Q 21.1875 51.21875 25.484375 53.609375 
Q 29.78125 56 35.6875 56 
Q 41.65625 56 45.828125 52.96875 
Q 50 49.953125 52 44.1875 
z
" id="DejaVuSans-109"/>
      <path d="M 56.203125 29.59375 
L 56.203125 25.203125 
L 14.890625 25.203125 
Q 15.484375 15.921875 20.484375 11.0625 
Q 25.484375 6.203125 34.421875 6.203125 
Q 39.59375 6.203125 44.453125 7.46875 
Q 49.3125 8.734375 54.109375 11.28125 
L 54.109375 2.78125 
Q 49.265625 0.734375 44.1875 -0.34375 
Q 39.109375 -1.421875 33.890625 -1.421875 
Q 20.796875 -1.421875 13.15625 6.1875 
Q 5.515625 13.8125 5.515625 26.8125 
Q 5.515625 40.234375 12.765625 48.109375 
Q 20.015625 56 32.328125 56 
Q 43.359375 56 49.78125 48.890625 
Q 56.203125 41.796875 56.203125 29.59375 
z
M 47.21875 32.234375 
Q 47.125 39.59375 43.09375 43.984375 
Q 39.0625 48.390625 32.421875 48.390625 
Q 24.90625 48.390625 20.390625 44.140625 
Q 15.875 39.890625 15.1875 32.171875 
z
" id="DejaVuSans-101"/>
      <path d="M 31 75.875 
Q 24.46875 64.65625 21.28125 53.65625 
Q 18.109375 42.671875 18.109375 31.390625 
Q 18.109375 20.125 21.3125 9.0625 
Q 24.515625 -2 31 -13.1875 
L 23.1875 -13.1875 
Q 15.875 -1.703125 12.234375 9.375 
Q 8.59375 20.453125 8.59375 31.390625 
Q 8.59375 42.28125 12.203125 53.3125 
Q 15.828125 64.359375 23.1875 75.875 
z
" id="DejaVuSans-40"/>
      <path d="M 44.28125 53.078125 
L 44.28125 44.578125 
Q 40.484375 46.53125 36.375 47.5 
Q 32.28125 48.484375 27.875 48.484375 
Q 21.1875 48.484375 17.84375 46.4375 
Q 14.5 44.390625 14.5 40.28125 
Q 14.5 37.15625 16.890625 35.375 
Q 19.28125 33.59375 26.515625 31.984375 
L 29.59375 31.296875 
Q 39.15625 29.25 43.1875 25.515625 
Q 47.21875 21.78125 47.21875 15.09375 
Q 47.21875 7.46875 41.1875 3.015625 
Q 35.15625 -1.421875 24.609375 -1.421875 
Q 20.21875 -1.421875 15.453125 -0.5625 
Q 10.6875 0.296875 5.421875 2 
L 5.421875 11.28125 
Q 10.40625 8.6875 15.234375 7.390625 
Q 20.0625 6.109375 24.8125 6.109375 
Q 31.15625 6.109375 34.5625 8.28125 
Q 37.984375 10.453125 37.984375 14.40625 
Q 37.984375 18.0625 35.515625 20.015625 
Q 33.0625 21.96875 24.703125 23.78125 
L 21.578125 24.515625 
Q 13.234375 26.265625 9.515625 29.90625 
Q 5.8125 33.546875 5.8125 39.890625 
Q 5.8125 47.609375 11.28125 51.796875 
Q 16.75 56 26.8125 56 
Q 31.78125 56 36.171875 55.265625 
Q 40.578125 54.546875 44.28125 53.078125 
z
" id="DejaVuSans-115"/>
      <path d="M 48.78125 52.59375 
L 48.78125 44.1875 
Q 44.96875 46.296875 41.140625 47.34375 
Q 37.3125 48.390625 33.40625 48.390625 
Q 24.65625 48.390625 19.8125 42.84375 
Q 14.984375 37.3125 14.984375 27.296875 
Q 14.984375 17.28125 19.8125 11.734375 
Q 24.65625 6.203125 33.40625 6.203125 
Q 37.3125 6.203125 41.140625 7.25 
Q 44.96875 8.296875 48.78125 10.40625 
L 48.78125 2.09375 
Q 45.015625 0.34375 40.984375 -0.53125 
Q 36.96875 -1.421875 32.421875 -1.421875 
Q 20.0625 -1.421875 12.78125 6.34375 
Q 5.515625 14.109375 5.515625 27.296875 
Q 5.515625 40.671875 12.859375 48.328125 
Q 20.21875 56 33.015625 56 
Q 37.15625 56 41.109375 55.140625 
Q 45.0625 54.296875 48.78125 52.59375 
z
" id="DejaVuSans-99"/>
      <path d="M 30.609375 48.390625 
Q 23.390625 48.390625 19.1875 42.75 
Q 14.984375 37.109375 14.984375 27.296875 
Q 14.984375 17.484375 19.15625 11.84375 
Q 23.34375 6.203125 30.609375 6.203125 
Q 37.796875 6.203125 41.984375 11.859375 
Q 46.1875 17.53125 46.1875 27.296875 
Q 46.1875 37.015625 41.984375 42.703125 
Q 37.796875 48.390625 30.609375 48.390625 
z
M 30.609375 56 
Q 42.328125 56 49.015625 48.375 
Q 55.71875 40.765625 55.71875 27.296875 
Q 55.71875 13.875 49.015625 6.21875 
Q 42.328125 -1.421875 30.609375 -1.421875 
Q 18.84375 -1.421875 12.171875 6.21875 
Q 5.515625 13.875 5.515625 27.296875 
Q 5.515625 40.765625 12.171875 48.375 
Q 18.84375 56 30.609375 56 
z
" id="DejaVuSans-111"/>
      <path d="M 54.890625 33.015625 
L 54.890625 0 
L 45.90625 0 
L 45.90625 32.71875 
Q 45.90625 40.484375 42.875 44.328125 
Q 39.84375 48.1875 33.796875 48.1875 
Q 26.515625 48.1875 22.3125 43.546875 
Q 18.109375 38.921875 18.109375 30.90625 
L 18.109375 0 
L 9.078125 0 
L 9.078125 54.6875 
L 18.109375 54.6875 
L 18.109375 46.1875 
Q 21.34375 51.125 25.703125 53.5625 
Q 30.078125 56 35.796875 56 
Q 45.21875 56 50.046875 50.171875 
Q 54.890625 44.34375 54.890625 33.015625 
z
" id="DejaVuSans-110"/>
      <path d="M 45.40625 46.390625 
L 45.40625 75.984375 
L 54.390625 75.984375 
L 54.390625 0 
L 45.40625 0 
L 45.40625 8.203125 
Q 42.578125 3.328125 38.25 0.953125 
Q 33.9375 -1.421875 27.875 -1.421875 
Q 17.96875 -1.421875 11.734375 6.484375 
Q 5.515625 14.40625 5.515625 27.296875 
Q 5.515625 40.1875 11.734375 48.09375 
Q 17.96875 56 27.875 56 
Q 33.9375 56 38.25 53.625 
Q 42.578125 51.265625 45.40625 46.390625 
z
M 14.796875 27.296875 
Q 14.796875 17.390625 18.875 11.75 
Q 22.953125 6.109375 30.078125 6.109375 
Q 37.203125 6.109375 41.296875 11.75 
Q 45.40625 17.390625 45.40625 27.296875 
Q 45.40625 37.203125 41.296875 42.84375 
Q 37.203125 48.484375 30.078125 48.484375 
Q 22.953125 48.484375 18.875 42.84375 
Q 14.796875 37.203125 14.796875 27.296875 
z
" id="DejaVuSans-100"/>
      <path d="M 8.015625 75.875 
L 15.828125 75.875 
Q 23.140625 64.359375 26.78125 53.3125 
Q 30.421875 42.28125 30.421875 31.390625 
Q 30.421875 20.453125 26.78125 9.375 
Q 23.140625 -1.703125 15.828125 -13.1875 
L 8.015625 -13.1875 
Q 14.5 -2 17.703125 9.0625 
Q 20.90625 20.125 20.90625 31.390625 
Q 20.90625 42.671875 17.703125 53.65625 
Q 14.5 64.65625 8.015625 75.875 
z
" id="DejaVuSans-41"/>
     </defs>
     <g transform="translate(197.76 335.860562)scale(0.1 -0.1)">
      <use transform="translate(0 0.015625)" xlink:href="#DejaVuSans-84"/>
      <use transform="translate(61.083984 0.015625)" xlink:href="#DejaVuSans-105"/>
      <use transform="translate(88.867188 0.015625)" xlink:href="#DejaVuSans-109"/>
      <use transform="translate(186.279297 0.015625)" xlink:href="#DejaVuSans-101"/>
      <use transform="translate(280.273113 0.015625)" xlink:href="#DejaVuSans-40"/>
      <use transform="translate(319.286785 0.015625)" xlink:href="#DejaVuSans-115"/>
      <use transform="translate(371.386394 0.015625)" xlink:href="#DejaVuSans-101"/>
      <use transform="translate(432.909832 0.015625)" xlink:href="#DejaVuSans-99"/>
      <use transform="translate(487.8903 0.015625)" xlink:href="#DejaVuSans-111"/>
      <use transform="translate(549.071941 0.015625)" xlink:href="#DejaVuSans-110"/>
      <use transform="translate(612.450847 0.015625)" xlink:href="#DejaVuSans-100"/>
      <use transform="translate(675.92741 0.015625)" xlink:href="#DejaVuSans-115"/>
      <use transform="translate(728.027019 0.015625)" xlink:href="#DejaVuSans-41"/>
     </g>
    </g>
   </g>
   <g id="matplotlib.axis_2">
    <g id="ytick_1">
     <g id="line2d_13">
      <path clip-path="url(#pbcf770225d)" d="M 57.6 220.102395 
L 414.72 220.102395 
" style="fill:none;stroke:#b0b0b0;stroke-linecap:square;stroke-width:0.8;"/>
     </g>
     <g id="line2d_14">
      <defs>
       <path d="M 0 0 
L -3.5 0 
" id="m69708ea89f" style="stroke:#000000;stroke-width:0.8;"/>
      </defs>
      <g>
       <use style="stroke:#000000;stroke-width:0.8;" x="57.6" xlink:href="#m69708ea89f" y="220.102395"/>
      </g>
     </g>
     <g id="text_8">
      <!-- $\mathdefault{10^{-1}}$ -->
      <defs>
       <path d="M 10.59375 35.5 
L 73.1875 35.5 
L 73.1875 27.203125 
L 10.59375 27.203125 
z
" id="DejaVuSans-8722"/>
      </defs>
      <g transform="translate(27.1 223.901613)scale(0.1 -0.1)">
       <use transform="translate(0 0.684375)" xlink:href="#DejaVuSans-49"/>
       <use transform="translate(63.623047 0.684375)" xlink:href="#DejaVuSans-48"/>
       <use transform="translate(128.203125 38.965625)scale(0.7)" xlink:href="#DejaVuSans-8722"/>
       <use transform="translate(186.855469 38.965625)scale(0.7)" xlink:href="#DejaVuSans-49"/>
      </g>
     </g>
    </g>
    <g id="ytick_2">
     <g id="line2d_15">
      <defs>
       <path d="M 0 0 
L -2 0 
" id="m205696ee60" style="stroke:#000000;stroke-width:0.6;"/>
      </defs>
      <g>
       <use style="stroke:#000000;stroke-width:0.6;" x="57.6" xlink:href="#m205696ee60" y="297.098777"/>
      </g>
     </g>
    </g>
    <g id="ytick_3">
     <g id="line2d_16">
      <g>
       <use style="stroke:#000000;stroke-width:0.6;" x="57.6" xlink:href="#m205696ee60" y="278.34791"/>
      </g>
     </g>
    </g>
    <g id="ytick_4">
     <g id="line2d_17">
      <g>
       <use style="stroke:#000000;stroke-width:0.6;" x="57.6" xlink:href="#m205696ee60" y="263.027335"/>
      </g>
     </g>
    </g>
    <g id="ytick_5">
     <g id="line2d_18">
      <g>
       <use style="stroke:#000000;stroke-width:0.6;" x="57.6" xlink:href="#m205696ee60" y="250.073974"/>
      </g>
     </g>
    </g>
    <g id="ytick_6">
     <g id="line2d_19">
      <g>
       <use style="stroke:#000000;stroke-width:0.6;" x="57.6" xlink:href="#m205696ee60" y="238.853262"/>
      </g>
     </g>
    </g>
    <g id="ytick_7">
     <g id="line2d_20">
      <g>
       <use style="stroke:#000000;stroke-width:0.6;" x="57.6" xlink:href="#m205696ee60" y="228.955893"/>
      </g>
     </g>
    </g>
    <g id="ytick_8">
     <g id="line2d_21">
      <g>
       <use style="stroke:#000000;stroke-width:0.6;" x="57.6" xlink:href="#m205696ee60" y="161.856879"/>
      </g>
     </g>
    </g>
    <g id="ytick_9">
     <g id="line2d_22">
      <g>
       <use style="stroke:#000000;stroke-width:0.6;" x="57.6" xlink:href="#m205696ee60" y="127.785437"/>
      </g>
     </g>
    </g>
    <g id="ytick_10">
     <g id="line2d_23">
      <g>
       <use style="stroke:#000000;stroke-width:0.6;" x="57.6" xlink:href="#m205696ee60" y="103.611364"/>
      </g>
     </g>
    </g>
    <g id="ytick_11">
     <g id="line2d_24">
      <g>
       <use style="stroke:#000000;stroke-width:0.6;" x="57.6" xlink:href="#m205696ee60" y="84.860497"/>
      </g>
     </g>
    </g>
    <g id="ytick_12">
     <g id="line2d_25">
      <g>
       <use style="stroke:#000000;stroke-width:0.6;" x="57.6" xlink:href="#m205696ee60" y="69.539922"/>
      </g>
     </g>
    </g>
    <g id="ytick_13">
     <g id="line2d_26">
      <g>
       <use style="stroke:#000000;stroke-width:0.6;" x="57.6" xlink:href="#m205696ee60" y="56.586561"/>
      </g>
     </g>
    </g>
    <g id="ytick_14">
     <g id="line2d_27">
      <g>
       <use style="stroke:#000000;stroke-width:0.6;" x="57.6" xlink:href="#m205696ee60" y="45.365849"/>
      </g>
     </g>
    </g>
    <g id="text_9">
     <!-- $\mathrm{Relative \ error}$ ($N_{\mathrm{train}}=100$) -->
     <defs>
      <path d="M 44.390625 34.1875 
Q 47.5625 33.109375 50.5625 29.59375 
Q 53.5625 26.078125 56.59375 19.921875 
L 66.609375 0 
L 56 0 
L 46.6875 18.703125 
Q 43.0625 26.03125 39.671875 28.421875 
Q 36.28125 30.8125 30.421875 30.8125 
L 19.671875 30.8125 
L 19.671875 0 
L 9.8125 0 
L 9.8125 72.90625 
L 32.078125 72.90625 
Q 44.578125 72.90625 50.734375 67.671875 
Q 56.890625 62.453125 56.890625 51.90625 
Q 56.890625 45.015625 53.6875 40.46875 
Q 50.484375 35.9375 44.390625 34.1875 
z
M 19.671875 64.796875 
L 19.671875 38.921875 
L 32.078125 38.921875 
Q 39.203125 38.921875 42.84375 42.21875 
Q 46.484375 45.515625 46.484375 51.90625 
Q 46.484375 58.296875 42.84375 61.546875 
Q 39.203125 64.796875 32.078125 64.796875 
z
" id="DejaVuSans-82"/>
      <path d="M 9.421875 75.984375 
L 18.40625 75.984375 
L 18.40625 0 
L 9.421875 0 
z
" id="DejaVuSans-108"/>
      <path d="M 34.28125 27.484375 
Q 23.390625 27.484375 19.1875 25 
Q 14.984375 22.515625 14.984375 16.5 
Q 14.984375 11.71875 18.140625 8.90625 
Q 21.296875 6.109375 26.703125 6.109375 
Q 34.1875 6.109375 38.703125 11.40625 
Q 43.21875 16.703125 43.21875 25.484375 
L 43.21875 27.484375 
z
M 52.203125 31.203125 
L 52.203125 0 
L 43.21875 0 
L 43.21875 8.296875 
Q 40.140625 3.328125 35.546875 0.953125 
Q 30.953125 -1.421875 24.3125 -1.421875 
Q 15.921875 -1.421875 10.953125 3.296875 
Q 6 8.015625 6 15.921875 
Q 6 25.140625 12.171875 29.828125 
Q 18.359375 34.515625 30.609375 34.515625 
L 43.21875 34.515625 
L 43.21875 35.40625 
Q 43.21875 41.609375 39.140625 45 
Q 35.0625 48.390625 27.6875 48.390625 
Q 23 48.390625 18.546875 47.265625 
Q 14.109375 46.140625 10.015625 43.890625 
L 10.015625 52.203125 
Q 14.9375 54.109375 19.578125 55.046875 
Q 24.21875 56 28.609375 56 
Q 40.484375 56 46.34375 49.84375 
Q 52.203125 43.703125 52.203125 31.203125 
z
" id="DejaVuSans-97"/>
      <path d="M 18.3125 70.21875 
L 18.3125 54.6875 
L 36.8125 54.6875 
L 36.8125 47.703125 
L 18.3125 47.703125 
L 18.3125 18.015625 
Q 18.3125 11.328125 20.140625 9.421875 
Q 21.96875 7.515625 27.59375 7.515625 
L 36.8125 7.515625 
L 36.8125 0 
L 27.59375 0 
Q 17.1875 0 13.234375 3.875 
Q 9.28125 7.765625 9.28125 18.015625 
L 9.28125 47.703125 
L 2.6875 47.703125 
L 2.6875 54.6875 
L 9.28125 54.6875 
L 9.28125 70.21875 
z
" id="DejaVuSans-116"/>
      <path d="M 2.984375 54.6875 
L 12.5 54.6875 
L 29.59375 8.796875 
L 46.6875 54.6875 
L 56.203125 54.6875 
L 35.6875 0 
L 23.484375 0 
z
" id="DejaVuSans-118"/>
      <path d="M 41.109375 46.296875 
Q 39.59375 47.171875 37.8125 47.578125 
Q 36.03125 48 33.890625 48 
Q 26.265625 48 22.1875 43.046875 
Q 18.109375 38.09375 18.109375 28.8125 
L 18.109375 0 
L 9.078125 0 
L 9.078125 54.6875 
L 18.109375 54.6875 
L 18.109375 46.1875 
Q 20.953125 51.171875 25.484375 53.578125 
Q 30.03125 56 36.53125 56 
Q 37.453125 56 38.578125 55.875 
Q 39.703125 55.765625 41.0625 55.515625 
z
" id="DejaVuSans-114"/>
      <path id="DejaVuSans-32"/>
      <path d="M 16.890625 72.90625 
L 30.171875 72.90625 
L 50.296875 10.40625 
L 62.5 72.90625 
L 72.125 72.90625 
L 57.90625 0 
L 44.578125 0 
L 24.515625 62.890625 
L 12.3125 0 
L 2.6875 0 
z
" id="DejaVuSans-Oblique-78"/>
      <path d="M 10.59375 45.40625 
L 73.1875 45.40625 
L 73.1875 37.203125 
L 10.59375 37.203125 
z
M 10.59375 25.484375 
L 73.1875 25.484375 
L 73.1875 17.1875 
L 10.59375 17.1875 
z
" id="DejaVuSans-61"/>
     </defs>
     <g transform="translate(21.020312 242.078)rotate(-90)scale(0.1 -0.1)">
      <use transform="translate(0 0.015625)" xlink:href="#DejaVuSans-82"/>
      <use transform="translate(69.482422 0.015625)" xlink:href="#DejaVuSans-101"/>
      <use transform="translate(131.005859 0.015625)" xlink:href="#DejaVuSans-108"/>
      <use transform="translate(158.789062 0.015625)" xlink:href="#DejaVuSans-97"/>
      <use transform="translate(220.068359 0.015625)" xlink:href="#DejaVuSans-116"/>
      <use transform="translate(259.277344 0.015625)" xlink:href="#DejaVuSans-105"/>
      <use transform="translate(287.060547 0.015625)" xlink:href="#DejaVuSans-118"/>
      <use transform="translate(346.240234 0.015625)" xlink:href="#DejaVuSans-101"/>
      <use transform="translate(440.23405 0.015625)" xlink:href="#DejaVuSans-101"/>
      <use transform="translate(501.757488 0.015625)" xlink:href="#DejaVuSans-114"/>
      <use transform="translate(542.870769 0.015625)" xlink:href="#DejaVuSans-114"/>
      <use transform="translate(583.98405 0.015625)" xlink:href="#DejaVuSans-111"/>
      <use transform="translate(645.165691 0.015625)" xlink:href="#DejaVuSans-114"/>
      <use transform="translate(686.278972 0.015625)" xlink:href="#DejaVuSans-32"/>
      <use transform="translate(718.066082 0.015625)" xlink:href="#DejaVuSans-40"/>
      <use transform="translate(757.079753 0.015625)" xlink:href="#DejaVuSans-Oblique-78"/>
      <use transform="translate(831.884441 -16.390625)scale(0.7)" xlink:href="#DejaVuSans-116"/>
      <use transform="translate(859.33073 -16.390625)scale(0.7)" xlink:href="#DejaVuSans-114"/>
      <use transform="translate(888.110027 -16.390625)scale(0.7)" xlink:href="#DejaVuSans-97"/>
      <use transform="translate(931.005535 -16.390625)scale(0.7)" xlink:href="#DejaVuSans-105"/>
      <use transform="translate(950.453777 -16.390625)scale(0.7)" xlink:href="#DejaVuSans-110"/>
      <use transform="translate(1017.035808 0.015625)" xlink:href="#DejaVuSans-61"/>
      <use transform="translate(1120.307292 0.015625)" xlink:href="#DejaVuSans-49"/>
      <use transform="translate(1183.930339 0.015625)" xlink:href="#DejaVuSans-48"/>
      <use transform="translate(1247.553386 0.015625)" xlink:href="#DejaVuSans-48"/>
      <use transform="translate(1311.176433 0.015625)" xlink:href="#DejaVuSans-41"/>
     </g>
    </g>
   </g>
   <g id="line2d_28">
    <path clip-path="url(#pbcf770225d)" d="M 73.832724 290.399799 
L 77.145522 257.884528 
L 80.458321 233.789781 
L 83.771119 214.624226 
L 87.083917 198.836242 
L 90.396716 185.582666 
L 93.709554 174.330227 
L 97.022352 164.6993 
L 100.33515 156.399595 
L 103.647949 149.202031 
L 106.960747 142.923096 
L 110.273545 137.414616 
L 113.586344 132.556517 
L 116.899142 128.251112 
L 120.21194 124.418501 
L 123.524738 120.992976 
L 126.837537 117.920165 
L 130.150375 115.15503 
L 133.463173 112.66006 
L 136.775971 110.403765 
L 140.08877 108.359815 
L 143.401568 106.505954 
L 146.714366 104.823323 
L 150.027165 103.296044 
L 153.339963 101.910705 
L 156.652761 100.655967 
L 159.96556 99.522178 
L 163.278358 98.50123 
L 166.591156 97.586227 
L 169.903955 96.771226 
L 173.216753 96.051122 
L 176.529551 95.421484 
L 179.842389 94.878472 
L 183.155187 94.418824 
L 186.467986 94.039809 
L 189.780784 93.739178 
L 193.093582 93.515257 
L 196.406381 93.366879 
L 199.719179 93.293322 
L 203.031977 93.294291 
L 206.344776 93.369689 
L 209.657574 93.519549 
L 212.970412 93.743815 
L 216.28321 94.041983 
L 219.596008 94.412757 
L 222.908807 94.853287 
L 229.534403 95.919395 
L 246.098395 98.923102 
L 249.411193 99.388978 
L 252.723992 99.759917 
L 256.03679 100.028171 
L 259.349588 100.193179 
L 262.662387 100.259882 
L 265.975185 100.236356 
L 269.288023 100.132446 
L 272.600821 99.958397 
L 279.226418 99.439239 
L 285.852014 98.749948 
L 292.477651 97.947338 
L 302.416045 96.622919 
L 328.918432 92.988 
L 338.856827 91.731232 
L 348.795222 90.583122 
L 358.733656 89.56875 
L 365.359253 88.978363 
L 371.984889 88.464467 
L 378.610486 88.033462 
L 385.236083 87.691701 
L 391.861679 87.445684 
L 398.487276 87.302821 
" style="fill:none;stroke:#ff0000;stroke-linecap:square;stroke-width:1.5;"/>
   </g>
   <g id="line2d_29">
    <path clip-path="url(#pbcf770225d)" d="M 73.832724 245.138857 
L 77.145522 214.519853 
L 80.458321 192.245501 
L 83.771119 174.801802 
L 87.083917 160.615 
L 90.396716 148.823227 
L 93.709554 138.881212 
L 97.022352 130.407 
L 100.33515 123.116225 
L 103.647949 116.790259 
L 106.960747 111.25802 
L 110.273545 106.384512 
L 113.586344 102.062176 
L 116.899142 98.20484 
L 120.21194 94.7428 
L 123.524738 91.619387 
L 126.837537 88.788029 
L 130.150375 86.210276 
L 133.463173 83.854137 
L 136.775971 81.692802 
L 140.08877 79.70361 
L 143.401568 77.867392 
L 146.714366 76.167768 
L 150.027165 74.590637 
L 153.339963 73.123931 
L 156.652761 71.757066 
L 159.96556 70.480918 
L 163.278358 69.287539 
L 166.591156 68.169874 
L 169.903955 67.121798 
L 176.529551 65.213175 
L 183.155187 63.525223 
L 189.780784 62.029307 
L 196.406381 60.702906 
L 203.031977 59.528522 
L 209.657574 58.492995 
L 216.28321 57.587033 
L 222.908807 56.805021 
L 229.534403 56.144651 
L 236.16 55.606626 
L 242.785597 55.193087 
L 249.411193 54.905416 
L 256.03679 54.740447 
L 262.662387 54.68728 
L 269.288023 54.725896 
L 279.226418 54.896853 
L 305.728844 55.44132 
L 318.980037 55.581163 
L 335.544029 55.623375 
L 385.236083 55.613847 
L 398.487276 55.74493 
" style="fill:none;stroke:#0000ff;stroke-linecap:square;stroke-width:1.5;"/>
   </g>
   <g id="line2d_30">
    <path clip-path="url(#pbcf770225d)" d="M 73.832724 208.542568 
L 77.145522 183.325545 
L 80.458321 164.249384 
L 83.771119 149.349167 
L 87.083917 137.422948 
L 90.396716 127.587035 
L 93.709554 119.334472 
L 97.022352 112.337508 
L 100.33515 106.358587 
L 103.647949 101.21399 
L 106.960747 96.758103 
L 110.273545 92.874405 
L 113.586344 89.469109 
L 116.899142 86.46644 
L 120.21194 83.805117 
L 123.524738 81.435236 
L 126.837537 79.316041 
L 130.150375 77.4139 
L 133.463173 75.701079 
L 136.775971 74.154567 
L 140.08877 72.755203 
L 143.401568 71.487106 
L 146.714366 70.336925 
L 150.027165 69.29339 
L 153.339963 68.346855 
L 156.652761 67.489025 
L 159.96556 66.71287 
L 163.278358 66.012374 
L 166.591156 65.382457 
L 169.903955 64.818822 
L 173.216753 64.317844 
L 176.529551 63.876602 
L 183.155187 63.163668 
L 189.780784 62.663979 
L 196.406381 62.362907 
L 203.031977 62.243261 
L 209.657574 62.290013 
L 216.28321 62.498668 
L 222.908807 62.870527 
L 229.534403 63.403368 
L 236.16 64.080336 
L 246.098395 65.266155 
L 256.03679 66.42875 
L 262.662387 67.064133 
L 269.288023 67.537787 
L 275.913619 67.842826 
L 282.539216 67.993421 
L 289.164852 68.013372 
L 295.790449 67.928792 
L 305.728844 67.65678 
L 315.667239 67.263818 
L 328.918432 66.619414 
L 355.420858 65.162874 
L 375.297688 64.130549 
L 388.548881 63.544505 
L 398.487276 63.177597 
" style="fill:none;stroke:#00ffff;stroke-linecap:square;stroke-width:1.5;"/>
   </g>
   <g id="patch_3">
    <path d="M 57.6 307.584 
L 57.6 41.472 
" style="fill:none;stroke:#000000;stroke-linecap:square;stroke-linejoin:miter;stroke-width:0.8;"/>
   </g>
   <g id="patch_4">
    <path d="M 414.72 307.584 
L 414.72 41.472 
" style="fill:none;stroke:#000000;stroke-linecap:square;stroke-linejoin:miter;stroke-width:0.8;"/>
   </g>
   <g id="patch_5">
    <path d="M 57.6 307.584 
L 414.72 307.584 
" style="fill:none;stroke:#000000;stroke-linecap:square;stroke-linejoin:miter;stroke-width:0.8;"/>
   </g>
   <g id="patch_6">
    <path d="M 57.6 41.472 
L 414.72 41.472 
" style="fill:none;stroke:#000000;stroke-linecap:square;stroke-linejoin:miter;stroke-width:0.8;"/>
   </g>
   <g id="legend_1">
    <g id="patch_7">
     <path d="M 289.835625 302.584 
L 407.72 302.584 
Q 409.72 302.584 409.72 300.584 
L 409.72 257.549625 
Q 409.72 255.549625 407.72 255.549625 
L 289.835625 255.549625 
Q 287.835625 255.549625 287.835625 257.549625 
L 287.835625 300.584 
Q 287.835625 302.584 289.835625 302.584 
z
" style="fill:#ffffff;opacity:0.8;stroke:#cccccc;stroke-linejoin:miter;"/>
    </g>
    <g id="line2d_31">
     <path d="M 291.835625 263.648062 
L 311.835625 263.648062 
" style="fill:none;stroke:#ff0000;stroke-linecap:square;stroke-width:1.5;"/>
    </g>
    <g id="line2d_32"/>
    <g id="text_10">
     <!-- No grad. reg. -->
     <defs>
      <path d="M 9.8125 72.90625 
L 23.09375 72.90625 
L 55.421875 11.921875 
L 55.421875 72.90625 
L 64.984375 72.90625 
L 64.984375 0 
L 51.703125 0 
L 19.390625 60.984375 
L 19.390625 0 
L 9.8125 0 
z
" id="DejaVuSans-78"/>
      <path d="M 45.40625 27.984375 
Q 45.40625 37.75 41.375 43.109375 
Q 37.359375 48.484375 30.078125 48.484375 
Q 22.859375 48.484375 18.828125 43.109375 
Q 14.796875 37.75 14.796875 27.984375 
Q 14.796875 18.265625 18.828125 12.890625 
Q 22.859375 7.515625 30.078125 7.515625 
Q 37.359375 7.515625 41.375 12.890625 
Q 45.40625 18.265625 45.40625 27.984375 
z
M 54.390625 6.78125 
Q 54.390625 -7.171875 48.1875 -13.984375 
Q 42 -20.796875 29.203125 -20.796875 
Q 24.46875 -20.796875 20.265625 -20.09375 
Q 16.0625 -19.390625 12.109375 -17.921875 
L 12.109375 -9.1875 
Q 16.0625 -11.328125 19.921875 -12.34375 
Q 23.78125 -13.375 27.78125 -13.375 
Q 36.625 -13.375 41.015625 -8.765625 
Q 45.40625 -4.15625 45.40625 5.171875 
L 45.40625 9.625 
Q 42.625 4.78125 38.28125 2.390625 
Q 33.9375 0 27.875 0 
Q 17.828125 0 11.671875 7.65625 
Q 5.515625 15.328125 5.515625 27.984375 
Q 5.515625 40.671875 11.671875 48.328125 
Q 17.828125 56 27.875 56 
Q 33.9375 56 38.28125 53.609375 
Q 42.625 51.21875 45.40625 46.390625 
L 45.40625 54.6875 
L 54.390625 54.6875 
z
" id="DejaVuSans-103"/>
     </defs>
     <g transform="translate(319.835625 267.148062)scale(0.1 -0.1)">
      <use xlink:href="#DejaVuSans-78"/>
      <use x="74.804688" xlink:href="#DejaVuSans-111"/>
      <use x="135.986328" xlink:href="#DejaVuSans-32"/>
      <use x="167.773438" xlink:href="#DejaVuSans-103"/>
      <use x="231.25" xlink:href="#DejaVuSans-114"/>
      <use x="272.363281" xlink:href="#DejaVuSans-97"/>
      <use x="333.642578" xlink:href="#DejaVuSans-100"/>
      <use x="397.119141" xlink:href="#DejaVuSans-46"/>
      <use x="428.90625" xlink:href="#DejaVuSans-32"/>
      <use x="460.693359" xlink:href="#DejaVuSans-114"/>
      <use x="501.775391" xlink:href="#DejaVuSans-101"/>
      <use x="563.298828" xlink:href="#DejaVuSans-103"/>
      <use x="626.775391" xlink:href="#DejaVuSans-46"/>
     </g>
    </g>
    <g id="line2d_33">
     <path d="M 291.835625 278.326188 
L 311.835625 278.326188 
" style="fill:none;stroke:#0000ff;stroke-linecap:square;stroke-width:1.5;"/>
    </g>
    <g id="line2d_34"/>
    <g id="text_11">
     <!-- Grad. reg -->
     <defs>
      <path d="M 59.515625 10.40625 
L 59.515625 29.984375 
L 43.40625 29.984375 
L 43.40625 38.09375 
L 69.28125 38.09375 
L 69.28125 6.78125 
Q 63.578125 2.734375 56.6875 0.65625 
Q 49.8125 -1.421875 42 -1.421875 
Q 24.90625 -1.421875 15.25 8.5625 
Q 5.609375 18.5625 5.609375 36.375 
Q 5.609375 54.25 15.25 64.234375 
Q 24.90625 74.21875 42 74.21875 
Q 49.125 74.21875 55.546875 72.453125 
Q 61.96875 70.703125 67.390625 67.28125 
L 67.390625 56.78125 
Q 61.921875 61.421875 55.765625 63.765625 
Q 49.609375 66.109375 42.828125 66.109375 
Q 29.4375 66.109375 22.71875 58.640625 
Q 16.015625 51.171875 16.015625 36.375 
Q 16.015625 21.625 22.71875 14.15625 
Q 29.4375 6.6875 42.828125 6.6875 
Q 48.046875 6.6875 52.140625 7.59375 
Q 56.25 8.5 59.515625 10.40625 
z
" id="DejaVuSans-71"/>
     </defs>
     <g transform="translate(319.835625 281.826188)scale(0.1 -0.1)">
      <use xlink:href="#DejaVuSans-71"/>
      <use x="77.490234" xlink:href="#DejaVuSans-114"/>
      <use x="118.603516" xlink:href="#DejaVuSans-97"/>
      <use x="179.882812" xlink:href="#DejaVuSans-100"/>
      <use x="243.359375" xlink:href="#DejaVuSans-46"/>
      <use x="275.146484" xlink:href="#DejaVuSans-32"/>
      <use x="306.933594" xlink:href="#DejaVuSans-114"/>
      <use x="348.015625" xlink:href="#DejaVuSans-101"/>
      <use x="409.539062" xlink:href="#DejaVuSans-103"/>
     </g>
    </g>
    <g id="line2d_35">
     <path d="M 291.835625 293.004312 
L 311.835625 293.004312 
" style="fill:none;stroke:#00ffff;stroke-linecap:square;stroke-width:1.5;"/>
    </g>
    <g id="line2d_36"/>
    <g id="text_12">
     <!-- Second grad. reg -->
     <defs>
      <path d="M 53.515625 70.515625 
L 53.515625 60.890625 
Q 47.90625 63.578125 42.921875 64.890625 
Q 37.9375 66.21875 33.296875 66.21875 
Q 25.25 66.21875 20.875 63.09375 
Q 16.5 59.96875 16.5 54.203125 
Q 16.5 49.359375 19.40625 46.890625 
Q 22.3125 44.4375 30.421875 42.921875 
L 36.375 41.703125 
Q 47.40625 39.59375 52.65625 34.296875 
Q 57.90625 29 57.90625 20.125 
Q 57.90625 9.515625 50.796875 4.046875 
Q 43.703125 -1.421875 29.984375 -1.421875 
Q 24.8125 -1.421875 18.96875 -0.25 
Q 13.140625 0.921875 6.890625 3.21875 
L 6.890625 13.375 
Q 12.890625 10.015625 18.65625 8.296875 
Q 24.421875 6.59375 29.984375 6.59375 
Q 38.421875 6.59375 43.015625 9.90625 
Q 47.609375 13.234375 47.609375 19.390625 
Q 47.609375 24.75 44.3125 27.78125 
Q 41.015625 30.8125 33.5 32.328125 
L 27.484375 33.5 
Q 16.453125 35.6875 11.515625 40.375 
Q 6.59375 45.0625 6.59375 53.421875 
Q 6.59375 63.09375 13.40625 68.65625 
Q 20.21875 74.21875 32.171875 74.21875 
Q 37.3125 74.21875 42.625 73.28125 
Q 47.953125 72.359375 53.515625 70.515625 
z
" id="DejaVuSans-83"/>
     </defs>
     <g transform="translate(319.835625 296.504312)scale(0.1 -0.1)">
      <use xlink:href="#DejaVuSans-83"/>
      <use x="63.476562" xlink:href="#DejaVuSans-101"/>
      <use x="125" xlink:href="#DejaVuSans-99"/>
      <use x="179.980469" xlink:href="#DejaVuSans-111"/>
      <use x="241.162109" xlink:href="#DejaVuSans-110"/>
      <use x="304.541016" xlink:href="#DejaVuSans-100"/>
      <use x="368.017578" xlink:href="#DejaVuSans-32"/>
      <use x="399.804688" xlink:href="#DejaVuSans-103"/>
      <use x="463.28125" xlink:href="#DejaVuSans-114"/>
      <use x="504.394531" xlink:href="#DejaVuSans-97"/>
      <use x="565.673828" xlink:href="#DejaVuSans-100"/>
      <use x="629.150391" xlink:href="#DejaVuSans-46"/>
      <use x="660.9375" xlink:href="#DejaVuSans-32"/>
      <use x="692.724609" xlink:href="#DejaVuSans-114"/>
      <use x="733.806641" xlink:href="#DejaVuSans-101"/>
      <use x="795.330078" xlink:href="#DejaVuSans-103"/>
     </g>
    </g>
   </g>
  </g>
 </g>
 <defs>
  <clipPath id="pbcf770225d">
   <rect height="266.112" width="357.12" x="57.6" y="41.472"/>
  </clipPath>
 </defs>
</svg>
