<?xml version="1.0" encoding="utf-8" standalone="no"?>
<!DOCTYPE svg PUBLIC "-//W3C//DTD SVG 1.1//EN"
  "http://www.w3.org/Graphics/SVG/1.1/DTD/svg11.dtd">
<!-- Created with matplotlib (https://matplotlib.org/) -->
<svg height="345.6pt" version="1.1" viewBox="0 0 460.8 345.6" width="460.8pt" xmlns="http://www.w3.org/2000/svg" xmlns:xlink="http://www.w3.org/1999/xlink">
 <defs>
  <style type="text/css">
*{stroke-linecap:butt;stroke-linejoin:round;white-space:pre;}
  </style>
 </defs>
 <g id="figure_1">
  <g id="patch_1">
   <path d="M 0 345.6 
L 460.8 345.6 
L 460.8 0 
L 0 0 
z
" style="fill:#ffffff;"/>
  </g>
  <g id="axes_1">
   <g id="patch_2">
    <path d="M 57.6 307.584 
L 414.72 307.584 
L 414.72 41.472 
L 57.6 41.472 
z
" style="fill:#ffffff;"/>
   </g>
   <g id="PolyCollection_1">
    <path clip-path="url(#p8e4b247e52)" d="M 73.832727 285.630829 
L 73.832727 295.488 
L 77.145529 263.349717 
L 80.45833 239.473083 
L 83.771132 220.423093 
L 87.083933 204.677074 
L 90.396735 191.413439 
L 93.709536 180.117298 
L 97.022338 170.424571 
L 100.335139 162.056668 
L 103.647941 154.791975 
L 106.960742 148.450943 
L 110.273544 142.88701 
L 113.586345 137.98053 
L 116.899147 133.63363 
L 120.211948 129.765824 
L 123.52475 126.310601 
L 126.837551 123.212802 
L 130.150353 120.426686 
L 133.463154 117.914164 
L 136.775955 115.643356 
L 140.088757 113.587481 
L 143.401558 111.724019 
L 146.71436 110.033967 
L 150.027161 108.501318 
L 153.339963 107.112665 
L 156.652764 105.856719 
L 159.965566 104.723923 
L 163.278367 103.706157 
L 166.591169 102.796504 
L 169.90397 101.989073 
L 173.216772 101.278898 
L 176.529573 100.661723 
L 179.842375 100.133863 
L 183.155176 99.69219 
L 186.467978 99.334129 
L 189.780779 99.057653 
L 193.093581 98.861209 
L 196.406382 98.743666 
L 199.719184 98.704195 
L 203.031985 98.742133 
L 206.344787 98.85678 
L 209.657588 99.047085 
L 212.97039 99.311256 
L 216.283191 99.646234 
L 219.595993 100.046956 
L 222.908794 100.505493 
L 226.221596 101.010162 
L 229.534397 101.544825 
L 232.847199 102.088865 
L 236.16 102.618345 
L 239.472801 103.108403 
L 242.785603 103.536326 
L 246.098404 103.884296 
L 249.411206 104.140934 
L 252.724007 104.301356 
L 256.036809 104.366175 
L 259.34961 104.340047 
L 262.662412 104.230234 
L 265.975213 104.045409 
L 269.288015 103.794762 
L 272.600816 103.487389 
L 275.913618 103.131914 
L 279.226419 102.736282 
L 282.539221 102.307661 
L 285.852022 101.852428 
L 289.164824 101.376196 
L 292.477625 100.883876 
L 295.790427 100.379745 
L 299.103228 99.867522 
L 302.41603 99.350434 
L 305.728831 98.831286 
L 309.041633 98.31252 
L 312.354434 97.796268 
L 315.667236 97.284401 
L 318.980037 96.77857 
L 322.292839 96.28025 
L 325.60564 95.790767 
L 328.918442 95.311331 
L 332.231243 94.843062 
L 335.544045 94.387008 
L 338.856846 93.944164 
L 342.169647 93.515482 
L 345.482449 93.101883 
L 348.79525 92.704264 
L 352.108052 92.323505 
L 355.420853 91.960466 
L 358.733655 91.615988 
L 362.046456 91.290886 
L 365.359258 90.985939 
L 368.672059 90.701894 
L 371.984861 90.439459 
L 375.297662 90.199298 
L 378.610464 89.982032 
L 381.923265 89.788243 
L 385.236067 89.618504 
L 388.548868 89.473405 
L 391.86167 89.3536 
L 395.174471 89.259837 
L 398.487273 89.193004 
L 398.487273 82.095144 
L 398.487273 82.095144 
L 395.174471 82.27065 
L 391.86167 82.466485 
L 388.548868 82.682443 
L 385.236067 82.91829 
L 381.923265 83.173753 
L 378.610464 83.448502 
L 375.297662 83.742133 
L 371.984861 84.05418 
L 368.672059 84.384124 
L 365.359258 84.731408 
L 362.046456 85.09545 
L 358.733655 85.475656 
L 355.420853 85.871415 
L 352.108052 86.282107 
L 348.79525 86.707093 
L 345.482449 87.145724 
L 342.169647 87.597334 
L 338.856846 88.061242 
L 335.544045 88.536738 
L 332.231243 89.023072 
L 328.918442 89.519438 
L 325.60564 90.024961 
L 322.292839 90.538673 
L 318.980037 91.059495 
L 315.667236 91.586208 
L 312.354434 92.117419 
L 309.041633 92.651531 
L 305.728831 93.186694 
L 302.41603 93.720756 
L 299.103228 94.251209 
L 295.790427 94.775122 
L 292.477625 95.289065 
L 289.164824 95.789023 
L 285.852022 96.270299 
L 282.539221 96.727416 
L 279.226419 97.154022 
L 275.913618 97.542801 
L 272.600816 97.885434 
L 269.288015 98.172615 
L 265.975213 98.394208 
L 262.662412 98.539575 
L 259.34961 98.598197 
L 256.036809 98.560686 
L 252.724007 98.42022 
L 249.411206 98.174383 
L 246.098404 97.827068 
L 242.785603 97.389828 
L 239.472801 96.881853 
L 236.16 96.32809 
L 232.847199 95.755854 
L 229.534397 95.191173 
L 226.221596 94.656058 
L 222.908794 94.16731 
L 219.595993 93.73668 
L 216.283191 93.37177 
L 212.97039 93.077127 
L 209.657588 92.855223 
L 206.344787 92.707236 
L 203.031985 92.633634 
L 199.719184 92.634541 
L 196.406382 92.710025 
L 193.093581 92.86028 
L 189.780779 93.085756 
L 186.467978 93.387263 
L 183.155176 93.76604 
L 179.842375 94.22381 
L 176.529573 94.762823 
L 173.216772 95.385856 
L 169.90397 96.0962 
L 166.591169 96.897757 
L 163.278367 97.795234 
L 159.965566 98.794237 
L 156.652764 99.901371 
L 153.339963 101.124445 
L 150.027161 102.472703 
L 146.71436 103.957117 
L 143.401558 105.590725 
L 140.088757 107.389011 
L 136.775955 109.370306 
L 133.463154 111.556284 
L 130.150353 113.972647 
L 126.837551 116.650042 
L 123.52475 119.625215 
L 120.211948 122.942416 
L 116.899147 126.655001 
L 113.586345 130.827603 
L 110.273544 135.539013 
L 106.960742 140.885887 
L 103.647941 146.987324 
L 100.335139 153.990558 
L 97.022338 162.078513 
L 93.709536 171.480316 
L 90.396735 182.486692 
L 87.083933 195.478228 
L 83.771132 210.987451 
L 80.45833 229.848357 
L 77.145529 253.586617 
L 73.832727 285.630829 
z
" style="fill:#ff0000;fill-opacity:0.4;"/>
   </g>
   <g id="PolyCollection_2">
    <path clip-path="url(#p8e4b247e52)" d="M 73.832727 238.439267 
L 73.832727 245.533039 
L 77.145529 215.399303 
L 80.45833 193.442108 
L 83.771132 176.205726 
L 87.083933 162.146573 
L 90.396735 150.4245 
L 93.709536 140.511906 
L 97.022338 132.040826 
L 100.335139 124.737018 
L 103.647941 118.38866 
L 106.960742 112.829177 
L 110.273544 107.926266 
L 113.586345 103.574085 
L 116.899147 99.687392 
L 120.211948 96.197069 
L 123.52475 93.046687 
L 126.837551 90.189845 
L 130.150353 87.588125 
L 133.463154 85.209501 
L 136.775955 83.027097 
L 140.088757 81.018221 
L 143.401558 79.163597 
L 146.71436 77.446762 
L 150.027161 75.853578 
L 153.339963 74.371845 
L 156.652764 72.990988 
L 159.965566 71.701803 
L 163.278367 70.496243 
L 166.591169 69.367253 
L 169.90397 68.308627 
L 173.216772 67.314886 
L 176.529573 66.38119 
L 179.842375 65.50325 
L 183.155176 64.677261 
L 186.467978 63.899853 
L 189.780779 63.168035 
L 193.093581 62.479165 
L 196.406382 61.830913 
L 199.719184 61.22124 
L 203.031985 60.648373 
L 206.344787 60.110793 
L 209.657588 59.607221 
L 212.97039 59.136606 
L 216.283191 58.698119 
L 219.595993 58.291142 
L 222.908794 57.915255 
L 226.221596 57.570221 
L 229.534397 57.255961 
L 232.847199 56.972517 
L 236.16 56.719999 
L 239.472801 56.498519 
L 242.785603 56.308103 
L 246.098404 56.148589 
L 249.411206 56.019524 
L 252.724007 55.920059 
L 256.036809 55.848883 
L 259.34961 55.804173 
L 262.662412 55.783615 
L 265.975213 55.784461 
L 269.288015 55.803636 
L 272.600816 55.837877 
L 275.913618 55.883881 
L 279.226419 55.938443 
L 282.539221 55.998571 
L 285.852022 56.061581 
L 289.164824 56.125144 
L 292.477625 56.187315 
L 295.790427 56.246528 
L 299.103228 56.301583 
L 302.41603 56.35161 
L 305.728831 56.396034 
L 309.041633 56.434535 
L 312.354434 56.467011 
L 315.667236 56.493537 
L 318.980037 56.51434 
L 322.292839 56.529762 
L 325.60564 56.540241 
L 328.918442 56.546288 
L 332.231243 56.548469 
L 335.544045 56.547389 
L 338.856846 56.543681 
L 342.169647 56.537993 
L 345.482449 56.530981 
L 348.79525 56.523301 
L 352.108052 56.515596 
L 355.420853 56.508498 
L 358.733655 56.502618 
L 362.046456 56.498541 
L 365.359258 56.496823 
L 368.672059 56.497984 
L 371.984861 56.502508 
L 375.297662 56.510835 
L 378.610464 56.523359 
L 381.923265 56.540421 
L 385.236067 56.562304 
L 388.548868 56.589225 
L 391.86167 56.621326 
L 395.174471 56.658662 
L 398.487273 56.701186 
L 398.487273 54.730191 
L 398.487273 54.730191 
L 395.174471 54.692314 
L 391.86167 54.659777 
L 388.548868 54.632562 
L 385.236067 54.610558 
L 381.923265 54.593576 
L 378.610464 54.581354 
L 375.297662 54.573568 
L 371.984861 54.569835 
L 368.672059 54.56972 
L 365.359258 54.57274 
L 362.046456 54.578365 
L 358.733655 54.586026 
L 355.420853 54.595112 
L 352.108052 54.604982 
L 348.79525 54.614963 
L 345.482449 54.624357 
L 342.169647 54.632448 
L 338.856846 54.638504 
L 335.544045 54.641789 
L 332.231243 54.641566 
L 328.918442 54.637109 
L 325.60564 54.627714 
L 322.292839 54.61271 
L 318.980037 54.591478 
L 315.667236 54.563469 
L 312.354434 54.52823 
L 309.041633 54.485432 
L 305.728831 54.434908 
L 302.41603 54.376697 
L 299.103228 54.311088 
L 295.790427 54.238678 
L 292.477625 54.160428 
L 289.164824 54.077713 
L 285.852022 53.992372 
L 282.539221 53.906727 
L 279.226419 53.823587 
L 275.913618 53.746195 
L 272.600816 53.678146 
L 269.288015 53.623241 
L 265.975213 53.585308 
L 262.662412 53.568 
L 259.34961 53.574596 
L 256.036809 53.607838 
L 252.724007 53.669824 
L 249.411206 53.76198 
L 246.098404 53.885098 
L 242.785603 54.03944 
L 239.472801 54.224872 
L 236.16 54.441006 
L 232.847199 54.687337 
L 229.534397 54.96336 
L 226.221596 55.26865 
L 222.908794 55.602929 
L 219.595993 55.9661 
L 216.283191 56.358274 
L 212.97039 56.779777 
L 209.657588 57.23116 
L 206.344787 57.713196 
L 203.031985 58.226887 
L 199.719184 58.773464 
L 196.406382 59.354393 
L 193.093581 59.971383 
L 189.780779 60.626402 
L 186.467978 61.321694 
L 183.155176 62.059798 
L 179.842375 62.843583 
L 176.529573 63.67628 
L 173.216772 64.561529 
L 169.90397 65.503429 
L 166.591169 66.506607 
L 163.278367 67.57629 
L 159.965566 68.718406 
L 156.652764 69.939687 
L 153.339963 71.247817 
L 150.027161 72.651587 
L 146.71436 74.161104 
L 143.401558 75.788038 
L 140.088757 77.545926 
L 136.775955 79.450552 
L 133.463154 81.520427 
L 130.150353 83.777377 
L 126.837551 86.247313 
L 123.52475 88.961187 
L 120.211948 91.956249 
L 116.899147 95.277654 
L 113.586345 98.980572 
L 110.273544 103.132949 
L 106.960742 107.819155 
L 103.647941 113.14481 
L 100.335139 119.243212 
L 97.022338 126.284002 
L 93.709536 134.485214 
L 90.396735 144.131399 
L 87.083933 155.604901 
L 83.771132 169.449606 
L 80.45833 186.519432 
L 77.145529 208.364679 
L 73.832727 238.439267 
z
" style="fill:#0000ff;fill-opacity:0.4;"/>
   </g>
   <g id="PolyCollection_3">
    <path clip-path="url(#p8e4b247e52)" d="M 73.832727 187.177928 
L 73.832727 202.172033 
L 77.145529 176.221523 
L 80.45833 157.69088 
L 83.771132 144.132597 
L 87.083933 133.35922 
L 90.396735 124.415254 
L 93.709536 116.84904 
L 97.022338 110.387436 
L 100.335139 104.833119 
L 103.647941 100.031313 
L 106.960742 95.857288 
L 110.273544 92.209793 
L 113.586345 89.00642 
L 116.899147 86.179978 
L 120.211948 83.67558 
L 123.52475 81.448429 
L 126.837551 79.461885 
L 130.150353 77.68572 
L 133.463154 76.094873 
L 136.775955 74.668431 
L 140.088757 73.388946 
L 143.401558 72.241748 
L 146.71436 71.214489 
L 150.027161 70.296791 
L 153.339963 69.479908 
L 156.652764 68.756479 
L 159.965566 68.120322 
L 163.278367 67.566239 
L 166.591169 67.089838 
L 169.90397 66.687355 
L 173.216772 66.355463 
L 176.529573 66.091208 
L 179.842375 65.892103 
L 183.155176 65.756267 
L 186.467978 65.682436 
L 189.780779 65.669902 
L 193.093581 65.718371 
L 196.406382 65.827853 
L 199.719184 65.998631 
L 203.031985 66.231297 
L 206.344787 66.526715 
L 209.657588 66.88587 
L 212.97039 67.309654 
L 216.283191 67.798647 
L 219.595993 68.352984 
L 222.908794 68.972132 
L 226.221596 69.654427 
L 229.534397 70.396373 
L 232.847199 71.192033 
L 236.16 72.032439 
L 239.472801 72.905339 
L 242.785603 73.795119 
L 246.098404 74.683253 
L 249.411206 75.549576 
L 252.724007 76.374429 
L 256.036809 77.140955 
L 259.34961 77.836672 
L 262.662412 78.454073 
L 265.975213 78.990345 
L 269.288015 79.446553 
L 272.600816 79.826519 
L 275.913618 80.135786 
L 279.226419 80.380764 
L 282.539221 80.568142 
L 285.852022 80.704526 
L 289.164824 80.796238 
L 292.477625 80.849237 
L 295.790427 80.869056 
L 299.103228 80.860711 
L 302.41603 80.828688 
L 305.728831 80.77697 
L 309.041633 80.709157 
L 312.354434 80.62855 
L 315.667236 80.538219 
L 318.980037 80.440997 
L 322.292839 80.339436 
L 325.60564 80.235819 
L 328.918442 80.132169 
L 332.231243 80.030257 
L 335.544045 79.931553 
L 338.856846 79.837069 
L 342.169647 79.747257 
L 345.482449 79.662027 
L 348.79525 79.580897 
L 352.108052 79.503247 
L 355.420853 79.428453 
L 358.733655 79.355909 
L 362.046456 79.28503 
L 365.359258 79.215206 
L 368.672059 79.145852 
L 371.984861 79.076597 
L 375.297662 79.007439 
L 378.610464 78.93883 
L 381.923265 78.871522 
L 385.236067 78.806332 
L 388.548868 78.74401 
L 391.86167 78.685221 
L 395.174471 78.630539 
L 398.487273 78.580453 
L 398.487273 56.059187 
L 398.487273 56.059187 
L 395.174471 56.175462 
L 391.86167 56.301008 
L 388.548868 56.435443 
L 385.236067 56.5784 
L 381.923265 56.72953 
L 378.610464 56.88849 
L 375.297662 57.054944 
L 371.984861 57.228575 
L 368.672059 57.40907 
L 365.359258 57.596117 
L 362.046456 57.789393 
L 358.733655 57.988552 
L 355.420853 58.193231 
L 352.108052 58.403044 
L 348.79525 58.617584 
L 345.482449 58.836413 
L 342.169647 59.059051 
L 338.856846 59.284966 
L 335.544045 59.513561 
L 332.231243 59.744173 
L 328.918442 59.976075 
L 325.60564 60.208464 
L 322.292839 60.440449 
L 318.980037 60.671033 
L 315.667236 60.899091 
L 312.354434 61.123354 
L 309.041633 61.342385 
L 305.728831 61.554561 
L 302.41603 61.75803 
L 299.103228 61.950691 
L 295.790427 62.130159 
L 292.477625 62.293732 
L 289.164824 62.438378 
L 285.852022 62.560731 
L 282.539221 62.657096 
L 279.226419 62.723491 
L 275.913618 62.755756 
L 272.600816 62.749723 
L 269.288015 62.701501 
L 265.975213 62.60788 
L 262.662412 62.466841 
L 259.34961 62.27816 
L 256.036809 62.043962 
L 252.724007 61.769111 
L 249.411206 61.461212 
L 246.098404 61.130132 
L 242.785603 60.787052 
L 239.472801 60.443362 
L 236.16 60.109608 
L 232.847199 59.794839 
L 229.534397 59.506318 
L 226.221596 59.249487 
L 222.908794 59.028204 
L 219.595993 58.845001 
L 216.283191 58.701422 
L 212.97039 58.598304 
L 209.657588 58.535973 
L 206.344787 58.514423 
L 203.031985 58.533474 
L 199.719184 58.592882 
L 196.406382 58.692438 
L 193.093581 58.832036 
L 189.780779 59.011728 
L 186.467978 59.231817 
L 183.155176 59.492978 
L 179.842375 59.796308 
L 176.529573 60.143363 
L 173.216772 60.536137 
L 169.90397 60.977062 
L 166.591169 61.46902 
L 163.278367 62.015394 
L 159.965566 62.620184 
L 156.652764 63.288101 
L 153.339963 64.024713 
L 150.027161 64.836529 
L 146.71436 65.731139 
L 143.401558 66.717382 
L 140.088757 67.805521 
L 136.775955 69.007557 
L 133.463154 70.337488 
L 130.150353 71.81186 
L 126.837551 73.450303 
L 123.52475 75.276251 
L 120.211948 77.317905 
L 116.899147 79.609554 
L 113.586345 82.193093 
L 110.273544 85.120058 
L 106.960742 88.453936 
L 103.647941 92.273183 
L 100.335139 96.675008 
L 97.022338 101.780029 
L 93.709536 107.738223 
L 90.396735 114.740571 
L 87.083933 123.047162 
L 83.771132 133.068313 
L 80.45833 145.616861 
L 77.145529 162.598434 
L 73.832727 187.177928 
z
" style="fill:#00ffff;fill-opacity:0.4;"/>
   </g>
   <g id="matplotlib.axis_1">
    <g id="xtick_1">
     <g id="line2d_1">
      <path clip-path="url(#p8e4b247e52)" d="M 70.519926 307.584 
L 70.519926 41.472 
" style="fill:none;stroke:#b0b0b0;stroke-linecap:square;stroke-width:0.8;"/>
     </g>
     <g id="line2d_2">
      <defs>
       <path d="M 0 0 
L 0 3.5 
" id="m9eeb4651c2" style="stroke:#000000;stroke-width:0.8;"/>
      </defs>
      <g>
       <use style="stroke:#000000;stroke-width:0.8;" x="70.519926" xlink:href="#m9eeb4651c2" y="307.584"/>
      </g>
     </g>
     <g id="text_1">
      <!-- 0.0 -->
      <defs>
       <path d="M 31.78125 66.40625 
Q 24.171875 66.40625 20.328125 58.90625 
Q 16.5 51.421875 16.5 36.375 
Q 16.5 21.390625 20.328125 13.890625 
Q 24.171875 6.390625 31.78125 6.390625 
Q 39.453125 6.390625 43.28125 13.890625 
Q 47.125 21.390625 47.125 36.375 
Q 47.125 51.421875 43.28125 58.90625 
Q 39.453125 66.40625 31.78125 66.40625 
z
M 31.78125 74.21875 
Q 44.046875 74.21875 50.515625 64.515625 
Q 56.984375 54.828125 56.984375 36.375 
Q 56.984375 17.96875 50.515625 8.265625 
Q 44.046875 -1.421875 31.78125 -1.421875 
Q 19.53125 -1.421875 13.0625 8.265625 
Q 6.59375 17.96875 6.59375 36.375 
Q 6.59375 54.828125 13.0625 64.515625 
Q 19.53125 74.21875 31.78125 74.21875 
z
" id="DejaVuSans-48"/>
       <path d="M 10.6875 12.40625 
L 21 12.40625 
L 21 0 
L 10.6875 0 
z
" id="DejaVuSans-46"/>
      </defs>
      <g transform="translate(62.568363 322.182437)scale(0.1 -0.1)">
       <use xlink:href="#DejaVuSans-48"/>
       <use x="63.623047" xlink:href="#DejaVuSans-46"/>
       <use x="95.410156" xlink:href="#DejaVuSans-48"/>
      </g>
     </g>
    </g>
    <g id="xtick_2">
     <g id="line2d_3">
      <path clip-path="url(#p8e4b247e52)" d="M 136.775955 307.584 
L 136.775955 41.472 
" style="fill:none;stroke:#b0b0b0;stroke-linecap:square;stroke-width:0.8;"/>
     </g>
     <g id="line2d_4">
      <g>
       <use style="stroke:#000000;stroke-width:0.8;" x="136.775955" xlink:href="#m9eeb4651c2" y="307.584"/>
      </g>
     </g>
     <g id="text_2">
      <!-- 0.2 -->
      <defs>
       <path d="M 19.1875 8.296875 
L 53.609375 8.296875 
L 53.609375 0 
L 7.328125 0 
L 7.328125 8.296875 
Q 12.9375 14.109375 22.625 23.890625 
Q 32.328125 33.6875 34.8125 36.53125 
Q 39.546875 41.84375 41.421875 45.53125 
Q 43.3125 49.21875 43.3125 52.78125 
Q 43.3125 58.59375 39.234375 62.25 
Q 35.15625 65.921875 28.609375 65.921875 
Q 23.96875 65.921875 18.8125 64.3125 
Q 13.671875 62.703125 7.8125 59.421875 
L 7.8125 69.390625 
Q 13.765625 71.78125 18.9375 73 
Q 24.125 74.21875 28.421875 74.21875 
Q 39.75 74.21875 46.484375 68.546875 
Q 53.21875 62.890625 53.21875 53.421875 
Q 53.21875 48.921875 51.53125 44.890625 
Q 49.859375 40.875 45.40625 35.40625 
Q 44.1875 33.984375 37.640625 27.21875 
Q 31.109375 20.453125 19.1875 8.296875 
z
" id="DejaVuSans-50"/>
      </defs>
      <g transform="translate(128.824393 322.182437)scale(0.1 -0.1)">
       <use xlink:href="#DejaVuSans-48"/>
       <use x="63.623047" xlink:href="#DejaVuSans-46"/>
       <use x="95.410156" xlink:href="#DejaVuSans-50"/>
      </g>
     </g>
    </g>
    <g id="xtick_3">
     <g id="line2d_5">
      <path clip-path="url(#p8e4b247e52)" d="M 203.031985 307.584 
L 203.031985 41.472 
" style="fill:none;stroke:#b0b0b0;stroke-linecap:square;stroke-width:0.8;"/>
     </g>
     <g id="line2d_6">
      <g>
       <use style="stroke:#000000;stroke-width:0.8;" x="203.031985" xlink:href="#m9eeb4651c2" y="307.584"/>
      </g>
     </g>
     <g id="text_3">
      <!-- 0.4 -->
      <defs>
       <path d="M 37.796875 64.3125 
L 12.890625 25.390625 
L 37.796875 25.390625 
z
M 35.203125 72.90625 
L 47.609375 72.90625 
L 47.609375 25.390625 
L 58.015625 25.390625 
L 58.015625 17.1875 
L 47.609375 17.1875 
L 47.609375 0 
L 37.796875 0 
L 37.796875 17.1875 
L 4.890625 17.1875 
L 4.890625 26.703125 
z
" id="DejaVuSans-52"/>
      </defs>
      <g transform="translate(195.080423 322.182437)scale(0.1 -0.1)">
       <use xlink:href="#DejaVuSans-48"/>
       <use x="63.623047" xlink:href="#DejaVuSans-46"/>
       <use x="95.410156" xlink:href="#DejaVuSans-52"/>
      </g>
     </g>
    </g>
    <g id="xtick_4">
     <g id="line2d_7">
      <path clip-path="url(#p8e4b247e52)" d="M 269.288015 307.584 
L 269.288015 41.472 
" style="fill:none;stroke:#b0b0b0;stroke-linecap:square;stroke-width:0.8;"/>
     </g>
     <g id="line2d_8">
      <g>
       <use style="stroke:#000000;stroke-width:0.8;" x="269.288015" xlink:href="#m9eeb4651c2" y="307.584"/>
      </g>
     </g>
     <g id="text_4">
      <!-- 0.6 -->
      <defs>
       <path d="M 33.015625 40.375 
Q 26.375 40.375 22.484375 35.828125 
Q 18.609375 31.296875 18.609375 23.390625 
Q 18.609375 15.53125 22.484375 10.953125 
Q 26.375 6.390625 33.015625 6.390625 
Q 39.65625 6.390625 43.53125 10.953125 
Q 47.40625 15.53125 47.40625 23.390625 
Q 47.40625 31.296875 43.53125 35.828125 
Q 39.65625 40.375 33.015625 40.375 
z
M 52.59375 71.296875 
L 52.59375 62.3125 
Q 48.875 64.0625 45.09375 64.984375 
Q 41.3125 65.921875 37.59375 65.921875 
Q 27.828125 65.921875 22.671875 59.328125 
Q 17.53125 52.734375 16.796875 39.40625 
Q 19.671875 43.65625 24.015625 45.921875 
Q 28.375 48.1875 33.59375 48.1875 
Q 44.578125 48.1875 50.953125 41.515625 
Q 57.328125 34.859375 57.328125 23.390625 
Q 57.328125 12.15625 50.6875 5.359375 
Q 44.046875 -1.421875 33.015625 -1.421875 
Q 20.359375 -1.421875 13.671875 8.265625 
Q 6.984375 17.96875 6.984375 36.375 
Q 6.984375 53.65625 15.1875 63.9375 
Q 23.390625 74.21875 37.203125 74.21875 
Q 40.921875 74.21875 44.703125 73.484375 
Q 48.484375 72.75 52.59375 71.296875 
z
" id="DejaVuSans-54"/>
      </defs>
      <g transform="translate(261.336452 322.182437)scale(0.1 -0.1)">
       <use xlink:href="#DejaVuSans-48"/>
       <use x="63.623047" xlink:href="#DejaVuSans-46"/>
       <use x="95.410156" xlink:href="#DejaVuSans-54"/>
      </g>
     </g>
    </g>
    <g id="xtick_5">
     <g id="line2d_9">
      <path clip-path="url(#p8e4b247e52)" d="M 335.544045 307.584 
L 335.544045 41.472 
" style="fill:none;stroke:#b0b0b0;stroke-linecap:square;stroke-width:0.8;"/>
     </g>
     <g id="line2d_10">
      <g>
       <use style="stroke:#000000;stroke-width:0.8;" x="335.544045" xlink:href="#m9eeb4651c2" y="307.584"/>
      </g>
     </g>
     <g id="text_5">
      <!-- 0.8 -->
      <defs>
       <path d="M 31.78125 34.625 
Q 24.75 34.625 20.71875 30.859375 
Q 16.703125 27.09375 16.703125 20.515625 
Q 16.703125 13.921875 20.71875 10.15625 
Q 24.75 6.390625 31.78125 6.390625 
Q 38.8125 6.390625 42.859375 10.171875 
Q 46.921875 13.96875 46.921875 20.515625 
Q 46.921875 27.09375 42.890625 30.859375 
Q 38.875 34.625 31.78125 34.625 
z
M 21.921875 38.8125 
Q 15.578125 40.375 12.03125 44.71875 
Q 8.5 49.078125 8.5 55.328125 
Q 8.5 64.0625 14.71875 69.140625 
Q 20.953125 74.21875 31.78125 74.21875 
Q 42.671875 74.21875 48.875 69.140625 
Q 55.078125 64.0625 55.078125 55.328125 
Q 55.078125 49.078125 51.53125 44.71875 
Q 48 40.375 41.703125 38.8125 
Q 48.828125 37.15625 52.796875 32.3125 
Q 56.78125 27.484375 56.78125 20.515625 
Q 56.78125 9.90625 50.3125 4.234375 
Q 43.84375 -1.421875 31.78125 -1.421875 
Q 19.734375 -1.421875 13.25 4.234375 
Q 6.78125 9.90625 6.78125 20.515625 
Q 6.78125 27.484375 10.78125 32.3125 
Q 14.796875 37.15625 21.921875 38.8125 
z
M 18.3125 54.390625 
Q 18.3125 48.734375 21.84375 45.5625 
Q 25.390625 42.390625 31.78125 42.390625 
Q 38.140625 42.390625 41.71875 45.5625 
Q 45.3125 48.734375 45.3125 54.390625 
Q 45.3125 60.0625 41.71875 63.234375 
Q 38.140625 66.40625 31.78125 66.40625 
Q 25.390625 66.40625 21.84375 63.234375 
Q 18.3125 60.0625 18.3125 54.390625 
z
" id="DejaVuSans-56"/>
      </defs>
      <g transform="translate(327.592482 322.182437)scale(0.1 -0.1)">
       <use xlink:href="#DejaVuSans-48"/>
       <use x="63.623047" xlink:href="#DejaVuSans-46"/>
       <use x="95.410156" xlink:href="#DejaVuSans-56"/>
      </g>
     </g>
    </g>
    <g id="xtick_6">
     <g id="line2d_11">
      <path clip-path="url(#p8e4b247e52)" d="M 401.800074 307.584 
L 401.800074 41.472 
" style="fill:none;stroke:#b0b0b0;stroke-linecap:square;stroke-width:0.8;"/>
     </g>
     <g id="line2d_12">
      <g>
       <use style="stroke:#000000;stroke-width:0.8;" x="401.800074" xlink:href="#m9eeb4651c2" y="307.584"/>
      </g>
     </g>
     <g id="text_6">
      <!-- 1.0 -->
      <defs>
       <path d="M 12.40625 8.296875 
L 28.515625 8.296875 
L 28.515625 63.921875 
L 10.984375 60.40625 
L 10.984375 69.390625 
L 28.421875 72.90625 
L 38.28125 72.90625 
L 38.28125 8.296875 
L 54.390625 8.296875 
L 54.390625 0 
L 12.40625 0 
z
" id="DejaVuSans-49"/>
      </defs>
      <g transform="translate(393.848512 322.182437)scale(0.1 -0.1)">
       <use xlink:href="#DejaVuSans-49"/>
       <use x="63.623047" xlink:href="#DejaVuSans-46"/>
       <use x="95.410156" xlink:href="#DejaVuSans-48"/>
      </g>
     </g>
    </g>
    <g id="text_7">
     <!-- $\mathrm{Time \ (seconds)}$ -->
     <defs>
      <path d="M -0.296875 72.90625 
L 61.375 72.90625 
L 61.375 64.59375 
L 35.5 64.59375 
L 35.5 0 
L 25.59375 0 
L 25.59375 64.59375 
L -0.296875 64.59375 
z
" id="DejaVuSans-84"/>
      <path d="M 9.421875 54.6875 
L 18.40625 54.6875 
L 18.40625 0 
L 9.421875 0 
z
M 9.421875 75.984375 
L 18.40625 75.984375 
L 18.40625 64.59375 
L 9.421875 64.59375 
z
" id="DejaVuSans-105"/>
      <path d="M 52 44.1875 
Q 55.375 50.25 60.0625 53.125 
Q 64.75 56 71.09375 56 
Q 79.640625 56 84.28125 50.015625 
Q 88.921875 44.046875 88.921875 33.015625 
L 88.921875 0 
L 79.890625 0 
L 79.890625 32.71875 
Q 79.890625 40.578125 77.09375 44.375 
Q 74.3125 48.1875 68.609375 48.1875 
Q 61.625 48.1875 57.5625 43.546875 
Q 53.515625 38.921875 53.515625 30.90625 
L 53.515625 0 
L 44.484375 0 
L 44.484375 32.71875 
Q 44.484375 40.625 41.703125 44.40625 
Q 38.921875 48.1875 33.109375 48.1875 
Q 26.21875 48.1875 22.15625 43.53125 
Q 18.109375 38.875 18.109375 30.90625 
L 18.109375 0 
L 9.078125 0 
L 9.078125 54.6875 
L 18.109375 54.6875 
L 18.109375 46.1875 
Q 21.1875 51.21875 25.484375 53.609375 
Q 29.78125 56 35.6875 56 
Q 41.65625 56 45.828125 52.96875 
Q 50 49.953125 52 44.1875 
z
" id="DejaVuSans-109"/>
      <path d="M 56.203125 29.59375 
L 56.203125 25.203125 
L 14.890625 25.203125 
Q 15.484375 15.921875 20.484375 11.0625 
Q 25.484375 6.203125 34.421875 6.203125 
Q 39.59375 6.203125 44.453125 7.46875 
Q 49.3125 8.734375 54.109375 11.28125 
L 54.109375 2.78125 
Q 49.265625 0.734375 44.1875 -0.34375 
Q 39.109375 -1.421875 33.890625 -1.421875 
Q 20.796875 -1.421875 13.15625 6.1875 
Q 5.515625 13.8125 5.515625 26.8125 
Q 5.515625 40.234375 12.765625 48.109375 
Q 20.015625 56 32.328125 56 
Q 43.359375 56 49.78125 48.890625 
Q 56.203125 41.796875 56.203125 29.59375 
z
M 47.21875 32.234375 
Q 47.125 39.59375 43.09375 43.984375 
Q 39.0625 48.390625 32.421875 48.390625 
Q 24.90625 48.390625 20.390625 44.140625 
Q 15.875 39.890625 15.1875 32.171875 
z
" id="DejaVuSans-101"/>
      <path d="M 31 75.875 
Q 24.46875 64.65625 21.28125 53.65625 
Q 18.109375 42.671875 18.109375 31.390625 
Q 18.109375 20.125 21.3125 9.0625 
Q 24.515625 -2 31 -13.1875 
L 23.1875 -13.1875 
Q 15.875 -1.703125 12.234375 9.375 
Q 8.59375 20.453125 8.59375 31.390625 
Q 8.59375 42.28125 12.203125 53.3125 
Q 15.828125 64.359375 23.1875 75.875 
z
" id="DejaVuSans-40"/>
      <path d="M 44.28125 53.078125 
L 44.28125 44.578125 
Q 40.484375 46.53125 36.375 47.5 
Q 32.28125 48.484375 27.875 48.484375 
Q 21.1875 48.484375 17.84375 46.4375 
Q 14.5 44.390625 14.5 40.28125 
Q 14.5 37.15625 16.890625 35.375 
Q 19.28125 33.59375 26.515625 31.984375 
L 29.59375 31.296875 
Q 39.15625 29.25 43.1875 25.515625 
Q 47.21875 21.78125 47.21875 15.09375 
Q 47.21875 7.46875 41.1875 3.015625 
Q 35.15625 -1.421875 24.609375 -1.421875 
Q 20.21875 -1.421875 15.453125 -0.5625 
Q 10.6875 0.296875 5.421875 2 
L 5.421875 11.28125 
Q 10.40625 8.6875 15.234375 7.390625 
Q 20.0625 6.109375 24.8125 6.109375 
Q 31.15625 6.109375 34.5625 8.28125 
Q 37.984375 10.453125 37.984375 14.40625 
Q 37.984375 18.0625 35.515625 20.015625 
Q 33.0625 21.96875 24.703125 23.78125 
L 21.578125 24.515625 
Q 13.234375 26.265625 9.515625 29.90625 
Q 5.8125 33.546875 5.8125 39.890625 
Q 5.8125 47.609375 11.28125 51.796875 
Q 16.75 56 26.8125 56 
Q 31.78125 56 36.171875 55.265625 
Q 40.578125 54.546875 44.28125 53.078125 
z
" id="DejaVuSans-115"/>
      <path d="M 48.78125 52.59375 
L 48.78125 44.1875 
Q 44.96875 46.296875 41.140625 47.34375 
Q 37.3125 48.390625 33.40625 48.390625 
Q 24.65625 48.390625 19.8125 42.84375 
Q 14.984375 37.3125 14.984375 27.296875 
Q 14.984375 17.28125 19.8125 11.734375 
Q 24.65625 6.203125 33.40625 6.203125 
Q 37.3125 6.203125 41.140625 7.25 
Q 44.96875 8.296875 48.78125 10.40625 
L 48.78125 2.09375 
Q 45.015625 0.34375 40.984375 -0.53125 
Q 36.96875 -1.421875 32.421875 -1.421875 
Q 20.0625 -1.421875 12.78125 6.34375 
Q 5.515625 14.109375 5.515625 27.296875 
Q 5.515625 40.671875 12.859375 48.328125 
Q 20.21875 56 33.015625 56 
Q 37.15625 56 41.109375 55.140625 
Q 45.0625 54.296875 48.78125 52.59375 
z
" id="DejaVuSans-99"/>
      <path d="M 30.609375 48.390625 
Q 23.390625 48.390625 19.1875 42.75 
Q 14.984375 37.109375 14.984375 27.296875 
Q 14.984375 17.484375 19.15625 11.84375 
Q 23.34375 6.203125 30.609375 6.203125 
Q 37.796875 6.203125 41.984375 11.859375 
Q 46.1875 17.53125 46.1875 27.296875 
Q 46.1875 37.015625 41.984375 42.703125 
Q 37.796875 48.390625 30.609375 48.390625 
z
M 30.609375 56 
Q 42.328125 56 49.015625 48.375 
Q 55.71875 40.765625 55.71875 27.296875 
Q 55.71875 13.875 49.015625 6.21875 
Q 42.328125 -1.421875 30.609375 -1.421875 
Q 18.84375 -1.421875 12.171875 6.21875 
Q 5.515625 13.875 5.515625 27.296875 
Q 5.515625 40.765625 12.171875 48.375 
Q 18.84375 56 30.609375 56 
z
" id="DejaVuSans-111"/>
      <path d="M 54.890625 33.015625 
L 54.890625 0 
L 45.90625 0 
L 45.90625 32.71875 
Q 45.90625 40.484375 42.875 44.328125 
Q 39.84375 48.1875 33.796875 48.1875 
Q 26.515625 48.1875 22.3125 43.546875 
Q 18.109375 38.921875 18.109375 30.90625 
L 18.109375 0 
L 9.078125 0 
L 9.078125 54.6875 
L 18.109375 54.6875 
L 18.109375 46.1875 
Q 21.34375 51.125 25.703125 53.5625 
Q 30.078125 56 35.796875 56 
Q 45.21875 56 50.046875 50.171875 
Q 54.890625 44.34375 54.890625 33.015625 
z
" id="DejaVuSans-110"/>
      <path d="M 45.40625 46.390625 
L 45.40625 75.984375 
L 54.390625 75.984375 
L 54.390625 0 
L 45.40625 0 
L 45.40625 8.203125 
Q 42.578125 3.328125 38.25 0.953125 
Q 33.9375 -1.421875 27.875 -1.421875 
Q 17.96875 -1.421875 11.734375 6.484375 
Q 5.515625 14.40625 5.515625 27.296875 
Q 5.515625 40.1875 11.734375 48.09375 
Q 17.96875 56 27.875 56 
Q 33.9375 56 38.25 53.625 
Q 42.578125 51.265625 45.40625 46.390625 
z
M 14.796875 27.296875 
Q 14.796875 17.390625 18.875 11.75 
Q 22.953125 6.109375 30.078125 6.109375 
Q 37.203125 6.109375 41.296875 11.75 
Q 45.40625 17.390625 45.40625 27.296875 
Q 45.40625 37.203125 41.296875 42.84375 
Q 37.203125 48.484375 30.078125 48.484375 
Q 22.953125 48.484375 18.875 42.84375 
Q 14.796875 37.203125 14.796875 27.296875 
z
" id="DejaVuSans-100"/>
      <path d="M 8.015625 75.875 
L 15.828125 75.875 
Q 23.140625 64.359375 26.78125 53.3125 
Q 30.421875 42.28125 30.421875 31.390625 
Q 30.421875 20.453125 26.78125 9.375 
Q 23.140625 -1.703125 15.828125 -13.1875 
L 8.015625 -13.1875 
Q 14.5 -2 17.703125 9.0625 
Q 20.90625 20.125 20.90625 31.390625 
Q 20.90625 42.671875 17.703125 53.65625 
Q 14.5 64.65625 8.015625 75.875 
z
" id="DejaVuSans-41"/>
     </defs>
     <g transform="translate(197.76 335.860562)scale(0.1 -0.1)">
      <use transform="translate(0 0.015625)" xlink:href="#DejaVuSans-84"/>
      <use transform="translate(61.083984 0.015625)" xlink:href="#DejaVuSans-105"/>
      <use transform="translate(88.867188 0.015625)" xlink:href="#DejaVuSans-109"/>
      <use transform="translate(186.279297 0.015625)" xlink:href="#DejaVuSans-101"/>
      <use transform="translate(280.273113 0.015625)" xlink:href="#DejaVuSans-40"/>
      <use transform="translate(319.286785 0.015625)" xlink:href="#DejaVuSans-115"/>
      <use transform="translate(371.386394 0.015625)" xlink:href="#DejaVuSans-101"/>
      <use transform="translate(432.909832 0.015625)" xlink:href="#DejaVuSans-99"/>
      <use transform="translate(487.8903 0.015625)" xlink:href="#DejaVuSans-111"/>
      <use transform="translate(549.071941 0.015625)" xlink:href="#DejaVuSans-110"/>
      <use transform="translate(612.450847 0.015625)" xlink:href="#DejaVuSans-100"/>
      <use transform="translate(675.92741 0.015625)" xlink:href="#DejaVuSans-115"/>
      <use transform="translate(728.027019 0.015625)" xlink:href="#DejaVuSans-41"/>
     </g>
    </g>
   </g>
   <g id="matplotlib.axis_2">
    <g id="ytick_1">
     <g id="line2d_13">
      <path clip-path="url(#p8e4b247e52)" d="M 57.6 217.296857 
L 414.72 217.296857 
" style="fill:none;stroke:#b0b0b0;stroke-linecap:square;stroke-width:0.8;"/>
     </g>
     <g id="line2d_14">
      <defs>
       <path d="M 0 0 
L -3.5 0 
" id="m88606c6c83" style="stroke:#000000;stroke-width:0.8;"/>
      </defs>
      <g>
       <use style="stroke:#000000;stroke-width:0.8;" x="57.6" xlink:href="#m88606c6c83" y="217.296857"/>
      </g>
     </g>
     <g id="text_8">
      <!-- $\mathdefault{10^{-1}}$ -->
      <defs>
       <path d="M 10.59375 35.5 
L 73.1875 35.5 
L 73.1875 27.203125 
L 10.59375 27.203125 
z
" id="DejaVuSans-8722"/>
      </defs>
      <g transform="translate(27.1 221.096075)scale(0.1 -0.1)">
       <use transform="translate(0 0.684375)" xlink:href="#DejaVuSans-49"/>
       <use transform="translate(63.623047 0.684375)" xlink:href="#DejaVuSans-48"/>
       <use transform="translate(128.203125 38.965625)scale(0.7)" xlink:href="#DejaVuSans-8722"/>
       <use transform="translate(186.855469 38.965625)scale(0.7)" xlink:href="#DejaVuSans-49"/>
      </g>
     </g>
    </g>
    <g id="ytick_2">
     <g id="line2d_15">
      <defs>
       <path d="M 0 0 
L -2 0 
" id="m647734c674" style="stroke:#000000;stroke-width:0.6;"/>
      </defs>
      <g>
       <use style="stroke:#000000;stroke-width:0.6;" x="57.6" xlink:href="#m647734c674" y="292.995527"/>
      </g>
     </g>
    </g>
    <g id="ytick_3">
     <g id="line2d_16">
      <g>
       <use style="stroke:#000000;stroke-width:0.6;" x="57.6" xlink:href="#m647734c674" y="274.56069"/>
      </g>
     </g>
    </g>
    <g id="ytick_4">
     <g id="line2d_17">
      <g>
       <use style="stroke:#000000;stroke-width:0.6;" x="57.6" xlink:href="#m647734c674" y="259.498332"/>
      </g>
     </g>
    </g>
    <g id="ytick_5">
     <g id="line2d_18">
      <g>
       <use style="stroke:#000000;stroke-width:0.6;" x="57.6" xlink:href="#m647734c674" y="246.763289"/>
      </g>
     </g>
    </g>
    <g id="ytick_6">
     <g id="line2d_19">
      <g>
       <use style="stroke:#000000;stroke-width:0.6;" x="57.6" xlink:href="#m647734c674" y="235.731693"/>
      </g>
     </g>
    </g>
    <g id="ytick_7">
     <g id="line2d_20">
      <g>
       <use style="stroke:#000000;stroke-width:0.6;" x="57.6" xlink:href="#m647734c674" y="226.001136"/>
      </g>
     </g>
    </g>
    <g id="ytick_8">
     <g id="line2d_21">
      <g>
       <use style="stroke:#000000;stroke-width:0.6;" x="57.6" xlink:href="#m647734c674" y="160.033023"/>
      </g>
     </g>
    </g>
    <g id="ytick_9">
     <g id="line2d_22">
      <g>
       <use style="stroke:#000000;stroke-width:0.6;" x="57.6" xlink:href="#m647734c674" y="126.535828"/>
      </g>
     </g>
    </g>
    <g id="ytick_10">
     <g id="line2d_23">
      <g>
       <use style="stroke:#000000;stroke-width:0.6;" x="57.6" xlink:href="#m647734c674" y="102.76919"/>
      </g>
     </g>
    </g>
    <g id="ytick_11">
     <g id="line2d_24">
      <g>
       <use style="stroke:#000000;stroke-width:0.6;" x="57.6" xlink:href="#m647734c674" y="84.334353"/>
      </g>
     </g>
    </g>
    <g id="ytick_12">
     <g id="line2d_25">
      <g>
       <use style="stroke:#000000;stroke-width:0.6;" x="57.6" xlink:href="#m647734c674" y="69.271994"/>
      </g>
     </g>
    </g>
    <g id="ytick_13">
     <g id="line2d_26">
      <g>
       <use style="stroke:#000000;stroke-width:0.6;" x="57.6" xlink:href="#m647734c674" y="56.536952"/>
      </g>
     </g>
    </g>
    <g id="ytick_14">
     <g id="line2d_27">
      <g>
       <use style="stroke:#000000;stroke-width:0.6;" x="57.6" xlink:href="#m647734c674" y="45.505356"/>
      </g>
     </g>
    </g>
    <g id="text_9">
     <!-- $\mathrm{Relative \ error}$ ($N_{\mathrm{train}}=20$) -->
     <defs>
      <path d="M 44.390625 34.1875 
Q 47.5625 33.109375 50.5625 29.59375 
Q 53.5625 26.078125 56.59375 19.921875 
L 66.609375 0 
L 56 0 
L 46.6875 18.703125 
Q 43.0625 26.03125 39.671875 28.421875 
Q 36.28125 30.8125 30.421875 30.8125 
L 19.671875 30.8125 
L 19.671875 0 
L 9.8125 0 
L 9.8125 72.90625 
L 32.078125 72.90625 
Q 44.578125 72.90625 50.734375 67.671875 
Q 56.890625 62.453125 56.890625 51.90625 
Q 56.890625 45.015625 53.6875 40.46875 
Q 50.484375 35.9375 44.390625 34.1875 
z
M 19.671875 64.796875 
L 19.671875 38.921875 
L 32.078125 38.921875 
Q 39.203125 38.921875 42.84375 42.21875 
Q 46.484375 45.515625 46.484375 51.90625 
Q 46.484375 58.296875 42.84375 61.546875 
Q 39.203125 64.796875 32.078125 64.796875 
z
" id="DejaVuSans-82"/>
      <path d="M 9.421875 75.984375 
L 18.40625 75.984375 
L 18.40625 0 
L 9.421875 0 
z
" id="DejaVuSans-108"/>
      <path d="M 34.28125 27.484375 
Q 23.390625 27.484375 19.1875 25 
Q 14.984375 22.515625 14.984375 16.5 
Q 14.984375 11.71875 18.140625 8.90625 
Q 21.296875 6.109375 26.703125 6.109375 
Q 34.1875 6.109375 38.703125 11.40625 
Q 43.21875 16.703125 43.21875 25.484375 
L 43.21875 27.484375 
z
M 52.203125 31.203125 
L 52.203125 0 
L 43.21875 0 
L 43.21875 8.296875 
Q 40.140625 3.328125 35.546875 0.953125 
Q 30.953125 -1.421875 24.3125 -1.421875 
Q 15.921875 -1.421875 10.953125 3.296875 
Q 6 8.015625 6 15.921875 
Q 6 25.140625 12.171875 29.828125 
Q 18.359375 34.515625 30.609375 34.515625 
L 43.21875 34.515625 
L 43.21875 35.40625 
Q 43.21875 41.609375 39.140625 45 
Q 35.0625 48.390625 27.6875 48.390625 
Q 23 48.390625 18.546875 47.265625 
Q 14.109375 46.140625 10.015625 43.890625 
L 10.015625 52.203125 
Q 14.9375 54.109375 19.578125 55.046875 
Q 24.21875 56 28.609375 56 
Q 40.484375 56 46.34375 49.84375 
Q 52.203125 43.703125 52.203125 31.203125 
z
" id="DejaVuSans-97"/>
      <path d="M 18.3125 70.21875 
L 18.3125 54.6875 
L 36.8125 54.6875 
L 36.8125 47.703125 
L 18.3125 47.703125 
L 18.3125 18.015625 
Q 18.3125 11.328125 20.140625 9.421875 
Q 21.96875 7.515625 27.59375 7.515625 
L 36.8125 7.515625 
L 36.8125 0 
L 27.59375 0 
Q 17.1875 0 13.234375 3.875 
Q 9.28125 7.765625 9.28125 18.015625 
L 9.28125 47.703125 
L 2.6875 47.703125 
L 2.6875 54.6875 
L 9.28125 54.6875 
L 9.28125 70.21875 
z
" id="DejaVuSans-116"/>
      <path d="M 2.984375 54.6875 
L 12.5 54.6875 
L 29.59375 8.796875 
L 46.6875 54.6875 
L 56.203125 54.6875 
L 35.6875 0 
L 23.484375 0 
z
" id="DejaVuSans-118"/>
      <path d="M 41.109375 46.296875 
Q 39.59375 47.171875 37.8125 47.578125 
Q 36.03125 48 33.890625 48 
Q 26.265625 48 22.1875 43.046875 
Q 18.109375 38.09375 18.109375 28.8125 
L 18.109375 0 
L 9.078125 0 
L 9.078125 54.6875 
L 18.109375 54.6875 
L 18.109375 46.1875 
Q 20.953125 51.171875 25.484375 53.578125 
Q 30.03125 56 36.53125 56 
Q 37.453125 56 38.578125 55.875 
Q 39.703125 55.765625 41.0625 55.515625 
z
" id="DejaVuSans-114"/>
      <path id="DejaVuSans-32"/>
      <path d="M 16.890625 72.90625 
L 30.171875 72.90625 
L 50.296875 10.40625 
L 62.5 72.90625 
L 72.125 72.90625 
L 57.90625 0 
L 44.578125 0 
L 24.515625 62.890625 
L 12.3125 0 
L 2.6875 0 
z
" id="DejaVuSans-Oblique-78"/>
      <path d="M 10.59375 45.40625 
L 73.1875 45.40625 
L 73.1875 37.203125 
L 10.59375 37.203125 
z
M 10.59375 25.484375 
L 73.1875 25.484375 
L 73.1875 17.1875 
L 10.59375 17.1875 
z
" id="DejaVuSans-61"/>
     </defs>
     <g transform="translate(21.020312 238.878)rotate(-90)scale(0.1 -0.1)">
      <use transform="translate(0 0.015625)" xlink:href="#DejaVuSans-82"/>
      <use transform="translate(69.482422 0.015625)" xlink:href="#DejaVuSans-101"/>
      <use transform="translate(131.005859 0.015625)" xlink:href="#DejaVuSans-108"/>
      <use transform="translate(158.789062 0.015625)" xlink:href="#DejaVuSans-97"/>
      <use transform="translate(220.068359 0.015625)" xlink:href="#DejaVuSans-116"/>
      <use transform="translate(259.277344 0.015625)" xlink:href="#DejaVuSans-105"/>
      <use transform="translate(287.060547 0.015625)" xlink:href="#DejaVuSans-118"/>
      <use transform="translate(346.240234 0.015625)" xlink:href="#DejaVuSans-101"/>
      <use transform="translate(440.23405 0.015625)" xlink:href="#DejaVuSans-101"/>
      <use transform="translate(501.757488 0.015625)" xlink:href="#DejaVuSans-114"/>
      <use transform="translate(542.870769 0.015625)" xlink:href="#DejaVuSans-114"/>
      <use transform="translate(583.98405 0.015625)" xlink:href="#DejaVuSans-111"/>
      <use transform="translate(645.165691 0.015625)" xlink:href="#DejaVuSans-114"/>
      <use transform="translate(686.278972 0.015625)" xlink:href="#DejaVuSans-32"/>
      <use transform="translate(718.066082 0.015625)" xlink:href="#DejaVuSans-40"/>
      <use transform="translate(757.079753 0.015625)" xlink:href="#DejaVuSans-Oblique-78"/>
      <use transform="translate(831.884441 -16.390625)scale(0.7)" xlink:href="#DejaVuSans-116"/>
      <use transform="translate(859.33073 -16.390625)scale(0.7)" xlink:href="#DejaVuSans-114"/>
      <use transform="translate(888.110027 -16.390625)scale(0.7)" xlink:href="#DejaVuSans-97"/>
      <use transform="translate(931.005535 -16.390625)scale(0.7)" xlink:href="#DejaVuSans-105"/>
      <use transform="translate(950.453777 -16.390625)scale(0.7)" xlink:href="#DejaVuSans-110"/>
      <use transform="translate(1017.035808 0.015625)" xlink:href="#DejaVuSans-61"/>
      <use transform="translate(1120.307292 0.015625)" xlink:href="#DejaVuSans-50"/>
      <use transform="translate(1183.930339 0.015625)" xlink:href="#DejaVuSans-48"/>
      <use transform="translate(1247.553386 0.015625)" xlink:href="#DejaVuSans-41"/>
     </g>
    </g>
   </g>
   <g id="line2d_28">
    <path clip-path="url(#p8e4b247e52)" d="M 73.832724 290.412493 
L 77.145522 258.324036 
L 80.458321 234.520639 
L 83.771119 215.570633 
L 87.083917 199.949689 
L 90.396716 186.829563 
L 93.709554 175.68598 
L 97.022352 166.146189 
L 100.33515 157.925208 
L 103.647949 150.797522 
L 106.960747 144.581849 
L 110.273545 139.131335 
L 113.586344 134.326674 
L 116.899142 130.07066 
L 120.21194 126.283689 
L 123.524738 122.90032 
L 126.837537 119.866259 
L 130.150375 117.136664 
L 133.463173 114.674077 
L 136.775971 112.447314 
L 140.08877 110.430128 
L 143.401568 108.600452 
L 146.714366 106.939676 
L 150.027165 105.432037 
L 153.339963 104.064311 
L 156.652761 102.825386 
L 159.96556 101.705904 
L 163.278358 100.697834 
L 166.591156 99.794484 
L 169.903955 98.990093 
L 173.216753 98.279855 
L 176.529551 97.659626 
L 179.842389 97.125995 
L 183.155187 96.675975 
L 186.467986 96.307208 
L 189.780784 96.017764 
L 193.093582 95.806279 
L 196.406381 95.67178 
L 199.719179 95.613638 
L 203.031977 95.631443 
L 206.344776 95.724803 
L 209.657574 95.893154 
L 212.970412 96.13541 
L 216.28321 96.449457 
L 219.596008 96.831583 
L 226.221605 97.772033 
L 242.785597 100.40594 
L 246.098395 100.800174 
L 249.411193 101.103793 
L 252.723992 101.308472 
L 256.03679 101.412443 
L 259.349588 101.41925 
L 262.662387 101.335914 
L 265.975185 101.171504 
L 269.288023 100.935871 
L 275.913619 100.290103 
L 282.539216 99.470432 
L 289.164852 98.53538 
L 299.103247 97.011638 
L 325.605634 92.857574 
L 335.544029 91.410095 
L 345.482424 90.070147 
L 355.420858 88.859845 
L 365.359253 87.79948 
L 371.984889 87.185145 
L 378.610486 86.6507 
L 385.236083 86.2005 
L 391.861679 85.838306 
L 398.487276 85.567862 
" style="fill:none;stroke:#ff0000;stroke-linecap:square;stroke-width:1.5;"/>
   </g>
   <g id="line2d_29">
    <path clip-path="url(#p8e4b247e52)" d="M 73.832724 241.91004 
L 77.145522 211.807132 
L 80.458321 189.908294 
L 83.771119 172.758635 
L 87.083917 158.811013 
L 90.396716 147.218047 
L 93.709554 137.443618 
L 97.022352 129.112292 
L 100.33515 121.94445 
L 103.647949 115.725122 
L 106.960747 110.286198 
L 110.273545 105.494847 
L 113.586344 101.24541 
L 116.899142 97.453107 
L 120.21194 94.049444 
L 123.524738 90.978693 
L 126.837537 88.195055 
L 130.150375 85.660792 
L 133.463173 83.344361 
L 136.775971 81.219459 
L 140.08877 79.263844 
L 143.401568 77.458567 
L 146.714366 75.787609 
L 150.027165 74.237061 
L 153.339963 72.795075 
L 156.652761 71.451247 
L 159.96556 70.196633 
L 163.278358 69.023366 
L 166.591156 67.924537 
L 169.903955 66.894131 
L 176.529551 65.017672 
L 183.155187 63.358164 
L 189.780784 61.887447 
L 196.406381 60.583373 
L 203.031977 59.42876 
L 209.657574 58.410642 
L 216.28321 57.519899 
L 222.908807 56.751004 
L 229.534403 56.101699 
L 236.16 55.57265 
L 242.785597 55.165988 
L 249.411193 54.883052 
L 256.03679 54.720755 
L 262.662387 54.668389 
L 269.288023 54.706236 
L 279.226418 54.874254 
L 305.728844 55.409646 
L 318.980037 55.547317 
L 335.544029 55.589088 
L 385.236083 55.580681 
L 398.487276 55.70982 
" style="fill:none;stroke:#0000ff;stroke-linecap:square;stroke-width:1.5;"/>
   </g>
   <g id="line2d_30">
    <path clip-path="url(#p8e4b247e52)" d="M 73.832724 194.335287 
L 77.145522 169.129497 
L 80.458321 151.433471 
L 83.771119 138.415367 
L 87.083917 128.042404 
L 90.396716 119.436355 
L 93.709554 112.168097 
L 97.022352 105.971676 
L 100.33515 100.653389 
L 103.647949 96.061207 
L 106.960747 92.072711 
L 110.273545 88.588904 
L 113.586344 85.52954 
L 116.899142 82.829463 
L 120.21194 80.435621 
L 123.524738 78.304701 
L 126.837537 76.401419 
L 130.150375 74.696607 
L 133.463173 73.166041 
L 136.775971 71.789516 
L 140.08877 70.550077 
L 143.401568 69.4334 
L 146.714366 68.427327 
L 150.027165 67.521568 
L 153.339963 66.707293 
L 156.652761 65.977055 
L 159.96556 65.324493 
L 163.278358 64.744214 
L 166.591156 64.231628 
L 169.903955 63.782878 
L 173.216753 63.394561 
L 176.529551 63.063776 
L 183.155187 62.565278 
L 189.780784 62.273765 
L 196.406381 62.183126 
L 203.031977 62.292769 
L 209.657574 62.605484 
L 216.28321 63.124869 
L 222.908807 63.850639 
L 229.534403 64.772041 
L 236.16 65.856124 
L 252.723992 68.749426 
L 259.349588 69.691694 
L 262.662387 70.074341 
L 265.975185 70.393695 
L 269.288023 70.650508 
L 272.600821 70.847662 
L 279.226418 71.081275 
L 285.852014 71.135543 
L 292.477651 71.051618 
L 299.103247 70.865824 
L 309.041642 70.459568 
L 325.605634 69.616746 
L 348.795222 68.436077 
L 365.359253 67.700491 
L 381.923284 67.060943 
L 395.174478 66.642397 
L 398.487276 66.554748 
" style="fill:none;stroke:#00ffff;stroke-linecap:square;stroke-width:1.5;"/>
   </g>
   <g id="patch_3">
    <path d="M 57.6 307.584 
L 57.6 41.472 
" style="fill:none;stroke:#000000;stroke-linecap:square;stroke-linejoin:miter;stroke-width:0.8;"/>
   </g>
   <g id="patch_4">
    <path d="M 414.72 307.584 
L 414.72 41.472 
" style="fill:none;stroke:#000000;stroke-linecap:square;stroke-linejoin:miter;stroke-width:0.8;"/>
   </g>
   <g id="patch_5">
    <path d="M 57.6 307.584 
L 414.72 307.584 
" style="fill:none;stroke:#000000;stroke-linecap:square;stroke-linejoin:miter;stroke-width:0.8;"/>
   </g>
   <g id="patch_6">
    <path d="M 57.6 41.472 
L 414.72 41.472 
" style="fill:none;stroke:#000000;stroke-linecap:square;stroke-linejoin:miter;stroke-width:0.8;"/>
   </g>
   <g id="legend_1">
    <g id="patch_7">
     <path d="M 289.835625 302.584 
L 407.72 302.584 
Q 409.72 302.584 409.72 300.584 
L 409.72 257.549625 
Q 409.72 255.549625 407.72 255.549625 
L 289.835625 255.549625 
Q 287.835625 255.549625 287.835625 257.549625 
L 287.835625 300.584 
Q 287.835625 302.584 289.835625 302.584 
z
" style="fill:#ffffff;opacity:0.8;stroke:#cccccc;stroke-linejoin:miter;"/>
    </g>
    <g id="line2d_31">
     <path d="M 291.835625 263.648062 
L 311.835625 263.648062 
" style="fill:none;stroke:#ff0000;stroke-linecap:square;stroke-width:1.5;"/>
    </g>
    <g id="line2d_32"/>
    <g id="text_10">
     <!-- No grad. reg. -->
     <defs>
      <path d="M 9.8125 72.90625 
L 23.09375 72.90625 
L 55.421875 11.921875 
L 55.421875 72.90625 
L 64.984375 72.90625 
L 64.984375 0 
L 51.703125 0 
L 19.390625 60.984375 
L 19.390625 0 
L 9.8125 0 
z
" id="DejaVuSans-78"/>
      <path d="M 45.40625 27.984375 
Q 45.40625 37.75 41.375 43.109375 
Q 37.359375 48.484375 30.078125 48.484375 
Q 22.859375 48.484375 18.828125 43.109375 
Q 14.796875 37.75 14.796875 27.984375 
Q 14.796875 18.265625 18.828125 12.890625 
Q 22.859375 7.515625 30.078125 7.515625 
Q 37.359375 7.515625 41.375 12.890625 
Q 45.40625 18.265625 45.40625 27.984375 
z
M 54.390625 6.78125 
Q 54.390625 -7.171875 48.1875 -13.984375 
Q 42 -20.796875 29.203125 -20.796875 
Q 24.46875 -20.796875 20.265625 -20.09375 
Q 16.0625 -19.390625 12.109375 -17.921875 
L 12.109375 -9.1875 
Q 16.0625 -11.328125 19.921875 -12.34375 
Q 23.78125 -13.375 27.78125 -13.375 
Q 36.625 -13.375 41.015625 -8.765625 
Q 45.40625 -4.15625 45.40625 5.171875 
L 45.40625 9.625 
Q 42.625 4.78125 38.28125 2.390625 
Q 33.9375 0 27.875 0 
Q 17.828125 0 11.671875 7.65625 
Q 5.515625 15.328125 5.515625 27.984375 
Q 5.515625 40.671875 11.671875 48.328125 
Q 17.828125 56 27.875 56 
Q 33.9375 56 38.28125 53.609375 
Q 42.625 51.21875 45.40625 46.390625 
L 45.40625 54.6875 
L 54.390625 54.6875 
z
" id="DejaVuSans-103"/>
     </defs>
     <g transform="translate(319.835625 267.148062)scale(0.1 -0.1)">
      <use xlink:href="#DejaVuSans-78"/>
      <use x="74.804688" xlink:href="#DejaVuSans-111"/>
      <use x="135.986328" xlink:href="#DejaVuSans-32"/>
      <use x="167.773438" xlink:href="#DejaVuSans-103"/>
      <use x="231.25" xlink:href="#DejaVuSans-114"/>
      <use x="272.363281" xlink:href="#DejaVuSans-97"/>
      <use x="333.642578" xlink:href="#DejaVuSans-100"/>
      <use x="397.119141" xlink:href="#DejaVuSans-46"/>
      <use x="428.90625" xlink:href="#DejaVuSans-32"/>
      <use x="460.693359" xlink:href="#DejaVuSans-114"/>
      <use x="501.775391" xlink:href="#DejaVuSans-101"/>
      <use x="563.298828" xlink:href="#DejaVuSans-103"/>
      <use x="626.775391" xlink:href="#DejaVuSans-46"/>
     </g>
    </g>
    <g id="line2d_33">
     <path d="M 291.835625 278.326188 
L 311.835625 278.326188 
" style="fill:none;stroke:#0000ff;stroke-linecap:square;stroke-width:1.5;"/>
    </g>
    <g id="line2d_34"/>
    <g id="text_11">
     <!-- Grad. reg -->
     <defs>
      <path d="M 59.515625 10.40625 
L 59.515625 29.984375 
L 43.40625 29.984375 
L 43.40625 38.09375 
L 69.28125 38.09375 
L 69.28125 6.78125 
Q 63.578125 2.734375 56.6875 0.65625 
Q 49.8125 -1.421875 42 -1.421875 
Q 24.90625 -1.421875 15.25 8.5625 
Q 5.609375 18.5625 5.609375 36.375 
Q 5.609375 54.25 15.25 64.234375 
Q 24.90625 74.21875 42 74.21875 
Q 49.125 74.21875 55.546875 72.453125 
Q 61.96875 70.703125 67.390625 67.28125 
L 67.390625 56.78125 
Q 61.921875 61.421875 55.765625 63.765625 
Q 49.609375 66.109375 42.828125 66.109375 
Q 29.4375 66.109375 22.71875 58.640625 
Q 16.015625 51.171875 16.015625 36.375 
Q 16.015625 21.625 22.71875 14.15625 
Q 29.4375 6.6875 42.828125 6.6875 
Q 48.046875 6.6875 52.140625 7.59375 
Q 56.25 8.5 59.515625 10.40625 
z
" id="DejaVuSans-71"/>
     </defs>
     <g transform="translate(319.835625 281.826188)scale(0.1 -0.1)">
      <use xlink:href="#DejaVuSans-71"/>
      <use x="77.490234" xlink:href="#DejaVuSans-114"/>
      <use x="118.603516" xlink:href="#DejaVuSans-97"/>
      <use x="179.882812" xlink:href="#DejaVuSans-100"/>
      <use x="243.359375" xlink:href="#DejaVuSans-46"/>
      <use x="275.146484" xlink:href="#DejaVuSans-32"/>
      <use x="306.933594" xlink:href="#DejaVuSans-114"/>
      <use x="348.015625" xlink:href="#DejaVuSans-101"/>
      <use x="409.539062" xlink:href="#DejaVuSans-103"/>
     </g>
    </g>
    <g id="line2d_35">
     <path d="M 291.835625 293.004312 
L 311.835625 293.004312 
" style="fill:none;stroke:#00ffff;stroke-linecap:square;stroke-width:1.5;"/>
    </g>
    <g id="line2d_36"/>
    <g id="text_12">
     <!-- Second grad. reg -->
     <defs>
      <path d="M 53.515625 70.515625 
L 53.515625 60.890625 
Q 47.90625 63.578125 42.921875 64.890625 
Q 37.9375 66.21875 33.296875 66.21875 
Q 25.25 66.21875 20.875 63.09375 
Q 16.5 59.96875 16.5 54.203125 
Q 16.5 49.359375 19.40625 46.890625 
Q 22.3125 44.4375 30.421875 42.921875 
L 36.375 41.703125 
Q 47.40625 39.59375 52.65625 34.296875 
Q 57.90625 29 57.90625 20.125 
Q 57.90625 9.515625 50.796875 4.046875 
Q 43.703125 -1.421875 29.984375 -1.421875 
Q 24.8125 -1.421875 18.96875 -0.25 
Q 13.140625 0.921875 6.890625 3.21875 
L 6.890625 13.375 
Q 12.890625 10.015625 18.65625 8.296875 
Q 24.421875 6.59375 29.984375 6.59375 
Q 38.421875 6.59375 43.015625 9.90625 
Q 47.609375 13.234375 47.609375 19.390625 
Q 47.609375 24.75 44.3125 27.78125 
Q 41.015625 30.8125 33.5 32.328125 
L 27.484375 33.5 
Q 16.453125 35.6875 11.515625 40.375 
Q 6.59375 45.0625 6.59375 53.421875 
Q 6.59375 63.09375 13.40625 68.65625 
Q 20.21875 74.21875 32.171875 74.21875 
Q 37.3125 74.21875 42.625 73.28125 
Q 47.953125 72.359375 53.515625 70.515625 
z
" id="DejaVuSans-83"/>
     </defs>
     <g transform="translate(319.835625 296.504312)scale(0.1 -0.1)">
      <use xlink:href="#DejaVuSans-83"/>
      <use x="63.476562" xlink:href="#DejaVuSans-101"/>
      <use x="125" xlink:href="#DejaVuSans-99"/>
      <use x="179.980469" xlink:href="#DejaVuSans-111"/>
      <use x="241.162109" xlink:href="#DejaVuSans-110"/>
      <use x="304.541016" xlink:href="#DejaVuSans-100"/>
      <use x="368.017578" xlink:href="#DejaVuSans-32"/>
      <use x="399.804688" xlink:href="#DejaVuSans-103"/>
      <use x="463.28125" xlink:href="#DejaVuSans-114"/>
      <use x="504.394531" xlink:href="#DejaVuSans-97"/>
      <use x="565.673828" xlink:href="#DejaVuSans-100"/>
      <use x="629.150391" xlink:href="#DejaVuSans-46"/>
      <use x="660.9375" xlink:href="#DejaVuSans-32"/>
      <use x="692.724609" xlink:href="#DejaVuSans-114"/>
      <use x="733.806641" xlink:href="#DejaVuSans-101"/>
      <use x="795.330078" xlink:href="#DejaVuSans-103"/>
     </g>
    </g>
   </g>
  </g>
 </g>
 <defs>
  <clipPath id="p8e4b247e52">
   <rect height="266.112" width="357.12" x="57.6" y="41.472"/>
  </clipPath>
 </defs>
</svg>
