<?xml version="1.0" encoding="utf-8" standalone="no"?>
<!DOCTYPE svg PUBLIC "-//W3C//DTD SVG 1.1//EN"
  "http://www.w3.org/Graphics/SVG/1.1/DTD/svg11.dtd">
<!-- Created with matplotlib (https://matplotlib.org/) -->
<svg height="345.6pt" version="1.1" viewBox="0 0 460.8 345.6" width="460.8pt" xmlns="http://www.w3.org/2000/svg" xmlns:xlink="http://www.w3.org/1999/xlink">
 <defs>
  <style type="text/css">
*{stroke-linecap:butt;stroke-linejoin:round;white-space:pre;}
  </style>
 </defs>
 <g id="figure_1">
  <g id="patch_1">
   <path d="M 0 345.6 
L 460.8 345.6 
L 460.8 0 
L 0 0 
z
" style="fill:#ffffff;"/>
  </g>
  <g id="axes_1">
   <g id="patch_2">
    <path d="M 57.6 307.584 
L 414.72 307.584 
L 414.72 41.472 
L 57.6 41.472 
z
" style="fill:#ffffff;"/>
   </g>
   <g id="PolyCollection_1">
    <path clip-path="url(#p6794218e3b)" d="M 73.832727 277.951123 
L 73.832727 294.176636 
L 77.145529 259.136309 
L 80.45833 233.354984 
L 83.771132 212.966974 
L 87.083933 196.258462 
L 90.396735 182.301307 
L 93.709536 170.510058 
L 97.022338 160.46995 
L 100.335139 151.865258 
L 103.647941 144.446856 
L 106.960742 138.015041 
L 110.273544 132.408432 
L 113.586345 127.496107 
L 116.899147 123.171631 
L 120.211948 119.348166 
L 123.52475 115.954634 
L 126.837551 112.932643 
L 130.150353 110.234043 
L 133.463154 107.819059 
L 136.775955 105.654758 
L 140.088757 103.713812 
L 143.401558 101.973526 
L 146.71436 100.415027 
L 150.027161 99.022659 
L 153.339963 97.783529 
L 156.652764 96.687095 
L 159.965566 95.724837 
L 163.278367 94.890015 
L 166.591169 94.177546 
L 169.90397 93.583852 
L 173.216772 93.106638 
L 176.529573 92.744816 
L 179.842375 92.498485 
L 183.155176 92.36898 
L 186.467978 92.358839 
L 189.780779 92.47166 
L 193.093581 92.711942 
L 196.406382 93.084892 
L 199.719184 93.596067 
L 203.031985 94.250598 
L 206.344787 95.051781 
L 209.657588 95.99862 
L 212.97039 97.081844 
L 216.283191 98.278234 
L 219.595993 99.544756 
L 222.908794 100.816941 
L 226.221596 102.017262 
L 229.534397 103.07259 
L 232.847199 103.93055 
L 236.16 104.565462 
L 239.472801 104.974463 
L 242.785603 105.169655 
L 246.098404 105.170886 
L 249.411206 105.000898 
L 252.724007 104.682581 
L 256.036809 104.237599 
L 259.34961 103.685798 
L 262.662412 103.044985 
L 265.975213 102.330901 
L 269.288015 101.557294 
L 272.600816 100.736049 
L 275.913618 99.877346 
L 279.226419 98.989869 
L 282.539221 98.080994 
L 285.852022 97.156977 
L 289.164824 96.223108 
L 292.477625 95.283842 
L 295.790427 94.342921 
L 299.103228 93.403483 
L 302.41603 92.468164 
L 305.728831 91.539182 
L 309.041633 90.618408 
L 312.354434 89.707434 
L 315.667236 88.807623 
L 318.980037 87.920153 
L 322.292839 87.046031 
L 325.60564 86.186125 
L 328.918442 85.341187 
L 332.231243 84.511876 
L 335.544045 83.698777 
L 338.856846 82.902425 
L 342.169647 82.123318 
L 345.482449 81.361938 
L 348.79525 80.618766 
L 352.108052 79.894312 
L 355.420853 79.189115 
L 358.733655 78.503752 
L 362.046456 77.838863 
L 365.359258 77.195154 
L 368.672059 76.573418 
L 371.984861 75.974558 
L 375.297662 75.399607 
L 378.610464 74.849747 
L 381.923265 74.326339 
L 385.236067 73.830949 
L 388.548868 73.365384 
L 391.86167 72.931732 
L 395.174471 72.532408 
L 398.487273 72.170203 
L 398.487273 60.505677 
L 398.487273 60.505677 
L 395.174471 60.844711 
L 391.86167 61.211413 
L 388.548868 61.603882 
L 385.236067 62.020484 
L 381.923265 62.459809 
L 378.610464 62.920632 
L 375.297662 63.401887 
L 371.984861 63.902638 
L 368.672059 64.422061 
L 365.359258 64.959424 
L 362.046456 65.514069 
L 358.733655 66.085398 
L 355.420853 66.672849 
L 352.108052 67.27589 
L 348.79525 67.894008 
L 345.482449 68.526694 
L 342.169647 69.173443 
L 338.856846 69.833733 
L 335.544045 70.507018 
L 332.231243 71.192706 
L 328.918442 71.890144 
L 325.60564 72.598599 
L 322.292839 73.317238 
L 318.980037 74.045105 
L 315.667236 74.781096 
L 312.354434 75.52393 
L 309.041633 76.272112 
L 305.728831 77.023892 
L 302.41603 77.777209 
L 299.103228 78.529626 
L 295.790427 79.278259 
L 292.477625 80.019682 
L 289.164824 80.749821 
L 285.852022 81.463828 
L 282.539221 82.155949 
L 279.226419 82.81935 
L 275.913618 83.44592 
L 272.600816 84.026067 
L 269.288015 84.548493 
L 265.975213 84.999973 
L 262.662412 85.365162 
L 259.34961 85.6265 
L 256.036809 85.7643 
L 252.724007 85.757163 
L 249.411206 85.582979 
L 246.098404 85.220995 
L 242.785603 84.65567 
L 239.472801 83.883142 
L 236.16 82.91978 
L 232.847199 81.808898 
L 229.534397 80.618041 
L 226.221596 79.42363 
L 222.908794 78.29177 
L 219.595993 77.267587 
L 216.283191 76.375496 
L 212.97039 75.624854 
L 209.657588 75.016012 
L 206.344787 74.54482 
L 203.031985 74.2053 
L 199.719184 73.991013 
L 196.406382 73.895762 
L 193.093581 73.91395 
L 189.780779 74.040709 
L 186.467978 74.271974 
L 183.155176 74.604565 
L 179.842375 75.036179 
L 176.529573 75.56538 
L 173.216772 76.191651 
L 169.90397 76.915553 
L 166.591169 77.738809 
L 163.278367 78.664423 
L 159.965566 79.696814 
L 156.652764 80.841872 
L 153.339963 82.106981 
L 150.027161 83.501179 
L 146.71436 85.035456 
L 143.401558 86.723079 
L 140.088757 88.57989 
L 136.775955 90.624757 
L 133.463154 92.880167 
L 130.150353 95.372983 
L 126.837551 98.135418 
L 123.52475 101.206196 
L 120.211948 104.631965 
L 116.899147 108.469174 
L 113.586345 112.786472 
L 110.273544 117.667956 
L 106.960742 123.217275 
L 103.647941 129.562864 
L 100.335139 136.864744 
L 97.022338 145.323477 
L 93.709536 155.192416 
L 90.396735 166.795982 
L 87.083933 180.562202 
L 83.771132 197.092575 
L 80.45833 217.329553 
L 77.145529 242.994431 
L 73.832727 277.951123 
z
" style="fill:#ff0000;fill-opacity:0.4;"/>
   </g>
   <g id="PolyCollection_2">
    <path clip-path="url(#p6794218e3b)" d="M 73.832727 280.112912 
L 73.832727 295.488 
L 77.145529 260.252291 
L 80.45833 234.273786 
L 83.771132 213.688051 
L 87.083933 196.783132 
L 90.396735 182.633245 
L 93.709536 170.654844 
L 97.022338 160.434582 
L 100.335139 151.657749 
L 103.647941 144.075711 
L 106.960742 137.488466 
L 110.273544 131.734062 
L 113.586345 126.680731 
L 116.899147 122.220828 
L 120.211948 118.266244 
L 123.52475 114.744631 
L 126.837551 111.596394 
L 130.150353 108.772302 
L 133.463154 106.231623 
L 136.775955 103.940676 
L 140.088757 101.87151 
L 143.401558 100.000934 
L 146.71436 98.30965 
L 150.027161 96.781514 
L 153.339963 95.403064 
L 156.652764 94.163234 
L 159.965566 93.052896 
L 163.278367 92.064527 
L 166.591169 91.192087 
L 169.90397 90.430888 
L 173.216772 89.777483 
L 176.529573 89.229517 
L 179.842375 88.785653 
L 183.155176 88.445559 
L 186.467978 88.20985 
L 189.780779 88.080033 
L 193.093581 88.058427 
L 196.406382 88.148191 
L 199.719184 88.353286 
L 203.031985 88.6784 
L 206.344787 89.12878 
L 209.657588 89.709918 
L 212.97039 90.426935 
L 216.283191 91.283242 
L 219.595993 92.278286 
L 222.908794 93.403908 
L 226.221596 94.638966 
L 229.534397 95.943446 
L 232.847199 97.256588 
L 236.16 98.504923 
L 239.472801 99.619744 
L 242.785603 100.553181 
L 246.098404 101.283509 
L 249.411206 101.810349 
L 252.724007 102.146428 
L 256.036809 102.310692 
L 259.34961 102.32403 
L 262.662412 102.207023 
L 265.975213 101.978861 
L 269.288015 101.656859 
L 272.600816 101.256358 
L 275.913618 100.790795 
L 279.226419 100.271835 
L 282.539221 99.709512 
L 285.852022 99.112415 
L 289.164824 98.487864 
L 292.477625 97.8421 
L 295.790427 97.18044 
L 299.103228 96.507423 
L 302.41603 95.826932 
L 305.728831 95.142299 
L 309.041633 94.456387 
L 312.354434 93.77166 
L 315.667236 93.090243 
L 318.980037 92.414003 
L 322.292839 91.744599 
L 325.60564 91.083554 
L 328.918442 90.4323 
L 332.231243 89.792198 
L 335.544045 89.16456 
L 338.856846 88.550659 
L 342.169647 87.951756 
L 345.482449 87.36913 
L 348.79525 86.804097 
L 352.108052 86.257993 
L 355.420853 85.732196 
L 358.733655 85.228135 
L 362.046456 84.747304 
L 365.359258 84.291272 
L 368.672059 83.861689 
L 371.984861 83.460302 
L 375.297662 83.088968 
L 378.610464 82.749662 
L 381.923265 82.44448 
L 385.236067 82.17564 
L 388.548868 81.945521 
L 391.86167 81.756683 
L 395.174471 81.611881 
L 398.487273 81.514064 
L 398.487273 70.182284 
L 398.487273 70.182284 
L 395.174471 70.364066 
L 391.86167 70.585213 
L 388.548868 70.843159 
L 385.236067 71.135466 
L 381.923265 71.459838 
L 378.610464 71.814103 
L 375.297662 72.196222 
L 371.984861 72.604282 
L 368.672059 73.036495 
L 365.359258 73.491191 
L 362.046456 73.966792 
L 358.733655 74.461785 
L 355.420853 74.974708 
L 352.108052 75.504134 
L 348.79525 76.048659 
L 345.482449 76.606888 
L 342.169647 77.177425 
L 338.856846 77.758865 
L 335.544045 78.349782 
L 332.231243 78.948696 
L 328.918442 79.554053 
L 325.60564 80.164227 
L 322.292839 80.777487 
L 318.980037 81.391974 
L 315.667236 82.005676 
L 312.354434 82.616347 
L 309.041633 83.221432 
L 305.728831 83.818004 
L 302.41603 84.402688 
L 299.103228 84.97157 
L 295.790427 85.5201 
L 292.477625 86.042962 
L 289.164824 86.533929 
L 285.852022 86.985704 
L 282.539221 87.389724 
L 279.226419 87.735954 
L 275.913618 88.012683 
L 272.600816 88.206319 
L 269.288015 88.301218 
L 265.975213 88.279721 
L 262.662412 88.122476 
L 259.34961 87.809397 
L 256.036809 87.321748 
L 252.724007 86.646086 
L 249.411206 85.780449 
L 246.098404 84.741743 
L 242.785603 83.570242 
L 239.472801 82.32538 
L 236.16 81.072378 
L 232.847199 79.867736 
L 229.534397 78.75175 
L 226.221596 77.748363 
L 222.908794 76.868687 
L 219.595993 76.115493 
L 216.283191 75.486952 
L 212.97039 74.978953 
L 209.657588 74.586447 
L 206.344787 74.304217 
L 203.031985 74.127391 
L 199.719184 74.051618 
L 196.406382 74.073151 
L 193.093581 74.188867 
L 189.780779 74.396257 
L 186.467978 74.693505 
L 183.155176 75.079562 
L 179.842375 75.55408 
L 176.529573 76.11742 
L 173.216772 76.770737 
L 169.90397 77.516112 
L 166.591169 78.356687 
L 163.278367 79.296702 
L 159.965566 80.341608 
L 156.652764 81.498158 
L 153.339963 82.774479 
L 150.027161 84.180248 
L 146.71436 85.72695 
L 143.401558 87.428086 
L 140.088757 89.299575 
L 136.775955 91.360373 
L 133.463154 93.633168 
L 130.150353 96.145166 
L 126.837551 98.929014 
L 123.52475 102.02401 
L 120.211948 105.477609 
L 116.899147 109.347205 
L 113.586345 113.702529 
L 110.273544 118.62886 
L 106.960742 124.231139 
L 103.647941 130.639106 
L 100.335139 138.013996 
L 97.022338 146.557398 
L 93.709536 156.523376 
L 90.396735 168.236686 
L 87.083933 182.125417 
L 83.771132 198.790691 
L 80.45833 219.173724 
L 77.145529 244.993985 
L 73.832727 280.112912 
z
" style="fill:#0000ff;fill-opacity:0.4;"/>
   </g>
   <g id="PolyCollection_3">
    <path clip-path="url(#p6794218e3b)" d="M 73.832727 180.667221 
L 73.832727 213.636105 
L 77.145529 184.084932 
L 80.45833 163.684945 
L 83.771132 148.699567 
L 87.083933 137.226274 
L 90.396735 128.062467 
L 93.709536 120.441864 
L 97.022338 113.929772 
L 100.335139 108.272949 
L 103.647941 103.31081 
L 106.960742 98.929795 
L 110.273544 95.046519 
L 113.586345 91.594697 
L 116.899147 88.520468 
L 120.211948 85.777318 
L 123.52475 83.323171 
L 126.837551 81.121921 
L 130.150353 79.142922 
L 133.463154 77.359329 
L 136.775955 75.74767 
L 140.088757 74.288159 
L 143.401558 72.964337 
L 146.71436 71.763208 
L 150.027161 70.674529 
L 153.339963 69.689717 
L 156.652764 68.801731 
L 159.965566 68.004674 
L 163.278367 67.293554 
L 166.591169 66.664308 
L 169.90397 66.113672 
L 173.216772 65.639502 
L 176.529573 65.240266 
L 179.842375 64.914411 
L 183.155176 64.659994 
L 186.467978 64.475333 
L 189.780779 64.359936 
L 193.093581 64.31439 
L 196.406382 64.340399 
L 199.719184 64.440452 
L 203.031985 64.616886 
L 206.344787 64.871743 
L 209.657588 65.207697 
L 212.97039 65.628925 
L 216.283191 66.14117 
L 219.595993 66.751628 
L 222.908794 67.468522 
L 226.221596 68.300855 
L 229.534397 69.257924 
L 232.847199 70.347764 
L 236.16 71.574703 
L 239.472801 72.936632 
L 242.785603 74.421774 
L 246.098404 76.004435 
L 249.411206 77.640635 
L 252.724007 79.269543 
L 256.036809 80.825008 
L 259.34961 82.252237 
L 262.662412 83.517961 
L 265.975213 84.610488 
L 269.288015 85.533631 
L 272.600816 86.299563 
L 275.913618 86.924033 
L 279.226419 87.422685 
L 282.539221 87.811286 
L 285.852022 88.10497 
L 289.164824 88.317997 
L 292.477625 88.463431 
L 295.790427 88.552417 
L 299.103228 88.593896 
L 302.41603 88.595131 
L 305.728831 88.561984 
L 309.041633 88.499245 
L 312.354434 88.411252 
L 315.667236 88.301988 
L 318.980037 88.175231 
L 322.292839 88.034562 
L 325.60564 87.883269 
L 328.918442 87.724397 
L 332.231243 87.560851 
L 335.544045 87.395439 
L 338.856846 87.230903 
L 342.169647 87.069933 
L 345.482449 86.915073 
L 348.79525 86.768735 
L 352.108052 86.633186 
L 355.420853 86.510483 
L 358.733655 86.402545 
L 362.046456 86.311139 
L 365.359258 86.237874 
L 368.672059 86.184285 
L 371.984861 86.15197 
L 375.297662 86.142634 
L 378.610464 86.15801 
L 381.923265 86.199802 
L 385.236067 86.269637 
L 388.548868 86.369085 
L 391.86167 86.4998 
L 395.174471 86.663655 
L 398.487273 86.862684 
L 398.487273 74.265519 
L 398.487273 74.265519 
L 395.174471 74.093523 
L 391.86167 73.953051 
L 388.548868 73.842458 
L 385.236067 73.760255 
L 381.923265 73.705029 
L 378.610464 73.675382 
L 375.297662 73.669843 
L 371.984861 73.68687 
L 368.672059 73.724986 
L 365.359258 73.782783 
L 362.046456 73.85885 
L 358.733655 73.951685 
L 355.420853 74.05965 
L 352.108052 74.180871 
L 348.79525 74.313332 
L 345.482449 74.454918 
L 342.169647 74.603446 
L 338.856846 74.756633 
L 335.544045 74.912137 
L 332.231243 75.067571 
L 328.918442 75.220495 
L 325.60564 75.368396 
L 322.292839 75.50864 
L 318.980037 75.638415 
L 315.667236 75.754711 
L 312.354434 75.854314 
L 309.041633 75.933785 
L 305.728831 75.989385 
L 302.41603 76.016786 
L 299.103228 76.010718 
L 295.790427 75.96483 
L 292.477625 75.871381 
L 289.164824 75.721164 
L 285.852022 75.503742 
L 282.539221 75.207342 
L 279.226419 74.819245 
L 275.913618 74.325974 
L 272.600816 73.713276 
L 269.288015 72.966387 
L 265.975213 72.0721 
L 262.662412 71.021968 
L 259.34961 69.817596 
L 256.036809 68.47629 
L 252.724007 67.034666 
L 249.411206 65.545277 
L 246.098404 64.065648 
L 242.785603 62.645216 
L 239.472801 61.317968 
L 236.16 60.10317 
L 232.847199 59.00904 
L 229.534397 58.036047 
L 226.221596 57.179667 
L 222.908794 56.432713 
L 219.595993 55.787289 
L 216.283191 55.23579 
L 212.97039 54.771395 
L 209.657588 54.388298 
L 206.344787 54.081944 
L 203.031985 53.849131 
L 199.719184 53.687407 
L 196.406382 53.594488 
L 193.093581 53.568 
L 189.780779 53.605888 
L 186.467978 53.706887 
L 183.155176 53.870725 
L 179.842375 54.09803 
L 176.529573 54.389847 
L 173.216772 54.747199 
L 169.90397 55.170767 
L 166.591169 55.661676 
L 163.278367 56.221958 
L 159.965566 56.854518 
L 156.652764 57.562924 
L 153.339963 58.351645 
L 150.027161 59.22597 
L 146.71436 60.192315 
L 143.401558 61.25839 
L 140.088757 62.433837 
L 136.775955 63.73063 
L 133.463154 65.163733 
L 130.150353 66.751118 
L 126.837551 68.513652 
L 123.52475 70.475434 
L 120.211948 72.664628 
L 116.899147 75.114856 
L 113.586345 77.86595 
L 110.273544 80.963861 
L 106.960742 84.463036 
L 103.647941 88.430479 
L 100.335139 92.948718 
L 97.022338 98.121007 
L 93.709536 104.075101 
L 90.396735 110.977999 
L 87.083933 119.078726 
L 83.771132 128.789745 
L 80.45833 140.946829 
L 77.145529 156.989325 
L 73.832727 180.667221 
z
" style="fill:#00ffff;fill-opacity:0.4;"/>
   </g>
   <g id="matplotlib.axis_1">
    <g id="xtick_1">
     <g id="line2d_1">
      <path clip-path="url(#p6794218e3b)" d="M 70.519926 307.584 
L 70.519926 41.472 
" style="fill:none;stroke:#b0b0b0;stroke-linecap:square;stroke-width:0.8;"/>
     </g>
     <g id="line2d_2">
      <defs>
       <path d="M 0 0 
L 0 3.5 
" id="m8d84ef607b" style="stroke:#000000;stroke-width:0.8;"/>
      </defs>
      <g>
       <use style="stroke:#000000;stroke-width:0.8;" x="70.519926" xlink:href="#m8d84ef607b" y="307.584"/>
      </g>
     </g>
     <g id="text_1">
      <!-- 0.0 -->
      <defs>
       <path d="M 31.78125 66.40625 
Q 24.171875 66.40625 20.328125 58.90625 
Q 16.5 51.421875 16.5 36.375 
Q 16.5 21.390625 20.328125 13.890625 
Q 24.171875 6.390625 31.78125 6.390625 
Q 39.453125 6.390625 43.28125 13.890625 
Q 47.125 21.390625 47.125 36.375 
Q 47.125 51.421875 43.28125 58.90625 
Q 39.453125 66.40625 31.78125 66.40625 
z
M 31.78125 74.21875 
Q 44.046875 74.21875 50.515625 64.515625 
Q 56.984375 54.828125 56.984375 36.375 
Q 56.984375 17.96875 50.515625 8.265625 
Q 44.046875 -1.421875 31.78125 -1.421875 
Q 19.53125 -1.421875 13.0625 8.265625 
Q 6.59375 17.96875 6.59375 36.375 
Q 6.59375 54.828125 13.0625 64.515625 
Q 19.53125 74.21875 31.78125 74.21875 
z
" id="DejaVuSans-48"/>
       <path d="M 10.6875 12.40625 
L 21 12.40625 
L 21 0 
L 10.6875 0 
z
" id="DejaVuSans-46"/>
      </defs>
      <g transform="translate(62.568363 322.182437)scale(0.1 -0.1)">
       <use xlink:href="#DejaVuSans-48"/>
       <use x="63.623047" xlink:href="#DejaVuSans-46"/>
       <use x="95.410156" xlink:href="#DejaVuSans-48"/>
      </g>
     </g>
    </g>
    <g id="xtick_2">
     <g id="line2d_3">
      <path clip-path="url(#p6794218e3b)" d="M 136.775955 307.584 
L 136.775955 41.472 
" style="fill:none;stroke:#b0b0b0;stroke-linecap:square;stroke-width:0.8;"/>
     </g>
     <g id="line2d_4">
      <g>
       <use style="stroke:#000000;stroke-width:0.8;" x="136.775955" xlink:href="#m8d84ef607b" y="307.584"/>
      </g>
     </g>
     <g id="text_2">
      <!-- 0.2 -->
      <defs>
       <path d="M 19.1875 8.296875 
L 53.609375 8.296875 
L 53.609375 0 
L 7.328125 0 
L 7.328125 8.296875 
Q 12.9375 14.109375 22.625 23.890625 
Q 32.328125 33.6875 34.8125 36.53125 
Q 39.546875 41.84375 41.421875 45.53125 
Q 43.3125 49.21875 43.3125 52.78125 
Q 43.3125 58.59375 39.234375 62.25 
Q 35.15625 65.921875 28.609375 65.921875 
Q 23.96875 65.921875 18.8125 64.3125 
Q 13.671875 62.703125 7.8125 59.421875 
L 7.8125 69.390625 
Q 13.765625 71.78125 18.9375 73 
Q 24.125 74.21875 28.421875 74.21875 
Q 39.75 74.21875 46.484375 68.546875 
Q 53.21875 62.890625 53.21875 53.421875 
Q 53.21875 48.921875 51.53125 44.890625 
Q 49.859375 40.875 45.40625 35.40625 
Q 44.1875 33.984375 37.640625 27.21875 
Q 31.109375 20.453125 19.1875 8.296875 
z
" id="DejaVuSans-50"/>
      </defs>
      <g transform="translate(128.824393 322.182437)scale(0.1 -0.1)">
       <use xlink:href="#DejaVuSans-48"/>
       <use x="63.623047" xlink:href="#DejaVuSans-46"/>
       <use x="95.410156" xlink:href="#DejaVuSans-50"/>
      </g>
     </g>
    </g>
    <g id="xtick_3">
     <g id="line2d_5">
      <path clip-path="url(#p6794218e3b)" d="M 203.031985 307.584 
L 203.031985 41.472 
" style="fill:none;stroke:#b0b0b0;stroke-linecap:square;stroke-width:0.8;"/>
     </g>
     <g id="line2d_6">
      <g>
       <use style="stroke:#000000;stroke-width:0.8;" x="203.031985" xlink:href="#m8d84ef607b" y="307.584"/>
      </g>
     </g>
     <g id="text_3">
      <!-- 0.4 -->
      <defs>
       <path d="M 37.796875 64.3125 
L 12.890625 25.390625 
L 37.796875 25.390625 
z
M 35.203125 72.90625 
L 47.609375 72.90625 
L 47.609375 25.390625 
L 58.015625 25.390625 
L 58.015625 17.1875 
L 47.609375 17.1875 
L 47.609375 0 
L 37.796875 0 
L 37.796875 17.1875 
L 4.890625 17.1875 
L 4.890625 26.703125 
z
" id="DejaVuSans-52"/>
      </defs>
      <g transform="translate(195.080423 322.182437)scale(0.1 -0.1)">
       <use xlink:href="#DejaVuSans-48"/>
       <use x="63.623047" xlink:href="#DejaVuSans-46"/>
       <use x="95.410156" xlink:href="#DejaVuSans-52"/>
      </g>
     </g>
    </g>
    <g id="xtick_4">
     <g id="line2d_7">
      <path clip-path="url(#p6794218e3b)" d="M 269.288015 307.584 
L 269.288015 41.472 
" style="fill:none;stroke:#b0b0b0;stroke-linecap:square;stroke-width:0.8;"/>
     </g>
     <g id="line2d_8">
      <g>
       <use style="stroke:#000000;stroke-width:0.8;" x="269.288015" xlink:href="#m8d84ef607b" y="307.584"/>
      </g>
     </g>
     <g id="text_4">
      <!-- 0.6 -->
      <defs>
       <path d="M 33.015625 40.375 
Q 26.375 40.375 22.484375 35.828125 
Q 18.609375 31.296875 18.609375 23.390625 
Q 18.609375 15.53125 22.484375 10.953125 
Q 26.375 6.390625 33.015625 6.390625 
Q 39.65625 6.390625 43.53125 10.953125 
Q 47.40625 15.53125 47.40625 23.390625 
Q 47.40625 31.296875 43.53125 35.828125 
Q 39.65625 40.375 33.015625 40.375 
z
M 52.59375 71.296875 
L 52.59375 62.3125 
Q 48.875 64.0625 45.09375 64.984375 
Q 41.3125 65.921875 37.59375 65.921875 
Q 27.828125 65.921875 22.671875 59.328125 
Q 17.53125 52.734375 16.796875 39.40625 
Q 19.671875 43.65625 24.015625 45.921875 
Q 28.375 48.1875 33.59375 48.1875 
Q 44.578125 48.1875 50.953125 41.515625 
Q 57.328125 34.859375 57.328125 23.390625 
Q 57.328125 12.15625 50.6875 5.359375 
Q 44.046875 -1.421875 33.015625 -1.421875 
Q 20.359375 -1.421875 13.671875 8.265625 
Q 6.984375 17.96875 6.984375 36.375 
Q 6.984375 53.65625 15.1875 63.9375 
Q 23.390625 74.21875 37.203125 74.21875 
Q 40.921875 74.21875 44.703125 73.484375 
Q 48.484375 72.75 52.59375 71.296875 
z
" id="DejaVuSans-54"/>
      </defs>
      <g transform="translate(261.336452 322.182437)scale(0.1 -0.1)">
       <use xlink:href="#DejaVuSans-48"/>
       <use x="63.623047" xlink:href="#DejaVuSans-46"/>
       <use x="95.410156" xlink:href="#DejaVuSans-54"/>
      </g>
     </g>
    </g>
    <g id="xtick_5">
     <g id="line2d_9">
      <path clip-path="url(#p6794218e3b)" d="M 335.544045 307.584 
L 335.544045 41.472 
" style="fill:none;stroke:#b0b0b0;stroke-linecap:square;stroke-width:0.8;"/>
     </g>
     <g id="line2d_10">
      <g>
       <use style="stroke:#000000;stroke-width:0.8;" x="335.544045" xlink:href="#m8d84ef607b" y="307.584"/>
      </g>
     </g>
     <g id="text_5">
      <!-- 0.8 -->
      <defs>
       <path d="M 31.78125 34.625 
Q 24.75 34.625 20.71875 30.859375 
Q 16.703125 27.09375 16.703125 20.515625 
Q 16.703125 13.921875 20.71875 10.15625 
Q 24.75 6.390625 31.78125 6.390625 
Q 38.8125 6.390625 42.859375 10.171875 
Q 46.921875 13.96875 46.921875 20.515625 
Q 46.921875 27.09375 42.890625 30.859375 
Q 38.875 34.625 31.78125 34.625 
z
M 21.921875 38.8125 
Q 15.578125 40.375 12.03125 44.71875 
Q 8.5 49.078125 8.5 55.328125 
Q 8.5 64.0625 14.71875 69.140625 
Q 20.953125 74.21875 31.78125 74.21875 
Q 42.671875 74.21875 48.875 69.140625 
Q 55.078125 64.0625 55.078125 55.328125 
Q 55.078125 49.078125 51.53125 44.71875 
Q 48 40.375 41.703125 38.8125 
Q 48.828125 37.15625 52.796875 32.3125 
Q 56.78125 27.484375 56.78125 20.515625 
Q 56.78125 9.90625 50.3125 4.234375 
Q 43.84375 -1.421875 31.78125 -1.421875 
Q 19.734375 -1.421875 13.25 4.234375 
Q 6.78125 9.90625 6.78125 20.515625 
Q 6.78125 27.484375 10.78125 32.3125 
Q 14.796875 37.15625 21.921875 38.8125 
z
M 18.3125 54.390625 
Q 18.3125 48.734375 21.84375 45.5625 
Q 25.390625 42.390625 31.78125 42.390625 
Q 38.140625 42.390625 41.71875 45.5625 
Q 45.3125 48.734375 45.3125 54.390625 
Q 45.3125 60.0625 41.71875 63.234375 
Q 38.140625 66.40625 31.78125 66.40625 
Q 25.390625 66.40625 21.84375 63.234375 
Q 18.3125 60.0625 18.3125 54.390625 
z
" id="DejaVuSans-56"/>
      </defs>
      <g transform="translate(327.592482 322.182437)scale(0.1 -0.1)">
       <use xlink:href="#DejaVuSans-48"/>
       <use x="63.623047" xlink:href="#DejaVuSans-46"/>
       <use x="95.410156" xlink:href="#DejaVuSans-56"/>
      </g>
     </g>
    </g>
    <g id="xtick_6">
     <g id="line2d_11">
      <path clip-path="url(#p6794218e3b)" d="M 401.800074 307.584 
L 401.800074 41.472 
" style="fill:none;stroke:#b0b0b0;stroke-linecap:square;stroke-width:0.8;"/>
     </g>
     <g id="line2d_12">
      <g>
       <use style="stroke:#000000;stroke-width:0.8;" x="401.800074" xlink:href="#m8d84ef607b" y="307.584"/>
      </g>
     </g>
     <g id="text_6">
      <!-- 1.0 -->
      <defs>
       <path d="M 12.40625 8.296875 
L 28.515625 8.296875 
L 28.515625 63.921875 
L 10.984375 60.40625 
L 10.984375 69.390625 
L 28.421875 72.90625 
L 38.28125 72.90625 
L 38.28125 8.296875 
L 54.390625 8.296875 
L 54.390625 0 
L 12.40625 0 
z
" id="DejaVuSans-49"/>
      </defs>
      <g transform="translate(393.848512 322.182437)scale(0.1 -0.1)">
       <use xlink:href="#DejaVuSans-49"/>
       <use x="63.623047" xlink:href="#DejaVuSans-46"/>
       <use x="95.410156" xlink:href="#DejaVuSans-48"/>
      </g>
     </g>
    </g>
    <g id="text_7">
     <!-- $\mathrm{Time \ (seconds)}$ -->
     <defs>
      <path d="M -0.296875 72.90625 
L 61.375 72.90625 
L 61.375 64.59375 
L 35.5 64.59375 
L 35.5 0 
L 25.59375 0 
L 25.59375 64.59375 
L -0.296875 64.59375 
z
" id="DejaVuSans-84"/>
      <path d="M 9.421875 54.6875 
L 18.40625 54.6875 
L 18.40625 0 
L 9.421875 0 
z
M 9.421875 75.984375 
L 18.40625 75.984375 
L 18.40625 64.59375 
L 9.421875 64.59375 
z
" id="DejaVuSans-105"/>
      <path d="M 52 44.1875 
Q 55.375 50.25 60.0625 53.125 
Q 64.75 56 71.09375 56 
Q 79.640625 56 84.28125 50.015625 
Q 88.921875 44.046875 88.921875 33.015625 
L 88.921875 0 
L 79.890625 0 
L 79.890625 32.71875 
Q 79.890625 40.578125 77.09375 44.375 
Q 74.3125 48.1875 68.609375 48.1875 
Q 61.625 48.1875 57.5625 43.546875 
Q 53.515625 38.921875 53.515625 30.90625 
L 53.515625 0 
L 44.484375 0 
L 44.484375 32.71875 
Q 44.484375 40.625 41.703125 44.40625 
Q 38.921875 48.1875 33.109375 48.1875 
Q 26.21875 48.1875 22.15625 43.53125 
Q 18.109375 38.875 18.109375 30.90625 
L 18.109375 0 
L 9.078125 0 
L 9.078125 54.6875 
L 18.109375 54.6875 
L 18.109375 46.1875 
Q 21.1875 51.21875 25.484375 53.609375 
Q 29.78125 56 35.6875 56 
Q 41.65625 56 45.828125 52.96875 
Q 50 49.953125 52 44.1875 
z
" id="DejaVuSans-109"/>
      <path d="M 56.203125 29.59375 
L 56.203125 25.203125 
L 14.890625 25.203125 
Q 15.484375 15.921875 20.484375 11.0625 
Q 25.484375 6.203125 34.421875 6.203125 
Q 39.59375 6.203125 44.453125 7.46875 
Q 49.3125 8.734375 54.109375 11.28125 
L 54.109375 2.78125 
Q 49.265625 0.734375 44.1875 -0.34375 
Q 39.109375 -1.421875 33.890625 -1.421875 
Q 20.796875 -1.421875 13.15625 6.1875 
Q 5.515625 13.8125 5.515625 26.8125 
Q 5.515625 40.234375 12.765625 48.109375 
Q 20.015625 56 32.328125 56 
Q 43.359375 56 49.78125 48.890625 
Q 56.203125 41.796875 56.203125 29.59375 
z
M 47.21875 32.234375 
Q 47.125 39.59375 43.09375 43.984375 
Q 39.0625 48.390625 32.421875 48.390625 
Q 24.90625 48.390625 20.390625 44.140625 
Q 15.875 39.890625 15.1875 32.171875 
z
" id="DejaVuSans-101"/>
      <path d="M 31 75.875 
Q 24.46875 64.65625 21.28125 53.65625 
Q 18.109375 42.671875 18.109375 31.390625 
Q 18.109375 20.125 21.3125 9.0625 
Q 24.515625 -2 31 -13.1875 
L 23.1875 -13.1875 
Q 15.875 -1.703125 12.234375 9.375 
Q 8.59375 20.453125 8.59375 31.390625 
Q 8.59375 42.28125 12.203125 53.3125 
Q 15.828125 64.359375 23.1875 75.875 
z
" id="DejaVuSans-40"/>
      <path d="M 44.28125 53.078125 
L 44.28125 44.578125 
Q 40.484375 46.53125 36.375 47.5 
Q 32.28125 48.484375 27.875 48.484375 
Q 21.1875 48.484375 17.84375 46.4375 
Q 14.5 44.390625 14.5 40.28125 
Q 14.5 37.15625 16.890625 35.375 
Q 19.28125 33.59375 26.515625 31.984375 
L 29.59375 31.296875 
Q 39.15625 29.25 43.1875 25.515625 
Q 47.21875 21.78125 47.21875 15.09375 
Q 47.21875 7.46875 41.1875 3.015625 
Q 35.15625 -1.421875 24.609375 -1.421875 
Q 20.21875 -1.421875 15.453125 -0.5625 
Q 10.6875 0.296875 5.421875 2 
L 5.421875 11.28125 
Q 10.40625 8.6875 15.234375 7.390625 
Q 20.0625 6.109375 24.8125 6.109375 
Q 31.15625 6.109375 34.5625 8.28125 
Q 37.984375 10.453125 37.984375 14.40625 
Q 37.984375 18.0625 35.515625 20.015625 
Q 33.0625 21.96875 24.703125 23.78125 
L 21.578125 24.515625 
Q 13.234375 26.265625 9.515625 29.90625 
Q 5.8125 33.546875 5.8125 39.890625 
Q 5.8125 47.609375 11.28125 51.796875 
Q 16.75 56 26.8125 56 
Q 31.78125 56 36.171875 55.265625 
Q 40.578125 54.546875 44.28125 53.078125 
z
" id="DejaVuSans-115"/>
      <path d="M 48.78125 52.59375 
L 48.78125 44.1875 
Q 44.96875 46.296875 41.140625 47.34375 
Q 37.3125 48.390625 33.40625 48.390625 
Q 24.65625 48.390625 19.8125 42.84375 
Q 14.984375 37.3125 14.984375 27.296875 
Q 14.984375 17.28125 19.8125 11.734375 
Q 24.65625 6.203125 33.40625 6.203125 
Q 37.3125 6.203125 41.140625 7.25 
Q 44.96875 8.296875 48.78125 10.40625 
L 48.78125 2.09375 
Q 45.015625 0.34375 40.984375 -0.53125 
Q 36.96875 -1.421875 32.421875 -1.421875 
Q 20.0625 -1.421875 12.78125 6.34375 
Q 5.515625 14.109375 5.515625 27.296875 
Q 5.515625 40.671875 12.859375 48.328125 
Q 20.21875 56 33.015625 56 
Q 37.15625 56 41.109375 55.140625 
Q 45.0625 54.296875 48.78125 52.59375 
z
" id="DejaVuSans-99"/>
      <path d="M 30.609375 48.390625 
Q 23.390625 48.390625 19.1875 42.75 
Q 14.984375 37.109375 14.984375 27.296875 
Q 14.984375 17.484375 19.15625 11.84375 
Q 23.34375 6.203125 30.609375 6.203125 
Q 37.796875 6.203125 41.984375 11.859375 
Q 46.1875 17.53125 46.1875 27.296875 
Q 46.1875 37.015625 41.984375 42.703125 
Q 37.796875 48.390625 30.609375 48.390625 
z
M 30.609375 56 
Q 42.328125 56 49.015625 48.375 
Q 55.71875 40.765625 55.71875 27.296875 
Q 55.71875 13.875 49.015625 6.21875 
Q 42.328125 -1.421875 30.609375 -1.421875 
Q 18.84375 -1.421875 12.171875 6.21875 
Q 5.515625 13.875 5.515625 27.296875 
Q 5.515625 40.765625 12.171875 48.375 
Q 18.84375 56 30.609375 56 
z
" id="DejaVuSans-111"/>
      <path d="M 54.890625 33.015625 
L 54.890625 0 
L 45.90625 0 
L 45.90625 32.71875 
Q 45.90625 40.484375 42.875 44.328125 
Q 39.84375 48.1875 33.796875 48.1875 
Q 26.515625 48.1875 22.3125 43.546875 
Q 18.109375 38.921875 18.109375 30.90625 
L 18.109375 0 
L 9.078125 0 
L 9.078125 54.6875 
L 18.109375 54.6875 
L 18.109375 46.1875 
Q 21.34375 51.125 25.703125 53.5625 
Q 30.078125 56 35.796875 56 
Q 45.21875 56 50.046875 50.171875 
Q 54.890625 44.34375 54.890625 33.015625 
z
" id="DejaVuSans-110"/>
      <path d="M 45.40625 46.390625 
L 45.40625 75.984375 
L 54.390625 75.984375 
L 54.390625 0 
L 45.40625 0 
L 45.40625 8.203125 
Q 42.578125 3.328125 38.25 0.953125 
Q 33.9375 -1.421875 27.875 -1.421875 
Q 17.96875 -1.421875 11.734375 6.484375 
Q 5.515625 14.40625 5.515625 27.296875 
Q 5.515625 40.1875 11.734375 48.09375 
Q 17.96875 56 27.875 56 
Q 33.9375 56 38.25 53.625 
Q 42.578125 51.265625 45.40625 46.390625 
z
M 14.796875 27.296875 
Q 14.796875 17.390625 18.875 11.75 
Q 22.953125 6.109375 30.078125 6.109375 
Q 37.203125 6.109375 41.296875 11.75 
Q 45.40625 17.390625 45.40625 27.296875 
Q 45.40625 37.203125 41.296875 42.84375 
Q 37.203125 48.484375 30.078125 48.484375 
Q 22.953125 48.484375 18.875 42.84375 
Q 14.796875 37.203125 14.796875 27.296875 
z
" id="DejaVuSans-100"/>
      <path d="M 8.015625 75.875 
L 15.828125 75.875 
Q 23.140625 64.359375 26.78125 53.3125 
Q 30.421875 42.28125 30.421875 31.390625 
Q 30.421875 20.453125 26.78125 9.375 
Q 23.140625 -1.703125 15.828125 -13.1875 
L 8.015625 -13.1875 
Q 14.5 -2 17.703125 9.0625 
Q 20.90625 20.125 20.90625 31.390625 
Q 20.90625 42.671875 17.703125 53.65625 
Q 14.5 64.65625 8.015625 75.875 
z
" id="DejaVuSans-41"/>
     </defs>
     <g transform="translate(197.76 335.860562)scale(0.1 -0.1)">
      <use transform="translate(0 0.015625)" xlink:href="#DejaVuSans-84"/>
      <use transform="translate(61.083984 0.015625)" xlink:href="#DejaVuSans-105"/>
      <use transform="translate(88.867188 0.015625)" xlink:href="#DejaVuSans-109"/>
      <use transform="translate(186.279297 0.015625)" xlink:href="#DejaVuSans-101"/>
      <use transform="translate(280.273113 0.015625)" xlink:href="#DejaVuSans-40"/>
      <use transform="translate(319.286785 0.015625)" xlink:href="#DejaVuSans-115"/>
      <use transform="translate(371.386394 0.015625)" xlink:href="#DejaVuSans-101"/>
      <use transform="translate(432.909832 0.015625)" xlink:href="#DejaVuSans-99"/>
      <use transform="translate(487.8903 0.015625)" xlink:href="#DejaVuSans-111"/>
      <use transform="translate(549.071941 0.015625)" xlink:href="#DejaVuSans-110"/>
      <use transform="translate(612.450847 0.015625)" xlink:href="#DejaVuSans-100"/>
      <use transform="translate(675.92741 0.015625)" xlink:href="#DejaVuSans-115"/>
      <use transform="translate(728.027019 0.015625)" xlink:href="#DejaVuSans-41"/>
     </g>
    </g>
   </g>
   <g id="matplotlib.axis_2">
    <g id="ytick_1">
     <g id="line2d_13">
      <path clip-path="url(#p6794218e3b)" d="M 57.6 208.447158 
L 414.72 208.447158 
" style="fill:none;stroke:#b0b0b0;stroke-linecap:square;stroke-width:0.8;"/>
     </g>
     <g id="line2d_14">
      <defs>
       <path d="M 0 0 
L -3.5 0 
" id="me4ac35e882" style="stroke:#000000;stroke-width:0.8;"/>
      </defs>
      <g>
       <use style="stroke:#000000;stroke-width:0.8;" x="57.6" xlink:href="#me4ac35e882" y="208.447158"/>
      </g>
     </g>
     <g id="text_8">
      <!-- $\mathdefault{10^{-1}}$ -->
      <defs>
       <path d="M 10.59375 35.5 
L 73.1875 35.5 
L 73.1875 27.203125 
L 10.59375 27.203125 
z
" id="DejaVuSans-8722"/>
      </defs>
      <g transform="translate(27.1 212.246376)scale(0.1 -0.1)">
       <use transform="translate(0 0.684375)" xlink:href="#DejaVuSans-49"/>
       <use transform="translate(63.623047 0.684375)" xlink:href="#DejaVuSans-48"/>
       <use transform="translate(128.203125 38.965625)scale(0.7)" xlink:href="#DejaVuSans-8722"/>
       <use transform="translate(186.855469 38.965625)scale(0.7)" xlink:href="#DejaVuSans-49"/>
      </g>
     </g>
    </g>
    <g id="ytick_2">
     <g id="line2d_15">
      <defs>
       <path d="M 0 0 
L -2 0 
" id="mdd93b59137" style="stroke:#000000;stroke-width:0.6;"/>
      </defs>
      <g>
       <use style="stroke:#000000;stroke-width:0.6;" x="57.6" xlink:href="#mdd93b59137" y="293.645886"/>
      </g>
     </g>
    </g>
    <g id="ytick_3">
     <g id="line2d_16">
      <g>
       <use style="stroke:#000000;stroke-width:0.6;" x="57.6" xlink:href="#mdd93b59137" y="272.897508"/>
      </g>
     </g>
    </g>
    <g id="ytick_4">
     <g id="line2d_17">
      <g>
       <use style="stroke:#000000;stroke-width:0.6;" x="57.6" xlink:href="#mdd93b59137" y="255.944848"/>
      </g>
     </g>
    </g>
    <g id="ytick_5">
     <g id="line2d_18">
      <g>
       <use style="stroke:#000000;stroke-width:0.6;" x="57.6" xlink:href="#mdd93b59137" y="241.611579"/>
      </g>
     </g>
    </g>
    <g id="ytick_6">
     <g id="line2d_19">
      <g>
       <use style="stroke:#000000;stroke-width:0.6;" x="57.6" xlink:href="#mdd93b59137" y="229.195536"/>
      </g>
     </g>
    </g>
    <g id="ytick_7">
     <g id="line2d_20">
      <g>
       <use style="stroke:#000000;stroke-width:0.6;" x="57.6" xlink:href="#mdd93b59137" y="218.24381"/>
      </g>
     </g>
    </g>
    <g id="ytick_8">
     <g id="line2d_21">
      <g>
       <use style="stroke:#000000;stroke-width:0.6;" x="57.6" xlink:href="#mdd93b59137" y="143.996808"/>
      </g>
     </g>
    </g>
    <g id="ytick_9">
     <g id="line2d_22">
      <g>
       <use style="stroke:#000000;stroke-width:0.6;" x="57.6" xlink:href="#mdd93b59137" y="106.29577"/>
      </g>
     </g>
    </g>
    <g id="ytick_10">
     <g id="line2d_23">
      <g>
       <use style="stroke:#000000;stroke-width:0.6;" x="57.6" xlink:href="#mdd93b59137" y="79.546458"/>
      </g>
     </g>
    </g>
    <g id="ytick_11">
     <g id="line2d_24">
      <g>
       <use style="stroke:#000000;stroke-width:0.6;" x="57.6" xlink:href="#mdd93b59137" y="58.798079"/>
      </g>
     </g>
    </g>
    <g id="ytick_12">
     <g id="line2d_25">
      <g>
       <use style="stroke:#000000;stroke-width:0.6;" x="57.6" xlink:href="#mdd93b59137" y="41.84542"/>
      </g>
     </g>
    </g>
    <g id="text_9">
     <!-- $\mathrm{Relative \ error}$ ($N_{\mathrm{train}}=1$) -->
     <defs>
      <path d="M 44.390625 34.1875 
Q 47.5625 33.109375 50.5625 29.59375 
Q 53.5625 26.078125 56.59375 19.921875 
L 66.609375 0 
L 56 0 
L 46.6875 18.703125 
Q 43.0625 26.03125 39.671875 28.421875 
Q 36.28125 30.8125 30.421875 30.8125 
L 19.671875 30.8125 
L 19.671875 0 
L 9.8125 0 
L 9.8125 72.90625 
L 32.078125 72.90625 
Q 44.578125 72.90625 50.734375 67.671875 
Q 56.890625 62.453125 56.890625 51.90625 
Q 56.890625 45.015625 53.6875 40.46875 
Q 50.484375 35.9375 44.390625 34.1875 
z
M 19.671875 64.796875 
L 19.671875 38.921875 
L 32.078125 38.921875 
Q 39.203125 38.921875 42.84375 42.21875 
Q 46.484375 45.515625 46.484375 51.90625 
Q 46.484375 58.296875 42.84375 61.546875 
Q 39.203125 64.796875 32.078125 64.796875 
z
" id="DejaVuSans-82"/>
      <path d="M 9.421875 75.984375 
L 18.40625 75.984375 
L 18.40625 0 
L 9.421875 0 
z
" id="DejaVuSans-108"/>
      <path d="M 34.28125 27.484375 
Q 23.390625 27.484375 19.1875 25 
Q 14.984375 22.515625 14.984375 16.5 
Q 14.984375 11.71875 18.140625 8.90625 
Q 21.296875 6.109375 26.703125 6.109375 
Q 34.1875 6.109375 38.703125 11.40625 
Q 43.21875 16.703125 43.21875 25.484375 
L 43.21875 27.484375 
z
M 52.203125 31.203125 
L 52.203125 0 
L 43.21875 0 
L 43.21875 8.296875 
Q 40.140625 3.328125 35.546875 0.953125 
Q 30.953125 -1.421875 24.3125 -1.421875 
Q 15.921875 -1.421875 10.953125 3.296875 
Q 6 8.015625 6 15.921875 
Q 6 25.140625 12.171875 29.828125 
Q 18.359375 34.515625 30.609375 34.515625 
L 43.21875 34.515625 
L 43.21875 35.40625 
Q 43.21875 41.609375 39.140625 45 
Q 35.0625 48.390625 27.6875 48.390625 
Q 23 48.390625 18.546875 47.265625 
Q 14.109375 46.140625 10.015625 43.890625 
L 10.015625 52.203125 
Q 14.9375 54.109375 19.578125 55.046875 
Q 24.21875 56 28.609375 56 
Q 40.484375 56 46.34375 49.84375 
Q 52.203125 43.703125 52.203125 31.203125 
z
" id="DejaVuSans-97"/>
      <path d="M 18.3125 70.21875 
L 18.3125 54.6875 
L 36.8125 54.6875 
L 36.8125 47.703125 
L 18.3125 47.703125 
L 18.3125 18.015625 
Q 18.3125 11.328125 20.140625 9.421875 
Q 21.96875 7.515625 27.59375 7.515625 
L 36.8125 7.515625 
L 36.8125 0 
L 27.59375 0 
Q 17.1875 0 13.234375 3.875 
Q 9.28125 7.765625 9.28125 18.015625 
L 9.28125 47.703125 
L 2.6875 47.703125 
L 2.6875 54.6875 
L 9.28125 54.6875 
L 9.28125 70.21875 
z
" id="DejaVuSans-116"/>
      <path d="M 2.984375 54.6875 
L 12.5 54.6875 
L 29.59375 8.796875 
L 46.6875 54.6875 
L 56.203125 54.6875 
L 35.6875 0 
L 23.484375 0 
z
" id="DejaVuSans-118"/>
      <path d="M 41.109375 46.296875 
Q 39.59375 47.171875 37.8125 47.578125 
Q 36.03125 48 33.890625 48 
Q 26.265625 48 22.1875 43.046875 
Q 18.109375 38.09375 18.109375 28.8125 
L 18.109375 0 
L 9.078125 0 
L 9.078125 54.6875 
L 18.109375 54.6875 
L 18.109375 46.1875 
Q 20.953125 51.171875 25.484375 53.578125 
Q 30.03125 56 36.53125 56 
Q 37.453125 56 38.578125 55.875 
Q 39.703125 55.765625 41.0625 55.515625 
z
" id="DejaVuSans-114"/>
      <path id="DejaVuSans-32"/>
      <path d="M 16.890625 72.90625 
L 30.171875 72.90625 
L 50.296875 10.40625 
L 62.5 72.90625 
L 72.125 72.90625 
L 57.90625 0 
L 44.578125 0 
L 24.515625 62.890625 
L 12.3125 0 
L 2.6875 0 
z
" id="DejaVuSans-Oblique-78"/>
      <path d="M 10.59375 45.40625 
L 73.1875 45.40625 
L 73.1875 37.203125 
L 10.59375 37.203125 
z
M 10.59375 25.484375 
L 73.1875 25.484375 
L 73.1875 17.1875 
L 10.59375 17.1875 
z
" id="DejaVuSans-61"/>
     </defs>
     <g transform="translate(21.020312 235.678)rotate(-90)scale(0.1 -0.1)">
      <use transform="translate(0 0.015625)" xlink:href="#DejaVuSans-82"/>
      <use transform="translate(69.482422 0.015625)" xlink:href="#DejaVuSans-101"/>
      <use transform="translate(131.005859 0.015625)" xlink:href="#DejaVuSans-108"/>
      <use transform="translate(158.789062 0.015625)" xlink:href="#DejaVuSans-97"/>
      <use transform="translate(220.068359 0.015625)" xlink:href="#DejaVuSans-116"/>
      <use transform="translate(259.277344 0.015625)" xlink:href="#DejaVuSans-105"/>
      <use transform="translate(287.060547 0.015625)" xlink:href="#DejaVuSans-118"/>
      <use transform="translate(346.240234 0.015625)" xlink:href="#DejaVuSans-101"/>
      <use transform="translate(440.23405 0.015625)" xlink:href="#DejaVuSans-101"/>
      <use transform="translate(501.757488 0.015625)" xlink:href="#DejaVuSans-114"/>
      <use transform="translate(542.870769 0.015625)" xlink:href="#DejaVuSans-114"/>
      <use transform="translate(583.98405 0.015625)" xlink:href="#DejaVuSans-111"/>
      <use transform="translate(645.165691 0.015625)" xlink:href="#DejaVuSans-114"/>
      <use transform="translate(686.278972 0.015625)" xlink:href="#DejaVuSans-32"/>
      <use transform="translate(718.066082 0.015625)" xlink:href="#DejaVuSans-40"/>
      <use transform="translate(757.079753 0.015625)" xlink:href="#DejaVuSans-Oblique-78"/>
      <use transform="translate(831.884441 -16.390625)scale(0.7)" xlink:href="#DejaVuSans-116"/>
      <use transform="translate(859.33073 -16.390625)scale(0.7)" xlink:href="#DejaVuSans-114"/>
      <use transform="translate(888.110027 -16.390625)scale(0.7)" xlink:href="#DejaVuSans-97"/>
      <use transform="translate(931.005535 -16.390625)scale(0.7)" xlink:href="#DejaVuSans-105"/>
      <use transform="translate(950.453777 -16.390625)scale(0.7)" xlink:href="#DejaVuSans-110"/>
      <use transform="translate(1017.035808 0.015625)" xlink:href="#DejaVuSans-61"/>
      <use transform="translate(1120.307292 0.015625)" xlink:href="#DejaVuSans-49"/>
      <use transform="translate(1183.930339 0.015625)" xlink:href="#DejaVuSans-41"/>
     </g>
    </g>
   </g>
   <g id="line2d_26">
    <path clip-path="url(#p6794218e3b)" d="M 73.832724 285.710417 
L 77.145522 250.715538 
L 80.458321 224.997443 
L 83.771119 204.6914 
L 87.083917 188.079529 
L 90.396716 174.225841 
L 93.709554 162.53616 
L 97.022352 152.588638 
L 100.33515 144.062823 
L 103.647949 136.707356 
L 106.960747 130.322101 
L 110.273545 124.746398 
L 113.586344 119.850717 
L 116.899142 115.530094 
L 120.21194 111.699225 
L 123.524738 108.288304 
L 126.837537 105.239977 
L 130.150375 102.506941 
L 133.463173 100.049928 
L 136.775971 97.836395 
L 140.08877 95.839277 
L 143.401568 94.035998 
L 146.714366 92.407628 
L 150.027165 90.938419 
L 153.339963 89.615271 
L 156.652761 88.427376 
L 159.96556 87.36591 
L 163.278358 86.423742 
L 166.591156 85.595354 
L 169.903955 84.876686 
L 173.216753 84.265038 
L 176.529551 83.758901 
L 179.842389 83.357988 
L 183.155187 83.063177 
L 186.467986 82.87633 
L 189.780784 82.800271 
L 193.093582 82.838706 
L 196.406381 82.996182 
L 199.719179 83.277799 
L 203.031977 83.688817 
L 206.344776 84.234104 
L 209.657574 84.916708 
L 212.970412 85.735779 
L 216.28321 86.683435 
L 219.596008 87.740583 
L 232.847202 92.213402 
L 236.16 93.114174 
L 239.472798 93.832075 
L 242.785597 94.348093 
L 246.098395 94.661916 
L 249.411193 94.785953 
L 252.723992 94.739199 
L 256.03679 94.542928 
L 259.349588 94.218384 
L 262.662387 93.785492 
L 265.975185 93.262228 
L 272.600821 92.006184 
L 279.226418 90.55354 
L 289.164852 88.164977 
L 322.292835 79.928486 
L 332.23123 77.614018 
L 342.169625 75.423105 
L 352.10806 73.371211 
L 362.046455 71.472403 
L 371.984889 69.742834 
L 378.610486 68.69401 
L 385.236083 67.738336 
L 391.861679 66.887033 
L 398.487276 66.155144 
" style="fill:none;stroke:#ff0000;stroke-linecap:square;stroke-width:1.5;"/>
   </g>
   <g id="line2d_27">
    <path clip-path="url(#p6794218e3b)" d="M 73.832724 287.483018 
L 77.145522 252.310496 
L 80.458321 226.41757 
L 83.771119 205.941347 
L 87.083917 189.165748 
L 90.396716 175.156627 
L 93.709554 163.320912 
L 97.022352 153.237349 
L 100.33515 144.585833 
L 103.647949 137.114898 
L 106.960747 130.623725 
L 110.273545 124.950755 
L 113.586344 119.965391 
L 116.899142 115.561407 
L 120.21194 111.652237 
L 123.524738 108.166967 
L 126.837537 105.047158 
L 130.150375 102.24454 
L 133.463173 99.719173 
L 136.775971 97.437915 
L 140.08877 95.373236 
L 143.401568 93.502166 
L 146.714366 91.805625 
L 150.027165 90.26758 
L 153.339963 88.874529 
L 156.652761 87.615217 
L 159.96556 86.480198 
L 163.278358 85.461645 
L 166.591156 84.553089 
L 169.903955 83.749456 
L 173.216753 83.046868 
L 176.529551 82.442547 
L 179.842389 81.934693 
L 183.155187 81.522606 
L 186.467986 81.20628 
L 189.780784 80.986657 
L 193.093582 80.865297 
L 196.406381 80.844599 
L 199.719179 80.92775 
L 203.031977 81.118532 
L 206.344776 81.421382 
L 209.657574 81.841028 
L 212.970412 82.38249 
L 216.28321 83.050062 
L 219.596008 83.846137 
L 222.908807 84.769211 
L 226.221605 85.810662 
L 232.847202 88.156245 
L 239.472798 90.571042 
L 242.785597 91.674518 
L 246.098395 92.645272 
L 249.411193 93.450406 
L 252.723992 94.07362 
L 256.03679 94.514498 
L 259.349588 94.78379 
L 262.662387 94.898307 
L 265.975185 94.877227 
L 269.288023 94.739452 
L 272.600821 94.502578 
L 275.913619 94.182399 
L 282.539216 93.345717 
L 289.164852 92.318936 
L 295.790449 91.167615 
L 305.728844 89.307851 
L 335.544029 83.60002 
L 345.482424 81.832401 
L 355.420858 80.197978 
L 362.046455 79.200887 
L 368.672051 78.291644 
L 375.297688 77.483189 
L 381.923284 76.790045 
L 388.548881 76.228723 
L 395.174478 75.81799 
L 398.487276 75.675653 
" style="fill:none;stroke:#0000ff;stroke-linecap:square;stroke-width:1.5;"/>
   </g>
   <g id="line2d_28">
    <path clip-path="url(#p6794218e3b)" d="M 73.832724 195.698037 
L 77.145522 169.553611 
L 80.458321 151.622558 
L 83.771119 138.212782 
L 87.083917 127.710467 
L 90.396716 119.128401 
L 93.709554 111.898835 
L 97.022352 105.689815 
L 100.33515 100.295505 
L 103.647949 95.573278 
L 106.960747 91.415337 
L 110.273545 87.73885 
L 113.586344 84.477181 
L 116.899142 81.576283 
L 120.21194 78.990021 
L 123.524738 76.677591 
L 126.837537 74.604238 
L 130.150375 72.740726 
L 133.463173 71.06172 
L 136.775971 69.545137 
L 140.08877 68.172224 
L 143.401568 66.927277 
L 146.714366 65.7979 
L 150.027165 64.774164 
L 153.339963 63.847974 
L 156.652761 63.012616 
L 159.96556 62.262559 
L 163.278358 61.593075 
L 166.591156 61.000337 
L 169.903955 60.481334 
L 173.216753 60.033947 
L 176.529551 59.656874 
L 179.842389 59.349048 
L 183.155187 59.108954 
L 186.467986 58.935321 
L 189.780784 58.827518 
L 193.093582 58.78602 
L 196.406381 58.812307 
L 199.719179 58.908578 
L 203.031977 59.07723 
L 206.344776 59.320408 
L 209.657574 59.640721 
L 212.970412 60.041782 
L 216.28321 60.5287 
L 219.596008 61.107941 
L 222.908807 61.786993 
L 226.221605 62.574087 
L 229.534403 63.477791 
L 232.847202 64.505667 
L 236.16 65.662147 
L 239.472798 66.945938 
L 242.785597 68.347181 
L 249.411193 71.396419 
L 256.03679 74.445788 
L 259.349588 75.827201 
L 262.662387 77.060205 
L 265.975185 78.130113 
L 269.288023 79.037852 
L 272.600821 79.793626 
L 275.913619 80.411807 
L 279.226418 80.907586 
L 282.539216 81.295911 
L 285.852014 81.591055 
L 289.164852 81.806419 
L 295.790449 82.045771 
L 302.416045 82.093442 
L 309.041642 82.004419 
L 318.980037 81.695704 
L 332.23123 81.104547 
L 352.10806 80.198745 
L 362.046455 79.876704 
L 371.984889 79.710705 
L 378.610486 79.707388 
L 385.236083 79.804726 
L 391.861679 80.014957 
L 398.487276 80.350936 
" style="fill:none;stroke:#00ffff;stroke-linecap:square;stroke-width:1.5;"/>
   </g>
   <g id="patch_3">
    <path d="M 57.6 307.584 
L 57.6 41.472 
" style="fill:none;stroke:#000000;stroke-linecap:square;stroke-linejoin:miter;stroke-width:0.8;"/>
   </g>
   <g id="patch_4">
    <path d="M 414.72 307.584 
L 414.72 41.472 
" style="fill:none;stroke:#000000;stroke-linecap:square;stroke-linejoin:miter;stroke-width:0.8;"/>
   </g>
   <g id="patch_5">
    <path d="M 57.6 307.584 
L 414.72 307.584 
" style="fill:none;stroke:#000000;stroke-linecap:square;stroke-linejoin:miter;stroke-width:0.8;"/>
   </g>
   <g id="patch_6">
    <path d="M 57.6 41.472 
L 414.72 41.472 
" style="fill:none;stroke:#000000;stroke-linecap:square;stroke-linejoin:miter;stroke-width:0.8;"/>
   </g>
   <g id="legend_1">
    <g id="patch_7">
     <path d="M 289.835625 302.584 
L 407.72 302.584 
Q 409.72 302.584 409.72 300.584 
L 409.72 257.549625 
Q 409.72 255.549625 407.72 255.549625 
L 289.835625 255.549625 
Q 287.835625 255.549625 287.835625 257.549625 
L 287.835625 300.584 
Q 287.835625 302.584 289.835625 302.584 
z
" style="fill:#ffffff;opacity:0.8;stroke:#cccccc;stroke-linejoin:miter;"/>
    </g>
    <g id="line2d_29">
     <path d="M 291.835625 263.648062 
L 311.835625 263.648062 
" style="fill:none;stroke:#ff0000;stroke-linecap:square;stroke-width:1.5;"/>
    </g>
    <g id="line2d_30"/>
    <g id="text_10">
     <!-- No grad. reg. -->
     <defs>
      <path d="M 9.8125 72.90625 
L 23.09375 72.90625 
L 55.421875 11.921875 
L 55.421875 72.90625 
L 64.984375 72.90625 
L 64.984375 0 
L 51.703125 0 
L 19.390625 60.984375 
L 19.390625 0 
L 9.8125 0 
z
" id="DejaVuSans-78"/>
      <path d="M 45.40625 27.984375 
Q 45.40625 37.75 41.375 43.109375 
Q 37.359375 48.484375 30.078125 48.484375 
Q 22.859375 48.484375 18.828125 43.109375 
Q 14.796875 37.75 14.796875 27.984375 
Q 14.796875 18.265625 18.828125 12.890625 
Q 22.859375 7.515625 30.078125 7.515625 
Q 37.359375 7.515625 41.375 12.890625 
Q 45.40625 18.265625 45.40625 27.984375 
z
M 54.390625 6.78125 
Q 54.390625 -7.171875 48.1875 -13.984375 
Q 42 -20.796875 29.203125 -20.796875 
Q 24.46875 -20.796875 20.265625 -20.09375 
Q 16.0625 -19.390625 12.109375 -17.921875 
L 12.109375 -9.1875 
Q 16.0625 -11.328125 19.921875 -12.34375 
Q 23.78125 -13.375 27.78125 -13.375 
Q 36.625 -13.375 41.015625 -8.765625 
Q 45.40625 -4.15625 45.40625 5.171875 
L 45.40625 9.625 
Q 42.625 4.78125 38.28125 2.390625 
Q 33.9375 0 27.875 0 
Q 17.828125 0 11.671875 7.65625 
Q 5.515625 15.328125 5.515625 27.984375 
Q 5.515625 40.671875 11.671875 48.328125 
Q 17.828125 56 27.875 56 
Q 33.9375 56 38.28125 53.609375 
Q 42.625 51.21875 45.40625 46.390625 
L 45.40625 54.6875 
L 54.390625 54.6875 
z
" id="DejaVuSans-103"/>
     </defs>
     <g transform="translate(319.835625 267.148062)scale(0.1 -0.1)">
      <use xlink:href="#DejaVuSans-78"/>
      <use x="74.804688" xlink:href="#DejaVuSans-111"/>
      <use x="135.986328" xlink:href="#DejaVuSans-32"/>
      <use x="167.773438" xlink:href="#DejaVuSans-103"/>
      <use x="231.25" xlink:href="#DejaVuSans-114"/>
      <use x="272.363281" xlink:href="#DejaVuSans-97"/>
      <use x="333.642578" xlink:href="#DejaVuSans-100"/>
      <use x="397.119141" xlink:href="#DejaVuSans-46"/>
      <use x="428.90625" xlink:href="#DejaVuSans-32"/>
      <use x="460.693359" xlink:href="#DejaVuSans-114"/>
      <use x="501.775391" xlink:href="#DejaVuSans-101"/>
      <use x="563.298828" xlink:href="#DejaVuSans-103"/>
      <use x="626.775391" xlink:href="#DejaVuSans-46"/>
     </g>
    </g>
    <g id="line2d_31">
     <path d="M 291.835625 278.326188 
L 311.835625 278.326188 
" style="fill:none;stroke:#0000ff;stroke-linecap:square;stroke-width:1.5;"/>
    </g>
    <g id="line2d_32"/>
    <g id="text_11">
     <!-- Grad. reg -->
     <defs>
      <path d="M 59.515625 10.40625 
L 59.515625 29.984375 
L 43.40625 29.984375 
L 43.40625 38.09375 
L 69.28125 38.09375 
L 69.28125 6.78125 
Q 63.578125 2.734375 56.6875 0.65625 
Q 49.8125 -1.421875 42 -1.421875 
Q 24.90625 -1.421875 15.25 8.5625 
Q 5.609375 18.5625 5.609375 36.375 
Q 5.609375 54.25 15.25 64.234375 
Q 24.90625 74.21875 42 74.21875 
Q 49.125 74.21875 55.546875 72.453125 
Q 61.96875 70.703125 67.390625 67.28125 
L 67.390625 56.78125 
Q 61.921875 61.421875 55.765625 63.765625 
Q 49.609375 66.109375 42.828125 66.109375 
Q 29.4375 66.109375 22.71875 58.640625 
Q 16.015625 51.171875 16.015625 36.375 
Q 16.015625 21.625 22.71875 14.15625 
Q 29.4375 6.6875 42.828125 6.6875 
Q 48.046875 6.6875 52.140625 7.59375 
Q 56.25 8.5 59.515625 10.40625 
z
" id="DejaVuSans-71"/>
     </defs>
     <g transform="translate(319.835625 281.826188)scale(0.1 -0.1)">
      <use xlink:href="#DejaVuSans-71"/>
      <use x="77.490234" xlink:href="#DejaVuSans-114"/>
      <use x="118.603516" xlink:href="#DejaVuSans-97"/>
      <use x="179.882812" xlink:href="#DejaVuSans-100"/>
      <use x="243.359375" xlink:href="#DejaVuSans-46"/>
      <use x="275.146484" xlink:href="#DejaVuSans-32"/>
      <use x="306.933594" xlink:href="#DejaVuSans-114"/>
      <use x="348.015625" xlink:href="#DejaVuSans-101"/>
      <use x="409.539062" xlink:href="#DejaVuSans-103"/>
     </g>
    </g>
    <g id="line2d_33">
     <path d="M 291.835625 293.004312 
L 311.835625 293.004312 
" style="fill:none;stroke:#00ffff;stroke-linecap:square;stroke-width:1.5;"/>
    </g>
    <g id="line2d_34"/>
    <g id="text_12">
     <!-- Second grad. reg -->
     <defs>
      <path d="M 53.515625 70.515625 
L 53.515625 60.890625 
Q 47.90625 63.578125 42.921875 64.890625 
Q 37.9375 66.21875 33.296875 66.21875 
Q 25.25 66.21875 20.875 63.09375 
Q 16.5 59.96875 16.5 54.203125 
Q 16.5 49.359375 19.40625 46.890625 
Q 22.3125 44.4375 30.421875 42.921875 
L 36.375 41.703125 
Q 47.40625 39.59375 52.65625 34.296875 
Q 57.90625 29 57.90625 20.125 
Q 57.90625 9.515625 50.796875 4.046875 
Q 43.703125 -1.421875 29.984375 -1.421875 
Q 24.8125 -1.421875 18.96875 -0.25 
Q 13.140625 0.921875 6.890625 3.21875 
L 6.890625 13.375 
Q 12.890625 10.015625 18.65625 8.296875 
Q 24.421875 6.59375 29.984375 6.59375 
Q 38.421875 6.59375 43.015625 9.90625 
Q 47.609375 13.234375 47.609375 19.390625 
Q 47.609375 24.75 44.3125 27.78125 
Q 41.015625 30.8125 33.5 32.328125 
L 27.484375 33.5 
Q 16.453125 35.6875 11.515625 40.375 
Q 6.59375 45.0625 6.59375 53.421875 
Q 6.59375 63.09375 13.40625 68.65625 
Q 20.21875 74.21875 32.171875 74.21875 
Q 37.3125 74.21875 42.625 73.28125 
Q 47.953125 72.359375 53.515625 70.515625 
z
" id="DejaVuSans-83"/>
     </defs>
     <g transform="translate(319.835625 296.504312)scale(0.1 -0.1)">
      <use xlink:href="#DejaVuSans-83"/>
      <use x="63.476562" xlink:href="#DejaVuSans-101"/>
      <use x="125" xlink:href="#DejaVuSans-99"/>
      <use x="179.980469" xlink:href="#DejaVuSans-111"/>
      <use x="241.162109" xlink:href="#DejaVuSans-110"/>
      <use x="304.541016" xlink:href="#DejaVuSans-100"/>
      <use x="368.017578" xlink:href="#DejaVuSans-32"/>
      <use x="399.804688" xlink:href="#DejaVuSans-103"/>
      <use x="463.28125" xlink:href="#DejaVuSans-114"/>
      <use x="504.394531" xlink:href="#DejaVuSans-97"/>
      <use x="565.673828" xlink:href="#DejaVuSans-100"/>
      <use x="629.150391" xlink:href="#DejaVuSans-46"/>
      <use x="660.9375" xlink:href="#DejaVuSans-32"/>
      <use x="692.724609" xlink:href="#DejaVuSans-114"/>
      <use x="733.806641" xlink:href="#DejaVuSans-101"/>
      <use x="795.330078" xlink:href="#DejaVuSans-103"/>
     </g>
    </g>
   </g>
  </g>
 </g>
 <defs>
  <clipPath id="p6794218e3b">
   <rect height="266.112" width="357.12" x="57.6" y="41.472"/>
  </clipPath>
 </defs>
</svg>
