<?xml version="1.0" encoding="utf-8" standalone="no"?>
<!DOCTYPE svg PUBLIC "-//W3C//DTD SVG 1.1//EN"
  "http://www.w3.org/Graphics/SVG/1.1/DTD/svg11.dtd">
<!-- Created with matplotlib (https://matplotlib.org/) -->
<svg height="345.6pt" version="1.1" viewBox="0 0 460.8 345.6" width="460.8pt" xmlns="http://www.w3.org/2000/svg" xmlns:xlink="http://www.w3.org/1999/xlink">
 <defs>
  <style type="text/css">
*{stroke-linecap:butt;stroke-linejoin:round;white-space:pre;}
  </style>
 </defs>
 <g id="figure_1">
  <g id="patch_1">
   <path d="M 0 345.6 
L 460.8 345.6 
L 460.8 0 
L 0 0 
z
" style="fill:#ffffff;"/>
  </g>
  <g id="axes_1">
   <g id="patch_2">
    <path d="M 57.6 307.584 
L 414.72 307.584 
L 414.72 41.472 
L 57.6 41.472 
z
" style="fill:#ffffff;"/>
   </g>
   <g id="PolyCollection_1">
    <path clip-path="url(#p404172c866)" d="M 73.832727 207.577971 
L 73.832727 227.749214 
L 77.145529 212.714667 
L 80.45833 201.687981 
L 83.771132 193.039074 
L 87.083933 186.054839 
L 90.396735 180.351884 
L 93.709536 175.678269 
L 97.022338 171.84166 
L 100.335139 168.682916 
L 103.647941 166.06891 
L 106.960742 163.89051 
L 110.273544 162.059857 
L 113.586345 160.507587 
L 116.899147 159.179924 
L 120.211948 158.034995 
L 123.52475 157.040625 
L 126.837551 156.173667 
L 130.150353 155.417992 
L 133.463154 154.761792 
L 136.775955 154.195699 
L 140.088757 153.71263 
L 143.401558 153.305939 
L 146.71436 152.968227 
L 150.027161 152.691255 
L 153.339963 152.467719 
L 156.652764 152.290347 
L 159.965566 152.151404 
L 163.278367 152.044138 
L 166.591169 151.961335 
L 169.90397 151.895469 
L 173.216772 151.839394 
L 176.529573 151.785891 
L 179.842375 151.727265 
L 183.155176 151.655475 
L 186.467978 151.562363 
L 189.780779 151.44031 
L 193.093581 151.282512 
L 196.406382 151.08285 
L 199.719184 150.836074 
L 203.031985 150.538883 
L 206.344787 150.190334 
L 209.657588 149.791044 
L 212.97039 149.342509 
L 216.283191 148.84669 
L 219.595993 148.305954 
L 222.908794 147.723165 
L 226.221596 147.101496 
L 229.534397 146.444346 
L 232.847199 145.75539 
L 236.16 145.038554 
L 239.472801 144.297976 
L 242.785603 143.538091 
L 246.098404 142.763607 
L 249.411206 141.979417 
L 252.724007 141.190425 
L 256.036809 140.401578 
L 259.34961 139.617824 
L 262.662412 138.843991 
L 265.975213 138.084644 
L 269.288015 137.343908 
L 272.600816 136.625354 
L 275.913618 135.93191 
L 279.226419 135.265803 
L 282.539221 134.628556 
L 285.852022 134.021032 
L 289.164824 133.443519 
L 292.477625 132.895788 
L 295.790427 132.377183 
L 299.103228 131.886712 
L 302.41603 131.423231 
L 305.728831 130.985499 
L 309.041633 130.572263 
L 312.354434 130.182321 
L 315.667236 129.814611 
L 318.980037 129.468234 
L 322.292839 129.142328 
L 325.60564 128.836043 
L 328.918442 128.548563 
L 332.231243 128.279269 
L 335.544045 128.02786 
L 338.856846 127.794042 
L 342.169647 127.577459 
L 345.482449 127.377782 
L 348.79525 127.194769 
L 352.108052 127.028186 
L 355.420853 126.87774 
L 358.733655 126.742974 
L 362.046456 126.623423 
L 365.359258 126.518987 
L 368.672059 126.429646 
L 371.984861 126.355266 
L 375.297662 126.295324 
L 378.610464 126.249 
L 381.923265 126.215193 
L 385.236067 126.192541 
L 388.548868 126.179445 
L 391.86167 126.17391 
L 395.174471 126.173417 
L 398.487273 126.175252 
L 398.487273 116.511117 
L 398.487273 116.511117 
L 395.174471 116.212148 
L 391.86167 115.915148 
L 388.548868 115.640347 
L 385.236067 115.400456 
L 381.923265 115.201196 
L 378.610464 115.043819 
L 375.297662 114.927271 
L 371.984861 114.849572 
L 368.672059 114.808582 
L 365.359258 114.802247 
L 362.046456 114.828624 
L 358.733655 114.885968 
L 355.420853 114.972762 
L 352.108052 115.087713 
L 348.79525 115.229688 
L 345.482449 115.397716 
L 342.169647 115.590969 
L 338.856846 115.808782 
L 335.544045 116.050648 
L 332.231243 116.316177 
L 328.918442 116.605038 
L 325.60564 116.916961 
L 322.292839 117.251816 
L 318.980037 117.609559 
L 315.667236 117.990208 
L 312.354434 118.393834 
L 309.041633 118.82058 
L 305.728831 119.270646 
L 302.41603 119.744204 
L 299.103228 120.241339 
L 295.790427 120.761978 
L 292.477625 121.305821 
L 289.164824 121.872255 
L 285.852022 122.460298 
L 282.539221 123.06855 
L 279.226419 123.695172 
L 275.913618 124.337884 
L 272.600816 124.993977 
L 269.288015 125.660295 
L 265.975213 126.333218 
L 262.662412 127.008679 
L 259.34961 127.682176 
L 256.036809 128.348807 
L 252.724007 129.003296 
L 249.411206 129.640008 
L 246.098404 130.252934 
L 242.785603 130.835661 
L 239.472801 131.381296 
L 236.16 131.882374 
L 232.847199 132.330681 
L 229.534397 132.716988 
L 226.221596 133.030655 
L 222.908794 133.259364 
L 219.595993 133.388942 
L 216.283191 133.403589 
L 212.97039 133.286407 
L 209.657588 133.02121 
L 206.344787 132.596956 
L 203.031985 132.016181 
L 199.719184 131.306287 
L 196.406382 130.522873 
L 193.093581 129.732546 
L 189.780779 128.988107 
L 186.467978 128.319256 
L 183.155176 127.737762 
L 179.842375 127.245608 
L 176.529573 126.840642 
L 173.216772 126.519688 
L 169.90397 126.279355 
L 166.591169 126.115922 
L 163.278367 126.026309 
L 159.965566 126.00833 
L 156.652764 126.061277 
L 153.339963 126.185741 
L 150.027161 126.382954 
L 146.71436 126.654528 
L 143.401558 127.003413 
L 140.088757 127.435036 
L 136.775955 127.956829 
L 133.463154 128.577669 
L 130.150353 129.308155 
L 126.837551 130.160678 
L 123.52475 131.150909 
L 120.211948 132.299524 
L 116.899147 133.633339 
L 113.586345 135.186338 
L 110.273544 137.001317 
L 106.960742 139.131855 
L 103.647941 141.6453 
L 100.335139 144.626102 
L 97.022338 148.179235 
L 93.709536 152.432693 
L 90.396735 157.541107 
L 87.083933 163.696583 
L 83.771132 171.158929 
L 80.45833 180.326624 
L 77.145529 191.922958 
L 73.832727 207.577971 
z
" style="fill:#ff0000;fill-opacity:0.4;"/>
   </g>
   <g id="PolyCollection_2">
    <path clip-path="url(#p404172c866)" d="M 73.832727 253.843936 
L 73.832727 295.488 
L 77.145529 279.980205 
L 80.45833 268.521958 
L 83.771132 259.520844 
L 87.083933 252.259173 
L 90.396735 246.338003 
L 93.709536 241.480434 
L 97.022338 237.466968 
L 100.335139 234.120558 
L 103.647941 231.297625 
L 106.960742 228.88235 
L 110.273544 226.786624 
L 113.586345 224.941207 
L 116.899147 223.288135 
L 120.211948 221.777452 
L 123.52475 220.368932 
L 126.837551 219.034765 
L 130.150353 217.756362 
L 133.463154 216.518482 
L 136.775955 215.309036 
L 140.088757 214.112072 
L 143.401558 212.906398 
L 146.71436 211.672114 
L 150.027161 210.396469 
L 153.339963 209.079705 
L 156.652764 207.727566 
L 159.965566 206.352126 
L 163.278367 204.965517 
L 166.591169 203.579417 
L 169.90397 202.20416 
L 173.216772 200.847899 
L 176.529573 199.516053 
L 179.842375 198.214226 
L 183.155176 196.947429 
L 186.467978 195.719755 
L 189.780779 194.534723 
L 193.093581 193.394809 
L 196.406382 192.302219 
L 199.719184 191.259703 
L 203.031985 190.269256 
L 206.344787 189.332014 
L 209.657588 188.448443 
L 212.97039 187.618473 
L 216.283191 186.84167 
L 219.595993 186.11692 
L 222.908794 185.442486 
L 226.221596 184.816506 
L 229.534397 184.236219 
L 232.847199 183.697974 
L 236.16 183.19675 
L 239.472801 182.725575 
L 242.785603 182.276142 
L 246.098404 181.839093 
L 249.411206 181.405511 
L 252.724007 180.969538 
L 256.036809 180.527846 
L 259.34961 180.079163 
L 262.662412 179.623752 
L 265.975213 179.162963 
L 269.288015 178.698629 
L 272.600816 178.232819 
L 275.913618 177.767764 
L 279.226419 177.305588 
L 282.539221 176.848109 
L 285.852022 176.396784 
L 289.164824 175.952711 
L 292.477625 175.516641 
L 295.790427 175.089037 
L 299.103228 174.670083 
L 302.41603 174.259904 
L 305.728831 173.858439 
L 309.041633 173.465519 
L 312.354434 173.081061 
L 315.667236 172.704842 
L 318.980037 172.3369 
L 322.292839 171.977802 
L 325.60564 171.628777 
L 328.918442 171.291256 
L 332.231243 170.966919 
L 335.544045 170.657161 
L 338.856846 170.362979 
L 342.169647 170.085103 
L 345.482449 169.823656 
L 348.79525 169.578067 
L 352.108052 169.347074 
L 355.420853 169.128335 
L 358.733655 168.918334 
L 362.046456 168.712889 
L 365.359258 168.507713 
L 368.672059 168.298014 
L 371.984861 168.07879 
L 375.297662 167.845234 
L 378.610464 167.593229 
L 381.923265 167.319691 
L 385.236067 167.022595 
L 388.548868 166.700742 
L 391.86167 166.353717 
L 395.174471 165.981744 
L 398.487273 165.58543 
L 398.487273 144.269858 
L 398.487273 144.269858 
L 395.174471 144.496018 
L 391.86167 144.688128 
L 388.548868 144.843947 
L 385.236067 144.961951 
L 381.923265 145.041744 
L 378.610464 145.084433 
L 375.297662 145.093464 
L 371.984861 145.075836 
L 368.672059 145.042265 
L 365.359258 145.006149 
L 362.046456 144.981329 
L 358.733655 144.979601 
L 355.420853 145.009065 
L 352.108052 145.074249 
L 348.79525 145.177045 
L 345.482449 145.317526 
L 342.169647 145.494743 
L 338.856846 145.707355 
L 335.544045 145.953961 
L 332.231243 146.233442 
L 328.918442 146.544682 
L 325.60564 146.886719 
L 322.292839 147.25891 
L 318.980037 147.660828 
L 315.667236 148.092268 
L 312.354434 148.553352 
L 309.041633 149.044581 
L 305.728831 149.566632 
L 302.41603 150.120263 
L 299.103228 150.706267 
L 295.790427 151.32544 
L 292.477625 151.978549 
L 289.164824 152.666192 
L 285.852022 153.388682 
L 282.539221 154.145909 
L 279.226419 154.937255 
L 275.913618 155.761538 
L 272.600816 156.616964 
L 269.288015 157.501011 
L 265.975213 158.410397 
L 262.662412 159.341119 
L 259.34961 160.288541 
L 256.036809 161.247429 
L 252.724007 162.212097 
L 249.411206 163.176568 
L 246.098404 164.134869 
L 242.785603 165.081323 
L 239.472801 166.010814 
L 236.16 166.918861 
L 232.847199 167.80171 
L 229.534397 168.656292 
L 226.221596 169.480188 
L 222.908794 170.271669 
L 219.595993 171.029739 
L 216.283191 171.754095 
L 212.97039 172.445014 
L 209.657588 173.103126 
L 206.344787 173.729632 
L 203.031985 174.326312 
L 199.719184 174.895423 
L 196.406382 175.439469 
L 193.093581 175.961162 
L 189.780779 176.463375 
L 186.467978 176.948621 
L 183.155176 177.418188 
L 179.842375 177.873405 
L 176.529573 178.316137 
L 173.216772 178.747949 
L 169.90397 179.169708 
L 166.591169 179.581669 
L 163.278367 179.98335 
L 159.965566 180.374155 
L 156.652764 180.755414 
L 153.339963 181.130649 
L 150.027161 181.505594 
L 146.71436 181.888755 
L 143.401558 182.288721 
L 140.088757 182.71579 
L 136.775955 183.180709 
L 133.463154 183.693638 
L 130.150353 184.266964 
L 126.837551 184.915585 
L 123.52475 185.65636 
L 120.211948 186.509612 
L 116.899147 187.50093 
L 113.586345 188.662386 
L 110.273544 190.034763 
L 106.960742 191.670304 
L 103.647941 193.636963 
L 100.335139 196.022944 
L 97.022338 198.940097 
L 93.709536 202.528223 
L 90.396735 206.96448 
L 87.083933 212.464315 
L 83.771132 219.297909 
L 80.45833 227.856024 
L 77.145529 238.83434 
L 73.832727 253.843936 
z
" style="fill:#0000ff;fill-opacity:0.4;"/>
   </g>
   <g id="PolyCollection_3">
    <path clip-path="url(#p404172c866)" d="M 73.832727 141.818514 
L 73.832727 145.406886 
L 77.145529 130.881913 
L 80.45833 120.307216 
L 83.771132 112.013403 
L 87.083933 105.254368 
L 90.396735 99.623679 
L 93.709536 94.865948 
L 97.022338 90.803063 
L 100.335139 87.302365 
L 103.647941 84.261491 
L 106.960742 81.60003 
L 110.273544 79.254185 
L 113.586345 77.172962 
L 116.899147 75.31533 
L 120.211948 73.648045 
L 123.52475 72.143981 
L 126.837551 70.780851 
L 130.150353 69.540215 
L 133.463154 68.406712 
L 136.775955 67.36746 
L 140.088757 66.411593 
L 143.401558 65.529893 
L 146.71436 64.714493 
L 150.027161 63.95865 
L 153.339963 63.256557 
L 156.652764 62.603193 
L 159.965566 61.994197 
L 163.278367 61.425777 
L 166.591169 60.894619 
L 169.90397 60.397828 
L 173.216772 59.932868 
L 176.529573 59.497518 
L 179.842375 59.089837 
L 183.155176 58.708129 
L 186.467978 58.350922 
L 189.780779 58.016946 
L 193.093581 57.705116 
L 196.406382 57.414521 
L 199.719184 57.144416 
L 203.031985 56.894211 
L 206.344787 56.663467 
L 209.657588 56.451896 
L 212.97039 56.259355 
L 216.283191 56.085844 
L 219.595993 55.931503 
L 222.908794 55.796607 
L 226.221596 55.681554 
L 229.534397 55.58685 
L 232.847199 55.513081 
L 236.16 55.460877 
L 239.472801 55.430855 
L 242.785603 55.423552 
L 246.098404 55.439336 
L 249.411206 55.478305 
L 252.724007 55.540182 
L 256.036809 55.624207 
L 259.34961 55.729066 
L 262.662412 55.852844 
L 265.975213 55.993047 
L 269.288015 56.146678 
L 272.600816 56.310381 
L 275.913618 56.480633 
L 279.226419 56.653943 
L 282.539221 56.82705 
L 285.852022 56.997075 
L 289.164824 57.161616 
L 292.477625 57.318796 
L 295.790427 57.467251 
L 299.103228 57.606091 
L 302.41603 57.734835 
L 305.728831 57.853344 
L 309.041633 57.961751 
L 312.354434 58.060399 
L 315.667236 58.149786 
L 318.980037 58.230527 
L 322.292839 58.303311 
L 325.60564 58.368882 
L 328.918442 58.428011 
L 332.231243 58.481489 
L 335.544045 58.530107 
L 338.856846 58.574656 
L 342.169647 58.615914 
L 345.482449 58.65465 
L 348.79525 58.691613 
L 352.108052 58.727535 
L 355.420853 58.76313 
L 358.733655 58.799092 
L 362.046456 58.836094 
L 365.359258 58.87479 
L 368.672059 58.915816 
L 371.984861 58.95979 
L 375.297662 59.007313 
L 378.610464 59.058971 
L 381.923265 59.115336 
L 385.236067 59.176962 
L 388.548868 59.24439 
L 391.86167 59.318144 
L 395.174471 59.398721 
L 398.487273 59.486591 
L 398.487273 54.179991 
L 398.487273 54.179991 
L 395.174471 54.160085 
L 391.86167 54.142806 
L 388.548868 54.128149 
L 385.236067 54.116062 
L 381.923265 54.106455 
L 378.610464 54.099202 
L 375.297662 54.094147 
L 371.984861 54.091105 
L 368.672059 54.089869 
L 365.359258 54.090205 
L 362.046456 54.091859 
L 358.733655 54.094559 
L 355.420853 54.098013 
L 352.108052 54.101914 
L 348.79525 54.105942 
L 345.482449 54.109762 
L 342.169647 54.113035 
L 338.856846 54.115411 
L 335.544045 54.116538 
L 332.231243 54.116067 
L 328.918442 54.11365 
L 325.60564 54.10895 
L 322.292839 54.101644 
L 318.980037 54.091435 
L 315.667236 54.078053 
L 312.354434 54.06127 
L 309.041633 54.040916 
L 305.728831 54.016886 
L 302.41603 53.989165 
L 299.103228 53.957847 
L 295.790427 53.923157 
L 292.477625 53.885477 
L 289.164824 53.84537 
L 285.852022 53.803604 
L 282.539221 53.761165 
L 279.226419 53.719263 
L 275.913618 53.679322 
L 272.600816 53.642947 
L 269.288015 53.611871 
L 265.975213 53.587878 
L 262.662412 53.572716 
L 259.34961 53.568 
L 256.036809 53.575133 
L 252.724007 53.595243 
L 249.411206 53.629157 
L 246.098404 53.677407 
L 242.785603 53.740266 
L 239.472801 53.817804 
L 236.16 53.909955 
L 232.847199 54.016576 
L 229.534397 54.137508 
L 226.221596 54.272614 
L 222.908794 54.421813 
L 219.595993 54.585101 
L 216.283191 54.762562 
L 212.97039 54.954375 
L 209.657588 55.160821 
L 206.344787 55.382278 
L 203.031985 55.619231 
L 199.719184 55.872266 
L 196.406382 56.142079 
L 193.093581 56.429476 
L 189.780779 56.735386 
L 186.467978 57.060862 
L 183.155176 57.407101 
L 179.842375 57.775452 
L 176.529573 58.167437 
L 173.216772 58.58477 
L 169.90397 59.029387 
L 166.591169 59.503474 
L 163.278367 60.009502 
L 159.965566 60.55028 
L 156.652764 61.129001 
L 153.339963 61.749313 
L 150.027161 62.415394 
L 146.71436 63.132054 
L 143.401558 63.904849 
L 140.088757 64.740235 
L 136.775955 65.645741 
L 133.463154 66.630204 
L 130.150353 67.704054 
L 126.837551 68.879678 
L 123.52475 70.171886 
L 120.211948 71.598509 
L 116.899147 73.18118 
L 113.586345 74.946343 
L 110.273544 76.926595 
L 106.960742 79.162439 
L 103.647941 81.704623 
L 100.335139 84.617258 
L 97.022338 87.982018 
L 93.709536 91.904003 
L 90.396735 96.52055 
L 87.083933 102.016412 
L 83.771132 108.654611 
L 80.45833 116.848153 
L 77.145529 127.346516 
L 73.832727 141.818514 
z
" style="fill:#00ffff;fill-opacity:0.4;"/>
   </g>
   <g id="matplotlib.axis_1">
    <g id="xtick_1">
     <g id="line2d_1">
      <path clip-path="url(#p404172c866)" d="M 70.519926 307.584 
L 70.519926 41.472 
" style="fill:none;stroke:#b0b0b0;stroke-linecap:square;stroke-width:0.8;"/>
     </g>
     <g id="line2d_2">
      <defs>
       <path d="M 0 0 
L 0 3.5 
" id="m1f32880c29" style="stroke:#000000;stroke-width:0.8;"/>
      </defs>
      <g>
       <use style="stroke:#000000;stroke-width:0.8;" x="70.519926" xlink:href="#m1f32880c29" y="307.584"/>
      </g>
     </g>
     <g id="text_1">
      <!-- 0.0 -->
      <defs>
       <path d="M 31.78125 66.40625 
Q 24.171875 66.40625 20.328125 58.90625 
Q 16.5 51.421875 16.5 36.375 
Q 16.5 21.390625 20.328125 13.890625 
Q 24.171875 6.390625 31.78125 6.390625 
Q 39.453125 6.390625 43.28125 13.890625 
Q 47.125 21.390625 47.125 36.375 
Q 47.125 51.421875 43.28125 58.90625 
Q 39.453125 66.40625 31.78125 66.40625 
z
M 31.78125 74.21875 
Q 44.046875 74.21875 50.515625 64.515625 
Q 56.984375 54.828125 56.984375 36.375 
Q 56.984375 17.96875 50.515625 8.265625 
Q 44.046875 -1.421875 31.78125 -1.421875 
Q 19.53125 -1.421875 13.0625 8.265625 
Q 6.59375 17.96875 6.59375 36.375 
Q 6.59375 54.828125 13.0625 64.515625 
Q 19.53125 74.21875 31.78125 74.21875 
z
" id="DejaVuSans-48"/>
       <path d="M 10.6875 12.40625 
L 21 12.40625 
L 21 0 
L 10.6875 0 
z
" id="DejaVuSans-46"/>
      </defs>
      <g transform="translate(62.568363 322.182437)scale(0.1 -0.1)">
       <use xlink:href="#DejaVuSans-48"/>
       <use x="63.623047" xlink:href="#DejaVuSans-46"/>
       <use x="95.410156" xlink:href="#DejaVuSans-48"/>
      </g>
     </g>
    </g>
    <g id="xtick_2">
     <g id="line2d_3">
      <path clip-path="url(#p404172c866)" d="M 136.775955 307.584 
L 136.775955 41.472 
" style="fill:none;stroke:#b0b0b0;stroke-linecap:square;stroke-width:0.8;"/>
     </g>
     <g id="line2d_4">
      <g>
       <use style="stroke:#000000;stroke-width:0.8;" x="136.775955" xlink:href="#m1f32880c29" y="307.584"/>
      </g>
     </g>
     <g id="text_2">
      <!-- 0.2 -->
      <defs>
       <path d="M 19.1875 8.296875 
L 53.609375 8.296875 
L 53.609375 0 
L 7.328125 0 
L 7.328125 8.296875 
Q 12.9375 14.109375 22.625 23.890625 
Q 32.328125 33.6875 34.8125 36.53125 
Q 39.546875 41.84375 41.421875 45.53125 
Q 43.3125 49.21875 43.3125 52.78125 
Q 43.3125 58.59375 39.234375 62.25 
Q 35.15625 65.921875 28.609375 65.921875 
Q 23.96875 65.921875 18.8125 64.3125 
Q 13.671875 62.703125 7.8125 59.421875 
L 7.8125 69.390625 
Q 13.765625 71.78125 18.9375 73 
Q 24.125 74.21875 28.421875 74.21875 
Q 39.75 74.21875 46.484375 68.546875 
Q 53.21875 62.890625 53.21875 53.421875 
Q 53.21875 48.921875 51.53125 44.890625 
Q 49.859375 40.875 45.40625 35.40625 
Q 44.1875 33.984375 37.640625 27.21875 
Q 31.109375 20.453125 19.1875 8.296875 
z
" id="DejaVuSans-50"/>
      </defs>
      <g transform="translate(128.824393 322.182437)scale(0.1 -0.1)">
       <use xlink:href="#DejaVuSans-48"/>
       <use x="63.623047" xlink:href="#DejaVuSans-46"/>
       <use x="95.410156" xlink:href="#DejaVuSans-50"/>
      </g>
     </g>
    </g>
    <g id="xtick_3">
     <g id="line2d_5">
      <path clip-path="url(#p404172c866)" d="M 203.031985 307.584 
L 203.031985 41.472 
" style="fill:none;stroke:#b0b0b0;stroke-linecap:square;stroke-width:0.8;"/>
     </g>
     <g id="line2d_6">
      <g>
       <use style="stroke:#000000;stroke-width:0.8;" x="203.031985" xlink:href="#m1f32880c29" y="307.584"/>
      </g>
     </g>
     <g id="text_3">
      <!-- 0.4 -->
      <defs>
       <path d="M 37.796875 64.3125 
L 12.890625 25.390625 
L 37.796875 25.390625 
z
M 35.203125 72.90625 
L 47.609375 72.90625 
L 47.609375 25.390625 
L 58.015625 25.390625 
L 58.015625 17.1875 
L 47.609375 17.1875 
L 47.609375 0 
L 37.796875 0 
L 37.796875 17.1875 
L 4.890625 17.1875 
L 4.890625 26.703125 
z
" id="DejaVuSans-52"/>
      </defs>
      <g transform="translate(195.080423 322.182437)scale(0.1 -0.1)">
       <use xlink:href="#DejaVuSans-48"/>
       <use x="63.623047" xlink:href="#DejaVuSans-46"/>
       <use x="95.410156" xlink:href="#DejaVuSans-52"/>
      </g>
     </g>
    </g>
    <g id="xtick_4">
     <g id="line2d_7">
      <path clip-path="url(#p404172c866)" d="M 269.288015 307.584 
L 269.288015 41.472 
" style="fill:none;stroke:#b0b0b0;stroke-linecap:square;stroke-width:0.8;"/>
     </g>
     <g id="line2d_8">
      <g>
       <use style="stroke:#000000;stroke-width:0.8;" x="269.288015" xlink:href="#m1f32880c29" y="307.584"/>
      </g>
     </g>
     <g id="text_4">
      <!-- 0.6 -->
      <defs>
       <path d="M 33.015625 40.375 
Q 26.375 40.375 22.484375 35.828125 
Q 18.609375 31.296875 18.609375 23.390625 
Q 18.609375 15.53125 22.484375 10.953125 
Q 26.375 6.390625 33.015625 6.390625 
Q 39.65625 6.390625 43.53125 10.953125 
Q 47.40625 15.53125 47.40625 23.390625 
Q 47.40625 31.296875 43.53125 35.828125 
Q 39.65625 40.375 33.015625 40.375 
z
M 52.59375 71.296875 
L 52.59375 62.3125 
Q 48.875 64.0625 45.09375 64.984375 
Q 41.3125 65.921875 37.59375 65.921875 
Q 27.828125 65.921875 22.671875 59.328125 
Q 17.53125 52.734375 16.796875 39.40625 
Q 19.671875 43.65625 24.015625 45.921875 
Q 28.375 48.1875 33.59375 48.1875 
Q 44.578125 48.1875 50.953125 41.515625 
Q 57.328125 34.859375 57.328125 23.390625 
Q 57.328125 12.15625 50.6875 5.359375 
Q 44.046875 -1.421875 33.015625 -1.421875 
Q 20.359375 -1.421875 13.671875 8.265625 
Q 6.984375 17.96875 6.984375 36.375 
Q 6.984375 53.65625 15.1875 63.9375 
Q 23.390625 74.21875 37.203125 74.21875 
Q 40.921875 74.21875 44.703125 73.484375 
Q 48.484375 72.75 52.59375 71.296875 
z
" id="DejaVuSans-54"/>
      </defs>
      <g transform="translate(261.336452 322.182437)scale(0.1 -0.1)">
       <use xlink:href="#DejaVuSans-48"/>
       <use x="63.623047" xlink:href="#DejaVuSans-46"/>
       <use x="95.410156" xlink:href="#DejaVuSans-54"/>
      </g>
     </g>
    </g>
    <g id="xtick_5">
     <g id="line2d_9">
      <path clip-path="url(#p404172c866)" d="M 335.544045 307.584 
L 335.544045 41.472 
" style="fill:none;stroke:#b0b0b0;stroke-linecap:square;stroke-width:0.8;"/>
     </g>
     <g id="line2d_10">
      <g>
       <use style="stroke:#000000;stroke-width:0.8;" x="335.544045" xlink:href="#m1f32880c29" y="307.584"/>
      </g>
     </g>
     <g id="text_5">
      <!-- 0.8 -->
      <defs>
       <path d="M 31.78125 34.625 
Q 24.75 34.625 20.71875 30.859375 
Q 16.703125 27.09375 16.703125 20.515625 
Q 16.703125 13.921875 20.71875 10.15625 
Q 24.75 6.390625 31.78125 6.390625 
Q 38.8125 6.390625 42.859375 10.171875 
Q 46.921875 13.96875 46.921875 20.515625 
Q 46.921875 27.09375 42.890625 30.859375 
Q 38.875 34.625 31.78125 34.625 
z
M 21.921875 38.8125 
Q 15.578125 40.375 12.03125 44.71875 
Q 8.5 49.078125 8.5 55.328125 
Q 8.5 64.0625 14.71875 69.140625 
Q 20.953125 74.21875 31.78125 74.21875 
Q 42.671875 74.21875 48.875 69.140625 
Q 55.078125 64.0625 55.078125 55.328125 
Q 55.078125 49.078125 51.53125 44.71875 
Q 48 40.375 41.703125 38.8125 
Q 48.828125 37.15625 52.796875 32.3125 
Q 56.78125 27.484375 56.78125 20.515625 
Q 56.78125 9.90625 50.3125 4.234375 
Q 43.84375 -1.421875 31.78125 -1.421875 
Q 19.734375 -1.421875 13.25 4.234375 
Q 6.78125 9.90625 6.78125 20.515625 
Q 6.78125 27.484375 10.78125 32.3125 
Q 14.796875 37.15625 21.921875 38.8125 
z
M 18.3125 54.390625 
Q 18.3125 48.734375 21.84375 45.5625 
Q 25.390625 42.390625 31.78125 42.390625 
Q 38.140625 42.390625 41.71875 45.5625 
Q 45.3125 48.734375 45.3125 54.390625 
Q 45.3125 60.0625 41.71875 63.234375 
Q 38.140625 66.40625 31.78125 66.40625 
Q 25.390625 66.40625 21.84375 63.234375 
Q 18.3125 60.0625 18.3125 54.390625 
z
" id="DejaVuSans-56"/>
      </defs>
      <g transform="translate(327.592482 322.182437)scale(0.1 -0.1)">
       <use xlink:href="#DejaVuSans-48"/>
       <use x="63.623047" xlink:href="#DejaVuSans-46"/>
       <use x="95.410156" xlink:href="#DejaVuSans-56"/>
      </g>
     </g>
    </g>
    <g id="xtick_6">
     <g id="line2d_11">
      <path clip-path="url(#p404172c866)" d="M 401.800074 307.584 
L 401.800074 41.472 
" style="fill:none;stroke:#b0b0b0;stroke-linecap:square;stroke-width:0.8;"/>
     </g>
     <g id="line2d_12">
      <g>
       <use style="stroke:#000000;stroke-width:0.8;" x="401.800074" xlink:href="#m1f32880c29" y="307.584"/>
      </g>
     </g>
     <g id="text_6">
      <!-- 1.0 -->
      <defs>
       <path d="M 12.40625 8.296875 
L 28.515625 8.296875 
L 28.515625 63.921875 
L 10.984375 60.40625 
L 10.984375 69.390625 
L 28.421875 72.90625 
L 38.28125 72.90625 
L 38.28125 8.296875 
L 54.390625 8.296875 
L 54.390625 0 
L 12.40625 0 
z
" id="DejaVuSans-49"/>
      </defs>
      <g transform="translate(393.848512 322.182437)scale(0.1 -0.1)">
       <use xlink:href="#DejaVuSans-49"/>
       <use x="63.623047" xlink:href="#DejaVuSans-46"/>
       <use x="95.410156" xlink:href="#DejaVuSans-48"/>
      </g>
     </g>
    </g>
    <g id="text_7">
     <!-- $\mathrm{Time \ (seconds)}$ -->
     <defs>
      <path d="M -0.296875 72.90625 
L 61.375 72.90625 
L 61.375 64.59375 
L 35.5 64.59375 
L 35.5 0 
L 25.59375 0 
L 25.59375 64.59375 
L -0.296875 64.59375 
z
" id="DejaVuSans-84"/>
      <path d="M 9.421875 54.6875 
L 18.40625 54.6875 
L 18.40625 0 
L 9.421875 0 
z
M 9.421875 75.984375 
L 18.40625 75.984375 
L 18.40625 64.59375 
L 9.421875 64.59375 
z
" id="DejaVuSans-105"/>
      <path d="M 52 44.1875 
Q 55.375 50.25 60.0625 53.125 
Q 64.75 56 71.09375 56 
Q 79.640625 56 84.28125 50.015625 
Q 88.921875 44.046875 88.921875 33.015625 
L 88.921875 0 
L 79.890625 0 
L 79.890625 32.71875 
Q 79.890625 40.578125 77.09375 44.375 
Q 74.3125 48.1875 68.609375 48.1875 
Q 61.625 48.1875 57.5625 43.546875 
Q 53.515625 38.921875 53.515625 30.90625 
L 53.515625 0 
L 44.484375 0 
L 44.484375 32.71875 
Q 44.484375 40.625 41.703125 44.40625 
Q 38.921875 48.1875 33.109375 48.1875 
Q 26.21875 48.1875 22.15625 43.53125 
Q 18.109375 38.875 18.109375 30.90625 
L 18.109375 0 
L 9.078125 0 
L 9.078125 54.6875 
L 18.109375 54.6875 
L 18.109375 46.1875 
Q 21.1875 51.21875 25.484375 53.609375 
Q 29.78125 56 35.6875 56 
Q 41.65625 56 45.828125 52.96875 
Q 50 49.953125 52 44.1875 
z
" id="DejaVuSans-109"/>
      <path d="M 56.203125 29.59375 
L 56.203125 25.203125 
L 14.890625 25.203125 
Q 15.484375 15.921875 20.484375 11.0625 
Q 25.484375 6.203125 34.421875 6.203125 
Q 39.59375 6.203125 44.453125 7.46875 
Q 49.3125 8.734375 54.109375 11.28125 
L 54.109375 2.78125 
Q 49.265625 0.734375 44.1875 -0.34375 
Q 39.109375 -1.421875 33.890625 -1.421875 
Q 20.796875 -1.421875 13.15625 6.1875 
Q 5.515625 13.8125 5.515625 26.8125 
Q 5.515625 40.234375 12.765625 48.109375 
Q 20.015625 56 32.328125 56 
Q 43.359375 56 49.78125 48.890625 
Q 56.203125 41.796875 56.203125 29.59375 
z
M 47.21875 32.234375 
Q 47.125 39.59375 43.09375 43.984375 
Q 39.0625 48.390625 32.421875 48.390625 
Q 24.90625 48.390625 20.390625 44.140625 
Q 15.875 39.890625 15.1875 32.171875 
z
" id="DejaVuSans-101"/>
      <path d="M 31 75.875 
Q 24.46875 64.65625 21.28125 53.65625 
Q 18.109375 42.671875 18.109375 31.390625 
Q 18.109375 20.125 21.3125 9.0625 
Q 24.515625 -2 31 -13.1875 
L 23.1875 -13.1875 
Q 15.875 -1.703125 12.234375 9.375 
Q 8.59375 20.453125 8.59375 31.390625 
Q 8.59375 42.28125 12.203125 53.3125 
Q 15.828125 64.359375 23.1875 75.875 
z
" id="DejaVuSans-40"/>
      <path d="M 44.28125 53.078125 
L 44.28125 44.578125 
Q 40.484375 46.53125 36.375 47.5 
Q 32.28125 48.484375 27.875 48.484375 
Q 21.1875 48.484375 17.84375 46.4375 
Q 14.5 44.390625 14.5 40.28125 
Q 14.5 37.15625 16.890625 35.375 
Q 19.28125 33.59375 26.515625 31.984375 
L 29.59375 31.296875 
Q 39.15625 29.25 43.1875 25.515625 
Q 47.21875 21.78125 47.21875 15.09375 
Q 47.21875 7.46875 41.1875 3.015625 
Q 35.15625 -1.421875 24.609375 -1.421875 
Q 20.21875 -1.421875 15.453125 -0.5625 
Q 10.6875 0.296875 5.421875 2 
L 5.421875 11.28125 
Q 10.40625 8.6875 15.234375 7.390625 
Q 20.0625 6.109375 24.8125 6.109375 
Q 31.15625 6.109375 34.5625 8.28125 
Q 37.984375 10.453125 37.984375 14.40625 
Q 37.984375 18.0625 35.515625 20.015625 
Q 33.0625 21.96875 24.703125 23.78125 
L 21.578125 24.515625 
Q 13.234375 26.265625 9.515625 29.90625 
Q 5.8125 33.546875 5.8125 39.890625 
Q 5.8125 47.609375 11.28125 51.796875 
Q 16.75 56 26.8125 56 
Q 31.78125 56 36.171875 55.265625 
Q 40.578125 54.546875 44.28125 53.078125 
z
" id="DejaVuSans-115"/>
      <path d="M 48.78125 52.59375 
L 48.78125 44.1875 
Q 44.96875 46.296875 41.140625 47.34375 
Q 37.3125 48.390625 33.40625 48.390625 
Q 24.65625 48.390625 19.8125 42.84375 
Q 14.984375 37.3125 14.984375 27.296875 
Q 14.984375 17.28125 19.8125 11.734375 
Q 24.65625 6.203125 33.40625 6.203125 
Q 37.3125 6.203125 41.140625 7.25 
Q 44.96875 8.296875 48.78125 10.40625 
L 48.78125 2.09375 
Q 45.015625 0.34375 40.984375 -0.53125 
Q 36.96875 -1.421875 32.421875 -1.421875 
Q 20.0625 -1.421875 12.78125 6.34375 
Q 5.515625 14.109375 5.515625 27.296875 
Q 5.515625 40.671875 12.859375 48.328125 
Q 20.21875 56 33.015625 56 
Q 37.15625 56 41.109375 55.140625 
Q 45.0625 54.296875 48.78125 52.59375 
z
" id="DejaVuSans-99"/>
      <path d="M 30.609375 48.390625 
Q 23.390625 48.390625 19.1875 42.75 
Q 14.984375 37.109375 14.984375 27.296875 
Q 14.984375 17.484375 19.15625 11.84375 
Q 23.34375 6.203125 30.609375 6.203125 
Q 37.796875 6.203125 41.984375 11.859375 
Q 46.1875 17.53125 46.1875 27.296875 
Q 46.1875 37.015625 41.984375 42.703125 
Q 37.796875 48.390625 30.609375 48.390625 
z
M 30.609375 56 
Q 42.328125 56 49.015625 48.375 
Q 55.71875 40.765625 55.71875 27.296875 
Q 55.71875 13.875 49.015625 6.21875 
Q 42.328125 -1.421875 30.609375 -1.421875 
Q 18.84375 -1.421875 12.171875 6.21875 
Q 5.515625 13.875 5.515625 27.296875 
Q 5.515625 40.765625 12.171875 48.375 
Q 18.84375 56 30.609375 56 
z
" id="DejaVuSans-111"/>
      <path d="M 54.890625 33.015625 
L 54.890625 0 
L 45.90625 0 
L 45.90625 32.71875 
Q 45.90625 40.484375 42.875 44.328125 
Q 39.84375 48.1875 33.796875 48.1875 
Q 26.515625 48.1875 22.3125 43.546875 
Q 18.109375 38.921875 18.109375 30.90625 
L 18.109375 0 
L 9.078125 0 
L 9.078125 54.6875 
L 18.109375 54.6875 
L 18.109375 46.1875 
Q 21.34375 51.125 25.703125 53.5625 
Q 30.078125 56 35.796875 56 
Q 45.21875 56 50.046875 50.171875 
Q 54.890625 44.34375 54.890625 33.015625 
z
" id="DejaVuSans-110"/>
      <path d="M 45.40625 46.390625 
L 45.40625 75.984375 
L 54.390625 75.984375 
L 54.390625 0 
L 45.40625 0 
L 45.40625 8.203125 
Q 42.578125 3.328125 38.25 0.953125 
Q 33.9375 -1.421875 27.875 -1.421875 
Q 17.96875 -1.421875 11.734375 6.484375 
Q 5.515625 14.40625 5.515625 27.296875 
Q 5.515625 40.1875 11.734375 48.09375 
Q 17.96875 56 27.875 56 
Q 33.9375 56 38.25 53.625 
Q 42.578125 51.265625 45.40625 46.390625 
z
M 14.796875 27.296875 
Q 14.796875 17.390625 18.875 11.75 
Q 22.953125 6.109375 30.078125 6.109375 
Q 37.203125 6.109375 41.296875 11.75 
Q 45.40625 17.390625 45.40625 27.296875 
Q 45.40625 37.203125 41.296875 42.84375 
Q 37.203125 48.484375 30.078125 48.484375 
Q 22.953125 48.484375 18.875 42.84375 
Q 14.796875 37.203125 14.796875 27.296875 
z
" id="DejaVuSans-100"/>
      <path d="M 8.015625 75.875 
L 15.828125 75.875 
Q 23.140625 64.359375 26.78125 53.3125 
Q 30.421875 42.28125 30.421875 31.390625 
Q 30.421875 20.453125 26.78125 9.375 
Q 23.140625 -1.703125 15.828125 -13.1875 
L 8.015625 -13.1875 
Q 14.5 -2 17.703125 9.0625 
Q 20.90625 20.125 20.90625 31.390625 
Q 20.90625 42.671875 17.703125 53.65625 
Q 14.5 64.65625 8.015625 75.875 
z
" id="DejaVuSans-41"/>
     </defs>
     <g transform="translate(197.76 335.860562)scale(0.1 -0.1)">
      <use transform="translate(0 0.015625)" xlink:href="#DejaVuSans-84"/>
      <use transform="translate(61.083984 0.015625)" xlink:href="#DejaVuSans-105"/>
      <use transform="translate(88.867188 0.015625)" xlink:href="#DejaVuSans-109"/>
      <use transform="translate(186.279297 0.015625)" xlink:href="#DejaVuSans-101"/>
      <use transform="translate(280.273113 0.015625)" xlink:href="#DejaVuSans-40"/>
      <use transform="translate(319.286785 0.015625)" xlink:href="#DejaVuSans-115"/>
      <use transform="translate(371.386394 0.015625)" xlink:href="#DejaVuSans-101"/>
      <use transform="translate(432.909832 0.015625)" xlink:href="#DejaVuSans-99"/>
      <use transform="translate(487.8903 0.015625)" xlink:href="#DejaVuSans-111"/>
      <use transform="translate(549.071941 0.015625)" xlink:href="#DejaVuSans-110"/>
      <use transform="translate(612.450847 0.015625)" xlink:href="#DejaVuSans-100"/>
      <use transform="translate(675.92741 0.015625)" xlink:href="#DejaVuSans-115"/>
      <use transform="translate(728.027019 0.015625)" xlink:href="#DejaVuSans-41"/>
     </g>
    </g>
   </g>
   <g id="matplotlib.axis_2">
    <g id="ytick_1">
     <g id="line2d_13">
      <path clip-path="url(#p404172c866)" d="M 57.6 224.142759 
L 414.72 224.142759 
" style="fill:none;stroke:#b0b0b0;stroke-linecap:square;stroke-width:0.8;"/>
     </g>
     <g id="line2d_14">
      <defs>
       <path d="M 0 0 
L -3.5 0 
" id="m106589fbaf" style="stroke:#000000;stroke-width:0.8;"/>
      </defs>
      <g>
       <use style="stroke:#000000;stroke-width:0.8;" x="57.6" xlink:href="#m106589fbaf" y="224.142759"/>
      </g>
     </g>
     <g id="text_8">
      <!-- $\mathdefault{10^{-2}}$ -->
      <defs>
       <path d="M 10.59375 35.5 
L 73.1875 35.5 
L 73.1875 27.203125 
L 10.59375 27.203125 
z
" id="DejaVuSans-8722"/>
      </defs>
      <g transform="translate(27.1 227.941978)scale(0.1 -0.1)">
       <use transform="translate(0 0.765625)" xlink:href="#DejaVuSans-49"/>
       <use transform="translate(63.623047 0.765625)" xlink:href="#DejaVuSans-48"/>
       <use transform="translate(128.203125 39.046875)scale(0.7)" xlink:href="#DejaVuSans-8722"/>
       <use transform="translate(186.855469 39.046875)scale(0.7)" xlink:href="#DejaVuSans-50"/>
      </g>
     </g>
    </g>
    <g id="ytick_2">
     <g id="line2d_15">
      <path clip-path="url(#p404172c866)" d="M 57.6 132.276917 
L 414.72 132.276917 
" style="fill:none;stroke:#b0b0b0;stroke-linecap:square;stroke-width:0.8;"/>
     </g>
     <g id="line2d_16">
      <g>
       <use style="stroke:#000000;stroke-width:0.8;" x="57.6" xlink:href="#m106589fbaf" y="132.276917"/>
      </g>
     </g>
     <g id="text_9">
      <!-- $\mathdefault{10^{-1}}$ -->
      <g transform="translate(27.1 136.076135)scale(0.1 -0.1)">
       <use transform="translate(0 0.684375)" xlink:href="#DejaVuSans-49"/>
       <use transform="translate(63.623047 0.684375)" xlink:href="#DejaVuSans-48"/>
       <use transform="translate(128.203125 38.965625)scale(0.7)" xlink:href="#DejaVuSans-8722"/>
       <use transform="translate(186.855469 38.965625)scale(0.7)" xlink:href="#DejaVuSans-49"/>
      </g>
     </g>
    </g>
    <g id="ytick_3">
     <g id="line2d_17">
      <defs>
       <path d="M 0 0 
L -2 0 
" id="m6b21679eb3" style="stroke:#000000;stroke-width:0.6;"/>
      </defs>
      <g>
       <use style="stroke:#000000;stroke-width:0.6;" x="57.6" xlink:href="#m6b21679eb3" y="288.354228"/>
      </g>
     </g>
    </g>
    <g id="ytick_4">
     <g id="line2d_18">
      <g>
       <use style="stroke:#000000;stroke-width:0.6;" x="57.6" xlink:href="#m6b21679eb3" y="272.177456"/>
      </g>
     </g>
    </g>
    <g id="ytick_5">
     <g id="line2d_19">
      <g>
       <use style="stroke:#000000;stroke-width:0.6;" x="57.6" xlink:href="#m6b21679eb3" y="260.699854"/>
      </g>
     </g>
    </g>
    <g id="ytick_6">
     <g id="line2d_20">
      <g>
       <use style="stroke:#000000;stroke-width:0.6;" x="57.6" xlink:href="#m6b21679eb3" y="251.797134"/>
      </g>
     </g>
    </g>
    <g id="ytick_7">
     <g id="line2d_21">
      <g>
       <use style="stroke:#000000;stroke-width:0.6;" x="57.6" xlink:href="#m6b21679eb3" y="244.523082"/>
      </g>
     </g>
    </g>
    <g id="ytick_8">
     <g id="line2d_22">
      <g>
       <use style="stroke:#000000;stroke-width:0.6;" x="57.6" xlink:href="#m6b21679eb3" y="238.372958"/>
      </g>
     </g>
    </g>
    <g id="ytick_9">
     <g id="line2d_23">
      <g>
       <use style="stroke:#000000;stroke-width:0.6;" x="57.6" xlink:href="#m6b21679eb3" y="233.045479"/>
      </g>
     </g>
    </g>
    <g id="ytick_10">
     <g id="line2d_24">
      <g>
       <use style="stroke:#000000;stroke-width:0.6;" x="57.6" xlink:href="#m6b21679eb3" y="228.34631"/>
      </g>
     </g>
    </g>
    <g id="ytick_11">
     <g id="line2d_25">
      <g>
       <use style="stroke:#000000;stroke-width:0.6;" x="57.6" xlink:href="#m6b21679eb3" y="196.488385"/>
      </g>
     </g>
    </g>
    <g id="ytick_12">
     <g id="line2d_26">
      <g>
       <use style="stroke:#000000;stroke-width:0.6;" x="57.6" xlink:href="#m6b21679eb3" y="180.311613"/>
      </g>
     </g>
    </g>
    <g id="ytick_13">
     <g id="line2d_27">
      <g>
       <use style="stroke:#000000;stroke-width:0.6;" x="57.6" xlink:href="#m6b21679eb3" y="168.834011"/>
      </g>
     </g>
    </g>
    <g id="ytick_14">
     <g id="line2d_28">
      <g>
       <use style="stroke:#000000;stroke-width:0.6;" x="57.6" xlink:href="#m6b21679eb3" y="159.931291"/>
      </g>
     </g>
    </g>
    <g id="ytick_15">
     <g id="line2d_29">
      <g>
       <use style="stroke:#000000;stroke-width:0.6;" x="57.6" xlink:href="#m6b21679eb3" y="152.657239"/>
      </g>
     </g>
    </g>
    <g id="ytick_16">
     <g id="line2d_30">
      <g>
       <use style="stroke:#000000;stroke-width:0.6;" x="57.6" xlink:href="#m6b21679eb3" y="146.507116"/>
      </g>
     </g>
    </g>
    <g id="ytick_17">
     <g id="line2d_31">
      <g>
       <use style="stroke:#000000;stroke-width:0.6;" x="57.6" xlink:href="#m6b21679eb3" y="141.179637"/>
      </g>
     </g>
    </g>
    <g id="ytick_18">
     <g id="line2d_32">
      <g>
       <use style="stroke:#000000;stroke-width:0.6;" x="57.6" xlink:href="#m6b21679eb3" y="136.480467"/>
      </g>
     </g>
    </g>
    <g id="ytick_19">
     <g id="line2d_33">
      <g>
       <use style="stroke:#000000;stroke-width:0.6;" x="57.6" xlink:href="#m6b21679eb3" y="104.622542"/>
      </g>
     </g>
    </g>
    <g id="ytick_20">
     <g id="line2d_34">
      <g>
       <use style="stroke:#000000;stroke-width:0.6;" x="57.6" xlink:href="#m6b21679eb3" y="88.44577"/>
      </g>
     </g>
    </g>
    <g id="ytick_21">
     <g id="line2d_35">
      <g>
       <use style="stroke:#000000;stroke-width:0.6;" x="57.6" xlink:href="#m6b21679eb3" y="76.968168"/>
      </g>
     </g>
    </g>
    <g id="ytick_22">
     <g id="line2d_36">
      <g>
       <use style="stroke:#000000;stroke-width:0.6;" x="57.6" xlink:href="#m6b21679eb3" y="68.065448"/>
      </g>
     </g>
    </g>
    <g id="ytick_23">
     <g id="line2d_37">
      <g>
       <use style="stroke:#000000;stroke-width:0.6;" x="57.6" xlink:href="#m6b21679eb3" y="60.791396"/>
      </g>
     </g>
    </g>
    <g id="ytick_24">
     <g id="line2d_38">
      <g>
       <use style="stroke:#000000;stroke-width:0.6;" x="57.6" xlink:href="#m6b21679eb3" y="54.641273"/>
      </g>
     </g>
    </g>
    <g id="ytick_25">
     <g id="line2d_39">
      <g>
       <use style="stroke:#000000;stroke-width:0.6;" x="57.6" xlink:href="#m6b21679eb3" y="49.313794"/>
      </g>
     </g>
    </g>
    <g id="ytick_26">
     <g id="line2d_40">
      <g>
       <use style="stroke:#000000;stroke-width:0.6;" x="57.6" xlink:href="#m6b21679eb3" y="44.614624"/>
      </g>
     </g>
    </g>
    <g id="text_10">
     <!-- $\mathrm{Relative \ error}$ ($N_{\mathrm{train}}=5$) -->
     <defs>
      <path d="M 44.390625 34.1875 
Q 47.5625 33.109375 50.5625 29.59375 
Q 53.5625 26.078125 56.59375 19.921875 
L 66.609375 0 
L 56 0 
L 46.6875 18.703125 
Q 43.0625 26.03125 39.671875 28.421875 
Q 36.28125 30.8125 30.421875 30.8125 
L 19.671875 30.8125 
L 19.671875 0 
L 9.8125 0 
L 9.8125 72.90625 
L 32.078125 72.90625 
Q 44.578125 72.90625 50.734375 67.671875 
Q 56.890625 62.453125 56.890625 51.90625 
Q 56.890625 45.015625 53.6875 40.46875 
Q 50.484375 35.9375 44.390625 34.1875 
z
M 19.671875 64.796875 
L 19.671875 38.921875 
L 32.078125 38.921875 
Q 39.203125 38.921875 42.84375 42.21875 
Q 46.484375 45.515625 46.484375 51.90625 
Q 46.484375 58.296875 42.84375 61.546875 
Q 39.203125 64.796875 32.078125 64.796875 
z
" id="DejaVuSans-82"/>
      <path d="M 9.421875 75.984375 
L 18.40625 75.984375 
L 18.40625 0 
L 9.421875 0 
z
" id="DejaVuSans-108"/>
      <path d="M 34.28125 27.484375 
Q 23.390625 27.484375 19.1875 25 
Q 14.984375 22.515625 14.984375 16.5 
Q 14.984375 11.71875 18.140625 8.90625 
Q 21.296875 6.109375 26.703125 6.109375 
Q 34.1875 6.109375 38.703125 11.40625 
Q 43.21875 16.703125 43.21875 25.484375 
L 43.21875 27.484375 
z
M 52.203125 31.203125 
L 52.203125 0 
L 43.21875 0 
L 43.21875 8.296875 
Q 40.140625 3.328125 35.546875 0.953125 
Q 30.953125 -1.421875 24.3125 -1.421875 
Q 15.921875 -1.421875 10.953125 3.296875 
Q 6 8.015625 6 15.921875 
Q 6 25.140625 12.171875 29.828125 
Q 18.359375 34.515625 30.609375 34.515625 
L 43.21875 34.515625 
L 43.21875 35.40625 
Q 43.21875 41.609375 39.140625 45 
Q 35.0625 48.390625 27.6875 48.390625 
Q 23 48.390625 18.546875 47.265625 
Q 14.109375 46.140625 10.015625 43.890625 
L 10.015625 52.203125 
Q 14.9375 54.109375 19.578125 55.046875 
Q 24.21875 56 28.609375 56 
Q 40.484375 56 46.34375 49.84375 
Q 52.203125 43.703125 52.203125 31.203125 
z
" id="DejaVuSans-97"/>
      <path d="M 18.3125 70.21875 
L 18.3125 54.6875 
L 36.8125 54.6875 
L 36.8125 47.703125 
L 18.3125 47.703125 
L 18.3125 18.015625 
Q 18.3125 11.328125 20.140625 9.421875 
Q 21.96875 7.515625 27.59375 7.515625 
L 36.8125 7.515625 
L 36.8125 0 
L 27.59375 0 
Q 17.1875 0 13.234375 3.875 
Q 9.28125 7.765625 9.28125 18.015625 
L 9.28125 47.703125 
L 2.6875 47.703125 
L 2.6875 54.6875 
L 9.28125 54.6875 
L 9.28125 70.21875 
z
" id="DejaVuSans-116"/>
      <path d="M 2.984375 54.6875 
L 12.5 54.6875 
L 29.59375 8.796875 
L 46.6875 54.6875 
L 56.203125 54.6875 
L 35.6875 0 
L 23.484375 0 
z
" id="DejaVuSans-118"/>
      <path d="M 41.109375 46.296875 
Q 39.59375 47.171875 37.8125 47.578125 
Q 36.03125 48 33.890625 48 
Q 26.265625 48 22.1875 43.046875 
Q 18.109375 38.09375 18.109375 28.8125 
L 18.109375 0 
L 9.078125 0 
L 9.078125 54.6875 
L 18.109375 54.6875 
L 18.109375 46.1875 
Q 20.953125 51.171875 25.484375 53.578125 
Q 30.03125 56 36.53125 56 
Q 37.453125 56 38.578125 55.875 
Q 39.703125 55.765625 41.0625 55.515625 
z
" id="DejaVuSans-114"/>
      <path id="DejaVuSans-32"/>
      <path d="M 16.890625 72.90625 
L 30.171875 72.90625 
L 50.296875 10.40625 
L 62.5 72.90625 
L 72.125 72.90625 
L 57.90625 0 
L 44.578125 0 
L 24.515625 62.890625 
L 12.3125 0 
L 2.6875 0 
z
" id="DejaVuSans-Oblique-78"/>
      <path d="M 10.59375 45.40625 
L 73.1875 45.40625 
L 73.1875 37.203125 
L 10.59375 37.203125 
z
M 10.59375 25.484375 
L 73.1875 25.484375 
L 73.1875 17.1875 
L 10.59375 17.1875 
z
" id="DejaVuSans-61"/>
      <path d="M 10.796875 72.90625 
L 49.515625 72.90625 
L 49.515625 64.59375 
L 19.828125 64.59375 
L 19.828125 46.734375 
Q 21.96875 47.46875 24.109375 47.828125 
Q 26.265625 48.1875 28.421875 48.1875 
Q 40.625 48.1875 47.75 41.5 
Q 54.890625 34.8125 54.890625 23.390625 
Q 54.890625 11.625 47.5625 5.09375 
Q 40.234375 -1.421875 26.90625 -1.421875 
Q 22.3125 -1.421875 17.546875 -0.640625 
Q 12.796875 0.140625 7.71875 1.703125 
L 7.71875 11.625 
Q 12.109375 9.234375 16.796875 8.0625 
Q 21.484375 6.890625 26.703125 6.890625 
Q 35.15625 6.890625 40.078125 11.328125 
Q 45.015625 15.765625 45.015625 23.390625 
Q 45.015625 31 40.078125 35.4375 
Q 35.15625 39.890625 26.703125 39.890625 
Q 22.75 39.890625 18.8125 39.015625 
Q 14.890625 38.140625 10.796875 36.28125 
z
" id="DejaVuSans-53"/>
     </defs>
     <g transform="translate(21.020312 235.678)rotate(-90)scale(0.1 -0.1)">
      <use transform="translate(0 0.015625)" xlink:href="#DejaVuSans-82"/>
      <use transform="translate(69.482422 0.015625)" xlink:href="#DejaVuSans-101"/>
      <use transform="translate(131.005859 0.015625)" xlink:href="#DejaVuSans-108"/>
      <use transform="translate(158.789062 0.015625)" xlink:href="#DejaVuSans-97"/>
      <use transform="translate(220.068359 0.015625)" xlink:href="#DejaVuSans-116"/>
      <use transform="translate(259.277344 0.015625)" xlink:href="#DejaVuSans-105"/>
      <use transform="translate(287.060547 0.015625)" xlink:href="#DejaVuSans-118"/>
      <use transform="translate(346.240234 0.015625)" xlink:href="#DejaVuSans-101"/>
      <use transform="translate(440.23405 0.015625)" xlink:href="#DejaVuSans-101"/>
      <use transform="translate(501.757488 0.015625)" xlink:href="#DejaVuSans-114"/>
      <use transform="translate(542.870769 0.015625)" xlink:href="#DejaVuSans-114"/>
      <use transform="translate(583.98405 0.015625)" xlink:href="#DejaVuSans-111"/>
      <use transform="translate(645.165691 0.015625)" xlink:href="#DejaVuSans-114"/>
      <use transform="translate(686.278972 0.015625)" xlink:href="#DejaVuSans-32"/>
      <use transform="translate(718.066082 0.015625)" xlink:href="#DejaVuSans-40"/>
      <use transform="translate(757.079753 0.015625)" xlink:href="#DejaVuSans-Oblique-78"/>
      <use transform="translate(831.884441 -16.390625)scale(0.7)" xlink:href="#DejaVuSans-116"/>
      <use transform="translate(859.33073 -16.390625)scale(0.7)" xlink:href="#DejaVuSans-114"/>
      <use transform="translate(888.110027 -16.390625)scale(0.7)" xlink:href="#DejaVuSans-97"/>
      <use transform="translate(931.005535 -16.390625)scale(0.7)" xlink:href="#DejaVuSans-105"/>
      <use transform="translate(950.453777 -16.390625)scale(0.7)" xlink:href="#DejaVuSans-110"/>
      <use transform="translate(1017.035808 0.015625)" xlink:href="#DejaVuSans-61"/>
      <use transform="translate(1120.307292 0.015625)" xlink:href="#DejaVuSans-53"/>
      <use transform="translate(1183.930339 0.015625)" xlink:href="#DejaVuSans-41"/>
     </g>
    </g>
   </g>
   <g id="line2d_41">
    <path clip-path="url(#p404172c866)" d="M 73.832724 216.402155 
L 77.145522 200.97945 
L 80.458321 189.594409 
L 83.771119 180.617494 
L 87.083917 173.329583 
L 90.396716 167.337996 
L 93.709554 162.385921 
L 97.022352 158.281324 
L 100.33515 154.868122 
L 103.647949 152.016654 
L 106.960747 149.620683 
L 110.273545 147.594743 
L 113.586344 145.870981 
L 116.899142 144.395901 
L 120.21194 143.127187 
L 123.524738 142.031579 
L 126.837537 141.083614 
L 130.150375 140.264242 
L 133.463173 139.559144 
L 136.775971 138.957002 
L 140.08877 138.448414 
L 143.401568 138.025289 
L 146.714366 137.680216 
L 150.027165 137.406793 
L 153.339963 137.200614 
L 156.652761 137.058093 
L 159.96556 136.975774 
L 163.278358 136.950905 
L 166.591156 136.981383 
L 169.903955 137.065902 
L 173.216753 137.203792 
L 176.529551 137.394615 
L 179.842389 137.637363 
L 183.155187 137.930528 
L 186.467986 138.271592 
L 189.780784 138.655227 
L 199.719179 139.887935 
L 203.031977 140.212115 
L 206.344776 140.43163 
L 209.657574 140.531429 
L 212.970412 140.512146 
L 216.28321 140.382547 
L 219.596008 140.154311 
L 222.908807 139.839376 
L 226.221605 139.448952 
L 229.534403 138.993149 
L 232.847202 138.481026 
L 236.16 137.920617 
L 239.472798 137.319174 
L 246.098395 136.019883 
L 252.723992 134.633311 
L 272.600821 130.387289 
L 279.226418 129.062503 
L 285.852014 127.823388 
L 292.477651 126.681414 
L 299.103247 125.640627 
L 305.728844 124.69963 
L 312.35444 123.854257 
L 318.980037 123.099912 
L 325.605634 122.433048 
L 332.23123 121.850998 
L 338.856827 121.353043 
L 345.482424 120.939767 
L 352.10806 120.612915 
L 358.733656 120.37561 
L 365.359253 120.232038 
L 368.672051 120.197479 
L 371.984889 120.189087 
L 375.297688 120.207763 
L 378.610486 120.254314 
L 381.923284 120.329332 
L 385.236083 120.432699 
L 391.861679 120.715703 
L 398.487276 121.05128 
" style="fill:none;stroke:#ff0000;stroke-linecap:square;stroke-width:1.5;"/>
   </g>
   <g id="line2d_42">
    <path clip-path="url(#p404172c866)" d="M 73.832724 269.462585 
L 77.145522 254.322661 
L 80.458321 243.217645 
L 83.771119 234.541574 
L 87.083917 227.593085 
L 90.396716 221.979294 
L 93.709554 217.428202 
L 97.022352 213.723235 
L 100.33515 210.687251 
L 103.647949 208.179367 
L 106.960747 206.086537 
L 110.273545 204.320515 
L 113.586344 202.812878 
L 116.899142 201.509643 
L 120.21194 200.367187 
L 123.524738 199.350789 
L 126.837537 198.433907 
L 130.150375 197.596352 
L 133.463173 196.821378 
L 136.775971 196.094597 
L 143.401568 194.729837 
L 153.339963 192.706233 
L 159.96556 191.285098 
L 166.591156 189.802791 
L 203.031977 181.506671 
L 219.596008 177.864371 
L 239.472798 173.499197 
L 249.411193 171.258862 
L 269.288023 166.708254 
L 275.913619 165.266235 
L 282.539216 163.90358 
L 289.164852 162.634078 
L 295.790449 161.463508 
L 302.416045 160.391555 
L 309.041642 159.414997 
L 315.667239 158.529961 
L 322.292835 157.733826 
L 328.918432 157.029288 
L 335.544029 156.423387 
L 338.856827 156.16013 
L 342.169625 155.924645 
L 345.482424 155.717875 
L 348.795222 155.540463 
L 352.10806 155.392534 
L 355.420858 155.273164 
L 362.046455 155.108008 
L 375.297688 154.869041 
L 378.610486 154.77209 
L 381.923284 154.645537 
L 385.236083 154.486524 
L 388.548881 154.293957 
L 391.861679 154.067978 
L 395.174478 153.809681 
L 398.487276 153.520732 
" style="fill:none;stroke:#0000ff;stroke-linecap:square;stroke-width:1.5;"/>
   </g>
   <g id="line2d_43">
    <path clip-path="url(#p404172c866)" d="M 73.832724 143.572376 
L 77.145522 129.075073 
L 80.458321 118.540199 
L 83.771119 110.298677 
L 87.083917 103.602548 
L 90.396716 98.041959 
L 93.709554 93.357489 
L 97.022352 89.367617 
L 100.33515 85.937221 
L 103.647949 82.962574 
L 106.960747 80.362623 
L 110.273545 78.073428 
L 113.586344 76.044124 
L 116.899142 74.23398 
L 120.21194 72.610116 
L 123.524738 71.145747 
L 126.837537 69.818936 
L 130.150375 68.61157 
L 133.463173 67.508569 
L 136.775971 66.49732 
L 140.08877 65.567164 
L 143.401568 64.709097 
L 146.714366 63.915429 
L 150.027165 63.179559 
L 153.339963 62.495814 
L 156.652761 61.859283 
L 159.96556 61.265704 
L 163.278358 60.711351 
L 166.591156 60.192985 
L 169.903955 59.707743 
L 176.529551 58.826936 
L 183.155187 58.052308 
L 189.780784 57.37102 
L 196.406381 56.773223 
L 203.031977 56.251626 
L 209.657574 55.801134 
L 216.28321 55.418716 
L 222.908807 55.103287 
L 229.534403 54.855603 
L 236.16 54.677885 
L 242.785597 54.573028 
L 249.411193 54.543019 
L 256.03679 54.586518 
L 262.662387 54.696492 
L 269.288023 54.859138 
L 282.539216 55.264663 
L 295.790449 55.655864 
L 305.728844 55.889019 
L 315.667239 56.062003 
L 325.605634 56.182083 
L 338.856827 56.282761 
L 381.923284 56.532337 
L 395.174478 56.693487 
L 398.487276 56.745133 
" style="fill:none;stroke:#00ffff;stroke-linecap:square;stroke-width:1.5;"/>
   </g>
   <g id="patch_3">
    <path d="M 57.6 307.584 
L 57.6 41.472 
" style="fill:none;stroke:#000000;stroke-linecap:square;stroke-linejoin:miter;stroke-width:0.8;"/>
   </g>
   <g id="patch_4">
    <path d="M 414.72 307.584 
L 414.72 41.472 
" style="fill:none;stroke:#000000;stroke-linecap:square;stroke-linejoin:miter;stroke-width:0.8;"/>
   </g>
   <g id="patch_5">
    <path d="M 57.6 307.584 
L 414.72 307.584 
" style="fill:none;stroke:#000000;stroke-linecap:square;stroke-linejoin:miter;stroke-width:0.8;"/>
   </g>
   <g id="patch_6">
    <path d="M 57.6 41.472 
L 414.72 41.472 
" style="fill:none;stroke:#000000;stroke-linecap:square;stroke-linejoin:miter;stroke-width:0.8;"/>
   </g>
   <g id="legend_1">
    <g id="patch_7">
     <path d="M 289.835625 302.584 
L 407.72 302.584 
Q 409.72 302.584 409.72 300.584 
L 409.72 257.549625 
Q 409.72 255.549625 407.72 255.549625 
L 289.835625 255.549625 
Q 287.835625 255.549625 287.835625 257.549625 
L 287.835625 300.584 
Q 287.835625 302.584 289.835625 302.584 
z
" style="fill:#ffffff;opacity:0.8;stroke:#cccccc;stroke-linejoin:miter;"/>
    </g>
    <g id="line2d_44">
     <path d="M 291.835625 263.648062 
L 311.835625 263.648062 
" style="fill:none;stroke:#ff0000;stroke-linecap:square;stroke-width:1.5;"/>
    </g>
    <g id="line2d_45"/>
    <g id="text_11">
     <!-- No grad. reg. -->
     <defs>
      <path d="M 9.8125 72.90625 
L 23.09375 72.90625 
L 55.421875 11.921875 
L 55.421875 72.90625 
L 64.984375 72.90625 
L 64.984375 0 
L 51.703125 0 
L 19.390625 60.984375 
L 19.390625 0 
L 9.8125 0 
z
" id="DejaVuSans-78"/>
      <path d="M 45.40625 27.984375 
Q 45.40625 37.75 41.375 43.109375 
Q 37.359375 48.484375 30.078125 48.484375 
Q 22.859375 48.484375 18.828125 43.109375 
Q 14.796875 37.75 14.796875 27.984375 
Q 14.796875 18.265625 18.828125 12.890625 
Q 22.859375 7.515625 30.078125 7.515625 
Q 37.359375 7.515625 41.375 12.890625 
Q 45.40625 18.265625 45.40625 27.984375 
z
M 54.390625 6.78125 
Q 54.390625 -7.171875 48.1875 -13.984375 
Q 42 -20.796875 29.203125 -20.796875 
Q 24.46875 -20.796875 20.265625 -20.09375 
Q 16.0625 -19.390625 12.109375 -17.921875 
L 12.109375 -9.1875 
Q 16.0625 -11.328125 19.921875 -12.34375 
Q 23.78125 -13.375 27.78125 -13.375 
Q 36.625 -13.375 41.015625 -8.765625 
Q 45.40625 -4.15625 45.40625 5.171875 
L 45.40625 9.625 
Q 42.625 4.78125 38.28125 2.390625 
Q 33.9375 0 27.875 0 
Q 17.828125 0 11.671875 7.65625 
Q 5.515625 15.328125 5.515625 27.984375 
Q 5.515625 40.671875 11.671875 48.328125 
Q 17.828125 56 27.875 56 
Q 33.9375 56 38.28125 53.609375 
Q 42.625 51.21875 45.40625 46.390625 
L 45.40625 54.6875 
L 54.390625 54.6875 
z
" id="DejaVuSans-103"/>
     </defs>
     <g transform="translate(319.835625 267.148062)scale(0.1 -0.1)">
      <use xlink:href="#DejaVuSans-78"/>
      <use x="74.804688" xlink:href="#DejaVuSans-111"/>
      <use x="135.986328" xlink:href="#DejaVuSans-32"/>
      <use x="167.773438" xlink:href="#DejaVuSans-103"/>
      <use x="231.25" xlink:href="#DejaVuSans-114"/>
      <use x="272.363281" xlink:href="#DejaVuSans-97"/>
      <use x="333.642578" xlink:href="#DejaVuSans-100"/>
      <use x="397.119141" xlink:href="#DejaVuSans-46"/>
      <use x="428.90625" xlink:href="#DejaVuSans-32"/>
      <use x="460.693359" xlink:href="#DejaVuSans-114"/>
      <use x="501.775391" xlink:href="#DejaVuSans-101"/>
      <use x="563.298828" xlink:href="#DejaVuSans-103"/>
      <use x="626.775391" xlink:href="#DejaVuSans-46"/>
     </g>
    </g>
    <g id="line2d_46">
     <path d="M 291.835625 278.326188 
L 311.835625 278.326188 
" style="fill:none;stroke:#0000ff;stroke-linecap:square;stroke-width:1.5;"/>
    </g>
    <g id="line2d_47"/>
    <g id="text_12">
     <!-- Grad. reg -->
     <defs>
      <path d="M 59.515625 10.40625 
L 59.515625 29.984375 
L 43.40625 29.984375 
L 43.40625 38.09375 
L 69.28125 38.09375 
L 69.28125 6.78125 
Q 63.578125 2.734375 56.6875 0.65625 
Q 49.8125 -1.421875 42 -1.421875 
Q 24.90625 -1.421875 15.25 8.5625 
Q 5.609375 18.5625 5.609375 36.375 
Q 5.609375 54.25 15.25 64.234375 
Q 24.90625 74.21875 42 74.21875 
Q 49.125 74.21875 55.546875 72.453125 
Q 61.96875 70.703125 67.390625 67.28125 
L 67.390625 56.78125 
Q 61.921875 61.421875 55.765625 63.765625 
Q 49.609375 66.109375 42.828125 66.109375 
Q 29.4375 66.109375 22.71875 58.640625 
Q 16.015625 51.171875 16.015625 36.375 
Q 16.015625 21.625 22.71875 14.15625 
Q 29.4375 6.6875 42.828125 6.6875 
Q 48.046875 6.6875 52.140625 7.59375 
Q 56.25 8.5 59.515625 10.40625 
z
" id="DejaVuSans-71"/>
     </defs>
     <g transform="translate(319.835625 281.826188)scale(0.1 -0.1)">
      <use xlink:href="#DejaVuSans-71"/>
      <use x="77.490234" xlink:href="#DejaVuSans-114"/>
      <use x="118.603516" xlink:href="#DejaVuSans-97"/>
      <use x="179.882812" xlink:href="#DejaVuSans-100"/>
      <use x="243.359375" xlink:href="#DejaVuSans-46"/>
      <use x="275.146484" xlink:href="#DejaVuSans-32"/>
      <use x="306.933594" xlink:href="#DejaVuSans-114"/>
      <use x="348.015625" xlink:href="#DejaVuSans-101"/>
      <use x="409.539062" xlink:href="#DejaVuSans-103"/>
     </g>
    </g>
    <g id="line2d_48">
     <path d="M 291.835625 293.004312 
L 311.835625 293.004312 
" style="fill:none;stroke:#00ffff;stroke-linecap:square;stroke-width:1.5;"/>
    </g>
    <g id="line2d_49"/>
    <g id="text_13">
     <!-- Second grad. reg -->
     <defs>
      <path d="M 53.515625 70.515625 
L 53.515625 60.890625 
Q 47.90625 63.578125 42.921875 64.890625 
Q 37.9375 66.21875 33.296875 66.21875 
Q 25.25 66.21875 20.875 63.09375 
Q 16.5 59.96875 16.5 54.203125 
Q 16.5 49.359375 19.40625 46.890625 
Q 22.3125 44.4375 30.421875 42.921875 
L 36.375 41.703125 
Q 47.40625 39.59375 52.65625 34.296875 
Q 57.90625 29 57.90625 20.125 
Q 57.90625 9.515625 50.796875 4.046875 
Q 43.703125 -1.421875 29.984375 -1.421875 
Q 24.8125 -1.421875 18.96875 -0.25 
Q 13.140625 0.921875 6.890625 3.21875 
L 6.890625 13.375 
Q 12.890625 10.015625 18.65625 8.296875 
Q 24.421875 6.59375 29.984375 6.59375 
Q 38.421875 6.59375 43.015625 9.90625 
Q 47.609375 13.234375 47.609375 19.390625 
Q 47.609375 24.75 44.3125 27.78125 
Q 41.015625 30.8125 33.5 32.328125 
L 27.484375 33.5 
Q 16.453125 35.6875 11.515625 40.375 
Q 6.59375 45.0625 6.59375 53.421875 
Q 6.59375 63.09375 13.40625 68.65625 
Q 20.21875 74.21875 32.171875 74.21875 
Q 37.3125 74.21875 42.625 73.28125 
Q 47.953125 72.359375 53.515625 70.515625 
z
" id="DejaVuSans-83"/>
     </defs>
     <g transform="translate(319.835625 296.504312)scale(0.1 -0.1)">
      <use xlink:href="#DejaVuSans-83"/>
      <use x="63.476562" xlink:href="#DejaVuSans-101"/>
      <use x="125" xlink:href="#DejaVuSans-99"/>
      <use x="179.980469" xlink:href="#DejaVuSans-111"/>
      <use x="241.162109" xlink:href="#DejaVuSans-110"/>
      <use x="304.541016" xlink:href="#DejaVuSans-100"/>
      <use x="368.017578" xlink:href="#DejaVuSans-32"/>
      <use x="399.804688" xlink:href="#DejaVuSans-103"/>
      <use x="463.28125" xlink:href="#DejaVuSans-114"/>
      <use x="504.394531" xlink:href="#DejaVuSans-97"/>
      <use x="565.673828" xlink:href="#DejaVuSans-100"/>
      <use x="629.150391" xlink:href="#DejaVuSans-46"/>
      <use x="660.9375" xlink:href="#DejaVuSans-32"/>
      <use x="692.724609" xlink:href="#DejaVuSans-114"/>
      <use x="733.806641" xlink:href="#DejaVuSans-101"/>
      <use x="795.330078" xlink:href="#DejaVuSans-103"/>
     </g>
    </g>
   </g>
  </g>
 </g>
 <defs>
  <clipPath id="p404172c866">
   <rect height="266.112" width="357.12" x="57.6" y="41.472"/>
  </clipPath>
 </defs>
</svg>
