<?xml version="1.0" encoding="utf-8" standalone="no"?>
<!DOCTYPE svg PUBLIC "-//W3C//DTD SVG 1.1//EN"
  "http://www.w3.org/Graphics/SVG/1.1/DTD/svg11.dtd">
<!-- Created with matplotlib (https://matplotlib.org/) -->
<svg height="345.6pt" version="1.1" viewBox="0 0 460.8 345.6" width="460.8pt" xmlns="http://www.w3.org/2000/svg" xmlns:xlink="http://www.w3.org/1999/xlink">
 <defs>
  <style type="text/css">
*{stroke-linecap:butt;stroke-linejoin:round;white-space:pre;}
  </style>
 </defs>
 <g id="figure_1">
  <g id="patch_1">
   <path d="M 0 345.6 
L 460.8 345.6 
L 460.8 0 
L 0 0 
z
" style="fill:#ffffff;"/>
  </g>
  <g id="axes_1">
   <g id="patch_2">
    <path d="M 57.6 307.584 
L 414.72 307.584 
L 414.72 41.472 
L 57.6 41.472 
z
" style="fill:#ffffff;"/>
   </g>
   <g id="PolyCollection_1">
    <path clip-path="url(#pc12923f093)" d="M 73.832727 262.526822 
L 73.832727 295.488 
L 77.145529 279.201827 
L 80.45833 266.928672 
L 83.771132 257.084329 
L 87.083933 249.003299 
L 90.396735 242.262818 
L 93.709536 236.566961 
L 97.022338 231.698531 
L 100.335139 227.475472 
L 103.647941 223.755892 
L 106.960742 220.431656 
L 110.273544 217.421278 
L 113.586345 214.664568 
L 116.899147 212.112746 
L 120.211948 209.724412 
L 123.52475 207.466044 
L 126.837551 205.313969 
L 130.150353 203.257172 
L 133.463154 201.29276 
L 136.775955 199.418152 
L 140.088757 197.627373 
L 143.401558 195.914204 
L 146.71436 194.276385 
L 150.027161 192.710877 
L 153.339963 191.2146 
L 156.652764 189.78886 
L 159.965566 188.437745 
L 163.278367 187.170529 
L 166.591169 185.993551 
L 169.90397 184.912797 
L 173.216772 183.930838 
L 176.529573 183.042812 
L 179.842375 182.238714 
L 183.155176 181.509117 
L 186.467978 180.848407 
L 189.780779 180.254021 
L 193.093581 179.716189 
L 196.406382 179.227635 
L 199.719184 178.786042 
L 203.031985 178.384755 
L 206.344787 178.020673 
L 209.657588 177.692733 
L 212.97039 177.400279 
L 216.283191 177.140502 
L 219.595993 176.912272 
L 222.908794 176.714309 
L 226.221596 176.542943 
L 229.534397 176.394544 
L 232.847199 176.265171 
L 236.16 176.14973 
L 239.472801 176.042502 
L 242.785603 175.937704 
L 246.098404 175.834742 
L 249.411206 175.736288 
L 252.724007 175.643043 
L 256.036809 175.553553 
L 259.34961 175.464505 
L 262.662412 175.371987 
L 265.975213 175.272289 
L 269.288015 175.162592 
L 272.600816 175.041992 
L 275.913618 174.912076 
L 279.226419 174.774229 
L 282.539221 174.629459 
L 285.852022 174.479164 
L 289.164824 174.325053 
L 292.477625 174.169052 
L 295.790427 174.013205 
L 299.103228 173.859538 
L 302.41603 173.70979 
L 305.728831 173.565242 
L 309.041633 173.426568 
L 312.354434 173.294141 
L 315.667236 173.167555 
L 318.980037 173.047479 
L 322.292839 172.935188 
L 325.60564 172.831199 
L 328.918442 172.736374 
L 332.231243 172.652275 
L 335.544045 172.578505 
L 338.856846 172.513079 
L 342.169647 172.45606 
L 345.482449 172.409377 
L 348.79525 172.374564 
L 352.108052 172.355154 
L 355.420853 172.355409 
L 358.733655 172.378141 
L 362.046456 172.423213 
L 365.359258 172.49013 
L 368.672059 172.579412 
L 371.984861 172.690252 
L 375.297662 172.818687 
L 378.610464 172.958067 
L 381.923265 173.102386 
L 385.236067 173.245936 
L 388.548868 173.381855 
L 391.86167 173.502274 
L 395.174471 173.601995 
L 398.487273 173.67785 
L 398.487273 147.432613 
L 398.487273 147.432613 
L 395.174471 147.329389 
L 391.86167 147.177525 
L 388.548868 146.980549 
L 385.236067 146.746139 
L 381.923265 146.486018 
L 378.610464 146.213544 
L 375.297662 145.941476 
L 371.984861 145.681773 
L 368.672059 145.444375 
L 365.359258 145.23667 
L 362.046456 145.06437 
L 358.733655 144.929544 
L 355.420853 144.832429 
L 352.108052 144.77229 
L 348.79525 144.746351 
L 345.482449 144.751883 
L 342.169647 144.787003 
L 338.856846 144.850129 
L 335.544045 144.939278 
L 332.231243 145.05247 
L 328.918442 145.188596 
L 325.60564 145.3474 
L 322.292839 145.52897 
L 318.980037 145.73325 
L 315.667236 145.96025 
L 312.354434 146.210249 
L 309.041633 146.483816 
L 305.728831 146.781829 
L 302.41603 147.105302 
L 299.103228 147.455295 
L 295.790427 147.83286 
L 292.477625 148.239007 
L 289.164824 148.674777 
L 285.852022 149.141075 
L 282.539221 149.638541 
L 279.226419 150.167837 
L 275.913618 150.729518 
L 272.600816 151.323946 
L 269.288015 151.951223 
L 265.975213 152.610937 
L 262.662412 153.302121 
L 259.34961 154.023299 
L 256.036809 154.772516 
L 252.724007 155.547384 
L 249.411206 156.345243 
L 246.098404 157.163432 
L 242.785603 157.999287 
L 239.472801 158.850017 
L 236.16 159.712818 
L 232.847199 160.58521 
L 229.534397 161.465084 
L 226.221596 162.350823 
L 222.908794 163.241474 
L 219.595993 164.136645 
L 216.283191 165.036478 
L 212.97039 165.941514 
L 209.657588 166.852904 
L 206.344787 167.772375 
L 203.031985 168.702376 
L 199.719184 169.645448 
L 196.406382 170.603244 
L 193.093581 171.57671 
L 189.780779 172.565712 
L 186.467978 173.571681 
L 183.155176 174.596905 
L 179.842375 175.643342 
L 176.529573 176.71215 
L 173.216772 177.801123 
L 169.90397 178.90358 
L 166.591169 180.008904 
L 163.278367 181.101561 
L 159.965566 182.16725 
L 156.652764 183.197917 
L 153.339963 184.187746 
L 150.027161 185.136749 
L 146.71436 186.044524 
L 143.401558 186.918269 
L 140.088757 187.769711 
L 136.775955 188.61702 
L 133.463154 189.478133 
L 130.150353 190.362807 
L 126.837551 191.276997 
L 123.52475 192.228077 
L 120.211948 193.236332 
L 116.899147 194.334134 
L 113.586345 195.560198 
L 110.273544 196.963079 
L 106.960742 198.604491 
L 103.647941 200.565694 
L 100.335139 202.95698 
L 97.022338 205.922906 
L 93.709536 209.623297 
L 90.396735 214.234153 
L 87.083933 219.966925 
L 83.771132 227.08354 
L 80.45833 235.951784 
L 77.145529 247.228899 
L 73.832727 262.526822 
z
" style="fill:#ffa500;fill-opacity:0.4;"/>
   </g>
   <g id="PolyCollection_2">
    <path clip-path="url(#pc12923f093)" d="M 73.832727 175.481003 
L 73.832727 185.039092 
L 77.145529 168.625646 
L 80.45833 156.274617 
L 83.771132 146.321428 
L 87.083933 138.038649 
L 90.396735 131.037427 
L 93.709536 125.067599 
L 97.022338 119.943791 
L 100.335139 115.517782 
L 103.647941 111.668336 
L 106.960742 108.296386 
L 110.273544 105.321834 
L 113.586345 102.680334 
L 116.899147 100.319976 
L 120.211948 98.198857 
L 123.52475 96.283435 
L 126.837551 94.546864 
L 130.150353 92.967295 
L 133.463154 91.526715 
L 136.775955 90.210034 
L 140.088757 89.004651 
L 143.401558 87.900021 
L 146.71436 86.887281 
L 150.027161 85.95902 
L 153.339963 85.109049 
L 156.652764 84.332141 
L 159.965566 83.623861 
L 163.278367 82.980421 
L 166.591169 82.398572 
L 169.90397 81.875552 
L 173.216772 81.409022 
L 176.529573 80.99703 
L 179.842375 80.637927 
L 183.155176 80.330273 
L 186.467978 80.072816 
L 189.780779 79.864563 
L 193.093581 79.704823 
L 196.406382 79.59314 
L 199.719184 79.529229 
L 203.031985 79.512877 
L 206.344787 79.543821 
L 209.657588 79.621529 
L 212.97039 79.744867 
L 216.283191 79.911639 
L 219.595993 80.117958 
L 222.908794 80.357491 
L 226.221596 80.620695 
L 229.534397 80.894499 
L 232.847199 81.162885 
L 236.16 81.408591 
L 239.472801 81.615621 
L 242.785603 81.771659 
L 246.098404 81.869362 
L 249.411206 81.906295 
L 252.724007 81.883918 
L 256.036809 81.806289 
L 259.34961 81.678932 
L 262.662412 81.507994 
L 265.975213 81.299693 
L 269.288015 81.059978 
L 272.600816 80.794346 
L 275.913618 80.507758 
L 279.226419 80.204608 
L 282.539221 79.888746 
L 285.852022 79.563516 
L 289.164824 79.231803 
L 292.477625 78.896077 
L 295.790427 78.558444 
L 299.103228 78.220696 
L 302.41603 77.884353 
L 305.728831 77.550714 
L 309.041633 77.220894 
L 312.354434 76.895864 
L 315.667236 76.576468 
L 318.980037 76.263446 
L 322.292839 75.957446 
L 325.60564 75.659036 
L 328.918442 75.368734 
L 332.231243 75.087026 
L 335.544045 74.81437 
L 338.856846 74.551213 
L 342.169647 74.297991 
L 345.482449 74.055127 
L 348.79525 73.823038 
L 352.108052 73.602121 
L 355.420853 73.392754 
L 358.733655 73.195293 
L 362.046456 73.010086 
L 365.359258 72.837487 
L 368.672059 72.677855 
L 371.984861 72.53157 
L 375.297662 72.399035 
L 378.610464 72.280696 
L 381.923265 72.177048 
L 385.236067 72.088631 
L 388.548868 72.016039 
L 391.86167 71.959927 
L 395.174471 71.921018 
L 398.487273 71.90011 
L 398.487273 67.508071 
L 398.487273 67.508071 
L 395.174471 67.589055 
L 391.86167 67.684507 
L 388.548868 67.794025 
L 385.236067 67.917211 
L 381.923265 68.05367 
L 378.610464 68.203017 
L 375.297662 68.364875 
L 371.984861 68.538886 
L 368.672059 68.724704 
L 365.359258 68.921992 
L 362.046456 69.130416 
L 358.733655 69.349638 
L 355.420853 69.579313 
L 352.108052 69.819091 
L 348.79525 70.06861 
L 345.482449 70.3275 
L 342.169647 70.595385 
L 338.856846 70.871887 
L 335.544045 71.156628 
L 332.231243 71.449216 
L 328.918442 71.749235 
L 325.60564 72.056235 
L 322.292839 72.369717 
L 318.980037 72.689123 
L 315.667236 73.013817 
L 312.354434 73.343068 
L 309.041633 73.676039 
L 305.728831 74.01177 
L 302.41603 74.349156 
L 299.103228 74.686911 
L 295.790427 75.023533 
L 292.477625 75.357262 
L 289.164824 75.686032 
L 285.852022 76.007418 
L 282.539221 76.318577 
L 279.226419 76.61619 
L 275.913618 76.896417 
L 272.600816 77.154849 
L 269.288015 77.386497 
L 265.975213 77.585829 
L 262.662412 77.746889 
L 259.34961 77.863537 
L 256.036809 77.929891 
L 252.724007 77.941012 
L 249.411206 77.893872 
L 246.098404 77.788533 
L 242.785603 77.629271 
L 239.472801 77.425152 
L 236.16 77.189514 
L 232.847199 76.938216 
L 229.534397 76.687179 
L 226.221596 76.450227 
L 222.908794 76.237946 
L 219.595993 76.0576 
L 216.283191 75.913689 
L 212.97039 75.80872 
L 209.657588 75.743885 
L 206.344787 75.719594 
L 203.031985 75.735833 
L 199.719184 75.792412 
L 196.406382 75.88912 
L 193.093581 76.025806 
L 189.780779 76.202451 
L 186.467978 76.41921 
L 183.155176 76.676471 
L 179.842375 76.974901 
L 176.529573 77.315427 
L 173.216772 77.69921 
L 169.90397 78.127661 
L 166.591169 78.602422 
L 163.278367 79.12539 
L 159.965566 79.698773 
L 156.652764 80.325197 
L 153.339963 81.007794 
L 150.027161 81.750315 
L 146.71436 82.557403 
L 143.401558 83.434699 
L 140.088757 84.389051 
L 136.775955 85.428785 
L 133.463154 86.56429 
L 130.150353 87.808394 
L 126.837551 89.176814 
L 123.52475 90.688832 
L 120.211948 92.367812 
L 116.899147 94.242064 
L 113.586345 96.346189 
L 110.273544 98.722886 
L 106.960742 101.424975 
L 103.647941 104.517847 
L 100.335139 108.082311 
L 97.022338 112.217597 
L 93.709536 117.045416 
L 90.396735 122.716079 
L 87.083933 129.420591 
L 83.771132 137.419209 
L 80.45833 147.1143 
L 77.145529 159.243249 
L 73.832727 175.481003 
z
" style="fill:#ff00ff;fill-opacity:0.4;"/>
   </g>
   <g id="PolyCollection_3">
    <path clip-path="url(#pc12923f093)" d="M 73.832727 154.457467 
L 73.832727 159.244623 
L 77.145529 143.456662 
L 80.45833 131.736851 
L 83.771132 122.39305 
L 87.083933 114.674532 
L 90.396735 108.176652 
L 93.709536 102.645842 
L 97.022338 97.902229 
L 100.335139 93.808195 
L 103.647941 90.254629 
L 106.960742 87.153421 
L 110.273544 84.432877 
L 113.586345 82.034537 
L 116.899147 79.910591 
L 120.211948 78.021712 
L 123.52475 76.335431 
L 126.837551 74.824865 
L 130.150353 73.467663 
L 133.463154 72.245174 
L 136.775955 71.14179 
L 140.088757 70.144393 
L 143.401558 69.241903 
L 146.71436 68.424951 
L 150.027161 67.685668 
L 153.339963 67.017454 
L 156.652764 66.414744 
L 159.965566 65.872852 
L 163.278367 65.387846 
L 166.591169 64.956415 
L 169.90397 64.575745 
L 173.216772 64.243435 
L 176.529573 63.957431 
L 179.842375 63.71599 
L 183.155176 63.517662 
L 186.467978 63.361251 
L 189.780779 63.245848 
L 193.093581 63.170839 
L 196.406382 63.135909 
L 199.719184 63.141013 
L 203.031985 63.186329 
L 206.344787 63.272234 
L 209.657588 63.399256 
L 212.97039 63.567988 
L 216.283191 63.778942 
L 219.595993 64.032309 
L 222.908794 64.327601 
L 226.221596 64.663121 
L 229.534397 65.035229 
L 232.847199 65.437439 
L 236.16 65.859623 
L 239.472801 66.287814 
L 242.785603 66.705181 
L 246.098404 67.094356 
L 249.411206 67.440335 
L 252.724007 67.732687 
L 256.036809 67.966245 
L 259.34961 68.140454 
L 262.662412 68.258056 
L 265.975213 68.323758 
L 269.288015 68.343202 
L 272.600816 68.322258 
L 275.913618 68.266608 
L 279.226419 68.181521 
L 282.539221 68.071758 
L 285.852022 67.941547 
L 289.164824 67.794607 
L 292.477625 67.634183 
L 295.790427 67.463101 
L 299.103228 67.283819 
L 302.41603 67.098476 
L 305.728831 66.908936 
L 309.041633 66.716823 
L 312.354434 66.523565 
L 315.667236 66.330429 
L 318.980037 66.13854 
L 322.292839 65.948911 
L 325.60564 65.762466 
L 328.918442 65.580058 
L 332.231243 65.402488 
L 335.544045 65.230516 
L 338.856846 65.064877 
L 342.169647 64.906283 
L 345.482449 64.755431 
L 348.79525 64.613011 
L 352.108052 64.479708 
L 355.420853 64.356197 
L 358.733655 64.243155 
L 362.046456 64.141262 
L 365.359258 64.051196 
L 368.672059 63.973639 
L 371.984861 63.909275 
L 375.297662 63.858787 
L 378.610464 63.822861 
L 381.923265 63.802203 
L 385.236067 63.797562 
L 388.548868 63.809764 
L 391.86167 63.839725 
L 395.174471 63.888482 
L 398.487273 63.957211 
L 398.487273 53.568 
L 398.487273 53.568 
L 395.174471 53.671266 
L 391.86167 53.782385 
L 388.548868 53.901296 
L 385.236067 54.027932 
L 381.923265 54.162214 
L 378.610464 54.30404 
L 375.297662 54.453281 
L 371.984861 54.60979 
L 368.672059 54.773403 
L 365.359258 54.943946 
L 362.046456 55.121239 
L 358.733655 55.305091 
L 355.420853 55.495304 
L 352.108052 55.691671 
L 348.79525 55.893974 
L 345.482449 56.101986 
L 342.169647 56.315468 
L 338.856846 56.534163 
L 335.544045 56.757795 
L 332.231243 56.986062 
L 328.918442 57.218632 
L 325.60564 57.455131 
L 322.292839 57.69514 
L 318.980037 57.938182 
L 315.667236 58.183715 
L 312.354434 58.431117 
L 309.041633 58.679669 
L 305.728831 58.92854 
L 302.41603 59.176763 
L 299.103228 59.423208 
L 295.790427 59.666556 
L 292.477625 59.905264 
L 289.164824 60.137532 
L 285.852022 60.361266 
L 282.539221 60.574046 
L 279.226419 60.77309 
L 275.913618 60.95524 
L 272.600816 61.116964 
L 269.288015 61.25439 
L 265.975213 61.363414 
L 262.662412 61.439878 
L 259.34961 61.479873 
L 256.036809 61.480187 
L 252.724007 61.438899 
L 249.411206 61.356079 
L 246.098404 61.23443 
L 242.785603 61.079592 
L 239.472801 60.899827 
L 236.16 60.705049 
L 232.847199 60.505534 
L 229.534397 60.310765 
L 226.221596 60.128731 
L 222.908794 59.965663 
L 219.595993 59.826117 
L 216.283191 59.71326 
L 212.97039 59.629194 
L 209.657588 59.575268 
L 206.344787 59.552333 
L 203.031985 59.560955 
L 199.719184 59.601556 
L 196.406382 59.67453 
L 193.093581 59.780329 
L 189.780779 59.91954 
L 186.467978 60.092938 
L 183.155176 60.301524 
L 179.842375 60.546522 
L 176.529573 60.829384 
L 173.216772 61.151798 
L 169.90397 61.515711 
L 166.591169 61.92335 
L 163.278367 62.377257 
L 159.965566 62.880355 
L 156.652764 63.436016 
L 153.339963 64.048176 
L 150.027161 64.721463 
L 146.71436 65.461309 
L 143.401558 66.27411 
L 140.088757 67.167413 
L 136.775955 68.150105 
L 133.463154 69.232676 
L 130.150353 70.427593 
L 126.837551 71.749705 
L 123.52475 73.216773 
L 120.211948 74.850142 
L 116.899147 76.675597 
L 113.586345 78.724418 
L 110.273544 81.034723 
L 106.960742 83.653389 
L 103.647941 86.638358 
L 100.335139 90.061466 
L 97.022338 94.012329 
L 93.709536 98.603604 
L 90.396735 103.978536 
L 87.083933 110.32458 
L 83.771132 117.904127 
L 80.45833 127.128652 
L 77.145529 138.750002 
L 73.832727 154.457467 
z
" style="fill:#ff0000;fill-opacity:0.4;"/>
   </g>
   <g id="matplotlib.axis_1">
    <g id="xtick_1">
     <g id="line2d_1">
      <path clip-path="url(#pc12923f093)" d="M 70.519926 307.584 
L 70.519926 41.472 
" style="fill:none;stroke:#b0b0b0;stroke-linecap:square;stroke-width:0.8;"/>
     </g>
     <g id="line2d_2">
      <defs>
       <path d="M 0 0 
L 0 3.5 
" id="m0f4885d3c7" style="stroke:#000000;stroke-width:0.8;"/>
      </defs>
      <g>
       <use style="stroke:#000000;stroke-width:0.8;" x="70.519926" xlink:href="#m0f4885d3c7" y="307.584"/>
      </g>
     </g>
     <g id="text_1">
      <!-- 0.0 -->
      <defs>
       <path d="M 31.78125 66.40625 
Q 24.171875 66.40625 20.328125 58.90625 
Q 16.5 51.421875 16.5 36.375 
Q 16.5 21.390625 20.328125 13.890625 
Q 24.171875 6.390625 31.78125 6.390625 
Q 39.453125 6.390625 43.28125 13.890625 
Q 47.125 21.390625 47.125 36.375 
Q 47.125 51.421875 43.28125 58.90625 
Q 39.453125 66.40625 31.78125 66.40625 
z
M 31.78125 74.21875 
Q 44.046875 74.21875 50.515625 64.515625 
Q 56.984375 54.828125 56.984375 36.375 
Q 56.984375 17.96875 50.515625 8.265625 
Q 44.046875 -1.421875 31.78125 -1.421875 
Q 19.53125 -1.421875 13.0625 8.265625 
Q 6.59375 17.96875 6.59375 36.375 
Q 6.59375 54.828125 13.0625 64.515625 
Q 19.53125 74.21875 31.78125 74.21875 
z
" id="DejaVuSans-48"/>
       <path d="M 10.6875 12.40625 
L 21 12.40625 
L 21 0 
L 10.6875 0 
z
" id="DejaVuSans-46"/>
      </defs>
      <g transform="translate(62.568363 322.182437)scale(0.1 -0.1)">
       <use xlink:href="#DejaVuSans-48"/>
       <use x="63.623047" xlink:href="#DejaVuSans-46"/>
       <use x="95.410156" xlink:href="#DejaVuSans-48"/>
      </g>
     </g>
    </g>
    <g id="xtick_2">
     <g id="line2d_3">
      <path clip-path="url(#pc12923f093)" d="M 136.775955 307.584 
L 136.775955 41.472 
" style="fill:none;stroke:#b0b0b0;stroke-linecap:square;stroke-width:0.8;"/>
     </g>
     <g id="line2d_4">
      <g>
       <use style="stroke:#000000;stroke-width:0.8;" x="136.775955" xlink:href="#m0f4885d3c7" y="307.584"/>
      </g>
     </g>
     <g id="text_2">
      <!-- 0.2 -->
      <defs>
       <path d="M 19.1875 8.296875 
L 53.609375 8.296875 
L 53.609375 0 
L 7.328125 0 
L 7.328125 8.296875 
Q 12.9375 14.109375 22.625 23.890625 
Q 32.328125 33.6875 34.8125 36.53125 
Q 39.546875 41.84375 41.421875 45.53125 
Q 43.3125 49.21875 43.3125 52.78125 
Q 43.3125 58.59375 39.234375 62.25 
Q 35.15625 65.921875 28.609375 65.921875 
Q 23.96875 65.921875 18.8125 64.3125 
Q 13.671875 62.703125 7.8125 59.421875 
L 7.8125 69.390625 
Q 13.765625 71.78125 18.9375 73 
Q 24.125 74.21875 28.421875 74.21875 
Q 39.75 74.21875 46.484375 68.546875 
Q 53.21875 62.890625 53.21875 53.421875 
Q 53.21875 48.921875 51.53125 44.890625 
Q 49.859375 40.875 45.40625 35.40625 
Q 44.1875 33.984375 37.640625 27.21875 
Q 31.109375 20.453125 19.1875 8.296875 
z
" id="DejaVuSans-50"/>
      </defs>
      <g transform="translate(128.824393 322.182437)scale(0.1 -0.1)">
       <use xlink:href="#DejaVuSans-48"/>
       <use x="63.623047" xlink:href="#DejaVuSans-46"/>
       <use x="95.410156" xlink:href="#DejaVuSans-50"/>
      </g>
     </g>
    </g>
    <g id="xtick_3">
     <g id="line2d_5">
      <path clip-path="url(#pc12923f093)" d="M 203.031985 307.584 
L 203.031985 41.472 
" style="fill:none;stroke:#b0b0b0;stroke-linecap:square;stroke-width:0.8;"/>
     </g>
     <g id="line2d_6">
      <g>
       <use style="stroke:#000000;stroke-width:0.8;" x="203.031985" xlink:href="#m0f4885d3c7" y="307.584"/>
      </g>
     </g>
     <g id="text_3">
      <!-- 0.4 -->
      <defs>
       <path d="M 37.796875 64.3125 
L 12.890625 25.390625 
L 37.796875 25.390625 
z
M 35.203125 72.90625 
L 47.609375 72.90625 
L 47.609375 25.390625 
L 58.015625 25.390625 
L 58.015625 17.1875 
L 47.609375 17.1875 
L 47.609375 0 
L 37.796875 0 
L 37.796875 17.1875 
L 4.890625 17.1875 
L 4.890625 26.703125 
z
" id="DejaVuSans-52"/>
      </defs>
      <g transform="translate(195.080423 322.182437)scale(0.1 -0.1)">
       <use xlink:href="#DejaVuSans-48"/>
       <use x="63.623047" xlink:href="#DejaVuSans-46"/>
       <use x="95.410156" xlink:href="#DejaVuSans-52"/>
      </g>
     </g>
    </g>
    <g id="xtick_4">
     <g id="line2d_7">
      <path clip-path="url(#pc12923f093)" d="M 269.288015 307.584 
L 269.288015 41.472 
" style="fill:none;stroke:#b0b0b0;stroke-linecap:square;stroke-width:0.8;"/>
     </g>
     <g id="line2d_8">
      <g>
       <use style="stroke:#000000;stroke-width:0.8;" x="269.288015" xlink:href="#m0f4885d3c7" y="307.584"/>
      </g>
     </g>
     <g id="text_4">
      <!-- 0.6 -->
      <defs>
       <path d="M 33.015625 40.375 
Q 26.375 40.375 22.484375 35.828125 
Q 18.609375 31.296875 18.609375 23.390625 
Q 18.609375 15.53125 22.484375 10.953125 
Q 26.375 6.390625 33.015625 6.390625 
Q 39.65625 6.390625 43.53125 10.953125 
Q 47.40625 15.53125 47.40625 23.390625 
Q 47.40625 31.296875 43.53125 35.828125 
Q 39.65625 40.375 33.015625 40.375 
z
M 52.59375 71.296875 
L 52.59375 62.3125 
Q 48.875 64.0625 45.09375 64.984375 
Q 41.3125 65.921875 37.59375 65.921875 
Q 27.828125 65.921875 22.671875 59.328125 
Q 17.53125 52.734375 16.796875 39.40625 
Q 19.671875 43.65625 24.015625 45.921875 
Q 28.375 48.1875 33.59375 48.1875 
Q 44.578125 48.1875 50.953125 41.515625 
Q 57.328125 34.859375 57.328125 23.390625 
Q 57.328125 12.15625 50.6875 5.359375 
Q 44.046875 -1.421875 33.015625 -1.421875 
Q 20.359375 -1.421875 13.671875 8.265625 
Q 6.984375 17.96875 6.984375 36.375 
Q 6.984375 53.65625 15.1875 63.9375 
Q 23.390625 74.21875 37.203125 74.21875 
Q 40.921875 74.21875 44.703125 73.484375 
Q 48.484375 72.75 52.59375 71.296875 
z
" id="DejaVuSans-54"/>
      </defs>
      <g transform="translate(261.336452 322.182437)scale(0.1 -0.1)">
       <use xlink:href="#DejaVuSans-48"/>
       <use x="63.623047" xlink:href="#DejaVuSans-46"/>
       <use x="95.410156" xlink:href="#DejaVuSans-54"/>
      </g>
     </g>
    </g>
    <g id="xtick_5">
     <g id="line2d_9">
      <path clip-path="url(#pc12923f093)" d="M 335.544045 307.584 
L 335.544045 41.472 
" style="fill:none;stroke:#b0b0b0;stroke-linecap:square;stroke-width:0.8;"/>
     </g>
     <g id="line2d_10">
      <g>
       <use style="stroke:#000000;stroke-width:0.8;" x="335.544045" xlink:href="#m0f4885d3c7" y="307.584"/>
      </g>
     </g>
     <g id="text_5">
      <!-- 0.8 -->
      <defs>
       <path d="M 31.78125 34.625 
Q 24.75 34.625 20.71875 30.859375 
Q 16.703125 27.09375 16.703125 20.515625 
Q 16.703125 13.921875 20.71875 10.15625 
Q 24.75 6.390625 31.78125 6.390625 
Q 38.8125 6.390625 42.859375 10.171875 
Q 46.921875 13.96875 46.921875 20.515625 
Q 46.921875 27.09375 42.890625 30.859375 
Q 38.875 34.625 31.78125 34.625 
z
M 21.921875 38.8125 
Q 15.578125 40.375 12.03125 44.71875 
Q 8.5 49.078125 8.5 55.328125 
Q 8.5 64.0625 14.71875 69.140625 
Q 20.953125 74.21875 31.78125 74.21875 
Q 42.671875 74.21875 48.875 69.140625 
Q 55.078125 64.0625 55.078125 55.328125 
Q 55.078125 49.078125 51.53125 44.71875 
Q 48 40.375 41.703125 38.8125 
Q 48.828125 37.15625 52.796875 32.3125 
Q 56.78125 27.484375 56.78125 20.515625 
Q 56.78125 9.90625 50.3125 4.234375 
Q 43.84375 -1.421875 31.78125 -1.421875 
Q 19.734375 -1.421875 13.25 4.234375 
Q 6.78125 9.90625 6.78125 20.515625 
Q 6.78125 27.484375 10.78125 32.3125 
Q 14.796875 37.15625 21.921875 38.8125 
z
M 18.3125 54.390625 
Q 18.3125 48.734375 21.84375 45.5625 
Q 25.390625 42.390625 31.78125 42.390625 
Q 38.140625 42.390625 41.71875 45.5625 
Q 45.3125 48.734375 45.3125 54.390625 
Q 45.3125 60.0625 41.71875 63.234375 
Q 38.140625 66.40625 31.78125 66.40625 
Q 25.390625 66.40625 21.84375 63.234375 
Q 18.3125 60.0625 18.3125 54.390625 
z
" id="DejaVuSans-56"/>
      </defs>
      <g transform="translate(327.592482 322.182437)scale(0.1 -0.1)">
       <use xlink:href="#DejaVuSans-48"/>
       <use x="63.623047" xlink:href="#DejaVuSans-46"/>
       <use x="95.410156" xlink:href="#DejaVuSans-56"/>
      </g>
     </g>
    </g>
    <g id="xtick_6">
     <g id="line2d_11">
      <path clip-path="url(#pc12923f093)" d="M 401.800074 307.584 
L 401.800074 41.472 
" style="fill:none;stroke:#b0b0b0;stroke-linecap:square;stroke-width:0.8;"/>
     </g>
     <g id="line2d_12">
      <g>
       <use style="stroke:#000000;stroke-width:0.8;" x="401.800074" xlink:href="#m0f4885d3c7" y="307.584"/>
      </g>
     </g>
     <g id="text_6">
      <!-- 1.0 -->
      <defs>
       <path d="M 12.40625 8.296875 
L 28.515625 8.296875 
L 28.515625 63.921875 
L 10.984375 60.40625 
L 10.984375 69.390625 
L 28.421875 72.90625 
L 38.28125 72.90625 
L 38.28125 8.296875 
L 54.390625 8.296875 
L 54.390625 0 
L 12.40625 0 
z
" id="DejaVuSans-49"/>
      </defs>
      <g transform="translate(393.848512 322.182437)scale(0.1 -0.1)">
       <use xlink:href="#DejaVuSans-49"/>
       <use x="63.623047" xlink:href="#DejaVuSans-46"/>
       <use x="95.410156" xlink:href="#DejaVuSans-48"/>
      </g>
     </g>
    </g>
    <g id="text_7">
     <!-- $\mathrm{Time \ (seconds)}$ -->
     <defs>
      <path d="M -0.296875 72.90625 
L 61.375 72.90625 
L 61.375 64.59375 
L 35.5 64.59375 
L 35.5 0 
L 25.59375 0 
L 25.59375 64.59375 
L -0.296875 64.59375 
z
" id="DejaVuSans-84"/>
      <path d="M 9.421875 54.6875 
L 18.40625 54.6875 
L 18.40625 0 
L 9.421875 0 
z
M 9.421875 75.984375 
L 18.40625 75.984375 
L 18.40625 64.59375 
L 9.421875 64.59375 
z
" id="DejaVuSans-105"/>
      <path d="M 52 44.1875 
Q 55.375 50.25 60.0625 53.125 
Q 64.75 56 71.09375 56 
Q 79.640625 56 84.28125 50.015625 
Q 88.921875 44.046875 88.921875 33.015625 
L 88.921875 0 
L 79.890625 0 
L 79.890625 32.71875 
Q 79.890625 40.578125 77.09375 44.375 
Q 74.3125 48.1875 68.609375 48.1875 
Q 61.625 48.1875 57.5625 43.546875 
Q 53.515625 38.921875 53.515625 30.90625 
L 53.515625 0 
L 44.484375 0 
L 44.484375 32.71875 
Q 44.484375 40.625 41.703125 44.40625 
Q 38.921875 48.1875 33.109375 48.1875 
Q 26.21875 48.1875 22.15625 43.53125 
Q 18.109375 38.875 18.109375 30.90625 
L 18.109375 0 
L 9.078125 0 
L 9.078125 54.6875 
L 18.109375 54.6875 
L 18.109375 46.1875 
Q 21.1875 51.21875 25.484375 53.609375 
Q 29.78125 56 35.6875 56 
Q 41.65625 56 45.828125 52.96875 
Q 50 49.953125 52 44.1875 
z
" id="DejaVuSans-109"/>
      <path d="M 56.203125 29.59375 
L 56.203125 25.203125 
L 14.890625 25.203125 
Q 15.484375 15.921875 20.484375 11.0625 
Q 25.484375 6.203125 34.421875 6.203125 
Q 39.59375 6.203125 44.453125 7.46875 
Q 49.3125 8.734375 54.109375 11.28125 
L 54.109375 2.78125 
Q 49.265625 0.734375 44.1875 -0.34375 
Q 39.109375 -1.421875 33.890625 -1.421875 
Q 20.796875 -1.421875 13.15625 6.1875 
Q 5.515625 13.8125 5.515625 26.8125 
Q 5.515625 40.234375 12.765625 48.109375 
Q 20.015625 56 32.328125 56 
Q 43.359375 56 49.78125 48.890625 
Q 56.203125 41.796875 56.203125 29.59375 
z
M 47.21875 32.234375 
Q 47.125 39.59375 43.09375 43.984375 
Q 39.0625 48.390625 32.421875 48.390625 
Q 24.90625 48.390625 20.390625 44.140625 
Q 15.875 39.890625 15.1875 32.171875 
z
" id="DejaVuSans-101"/>
      <path d="M 31 75.875 
Q 24.46875 64.65625 21.28125 53.65625 
Q 18.109375 42.671875 18.109375 31.390625 
Q 18.109375 20.125 21.3125 9.0625 
Q 24.515625 -2 31 -13.1875 
L 23.1875 -13.1875 
Q 15.875 -1.703125 12.234375 9.375 
Q 8.59375 20.453125 8.59375 31.390625 
Q 8.59375 42.28125 12.203125 53.3125 
Q 15.828125 64.359375 23.1875 75.875 
z
" id="DejaVuSans-40"/>
      <path d="M 44.28125 53.078125 
L 44.28125 44.578125 
Q 40.484375 46.53125 36.375 47.5 
Q 32.28125 48.484375 27.875 48.484375 
Q 21.1875 48.484375 17.84375 46.4375 
Q 14.5 44.390625 14.5 40.28125 
Q 14.5 37.15625 16.890625 35.375 
Q 19.28125 33.59375 26.515625 31.984375 
L 29.59375 31.296875 
Q 39.15625 29.25 43.1875 25.515625 
Q 47.21875 21.78125 47.21875 15.09375 
Q 47.21875 7.46875 41.1875 3.015625 
Q 35.15625 -1.421875 24.609375 -1.421875 
Q 20.21875 -1.421875 15.453125 -0.5625 
Q 10.6875 0.296875 5.421875 2 
L 5.421875 11.28125 
Q 10.40625 8.6875 15.234375 7.390625 
Q 20.0625 6.109375 24.8125 6.109375 
Q 31.15625 6.109375 34.5625 8.28125 
Q 37.984375 10.453125 37.984375 14.40625 
Q 37.984375 18.0625 35.515625 20.015625 
Q 33.0625 21.96875 24.703125 23.78125 
L 21.578125 24.515625 
Q 13.234375 26.265625 9.515625 29.90625 
Q 5.8125 33.546875 5.8125 39.890625 
Q 5.8125 47.609375 11.28125 51.796875 
Q 16.75 56 26.8125 56 
Q 31.78125 56 36.171875 55.265625 
Q 40.578125 54.546875 44.28125 53.078125 
z
" id="DejaVuSans-115"/>
      <path d="M 48.78125 52.59375 
L 48.78125 44.1875 
Q 44.96875 46.296875 41.140625 47.34375 
Q 37.3125 48.390625 33.40625 48.390625 
Q 24.65625 48.390625 19.8125 42.84375 
Q 14.984375 37.3125 14.984375 27.296875 
Q 14.984375 17.28125 19.8125 11.734375 
Q 24.65625 6.203125 33.40625 6.203125 
Q 37.3125 6.203125 41.140625 7.25 
Q 44.96875 8.296875 48.78125 10.40625 
L 48.78125 2.09375 
Q 45.015625 0.34375 40.984375 -0.53125 
Q 36.96875 -1.421875 32.421875 -1.421875 
Q 20.0625 -1.421875 12.78125 6.34375 
Q 5.515625 14.109375 5.515625 27.296875 
Q 5.515625 40.671875 12.859375 48.328125 
Q 20.21875 56 33.015625 56 
Q 37.15625 56 41.109375 55.140625 
Q 45.0625 54.296875 48.78125 52.59375 
z
" id="DejaVuSans-99"/>
      <path d="M 30.609375 48.390625 
Q 23.390625 48.390625 19.1875 42.75 
Q 14.984375 37.109375 14.984375 27.296875 
Q 14.984375 17.484375 19.15625 11.84375 
Q 23.34375 6.203125 30.609375 6.203125 
Q 37.796875 6.203125 41.984375 11.859375 
Q 46.1875 17.53125 46.1875 27.296875 
Q 46.1875 37.015625 41.984375 42.703125 
Q 37.796875 48.390625 30.609375 48.390625 
z
M 30.609375 56 
Q 42.328125 56 49.015625 48.375 
Q 55.71875 40.765625 55.71875 27.296875 
Q 55.71875 13.875 49.015625 6.21875 
Q 42.328125 -1.421875 30.609375 -1.421875 
Q 18.84375 -1.421875 12.171875 6.21875 
Q 5.515625 13.875 5.515625 27.296875 
Q 5.515625 40.765625 12.171875 48.375 
Q 18.84375 56 30.609375 56 
z
" id="DejaVuSans-111"/>
      <path d="M 54.890625 33.015625 
L 54.890625 0 
L 45.90625 0 
L 45.90625 32.71875 
Q 45.90625 40.484375 42.875 44.328125 
Q 39.84375 48.1875 33.796875 48.1875 
Q 26.515625 48.1875 22.3125 43.546875 
Q 18.109375 38.921875 18.109375 30.90625 
L 18.109375 0 
L 9.078125 0 
L 9.078125 54.6875 
L 18.109375 54.6875 
L 18.109375 46.1875 
Q 21.34375 51.125 25.703125 53.5625 
Q 30.078125 56 35.796875 56 
Q 45.21875 56 50.046875 50.171875 
Q 54.890625 44.34375 54.890625 33.015625 
z
" id="DejaVuSans-110"/>
      <path d="M 45.40625 46.390625 
L 45.40625 75.984375 
L 54.390625 75.984375 
L 54.390625 0 
L 45.40625 0 
L 45.40625 8.203125 
Q 42.578125 3.328125 38.25 0.953125 
Q 33.9375 -1.421875 27.875 -1.421875 
Q 17.96875 -1.421875 11.734375 6.484375 
Q 5.515625 14.40625 5.515625 27.296875 
Q 5.515625 40.1875 11.734375 48.09375 
Q 17.96875 56 27.875 56 
Q 33.9375 56 38.25 53.625 
Q 42.578125 51.265625 45.40625 46.390625 
z
M 14.796875 27.296875 
Q 14.796875 17.390625 18.875 11.75 
Q 22.953125 6.109375 30.078125 6.109375 
Q 37.203125 6.109375 41.296875 11.75 
Q 45.40625 17.390625 45.40625 27.296875 
Q 45.40625 37.203125 41.296875 42.84375 
Q 37.203125 48.484375 30.078125 48.484375 
Q 22.953125 48.484375 18.875 42.84375 
Q 14.796875 37.203125 14.796875 27.296875 
z
" id="DejaVuSans-100"/>
      <path d="M 8.015625 75.875 
L 15.828125 75.875 
Q 23.140625 64.359375 26.78125 53.3125 
Q 30.421875 42.28125 30.421875 31.390625 
Q 30.421875 20.453125 26.78125 9.375 
Q 23.140625 -1.703125 15.828125 -13.1875 
L 8.015625 -13.1875 
Q 14.5 -2 17.703125 9.0625 
Q 20.90625 20.125 20.90625 31.390625 
Q 20.90625 42.671875 17.703125 53.65625 
Q 14.5 64.65625 8.015625 75.875 
z
" id="DejaVuSans-41"/>
     </defs>
     <g transform="translate(197.76 335.860562)scale(0.1 -0.1)">
      <use transform="translate(0 0.015625)" xlink:href="#DejaVuSans-84"/>
      <use transform="translate(61.083984 0.015625)" xlink:href="#DejaVuSans-105"/>
      <use transform="translate(88.867188 0.015625)" xlink:href="#DejaVuSans-109"/>
      <use transform="translate(186.279297 0.015625)" xlink:href="#DejaVuSans-101"/>
      <use transform="translate(280.273113 0.015625)" xlink:href="#DejaVuSans-40"/>
      <use transform="translate(319.286785 0.015625)" xlink:href="#DejaVuSans-115"/>
      <use transform="translate(371.386394 0.015625)" xlink:href="#DejaVuSans-101"/>
      <use transform="translate(432.909832 0.015625)" xlink:href="#DejaVuSans-99"/>
      <use transform="translate(487.8903 0.015625)" xlink:href="#DejaVuSans-111"/>
      <use transform="translate(549.071941 0.015625)" xlink:href="#DejaVuSans-110"/>
      <use transform="translate(612.450847 0.015625)" xlink:href="#DejaVuSans-100"/>
      <use transform="translate(675.92741 0.015625)" xlink:href="#DejaVuSans-115"/>
      <use transform="translate(728.027019 0.015625)" xlink:href="#DejaVuSans-41"/>
     </g>
    </g>
   </g>
   <g id="matplotlib.axis_2">
    <g id="ytick_1">
     <g id="line2d_13">
      <path clip-path="url(#pc12923f093)" d="M 57.6 216.434865 
L 414.72 216.434865 
" style="fill:none;stroke:#b0b0b0;stroke-linecap:square;stroke-width:0.8;"/>
     </g>
     <g id="line2d_14">
      <defs>
       <path d="M 0 0 
L -3.5 0 
" id="md285ad05e9" style="stroke:#000000;stroke-width:0.8;"/>
      </defs>
      <g>
       <use style="stroke:#000000;stroke-width:0.8;" x="57.6" xlink:href="#md285ad05e9" y="216.434865"/>
      </g>
     </g>
     <g id="text_8">
      <!-- $\mathdefault{10^{-2}}$ -->
      <defs>
       <path d="M 10.59375 35.5 
L 73.1875 35.5 
L 73.1875 27.203125 
L 10.59375 27.203125 
z
" id="DejaVuSans-8722"/>
      </defs>
      <g transform="translate(27.1 220.234084)scale(0.1 -0.1)">
       <use transform="translate(0 0.765625)" xlink:href="#DejaVuSans-49"/>
       <use transform="translate(63.623047 0.765625)" xlink:href="#DejaVuSans-48"/>
       <use transform="translate(128.203125 39.046875)scale(0.7)" xlink:href="#DejaVuSans-8722"/>
       <use transform="translate(186.855469 39.046875)scale(0.7)" xlink:href="#DejaVuSans-50"/>
      </g>
     </g>
    </g>
    <g id="ytick_2">
     <g id="line2d_15">
      <path clip-path="url(#pc12923f093)" d="M 57.6 122.7395 
L 414.72 122.7395 
" style="fill:none;stroke:#b0b0b0;stroke-linecap:square;stroke-width:0.8;"/>
     </g>
     <g id="line2d_16">
      <g>
       <use style="stroke:#000000;stroke-width:0.8;" x="57.6" xlink:href="#md285ad05e9" y="122.7395"/>
      </g>
     </g>
     <g id="text_9">
      <!-- $\mathdefault{10^{-1}}$ -->
      <g transform="translate(27.1 126.538719)scale(0.1 -0.1)">
       <use transform="translate(0 0.684375)" xlink:href="#DejaVuSans-49"/>
       <use transform="translate(63.623047 0.684375)" xlink:href="#DejaVuSans-48"/>
       <use transform="translate(128.203125 38.965625)scale(0.7)" xlink:href="#DejaVuSans-8722"/>
       <use transform="translate(186.855469 38.965625)scale(0.7)" xlink:href="#DejaVuSans-49"/>
      </g>
     </g>
    </g>
    <g id="ytick_3">
     <g id="line2d_17">
      <defs>
       <path d="M 0 0 
L -2 0 
" id="mde12c796e1" style="stroke:#000000;stroke-width:0.6;"/>
      </defs>
      <g>
       <use style="stroke:#000000;stroke-width:0.6;" x="57.6" xlink:href="#mde12c796e1" y="281.925115"/>
      </g>
     </g>
    </g>
    <g id="ytick_4">
     <g id="line2d_18">
      <g>
       <use style="stroke:#000000;stroke-width:0.6;" x="57.6" xlink:href="#mde12c796e1" y="265.42618"/>
      </g>
     </g>
    </g>
    <g id="ytick_5">
     <g id="line2d_19">
      <g>
       <use style="stroke:#000000;stroke-width:0.6;" x="57.6" xlink:href="#mde12c796e1" y="253.72"/>
      </g>
     </g>
    </g>
    <g id="ytick_6">
     <g id="line2d_20">
      <g>
       <use style="stroke:#000000;stroke-width:0.6;" x="57.6" xlink:href="#mde12c796e1" y="244.639981"/>
      </g>
     </g>
    </g>
    <g id="ytick_7">
     <g id="line2d_21">
      <g>
       <use style="stroke:#000000;stroke-width:0.6;" x="57.6" xlink:href="#mde12c796e1" y="237.221065"/>
      </g>
     </g>
    </g>
    <g id="ytick_8">
     <g id="line2d_22">
      <g>
       <use style="stroke:#000000;stroke-width:0.6;" x="57.6" xlink:href="#mde12c796e1" y="230.948461"/>
      </g>
     </g>
    </g>
    <g id="ytick_9">
     <g id="line2d_23">
      <g>
       <use style="stroke:#000000;stroke-width:0.6;" x="57.6" xlink:href="#mde12c796e1" y="225.514884"/>
      </g>
     </g>
    </g>
    <g id="ytick_10">
     <g id="line2d_24">
      <g>
       <use style="stroke:#000000;stroke-width:0.6;" x="57.6" xlink:href="#mde12c796e1" y="220.72213"/>
      </g>
     </g>
    </g>
    <g id="ytick_11">
     <g id="line2d_25">
      <g>
       <use style="stroke:#000000;stroke-width:0.6;" x="57.6" xlink:href="#mde12c796e1" y="188.22975"/>
      </g>
     </g>
    </g>
    <g id="ytick_12">
     <g id="line2d_26">
      <g>
       <use style="stroke:#000000;stroke-width:0.6;" x="57.6" xlink:href="#mde12c796e1" y="171.730815"/>
      </g>
     </g>
    </g>
    <g id="ytick_13">
     <g id="line2d_27">
      <g>
       <use style="stroke:#000000;stroke-width:0.6;" x="57.6" xlink:href="#mde12c796e1" y="160.024635"/>
      </g>
     </g>
    </g>
    <g id="ytick_14">
     <g id="line2d_28">
      <g>
       <use style="stroke:#000000;stroke-width:0.6;" x="57.6" xlink:href="#mde12c796e1" y="150.944616"/>
      </g>
     </g>
    </g>
    <g id="ytick_15">
     <g id="line2d_29">
      <g>
       <use style="stroke:#000000;stroke-width:0.6;" x="57.6" xlink:href="#mde12c796e1" y="143.5257"/>
      </g>
     </g>
    </g>
    <g id="ytick_16">
     <g id="line2d_30">
      <g>
       <use style="stroke:#000000;stroke-width:0.6;" x="57.6" xlink:href="#mde12c796e1" y="137.253096"/>
      </g>
     </g>
    </g>
    <g id="ytick_17">
     <g id="line2d_31">
      <g>
       <use style="stroke:#000000;stroke-width:0.6;" x="57.6" xlink:href="#mde12c796e1" y="131.819519"/>
      </g>
     </g>
    </g>
    <g id="ytick_18">
     <g id="line2d_32">
      <g>
       <use style="stroke:#000000;stroke-width:0.6;" x="57.6" xlink:href="#mde12c796e1" y="127.026765"/>
      </g>
     </g>
    </g>
    <g id="ytick_19">
     <g id="line2d_33">
      <g>
       <use style="stroke:#000000;stroke-width:0.6;" x="57.6" xlink:href="#mde12c796e1" y="94.534385"/>
      </g>
     </g>
    </g>
    <g id="ytick_20">
     <g id="line2d_34">
      <g>
       <use style="stroke:#000000;stroke-width:0.6;" x="57.6" xlink:href="#mde12c796e1" y="78.03545"/>
      </g>
     </g>
    </g>
    <g id="ytick_21">
     <g id="line2d_35">
      <g>
       <use style="stroke:#000000;stroke-width:0.6;" x="57.6" xlink:href="#mde12c796e1" y="66.32927"/>
      </g>
     </g>
    </g>
    <g id="ytick_22">
     <g id="line2d_36">
      <g>
       <use style="stroke:#000000;stroke-width:0.6;" x="57.6" xlink:href="#mde12c796e1" y="57.249251"/>
      </g>
     </g>
    </g>
    <g id="ytick_23">
     <g id="line2d_37">
      <g>
       <use style="stroke:#000000;stroke-width:0.6;" x="57.6" xlink:href="#mde12c796e1" y="49.830335"/>
      </g>
     </g>
    </g>
    <g id="ytick_24">
     <g id="line2d_38">
      <g>
       <use style="stroke:#000000;stroke-width:0.6;" x="57.6" xlink:href="#mde12c796e1" y="43.557731"/>
      </g>
     </g>
    </g>
    <g id="text_10">
     <!-- $\mathrm{Relative \ error}$ ($N_{\mathrm{train}}=100$) -->
     <defs>
      <path d="M 44.390625 34.1875 
Q 47.5625 33.109375 50.5625 29.59375 
Q 53.5625 26.078125 56.59375 19.921875 
L 66.609375 0 
L 56 0 
L 46.6875 18.703125 
Q 43.0625 26.03125 39.671875 28.421875 
Q 36.28125 30.8125 30.421875 30.8125 
L 19.671875 30.8125 
L 19.671875 0 
L 9.8125 0 
L 9.8125 72.90625 
L 32.078125 72.90625 
Q 44.578125 72.90625 50.734375 67.671875 
Q 56.890625 62.453125 56.890625 51.90625 
Q 56.890625 45.015625 53.6875 40.46875 
Q 50.484375 35.9375 44.390625 34.1875 
z
M 19.671875 64.796875 
L 19.671875 38.921875 
L 32.078125 38.921875 
Q 39.203125 38.921875 42.84375 42.21875 
Q 46.484375 45.515625 46.484375 51.90625 
Q 46.484375 58.296875 42.84375 61.546875 
Q 39.203125 64.796875 32.078125 64.796875 
z
" id="DejaVuSans-82"/>
      <path d="M 9.421875 75.984375 
L 18.40625 75.984375 
L 18.40625 0 
L 9.421875 0 
z
" id="DejaVuSans-108"/>
      <path d="M 34.28125 27.484375 
Q 23.390625 27.484375 19.1875 25 
Q 14.984375 22.515625 14.984375 16.5 
Q 14.984375 11.71875 18.140625 8.90625 
Q 21.296875 6.109375 26.703125 6.109375 
Q 34.1875 6.109375 38.703125 11.40625 
Q 43.21875 16.703125 43.21875 25.484375 
L 43.21875 27.484375 
z
M 52.203125 31.203125 
L 52.203125 0 
L 43.21875 0 
L 43.21875 8.296875 
Q 40.140625 3.328125 35.546875 0.953125 
Q 30.953125 -1.421875 24.3125 -1.421875 
Q 15.921875 -1.421875 10.953125 3.296875 
Q 6 8.015625 6 15.921875 
Q 6 25.140625 12.171875 29.828125 
Q 18.359375 34.515625 30.609375 34.515625 
L 43.21875 34.515625 
L 43.21875 35.40625 
Q 43.21875 41.609375 39.140625 45 
Q 35.0625 48.390625 27.6875 48.390625 
Q 23 48.390625 18.546875 47.265625 
Q 14.109375 46.140625 10.015625 43.890625 
L 10.015625 52.203125 
Q 14.9375 54.109375 19.578125 55.046875 
Q 24.21875 56 28.609375 56 
Q 40.484375 56 46.34375 49.84375 
Q 52.203125 43.703125 52.203125 31.203125 
z
" id="DejaVuSans-97"/>
      <path d="M 18.3125 70.21875 
L 18.3125 54.6875 
L 36.8125 54.6875 
L 36.8125 47.703125 
L 18.3125 47.703125 
L 18.3125 18.015625 
Q 18.3125 11.328125 20.140625 9.421875 
Q 21.96875 7.515625 27.59375 7.515625 
L 36.8125 7.515625 
L 36.8125 0 
L 27.59375 0 
Q 17.1875 0 13.234375 3.875 
Q 9.28125 7.765625 9.28125 18.015625 
L 9.28125 47.703125 
L 2.6875 47.703125 
L 2.6875 54.6875 
L 9.28125 54.6875 
L 9.28125 70.21875 
z
" id="DejaVuSans-116"/>
      <path d="M 2.984375 54.6875 
L 12.5 54.6875 
L 29.59375 8.796875 
L 46.6875 54.6875 
L 56.203125 54.6875 
L 35.6875 0 
L 23.484375 0 
z
" id="DejaVuSans-118"/>
      <path d="M 41.109375 46.296875 
Q 39.59375 47.171875 37.8125 47.578125 
Q 36.03125 48 33.890625 48 
Q 26.265625 48 22.1875 43.046875 
Q 18.109375 38.09375 18.109375 28.8125 
L 18.109375 0 
L 9.078125 0 
L 9.078125 54.6875 
L 18.109375 54.6875 
L 18.109375 46.1875 
Q 20.953125 51.171875 25.484375 53.578125 
Q 30.03125 56 36.53125 56 
Q 37.453125 56 38.578125 55.875 
Q 39.703125 55.765625 41.0625 55.515625 
z
" id="DejaVuSans-114"/>
      <path id="DejaVuSans-32"/>
      <path d="M 16.890625 72.90625 
L 30.171875 72.90625 
L 50.296875 10.40625 
L 62.5 72.90625 
L 72.125 72.90625 
L 57.90625 0 
L 44.578125 0 
L 24.515625 62.890625 
L 12.3125 0 
L 2.6875 0 
z
" id="DejaVuSans-Oblique-78"/>
      <path d="M 10.59375 45.40625 
L 73.1875 45.40625 
L 73.1875 37.203125 
L 10.59375 37.203125 
z
M 10.59375 25.484375 
L 73.1875 25.484375 
L 73.1875 17.1875 
L 10.59375 17.1875 
z
" id="DejaVuSans-61"/>
     </defs>
     <g transform="translate(21.020312 242.078)rotate(-90)scale(0.1 -0.1)">
      <use transform="translate(0 0.015625)" xlink:href="#DejaVuSans-82"/>
      <use transform="translate(69.482422 0.015625)" xlink:href="#DejaVuSans-101"/>
      <use transform="translate(131.005859 0.015625)" xlink:href="#DejaVuSans-108"/>
      <use transform="translate(158.789062 0.015625)" xlink:href="#DejaVuSans-97"/>
      <use transform="translate(220.068359 0.015625)" xlink:href="#DejaVuSans-116"/>
      <use transform="translate(259.277344 0.015625)" xlink:href="#DejaVuSans-105"/>
      <use transform="translate(287.060547 0.015625)" xlink:href="#DejaVuSans-118"/>
      <use transform="translate(346.240234 0.015625)" xlink:href="#DejaVuSans-101"/>
      <use transform="translate(440.23405 0.015625)" xlink:href="#DejaVuSans-101"/>
      <use transform="translate(501.757488 0.015625)" xlink:href="#DejaVuSans-114"/>
      <use transform="translate(542.870769 0.015625)" xlink:href="#DejaVuSans-114"/>
      <use transform="translate(583.98405 0.015625)" xlink:href="#DejaVuSans-111"/>
      <use transform="translate(645.165691 0.015625)" xlink:href="#DejaVuSans-114"/>
      <use transform="translate(686.278972 0.015625)" xlink:href="#DejaVuSans-32"/>
      <use transform="translate(718.066082 0.015625)" xlink:href="#DejaVuSans-40"/>
      <use transform="translate(757.079753 0.015625)" xlink:href="#DejaVuSans-Oblique-78"/>
      <use transform="translate(831.884441 -16.390625)scale(0.7)" xlink:href="#DejaVuSans-116"/>
      <use transform="translate(859.33073 -16.390625)scale(0.7)" xlink:href="#DejaVuSans-114"/>
      <use transform="translate(888.110027 -16.390625)scale(0.7)" xlink:href="#DejaVuSans-97"/>
      <use transform="translate(931.005535 -16.390625)scale(0.7)" xlink:href="#DejaVuSans-105"/>
      <use transform="translate(950.453777 -16.390625)scale(0.7)" xlink:href="#DejaVuSans-110"/>
      <use transform="translate(1017.035808 0.015625)" xlink:href="#DejaVuSans-61"/>
      <use transform="translate(1120.307292 0.015625)" xlink:href="#DejaVuSans-49"/>
      <use transform="translate(1183.930339 0.015625)" xlink:href="#DejaVuSans-48"/>
      <use transform="translate(1247.553386 0.015625)" xlink:href="#DejaVuSans-48"/>
      <use transform="translate(1311.176433 0.015625)" xlink:href="#DejaVuSans-41"/>
     </g>
    </g>
   </g>
   <g id="line2d_39">
    <path clip-path="url(#pc12923f093)" d="M 73.832724 275.757425 
L 77.145522 260.152671 
L 80.458321 248.561065 
L 83.771119 239.379517 
L 87.083917 231.948299 
L 90.396716 225.881437 
L 93.709554 220.904643 
L 97.022352 216.80303 
L 100.33515 213.39681 
L 103.647949 210.530653 
L 106.960747 208.071765 
L 110.273545 205.919787 
L 113.586344 204.00136 
L 116.899142 202.260101 
L 120.21194 200.650909 
L 123.524738 199.137907 
L 126.837537 197.693184 
L 130.150375 196.30136 
L 136.775971 193.660256 
L 143.401568 191.168137 
L 153.339963 187.549678 
L 163.278358 184.023009 
L 169.903955 181.797358 
L 173.216753 180.750667 
L 176.529551 179.754494 
L 179.842389 178.807555 
L 183.155187 177.906411 
L 186.467986 177.047599 
L 193.093582 175.443277 
L 199.719179 173.959629 
L 206.344776 172.57474 
L 212.970412 171.268874 
L 219.596008 170.025124 
L 229.534403 168.248927 
L 239.472798 166.544939 
L 249.411193 164.896452 
L 256.03679 163.850602 
L 262.662387 162.858785 
L 269.288023 161.923831 
L 275.913619 161.050186 
L 282.539216 160.244865 
L 289.164852 159.511394 
L 295.790449 158.852859 
L 302.416045 158.270915 
L 309.041642 157.76484 
L 315.667239 157.331104 
L 322.292835 156.967103 
L 328.918432 156.674478 
L 335.544029 156.455949 
L 342.169625 156.313708 
L 348.795222 156.259325 
L 352.10806 156.269991 
L 355.420858 156.309954 
L 358.733656 156.381987 
L 362.046455 156.486499 
L 365.359253 156.623156 
L 368.672051 156.79073 
L 375.297688 157.200188 
L 385.236083 157.8759 
L 388.548881 158.076535 
L 391.861679 158.247212 
L 395.174478 158.381146 
L 398.487276 158.474957 
" style="fill:none;stroke:#ffa500;stroke-linecap:square;stroke-width:1.5;"/>
   </g>
   <g id="line2d_40">
    <path clip-path="url(#pc12923f093)" d="M 73.832724 179.980047 
L 77.145522 163.664633 
L 80.458321 151.437233 
L 83.771119 141.627353 
L 87.083917 133.501892 
L 90.396716 126.664414 
L 93.709554 120.859138 
L 97.022352 115.897599 
L 100.33515 111.630455 
L 103.647949 107.936234 
L 106.960747 104.715807 
L 110.273545 101.888746 
L 113.586344 99.390135 
L 116.899142 97.167645 
L 120.21194 95.178976 
L 123.524738 93.390057 
L 126.837537 91.773317 
L 130.150375 90.306143 
L 133.463173 88.969908 
L 136.775971 87.749229 
L 140.08877 86.631447 
L 143.401568 85.606144 
L 146.714366 84.664781 
L 150.027165 83.800283 
L 153.339963 83.006778 
L 156.652761 82.279371 
L 159.96556 81.614013 
L 163.278358 81.007271 
L 166.591156 80.456242 
L 169.903955 79.958467 
L 173.216753 79.511853 
L 176.529551 79.114604 
L 179.842389 78.765214 
L 183.155187 78.462379 
L 186.467986 78.205025 
L 189.780784 77.992328 
L 193.093582 77.82375 
L 196.406381 77.698998 
L 199.719179 77.61794 
L 203.031977 77.580547 
L 206.344776 77.586799 
L 209.657574 77.636537 
L 212.970412 77.729221 
L 216.28321 77.863589 
L 219.596008 78.037163 
L 222.908807 78.245605 
L 229.534403 78.736486 
L 236.16 79.244391 
L 239.472798 79.466458 
L 242.785597 79.647769 
L 246.098395 79.777816 
L 249.411193 79.850653 
L 252.723992 79.864726 
L 256.03679 79.821947 
L 259.349588 79.726526 
L 262.662387 79.584006 
L 265.975185 79.400403 
L 269.288023 79.181797 
L 275.913619 78.662043 
L 282.539216 78.064527 
L 292.477651 77.088213 
L 315.667239 74.756163 
L 325.605634 73.817779 
L 335.544029 72.944415 
L 342.169625 72.404589 
L 348.795222 71.902547 
L 355.420858 71.441376 
L 362.046455 71.024032 
L 368.672051 70.653301 
L 375.297688 70.33198 
L 381.923284 70.063156 
L 388.548881 69.8503 
L 395.174478 69.697415 
L 398.487276 69.644864 
" style="fill:none;stroke:#ff00ff;stroke-linecap:square;stroke-width:1.5;"/>
   </g>
   <g id="line2d_41">
    <path clip-path="url(#pc12923f093)" d="M 73.832724 156.780686 
L 77.145522 141.03532 
L 80.458321 129.367553 
L 83.771119 120.086723 
L 87.083917 112.441466 
L 90.396716 106.023485 
L 93.709554 100.574545 
L 97.022352 95.910814 
L 100.33515 91.891721 
L 103.647949 88.406335 
L 106.960747 85.36579 
L 110.273545 82.698334 
L 113.586344 80.345823 
L 116.899142 78.260951 
L 120.21194 76.405027 
L 123.524738 74.746233 
L 126.837537 73.258239 
L 130.150375 71.919235 
L 133.463173 70.711058 
L 136.775971 69.618458 
L 140.08877 68.628684 
L 143.401568 67.730961 
L 146.714366 66.916155 
L 150.027165 66.176577 
L 153.339963 65.505733 
L 156.652761 64.898132 
L 159.96556 64.349101 
L 163.278358 63.854711 
L 166.591156 63.411625 
L 169.903955 63.016965 
L 173.216753 62.668258 
L 176.529551 62.363359 
L 179.842389 62.100408 
L 183.155187 61.877825 
L 186.467986 61.694289 
L 189.780784 61.54871 
L 193.093582 61.440278 
L 196.406381 61.368426 
L 199.719179 61.332806 
L 203.031977 61.333276 
L 206.344776 61.369787 
L 209.657574 61.442356 
L 212.970412 61.550956 
L 216.28321 61.695342 
L 219.596008 61.874888 
L 222.908807 62.088212 
L 229.534403 62.60447 
L 246.098395 64.059001 
L 249.411193 64.284599 
L 252.723992 64.464224 
L 256.03679 64.594125 
L 259.349588 64.67403 
L 262.662387 64.70633 
L 265.975185 64.694938 
L 269.288023 64.64462 
L 272.600821 64.560338 
L 279.226418 64.308937 
L 285.852014 63.975152 
L 292.477651 63.586492 
L 302.416045 62.945148 
L 328.918432 61.184956 
L 338.856827 60.576372 
L 348.795222 60.020405 
L 358.733656 59.5292 
L 365.359253 59.243308 
L 371.984889 58.994456 
L 378.610486 58.785744 
L 385.236083 58.620248 
L 391.861679 58.501116 
L 398.487276 58.431934 
" style="fill:none;stroke:#ff0000;stroke-linecap:square;stroke-width:1.5;"/>
   </g>
   <g id="patch_3">
    <path d="M 57.6 307.584 
L 57.6 41.472 
" style="fill:none;stroke:#000000;stroke-linecap:square;stroke-linejoin:miter;stroke-width:0.8;"/>
   </g>
   <g id="patch_4">
    <path d="M 414.72 307.584 
L 414.72 41.472 
" style="fill:none;stroke:#000000;stroke-linecap:square;stroke-linejoin:miter;stroke-width:0.8;"/>
   </g>
   <g id="patch_5">
    <path d="M 57.6 307.584 
L 414.72 307.584 
" style="fill:none;stroke:#000000;stroke-linecap:square;stroke-linejoin:miter;stroke-width:0.8;"/>
   </g>
   <g id="patch_6">
    <path d="M 57.6 41.472 
L 414.72 41.472 
" style="fill:none;stroke:#000000;stroke-linecap:square;stroke-linejoin:miter;stroke-width:0.8;"/>
   </g>
   <g id="legend_1">
    <g id="patch_7">
     <path d="M 323.679375 302.584 
L 407.72 302.584 
Q 409.72 302.584 409.72 300.584 
L 409.72 257.549625 
Q 409.72 255.549625 407.72 255.549625 
L 323.679375 255.549625 
Q 321.679375 255.549625 321.679375 257.549625 
L 321.679375 300.584 
Q 321.679375 302.584 323.679375 302.584 
z
" style="fill:#ffffff;opacity:0.8;stroke:#cccccc;stroke-linejoin:miter;"/>
    </g>
    <g id="line2d_42">
     <path d="M 325.679375 263.648062 
L 345.679375 263.648062 
" style="fill:none;stroke:#ffa500;stroke-linecap:square;stroke-width:1.5;"/>
    </g>
    <g id="line2d_43"/>
    <g id="text_11">
     <!-- 0.01 noise -->
     <g transform="translate(353.679375 267.148062)scale(0.1 -0.1)">
      <use xlink:href="#DejaVuSans-48"/>
      <use x="63.623047" xlink:href="#DejaVuSans-46"/>
      <use x="95.410156" xlink:href="#DejaVuSans-48"/>
      <use x="159.033203" xlink:href="#DejaVuSans-49"/>
      <use x="222.65625" xlink:href="#DejaVuSans-32"/>
      <use x="254.443359" xlink:href="#DejaVuSans-110"/>
      <use x="317.822266" xlink:href="#DejaVuSans-111"/>
      <use x="379.003906" xlink:href="#DejaVuSans-105"/>
      <use x="406.787109" xlink:href="#DejaVuSans-115"/>
      <use x="458.886719" xlink:href="#DejaVuSans-101"/>
     </g>
    </g>
    <g id="line2d_44">
     <path d="M 325.679375 278.326188 
L 345.679375 278.326188 
" style="fill:none;stroke:#ff00ff;stroke-linecap:square;stroke-width:1.5;"/>
    </g>
    <g id="line2d_45"/>
    <g id="text_12">
     <!-- 0.05 noise -->
     <defs>
      <path d="M 10.796875 72.90625 
L 49.515625 72.90625 
L 49.515625 64.59375 
L 19.828125 64.59375 
L 19.828125 46.734375 
Q 21.96875 47.46875 24.109375 47.828125 
Q 26.265625 48.1875 28.421875 48.1875 
Q 40.625 48.1875 47.75 41.5 
Q 54.890625 34.8125 54.890625 23.390625 
Q 54.890625 11.625 47.5625 5.09375 
Q 40.234375 -1.421875 26.90625 -1.421875 
Q 22.3125 -1.421875 17.546875 -0.640625 
Q 12.796875 0.140625 7.71875 1.703125 
L 7.71875 11.625 
Q 12.109375 9.234375 16.796875 8.0625 
Q 21.484375 6.890625 26.703125 6.890625 
Q 35.15625 6.890625 40.078125 11.328125 
Q 45.015625 15.765625 45.015625 23.390625 
Q 45.015625 31 40.078125 35.4375 
Q 35.15625 39.890625 26.703125 39.890625 
Q 22.75 39.890625 18.8125 39.015625 
Q 14.890625 38.140625 10.796875 36.28125 
z
" id="DejaVuSans-53"/>
     </defs>
     <g transform="translate(353.679375 281.826188)scale(0.1 -0.1)">
      <use xlink:href="#DejaVuSans-48"/>
      <use x="63.623047" xlink:href="#DejaVuSans-46"/>
      <use x="95.410156" xlink:href="#DejaVuSans-48"/>
      <use x="159.033203" xlink:href="#DejaVuSans-53"/>
      <use x="222.65625" xlink:href="#DejaVuSans-32"/>
      <use x="254.443359" xlink:href="#DejaVuSans-110"/>
      <use x="317.822266" xlink:href="#DejaVuSans-111"/>
      <use x="379.003906" xlink:href="#DejaVuSans-105"/>
      <use x="406.787109" xlink:href="#DejaVuSans-115"/>
      <use x="458.886719" xlink:href="#DejaVuSans-101"/>
     </g>
    </g>
    <g id="line2d_46">
     <path d="M 325.679375 293.004312 
L 345.679375 293.004312 
" style="fill:none;stroke:#ff0000;stroke-linecap:square;stroke-width:1.5;"/>
    </g>
    <g id="line2d_47"/>
    <g id="text_13">
     <!-- 0.1 noise -->
     <g transform="translate(353.679375 296.504312)scale(0.1 -0.1)">
      <use xlink:href="#DejaVuSans-48"/>
      <use x="63.623047" xlink:href="#DejaVuSans-46"/>
      <use x="95.410156" xlink:href="#DejaVuSans-49"/>
      <use x="159.033203" xlink:href="#DejaVuSans-32"/>
      <use x="190.820312" xlink:href="#DejaVuSans-110"/>
      <use x="254.199219" xlink:href="#DejaVuSans-111"/>
      <use x="315.380859" xlink:href="#DejaVuSans-105"/>
      <use x="343.164062" xlink:href="#DejaVuSans-115"/>
      <use x="395.263672" xlink:href="#DejaVuSans-101"/>
     </g>
    </g>
   </g>
  </g>
 </g>
 <defs>
  <clipPath id="pc12923f093">
   <rect height="266.112" width="357.12" x="57.6" y="41.472"/>
  </clipPath>
 </defs>
</svg>
