<?xml version="1.0" encoding="utf-8" standalone="no"?>
<!DOCTYPE svg PUBLIC "-//W3C//DTD SVG 1.1//EN"
  "http://www.w3.org/Graphics/SVG/1.1/DTD/svg11.dtd">
<!-- Created with matplotlib (https://matplotlib.org/) -->
<svg height="345.6pt" version="1.1" viewBox="0 0 460.8 345.6" width="460.8pt" xmlns="http://www.w3.org/2000/svg" xmlns:xlink="http://www.w3.org/1999/xlink">
 <defs>
  <style type="text/css">
*{stroke-linecap:butt;stroke-linejoin:round;white-space:pre;}
  </style>
 </defs>
 <g id="figure_1">
  <g id="patch_1">
   <path d="M 0 345.6 
L 460.8 345.6 
L 460.8 0 
L 0 0 
z
" style="fill:#ffffff;"/>
  </g>
  <g id="axes_1">
   <g id="patch_2">
    <path d="M 57.6 307.584 
L 414.72 307.584 
L 414.72 41.472 
L 57.6 41.472 
z
" style="fill:#ffffff;"/>
   </g>
   <g id="PolyCollection_1">
    <path clip-path="url(#p2dcc04b6af)" d="M 73.832727 260.6374 
L 73.832727 295.488 
L 77.145529 277.694007 
L 80.45833 264.518151 
L 83.771132 254.095117 
L 87.083933 245.612085 
L 90.396735 238.622417 
L 93.709536 232.827913 
L 97.022338 227.997577 
L 100.335139 223.941584 
L 103.647941 220.503956 
L 106.960742 217.558688 
L 110.273544 215.006392 
L 113.586345 212.775264 
L 116.899147 210.812345 
L 120.211948 209.07385 
L 123.52475 207.527856 
L 126.837551 206.148578 
L 130.150353 204.918265 
L 133.463154 203.818422 
L 136.775955 202.82542 
L 140.088757 201.913843 
L 143.401558 201.061011 
L 146.71436 200.24932 
L 150.027161 199.471705 
L 153.339963 198.727166 
L 156.652764 198.016662 
L 159.965566 197.342475 
L 163.278367 196.706776 
L 166.591169 196.110103 
L 169.90397 195.552471 
L 173.216772 195.034756 
L 176.529573 194.559443 
L 179.842375 194.129583 
L 183.155176 193.747118 
L 186.467978 193.412665 
L 189.780779 193.125063 
L 193.093581 192.879601 
L 196.406382 192.667957 
L 199.719184 192.477832 
L 203.031985 192.292838 
L 206.344787 192.093049 
L 209.657588 191.857134 
L 212.97039 191.564537 
L 216.283191 191.198296 
L 219.595993 190.747396 
L 222.908794 190.206963 
L 226.221596 189.576618 
L 229.534397 188.859628 
L 232.847199 188.061998 
L 236.16 187.191397 
L 239.472801 186.25654 
L 242.785603 185.266672 
L 246.098404 184.231286 
L 249.411206 183.159819 
L 252.724007 182.061278 
L 256.036809 180.94414 
L 259.34961 179.816278 
L 262.662412 178.684965 
L 265.975213 177.556823 
L 269.288015 176.437595 
L 272.600816 175.332034 
L 275.913618 174.243935 
L 279.226419 173.176166 
L 282.539221 172.13074 
L 285.852022 171.108943 
L 289.164824 170.111514 
L 292.477625 169.138857 
L 295.790427 168.191144 
L 299.103228 167.268449 
L 302.41603 166.370766 
L 305.728831 165.497976 
L 309.041633 164.649867 
L 312.354434 163.826314 
L 315.667236 163.027489 
L 318.980037 162.253708 
L 322.292839 161.505391 
L 325.60564 160.782961 
L 328.918442 160.086862 
L 332.231243 159.417663 
L 335.544045 158.776 
L 338.856846 158.162475 
L 342.169647 157.577773 
L 345.482449 157.022953 
L 348.79525 156.499096 
L 352.108052 156.007366 
L 355.420853 155.549091 
L 358.733655 155.125637 
L 362.046456 154.738463 
L 365.359258 154.389171 
L 368.672059 154.079503 
L 371.984861 153.81123 
L 375.297662 153.585902 
L 378.610464 153.4046 
L 381.923265 153.267401 
L 385.236067 153.172528 
L 388.548868 153.115343 
L 391.86167 153.087187 
L 395.174471 153.074927 
L 398.487273 153.062453 
L 398.487273 126.566298 
L 398.487273 126.566298 
L 395.174471 126.516184 
L 391.86167 126.495139 
L 388.548868 126.506415 
L 385.236067 126.551591 
L 381.923265 126.631093 
L 378.610464 126.74462 
L 375.297662 126.891417 
L 371.984861 127.070458 
L 368.672059 127.280579 
L 365.359258 127.520539 
L 362.046456 127.789128 
L 358.733655 128.085211 
L 355.420853 128.407723 
L 352.108052 128.755654 
L 348.79525 129.128055 
L 345.482449 129.52403 
L 342.169647 129.942818 
L 338.856846 130.383753 
L 335.544045 130.846284 
L 332.231243 131.32993 
L 328.918442 131.834314 
L 325.60564 132.359262 
L 322.292839 132.90489 
L 318.980037 133.471508 
L 315.667236 134.059508 
L 312.354434 134.669366 
L 309.041633 135.301593 
L 305.728831 135.956724 
L 302.41603 136.635347 
L 299.103228 137.338017 
L 295.790427 138.065155 
L 292.477625 138.816871 
L 289.164824 139.592878 
L 285.852022 140.392465 
L 282.539221 141.214433 
L 279.226419 142.057049 
L 275.913618 142.918018 
L 272.600816 143.794339 
L 269.288015 144.682255 
L 265.975213 145.57725 
L 262.662412 146.474086 
L 259.34961 147.366829 
L 256.036809 148.248812 
L 252.724007 149.112709 
L 249.411206 149.950731 
L 246.098404 150.754846 
L 242.785603 151.516781 
L 239.472801 152.228099 
L 236.16 152.880394 
L 232.847199 153.465316 
L 229.534397 153.97489 
L 226.221596 154.402065 
L 222.908794 154.741378 
L 219.595993 154.990003 
L 216.283191 155.149194 
L 212.97039 155.225812 
L 209.657588 155.232914 
L 206.344787 155.188775 
L 203.031985 155.114455 
L 199.719184 155.030956 
L 196.406382 154.956869 
L 193.093581 154.907082 
L 189.780779 154.892547 
L 186.467978 154.920687 
L 183.155176 154.996191 
L 179.842375 155.121597 
L 176.529573 155.297975 
L 173.216772 155.525281 
L 169.90397 155.80304 
L 166.591169 156.131142 
L 163.278367 156.51004 
L 159.965566 156.940313 
L 156.652764 157.422785 
L 153.339963 157.959131 
L 150.027161 158.553178 
L 146.71436 159.210152 
L 143.401558 159.936507 
L 140.088757 160.741775 
L 136.775955 161.639889 
L 133.463154 162.644093 
L 130.150353 163.769572 
L 126.837551 165.033455 
L 123.52475 166.456339 
L 120.211948 168.063697 
L 116.899147 169.885612 
L 113.586345 171.958789 
L 110.273544 174.330413 
L 106.960742 177.061854 
L 103.647941 180.233504 
L 100.335139 183.94909 
L 97.022338 188.337939 
L 93.709536 193.559698 
L 90.396735 199.812843 
L 87.083933 207.343825 
L 83.771132 216.469651 
L 80.45833 227.656601 
L 77.145529 241.742205 
L 73.832727 260.6374 
z
" style="fill:#ffa500;fill-opacity:0.4;"/>
   </g>
   <g id="PolyCollection_2">
    <path clip-path="url(#p2dcc04b6af)" d="M 73.832727 198.213684 
L 73.832727 212.188794 
L 77.145529 193.351034 
L 80.45833 179.265377 
L 83.771132 168.000073 
L 87.083933 158.710935 
L 90.396735 150.939334 
L 93.709536 144.386972 
L 97.022338 138.829931 
L 100.335139 134.089226 
L 103.647941 130.019811 
L 106.960742 126.502032 
L 110.273544 123.437397 
L 113.586345 120.746709 
L 116.899147 118.366053 
L 120.211948 116.242986 
L 123.52475 114.335173 
L 126.837551 112.608188 
L 130.150353 111.035318 
L 133.463154 109.595545 
L 136.775955 108.27194 
L 140.088757 107.050919 
L 143.401558 105.921388 
L 146.71436 104.874661 
L 150.027161 103.90432 
L 153.339963 103.005796 
L 156.652764 102.175658 
L 159.965566 101.41129 
L 163.278367 100.710825 
L 166.591169 100.072986 
L 169.90397 99.497017 
L 173.216772 98.982528 
L 176.529573 98.529435 
L 179.842375 98.137981 
L 183.155176 97.808833 
L 186.467978 97.54309 
L 189.780779 97.342278 
L 193.093581 97.208295 
L 196.406382 97.14338 
L 199.719184 97.150112 
L 203.031985 97.231346 
L 206.344787 97.389931 
L 209.657588 97.628184 
L 212.97039 97.946819 
L 216.283191 98.342969 
L 219.595993 98.807089 
L 222.908794 99.319069 
L 226.221596 99.845819 
L 229.534397 100.344138 
L 232.847199 100.770293 
L 236.16 101.091161 
L 239.472801 101.289799 
L 242.785603 101.363904 
L 246.098404 101.320796 
L 249.411206 101.172603 
L 252.724007 100.933026 
L 256.036809 100.615598 
L 259.34961 100.232882 
L 262.662412 99.796179 
L 265.975213 99.315488 
L 269.288015 98.799552 
L 272.600816 98.255954 
L 275.913618 97.691222 
L 279.226419 97.110948 
L 282.539221 96.519889 
L 285.852022 95.922076 
L 289.164824 95.320908 
L 292.477625 94.71925 
L 295.790427 94.119524 
L 299.103228 93.523786 
L 302.41603 92.933785 
L 305.728831 92.351019 
L 309.041633 91.776776 
L 312.354434 91.21218 
L 315.667236 90.658223 
L 318.980037 90.115784 
L 322.292839 89.585643 
L 325.60564 89.068506 
L 328.918442 88.565025 
L 332.231243 88.075823 
L 335.544045 87.601501 
L 338.856846 87.142649 
L 342.169647 86.699875 
L 345.482449 86.273803 
L 348.79525 85.865066 
L 352.108052 85.4743 
L 355.420853 85.102146 
L 358.733655 84.749256 
L 362.046456 84.416298 
L 365.359258 84.10397 
L 368.672059 83.813001 
L 371.984861 83.544159 
L 375.297662 83.298254 
L 378.610464 83.076138 
L 381.923265 82.878708 
L 385.236067 82.706892 
L 388.548868 82.561667 
L 391.86167 82.444084 
L 395.174471 82.355265 
L 398.487273 82.296418 
L 398.487273 73.315509 
L 398.487273 73.315509 
L 395.174471 73.50503 
L 391.86167 73.704326 
L 388.548868 73.913409 
L 385.236067 74.132316 
L 381.923265 74.361096 
L 378.610464 74.59979 
L 375.297662 74.848425 
L 371.984861 75.107015 
L 368.672059 75.375553 
L 365.359258 75.654004 
L 362.046456 75.942313 
L 358.733655 76.240399 
L 355.420853 76.548149 
L 352.108052 76.86542 
L 348.79525 77.192045 
L 345.482449 77.527815 
L 342.169647 77.872472 
L 338.856846 78.225716 
L 335.544045 78.587209 
L 332.231243 78.956572 
L 328.918442 79.333375 
L 325.60564 79.717131 
L 322.292839 80.107295 
L 318.980037 80.503235 
L 315.667236 80.904223 
L 312.354434 81.309412 
L 309.041633 81.717807 
L 305.728831 82.128269 
L 302.41603 82.539481 
L 299.103228 82.949893 
L 295.790427 83.357665 
L 292.477625 83.760616 
L 289.164824 84.156165 
L 285.852022 84.541284 
L 282.539221 84.91242 
L 279.226419 85.265435 
L 275.913618 85.595533 
L 272.600816 85.897196 
L 269.288015 86.164134 
L 265.975213 86.389302 
L 262.662412 86.565013 
L 259.34961 86.68318 
L 256.036809 86.735773 
L 252.724007 86.715611 
L 249.411206 86.617585 
L 246.098404 86.440364 
L 242.785603 86.188229 
L 239.472801 85.872299 
L 236.16 85.510245 
L 232.847199 85.124056 
L 229.534397 84.736481 
L 226.221596 84.367539 
L 222.908794 84.032252 
L 219.595993 83.74016 
L 216.283191 83.496342 
L 212.97039 83.302996 
L 209.657588 83.160736 
L 206.344787 83.069382 
L 203.031985 83.028389 
L 199.719184 83.037127 
L 196.406382 83.095047 
L 193.093581 83.201784 
L 189.780779 83.357197 
L 186.467978 83.561376 
L 183.155176 83.814652 
L 179.842375 84.117626 
L 176.529573 84.471133 
L 173.216772 84.876326 
L 169.90397 85.334703 
L 166.591169 85.848126 
L 163.278367 86.418869 
L 159.965566 87.049848 
L 156.652764 87.744835 
L 153.339963 88.508435 
L 150.027161 89.346002 
L 146.71436 90.263703 
L 143.401558 91.268663 
L 140.088757 92.369194 
L 136.775955 93.574929 
L 133.463154 94.897329 
L 130.150353 96.350479 
L 126.837551 97.951918 
L 123.52475 99.723382 
L 120.211948 101.691186 
L 116.899147 103.887004 
L 113.586345 106.349568 
L 110.273544 109.127437 
L 106.960742 112.280447 
L 103.647941 115.883024 
L 100.335139 120.027476 
L 97.022338 124.827952 
L 93.709536 130.426007 
L 90.396735 136.996972 
L 87.083933 144.763251 
L 83.771132 154.030792 
L 80.45833 165.272288 
L 77.145529 179.349877 
L 73.832727 198.213684 
z
" style="fill:#ff00ff;fill-opacity:0.4;"/>
   </g>
   <g id="PolyCollection_3">
    <path clip-path="url(#p2dcc04b6af)" d="M 73.832727 170.030049 
L 73.832727 175.67027 
L 77.145529 157.280914 
L 80.45833 143.618829 
L 83.771132 132.718525 
L 87.083933 123.708736 
L 90.396735 116.119353 
L 93.709536 109.655761 
L 97.022338 104.109634 
L 100.335139 99.321563 
L 103.647941 95.164745 
L 106.960742 91.536439 
L 110.273544 88.352786 
L 113.586345 85.545324 
L 116.899147 83.05805 
L 120.211948 80.844912 
L 123.52475 78.867852 
L 126.837551 77.095308 
L 130.150353 75.501107 
L 133.463154 74.063455 
L 136.775955 72.76411 
L 140.088757 71.58775 
L 143.401558 70.521487 
L 146.71436 69.554448 
L 150.027161 68.677474 
L 153.339963 67.882894 
L 156.652764 67.164248 
L 159.965566 66.516068 
L 163.278367 65.933708 
L 166.591169 65.413209 
L 169.90397 64.951202 
L 173.216772 64.544843 
L 176.529573 64.191699 
L 179.842375 63.88966 
L 183.155176 63.636937 
L 186.467978 63.432056 
L 189.780779 63.273858 
L 193.093581 63.161454 
L 196.406382 63.094197 
L 199.719184 63.071611 
L 203.031985 63.09332 
L 206.344787 63.15892 
L 209.657588 63.267811 
L 212.97039 63.418969 
L 216.283191 63.610641 
L 219.595993 63.839932 
L 222.908794 64.102305 
L 226.221596 64.391074 
L 229.534397 64.697005 
L 232.847199 65.008302 
L 236.16 65.311268 
L 239.472801 65.591676 
L 242.785603 65.836531 
L 246.098404 66.035638 
L 249.411206 66.182485 
L 252.724007 66.274278 
L 256.036809 66.311367 
L 259.34961 66.296417 
L 262.662412 66.233582 
L 265.975213 66.127826 
L 269.288015 65.984407 
L 272.600816 65.80853 
L 275.913618 65.605129 
L 279.226419 65.37875 
L 282.539221 65.133496 
L 285.852022 64.873014 
L 289.164824 64.600517 
L 292.477625 64.318813 
L 295.790427 64.030352 
L 299.103228 63.737261 
L 302.41603 63.441386 
L 305.728831 63.144332 
L 309.041633 62.847497 
L 312.354434 62.552101 
L 315.667236 62.259213 
L 318.980037 61.969779 
L 322.292839 61.684643 
L 325.60564 61.404564 
L 328.918442 61.130233 
L 332.231243 60.862291 
L 335.544045 60.60134 
L 338.856846 60.347947 
L 342.169647 60.102657 
L 345.482449 59.865998 
L 348.79525 59.638483 
L 352.108052 59.420614 
L 355.420853 59.212886 
L 358.733655 59.015777 
L 362.046456 58.829755 
L 365.359258 58.655266 
L 368.672059 58.492737 
L 371.984861 58.342573 
L 375.297662 58.205154 
L 378.610464 58.080836 
L 381.923265 57.969951 
L 385.236067 57.872827 
L 388.548868 57.789802 
L 391.86167 57.72125 
L 395.174471 57.6676 
L 398.487273 57.629358 
L 398.487273 53.568 
L 398.487273 53.568 
L 395.174471 53.668423 
L 391.86167 53.780479 
L 388.548868 53.904049 
L 385.236067 54.039 
L 381.923265 54.185175 
L 378.610464 54.342384 
L 375.297662 54.510398 
L 371.984861 54.68895 
L 368.672059 54.877742 
L 365.359258 55.076456 
L 362.046456 55.284759 
L 358.733655 55.502311 
L 355.420853 55.728762 
L 352.108052 55.963758 
L 348.79525 56.206933 
L 345.482449 56.457915 
L 342.169647 56.716324 
L 338.856846 56.98177 
L 335.544045 57.253846 
L 332.231243 57.532124 
L 328.918442 57.816142 
L 325.60564 58.105399 
L 322.292839 58.399343 
L 318.980037 58.697355 
L 315.667236 58.998737 
L 312.354434 59.302693 
L 309.041633 59.608309 
L 305.728831 59.914526 
L 302.41603 60.220114 
L 299.103228 60.523636 
L 295.790427 60.823416 
L 292.477625 61.117492 
L 289.164824 61.403566 
L 285.852022 61.678949 
L 282.539221 61.940509 
L 279.226419 62.184611 
L 275.913618 62.407068 
L 272.600816 62.603121 
L 269.288015 62.767444 
L 265.975213 62.894239 
L 262.662412 62.977417 
L 259.34961 63.01096 
L 256.036809 62.989496 
L 252.724007 62.909123 
L 249.411206 62.768456 
L 246.098404 62.569724 
L 242.785603 62.319537 
L 239.472801 62.028877 
L 236.16 61.712017 
L 232.847199 61.384586 
L 229.534397 61.061479 
L 226.221596 60.755289 
L 222.908794 60.47563 
L 219.595993 60.229226 
L 216.283191 60.020426 
L 212.97039 59.851833 
L 209.657588 59.72486 
L 206.344787 59.640183 
L 203.031985 59.598068 
L 199.719184 59.598587 
L 196.406382 59.641779 
L 193.093581 59.727754 
L 189.780779 59.856771 
L 186.467978 60.029291 
L 183.155176 60.246025 
L 179.842375 60.507959 
L 176.529573 60.816379 
L 173.216772 61.172876 
L 169.90397 61.579331 
L 166.591169 62.037977 
L 163.278367 62.551509 
L 159.965566 63.123133 
L 156.652764 63.756629 
L 153.339963 64.456466 
L 150.027161 65.227932 
L 146.71436 66.077306 
L 143.401558 67.012048 
L 140.088757 68.041017 
L 136.775955 69.174704 
L 133.463154 70.425509 
L 130.150353 71.808139 
L 126.837551 73.340131 
L 123.52475 75.042509 
L 120.211948 76.940594 
L 116.899147 79.064916 
L 113.586345 81.452457 
L 110.273544 84.148301 
L 106.960742 87.207754 
L 103.647941 90.698964 
L 100.335139 94.706177 
L 97.022338 99.334063 
L 93.709536 104.713725 
L 90.396735 111.011516 
L 87.083933 118.445204 
L 83.771132 127.3195 
L 80.45833 138.111612 
L 77.145529 151.694519 
L 73.832727 170.030049 
z
" style="fill:#ff0000;fill-opacity:0.4;"/>
   </g>
   <g id="matplotlib.axis_1">
    <g id="xtick_1">
     <g id="line2d_1">
      <path clip-path="url(#p2dcc04b6af)" d="M 70.519926 307.584 
L 70.519926 41.472 
" style="fill:none;stroke:#b0b0b0;stroke-linecap:square;stroke-width:0.8;"/>
     </g>
     <g id="line2d_2">
      <defs>
       <path d="M 0 0 
L 0 3.5 
" id="me8bd7dd10d" style="stroke:#000000;stroke-width:0.8;"/>
      </defs>
      <g>
       <use style="stroke:#000000;stroke-width:0.8;" x="70.519926" xlink:href="#me8bd7dd10d" y="307.584"/>
      </g>
     </g>
     <g id="text_1">
      <!-- 0.0 -->
      <defs>
       <path d="M 31.78125 66.40625 
Q 24.171875 66.40625 20.328125 58.90625 
Q 16.5 51.421875 16.5 36.375 
Q 16.5 21.390625 20.328125 13.890625 
Q 24.171875 6.390625 31.78125 6.390625 
Q 39.453125 6.390625 43.28125 13.890625 
Q 47.125 21.390625 47.125 36.375 
Q 47.125 51.421875 43.28125 58.90625 
Q 39.453125 66.40625 31.78125 66.40625 
z
M 31.78125 74.21875 
Q 44.046875 74.21875 50.515625 64.515625 
Q 56.984375 54.828125 56.984375 36.375 
Q 56.984375 17.96875 50.515625 8.265625 
Q 44.046875 -1.421875 31.78125 -1.421875 
Q 19.53125 -1.421875 13.0625 8.265625 
Q 6.59375 17.96875 6.59375 36.375 
Q 6.59375 54.828125 13.0625 64.515625 
Q 19.53125 74.21875 31.78125 74.21875 
z
" id="DejaVuSans-48"/>
       <path d="M 10.6875 12.40625 
L 21 12.40625 
L 21 0 
L 10.6875 0 
z
" id="DejaVuSans-46"/>
      </defs>
      <g transform="translate(62.568363 322.182437)scale(0.1 -0.1)">
       <use xlink:href="#DejaVuSans-48"/>
       <use x="63.623047" xlink:href="#DejaVuSans-46"/>
       <use x="95.410156" xlink:href="#DejaVuSans-48"/>
      </g>
     </g>
    </g>
    <g id="xtick_2">
     <g id="line2d_3">
      <path clip-path="url(#p2dcc04b6af)" d="M 136.775955 307.584 
L 136.775955 41.472 
" style="fill:none;stroke:#b0b0b0;stroke-linecap:square;stroke-width:0.8;"/>
     </g>
     <g id="line2d_4">
      <g>
       <use style="stroke:#000000;stroke-width:0.8;" x="136.775955" xlink:href="#me8bd7dd10d" y="307.584"/>
      </g>
     </g>
     <g id="text_2">
      <!-- 0.2 -->
      <defs>
       <path d="M 19.1875 8.296875 
L 53.609375 8.296875 
L 53.609375 0 
L 7.328125 0 
L 7.328125 8.296875 
Q 12.9375 14.109375 22.625 23.890625 
Q 32.328125 33.6875 34.8125 36.53125 
Q 39.546875 41.84375 41.421875 45.53125 
Q 43.3125 49.21875 43.3125 52.78125 
Q 43.3125 58.59375 39.234375 62.25 
Q 35.15625 65.921875 28.609375 65.921875 
Q 23.96875 65.921875 18.8125 64.3125 
Q 13.671875 62.703125 7.8125 59.421875 
L 7.8125 69.390625 
Q 13.765625 71.78125 18.9375 73 
Q 24.125 74.21875 28.421875 74.21875 
Q 39.75 74.21875 46.484375 68.546875 
Q 53.21875 62.890625 53.21875 53.421875 
Q 53.21875 48.921875 51.53125 44.890625 
Q 49.859375 40.875 45.40625 35.40625 
Q 44.1875 33.984375 37.640625 27.21875 
Q 31.109375 20.453125 19.1875 8.296875 
z
" id="DejaVuSans-50"/>
      </defs>
      <g transform="translate(128.824393 322.182437)scale(0.1 -0.1)">
       <use xlink:href="#DejaVuSans-48"/>
       <use x="63.623047" xlink:href="#DejaVuSans-46"/>
       <use x="95.410156" xlink:href="#DejaVuSans-50"/>
      </g>
     </g>
    </g>
    <g id="xtick_3">
     <g id="line2d_5">
      <path clip-path="url(#p2dcc04b6af)" d="M 203.031985 307.584 
L 203.031985 41.472 
" style="fill:none;stroke:#b0b0b0;stroke-linecap:square;stroke-width:0.8;"/>
     </g>
     <g id="line2d_6">
      <g>
       <use style="stroke:#000000;stroke-width:0.8;" x="203.031985" xlink:href="#me8bd7dd10d" y="307.584"/>
      </g>
     </g>
     <g id="text_3">
      <!-- 0.4 -->
      <defs>
       <path d="M 37.796875 64.3125 
L 12.890625 25.390625 
L 37.796875 25.390625 
z
M 35.203125 72.90625 
L 47.609375 72.90625 
L 47.609375 25.390625 
L 58.015625 25.390625 
L 58.015625 17.1875 
L 47.609375 17.1875 
L 47.609375 0 
L 37.796875 0 
L 37.796875 17.1875 
L 4.890625 17.1875 
L 4.890625 26.703125 
z
" id="DejaVuSans-52"/>
      </defs>
      <g transform="translate(195.080423 322.182437)scale(0.1 -0.1)">
       <use xlink:href="#DejaVuSans-48"/>
       <use x="63.623047" xlink:href="#DejaVuSans-46"/>
       <use x="95.410156" xlink:href="#DejaVuSans-52"/>
      </g>
     </g>
    </g>
    <g id="xtick_4">
     <g id="line2d_7">
      <path clip-path="url(#p2dcc04b6af)" d="M 269.288015 307.584 
L 269.288015 41.472 
" style="fill:none;stroke:#b0b0b0;stroke-linecap:square;stroke-width:0.8;"/>
     </g>
     <g id="line2d_8">
      <g>
       <use style="stroke:#000000;stroke-width:0.8;" x="269.288015" xlink:href="#me8bd7dd10d" y="307.584"/>
      </g>
     </g>
     <g id="text_4">
      <!-- 0.6 -->
      <defs>
       <path d="M 33.015625 40.375 
Q 26.375 40.375 22.484375 35.828125 
Q 18.609375 31.296875 18.609375 23.390625 
Q 18.609375 15.53125 22.484375 10.953125 
Q 26.375 6.390625 33.015625 6.390625 
Q 39.65625 6.390625 43.53125 10.953125 
Q 47.40625 15.53125 47.40625 23.390625 
Q 47.40625 31.296875 43.53125 35.828125 
Q 39.65625 40.375 33.015625 40.375 
z
M 52.59375 71.296875 
L 52.59375 62.3125 
Q 48.875 64.0625 45.09375 64.984375 
Q 41.3125 65.921875 37.59375 65.921875 
Q 27.828125 65.921875 22.671875 59.328125 
Q 17.53125 52.734375 16.796875 39.40625 
Q 19.671875 43.65625 24.015625 45.921875 
Q 28.375 48.1875 33.59375 48.1875 
Q 44.578125 48.1875 50.953125 41.515625 
Q 57.328125 34.859375 57.328125 23.390625 
Q 57.328125 12.15625 50.6875 5.359375 
Q 44.046875 -1.421875 33.015625 -1.421875 
Q 20.359375 -1.421875 13.671875 8.265625 
Q 6.984375 17.96875 6.984375 36.375 
Q 6.984375 53.65625 15.1875 63.9375 
Q 23.390625 74.21875 37.203125 74.21875 
Q 40.921875 74.21875 44.703125 73.484375 
Q 48.484375 72.75 52.59375 71.296875 
z
" id="DejaVuSans-54"/>
      </defs>
      <g transform="translate(261.336452 322.182437)scale(0.1 -0.1)">
       <use xlink:href="#DejaVuSans-48"/>
       <use x="63.623047" xlink:href="#DejaVuSans-46"/>
       <use x="95.410156" xlink:href="#DejaVuSans-54"/>
      </g>
     </g>
    </g>
    <g id="xtick_5">
     <g id="line2d_9">
      <path clip-path="url(#p2dcc04b6af)" d="M 335.544045 307.584 
L 335.544045 41.472 
" style="fill:none;stroke:#b0b0b0;stroke-linecap:square;stroke-width:0.8;"/>
     </g>
     <g id="line2d_10">
      <g>
       <use style="stroke:#000000;stroke-width:0.8;" x="335.544045" xlink:href="#me8bd7dd10d" y="307.584"/>
      </g>
     </g>
     <g id="text_5">
      <!-- 0.8 -->
      <defs>
       <path d="M 31.78125 34.625 
Q 24.75 34.625 20.71875 30.859375 
Q 16.703125 27.09375 16.703125 20.515625 
Q 16.703125 13.921875 20.71875 10.15625 
Q 24.75 6.390625 31.78125 6.390625 
Q 38.8125 6.390625 42.859375 10.171875 
Q 46.921875 13.96875 46.921875 20.515625 
Q 46.921875 27.09375 42.890625 30.859375 
Q 38.875 34.625 31.78125 34.625 
z
M 21.921875 38.8125 
Q 15.578125 40.375 12.03125 44.71875 
Q 8.5 49.078125 8.5 55.328125 
Q 8.5 64.0625 14.71875 69.140625 
Q 20.953125 74.21875 31.78125 74.21875 
Q 42.671875 74.21875 48.875 69.140625 
Q 55.078125 64.0625 55.078125 55.328125 
Q 55.078125 49.078125 51.53125 44.71875 
Q 48 40.375 41.703125 38.8125 
Q 48.828125 37.15625 52.796875 32.3125 
Q 56.78125 27.484375 56.78125 20.515625 
Q 56.78125 9.90625 50.3125 4.234375 
Q 43.84375 -1.421875 31.78125 -1.421875 
Q 19.734375 -1.421875 13.25 4.234375 
Q 6.78125 9.90625 6.78125 20.515625 
Q 6.78125 27.484375 10.78125 32.3125 
Q 14.796875 37.15625 21.921875 38.8125 
z
M 18.3125 54.390625 
Q 18.3125 48.734375 21.84375 45.5625 
Q 25.390625 42.390625 31.78125 42.390625 
Q 38.140625 42.390625 41.71875 45.5625 
Q 45.3125 48.734375 45.3125 54.390625 
Q 45.3125 60.0625 41.71875 63.234375 
Q 38.140625 66.40625 31.78125 66.40625 
Q 25.390625 66.40625 21.84375 63.234375 
Q 18.3125 60.0625 18.3125 54.390625 
z
" id="DejaVuSans-56"/>
      </defs>
      <g transform="translate(327.592482 322.182437)scale(0.1 -0.1)">
       <use xlink:href="#DejaVuSans-48"/>
       <use x="63.623047" xlink:href="#DejaVuSans-46"/>
       <use x="95.410156" xlink:href="#DejaVuSans-56"/>
      </g>
     </g>
    </g>
    <g id="xtick_6">
     <g id="line2d_11">
      <path clip-path="url(#p2dcc04b6af)" d="M 401.800074 307.584 
L 401.800074 41.472 
" style="fill:none;stroke:#b0b0b0;stroke-linecap:square;stroke-width:0.8;"/>
     </g>
     <g id="line2d_12">
      <g>
       <use style="stroke:#000000;stroke-width:0.8;" x="401.800074" xlink:href="#me8bd7dd10d" y="307.584"/>
      </g>
     </g>
     <g id="text_6">
      <!-- 1.0 -->
      <defs>
       <path d="M 12.40625 8.296875 
L 28.515625 8.296875 
L 28.515625 63.921875 
L 10.984375 60.40625 
L 10.984375 69.390625 
L 28.421875 72.90625 
L 38.28125 72.90625 
L 38.28125 8.296875 
L 54.390625 8.296875 
L 54.390625 0 
L 12.40625 0 
z
" id="DejaVuSans-49"/>
      </defs>
      <g transform="translate(393.848512 322.182437)scale(0.1 -0.1)">
       <use xlink:href="#DejaVuSans-49"/>
       <use x="63.623047" xlink:href="#DejaVuSans-46"/>
       <use x="95.410156" xlink:href="#DejaVuSans-48"/>
      </g>
     </g>
    </g>
    <g id="text_7">
     <!-- $\mathrm{Time \ (seconds)}$ -->
     <defs>
      <path d="M -0.296875 72.90625 
L 61.375 72.90625 
L 61.375 64.59375 
L 35.5 64.59375 
L 35.5 0 
L 25.59375 0 
L 25.59375 64.59375 
L -0.296875 64.59375 
z
" id="DejaVuSans-84"/>
      <path d="M 9.421875 54.6875 
L 18.40625 54.6875 
L 18.40625 0 
L 9.421875 0 
z
M 9.421875 75.984375 
L 18.40625 75.984375 
L 18.40625 64.59375 
L 9.421875 64.59375 
z
" id="DejaVuSans-105"/>
      <path d="M 52 44.1875 
Q 55.375 50.25 60.0625 53.125 
Q 64.75 56 71.09375 56 
Q 79.640625 56 84.28125 50.015625 
Q 88.921875 44.046875 88.921875 33.015625 
L 88.921875 0 
L 79.890625 0 
L 79.890625 32.71875 
Q 79.890625 40.578125 77.09375 44.375 
Q 74.3125 48.1875 68.609375 48.1875 
Q 61.625 48.1875 57.5625 43.546875 
Q 53.515625 38.921875 53.515625 30.90625 
L 53.515625 0 
L 44.484375 0 
L 44.484375 32.71875 
Q 44.484375 40.625 41.703125 44.40625 
Q 38.921875 48.1875 33.109375 48.1875 
Q 26.21875 48.1875 22.15625 43.53125 
Q 18.109375 38.875 18.109375 30.90625 
L 18.109375 0 
L 9.078125 0 
L 9.078125 54.6875 
L 18.109375 54.6875 
L 18.109375 46.1875 
Q 21.1875 51.21875 25.484375 53.609375 
Q 29.78125 56 35.6875 56 
Q 41.65625 56 45.828125 52.96875 
Q 50 49.953125 52 44.1875 
z
" id="DejaVuSans-109"/>
      <path d="M 56.203125 29.59375 
L 56.203125 25.203125 
L 14.890625 25.203125 
Q 15.484375 15.921875 20.484375 11.0625 
Q 25.484375 6.203125 34.421875 6.203125 
Q 39.59375 6.203125 44.453125 7.46875 
Q 49.3125 8.734375 54.109375 11.28125 
L 54.109375 2.78125 
Q 49.265625 0.734375 44.1875 -0.34375 
Q 39.109375 -1.421875 33.890625 -1.421875 
Q 20.796875 -1.421875 13.15625 6.1875 
Q 5.515625 13.8125 5.515625 26.8125 
Q 5.515625 40.234375 12.765625 48.109375 
Q 20.015625 56 32.328125 56 
Q 43.359375 56 49.78125 48.890625 
Q 56.203125 41.796875 56.203125 29.59375 
z
M 47.21875 32.234375 
Q 47.125 39.59375 43.09375 43.984375 
Q 39.0625 48.390625 32.421875 48.390625 
Q 24.90625 48.390625 20.390625 44.140625 
Q 15.875 39.890625 15.1875 32.171875 
z
" id="DejaVuSans-101"/>
      <path d="M 31 75.875 
Q 24.46875 64.65625 21.28125 53.65625 
Q 18.109375 42.671875 18.109375 31.390625 
Q 18.109375 20.125 21.3125 9.0625 
Q 24.515625 -2 31 -13.1875 
L 23.1875 -13.1875 
Q 15.875 -1.703125 12.234375 9.375 
Q 8.59375 20.453125 8.59375 31.390625 
Q 8.59375 42.28125 12.203125 53.3125 
Q 15.828125 64.359375 23.1875 75.875 
z
" id="DejaVuSans-40"/>
      <path d="M 44.28125 53.078125 
L 44.28125 44.578125 
Q 40.484375 46.53125 36.375 47.5 
Q 32.28125 48.484375 27.875 48.484375 
Q 21.1875 48.484375 17.84375 46.4375 
Q 14.5 44.390625 14.5 40.28125 
Q 14.5 37.15625 16.890625 35.375 
Q 19.28125 33.59375 26.515625 31.984375 
L 29.59375 31.296875 
Q 39.15625 29.25 43.1875 25.515625 
Q 47.21875 21.78125 47.21875 15.09375 
Q 47.21875 7.46875 41.1875 3.015625 
Q 35.15625 -1.421875 24.609375 -1.421875 
Q 20.21875 -1.421875 15.453125 -0.5625 
Q 10.6875 0.296875 5.421875 2 
L 5.421875 11.28125 
Q 10.40625 8.6875 15.234375 7.390625 
Q 20.0625 6.109375 24.8125 6.109375 
Q 31.15625 6.109375 34.5625 8.28125 
Q 37.984375 10.453125 37.984375 14.40625 
Q 37.984375 18.0625 35.515625 20.015625 
Q 33.0625 21.96875 24.703125 23.78125 
L 21.578125 24.515625 
Q 13.234375 26.265625 9.515625 29.90625 
Q 5.8125 33.546875 5.8125 39.890625 
Q 5.8125 47.609375 11.28125 51.796875 
Q 16.75 56 26.8125 56 
Q 31.78125 56 36.171875 55.265625 
Q 40.578125 54.546875 44.28125 53.078125 
z
" id="DejaVuSans-115"/>
      <path d="M 48.78125 52.59375 
L 48.78125 44.1875 
Q 44.96875 46.296875 41.140625 47.34375 
Q 37.3125 48.390625 33.40625 48.390625 
Q 24.65625 48.390625 19.8125 42.84375 
Q 14.984375 37.3125 14.984375 27.296875 
Q 14.984375 17.28125 19.8125 11.734375 
Q 24.65625 6.203125 33.40625 6.203125 
Q 37.3125 6.203125 41.140625 7.25 
Q 44.96875 8.296875 48.78125 10.40625 
L 48.78125 2.09375 
Q 45.015625 0.34375 40.984375 -0.53125 
Q 36.96875 -1.421875 32.421875 -1.421875 
Q 20.0625 -1.421875 12.78125 6.34375 
Q 5.515625 14.109375 5.515625 27.296875 
Q 5.515625 40.671875 12.859375 48.328125 
Q 20.21875 56 33.015625 56 
Q 37.15625 56 41.109375 55.140625 
Q 45.0625 54.296875 48.78125 52.59375 
z
" id="DejaVuSans-99"/>
      <path d="M 30.609375 48.390625 
Q 23.390625 48.390625 19.1875 42.75 
Q 14.984375 37.109375 14.984375 27.296875 
Q 14.984375 17.484375 19.15625 11.84375 
Q 23.34375 6.203125 30.609375 6.203125 
Q 37.796875 6.203125 41.984375 11.859375 
Q 46.1875 17.53125 46.1875 27.296875 
Q 46.1875 37.015625 41.984375 42.703125 
Q 37.796875 48.390625 30.609375 48.390625 
z
M 30.609375 56 
Q 42.328125 56 49.015625 48.375 
Q 55.71875 40.765625 55.71875 27.296875 
Q 55.71875 13.875 49.015625 6.21875 
Q 42.328125 -1.421875 30.609375 -1.421875 
Q 18.84375 -1.421875 12.171875 6.21875 
Q 5.515625 13.875 5.515625 27.296875 
Q 5.515625 40.765625 12.171875 48.375 
Q 18.84375 56 30.609375 56 
z
" id="DejaVuSans-111"/>
      <path d="M 54.890625 33.015625 
L 54.890625 0 
L 45.90625 0 
L 45.90625 32.71875 
Q 45.90625 40.484375 42.875 44.328125 
Q 39.84375 48.1875 33.796875 48.1875 
Q 26.515625 48.1875 22.3125 43.546875 
Q 18.109375 38.921875 18.109375 30.90625 
L 18.109375 0 
L 9.078125 0 
L 9.078125 54.6875 
L 18.109375 54.6875 
L 18.109375 46.1875 
Q 21.34375 51.125 25.703125 53.5625 
Q 30.078125 56 35.796875 56 
Q 45.21875 56 50.046875 50.171875 
Q 54.890625 44.34375 54.890625 33.015625 
z
" id="DejaVuSans-110"/>
      <path d="M 45.40625 46.390625 
L 45.40625 75.984375 
L 54.390625 75.984375 
L 54.390625 0 
L 45.40625 0 
L 45.40625 8.203125 
Q 42.578125 3.328125 38.25 0.953125 
Q 33.9375 -1.421875 27.875 -1.421875 
Q 17.96875 -1.421875 11.734375 6.484375 
Q 5.515625 14.40625 5.515625 27.296875 
Q 5.515625 40.1875 11.734375 48.09375 
Q 17.96875 56 27.875 56 
Q 33.9375 56 38.25 53.625 
Q 42.578125 51.265625 45.40625 46.390625 
z
M 14.796875 27.296875 
Q 14.796875 17.390625 18.875 11.75 
Q 22.953125 6.109375 30.078125 6.109375 
Q 37.203125 6.109375 41.296875 11.75 
Q 45.40625 17.390625 45.40625 27.296875 
Q 45.40625 37.203125 41.296875 42.84375 
Q 37.203125 48.484375 30.078125 48.484375 
Q 22.953125 48.484375 18.875 42.84375 
Q 14.796875 37.203125 14.796875 27.296875 
z
" id="DejaVuSans-100"/>
      <path d="M 8.015625 75.875 
L 15.828125 75.875 
Q 23.140625 64.359375 26.78125 53.3125 
Q 30.421875 42.28125 30.421875 31.390625 
Q 30.421875 20.453125 26.78125 9.375 
Q 23.140625 -1.703125 15.828125 -13.1875 
L 8.015625 -13.1875 
Q 14.5 -2 17.703125 9.0625 
Q 20.90625 20.125 20.90625 31.390625 
Q 20.90625 42.671875 17.703125 53.65625 
Q 14.5 64.65625 8.015625 75.875 
z
" id="DejaVuSans-41"/>
     </defs>
     <g transform="translate(197.76 335.860562)scale(0.1 -0.1)">
      <use transform="translate(0 0.015625)" xlink:href="#DejaVuSans-84"/>
      <use transform="translate(61.083984 0.015625)" xlink:href="#DejaVuSans-105"/>
      <use transform="translate(88.867188 0.015625)" xlink:href="#DejaVuSans-109"/>
      <use transform="translate(186.279297 0.015625)" xlink:href="#DejaVuSans-101"/>
      <use transform="translate(280.273113 0.015625)" xlink:href="#DejaVuSans-40"/>
      <use transform="translate(319.286785 0.015625)" xlink:href="#DejaVuSans-115"/>
      <use transform="translate(371.386394 0.015625)" xlink:href="#DejaVuSans-101"/>
      <use transform="translate(432.909832 0.015625)" xlink:href="#DejaVuSans-99"/>
      <use transform="translate(487.8903 0.015625)" xlink:href="#DejaVuSans-111"/>
      <use transform="translate(549.071941 0.015625)" xlink:href="#DejaVuSans-110"/>
      <use transform="translate(612.450847 0.015625)" xlink:href="#DejaVuSans-100"/>
      <use transform="translate(675.92741 0.015625)" xlink:href="#DejaVuSans-115"/>
      <use transform="translate(728.027019 0.015625)" xlink:href="#DejaVuSans-41"/>
     </g>
    </g>
   </g>
   <g id="matplotlib.axis_2">
    <g id="ytick_1">
     <g id="line2d_13">
      <path clip-path="url(#p2dcc04b6af)" d="M 57.6 239.776219 
L 414.72 239.776219 
" style="fill:none;stroke:#b0b0b0;stroke-linecap:square;stroke-width:0.8;"/>
     </g>
     <g id="line2d_14">
      <defs>
       <path d="M 0 0 
L -3.5 0 
" id="ma4c31fc03c" style="stroke:#000000;stroke-width:0.8;"/>
      </defs>
      <g>
       <use style="stroke:#000000;stroke-width:0.8;" x="57.6" xlink:href="#ma4c31fc03c" y="239.776219"/>
      </g>
     </g>
     <g id="text_8">
      <!-- $\mathdefault{10^{-2}}$ -->
      <defs>
       <path d="M 10.59375 35.5 
L 73.1875 35.5 
L 73.1875 27.203125 
L 10.59375 27.203125 
z
" id="DejaVuSans-8722"/>
      </defs>
      <g transform="translate(27.1 243.575438)scale(0.1 -0.1)">
       <use transform="translate(0 0.765625)" xlink:href="#DejaVuSans-49"/>
       <use transform="translate(63.623047 0.765625)" xlink:href="#DejaVuSans-48"/>
       <use transform="translate(128.203125 39.046875)scale(0.7)" xlink:href="#DejaVuSans-8722"/>
       <use transform="translate(186.855469 39.046875)scale(0.7)" xlink:href="#DejaVuSans-50"/>
      </g>
     </g>
    </g>
    <g id="ytick_2">
     <g id="line2d_15">
      <path clip-path="url(#p2dcc04b6af)" d="M 57.6 130.929709 
L 414.72 130.929709 
" style="fill:none;stroke:#b0b0b0;stroke-linecap:square;stroke-width:0.8;"/>
     </g>
     <g id="line2d_16">
      <g>
       <use style="stroke:#000000;stroke-width:0.8;" x="57.6" xlink:href="#ma4c31fc03c" y="130.929709"/>
      </g>
     </g>
     <g id="text_9">
      <!-- $\mathdefault{10^{-1}}$ -->
      <g transform="translate(27.1 134.728928)scale(0.1 -0.1)">
       <use transform="translate(0 0.684375)" xlink:href="#DejaVuSans-49"/>
       <use transform="translate(63.623047 0.684375)" xlink:href="#DejaVuSans-48"/>
       <use transform="translate(128.203125 38.965625)scale(0.7)" xlink:href="#DejaVuSans-8722"/>
       <use transform="translate(186.855469 38.965625)scale(0.7)" xlink:href="#DejaVuSans-49"/>
      </g>
     </g>
    </g>
    <g id="ytick_3">
     <g id="line2d_17">
      <defs>
       <path d="M 0 0 
L -2 0 
" id="m8287a0fa58" style="stroke:#000000;stroke-width:0.6;"/>
      </defs>
      <g>
       <use style="stroke:#000000;stroke-width:0.6;" x="57.6" xlink:href="#m8287a0fa58" y="296.689746"/>
      </g>
     </g>
    </g>
    <g id="ytick_4">
     <g id="line2d_18">
      <g>
       <use style="stroke:#000000;stroke-width:0.6;" x="57.6" xlink:href="#m8287a0fa58" y="283.0906"/>
      </g>
     </g>
    </g>
    <g id="ytick_5">
     <g id="line2d_19">
      <g>
       <use style="stroke:#000000;stroke-width:0.6;" x="57.6" xlink:href="#m8287a0fa58" y="272.542283"/>
      </g>
     </g>
    </g>
    <g id="ytick_6">
     <g id="line2d_20">
      <g>
       <use style="stroke:#000000;stroke-width:0.6;" x="57.6" xlink:href="#m8287a0fa58" y="263.923681"/>
      </g>
     </g>
    </g>
    <g id="ytick_7">
     <g id="line2d_21">
      <g>
       <use style="stroke:#000000;stroke-width:0.6;" x="57.6" xlink:href="#m8287a0fa58" y="256.636757"/>
      </g>
     </g>
    </g>
    <g id="ytick_8">
     <g id="line2d_22">
      <g>
       <use style="stroke:#000000;stroke-width:0.6;" x="57.6" xlink:href="#m8287a0fa58" y="250.324536"/>
      </g>
     </g>
    </g>
    <g id="ytick_9">
     <g id="line2d_23">
      <g>
       <use style="stroke:#000000;stroke-width:0.6;" x="57.6" xlink:href="#m8287a0fa58" y="244.756762"/>
      </g>
     </g>
    </g>
    <g id="ytick_10">
     <g id="line2d_24">
      <g>
       <use style="stroke:#000000;stroke-width:0.6;" x="57.6" xlink:href="#m8287a0fa58" y="207.010155"/>
      </g>
     </g>
    </g>
    <g id="ytick_11">
     <g id="line2d_25">
      <g>
       <use style="stroke:#000000;stroke-width:0.6;" x="57.6" xlink:href="#m8287a0fa58" y="187.843236"/>
      </g>
     </g>
    </g>
    <g id="ytick_12">
     <g id="line2d_26">
      <g>
       <use style="stroke:#000000;stroke-width:0.6;" x="57.6" xlink:href="#m8287a0fa58" y="174.24409"/>
      </g>
     </g>
    </g>
    <g id="ytick_13">
     <g id="line2d_27">
      <g>
       <use style="stroke:#000000;stroke-width:0.6;" x="57.6" xlink:href="#m8287a0fa58" y="163.695773"/>
      </g>
     </g>
    </g>
    <g id="ytick_14">
     <g id="line2d_28">
      <g>
       <use style="stroke:#000000;stroke-width:0.6;" x="57.6" xlink:href="#m8287a0fa58" y="155.077171"/>
      </g>
     </g>
    </g>
    <g id="ytick_15">
     <g id="line2d_29">
      <g>
       <use style="stroke:#000000;stroke-width:0.6;" x="57.6" xlink:href="#m8287a0fa58" y="147.790247"/>
      </g>
     </g>
    </g>
    <g id="ytick_16">
     <g id="line2d_30">
      <g>
       <use style="stroke:#000000;stroke-width:0.6;" x="57.6" xlink:href="#m8287a0fa58" y="141.478026"/>
      </g>
     </g>
    </g>
    <g id="ytick_17">
     <g id="line2d_31">
      <g>
       <use style="stroke:#000000;stroke-width:0.6;" x="57.6" xlink:href="#m8287a0fa58" y="135.910252"/>
      </g>
     </g>
    </g>
    <g id="ytick_18">
     <g id="line2d_32">
      <g>
       <use style="stroke:#000000;stroke-width:0.6;" x="57.6" xlink:href="#m8287a0fa58" y="98.163645"/>
      </g>
     </g>
    </g>
    <g id="ytick_19">
     <g id="line2d_33">
      <g>
       <use style="stroke:#000000;stroke-width:0.6;" x="57.6" xlink:href="#m8287a0fa58" y="78.996726"/>
      </g>
     </g>
    </g>
    <g id="ytick_20">
     <g id="line2d_34">
      <g>
       <use style="stroke:#000000;stroke-width:0.6;" x="57.6" xlink:href="#m8287a0fa58" y="65.39758"/>
      </g>
     </g>
    </g>
    <g id="ytick_21">
     <g id="line2d_35">
      <g>
       <use style="stroke:#000000;stroke-width:0.6;" x="57.6" xlink:href="#m8287a0fa58" y="54.849263"/>
      </g>
     </g>
    </g>
    <g id="ytick_22">
     <g id="line2d_36">
      <g>
       <use style="stroke:#000000;stroke-width:0.6;" x="57.6" xlink:href="#m8287a0fa58" y="46.230661"/>
      </g>
     </g>
    </g>
    <g id="text_10">
     <!-- $\mathrm{Relative \ error}$ ($N_{\mathrm{train}}=20$) -->
     <defs>
      <path d="M 44.390625 34.1875 
Q 47.5625 33.109375 50.5625 29.59375 
Q 53.5625 26.078125 56.59375 19.921875 
L 66.609375 0 
L 56 0 
L 46.6875 18.703125 
Q 43.0625 26.03125 39.671875 28.421875 
Q 36.28125 30.8125 30.421875 30.8125 
L 19.671875 30.8125 
L 19.671875 0 
L 9.8125 0 
L 9.8125 72.90625 
L 32.078125 72.90625 
Q 44.578125 72.90625 50.734375 67.671875 
Q 56.890625 62.453125 56.890625 51.90625 
Q 56.890625 45.015625 53.6875 40.46875 
Q 50.484375 35.9375 44.390625 34.1875 
z
M 19.671875 64.796875 
L 19.671875 38.921875 
L 32.078125 38.921875 
Q 39.203125 38.921875 42.84375 42.21875 
Q 46.484375 45.515625 46.484375 51.90625 
Q 46.484375 58.296875 42.84375 61.546875 
Q 39.203125 64.796875 32.078125 64.796875 
z
" id="DejaVuSans-82"/>
      <path d="M 9.421875 75.984375 
L 18.40625 75.984375 
L 18.40625 0 
L 9.421875 0 
z
" id="DejaVuSans-108"/>
      <path d="M 34.28125 27.484375 
Q 23.390625 27.484375 19.1875 25 
Q 14.984375 22.515625 14.984375 16.5 
Q 14.984375 11.71875 18.140625 8.90625 
Q 21.296875 6.109375 26.703125 6.109375 
Q 34.1875 6.109375 38.703125 11.40625 
Q 43.21875 16.703125 43.21875 25.484375 
L 43.21875 27.484375 
z
M 52.203125 31.203125 
L 52.203125 0 
L 43.21875 0 
L 43.21875 8.296875 
Q 40.140625 3.328125 35.546875 0.953125 
Q 30.953125 -1.421875 24.3125 -1.421875 
Q 15.921875 -1.421875 10.953125 3.296875 
Q 6 8.015625 6 15.921875 
Q 6 25.140625 12.171875 29.828125 
Q 18.359375 34.515625 30.609375 34.515625 
L 43.21875 34.515625 
L 43.21875 35.40625 
Q 43.21875 41.609375 39.140625 45 
Q 35.0625 48.390625 27.6875 48.390625 
Q 23 48.390625 18.546875 47.265625 
Q 14.109375 46.140625 10.015625 43.890625 
L 10.015625 52.203125 
Q 14.9375 54.109375 19.578125 55.046875 
Q 24.21875 56 28.609375 56 
Q 40.484375 56 46.34375 49.84375 
Q 52.203125 43.703125 52.203125 31.203125 
z
" id="DejaVuSans-97"/>
      <path d="M 18.3125 70.21875 
L 18.3125 54.6875 
L 36.8125 54.6875 
L 36.8125 47.703125 
L 18.3125 47.703125 
L 18.3125 18.015625 
Q 18.3125 11.328125 20.140625 9.421875 
Q 21.96875 7.515625 27.59375 7.515625 
L 36.8125 7.515625 
L 36.8125 0 
L 27.59375 0 
Q 17.1875 0 13.234375 3.875 
Q 9.28125 7.765625 9.28125 18.015625 
L 9.28125 47.703125 
L 2.6875 47.703125 
L 2.6875 54.6875 
L 9.28125 54.6875 
L 9.28125 70.21875 
z
" id="DejaVuSans-116"/>
      <path d="M 2.984375 54.6875 
L 12.5 54.6875 
L 29.59375 8.796875 
L 46.6875 54.6875 
L 56.203125 54.6875 
L 35.6875 0 
L 23.484375 0 
z
" id="DejaVuSans-118"/>
      <path d="M 41.109375 46.296875 
Q 39.59375 47.171875 37.8125 47.578125 
Q 36.03125 48 33.890625 48 
Q 26.265625 48 22.1875 43.046875 
Q 18.109375 38.09375 18.109375 28.8125 
L 18.109375 0 
L 9.078125 0 
L 9.078125 54.6875 
L 18.109375 54.6875 
L 18.109375 46.1875 
Q 20.953125 51.171875 25.484375 53.578125 
Q 30.03125 56 36.53125 56 
Q 37.453125 56 38.578125 55.875 
Q 39.703125 55.765625 41.0625 55.515625 
z
" id="DejaVuSans-114"/>
      <path id="DejaVuSans-32"/>
      <path d="M 16.890625 72.90625 
L 30.171875 72.90625 
L 50.296875 10.40625 
L 62.5 72.90625 
L 72.125 72.90625 
L 57.90625 0 
L 44.578125 0 
L 24.515625 62.890625 
L 12.3125 0 
L 2.6875 0 
z
" id="DejaVuSans-Oblique-78"/>
      <path d="M 10.59375 45.40625 
L 73.1875 45.40625 
L 73.1875 37.203125 
L 10.59375 37.203125 
z
M 10.59375 25.484375 
L 73.1875 25.484375 
L 73.1875 17.1875 
L 10.59375 17.1875 
z
" id="DejaVuSans-61"/>
     </defs>
     <g transform="translate(21.020312 238.878)rotate(-90)scale(0.1 -0.1)">
      <use transform="translate(0 0.015625)" xlink:href="#DejaVuSans-82"/>
      <use transform="translate(69.482422 0.015625)" xlink:href="#DejaVuSans-101"/>
      <use transform="translate(131.005859 0.015625)" xlink:href="#DejaVuSans-108"/>
      <use transform="translate(158.789062 0.015625)" xlink:href="#DejaVuSans-97"/>
      <use transform="translate(220.068359 0.015625)" xlink:href="#DejaVuSans-116"/>
      <use transform="translate(259.277344 0.015625)" xlink:href="#DejaVuSans-105"/>
      <use transform="translate(287.060547 0.015625)" xlink:href="#DejaVuSans-118"/>
      <use transform="translate(346.240234 0.015625)" xlink:href="#DejaVuSans-101"/>
      <use transform="translate(440.23405 0.015625)" xlink:href="#DejaVuSans-101"/>
      <use transform="translate(501.757488 0.015625)" xlink:href="#DejaVuSans-114"/>
      <use transform="translate(542.870769 0.015625)" xlink:href="#DejaVuSans-114"/>
      <use transform="translate(583.98405 0.015625)" xlink:href="#DejaVuSans-111"/>
      <use transform="translate(645.165691 0.015625)" xlink:href="#DejaVuSans-114"/>
      <use transform="translate(686.278972 0.015625)" xlink:href="#DejaVuSans-32"/>
      <use transform="translate(718.066082 0.015625)" xlink:href="#DejaVuSans-40"/>
      <use transform="translate(757.079753 0.015625)" xlink:href="#DejaVuSans-Oblique-78"/>
      <use transform="translate(831.884441 -16.390625)scale(0.7)" xlink:href="#DejaVuSans-116"/>
      <use transform="translate(859.33073 -16.390625)scale(0.7)" xlink:href="#DejaVuSans-114"/>
      <use transform="translate(888.110027 -16.390625)scale(0.7)" xlink:href="#DejaVuSans-97"/>
      <use transform="translate(931.005535 -16.390625)scale(0.7)" xlink:href="#DejaVuSans-105"/>
      <use transform="translate(950.453777 -16.390625)scale(0.7)" xlink:href="#DejaVuSans-110"/>
      <use transform="translate(1017.035808 0.015625)" xlink:href="#DejaVuSans-61"/>
      <use transform="translate(1120.307292 0.015625)" xlink:href="#DejaVuSans-50"/>
      <use transform="translate(1183.930339 0.015625)" xlink:href="#DejaVuSans-48"/>
      <use transform="translate(1247.553386 0.015625)" xlink:href="#DejaVuSans-41"/>
     </g>
    </g>
   </g>
   <g id="line2d_37">
    <path clip-path="url(#p2dcc04b6af)" d="M 73.832724 274.921234 
L 77.145522 256.379583 
L 80.458321 242.581862 
L 83.771119 231.633748 
L 87.083917 222.706825 
L 90.396716 215.341899 
L 93.709554 209.228417 
L 97.022352 204.125111 
L 100.33515 199.836455 
L 103.647949 196.204167 
L 106.960747 193.100098 
L 110.273545 190.421979 
L 113.586344 188.092068 
L 116.899142 186.051565 
L 120.21194 184.254351 
L 123.524738 182.665123 
L 126.837537 181.255128 
L 130.150375 180.001146 
L 133.463173 178.883244 
L 136.775971 177.882339 
L 140.08877 176.980255 
L 143.401568 176.16094 
L 146.714366 175.409373 
L 150.027165 174.716712 
L 153.339963 174.078044 
L 156.652761 173.489929 
L 159.96556 172.950318 
L 163.278358 172.458651 
L 166.591156 172.014446 
L 169.903955 171.61729 
L 173.216753 171.267096 
L 176.529551 170.964649 
L 179.842389 170.711187 
L 183.155187 170.507325 
L 186.467986 170.352475 
L 189.780784 170.244532 
L 193.093582 170.1788 
L 199.719179 170.139458 
L 206.344776 170.127467 
L 209.657574 170.083442 
L 212.970412 169.9861 
L 216.28321 169.817548 
L 219.596008 169.565381 
L 222.908807 169.223346 
L 226.221605 168.790483 
L 229.534403 168.269763 
L 232.847202 167.666817 
L 236.16 166.988923 
L 239.472798 166.244299 
L 242.785597 165.441594 
L 246.098395 164.589596 
L 252.723992 162.772609 
L 262.662387 159.887451 
L 272.600821 156.98047 
L 279.226418 155.100811 
L 285.852014 153.298498 
L 292.477651 151.587196 
L 299.103247 149.972928 
L 305.728844 148.456308 
L 312.35444 147.034606 
L 318.980037 145.705046 
L 325.605634 144.466193 
L 332.23123 143.317641 
L 338.856827 142.261319 
L 345.482424 141.301465 
L 352.10806 140.444304 
L 358.733656 139.697759 
L 365.359253 139.071027 
L 368.672051 138.805846 
L 371.984889 138.574674 
L 375.297688 138.378862 
L 378.610486 138.219562 
L 381.923284 138.097437 
L 385.236083 138.012356 
L 388.548881 137.962828 
L 395.174478 137.954381 
L 398.487276 137.981759 
" style="fill:none;stroke:#ffa500;stroke-linecap:square;stroke-width:1.5;"/>
   </g>
   <g id="line2d_38">
    <path clip-path="url(#p2dcc04b6af)" d="M 73.832724 204.686662 
L 77.145522 185.833968 
L 80.458321 171.752936 
L 83.771119 160.501283 
L 87.083917 151.224528 
L 90.396716 143.455984 
L 93.709554 136.892959 
L 97.022352 131.312397 
L 100.33515 126.537394 
L 103.647949 122.424908 
L 106.960747 118.858417 
L 110.273545 115.742985 
L 113.586344 113.002139 
L 116.899142 110.574317 
L 120.21194 108.409341 
L 123.524738 106.466945 
L 126.837537 104.714304 
L 130.150375 103.124944 
L 133.463173 101.677448 
L 136.775971 100.354541 
L 140.08877 99.142343 
L 143.401568 98.029537 
L 146.714366 97.006912 
L 150.027165 96.066912 
L 153.339963 95.203522 
L 156.652761 94.411703 
L 159.96556 93.687255 
L 163.278358 93.026762 
L 166.591156 92.427489 
L 169.903955 91.88746 
L 173.216753 91.4052 
L 176.529551 90.979591 
L 179.842389 90.609904 
L 183.155187 90.295767 
L 186.467986 90.037177 
L 189.780784 89.834435 
L 193.093582 89.688162 
L 196.406381 89.599254 
L 199.719179 89.568879 
L 203.031977 89.598438 
L 206.344776 89.689422 
L 209.657574 89.843129 
L 212.970412 90.060105 
L 216.28321 90.339172 
L 219.596008 90.675859 
L 226.221605 91.475968 
L 232.847202 92.30277 
L 236.16 92.661646 
L 239.472798 92.955267 
L 242.785597 93.169688 
L 246.098395 93.29746 
L 249.411193 93.337099 
L 252.723992 93.291814 
L 256.03679 93.168079 
L 259.349588 92.974198 
L 262.662387 92.719178 
L 265.975185 92.411944 
L 269.288023 92.060931 
L 275.913619 91.257551 
L 282.539216 90.360774 
L 292.477651 88.923089 
L 312.35444 86.001959 
L 322.292835 84.609302 
L 332.23123 83.296643 
L 338.856827 82.474243 
L 345.482424 81.698826 
L 352.10806 80.97416 
L 358.733656 80.303633 
L 365.359253 79.690438 
L 371.984889 79.137602 
L 378.610486 78.64823 
L 385.236083 78.22545 
L 391.861679 77.872518 
L 398.487276 77.592999 
" style="fill:none;stroke:#ff00ff;stroke-linecap:square;stroke-width:1.5;"/>
   </g>
   <g id="line2d_39">
    <path clip-path="url(#p2dcc04b6af)" d="M 73.832724 172.766092 
L 77.145522 154.405245 
L 80.458321 140.785067 
L 83.771119 129.941973 
L 87.083917 121.003751 
L 90.396716 113.496484 
L 93.709554 107.120184 
L 97.022352 101.661566 
L 100.33515 96.957564 
L 103.647949 92.87914 
L 106.960747 89.322564 
L 110.273545 86.203809 
L 113.586344 83.454607 
L 116.899142 81.019338 
L 120.21194 78.852453 
L 123.524738 76.916507 
L 126.837537 75.180433 
L 130.150375 73.618573 
L 133.463173 72.209494 
L 136.775971 70.935352 
L 140.08877 69.781129 
L 143.401568 68.734198 
L 146.714366 67.783911 
L 150.027165 66.921247 
L 153.339963 66.138642 
L 156.652761 65.429736 
L 159.96556 64.789174 
L 163.278358 64.212361 
L 166.591156 63.695469 
L 169.903955 63.235201 
L 173.216753 62.828807 
L 176.529551 62.473914 
L 179.842389 62.168574 
L 183.155187 61.911075 
L 186.467986 61.700068 
L 189.780784 61.53445 
L 193.093582 61.413439 
L 196.406381 61.33648 
L 199.719179 61.303211 
L 203.031977 61.313399 
L 206.344776 61.366819 
L 209.657574 61.463149 
L 212.970412 61.601766 
L 216.28321 61.781462 
L 219.596008 62.000113 
L 226.221605 62.538233 
L 242.785597 64.045341 
L 246.098395 64.27092 
L 249.411193 64.444649 
L 252.723992 64.561765 
L 256.03679 64.621257 
L 259.349588 64.625152 
L 262.662387 64.577467 
L 265.975185 64.483393 
L 269.288023 64.348565 
L 275.913619 63.97906 
L 282.539216 63.510048 
L 289.164852 62.975017 
L 299.103247 62.10314 
L 325.605634 59.726206 
L 335.544029 58.897966 
L 345.482424 58.131255 
L 355.420858 57.438726 
L 365.359253 56.831991 
L 371.984889 56.480472 
L 378.610486 56.174665 
L 385.236083 55.917063 
L 391.861679 55.709818 
L 398.487276 55.555071 
" style="fill:none;stroke:#ff0000;stroke-linecap:square;stroke-width:1.5;"/>
   </g>
   <g id="patch_3">
    <path d="M 57.6 307.584 
L 57.6 41.472 
" style="fill:none;stroke:#000000;stroke-linecap:square;stroke-linejoin:miter;stroke-width:0.8;"/>
   </g>
   <g id="patch_4">
    <path d="M 414.72 307.584 
L 414.72 41.472 
" style="fill:none;stroke:#000000;stroke-linecap:square;stroke-linejoin:miter;stroke-width:0.8;"/>
   </g>
   <g id="patch_5">
    <path d="M 57.6 307.584 
L 414.72 307.584 
" style="fill:none;stroke:#000000;stroke-linecap:square;stroke-linejoin:miter;stroke-width:0.8;"/>
   </g>
   <g id="patch_6">
    <path d="M 57.6 41.472 
L 414.72 41.472 
" style="fill:none;stroke:#000000;stroke-linecap:square;stroke-linejoin:miter;stroke-width:0.8;"/>
   </g>
   <g id="legend_1">
    <g id="patch_7">
     <path d="M 323.679375 302.584 
L 407.72 302.584 
Q 409.72 302.584 409.72 300.584 
L 409.72 257.549625 
Q 409.72 255.549625 407.72 255.549625 
L 323.679375 255.549625 
Q 321.679375 255.549625 321.679375 257.549625 
L 321.679375 300.584 
Q 321.679375 302.584 323.679375 302.584 
z
" style="fill:#ffffff;opacity:0.8;stroke:#cccccc;stroke-linejoin:miter;"/>
    </g>
    <g id="line2d_40">
     <path d="M 325.679375 263.648062 
L 345.679375 263.648062 
" style="fill:none;stroke:#ffa500;stroke-linecap:square;stroke-width:1.5;"/>
    </g>
    <g id="line2d_41"/>
    <g id="text_11">
     <!-- 0.01 noise -->
     <g transform="translate(353.679375 267.148062)scale(0.1 -0.1)">
      <use xlink:href="#DejaVuSans-48"/>
      <use x="63.623047" xlink:href="#DejaVuSans-46"/>
      <use x="95.410156" xlink:href="#DejaVuSans-48"/>
      <use x="159.033203" xlink:href="#DejaVuSans-49"/>
      <use x="222.65625" xlink:href="#DejaVuSans-32"/>
      <use x="254.443359" xlink:href="#DejaVuSans-110"/>
      <use x="317.822266" xlink:href="#DejaVuSans-111"/>
      <use x="379.003906" xlink:href="#DejaVuSans-105"/>
      <use x="406.787109" xlink:href="#DejaVuSans-115"/>
      <use x="458.886719" xlink:href="#DejaVuSans-101"/>
     </g>
    </g>
    <g id="line2d_42">
     <path d="M 325.679375 278.326188 
L 345.679375 278.326188 
" style="fill:none;stroke:#ff00ff;stroke-linecap:square;stroke-width:1.5;"/>
    </g>
    <g id="line2d_43"/>
    <g id="text_12">
     <!-- 0.05 noise -->
     <defs>
      <path d="M 10.796875 72.90625 
L 49.515625 72.90625 
L 49.515625 64.59375 
L 19.828125 64.59375 
L 19.828125 46.734375 
Q 21.96875 47.46875 24.109375 47.828125 
Q 26.265625 48.1875 28.421875 48.1875 
Q 40.625 48.1875 47.75 41.5 
Q 54.890625 34.8125 54.890625 23.390625 
Q 54.890625 11.625 47.5625 5.09375 
Q 40.234375 -1.421875 26.90625 -1.421875 
Q 22.3125 -1.421875 17.546875 -0.640625 
Q 12.796875 0.140625 7.71875 1.703125 
L 7.71875 11.625 
Q 12.109375 9.234375 16.796875 8.0625 
Q 21.484375 6.890625 26.703125 6.890625 
Q 35.15625 6.890625 40.078125 11.328125 
Q 45.015625 15.765625 45.015625 23.390625 
Q 45.015625 31 40.078125 35.4375 
Q 35.15625 39.890625 26.703125 39.890625 
Q 22.75 39.890625 18.8125 39.015625 
Q 14.890625 38.140625 10.796875 36.28125 
z
" id="DejaVuSans-53"/>
     </defs>
     <g transform="translate(353.679375 281.826188)scale(0.1 -0.1)">
      <use xlink:href="#DejaVuSans-48"/>
      <use x="63.623047" xlink:href="#DejaVuSans-46"/>
      <use x="95.410156" xlink:href="#DejaVuSans-48"/>
      <use x="159.033203" xlink:href="#DejaVuSans-53"/>
      <use x="222.65625" xlink:href="#DejaVuSans-32"/>
      <use x="254.443359" xlink:href="#DejaVuSans-110"/>
      <use x="317.822266" xlink:href="#DejaVuSans-111"/>
      <use x="379.003906" xlink:href="#DejaVuSans-105"/>
      <use x="406.787109" xlink:href="#DejaVuSans-115"/>
      <use x="458.886719" xlink:href="#DejaVuSans-101"/>
     </g>
    </g>
    <g id="line2d_44">
     <path d="M 325.679375 293.004312 
L 345.679375 293.004312 
" style="fill:none;stroke:#ff0000;stroke-linecap:square;stroke-width:1.5;"/>
    </g>
    <g id="line2d_45"/>
    <g id="text_13">
     <!-- 0.1 noise -->
     <g transform="translate(353.679375 296.504312)scale(0.1 -0.1)">
      <use xlink:href="#DejaVuSans-48"/>
      <use x="63.623047" xlink:href="#DejaVuSans-46"/>
      <use x="95.410156" xlink:href="#DejaVuSans-49"/>
      <use x="159.033203" xlink:href="#DejaVuSans-32"/>
      <use x="190.820312" xlink:href="#DejaVuSans-110"/>
      <use x="254.199219" xlink:href="#DejaVuSans-111"/>
      <use x="315.380859" xlink:href="#DejaVuSans-105"/>
      <use x="343.164062" xlink:href="#DejaVuSans-115"/>
      <use x="395.263672" xlink:href="#DejaVuSans-101"/>
     </g>
    </g>
   </g>
  </g>
 </g>
 <defs>
  <clipPath id="p2dcc04b6af">
   <rect height="266.112" width="357.12" x="57.6" y="41.472"/>
  </clipPath>
 </defs>
</svg>
