<?xml version="1.0" encoding="utf-8" standalone="no"?>
<!DOCTYPE svg PUBLIC "-//W3C//DTD SVG 1.1//EN"
  "http://www.w3.org/Graphics/SVG/1.1/DTD/svg11.dtd">
<!-- Created with matplotlib (https://matplotlib.org/) -->
<svg height="345.6pt" version="1.1" viewBox="0 0 460.8 345.6" width="460.8pt" xmlns="http://www.w3.org/2000/svg" xmlns:xlink="http://www.w3.org/1999/xlink">
 <defs>
  <style type="text/css">
*{stroke-linecap:butt;stroke-linejoin:round;white-space:pre;}
  </style>
 </defs>
 <g id="figure_1">
  <g id="patch_1">
   <path d="M 0 345.6 
L 460.8 345.6 
L 460.8 0 
L 0 0 
z
" style="fill:#ffffff;"/>
  </g>
  <g id="axes_1">
   <g id="patch_2">
    <path d="M 57.6 307.584 
L 414.72 307.584 
L 414.72 41.472 
L 57.6 41.472 
z
" style="fill:#ffffff;"/>
   </g>
   <g id="PolyCollection_1">
    <path clip-path="url(#paec34d92c5)" d="M 73.832727 254.216945 
L 73.832727 276.667962 
L 77.145529 246.405098 
L 80.45833 223.776487 
L 83.771132 205.678773 
L 87.083933 190.75577 
L 90.396735 178.270692 
L 93.709536 167.744321 
L 97.022338 158.816934 
L 100.335139 151.200989 
L 103.647941 144.663474 
L 106.960742 139.012161 
L 110.273544 134.088825 
L 113.586345 129.766233 
L 116.899147 125.941709 
L 120.211948 122.531001 
L 123.52475 119.4661 
L 126.837551 116.691697 
L 130.150353 114.164882 
L 133.463154 111.851885 
L 136.775955 109.725514 
L 140.088757 107.763944 
L 143.401558 105.949351 
L 146.71436 104.267784 
L 150.027161 102.708931 
L 153.339963 101.265452 
L 156.652764 99.931836 
L 159.965566 98.703878 
L 163.278367 97.57858 
L 166.591169 96.553892 
L 169.90397 95.628597 
L 173.216772 94.802072 
L 176.529573 94.074177 
L 179.842375 93.445307 
L 183.155176 92.91653 
L 186.467978 92.489613 
L 189.780779 92.167009 
L 193.093581 91.951765 
L 196.406382 91.84748 
L 199.719184 91.858294 
L 203.031985 91.988797 
L 206.344787 92.243564 
L 209.657588 92.626317 
L 212.97039 93.138204 
L 216.283191 93.77462 
L 219.595993 94.520228 
L 222.908794 95.342725 
L 226.221596 96.188949 
L 229.534397 96.989498 
L 232.847199 97.674116 
L 236.16 98.18959 
L 239.472801 98.508703 
L 242.785603 98.627752 
L 246.098404 98.5585 
L 249.411206 98.320427 
L 252.724007 97.935547 
L 256.036809 97.425599 
L 259.34961 96.810766 
L 262.662412 96.109202 
L 265.975213 95.336971 
L 269.288015 94.508121 
L 272.600816 93.63483 
L 275.913618 92.727589 
L 279.226419 91.795378 
L 282.539221 90.845842 
L 285.852022 89.885455 
L 289.164824 88.919678 
L 292.477625 87.953114 
L 295.790427 86.989654 
L 299.103228 86.032601 
L 302.41603 85.084764 
L 305.728831 84.14855 
L 309.041633 83.22603 
L 312.354434 82.319006 
L 315.667236 81.429073 
L 318.980037 80.557645 
L 322.292839 79.705974 
L 325.60564 78.875193 
L 328.918442 78.066351 
L 332.231243 77.280448 
L 335.544045 76.518449 
L 338.856846 75.781303 
L 342.169647 75.069986 
L 345.482449 74.385501 
L 348.79525 73.728866 
L 352.108052 73.101101 
L 355.420853 72.503235 
L 358.733655 71.936316 
L 362.046456 71.40142 
L 365.359258 70.899664 
L 368.672059 70.432223 
L 371.984861 70.000328 
L 375.297662 69.605281 
L 378.610464 69.248453 
L 381.923265 68.931281 
L 385.236067 68.655258 
L 388.548868 68.421955 
L 391.86167 68.233058 
L 395.174471 68.09037 
L 398.487273 67.995833 
L 398.487273 53.568 
L 398.487273 53.568 
L 395.174471 53.872466 
L 391.86167 54.192634 
L 388.548868 54.528526 
L 385.236067 54.880201 
L 381.923265 55.247735 
L 378.610464 55.631197 
L 375.297662 56.03063 
L 371.984861 56.446055 
L 368.672059 56.877462 
L 365.359258 57.324793 
L 362.046456 57.787962 
L 358.733655 58.266837 
L 355.420853 58.761237 
L 352.108052 59.270933 
L 348.79525 59.795655 
L 345.482449 60.33507 
L 342.169647 60.888762 
L 338.856846 61.456248 
L 335.544045 62.036987 
L 332.231243 62.630369 
L 328.918442 63.235702 
L 325.60564 63.852207 
L 322.292839 64.479006 
L 318.980037 65.115083 
L 315.667236 65.759271 
L 312.354434 66.410207 
L 309.041633 67.066294 
L 305.728831 67.725701 
L 302.41603 68.386313 
L 299.103228 69.04564 
L 295.790427 69.700726 
L 292.477625 70.348066 
L 289.164824 70.983517 
L 285.852022 71.60221 
L 282.539221 72.19844 
L 279.226419 72.765558 
L 275.913618 73.295862 
L 272.600816 73.780483 
L 269.288015 74.209319 
L 265.975213 74.571051 
L 262.662412 74.853331 
L 259.34961 75.043167 
L 256.036809 75.127657 
L 252.724007 75.095266 
L 249.411206 74.937788 
L 246.098404 74.653083 
L 242.785603 74.248027 
L 239.472801 73.740485 
L 236.16 73.158847 
L 232.847199 72.538433 
L 229.534397 71.915795 
L 226.221596 71.323088 
L 222.908794 70.784449 
L 219.595993 70.315204 
L 216.283191 69.92351 
L 212.97039 69.612899 
L 209.657588 69.38436 
L 206.344787 69.237599 
L 203.031985 69.171744 
L 199.719184 69.185781 
L 196.406382 69.278829 
L 193.093581 69.450304 
L 189.780779 69.699973 
L 186.467978 70.027988 
L 183.155176 70.434875 
L 179.842375 70.921603 
L 176.529573 71.489512 
L 173.216772 72.140455 
L 169.90397 72.876837 
L 166.591169 73.701651 
L 163.278367 74.61855 
L 159.965566 75.632218 
L 156.652764 76.748715 
L 153.339963 77.975438 
L 150.027161 79.320991 
L 146.71436 80.795277 
L 143.401558 82.409745 
L 140.088757 84.177749 
L 136.775955 86.114762 
L 133.463154 88.239198 
L 130.150353 90.573684 
L 126.837551 93.146396 
L 123.52475 95.992253 
L 120.211948 99.153531 
L 116.899147 102.681113 
L 113.586345 106.637224 
L 110.273544 111.09987 
L 106.960742 116.165182 
L 103.647941 121.952722 
L 100.335139 128.610784 
L 97.022338 136.32275 
L 93.709536 145.316028 
L 90.396735 155.872284 
L 87.083933 168.348813 
L 83.771132 183.237119 
L 80.45833 201.296585 
L 77.145529 223.912235 
L 73.832727 254.216945 
z
" style="fill:#ff0000;fill-opacity:0.4;"/>
   </g>
   <g id="PolyCollection_2">
    <path clip-path="url(#paec34d92c5)" d="M 73.832727 256.24451 
L 73.832727 280.196845 
L 77.145529 249.891404 
L 80.45833 227.235071 
L 83.771132 209.123072 
L 87.083933 194.196299 
L 90.396735 181.719246 
L 93.709536 171.211573 
L 97.022338 162.31192 
L 100.335139 154.729284 
L 103.647941 148.227625 
L 106.960742 142.613946 
L 110.273544 137.729388 
L 113.586345 133.445518 
L 116.899147 129.659233 
L 120.211948 126.286454 
L 123.52475 123.260206 
L 126.837551 120.525975 
L 130.150353 118.039795 
L 133.463154 115.767233 
L 136.775955 113.681539 
L 140.088757 111.760785 
L 143.401558 109.986618 
L 146.71436 108.344544 
L 150.027161 106.823874 
L 153.339963 105.41708 
L 156.652764 104.118526 
L 159.965566 102.924066 
L 163.278367 101.830721 
L 166.591169 100.836425 
L 169.90397 99.940114 
L 173.216772 99.141563 
L 176.529573 98.441149 
L 179.842375 97.839872 
L 183.155176 97.339335 
L 186.467978 96.941775 
L 189.780779 96.650073 
L 193.093581 96.467722 
L 196.406382 96.398679 
L 199.719184 96.447347 
L 203.031985 96.618423 
L 206.344787 96.916402 
L 209.657588 97.344425 
L 212.97039 97.902096 
L 216.283191 98.581746 
L 219.595993 99.362697 
L 222.908794 100.204853 
L 226.221596 101.04695 
L 229.534397 101.815518 
L 232.847199 102.443026 
L 236.16 102.884048 
L 239.472801 103.120012 
L 242.785603 103.153795 
L 246.098404 103.001114 
L 249.411206 102.683394 
L 252.724007 102.223364 
L 256.036809 101.642835 
L 259.34961 100.961774 
L 262.662412 100.198016 
L 265.975213 99.367262 
L 269.288015 98.483203 
L 272.600816 97.557685 
L 275.913618 96.600903 
L 279.226419 95.621592 
L 282.539221 94.627193 
L 285.852022 93.624008 
L 289.164824 92.61736 
L 292.477625 91.611737 
L 295.790427 90.610925 
L 299.103228 89.618132 
L 302.41603 88.63609 
L 305.728831 87.667136 
L 309.041633 86.713279 
L 312.354434 85.776268 
L 315.667236 84.857636 
L 318.980037 83.958735 
L 322.292839 83.080762 
L 325.60564 82.224802 
L 328.918442 81.391866 
L 332.231243 80.582917 
L 335.544045 79.798886 
L 338.856846 79.040712 
L 342.169647 78.309342 
L 345.482449 77.605718 
L 348.79525 76.930778 
L 352.108052 76.285458 
L 355.420853 75.67071 
L 358.733655 75.087517 
L 362.046456 74.53688 
L 365.359258 74.019842 
L 368.672059 73.537498 
L 371.984861 73.090983 
L 375.297662 72.681486 
L 378.610464 72.310277 
L 381.923265 71.97868 
L 385.236067 71.688054 
L 388.548868 71.439844 
L 391.86167 71.235617 
L 395.174471 71.077083 
L 398.487273 70.9661 
L 398.487273 56.228746 
L 398.487273 56.228746 
L 395.174471 56.545355 
L 391.86167 56.878078 
L 388.548868 57.226907 
L 385.236067 57.591888 
L 381.923265 57.97309 
L 378.610464 58.37059 
L 375.297662 58.784457 
L 371.984861 59.214736 
L 368.672059 59.66144 
L 365.359258 60.124537 
L 362.046456 60.603947 
L 358.733655 61.099563 
L 355.420853 61.611235 
L 352.108052 62.138736 
L 348.79525 62.681777 
L 345.482449 63.240014 
L 342.169647 63.813023 
L 338.856846 64.400296 
L 335.544045 65.001272 
L 332.231243 65.615351 
L 328.918442 66.241894 
L 325.60564 66.88017 
L 322.292839 67.529324 
L 318.980037 68.188349 
L 315.667236 68.856066 
L 312.354434 69.531102 
L 309.041633 70.211887 
L 305.728831 70.896651 
L 302.41603 71.583341 
L 299.103228 72.269532 
L 295.790427 72.952338 
L 292.477625 73.628323 
L 289.164824 74.293394 
L 285.852022 74.942709 
L 282.539221 75.570562 
L 279.226419 76.170286 
L 275.913618 76.734124 
L 272.600816 77.253102 
L 269.288015 77.716987 
L 265.975213 78.114312 
L 262.662412 78.432508 
L 259.34961 78.658215 
L 256.036809 78.777912 
L 252.724007 78.779055 
L 249.411206 78.651887 
L 246.098404 78.392183 
L 242.785603 78.004404 
L 239.472801 77.504221 
L 236.16 76.918841 
L 232.847199 76.283909 
L 229.534397 75.63778 
L 226.221596 75.015573 
L 222.908794 74.444624 
L 219.595993 73.942666 
L 216.283191 73.519125 
L 212.97039 73.177963 
L 209.657588 72.920163 
L 206.344787 72.745256 
L 203.031985 72.652105 
L 199.719184 72.639412 
L 196.406382 72.706021 
L 193.093581 72.851086 
L 189.780779 73.074158 
L 186.467978 73.375147 
L 183.155176 73.754393 
L 179.842375 74.212801 
L 176.529573 74.751698 
L 173.216772 75.372871 
L 169.90397 76.078671 
L 166.591169 76.872011 
L 163.278367 77.756444 
L 159.965566 78.736605 
L 156.652764 79.818493 
L 153.339963 81.009578 
L 150.027161 82.318643 
L 146.71436 83.75572 
L 143.401558 85.332238 
L 140.088757 87.061384 
L 136.775955 88.958586 
L 133.463154 91.042332 
L 130.150353 93.33514 
L 126.837551 95.865031 
L 123.52475 98.667043 
L 120.211948 101.78321 
L 116.899147 105.264289 
L 113.586345 109.172654 
L 110.273544 113.58651 
L 106.960742 118.602519 
L 103.647941 124.34069 
L 100.335139 130.949646 
L 97.022338 138.613319 
L 93.709536 147.559831 
L 90.396735 158.071822 
L 87.083933 170.507268 
L 83.771132 185.357067 
L 80.45833 203.38025 
L 77.145529 225.963788 
L 73.832727 256.24451 
z
" style="fill:#0000ff;fill-opacity:0.4;"/>
   </g>
   <g id="PolyCollection_3">
    <path clip-path="url(#paec34d92c5)" d="M 73.832727 265.064279 
L 73.832727 295.488 
L 77.145529 264.90584 
L 80.45833 242.041821 
L 83.771132 223.779062 
L 87.083933 208.752639 
L 90.396735 196.21919 
L 93.709536 185.692777 
L 97.022338 176.804409 
L 100.335139 169.257178 
L 103.647941 162.80943 
L 106.960742 157.26582 
L 110.273544 152.467445 
L 113.586345 148.284645 
L 116.899147 144.612658 
L 120.211948 141.366846 
L 123.52475 138.478238 
L 126.837551 135.889753 
L 130.150353 133.554912 
L 133.463154 131.43568 
L 136.775955 129.501117 
L 140.088757 127.727211 
L 143.401558 126.095675 
L 146.71436 124.593467 
L 150.027161 123.211798 
L 153.339963 121.944193 
L 156.652764 120.785327 
L 159.965566 119.731131 
L 163.278367 118.778821 
L 166.591169 117.926853 
L 169.90397 117.17491 
L 173.216772 116.523544 
L 176.529573 115.973947 
L 179.842375 115.528107 
L 183.155176 115.188993 
L 186.467978 114.960428 
L 189.780779 114.846998 
L 193.093581 114.853966 
L 196.406382 114.987337 
L 199.719184 115.253664 
L 203.031985 115.659235 
L 206.344787 116.208185 
L 209.657588 116.899202 
L 212.97039 117.719479 
L 216.283191 118.635804 
L 219.595993 119.58742 
L 222.908794 120.490058 
L 226.221596 121.255929 
L 229.534397 121.818744 
L 232.847199 122.146059 
L 236.16 122.235212 
L 239.472801 122.102054 
L 242.785603 121.770969 
L 246.098404 121.268611 
L 249.411206 120.620718 
L 252.724007 119.850825 
L 256.036809 118.979932 
L 259.34961 118.026568 
L 262.662412 117.006996 
L 265.975213 115.935409 
L 269.288015 114.824132 
L 272.600816 113.683823 
L 275.913618 112.523642 
L 279.226419 111.351399 
L 282.539221 110.173695 
L 285.852022 108.996071 
L 289.164824 107.823158 
L 292.477625 106.658846 
L 295.790427 105.506406 
L 299.103228 104.368597 
L 302.41603 103.247763 
L 305.728831 102.145879 
L 309.041633 101.064622 
L 312.354434 100.00543 
L 315.667236 98.969546 
L 318.980037 97.958048 
L 322.292839 96.971898 
L 325.60564 96.012008 
L 328.918442 95.079261 
L 332.231243 94.174501 
L 335.544045 93.298532 
L 338.856846 92.452142 
L 342.169647 91.636108 
L 345.482449 90.851184 
L 348.79525 90.098142 
L 352.108052 89.377811 
L 355.420853 88.69108 
L 358.733655 88.038865 
L 362.046456 87.422079 
L 365.359258 86.841655 
L 368.672059 86.298584 
L 371.984861 85.793895 
L 375.297662 85.328635 
L 378.610464 84.903853 
L 381.923265 84.520665 
L 385.236067 84.180295 
L 388.548868 83.884094 
L 391.86167 83.633517 
L 395.174471 83.430084 
L 398.487273 83.275325 
L 398.487273 63.938254 
L 398.487273 63.938254 
L 395.174471 64.293965 
L 391.86167 64.666886 
L 388.548868 65.057016 
L 385.236067 65.464388 
L 381.923265 65.889058 
L 378.610464 66.331121 
L 375.297662 66.790688 
L 371.984861 67.267872 
L 368.672059 67.762764 
L 365.359258 68.275414 
L 362.046456 68.805824 
L 358.733655 69.353975 
L 355.420853 69.919847 
L 352.108052 70.503412 
L 348.79525 71.104617 
L 345.482449 71.723346 
L 342.169647 72.359384 
L 338.856846 73.012428 
L 335.544045 73.682053 
L 332.231243 74.367686 
L 328.918442 75.068669 
L 325.60564 75.784298 
L 322.292839 76.513791 
L 318.980037 77.256238 
L 315.667236 78.010609 
L 312.354434 78.775708 
L 309.041633 79.550173 
L 305.728831 80.332415 
L 302.41603 81.120559 
L 299.103228 81.912368 
L 295.790427 82.705176 
L 292.477625 83.495822 
L 289.164824 84.280565 
L 285.852022 85.054954 
L 282.539221 85.813708 
L 279.226419 86.550609 
L 275.913618 87.258397 
L 272.600816 87.928658 
L 269.288015 88.551717 
L 265.975213 89.116577 
L 262.662412 89.610954 
L 259.34961 90.021432 
L 256.036809 90.333844 
L 252.724007 90.534007 
L 249.411206 90.609024 
L 246.098404 90.549264 
L 242.785603 90.351139 
L 239.472801 90.02021 
L 236.16 89.57343 
L 232.847199 89.038978 
L 229.534397 88.452795 
L 226.221596 87.852908 
L 222.908794 87.273989 
L 219.595993 86.743515 
L 216.283191 86.279932 
L 212.97039 85.89323 
L 209.657588 85.587475 
L 206.344787 85.363504 
L 203.031985 85.220664 
L 199.719184 85.157731 
L 196.406382 85.173446 
L 193.093581 85.266782 
L 189.780779 85.43709 
L 186.467978 85.684074 
L 183.155176 86.007793 
L 179.842375 86.408624 
L 176.529573 86.887474 
L 173.216772 87.446021 
L 169.90397 88.086567 
L 166.591169 88.811729 
L 163.278367 89.624682 
L 159.965566 90.529402 
L 156.652764 91.531216 
L 153.339963 92.637267 
L 150.027161 93.856275 
L 146.71436 95.197833 
L 143.401558 96.672701 
L 140.088757 98.293468 
L 136.775955 100.07575 
L 133.463154 102.038329 
L 130.150353 104.203436 
L 126.837551 106.598565 
L 123.52475 109.258186 
L 120.211948 112.223871 
L 116.899147 115.547185 
L 113.586345 119.29309 
L 110.273544 123.541954 
L 106.960742 128.392965 
L 103.647941 133.968009 
L 100.335139 140.418578 
L 97.022338 147.933158 
L 93.709536 156.743809 
L 90.396735 167.137342 
L 87.083933 179.476632 
L 83.771132 194.254604 
L 80.45833 212.231275 
L 77.145529 234.794192 
L 73.832727 265.064279 
z
" style="fill:#00ffff;fill-opacity:0.4;"/>
   </g>
   <g id="matplotlib.axis_1">
    <g id="xtick_1">
     <g id="line2d_1">
      <path clip-path="url(#paec34d92c5)" d="M 70.519926 307.584 
L 70.519926 41.472 
" style="fill:none;stroke:#b0b0b0;stroke-linecap:square;stroke-width:0.8;"/>
     </g>
     <g id="line2d_2">
      <defs>
       <path d="M 0 0 
L 0 3.5 
" id="m39bf9a00af" style="stroke:#000000;stroke-width:0.8;"/>
      </defs>
      <g>
       <use style="stroke:#000000;stroke-width:0.8;" x="70.519926" xlink:href="#m39bf9a00af" y="307.584"/>
      </g>
     </g>
     <g id="text_1">
      <!-- 0.0 -->
      <defs>
       <path d="M 31.78125 66.40625 
Q 24.171875 66.40625 20.328125 58.90625 
Q 16.5 51.421875 16.5 36.375 
Q 16.5 21.390625 20.328125 13.890625 
Q 24.171875 6.390625 31.78125 6.390625 
Q 39.453125 6.390625 43.28125 13.890625 
Q 47.125 21.390625 47.125 36.375 
Q 47.125 51.421875 43.28125 58.90625 
Q 39.453125 66.40625 31.78125 66.40625 
z
M 31.78125 74.21875 
Q 44.046875 74.21875 50.515625 64.515625 
Q 56.984375 54.828125 56.984375 36.375 
Q 56.984375 17.96875 50.515625 8.265625 
Q 44.046875 -1.421875 31.78125 -1.421875 
Q 19.53125 -1.421875 13.0625 8.265625 
Q 6.59375 17.96875 6.59375 36.375 
Q 6.59375 54.828125 13.0625 64.515625 
Q 19.53125 74.21875 31.78125 74.21875 
z
" id="DejaVuSans-48"/>
       <path d="M 10.6875 12.40625 
L 21 12.40625 
L 21 0 
L 10.6875 0 
z
" id="DejaVuSans-46"/>
      </defs>
      <g transform="translate(62.568363 322.182437)scale(0.1 -0.1)">
       <use xlink:href="#DejaVuSans-48"/>
       <use x="63.623047" xlink:href="#DejaVuSans-46"/>
       <use x="95.410156" xlink:href="#DejaVuSans-48"/>
      </g>
     </g>
    </g>
    <g id="xtick_2">
     <g id="line2d_3">
      <path clip-path="url(#paec34d92c5)" d="M 136.775955 307.584 
L 136.775955 41.472 
" style="fill:none;stroke:#b0b0b0;stroke-linecap:square;stroke-width:0.8;"/>
     </g>
     <g id="line2d_4">
      <g>
       <use style="stroke:#000000;stroke-width:0.8;" x="136.775955" xlink:href="#m39bf9a00af" y="307.584"/>
      </g>
     </g>
     <g id="text_2">
      <!-- 0.2 -->
      <defs>
       <path d="M 19.1875 8.296875 
L 53.609375 8.296875 
L 53.609375 0 
L 7.328125 0 
L 7.328125 8.296875 
Q 12.9375 14.109375 22.625 23.890625 
Q 32.328125 33.6875 34.8125 36.53125 
Q 39.546875 41.84375 41.421875 45.53125 
Q 43.3125 49.21875 43.3125 52.78125 
Q 43.3125 58.59375 39.234375 62.25 
Q 35.15625 65.921875 28.609375 65.921875 
Q 23.96875 65.921875 18.8125 64.3125 
Q 13.671875 62.703125 7.8125 59.421875 
L 7.8125 69.390625 
Q 13.765625 71.78125 18.9375 73 
Q 24.125 74.21875 28.421875 74.21875 
Q 39.75 74.21875 46.484375 68.546875 
Q 53.21875 62.890625 53.21875 53.421875 
Q 53.21875 48.921875 51.53125 44.890625 
Q 49.859375 40.875 45.40625 35.40625 
Q 44.1875 33.984375 37.640625 27.21875 
Q 31.109375 20.453125 19.1875 8.296875 
z
" id="DejaVuSans-50"/>
      </defs>
      <g transform="translate(128.824393 322.182437)scale(0.1 -0.1)">
       <use xlink:href="#DejaVuSans-48"/>
       <use x="63.623047" xlink:href="#DejaVuSans-46"/>
       <use x="95.410156" xlink:href="#DejaVuSans-50"/>
      </g>
     </g>
    </g>
    <g id="xtick_3">
     <g id="line2d_5">
      <path clip-path="url(#paec34d92c5)" d="M 203.031985 307.584 
L 203.031985 41.472 
" style="fill:none;stroke:#b0b0b0;stroke-linecap:square;stroke-width:0.8;"/>
     </g>
     <g id="line2d_6">
      <g>
       <use style="stroke:#000000;stroke-width:0.8;" x="203.031985" xlink:href="#m39bf9a00af" y="307.584"/>
      </g>
     </g>
     <g id="text_3">
      <!-- 0.4 -->
      <defs>
       <path d="M 37.796875 64.3125 
L 12.890625 25.390625 
L 37.796875 25.390625 
z
M 35.203125 72.90625 
L 47.609375 72.90625 
L 47.609375 25.390625 
L 58.015625 25.390625 
L 58.015625 17.1875 
L 47.609375 17.1875 
L 47.609375 0 
L 37.796875 0 
L 37.796875 17.1875 
L 4.890625 17.1875 
L 4.890625 26.703125 
z
" id="DejaVuSans-52"/>
      </defs>
      <g transform="translate(195.080423 322.182437)scale(0.1 -0.1)">
       <use xlink:href="#DejaVuSans-48"/>
       <use x="63.623047" xlink:href="#DejaVuSans-46"/>
       <use x="95.410156" xlink:href="#DejaVuSans-52"/>
      </g>
     </g>
    </g>
    <g id="xtick_4">
     <g id="line2d_7">
      <path clip-path="url(#paec34d92c5)" d="M 269.288015 307.584 
L 269.288015 41.472 
" style="fill:none;stroke:#b0b0b0;stroke-linecap:square;stroke-width:0.8;"/>
     </g>
     <g id="line2d_8">
      <g>
       <use style="stroke:#000000;stroke-width:0.8;" x="269.288015" xlink:href="#m39bf9a00af" y="307.584"/>
      </g>
     </g>
     <g id="text_4">
      <!-- 0.6 -->
      <defs>
       <path d="M 33.015625 40.375 
Q 26.375 40.375 22.484375 35.828125 
Q 18.609375 31.296875 18.609375 23.390625 
Q 18.609375 15.53125 22.484375 10.953125 
Q 26.375 6.390625 33.015625 6.390625 
Q 39.65625 6.390625 43.53125 10.953125 
Q 47.40625 15.53125 47.40625 23.390625 
Q 47.40625 31.296875 43.53125 35.828125 
Q 39.65625 40.375 33.015625 40.375 
z
M 52.59375 71.296875 
L 52.59375 62.3125 
Q 48.875 64.0625 45.09375 64.984375 
Q 41.3125 65.921875 37.59375 65.921875 
Q 27.828125 65.921875 22.671875 59.328125 
Q 17.53125 52.734375 16.796875 39.40625 
Q 19.671875 43.65625 24.015625 45.921875 
Q 28.375 48.1875 33.59375 48.1875 
Q 44.578125 48.1875 50.953125 41.515625 
Q 57.328125 34.859375 57.328125 23.390625 
Q 57.328125 12.15625 50.6875 5.359375 
Q 44.046875 -1.421875 33.015625 -1.421875 
Q 20.359375 -1.421875 13.671875 8.265625 
Q 6.984375 17.96875 6.984375 36.375 
Q 6.984375 53.65625 15.1875 63.9375 
Q 23.390625 74.21875 37.203125 74.21875 
Q 40.921875 74.21875 44.703125 73.484375 
Q 48.484375 72.75 52.59375 71.296875 
z
" id="DejaVuSans-54"/>
      </defs>
      <g transform="translate(261.336452 322.182437)scale(0.1 -0.1)">
       <use xlink:href="#DejaVuSans-48"/>
       <use x="63.623047" xlink:href="#DejaVuSans-46"/>
       <use x="95.410156" xlink:href="#DejaVuSans-54"/>
      </g>
     </g>
    </g>
    <g id="xtick_5">
     <g id="line2d_9">
      <path clip-path="url(#paec34d92c5)" d="M 335.544045 307.584 
L 335.544045 41.472 
" style="fill:none;stroke:#b0b0b0;stroke-linecap:square;stroke-width:0.8;"/>
     </g>
     <g id="line2d_10">
      <g>
       <use style="stroke:#000000;stroke-width:0.8;" x="335.544045" xlink:href="#m39bf9a00af" y="307.584"/>
      </g>
     </g>
     <g id="text_5">
      <!-- 0.8 -->
      <defs>
       <path d="M 31.78125 34.625 
Q 24.75 34.625 20.71875 30.859375 
Q 16.703125 27.09375 16.703125 20.515625 
Q 16.703125 13.921875 20.71875 10.15625 
Q 24.75 6.390625 31.78125 6.390625 
Q 38.8125 6.390625 42.859375 10.171875 
Q 46.921875 13.96875 46.921875 20.515625 
Q 46.921875 27.09375 42.890625 30.859375 
Q 38.875 34.625 31.78125 34.625 
z
M 21.921875 38.8125 
Q 15.578125 40.375 12.03125 44.71875 
Q 8.5 49.078125 8.5 55.328125 
Q 8.5 64.0625 14.71875 69.140625 
Q 20.953125 74.21875 31.78125 74.21875 
Q 42.671875 74.21875 48.875 69.140625 
Q 55.078125 64.0625 55.078125 55.328125 
Q 55.078125 49.078125 51.53125 44.71875 
Q 48 40.375 41.703125 38.8125 
Q 48.828125 37.15625 52.796875 32.3125 
Q 56.78125 27.484375 56.78125 20.515625 
Q 56.78125 9.90625 50.3125 4.234375 
Q 43.84375 -1.421875 31.78125 -1.421875 
Q 19.734375 -1.421875 13.25 4.234375 
Q 6.78125 9.90625 6.78125 20.515625 
Q 6.78125 27.484375 10.78125 32.3125 
Q 14.796875 37.15625 21.921875 38.8125 
z
M 18.3125 54.390625 
Q 18.3125 48.734375 21.84375 45.5625 
Q 25.390625 42.390625 31.78125 42.390625 
Q 38.140625 42.390625 41.71875 45.5625 
Q 45.3125 48.734375 45.3125 54.390625 
Q 45.3125 60.0625 41.71875 63.234375 
Q 38.140625 66.40625 31.78125 66.40625 
Q 25.390625 66.40625 21.84375 63.234375 
Q 18.3125 60.0625 18.3125 54.390625 
z
" id="DejaVuSans-56"/>
      </defs>
      <g transform="translate(327.592482 322.182437)scale(0.1 -0.1)">
       <use xlink:href="#DejaVuSans-48"/>
       <use x="63.623047" xlink:href="#DejaVuSans-46"/>
       <use x="95.410156" xlink:href="#DejaVuSans-56"/>
      </g>
     </g>
    </g>
    <g id="xtick_6">
     <g id="line2d_11">
      <path clip-path="url(#paec34d92c5)" d="M 401.800074 307.584 
L 401.800074 41.472 
" style="fill:none;stroke:#b0b0b0;stroke-linecap:square;stroke-width:0.8;"/>
     </g>
     <g id="line2d_12">
      <g>
       <use style="stroke:#000000;stroke-width:0.8;" x="401.800074" xlink:href="#m39bf9a00af" y="307.584"/>
      </g>
     </g>
     <g id="text_6">
      <!-- 1.0 -->
      <defs>
       <path d="M 12.40625 8.296875 
L 28.515625 8.296875 
L 28.515625 63.921875 
L 10.984375 60.40625 
L 10.984375 69.390625 
L 28.421875 72.90625 
L 38.28125 72.90625 
L 38.28125 8.296875 
L 54.390625 8.296875 
L 54.390625 0 
L 12.40625 0 
z
" id="DejaVuSans-49"/>
      </defs>
      <g transform="translate(393.848512 322.182437)scale(0.1 -0.1)">
       <use xlink:href="#DejaVuSans-49"/>
       <use x="63.623047" xlink:href="#DejaVuSans-46"/>
       <use x="95.410156" xlink:href="#DejaVuSans-48"/>
      </g>
     </g>
    </g>
    <g id="text_7">
     <!-- $\mathrm{Time \ (seconds)}$ -->
     <defs>
      <path d="M -0.296875 72.90625 
L 61.375 72.90625 
L 61.375 64.59375 
L 35.5 64.59375 
L 35.5 0 
L 25.59375 0 
L 25.59375 64.59375 
L -0.296875 64.59375 
z
" id="DejaVuSans-84"/>
      <path d="M 9.421875 54.6875 
L 18.40625 54.6875 
L 18.40625 0 
L 9.421875 0 
z
M 9.421875 75.984375 
L 18.40625 75.984375 
L 18.40625 64.59375 
L 9.421875 64.59375 
z
" id="DejaVuSans-105"/>
      <path d="M 52 44.1875 
Q 55.375 50.25 60.0625 53.125 
Q 64.75 56 71.09375 56 
Q 79.640625 56 84.28125 50.015625 
Q 88.921875 44.046875 88.921875 33.015625 
L 88.921875 0 
L 79.890625 0 
L 79.890625 32.71875 
Q 79.890625 40.578125 77.09375 44.375 
Q 74.3125 48.1875 68.609375 48.1875 
Q 61.625 48.1875 57.5625 43.546875 
Q 53.515625 38.921875 53.515625 30.90625 
L 53.515625 0 
L 44.484375 0 
L 44.484375 32.71875 
Q 44.484375 40.625 41.703125 44.40625 
Q 38.921875 48.1875 33.109375 48.1875 
Q 26.21875 48.1875 22.15625 43.53125 
Q 18.109375 38.875 18.109375 30.90625 
L 18.109375 0 
L 9.078125 0 
L 9.078125 54.6875 
L 18.109375 54.6875 
L 18.109375 46.1875 
Q 21.1875 51.21875 25.484375 53.609375 
Q 29.78125 56 35.6875 56 
Q 41.65625 56 45.828125 52.96875 
Q 50 49.953125 52 44.1875 
z
" id="DejaVuSans-109"/>
      <path d="M 56.203125 29.59375 
L 56.203125 25.203125 
L 14.890625 25.203125 
Q 15.484375 15.921875 20.484375 11.0625 
Q 25.484375 6.203125 34.421875 6.203125 
Q 39.59375 6.203125 44.453125 7.46875 
Q 49.3125 8.734375 54.109375 11.28125 
L 54.109375 2.78125 
Q 49.265625 0.734375 44.1875 -0.34375 
Q 39.109375 -1.421875 33.890625 -1.421875 
Q 20.796875 -1.421875 13.15625 6.1875 
Q 5.515625 13.8125 5.515625 26.8125 
Q 5.515625 40.234375 12.765625 48.109375 
Q 20.015625 56 32.328125 56 
Q 43.359375 56 49.78125 48.890625 
Q 56.203125 41.796875 56.203125 29.59375 
z
M 47.21875 32.234375 
Q 47.125 39.59375 43.09375 43.984375 
Q 39.0625 48.390625 32.421875 48.390625 
Q 24.90625 48.390625 20.390625 44.140625 
Q 15.875 39.890625 15.1875 32.171875 
z
" id="DejaVuSans-101"/>
      <path d="M 31 75.875 
Q 24.46875 64.65625 21.28125 53.65625 
Q 18.109375 42.671875 18.109375 31.390625 
Q 18.109375 20.125 21.3125 9.0625 
Q 24.515625 -2 31 -13.1875 
L 23.1875 -13.1875 
Q 15.875 -1.703125 12.234375 9.375 
Q 8.59375 20.453125 8.59375 31.390625 
Q 8.59375 42.28125 12.203125 53.3125 
Q 15.828125 64.359375 23.1875 75.875 
z
" id="DejaVuSans-40"/>
      <path d="M 44.28125 53.078125 
L 44.28125 44.578125 
Q 40.484375 46.53125 36.375 47.5 
Q 32.28125 48.484375 27.875 48.484375 
Q 21.1875 48.484375 17.84375 46.4375 
Q 14.5 44.390625 14.5 40.28125 
Q 14.5 37.15625 16.890625 35.375 
Q 19.28125 33.59375 26.515625 31.984375 
L 29.59375 31.296875 
Q 39.15625 29.25 43.1875 25.515625 
Q 47.21875 21.78125 47.21875 15.09375 
Q 47.21875 7.46875 41.1875 3.015625 
Q 35.15625 -1.421875 24.609375 -1.421875 
Q 20.21875 -1.421875 15.453125 -0.5625 
Q 10.6875 0.296875 5.421875 2 
L 5.421875 11.28125 
Q 10.40625 8.6875 15.234375 7.390625 
Q 20.0625 6.109375 24.8125 6.109375 
Q 31.15625 6.109375 34.5625 8.28125 
Q 37.984375 10.453125 37.984375 14.40625 
Q 37.984375 18.0625 35.515625 20.015625 
Q 33.0625 21.96875 24.703125 23.78125 
L 21.578125 24.515625 
Q 13.234375 26.265625 9.515625 29.90625 
Q 5.8125 33.546875 5.8125 39.890625 
Q 5.8125 47.609375 11.28125 51.796875 
Q 16.75 56 26.8125 56 
Q 31.78125 56 36.171875 55.265625 
Q 40.578125 54.546875 44.28125 53.078125 
z
" id="DejaVuSans-115"/>
      <path d="M 48.78125 52.59375 
L 48.78125 44.1875 
Q 44.96875 46.296875 41.140625 47.34375 
Q 37.3125 48.390625 33.40625 48.390625 
Q 24.65625 48.390625 19.8125 42.84375 
Q 14.984375 37.3125 14.984375 27.296875 
Q 14.984375 17.28125 19.8125 11.734375 
Q 24.65625 6.203125 33.40625 6.203125 
Q 37.3125 6.203125 41.140625 7.25 
Q 44.96875 8.296875 48.78125 10.40625 
L 48.78125 2.09375 
Q 45.015625 0.34375 40.984375 -0.53125 
Q 36.96875 -1.421875 32.421875 -1.421875 
Q 20.0625 -1.421875 12.78125 6.34375 
Q 5.515625 14.109375 5.515625 27.296875 
Q 5.515625 40.671875 12.859375 48.328125 
Q 20.21875 56 33.015625 56 
Q 37.15625 56 41.109375 55.140625 
Q 45.0625 54.296875 48.78125 52.59375 
z
" id="DejaVuSans-99"/>
      <path d="M 30.609375 48.390625 
Q 23.390625 48.390625 19.1875 42.75 
Q 14.984375 37.109375 14.984375 27.296875 
Q 14.984375 17.484375 19.15625 11.84375 
Q 23.34375 6.203125 30.609375 6.203125 
Q 37.796875 6.203125 41.984375 11.859375 
Q 46.1875 17.53125 46.1875 27.296875 
Q 46.1875 37.015625 41.984375 42.703125 
Q 37.796875 48.390625 30.609375 48.390625 
z
M 30.609375 56 
Q 42.328125 56 49.015625 48.375 
Q 55.71875 40.765625 55.71875 27.296875 
Q 55.71875 13.875 49.015625 6.21875 
Q 42.328125 -1.421875 30.609375 -1.421875 
Q 18.84375 -1.421875 12.171875 6.21875 
Q 5.515625 13.875 5.515625 27.296875 
Q 5.515625 40.765625 12.171875 48.375 
Q 18.84375 56 30.609375 56 
z
" id="DejaVuSans-111"/>
      <path d="M 54.890625 33.015625 
L 54.890625 0 
L 45.90625 0 
L 45.90625 32.71875 
Q 45.90625 40.484375 42.875 44.328125 
Q 39.84375 48.1875 33.796875 48.1875 
Q 26.515625 48.1875 22.3125 43.546875 
Q 18.109375 38.921875 18.109375 30.90625 
L 18.109375 0 
L 9.078125 0 
L 9.078125 54.6875 
L 18.109375 54.6875 
L 18.109375 46.1875 
Q 21.34375 51.125 25.703125 53.5625 
Q 30.078125 56 35.796875 56 
Q 45.21875 56 50.046875 50.171875 
Q 54.890625 44.34375 54.890625 33.015625 
z
" id="DejaVuSans-110"/>
      <path d="M 45.40625 46.390625 
L 45.40625 75.984375 
L 54.390625 75.984375 
L 54.390625 0 
L 45.40625 0 
L 45.40625 8.203125 
Q 42.578125 3.328125 38.25 0.953125 
Q 33.9375 -1.421875 27.875 -1.421875 
Q 17.96875 -1.421875 11.734375 6.484375 
Q 5.515625 14.40625 5.515625 27.296875 
Q 5.515625 40.1875 11.734375 48.09375 
Q 17.96875 56 27.875 56 
Q 33.9375 56 38.25 53.625 
Q 42.578125 51.265625 45.40625 46.390625 
z
M 14.796875 27.296875 
Q 14.796875 17.390625 18.875 11.75 
Q 22.953125 6.109375 30.078125 6.109375 
Q 37.203125 6.109375 41.296875 11.75 
Q 45.40625 17.390625 45.40625 27.296875 
Q 45.40625 37.203125 41.296875 42.84375 
Q 37.203125 48.484375 30.078125 48.484375 
Q 22.953125 48.484375 18.875 42.84375 
Q 14.796875 37.203125 14.796875 27.296875 
z
" id="DejaVuSans-100"/>
      <path d="M 8.015625 75.875 
L 15.828125 75.875 
Q 23.140625 64.359375 26.78125 53.3125 
Q 30.421875 42.28125 30.421875 31.390625 
Q 30.421875 20.453125 26.78125 9.375 
Q 23.140625 -1.703125 15.828125 -13.1875 
L 8.015625 -13.1875 
Q 14.5 -2 17.703125 9.0625 
Q 20.90625 20.125 20.90625 31.390625 
Q 20.90625 42.671875 17.703125 53.65625 
Q 14.5 64.65625 8.015625 75.875 
z
" id="DejaVuSans-41"/>
     </defs>
     <g transform="translate(197.76 335.860562)scale(0.1 -0.1)">
      <use transform="translate(0 0.015625)" xlink:href="#DejaVuSans-84"/>
      <use transform="translate(61.083984 0.015625)" xlink:href="#DejaVuSans-105"/>
      <use transform="translate(88.867188 0.015625)" xlink:href="#DejaVuSans-109"/>
      <use transform="translate(186.279297 0.015625)" xlink:href="#DejaVuSans-101"/>
      <use transform="translate(280.273113 0.015625)" xlink:href="#DejaVuSans-40"/>
      <use transform="translate(319.286785 0.015625)" xlink:href="#DejaVuSans-115"/>
      <use transform="translate(371.386394 0.015625)" xlink:href="#DejaVuSans-101"/>
      <use transform="translate(432.909832 0.015625)" xlink:href="#DejaVuSans-99"/>
      <use transform="translate(487.8903 0.015625)" xlink:href="#DejaVuSans-111"/>
      <use transform="translate(549.071941 0.015625)" xlink:href="#DejaVuSans-110"/>
      <use transform="translate(612.450847 0.015625)" xlink:href="#DejaVuSans-100"/>
      <use transform="translate(675.92741 0.015625)" xlink:href="#DejaVuSans-115"/>
      <use transform="translate(728.027019 0.015625)" xlink:href="#DejaVuSans-41"/>
     </g>
    </g>
   </g>
   <g id="matplotlib.axis_2">
    <g id="ytick_1">
     <g id="line2d_13">
      <path clip-path="url(#paec34d92c5)" d="M 57.6 146.125225 
L 414.72 146.125225 
" style="fill:none;stroke:#b0b0b0;stroke-linecap:square;stroke-width:0.8;"/>
     </g>
     <g id="line2d_14">
      <defs>
       <path d="M 0 0 
L -3.5 0 
" id="maae1cabc62" style="stroke:#000000;stroke-width:0.8;"/>
      </defs>
      <g>
       <use style="stroke:#000000;stroke-width:0.8;" x="57.6" xlink:href="#maae1cabc62" y="146.125225"/>
      </g>
     </g>
     <g id="text_8">
      <!-- $\mathdefault{10^{-1}}$ -->
      <defs>
       <path d="M 10.59375 35.5 
L 73.1875 35.5 
L 73.1875 27.203125 
L 10.59375 27.203125 
z
" id="DejaVuSans-8722"/>
      </defs>
      <g transform="translate(27.1 149.924444)scale(0.1 -0.1)">
       <use transform="translate(0 0.684375)" xlink:href="#DejaVuSans-49"/>
       <use transform="translate(63.623047 0.684375)" xlink:href="#DejaVuSans-48"/>
       <use transform="translate(128.203125 38.965625)scale(0.7)" xlink:href="#DejaVuSans-8722"/>
       <use transform="translate(186.855469 38.965625)scale(0.7)" xlink:href="#DejaVuSans-49"/>
      </g>
     </g>
    </g>
    <g id="ytick_2">
     <g id="line2d_15">
      <defs>
       <path d="M 0 0 
L -2 0 
" id="mfd7ceeb853" style="stroke:#000000;stroke-width:0.6;"/>
      </defs>
      <g>
       <use style="stroke:#000000;stroke-width:0.6;" x="57.6" xlink:href="#mfd7ceeb853" y="268.348477"/>
      </g>
     </g>
    </g>
    <g id="ytick_3">
     <g id="line2d_16">
      <g>
       <use style="stroke:#000000;stroke-width:0.6;" x="57.6" xlink:href="#mfd7ceeb853" y="237.556818"/>
      </g>
     </g>
    </g>
    <g id="ytick_4">
     <g id="line2d_17">
      <g>
       <use style="stroke:#000000;stroke-width:0.6;" x="57.6" xlink:href="#mfd7ceeb853" y="215.709788"/>
      </g>
     </g>
    </g>
    <g id="ytick_5">
     <g id="line2d_18">
      <g>
       <use style="stroke:#000000;stroke-width:0.6;" x="57.6" xlink:href="#mfd7ceeb853" y="198.763914"/>
      </g>
     </g>
    </g>
    <g id="ytick_6">
     <g id="line2d_19">
      <g>
       <use style="stroke:#000000;stroke-width:0.6;" x="57.6" xlink:href="#mfd7ceeb853" y="184.918128"/>
      </g>
     </g>
    </g>
    <g id="ytick_7">
     <g id="line2d_20">
      <g>
       <use style="stroke:#000000;stroke-width:0.6;" x="57.6" xlink:href="#mfd7ceeb853" y="173.211682"/>
      </g>
     </g>
    </g>
    <g id="ytick_8">
     <g id="line2d_21">
      <g>
       <use style="stroke:#000000;stroke-width:0.6;" x="57.6" xlink:href="#mfd7ceeb853" y="163.071098"/>
      </g>
     </g>
    </g>
    <g id="ytick_9">
     <g id="line2d_22">
      <g>
       <use style="stroke:#000000;stroke-width:0.6;" x="57.6" xlink:href="#mfd7ceeb853" y="154.126468"/>
      </g>
     </g>
    </g>
    <g id="ytick_10">
     <g id="line2d_23">
      <g>
       <use style="stroke:#000000;stroke-width:0.6;" x="57.6" xlink:href="#mfd7ceeb853" y="93.486535"/>
      </g>
     </g>
    </g>
    <g id="ytick_11">
     <g id="line2d_24">
      <g>
       <use style="stroke:#000000;stroke-width:0.6;" x="57.6" xlink:href="#mfd7ceeb853" y="62.694876"/>
      </g>
     </g>
    </g>
    <g id="text_9">
     <!-- $\mathrm{Relative \ error}$ ($N_{\mathrm{train}}=20$) -->
     <defs>
      <path d="M 44.390625 34.1875 
Q 47.5625 33.109375 50.5625 29.59375 
Q 53.5625 26.078125 56.59375 19.921875 
L 66.609375 0 
L 56 0 
L 46.6875 18.703125 
Q 43.0625 26.03125 39.671875 28.421875 
Q 36.28125 30.8125 30.421875 30.8125 
L 19.671875 30.8125 
L 19.671875 0 
L 9.8125 0 
L 9.8125 72.90625 
L 32.078125 72.90625 
Q 44.578125 72.90625 50.734375 67.671875 
Q 56.890625 62.453125 56.890625 51.90625 
Q 56.890625 45.015625 53.6875 40.46875 
Q 50.484375 35.9375 44.390625 34.1875 
z
M 19.671875 64.796875 
L 19.671875 38.921875 
L 32.078125 38.921875 
Q 39.203125 38.921875 42.84375 42.21875 
Q 46.484375 45.515625 46.484375 51.90625 
Q 46.484375 58.296875 42.84375 61.546875 
Q 39.203125 64.796875 32.078125 64.796875 
z
" id="DejaVuSans-82"/>
      <path d="M 9.421875 75.984375 
L 18.40625 75.984375 
L 18.40625 0 
L 9.421875 0 
z
" id="DejaVuSans-108"/>
      <path d="M 34.28125 27.484375 
Q 23.390625 27.484375 19.1875 25 
Q 14.984375 22.515625 14.984375 16.5 
Q 14.984375 11.71875 18.140625 8.90625 
Q 21.296875 6.109375 26.703125 6.109375 
Q 34.1875 6.109375 38.703125 11.40625 
Q 43.21875 16.703125 43.21875 25.484375 
L 43.21875 27.484375 
z
M 52.203125 31.203125 
L 52.203125 0 
L 43.21875 0 
L 43.21875 8.296875 
Q 40.140625 3.328125 35.546875 0.953125 
Q 30.953125 -1.421875 24.3125 -1.421875 
Q 15.921875 -1.421875 10.953125 3.296875 
Q 6 8.015625 6 15.921875 
Q 6 25.140625 12.171875 29.828125 
Q 18.359375 34.515625 30.609375 34.515625 
L 43.21875 34.515625 
L 43.21875 35.40625 
Q 43.21875 41.609375 39.140625 45 
Q 35.0625 48.390625 27.6875 48.390625 
Q 23 48.390625 18.546875 47.265625 
Q 14.109375 46.140625 10.015625 43.890625 
L 10.015625 52.203125 
Q 14.9375 54.109375 19.578125 55.046875 
Q 24.21875 56 28.609375 56 
Q 40.484375 56 46.34375 49.84375 
Q 52.203125 43.703125 52.203125 31.203125 
z
" id="DejaVuSans-97"/>
      <path d="M 18.3125 70.21875 
L 18.3125 54.6875 
L 36.8125 54.6875 
L 36.8125 47.703125 
L 18.3125 47.703125 
L 18.3125 18.015625 
Q 18.3125 11.328125 20.140625 9.421875 
Q 21.96875 7.515625 27.59375 7.515625 
L 36.8125 7.515625 
L 36.8125 0 
L 27.59375 0 
Q 17.1875 0 13.234375 3.875 
Q 9.28125 7.765625 9.28125 18.015625 
L 9.28125 47.703125 
L 2.6875 47.703125 
L 2.6875 54.6875 
L 9.28125 54.6875 
L 9.28125 70.21875 
z
" id="DejaVuSans-116"/>
      <path d="M 2.984375 54.6875 
L 12.5 54.6875 
L 29.59375 8.796875 
L 46.6875 54.6875 
L 56.203125 54.6875 
L 35.6875 0 
L 23.484375 0 
z
" id="DejaVuSans-118"/>
      <path d="M 41.109375 46.296875 
Q 39.59375 47.171875 37.8125 47.578125 
Q 36.03125 48 33.890625 48 
Q 26.265625 48 22.1875 43.046875 
Q 18.109375 38.09375 18.109375 28.8125 
L 18.109375 0 
L 9.078125 0 
L 9.078125 54.6875 
L 18.109375 54.6875 
L 18.109375 46.1875 
Q 20.953125 51.171875 25.484375 53.578125 
Q 30.03125 56 36.53125 56 
Q 37.453125 56 38.578125 55.875 
Q 39.703125 55.765625 41.0625 55.515625 
z
" id="DejaVuSans-114"/>
      <path id="DejaVuSans-32"/>
      <path d="M 16.890625 72.90625 
L 30.171875 72.90625 
L 50.296875 10.40625 
L 62.5 72.90625 
L 72.125 72.90625 
L 57.90625 0 
L 44.578125 0 
L 24.515625 62.890625 
L 12.3125 0 
L 2.6875 0 
z
" id="DejaVuSans-Oblique-78"/>
      <path d="M 10.59375 45.40625 
L 73.1875 45.40625 
L 73.1875 37.203125 
L 10.59375 37.203125 
z
M 10.59375 25.484375 
L 73.1875 25.484375 
L 73.1875 17.1875 
L 10.59375 17.1875 
z
" id="DejaVuSans-61"/>
     </defs>
     <g transform="translate(21.020312 238.878)rotate(-90)scale(0.1 -0.1)">
      <use transform="translate(0 0.015625)" xlink:href="#DejaVuSans-82"/>
      <use transform="translate(69.482422 0.015625)" xlink:href="#DejaVuSans-101"/>
      <use transform="translate(131.005859 0.015625)" xlink:href="#DejaVuSans-108"/>
      <use transform="translate(158.789062 0.015625)" xlink:href="#DejaVuSans-97"/>
      <use transform="translate(220.068359 0.015625)" xlink:href="#DejaVuSans-116"/>
      <use transform="translate(259.277344 0.015625)" xlink:href="#DejaVuSans-105"/>
      <use transform="translate(287.060547 0.015625)" xlink:href="#DejaVuSans-118"/>
      <use transform="translate(346.240234 0.015625)" xlink:href="#DejaVuSans-101"/>
      <use transform="translate(440.23405 0.015625)" xlink:href="#DejaVuSans-101"/>
      <use transform="translate(501.757488 0.015625)" xlink:href="#DejaVuSans-114"/>
      <use transform="translate(542.870769 0.015625)" xlink:href="#DejaVuSans-114"/>
      <use transform="translate(583.98405 0.015625)" xlink:href="#DejaVuSans-111"/>
      <use transform="translate(645.165691 0.015625)" xlink:href="#DejaVuSans-114"/>
      <use transform="translate(686.278972 0.015625)" xlink:href="#DejaVuSans-32"/>
      <use transform="translate(718.066082 0.015625)" xlink:href="#DejaVuSans-40"/>
      <use transform="translate(757.079753 0.015625)" xlink:href="#DejaVuSans-Oblique-78"/>
      <use transform="translate(831.884441 -16.390625)scale(0.7)" xlink:href="#DejaVuSans-116"/>
      <use transform="translate(859.33073 -16.390625)scale(0.7)" xlink:href="#DejaVuSans-114"/>
      <use transform="translate(888.110027 -16.390625)scale(0.7)" xlink:href="#DejaVuSans-97"/>
      <use transform="translate(931.005535 -16.390625)scale(0.7)" xlink:href="#DejaVuSans-105"/>
      <use transform="translate(950.453777 -16.390625)scale(0.7)" xlink:href="#DejaVuSans-110"/>
      <use transform="translate(1017.035808 0.015625)" xlink:href="#DejaVuSans-61"/>
      <use transform="translate(1120.307292 0.015625)" xlink:href="#DejaVuSans-50"/>
      <use transform="translate(1183.930339 0.015625)" xlink:href="#DejaVuSans-48"/>
      <use transform="translate(1247.553386 0.015625)" xlink:href="#DejaVuSans-41"/>
     </g>
    </g>
   </g>
   <g id="line2d_25">
    <path clip-path="url(#paec34d92c5)" d="M 73.832724 264.615786 
L 77.145522 234.32893 
L 80.458321 211.707747 
L 83.771119 193.631965 
L 87.083917 178.728857 
L 90.396716 166.248688 
L 93.709554 155.705187 
L 97.022352 146.740012 
L 100.33515 139.068969 
L 103.647949 132.462261 
L 106.960747 126.732692 
L 110.273545 121.727749 
L 113.586344 117.32458 
L 116.899142 113.424284 
L 120.21194 109.946249 
L 123.524738 106.825789 
L 126.837537 104.010171 
L 130.150375 101.456864 
L 133.463173 99.131461 
L 136.775971 97.006211 
L 140.08877 95.058814 
L 143.401568 93.271091 
L 146.714366 91.628244 
L 150.027165 90.118134 
L 153.339963 88.731097 
L 156.652761 87.459041 
L 159.96556 86.295213 
L 163.278358 85.234133 
L 166.591156 84.2714 
L 169.903955 83.403842 
L 173.216753 82.629093 
L 176.529551 81.945351 
L 179.842389 81.35145 
L 183.155187 80.846788 
L 186.467986 80.431364 
L 189.780784 80.105658 
L 193.093582 79.87067 
L 196.406381 79.727841 
L 199.719179 79.679042 
L 203.031977 79.726528 
L 206.344776 79.872694 
L 209.657574 80.119625 
L 212.970412 80.468197 
L 216.28321 80.916517 
L 219.596008 81.457406 
L 226.221605 82.742782 
L 232.847202 84.071038 
L 236.16 84.647574 
L 239.472798 85.119276 
L 242.785597 85.463743 
L 246.098395 85.669008 
L 249.411193 85.732689 
L 252.723992 85.659938 
L 256.03679 85.461157 
L 259.349588 85.149688 
L 262.662387 84.739998 
L 265.975185 84.246427 
L 269.288023 83.682524 
L 275.913619 82.391894 
L 282.539216 80.951222 
L 292.477651 78.64158 
L 312.35444 73.948785 
L 322.292835 71.711481 
L 332.23123 69.602694 
L 338.856827 68.281508 
L 345.482424 67.0358 
L 352.10806 65.871624 
L 358.733656 64.794422 
L 365.359253 63.809325 
L 371.984889 62.921193 
L 378.610486 62.135018 
L 385.236083 61.45582 
L 391.861679 60.888836 
L 398.487276 60.439788 
" style="fill:none;stroke:#ff0000;stroke-linecap:square;stroke-width:1.5;"/>
   </g>
   <g id="line2d_26">
    <path clip-path="url(#paec34d92c5)" d="M 73.832724 267.280241 
L 77.145522 236.989083 
L 80.458321 214.374825 
L 83.771119 196.314138 
L 87.083917 181.431813 
L 90.396716 168.978783 
L 93.709554 158.468606 
L 97.022352 149.541915 
L 100.33515 141.912481 
L 103.647949 135.348816 
L 106.960747 129.663172 
L 110.273545 124.702543 
L 113.586344 120.343419 
L 116.899142 116.486394 
L 120.21194 113.050823 
L 123.524738 109.97241 
L 126.837537 107.198836 
L 130.150375 104.687286 
L 133.463173 102.402963 
L 136.775971 100.318384 
L 140.08877 98.411324 
L 143.401568 96.663291 
L 146.714366 95.059276 
L 150.027165 93.587082 
L 153.339963 92.236962 
L 156.652761 91.00068 
L 159.96556 89.871412 
L 163.278358 88.843579 
L 166.591156 87.912819 
L 169.903955 87.076032 
L 173.216753 86.33107 
L 176.529551 85.676425 
L 179.842389 85.111168 
L 183.155187 84.634938 
L 186.467986 84.24793 
L 189.780784 83.950884 
L 193.093582 83.745019 
L 196.406381 83.632097 
L 199.719179 83.614194 
L 203.031977 83.693739 
L 206.344776 83.873193 
L 209.657574 84.154581 
L 212.970412 84.538261 
L 216.28321 85.021181 
L 219.596008 85.594007 
L 226.221605 86.921301 
L 232.847202 88.242634 
L 236.16 88.797096 
L 239.472798 89.237134 
L 242.785597 89.542724 
L 246.098395 89.70415 
L 249.411193 89.720996 
L 252.723992 89.600094 
L 256.03679 89.353075 
L 259.349588 88.994122 
L 262.662387 88.538155 
L 265.975185 87.999726 
L 269.288023 87.392486 
L 275.913619 86.019682 
L 282.539216 84.502698 
L 292.477651 82.088954 
L 312.35444 77.220124 
L 322.292835 74.907669 
L 332.23123 72.73097 
L 338.856827 71.368245 
L 345.482424 70.08368 
L 352.10806 68.883167 
L 358.733656 67.771952 
L 365.359253 66.754826 
L 371.984889 65.836351 
L 378.610486 65.02103 
L 385.236083 64.313357 
L 391.861679 63.71804 
L 398.487276 63.240502 
" style="fill:none;stroke:#0000ff;stroke-linecap:square;stroke-width:1.5;"/>
   </g>
   <g id="line2d_27">
    <path clip-path="url(#paec34d92c5)" d="M 73.832724 278.762678 
L 77.145522 248.36725 
L 80.458321 225.683101 
L 83.771119 207.590976 
L 87.083917 192.712529 
L 90.396716 180.294579 
L 93.709554 169.847152 
L 97.022352 161.004945 
L 100.33515 153.477105 
L 103.647949 147.027677 
L 106.960747 141.465415 
L 110.273545 136.635754 
L 113.586344 132.413712 
L 116.899142 128.69779 
L 120.21194 125.405882 
L 123.524738 122.471421 
L 126.837537 119.840596 
L 130.150375 117.469875 
L 133.463173 115.323318 
L 136.775971 113.372068 
L 140.08877 111.593159 
L 143.401568 109.968052 
L 146.714366 108.482126 
L 150.027165 107.12433 
L 153.339963 105.885673 
L 156.652761 104.758242 
L 159.96556 103.735219 
L 163.278358 102.81122 
L 166.591156 101.982454 
L 169.903955 101.246434 
L 173.216753 100.601504 
L 176.529551 100.046586 
L 179.842389 99.581115 
L 183.155187 99.205297 
L 186.467986 98.920111 
L 189.780784 98.72715 
L 193.093582 98.628489 
L 196.406381 98.626613 
L 199.719179 98.724459 
L 203.031977 98.92501 
L 206.344776 99.230497 
L 209.657574 99.640853 
L 212.970412 100.151166 
L 216.28321 100.747545 
L 226.221605 102.732503 
L 229.534403 103.317837 
L 232.847202 103.802491 
L 236.16 104.161758 
L 239.472798 104.379442 
L 242.785597 104.447563 
L 246.098395 104.366101 
L 249.411193 104.141846 
L 252.723992 103.786419 
L 256.03679 103.314128 
L 259.349588 102.7403 
L 262.662387 102.080219 
L 265.975185 101.348218 
L 272.600821 99.719585 
L 279.226418 97.943037 
L 289.164852 95.143197 
L 305.728844 90.458618 
L 315.667239 87.769304 
L 325.605634 85.226652 
L 332.23123 83.627157 
L 338.856827 82.111942 
L 345.482424 80.686617 
L 352.10806 79.355736 
L 358.733656 78.123201 
L 365.359253 76.99256 
L 371.984889 75.967354 
L 378.610486 75.05112 
L 385.236083 74.247228 
L 391.861679 73.559614 
L 398.487276 72.992975 
" style="fill:none;stroke:#00ffff;stroke-linecap:square;stroke-width:1.5;"/>
   </g>
   <g id="patch_3">
    <path d="M 57.6 307.584 
L 57.6 41.472 
" style="fill:none;stroke:#000000;stroke-linecap:square;stroke-linejoin:miter;stroke-width:0.8;"/>
   </g>
   <g id="patch_4">
    <path d="M 414.72 307.584 
L 414.72 41.472 
" style="fill:none;stroke:#000000;stroke-linecap:square;stroke-linejoin:miter;stroke-width:0.8;"/>
   </g>
   <g id="patch_5">
    <path d="M 57.6 307.584 
L 414.72 307.584 
" style="fill:none;stroke:#000000;stroke-linecap:square;stroke-linejoin:miter;stroke-width:0.8;"/>
   </g>
   <g id="patch_6">
    <path d="M 57.6 41.472 
L 414.72 41.472 
" style="fill:none;stroke:#000000;stroke-linecap:square;stroke-linejoin:miter;stroke-width:0.8;"/>
   </g>
   <g id="legend_1">
    <g id="patch_7">
     <path d="M 282.559063 302.584 
L 407.72 302.584 
Q 409.72 302.584 409.72 300.584 
L 409.72 257.549625 
Q 409.72 255.549625 407.72 255.549625 
L 282.559063 255.549625 
Q 280.559063 255.549625 280.559063 257.549625 
L 280.559063 300.584 
Q 280.559063 302.584 282.559063 302.584 
z
" style="fill:#ffffff;opacity:0.8;stroke:#cccccc;stroke-linejoin:miter;"/>
    </g>
    <g id="line2d_28">
     <path d="M 284.559063 263.648062 
L 304.559063 263.648062 
" style="fill:none;stroke:#ff0000;stroke-linecap:square;stroke-width:1.5;"/>
    </g>
    <g id="line2d_29"/>
    <g id="text_10">
     <!-- No denoising -->
     <defs>
      <path d="M 9.8125 72.90625 
L 23.09375 72.90625 
L 55.421875 11.921875 
L 55.421875 72.90625 
L 64.984375 72.90625 
L 64.984375 0 
L 51.703125 0 
L 19.390625 60.984375 
L 19.390625 0 
L 9.8125 0 
z
" id="DejaVuSans-78"/>
      <path d="M 45.40625 27.984375 
Q 45.40625 37.75 41.375 43.109375 
Q 37.359375 48.484375 30.078125 48.484375 
Q 22.859375 48.484375 18.828125 43.109375 
Q 14.796875 37.75 14.796875 27.984375 
Q 14.796875 18.265625 18.828125 12.890625 
Q 22.859375 7.515625 30.078125 7.515625 
Q 37.359375 7.515625 41.375 12.890625 
Q 45.40625 18.265625 45.40625 27.984375 
z
M 54.390625 6.78125 
Q 54.390625 -7.171875 48.1875 -13.984375 
Q 42 -20.796875 29.203125 -20.796875 
Q 24.46875 -20.796875 20.265625 -20.09375 
Q 16.0625 -19.390625 12.109375 -17.921875 
L 12.109375 -9.1875 
Q 16.0625 -11.328125 19.921875 -12.34375 
Q 23.78125 -13.375 27.78125 -13.375 
Q 36.625 -13.375 41.015625 -8.765625 
Q 45.40625 -4.15625 45.40625 5.171875 
L 45.40625 9.625 
Q 42.625 4.78125 38.28125 2.390625 
Q 33.9375 0 27.875 0 
Q 17.828125 0 11.671875 7.65625 
Q 5.515625 15.328125 5.515625 27.984375 
Q 5.515625 40.671875 11.671875 48.328125 
Q 17.828125 56 27.875 56 
Q 33.9375 56 38.28125 53.609375 
Q 42.625 51.21875 45.40625 46.390625 
L 45.40625 54.6875 
L 54.390625 54.6875 
z
" id="DejaVuSans-103"/>
     </defs>
     <g transform="translate(312.559063 267.148062)scale(0.1 -0.1)">
      <use xlink:href="#DejaVuSans-78"/>
      <use x="74.804688" xlink:href="#DejaVuSans-111"/>
      <use x="135.986328" xlink:href="#DejaVuSans-32"/>
      <use x="167.773438" xlink:href="#DejaVuSans-100"/>
      <use x="231.25" xlink:href="#DejaVuSans-101"/>
      <use x="292.773438" xlink:href="#DejaVuSans-110"/>
      <use x="356.152344" xlink:href="#DejaVuSans-111"/>
      <use x="417.333984" xlink:href="#DejaVuSans-105"/>
      <use x="445.117188" xlink:href="#DejaVuSans-115"/>
      <use x="497.216797" xlink:href="#DejaVuSans-105"/>
      <use x="525" xlink:href="#DejaVuSans-110"/>
      <use x="588.378906" xlink:href="#DejaVuSans-103"/>
     </g>
    </g>
    <g id="line2d_30">
     <path d="M 284.559063 278.326188 
L 304.559063 278.326188 
" style="fill:none;stroke:#0000ff;stroke-linecap:square;stroke-width:1.5;"/>
    </g>
    <g id="line2d_31"/>
    <g id="text_11">
     <!-- With denoising -->
     <defs>
      <path d="M 3.328125 72.90625 
L 13.28125 72.90625 
L 28.609375 11.28125 
L 43.890625 72.90625 
L 54.984375 72.90625 
L 70.3125 11.28125 
L 85.59375 72.90625 
L 95.609375 72.90625 
L 77.296875 0 
L 64.890625 0 
L 49.515625 63.28125 
L 33.984375 0 
L 21.578125 0 
z
" id="DejaVuSans-87"/>
      <path d="M 54.890625 33.015625 
L 54.890625 0 
L 45.90625 0 
L 45.90625 32.71875 
Q 45.90625 40.484375 42.875 44.328125 
Q 39.84375 48.1875 33.796875 48.1875 
Q 26.515625 48.1875 22.3125 43.546875 
Q 18.109375 38.921875 18.109375 30.90625 
L 18.109375 0 
L 9.078125 0 
L 9.078125 75.984375 
L 18.109375 75.984375 
L 18.109375 46.1875 
Q 21.34375 51.125 25.703125 53.5625 
Q 30.078125 56 35.796875 56 
Q 45.21875 56 50.046875 50.171875 
Q 54.890625 44.34375 54.890625 33.015625 
z
" id="DejaVuSans-104"/>
     </defs>
     <g transform="translate(312.559063 281.826188)scale(0.1 -0.1)">
      <use xlink:href="#DejaVuSans-87"/>
      <use x="98.845703" xlink:href="#DejaVuSans-105"/>
      <use x="126.628906" xlink:href="#DejaVuSans-116"/>
      <use x="165.837891" xlink:href="#DejaVuSans-104"/>
      <use x="229.216797" xlink:href="#DejaVuSans-32"/>
      <use x="261.003906" xlink:href="#DejaVuSans-100"/>
      <use x="324.480469" xlink:href="#DejaVuSans-101"/>
      <use x="386.003906" xlink:href="#DejaVuSans-110"/>
      <use x="449.382812" xlink:href="#DejaVuSans-111"/>
      <use x="510.564453" xlink:href="#DejaVuSans-105"/>
      <use x="538.347656" xlink:href="#DejaVuSans-115"/>
      <use x="590.447266" xlink:href="#DejaVuSans-105"/>
      <use x="618.230469" xlink:href="#DejaVuSans-110"/>
      <use x="681.609375" xlink:href="#DejaVuSans-103"/>
     </g>
    </g>
    <g id="line2d_32">
     <path d="M 284.559063 293.004312 
L 304.559063 293.004312 
" style="fill:none;stroke:#00ffff;stroke-linecap:square;stroke-width:1.5;"/>
    </g>
    <g id="line2d_33"/>
    <g id="text_12">
     <!-- With big denoising -->
     <defs>
      <path d="M 48.6875 27.296875 
Q 48.6875 37.203125 44.609375 42.84375 
Q 40.53125 48.484375 33.40625 48.484375 
Q 26.265625 48.484375 22.1875 42.84375 
Q 18.109375 37.203125 18.109375 27.296875 
Q 18.109375 17.390625 22.1875 11.75 
Q 26.265625 6.109375 33.40625 6.109375 
Q 40.53125 6.109375 44.609375 11.75 
Q 48.6875 17.390625 48.6875 27.296875 
z
M 18.109375 46.390625 
Q 20.953125 51.265625 25.265625 53.625 
Q 29.59375 56 35.59375 56 
Q 45.5625 56 51.78125 48.09375 
Q 58.015625 40.1875 58.015625 27.296875 
Q 58.015625 14.40625 51.78125 6.484375 
Q 45.5625 -1.421875 35.59375 -1.421875 
Q 29.59375 -1.421875 25.265625 0.953125 
Q 20.953125 3.328125 18.109375 8.203125 
L 18.109375 0 
L 9.078125 0 
L 9.078125 75.984375 
L 18.109375 75.984375 
z
" id="DejaVuSans-98"/>
     </defs>
     <g transform="translate(312.559063 296.504312)scale(0.1 -0.1)">
      <use xlink:href="#DejaVuSans-87"/>
      <use x="98.845703" xlink:href="#DejaVuSans-105"/>
      <use x="126.628906" xlink:href="#DejaVuSans-116"/>
      <use x="165.837891" xlink:href="#DejaVuSans-104"/>
      <use x="229.216797" xlink:href="#DejaVuSans-32"/>
      <use x="261.003906" xlink:href="#DejaVuSans-98"/>
      <use x="324.480469" xlink:href="#DejaVuSans-105"/>
      <use x="352.263672" xlink:href="#DejaVuSans-103"/>
      <use x="415.740234" xlink:href="#DejaVuSans-32"/>
      <use x="447.527344" xlink:href="#DejaVuSans-100"/>
      <use x="511.003906" xlink:href="#DejaVuSans-101"/>
      <use x="572.527344" xlink:href="#DejaVuSans-110"/>
      <use x="635.90625" xlink:href="#DejaVuSans-111"/>
      <use x="697.087891" xlink:href="#DejaVuSans-105"/>
      <use x="724.871094" xlink:href="#DejaVuSans-115"/>
      <use x="776.970703" xlink:href="#DejaVuSans-105"/>
      <use x="804.753906" xlink:href="#DejaVuSans-110"/>
      <use x="868.132812" xlink:href="#DejaVuSans-103"/>
     </g>
    </g>
   </g>
  </g>
 </g>
 <defs>
  <clipPath id="paec34d92c5">
   <rect height="266.112" width="357.12" x="57.6" y="41.472"/>
  </clipPath>
 </defs>
</svg>
