<?xml version="1.0" encoding="utf-8" standalone="no"?>
<!DOCTYPE svg PUBLIC "-//W3C//DTD SVG 1.1//EN"
  "http://www.w3.org/Graphics/SVG/1.1/DTD/svg11.dtd">
<!-- Created with matplotlib (https://matplotlib.org/) -->
<svg height="345.6pt" version="1.1" viewBox="0 0 460.8 345.6" width="460.8pt" xmlns="http://www.w3.org/2000/svg" xmlns:xlink="http://www.w3.org/1999/xlink">
 <defs>
  <style type="text/css">
*{stroke-linecap:butt;stroke-linejoin:round;white-space:pre;}
  </style>
 </defs>
 <g id="figure_1">
  <g id="patch_1">
   <path d="M 0 345.6 
L 460.8 345.6 
L 460.8 0 
L 0 0 
z
" style="fill:#ffffff;"/>
  </g>
  <g id="axes_1">
   <g id="patch_2">
    <path d="M 57.6 307.584 
L 414.72 307.584 
L 414.72 41.472 
L 57.6 41.472 
z
" style="fill:#ffffff;"/>
   </g>
   <g id="PolyCollection_1">
    <path clip-path="url(#p7fd1746321)" d="M 73.832727 262.847616 
L 73.832727 291.60119 
L 77.145529 260.473816 
L 80.45833 237.137722 
L 83.771132 218.43742 
L 87.083933 202.984608 
L 90.396735 190.028531 
L 93.709536 179.084394 
L 97.022338 169.792174 
L 100.335139 161.864262 
L 103.647941 155.064711 
L 106.960742 149.19982 
L 110.273544 144.112987 
L 113.586345 139.677583 
L 116.899147 135.791079 
L 120.211948 132.369787 
L 123.52475 129.345364 
L 126.837551 126.662776 
L 130.150353 124.277477 
L 133.463154 122.153638 
L 136.775955 120.262035 
L 140.088757 118.578474 
L 143.401558 117.082634 
L 146.71436 115.757364 
L 150.027161 114.587977 
L 153.339963 113.561745 
L 156.652764 112.667694 
L 159.965566 111.896346 
L 163.278367 111.239647 
L 166.591169 110.690965 
L 169.90397 110.244935 
L 173.216772 109.897055 
L 176.529573 109.643717 
L 179.842375 109.481955 
L 183.155176 109.40915 
L 186.467978 109.422558 
L 189.780779 109.518817 
L 193.093581 109.693212 
L 196.406382 109.938859 
L 199.719184 110.245969 
L 203.031985 110.601194 
L 206.344787 110.98699 
L 209.657588 111.381319 
L 212.97039 111.758203 
L 216.283191 112.089447 
L 219.595993 112.347289 
L 222.908794 112.507382 
L 226.221596 112.551242 
L 229.534397 112.467457 
L 232.847199 112.251588 
L 236.16 111.905117 
L 239.472801 111.434074 
L 242.785603 110.847684 
L 246.098404 110.157223 
L 249.411206 109.375071 
L 252.724007 108.51398 
L 256.036809 107.586486 
L 259.34961 106.604552 
L 262.662412 105.579334 
L 265.975213 104.52109 
L 269.288015 103.43914 
L 272.600816 102.341851 
L 275.913618 101.236656 
L 279.226419 100.130096 
L 282.539221 99.027891 
L 285.852022 97.935007 
L 289.164824 96.855713 
L 292.477625 95.793631 
L 295.790427 94.751773 
L 299.103228 93.732601 
L 302.41603 92.738082 
L 305.728831 91.76975 
L 309.041633 90.828791 
L 312.354434 89.916089 
L 315.667236 89.032289 
L 318.980037 88.177841 
L 322.292839 87.353053 
L 325.60564 86.558125 
L 328.918442 85.793186 
L 332.231243 85.058327 
L 335.544045 84.353608 
L 338.856846 83.67911 
L 342.169647 83.034943 
L 345.482449 82.421228 
L 348.79525 81.838053 
L 352.108052 81.285454 
L 355.420853 80.763373 
L 358.733655 80.271728 
L 362.046456 79.810454 
L 365.359258 79.379495 
L 368.672059 78.978801 
L 371.984861 78.608308 
L 375.297662 78.267862 
L 378.610464 77.95717 
L 381.923265 77.675842 
L 385.236067 77.423428 
L 388.548868 77.199399 
L 391.86167 77.003134 
L 395.174471 76.833911 
L 398.487273 76.69088 
L 398.487273 53.568 
L 398.487273 53.568 
L 395.174471 53.643651 
L 391.86167 53.744426 
L 388.548868 53.869807 
L 385.236067 54.01928 
L 381.923265 54.192347 
L 378.610464 54.388528 
L 375.297662 54.607362 
L 371.984861 54.848399 
L 368.672059 55.111208 
L 365.359258 55.395382 
L 362.046456 55.700543 
L 358.733655 56.026305 
L 355.420853 56.37225 
L 352.108052 56.737931 
L 348.79525 57.122874 
L 345.482449 57.526558 
L 342.169647 57.948391 
L 338.856846 58.387694 
L 335.544045 58.843694 
L 332.231243 59.315527 
L 328.918442 59.802252 
L 325.60564 60.302858 
L 322.292839 60.816264 
L 318.980037 61.341312 
L 315.667236 61.876737 
L 312.354434 62.421143 
L 309.041633 62.972962 
L 305.728831 63.530427 
L 302.41603 64.091521 
L 299.103228 64.653923 
L 295.790427 65.214952 
L 292.477625 65.771491 
L 289.164824 66.319917 
L 285.852022 66.85604 
L 282.539221 67.375029 
L 279.226419 67.871353 
L 275.913618 68.338716 
L 272.600816 68.770028 
L 269.288015 69.157424 
L 265.975213 69.492429 
L 262.662412 69.766305 
L 259.34961 69.970623 
L 256.036809 70.098062 
L 252.724007 70.143512 
L 249.411206 70.105399 
L 246.098404 69.986981 
L 242.785603 69.79723 
L 239.472801 69.550756 
L 236.16 69.266549 
L 232.847199 68.965716 
L 229.534397 68.668946 
L 226.221596 68.394481 
L 222.908794 68.157052 
L 219.595993 67.967746 
L 216.283191 67.834432 
L 212.97039 67.762434 
L 209.657588 67.755197 
L 206.344787 67.814875 
L 203.031985 67.942794 
L 199.719184 68.13989 
L 196.406382 68.407006 
L 193.093581 68.745028 
L 189.780779 69.155032 
L 186.467978 69.63838 
L 183.155176 70.196753 
L 179.842375 70.832149 
L 176.529573 71.546941 
L 173.216772 72.343907 
L 169.90397 73.226264 
L 166.591169 74.197707 
L 163.278367 75.262577 
L 159.965566 76.426025 
L 156.652764 77.694087 
L 153.339963 79.073844 
L 150.027161 80.573662 
L 146.71436 82.203476 
L 143.401558 83.975031 
L 140.088757 85.902502 
L 136.775955 88.002929 
L 133.463154 90.296597 
L 130.150353 92.807772 
L 126.837551 95.565598 
L 123.52475 98.605811 
L 120.211948 101.972305 
L 116.899147 105.718955 
L 113.586345 109.912002 
L 110.273544 114.633011 
L 106.960742 119.982962 
L 103.647941 126.086658 
L 100.335139 133.097478 
L 97.022338 141.202895 
L 93.709536 150.631102 
L 90.396735 161.661996 
L 87.083933 174.652505 
L 83.771132 190.0871 
L 80.45833 208.715154 
L 77.145529 231.918547 
L 73.832727 262.847616 
z
" style="fill:#ff0000;fill-opacity:0.4;"/>
   </g>
   <g id="PolyCollection_2">
    <path clip-path="url(#p7fd1746321)" d="M 73.832727 265.367575 
L 73.832727 295.488 
L 77.145529 264.288183 
L 80.45833 240.890979 
L 83.771132 222.143414 
L 87.083933 206.65699 
L 90.396735 193.677616 
L 93.709536 182.719172 
L 97.022338 173.420725 
L 100.335139 165.492605 
L 103.647941 158.697132 
L 106.960742 152.839644 
L 110.273544 147.762699 
L 113.586345 143.339027 
L 116.899147 139.465662 
L 120.211948 136.05871 
L 123.52475 133.049815 
L 126.837551 130.384031 
L 130.150353 128.016771 
L 133.463154 125.912373 
L 136.775955 124.041611 
L 140.088757 122.380096 
L 143.401558 120.907492 
L 146.71436 119.606886 
L 150.027161 118.463772 
L 153.339963 117.465643 
L 156.652764 116.601953 
L 159.965566 115.863599 
L 163.278367 115.242934 
L 166.591169 114.733708 
L 169.90397 114.330923 
L 173.216772 114.030568 
L 176.529573 113.829434 
L 179.842375 113.724836 
L 183.155176 113.714247 
L 186.467978 113.794804 
L 189.780779 113.962745 
L 193.093581 114.212685 
L 196.406382 114.536549 
L 199.719184 114.922554 
L 203.031985 115.354497 
L 206.344787 115.811015 
L 209.657588 116.265483 
L 212.97039 116.687361 
L 216.283191 117.044907 
L 219.595993 117.308767 
L 222.908794 117.455235 
L 226.221596 117.468299 
L 229.534397 117.34005 
L 232.847199 117.069759 
L 236.16 116.66235 
L 239.472801 116.126776 
L 242.785603 115.474597 
L 246.098404 114.718818 
L 249.411206 113.872982 
L 252.724007 112.950524 
L 256.036809 111.964321 
L 259.34961 110.92645 
L 262.662412 109.848066 
L 265.975213 108.739371 
L 269.288015 107.6096 
L 272.600816 106.467014 
L 275.913618 105.318935 
L 279.226419 104.171804 
L 282.539221 103.03126 
L 285.852022 101.902191 
L 289.164824 100.788792 
L 292.477625 99.694604 
L 295.790427 98.622566 
L 299.103228 97.575081 
L 302.41603 96.554064 
L 305.728831 95.561012 
L 309.041633 94.597073 
L 312.354434 93.663103 
L 315.667236 92.759727 
L 318.980037 91.887381 
L 322.292839 91.046361 
L 325.60564 90.236863 
L 328.918442 89.459012 
L 332.231243 88.712903 
L 335.544045 87.998609 
L 338.856846 87.316221 
L 342.169647 86.665865 
L 345.482449 86.047719 
L 348.79525 85.461967 
L 352.108052 84.908761 
L 355.420853 84.38817 
L 358.733655 83.900222 
L 362.046456 83.444951 
L 365.359258 83.022405 
L 368.672059 82.632623 
L 371.984861 82.275621 
L 375.297662 81.951327 
L 378.610464 81.659474 
L 381.923265 81.399717 
L 385.236067 81.171669 
L 388.548868 80.97486 
L 391.86167 80.808691 
L 395.174471 80.6724 
L 398.487273 80.565044 
L 398.487273 55.805317 
L 398.487273 55.805317 
L 395.174471 55.875296 
L 391.86167 55.973803 
L 388.548868 56.100196 
L 385.236067 56.253859 
L 381.923265 56.434217 
L 378.610464 56.640732 
L 375.297662 56.872899 
L 371.984861 57.130248 
L 368.672059 57.412325 
L 365.359258 57.71866 
L 362.046456 58.04877 
L 358.733655 58.402162 
L 355.420853 58.778327 
L 352.108052 59.176719 
L 348.79525 59.596732 
L 345.482449 60.037654 
L 342.169647 60.4987 
L 338.856846 60.979023 
L 335.544045 61.477741 
L 332.231243 61.99393 
L 328.918442 62.526629 
L 325.60564 63.074832 
L 322.292839 63.637476 
L 318.980037 64.213425 
L 315.667236 64.801446 
L 312.354434 65.400186 
L 309.041633 66.008142 
L 305.728831 66.623613 
L 302.41603 67.24465 
L 299.103228 67.868993 
L 295.790427 68.494013 
L 292.477625 69.116657 
L 289.164824 69.733382 
L 285.852022 70.340067 
L 282.539221 70.931922 
L 279.226419 71.503381 
L 275.913618 72.047981 
L 272.600816 72.558304 
L 269.288015 73.026002 
L 265.975213 73.441896 
L 262.662412 73.79621 
L 259.34961 74.078962 
L 256.036809 74.280625 
L 252.724007 74.393096 
L 249.411206 74.411037 
L 246.098404 74.333471 
L 242.785603 74.165319 
L 239.472801 73.918297 
L 236.16 73.610573 
L 232.847199 73.264916 
L 229.534397 72.90578 
L 226.221596 72.55628 
L 222.908794 72.236077 
L 219.595993 71.960473 
L 216.283191 71.740613 
L 212.97039 71.584182 
L 209.657588 71.496237 
L 206.344787 71.479948 
L 203.031985 71.537223 
L 199.719184 71.669226 
L 196.406382 71.876762 
L 193.093581 72.160502 
L 189.780779 72.521102 
L 186.467978 72.959389 
L 183.155176 73.476492 
L 179.842375 74.073919 
L 176.529573 74.753597 
L 173.216772 75.517836 
L 169.90397 76.369378 
L 166.591169 77.311471 
L 163.278367 78.348046 
L 159.965566 79.483876 
L 156.652764 80.724676 
L 153.339963 82.077189 
L 150.027161 83.549417 
L 146.71436 85.150893 
L 143.401558 86.893022 
L 140.088757 88.789604 
L 136.775955 90.85737 
L 133.463154 93.116598 
L 130.150353 95.591777 
L 126.837551 98.312597 
L 123.52475 101.315436 
L 120.211948 104.644681 
L 116.899147 108.354555 
L 113.586345 112.511846 
L 110.273544 117.198976 
L 106.960742 122.517662 
L 103.647941 128.592907 
L 100.335139 135.578433 
L 97.022338 143.661814 
L 93.709536 153.07092 
L 90.396735 164.086637 
L 87.083933 177.067981 
L 83.771132 192.502325 
L 80.45833 211.143859 
L 77.145529 234.381454 
L 73.832727 265.367575 
z
" style="fill:#0000ff;fill-opacity:0.4;"/>
   </g>
   <g id="PolyCollection_3">
    <path clip-path="url(#p7fd1746321)" d="M 73.832727 276.035283 
L 73.832727 294.699345 
L 77.145529 263.722167 
L 80.45833 240.54815 
L 83.771132 222.012366 
L 87.083933 206.723348 
L 90.396735 193.91912 
L 93.709536 183.104363 
L 97.022338 173.915636 
L 100.335139 166.065833 
L 103.647941 159.320549 
L 106.960742 153.49053 
L 110.273544 148.420876 
L 113.586345 143.986584 
L 116.899147 140.08595 
L 120.211948 136.635342 
L 123.52475 133.568172 
L 126.837551 130.831412 
L 130.150353 128.381278 
L 133.463154 126.183621 
L 136.775955 124.210467 
L 140.088757 122.437909 
L 143.401558 120.845191 
L 146.71436 119.414778 
L 150.027161 118.131672 
L 153.339963 116.983629 
L 156.652764 115.960824 
L 159.965566 115.055694 
L 163.278367 114.262896 
L 166.591169 113.578186 
L 169.90397 112.997866 
L 173.216772 112.518877 
L 176.529573 112.138839 
L 179.842375 111.856347 
L 183.155176 111.670978 
L 186.467978 111.583078 
L 189.780779 111.593455 
L 193.093581 111.703232 
L 196.406382 111.913582 
L 199.719184 112.22529 
L 203.031985 112.638269 
L 206.344787 113.150333 
L 209.657588 113.755024 
L 212.97039 114.439009 
L 216.283191 115.179144 
L 219.595993 115.940528 
L 222.908794 116.677673 
L 226.221596 117.340135 
L 229.534397 117.881444 
L 232.847199 118.267303 
L 236.16 118.479484 
L 239.472801 118.514781 
L 242.785603 118.380992 
L 246.098404 118.092488 
L 249.411206 117.666697 
L 252.724007 117.121852 
L 256.036809 116.47576 
L 259.34961 115.745144 
L 262.662412 114.945285 
L 265.975213 114.0899 
L 269.288015 113.191174 
L 272.600816 112.259823 
L 275.913618 111.305149 
L 279.226419 110.335193 
L 282.539221 109.356887 
L 285.852022 108.376142 
L 289.164824 107.397966 
L 292.477625 106.426591 
L 295.790427 105.465545 
L 299.103228 104.517778 
L 302.41603 103.585794 
L 305.728831 102.671711 
L 309.041633 101.777326 
L 312.354434 100.904161 
L 315.667236 100.053542 
L 318.980037 99.226662 
L 322.292839 98.424637 
L 325.60564 97.648575 
L 328.918442 96.899543 
L 332.231243 96.178555 
L 335.544045 95.486602 
L 338.856846 94.824683 
L 342.169647 94.193833 
L 345.482449 93.59514 
L 348.79525 93.029736 
L 352.108052 92.498814 
L 355.420853 92.003545 
L 358.733655 91.544979 
L 362.046456 91.12398 
L 365.359258 90.741239 
L 368.672059 90.397454 
L 371.984861 90.093418 
L 375.297662 89.830063 
L 378.610464 89.60846 
L 381.923265 89.429874 
L 385.236067 89.29578 
L 388.548868 89.207897 
L 391.86167 89.168213 
L 395.174471 89.178925 
L 398.487273 89.242342 
L 398.487273 64.542476 
L 398.487273 64.542476 
L 395.174471 64.631616 
L 391.86167 64.755777 
L 388.548868 64.914014 
L 385.236067 65.105427 
L 381.923265 65.32917 
L 378.610464 65.584453 
L 375.297662 65.870526 
L 371.984861 66.186653 
L 368.672059 66.532131 
L 365.359258 66.906298 
L 362.046456 67.308522 
L 358.733655 67.738165 
L 355.420853 68.194548 
L 352.108052 68.67692 
L 348.79525 69.184461 
L 345.482449 69.71632 
L 342.169647 70.27166 
L 338.856846 70.849664 
L 335.544045 71.449525 
L 332.231243 72.070431 
L 328.918442 72.71155 
L 325.60564 73.372022 
L 322.292839 74.050962 
L 318.980037 74.747446 
L 315.667236 75.4605 
L 312.354434 76.189047 
L 309.041633 76.931853 
L 305.728831 77.68749 
L 302.41603 78.454302 
L 299.103228 79.230352 
L 295.790427 80.013359 
L 292.477625 80.800616 
L 289.164824 81.588901 
L 285.852022 82.374393 
L 282.539221 83.152562 
L 279.226419 83.91806 
L 275.913618 84.664604 
L 272.600816 85.384862 
L 269.288015 86.070367 
L 265.975213 86.711465 
L 262.662412 87.297317 
L 259.34961 87.816012 
L 256.036809 88.25484 
L 252.724007 88.600801 
L 249.411206 88.841428 
L 246.098404 88.966061 
L 242.785603 88.967631 
L 239.472801 88.844888 
L 236.16 88.604675 
L 232.847199 88.263414 
L 229.534397 87.84667 
L 226.221596 87.386281 
L 222.908794 86.915684 
L 219.595993 86.465217 
L 216.283191 86.059054 
L 212.97039 85.714438 
L 209.657588 85.442611 
L 206.344787 85.250427 
L 203.031985 85.141791 
L 199.719184 85.118812 
L 196.406382 85.182562 
L 193.093581 85.333579 
L 189.780779 85.572143 
L 186.467978 85.898527 
L 183.155176 86.31316 
L 179.842375 86.816732 
L 176.529573 87.410189 
L 173.216772 88.094771 
L 169.90397 88.872073 
L 166.591169 89.744097 
L 163.278367 90.713446 
L 159.965566 91.783555 
L 156.652764 92.958883 
L 153.339963 94.244916 
L 150.027161 95.648421 
L 146.71436 97.178004 
L 143.401558 98.844648 
L 140.088757 100.662041 
L 136.775955 102.647192 
L 133.463154 104.82093 
L 130.150353 107.208197 
L 126.837551 109.839232 
L 123.52475 112.75146 
L 120.211948 115.990114 
L 116.899147 119.609857 
L 113.586345 123.677285 
L 110.273544 128.274234 
L 106.960742 133.502161 
L 103.647941 139.486475 
L 100.335139 146.381825 
L 97.022338 154.377508 
L 93.709536 163.705002 
L 90.396735 174.652935 
L 87.083933 187.588277 
L 83.771132 203.006516 
L 80.45833 221.668828 
L 77.145529 244.961734 
L 73.832727 276.035283 
z
" style="fill:#00ffff;fill-opacity:0.4;"/>
   </g>
   <g id="matplotlib.axis_1">
    <g id="xtick_1">
     <g id="line2d_1">
      <path clip-path="url(#p7fd1746321)" d="M 70.519926 307.584 
L 70.519926 41.472 
" style="fill:none;stroke:#b0b0b0;stroke-linecap:square;stroke-width:0.8;"/>
     </g>
     <g id="line2d_2">
      <defs>
       <path d="M 0 0 
L 0 3.5 
" id="m6909976528" style="stroke:#000000;stroke-width:0.8;"/>
      </defs>
      <g>
       <use style="stroke:#000000;stroke-width:0.8;" x="70.519926" xlink:href="#m6909976528" y="307.584"/>
      </g>
     </g>
     <g id="text_1">
      <!-- 0.0 -->
      <defs>
       <path d="M 31.78125 66.40625 
Q 24.171875 66.40625 20.328125 58.90625 
Q 16.5 51.421875 16.5 36.375 
Q 16.5 21.390625 20.328125 13.890625 
Q 24.171875 6.390625 31.78125 6.390625 
Q 39.453125 6.390625 43.28125 13.890625 
Q 47.125 21.390625 47.125 36.375 
Q 47.125 51.421875 43.28125 58.90625 
Q 39.453125 66.40625 31.78125 66.40625 
z
M 31.78125 74.21875 
Q 44.046875 74.21875 50.515625 64.515625 
Q 56.984375 54.828125 56.984375 36.375 
Q 56.984375 17.96875 50.515625 8.265625 
Q 44.046875 -1.421875 31.78125 -1.421875 
Q 19.53125 -1.421875 13.0625 8.265625 
Q 6.59375 17.96875 6.59375 36.375 
Q 6.59375 54.828125 13.0625 64.515625 
Q 19.53125 74.21875 31.78125 74.21875 
z
" id="DejaVuSans-48"/>
       <path d="M 10.6875 12.40625 
L 21 12.40625 
L 21 0 
L 10.6875 0 
z
" id="DejaVuSans-46"/>
      </defs>
      <g transform="translate(62.568363 322.182437)scale(0.1 -0.1)">
       <use xlink:href="#DejaVuSans-48"/>
       <use x="63.623047" xlink:href="#DejaVuSans-46"/>
       <use x="95.410156" xlink:href="#DejaVuSans-48"/>
      </g>
     </g>
    </g>
    <g id="xtick_2">
     <g id="line2d_3">
      <path clip-path="url(#p7fd1746321)" d="M 136.775955 307.584 
L 136.775955 41.472 
" style="fill:none;stroke:#b0b0b0;stroke-linecap:square;stroke-width:0.8;"/>
     </g>
     <g id="line2d_4">
      <g>
       <use style="stroke:#000000;stroke-width:0.8;" x="136.775955" xlink:href="#m6909976528" y="307.584"/>
      </g>
     </g>
     <g id="text_2">
      <!-- 0.2 -->
      <defs>
       <path d="M 19.1875 8.296875 
L 53.609375 8.296875 
L 53.609375 0 
L 7.328125 0 
L 7.328125 8.296875 
Q 12.9375 14.109375 22.625 23.890625 
Q 32.328125 33.6875 34.8125 36.53125 
Q 39.546875 41.84375 41.421875 45.53125 
Q 43.3125 49.21875 43.3125 52.78125 
Q 43.3125 58.59375 39.234375 62.25 
Q 35.15625 65.921875 28.609375 65.921875 
Q 23.96875 65.921875 18.8125 64.3125 
Q 13.671875 62.703125 7.8125 59.421875 
L 7.8125 69.390625 
Q 13.765625 71.78125 18.9375 73 
Q 24.125 74.21875 28.421875 74.21875 
Q 39.75 74.21875 46.484375 68.546875 
Q 53.21875 62.890625 53.21875 53.421875 
Q 53.21875 48.921875 51.53125 44.890625 
Q 49.859375 40.875 45.40625 35.40625 
Q 44.1875 33.984375 37.640625 27.21875 
Q 31.109375 20.453125 19.1875 8.296875 
z
" id="DejaVuSans-50"/>
      </defs>
      <g transform="translate(128.824393 322.182437)scale(0.1 -0.1)">
       <use xlink:href="#DejaVuSans-48"/>
       <use x="63.623047" xlink:href="#DejaVuSans-46"/>
       <use x="95.410156" xlink:href="#DejaVuSans-50"/>
      </g>
     </g>
    </g>
    <g id="xtick_3">
     <g id="line2d_5">
      <path clip-path="url(#p7fd1746321)" d="M 203.031985 307.584 
L 203.031985 41.472 
" style="fill:none;stroke:#b0b0b0;stroke-linecap:square;stroke-width:0.8;"/>
     </g>
     <g id="line2d_6">
      <g>
       <use style="stroke:#000000;stroke-width:0.8;" x="203.031985" xlink:href="#m6909976528" y="307.584"/>
      </g>
     </g>
     <g id="text_3">
      <!-- 0.4 -->
      <defs>
       <path d="M 37.796875 64.3125 
L 12.890625 25.390625 
L 37.796875 25.390625 
z
M 35.203125 72.90625 
L 47.609375 72.90625 
L 47.609375 25.390625 
L 58.015625 25.390625 
L 58.015625 17.1875 
L 47.609375 17.1875 
L 47.609375 0 
L 37.796875 0 
L 37.796875 17.1875 
L 4.890625 17.1875 
L 4.890625 26.703125 
z
" id="DejaVuSans-52"/>
      </defs>
      <g transform="translate(195.080423 322.182437)scale(0.1 -0.1)">
       <use xlink:href="#DejaVuSans-48"/>
       <use x="63.623047" xlink:href="#DejaVuSans-46"/>
       <use x="95.410156" xlink:href="#DejaVuSans-52"/>
      </g>
     </g>
    </g>
    <g id="xtick_4">
     <g id="line2d_7">
      <path clip-path="url(#p7fd1746321)" d="M 269.288015 307.584 
L 269.288015 41.472 
" style="fill:none;stroke:#b0b0b0;stroke-linecap:square;stroke-width:0.8;"/>
     </g>
     <g id="line2d_8">
      <g>
       <use style="stroke:#000000;stroke-width:0.8;" x="269.288015" xlink:href="#m6909976528" y="307.584"/>
      </g>
     </g>
     <g id="text_4">
      <!-- 0.6 -->
      <defs>
       <path d="M 33.015625 40.375 
Q 26.375 40.375 22.484375 35.828125 
Q 18.609375 31.296875 18.609375 23.390625 
Q 18.609375 15.53125 22.484375 10.953125 
Q 26.375 6.390625 33.015625 6.390625 
Q 39.65625 6.390625 43.53125 10.953125 
Q 47.40625 15.53125 47.40625 23.390625 
Q 47.40625 31.296875 43.53125 35.828125 
Q 39.65625 40.375 33.015625 40.375 
z
M 52.59375 71.296875 
L 52.59375 62.3125 
Q 48.875 64.0625 45.09375 64.984375 
Q 41.3125 65.921875 37.59375 65.921875 
Q 27.828125 65.921875 22.671875 59.328125 
Q 17.53125 52.734375 16.796875 39.40625 
Q 19.671875 43.65625 24.015625 45.921875 
Q 28.375 48.1875 33.59375 48.1875 
Q 44.578125 48.1875 50.953125 41.515625 
Q 57.328125 34.859375 57.328125 23.390625 
Q 57.328125 12.15625 50.6875 5.359375 
Q 44.046875 -1.421875 33.015625 -1.421875 
Q 20.359375 -1.421875 13.671875 8.265625 
Q 6.984375 17.96875 6.984375 36.375 
Q 6.984375 53.65625 15.1875 63.9375 
Q 23.390625 74.21875 37.203125 74.21875 
Q 40.921875 74.21875 44.703125 73.484375 
Q 48.484375 72.75 52.59375 71.296875 
z
" id="DejaVuSans-54"/>
      </defs>
      <g transform="translate(261.336452 322.182437)scale(0.1 -0.1)">
       <use xlink:href="#DejaVuSans-48"/>
       <use x="63.623047" xlink:href="#DejaVuSans-46"/>
       <use x="95.410156" xlink:href="#DejaVuSans-54"/>
      </g>
     </g>
    </g>
    <g id="xtick_5">
     <g id="line2d_9">
      <path clip-path="url(#p7fd1746321)" d="M 335.544045 307.584 
L 335.544045 41.472 
" style="fill:none;stroke:#b0b0b0;stroke-linecap:square;stroke-width:0.8;"/>
     </g>
     <g id="line2d_10">
      <g>
       <use style="stroke:#000000;stroke-width:0.8;" x="335.544045" xlink:href="#m6909976528" y="307.584"/>
      </g>
     </g>
     <g id="text_5">
      <!-- 0.8 -->
      <defs>
       <path d="M 31.78125 34.625 
Q 24.75 34.625 20.71875 30.859375 
Q 16.703125 27.09375 16.703125 20.515625 
Q 16.703125 13.921875 20.71875 10.15625 
Q 24.75 6.390625 31.78125 6.390625 
Q 38.8125 6.390625 42.859375 10.171875 
Q 46.921875 13.96875 46.921875 20.515625 
Q 46.921875 27.09375 42.890625 30.859375 
Q 38.875 34.625 31.78125 34.625 
z
M 21.921875 38.8125 
Q 15.578125 40.375 12.03125 44.71875 
Q 8.5 49.078125 8.5 55.328125 
Q 8.5 64.0625 14.71875 69.140625 
Q 20.953125 74.21875 31.78125 74.21875 
Q 42.671875 74.21875 48.875 69.140625 
Q 55.078125 64.0625 55.078125 55.328125 
Q 55.078125 49.078125 51.53125 44.71875 
Q 48 40.375 41.703125 38.8125 
Q 48.828125 37.15625 52.796875 32.3125 
Q 56.78125 27.484375 56.78125 20.515625 
Q 56.78125 9.90625 50.3125 4.234375 
Q 43.84375 -1.421875 31.78125 -1.421875 
Q 19.734375 -1.421875 13.25 4.234375 
Q 6.78125 9.90625 6.78125 20.515625 
Q 6.78125 27.484375 10.78125 32.3125 
Q 14.796875 37.15625 21.921875 38.8125 
z
M 18.3125 54.390625 
Q 18.3125 48.734375 21.84375 45.5625 
Q 25.390625 42.390625 31.78125 42.390625 
Q 38.140625 42.390625 41.71875 45.5625 
Q 45.3125 48.734375 45.3125 54.390625 
Q 45.3125 60.0625 41.71875 63.234375 
Q 38.140625 66.40625 31.78125 66.40625 
Q 25.390625 66.40625 21.84375 63.234375 
Q 18.3125 60.0625 18.3125 54.390625 
z
" id="DejaVuSans-56"/>
      </defs>
      <g transform="translate(327.592482 322.182437)scale(0.1 -0.1)">
       <use xlink:href="#DejaVuSans-48"/>
       <use x="63.623047" xlink:href="#DejaVuSans-46"/>
       <use x="95.410156" xlink:href="#DejaVuSans-56"/>
      </g>
     </g>
    </g>
    <g id="xtick_6">
     <g id="line2d_11">
      <path clip-path="url(#p7fd1746321)" d="M 401.800074 307.584 
L 401.800074 41.472 
" style="fill:none;stroke:#b0b0b0;stroke-linecap:square;stroke-width:0.8;"/>
     </g>
     <g id="line2d_12">
      <g>
       <use style="stroke:#000000;stroke-width:0.8;" x="401.800074" xlink:href="#m6909976528" y="307.584"/>
      </g>
     </g>
     <g id="text_6">
      <!-- 1.0 -->
      <defs>
       <path d="M 12.40625 8.296875 
L 28.515625 8.296875 
L 28.515625 63.921875 
L 10.984375 60.40625 
L 10.984375 69.390625 
L 28.421875 72.90625 
L 38.28125 72.90625 
L 38.28125 8.296875 
L 54.390625 8.296875 
L 54.390625 0 
L 12.40625 0 
z
" id="DejaVuSans-49"/>
      </defs>
      <g transform="translate(393.848512 322.182437)scale(0.1 -0.1)">
       <use xlink:href="#DejaVuSans-49"/>
       <use x="63.623047" xlink:href="#DejaVuSans-46"/>
       <use x="95.410156" xlink:href="#DejaVuSans-48"/>
      </g>
     </g>
    </g>
    <g id="text_7">
     <!-- $\mathrm{Time \ (seconds)}$ -->
     <defs>
      <path d="M -0.296875 72.90625 
L 61.375 72.90625 
L 61.375 64.59375 
L 35.5 64.59375 
L 35.5 0 
L 25.59375 0 
L 25.59375 64.59375 
L -0.296875 64.59375 
z
" id="DejaVuSans-84"/>
      <path d="M 9.421875 54.6875 
L 18.40625 54.6875 
L 18.40625 0 
L 9.421875 0 
z
M 9.421875 75.984375 
L 18.40625 75.984375 
L 18.40625 64.59375 
L 9.421875 64.59375 
z
" id="DejaVuSans-105"/>
      <path d="M 52 44.1875 
Q 55.375 50.25 60.0625 53.125 
Q 64.75 56 71.09375 56 
Q 79.640625 56 84.28125 50.015625 
Q 88.921875 44.046875 88.921875 33.015625 
L 88.921875 0 
L 79.890625 0 
L 79.890625 32.71875 
Q 79.890625 40.578125 77.09375 44.375 
Q 74.3125 48.1875 68.609375 48.1875 
Q 61.625 48.1875 57.5625 43.546875 
Q 53.515625 38.921875 53.515625 30.90625 
L 53.515625 0 
L 44.484375 0 
L 44.484375 32.71875 
Q 44.484375 40.625 41.703125 44.40625 
Q 38.921875 48.1875 33.109375 48.1875 
Q 26.21875 48.1875 22.15625 43.53125 
Q 18.109375 38.875 18.109375 30.90625 
L 18.109375 0 
L 9.078125 0 
L 9.078125 54.6875 
L 18.109375 54.6875 
L 18.109375 46.1875 
Q 21.1875 51.21875 25.484375 53.609375 
Q 29.78125 56 35.6875 56 
Q 41.65625 56 45.828125 52.96875 
Q 50 49.953125 52 44.1875 
z
" id="DejaVuSans-109"/>
      <path d="M 56.203125 29.59375 
L 56.203125 25.203125 
L 14.890625 25.203125 
Q 15.484375 15.921875 20.484375 11.0625 
Q 25.484375 6.203125 34.421875 6.203125 
Q 39.59375 6.203125 44.453125 7.46875 
Q 49.3125 8.734375 54.109375 11.28125 
L 54.109375 2.78125 
Q 49.265625 0.734375 44.1875 -0.34375 
Q 39.109375 -1.421875 33.890625 -1.421875 
Q 20.796875 -1.421875 13.15625 6.1875 
Q 5.515625 13.8125 5.515625 26.8125 
Q 5.515625 40.234375 12.765625 48.109375 
Q 20.015625 56 32.328125 56 
Q 43.359375 56 49.78125 48.890625 
Q 56.203125 41.796875 56.203125 29.59375 
z
M 47.21875 32.234375 
Q 47.125 39.59375 43.09375 43.984375 
Q 39.0625 48.390625 32.421875 48.390625 
Q 24.90625 48.390625 20.390625 44.140625 
Q 15.875 39.890625 15.1875 32.171875 
z
" id="DejaVuSans-101"/>
      <path d="M 31 75.875 
Q 24.46875 64.65625 21.28125 53.65625 
Q 18.109375 42.671875 18.109375 31.390625 
Q 18.109375 20.125 21.3125 9.0625 
Q 24.515625 -2 31 -13.1875 
L 23.1875 -13.1875 
Q 15.875 -1.703125 12.234375 9.375 
Q 8.59375 20.453125 8.59375 31.390625 
Q 8.59375 42.28125 12.203125 53.3125 
Q 15.828125 64.359375 23.1875 75.875 
z
" id="DejaVuSans-40"/>
      <path d="M 44.28125 53.078125 
L 44.28125 44.578125 
Q 40.484375 46.53125 36.375 47.5 
Q 32.28125 48.484375 27.875 48.484375 
Q 21.1875 48.484375 17.84375 46.4375 
Q 14.5 44.390625 14.5 40.28125 
Q 14.5 37.15625 16.890625 35.375 
Q 19.28125 33.59375 26.515625 31.984375 
L 29.59375 31.296875 
Q 39.15625 29.25 43.1875 25.515625 
Q 47.21875 21.78125 47.21875 15.09375 
Q 47.21875 7.46875 41.1875 3.015625 
Q 35.15625 -1.421875 24.609375 -1.421875 
Q 20.21875 -1.421875 15.453125 -0.5625 
Q 10.6875 0.296875 5.421875 2 
L 5.421875 11.28125 
Q 10.40625 8.6875 15.234375 7.390625 
Q 20.0625 6.109375 24.8125 6.109375 
Q 31.15625 6.109375 34.5625 8.28125 
Q 37.984375 10.453125 37.984375 14.40625 
Q 37.984375 18.0625 35.515625 20.015625 
Q 33.0625 21.96875 24.703125 23.78125 
L 21.578125 24.515625 
Q 13.234375 26.265625 9.515625 29.90625 
Q 5.8125 33.546875 5.8125 39.890625 
Q 5.8125 47.609375 11.28125 51.796875 
Q 16.75 56 26.8125 56 
Q 31.78125 56 36.171875 55.265625 
Q 40.578125 54.546875 44.28125 53.078125 
z
" id="DejaVuSans-115"/>
      <path d="M 48.78125 52.59375 
L 48.78125 44.1875 
Q 44.96875 46.296875 41.140625 47.34375 
Q 37.3125 48.390625 33.40625 48.390625 
Q 24.65625 48.390625 19.8125 42.84375 
Q 14.984375 37.3125 14.984375 27.296875 
Q 14.984375 17.28125 19.8125 11.734375 
Q 24.65625 6.203125 33.40625 6.203125 
Q 37.3125 6.203125 41.140625 7.25 
Q 44.96875 8.296875 48.78125 10.40625 
L 48.78125 2.09375 
Q 45.015625 0.34375 40.984375 -0.53125 
Q 36.96875 -1.421875 32.421875 -1.421875 
Q 20.0625 -1.421875 12.78125 6.34375 
Q 5.515625 14.109375 5.515625 27.296875 
Q 5.515625 40.671875 12.859375 48.328125 
Q 20.21875 56 33.015625 56 
Q 37.15625 56 41.109375 55.140625 
Q 45.0625 54.296875 48.78125 52.59375 
z
" id="DejaVuSans-99"/>
      <path d="M 30.609375 48.390625 
Q 23.390625 48.390625 19.1875 42.75 
Q 14.984375 37.109375 14.984375 27.296875 
Q 14.984375 17.484375 19.15625 11.84375 
Q 23.34375 6.203125 30.609375 6.203125 
Q 37.796875 6.203125 41.984375 11.859375 
Q 46.1875 17.53125 46.1875 27.296875 
Q 46.1875 37.015625 41.984375 42.703125 
Q 37.796875 48.390625 30.609375 48.390625 
z
M 30.609375 56 
Q 42.328125 56 49.015625 48.375 
Q 55.71875 40.765625 55.71875 27.296875 
Q 55.71875 13.875 49.015625 6.21875 
Q 42.328125 -1.421875 30.609375 -1.421875 
Q 18.84375 -1.421875 12.171875 6.21875 
Q 5.515625 13.875 5.515625 27.296875 
Q 5.515625 40.765625 12.171875 48.375 
Q 18.84375 56 30.609375 56 
z
" id="DejaVuSans-111"/>
      <path d="M 54.890625 33.015625 
L 54.890625 0 
L 45.90625 0 
L 45.90625 32.71875 
Q 45.90625 40.484375 42.875 44.328125 
Q 39.84375 48.1875 33.796875 48.1875 
Q 26.515625 48.1875 22.3125 43.546875 
Q 18.109375 38.921875 18.109375 30.90625 
L 18.109375 0 
L 9.078125 0 
L 9.078125 54.6875 
L 18.109375 54.6875 
L 18.109375 46.1875 
Q 21.34375 51.125 25.703125 53.5625 
Q 30.078125 56 35.796875 56 
Q 45.21875 56 50.046875 50.171875 
Q 54.890625 44.34375 54.890625 33.015625 
z
" id="DejaVuSans-110"/>
      <path d="M 45.40625 46.390625 
L 45.40625 75.984375 
L 54.390625 75.984375 
L 54.390625 0 
L 45.40625 0 
L 45.40625 8.203125 
Q 42.578125 3.328125 38.25 0.953125 
Q 33.9375 -1.421875 27.875 -1.421875 
Q 17.96875 -1.421875 11.734375 6.484375 
Q 5.515625 14.40625 5.515625 27.296875 
Q 5.515625 40.1875 11.734375 48.09375 
Q 17.96875 56 27.875 56 
Q 33.9375 56 38.25 53.625 
Q 42.578125 51.265625 45.40625 46.390625 
z
M 14.796875 27.296875 
Q 14.796875 17.390625 18.875 11.75 
Q 22.953125 6.109375 30.078125 6.109375 
Q 37.203125 6.109375 41.296875 11.75 
Q 45.40625 17.390625 45.40625 27.296875 
Q 45.40625 37.203125 41.296875 42.84375 
Q 37.203125 48.484375 30.078125 48.484375 
Q 22.953125 48.484375 18.875 42.84375 
Q 14.796875 37.203125 14.796875 27.296875 
z
" id="DejaVuSans-100"/>
      <path d="M 8.015625 75.875 
L 15.828125 75.875 
Q 23.140625 64.359375 26.78125 53.3125 
Q 30.421875 42.28125 30.421875 31.390625 
Q 30.421875 20.453125 26.78125 9.375 
Q 23.140625 -1.703125 15.828125 -13.1875 
L 8.015625 -13.1875 
Q 14.5 -2 17.703125 9.0625 
Q 20.90625 20.125 20.90625 31.390625 
Q 20.90625 42.671875 17.703125 53.65625 
Q 14.5 64.65625 8.015625 75.875 
z
" id="DejaVuSans-41"/>
     </defs>
     <g transform="translate(197.76 335.860562)scale(0.1 -0.1)">
      <use transform="translate(0 0.015625)" xlink:href="#DejaVuSans-84"/>
      <use transform="translate(61.083984 0.015625)" xlink:href="#DejaVuSans-105"/>
      <use transform="translate(88.867188 0.015625)" xlink:href="#DejaVuSans-109"/>
      <use transform="translate(186.279297 0.015625)" xlink:href="#DejaVuSans-101"/>
      <use transform="translate(280.273113 0.015625)" xlink:href="#DejaVuSans-40"/>
      <use transform="translate(319.286785 0.015625)" xlink:href="#DejaVuSans-115"/>
      <use transform="translate(371.386394 0.015625)" xlink:href="#DejaVuSans-101"/>
      <use transform="translate(432.909832 0.015625)" xlink:href="#DejaVuSans-99"/>
      <use transform="translate(487.8903 0.015625)" xlink:href="#DejaVuSans-111"/>
      <use transform="translate(549.071941 0.015625)" xlink:href="#DejaVuSans-110"/>
      <use transform="translate(612.450847 0.015625)" xlink:href="#DejaVuSans-100"/>
      <use transform="translate(675.92741 0.015625)" xlink:href="#DejaVuSans-115"/>
      <use transform="translate(728.027019 0.015625)" xlink:href="#DejaVuSans-41"/>
     </g>
    </g>
   </g>
   <g id="matplotlib.axis_2">
    <g id="ytick_1">
     <g id="line2d_13">
      <path clip-path="url(#p7fd1746321)" d="M 57.6 158.080844 
L 414.72 158.080844 
" style="fill:none;stroke:#b0b0b0;stroke-linecap:square;stroke-width:0.8;"/>
     </g>
     <g id="line2d_14">
      <defs>
       <path d="M 0 0 
L -3.5 0 
" id="m223c1317af" style="stroke:#000000;stroke-width:0.8;"/>
      </defs>
      <g>
       <use style="stroke:#000000;stroke-width:0.8;" x="57.6" xlink:href="#m223c1317af" y="158.080844"/>
      </g>
     </g>
     <g id="text_8">
      <!-- $\mathdefault{10^{-1}}$ -->
      <defs>
       <path d="M 10.59375 35.5 
L 73.1875 35.5 
L 73.1875 27.203125 
L 10.59375 27.203125 
z
" id="DejaVuSans-8722"/>
      </defs>
      <g transform="translate(27.1 161.880063)scale(0.1 -0.1)">
       <use transform="translate(0 0.684375)" xlink:href="#DejaVuSans-49"/>
       <use transform="translate(63.623047 0.684375)" xlink:href="#DejaVuSans-48"/>
       <use transform="translate(128.203125 38.965625)scale(0.7)" xlink:href="#DejaVuSans-8722"/>
       <use transform="translate(186.855469 38.965625)scale(0.7)" xlink:href="#DejaVuSans-49"/>
      </g>
     </g>
    </g>
    <g id="ytick_2">
     <g id="line2d_15">
      <defs>
       <path d="M 0 0 
L -2 0 
" id="m676b94a447" style="stroke:#000000;stroke-width:0.6;"/>
      </defs>
      <g>
       <use style="stroke:#000000;stroke-width:0.6;" x="57.6" xlink:href="#m676b94a447" y="281.839015"/>
      </g>
     </g>
    </g>
    <g id="ytick_3">
     <g id="line2d_16">
      <g>
       <use style="stroke:#000000;stroke-width:0.6;" x="57.6" xlink:href="#m676b94a447" y="250.660664"/>
      </g>
     </g>
    </g>
    <g id="ytick_4">
     <g id="line2d_17">
      <g>
       <use style="stroke:#000000;stroke-width:0.6;" x="57.6" xlink:href="#m676b94a447" y="228.539272"/>
      </g>
     </g>
    </g>
    <g id="ytick_5">
     <g id="line2d_18">
      <g>
       <use style="stroke:#000000;stroke-width:0.6;" x="57.6" xlink:href="#m676b94a447" y="211.380587"/>
      </g>
     </g>
    </g>
    <g id="ytick_6">
     <g id="line2d_19">
      <g>
       <use style="stroke:#000000;stroke-width:0.6;" x="57.6" xlink:href="#m676b94a447" y="197.360921"/>
      </g>
     </g>
    </g>
    <g id="ytick_7">
     <g id="line2d_20">
      <g>
       <use style="stroke:#000000;stroke-width:0.6;" x="57.6" xlink:href="#m676b94a447" y="185.507462"/>
      </g>
     </g>
    </g>
    <g id="ytick_8">
     <g id="line2d_21">
      <g>
       <use style="stroke:#000000;stroke-width:0.6;" x="57.6" xlink:href="#m676b94a447" y="175.239529"/>
      </g>
     </g>
    </g>
    <g id="ytick_9">
     <g id="line2d_22">
      <g>
       <use style="stroke:#000000;stroke-width:0.6;" x="57.6" xlink:href="#m676b94a447" y="166.18257"/>
      </g>
     </g>
    </g>
    <g id="ytick_10">
     <g id="line2d_23">
      <g>
       <use style="stroke:#000000;stroke-width:0.6;" x="57.6" xlink:href="#m676b94a447" y="104.781101"/>
      </g>
     </g>
    </g>
    <g id="ytick_11">
     <g id="line2d_24">
      <g>
       <use style="stroke:#000000;stroke-width:0.6;" x="57.6" xlink:href="#m676b94a447" y="73.60275"/>
      </g>
     </g>
    </g>
    <g id="ytick_12">
     <g id="line2d_25">
      <g>
       <use style="stroke:#000000;stroke-width:0.6;" x="57.6" xlink:href="#m676b94a447" y="51.481357"/>
      </g>
     </g>
    </g>
    <g id="text_9">
     <!-- $\mathrm{Relative \ error}$ ($N_{\mathrm{train}}=10$) -->
     <defs>
      <path d="M 44.390625 34.1875 
Q 47.5625 33.109375 50.5625 29.59375 
Q 53.5625 26.078125 56.59375 19.921875 
L 66.609375 0 
L 56 0 
L 46.6875 18.703125 
Q 43.0625 26.03125 39.671875 28.421875 
Q 36.28125 30.8125 30.421875 30.8125 
L 19.671875 30.8125 
L 19.671875 0 
L 9.8125 0 
L 9.8125 72.90625 
L 32.078125 72.90625 
Q 44.578125 72.90625 50.734375 67.671875 
Q 56.890625 62.453125 56.890625 51.90625 
Q 56.890625 45.015625 53.6875 40.46875 
Q 50.484375 35.9375 44.390625 34.1875 
z
M 19.671875 64.796875 
L 19.671875 38.921875 
L 32.078125 38.921875 
Q 39.203125 38.921875 42.84375 42.21875 
Q 46.484375 45.515625 46.484375 51.90625 
Q 46.484375 58.296875 42.84375 61.546875 
Q 39.203125 64.796875 32.078125 64.796875 
z
" id="DejaVuSans-82"/>
      <path d="M 9.421875 75.984375 
L 18.40625 75.984375 
L 18.40625 0 
L 9.421875 0 
z
" id="DejaVuSans-108"/>
      <path d="M 34.28125 27.484375 
Q 23.390625 27.484375 19.1875 25 
Q 14.984375 22.515625 14.984375 16.5 
Q 14.984375 11.71875 18.140625 8.90625 
Q 21.296875 6.109375 26.703125 6.109375 
Q 34.1875 6.109375 38.703125 11.40625 
Q 43.21875 16.703125 43.21875 25.484375 
L 43.21875 27.484375 
z
M 52.203125 31.203125 
L 52.203125 0 
L 43.21875 0 
L 43.21875 8.296875 
Q 40.140625 3.328125 35.546875 0.953125 
Q 30.953125 -1.421875 24.3125 -1.421875 
Q 15.921875 -1.421875 10.953125 3.296875 
Q 6 8.015625 6 15.921875 
Q 6 25.140625 12.171875 29.828125 
Q 18.359375 34.515625 30.609375 34.515625 
L 43.21875 34.515625 
L 43.21875 35.40625 
Q 43.21875 41.609375 39.140625 45 
Q 35.0625 48.390625 27.6875 48.390625 
Q 23 48.390625 18.546875 47.265625 
Q 14.109375 46.140625 10.015625 43.890625 
L 10.015625 52.203125 
Q 14.9375 54.109375 19.578125 55.046875 
Q 24.21875 56 28.609375 56 
Q 40.484375 56 46.34375 49.84375 
Q 52.203125 43.703125 52.203125 31.203125 
z
" id="DejaVuSans-97"/>
      <path d="M 18.3125 70.21875 
L 18.3125 54.6875 
L 36.8125 54.6875 
L 36.8125 47.703125 
L 18.3125 47.703125 
L 18.3125 18.015625 
Q 18.3125 11.328125 20.140625 9.421875 
Q 21.96875 7.515625 27.59375 7.515625 
L 36.8125 7.515625 
L 36.8125 0 
L 27.59375 0 
Q 17.1875 0 13.234375 3.875 
Q 9.28125 7.765625 9.28125 18.015625 
L 9.28125 47.703125 
L 2.6875 47.703125 
L 2.6875 54.6875 
L 9.28125 54.6875 
L 9.28125 70.21875 
z
" id="DejaVuSans-116"/>
      <path d="M 2.984375 54.6875 
L 12.5 54.6875 
L 29.59375 8.796875 
L 46.6875 54.6875 
L 56.203125 54.6875 
L 35.6875 0 
L 23.484375 0 
z
" id="DejaVuSans-118"/>
      <path d="M 41.109375 46.296875 
Q 39.59375 47.171875 37.8125 47.578125 
Q 36.03125 48 33.890625 48 
Q 26.265625 48 22.1875 43.046875 
Q 18.109375 38.09375 18.109375 28.8125 
L 18.109375 0 
L 9.078125 0 
L 9.078125 54.6875 
L 18.109375 54.6875 
L 18.109375 46.1875 
Q 20.953125 51.171875 25.484375 53.578125 
Q 30.03125 56 36.53125 56 
Q 37.453125 56 38.578125 55.875 
Q 39.703125 55.765625 41.0625 55.515625 
z
" id="DejaVuSans-114"/>
      <path id="DejaVuSans-32"/>
      <path d="M 16.890625 72.90625 
L 30.171875 72.90625 
L 50.296875 10.40625 
L 62.5 72.90625 
L 72.125 72.90625 
L 57.90625 0 
L 44.578125 0 
L 24.515625 62.890625 
L 12.3125 0 
L 2.6875 0 
z
" id="DejaVuSans-Oblique-78"/>
      <path d="M 10.59375 45.40625 
L 73.1875 45.40625 
L 73.1875 37.203125 
L 10.59375 37.203125 
z
M 10.59375 25.484375 
L 73.1875 25.484375 
L 73.1875 17.1875 
L 10.59375 17.1875 
z
" id="DejaVuSans-61"/>
     </defs>
     <g transform="translate(21.020312 238.878)rotate(-90)scale(0.1 -0.1)">
      <use transform="translate(0 0.015625)" xlink:href="#DejaVuSans-82"/>
      <use transform="translate(69.482422 0.015625)" xlink:href="#DejaVuSans-101"/>
      <use transform="translate(131.005859 0.015625)" xlink:href="#DejaVuSans-108"/>
      <use transform="translate(158.789062 0.015625)" xlink:href="#DejaVuSans-97"/>
      <use transform="translate(220.068359 0.015625)" xlink:href="#DejaVuSans-116"/>
      <use transform="translate(259.277344 0.015625)" xlink:href="#DejaVuSans-105"/>
      <use transform="translate(287.060547 0.015625)" xlink:href="#DejaVuSans-118"/>
      <use transform="translate(346.240234 0.015625)" xlink:href="#DejaVuSans-101"/>
      <use transform="translate(440.23405 0.015625)" xlink:href="#DejaVuSans-101"/>
      <use transform="translate(501.757488 0.015625)" xlink:href="#DejaVuSans-114"/>
      <use transform="translate(542.870769 0.015625)" xlink:href="#DejaVuSans-114"/>
      <use transform="translate(583.98405 0.015625)" xlink:href="#DejaVuSans-111"/>
      <use transform="translate(645.165691 0.015625)" xlink:href="#DejaVuSans-114"/>
      <use transform="translate(686.278972 0.015625)" xlink:href="#DejaVuSans-32"/>
      <use transform="translate(718.066082 0.015625)" xlink:href="#DejaVuSans-40"/>
      <use transform="translate(757.079753 0.015625)" xlink:href="#DejaVuSans-Oblique-78"/>
      <use transform="translate(831.884441 -16.390625)scale(0.7)" xlink:href="#DejaVuSans-116"/>
      <use transform="translate(859.33073 -16.390625)scale(0.7)" xlink:href="#DejaVuSans-114"/>
      <use transform="translate(888.110027 -16.390625)scale(0.7)" xlink:href="#DejaVuSans-97"/>
      <use transform="translate(931.005535 -16.390625)scale(0.7)" xlink:href="#DejaVuSans-105"/>
      <use transform="translate(950.453777 -16.390625)scale(0.7)" xlink:href="#DejaVuSans-110"/>
      <use transform="translate(1017.035808 0.015625)" xlink:href="#DejaVuSans-61"/>
      <use transform="translate(1120.307292 0.015625)" xlink:href="#DejaVuSans-49"/>
      <use transform="translate(1183.930339 0.015625)" xlink:href="#DejaVuSans-48"/>
      <use transform="translate(1247.553386 0.015625)" xlink:href="#DejaVuSans-41"/>
     </g>
    </g>
   </g>
   <g id="line2d_26">
    <path clip-path="url(#p7fd1746321)" d="M 73.832724 275.888177 
L 77.145522 244.878228 
L 80.458321 221.620634 
L 83.771119 202.963036 
L 87.083917 187.521003 
L 90.396716 174.544556 
L 93.709554 163.549124 
L 97.022352 154.176439 
L 100.33515 146.143428 
L 103.647949 139.21864 
L 106.960747 133.212028 
L 110.273545 127.968824 
L 113.586344 123.363436 
L 116.899142 119.294208 
L 120.21194 115.678676 
L 123.524738 112.449649 
L 126.837537 109.552781 
L 130.150375 106.943859 
L 133.463173 104.587012 
L 136.775971 102.453083 
L 140.08877 100.517723 
L 143.401568 98.760611 
L 146.714366 97.164566 
L 150.027165 95.715197 
L 153.339963 94.400297 
L 156.652761 93.209442 
L 159.96556 92.133829 
L 163.278358 91.165949 
L 166.591156 90.299468 
L 169.903955 89.529109 
L 173.216753 88.850433 
L 176.529551 88.259757 
L 179.842389 87.753886 
L 183.155187 87.330062 
L 186.467986 86.985723 
L 189.780784 86.718339 
L 193.093582 86.525017 
L 196.406381 86.402405 
L 199.719179 86.346199 
L 203.031977 86.351031 
L 209.657574 86.515014 
L 216.28321 86.821215 
L 229.534403 87.491079 
L 236.16 87.667556 
L 239.472798 87.675367 
L 242.785597 87.615046 
L 246.098395 87.478268 
L 249.411193 87.260198 
L 252.723992 86.959845 
L 256.03679 86.57998 
L 259.349588 86.126304 
L 262.662387 85.606465 
L 269.288023 84.40345 
L 275.913619 83.041611 
L 285.852014 80.835935 
L 305.728844 76.360964 
L 315.667239 74.261941 
L 322.292835 72.945543 
L 328.918432 71.704771 
L 335.544029 70.5456 
L 342.169625 69.47314 
L 348.795222 68.491723 
L 355.420858 67.604727 
L 362.046455 66.814397 
L 368.672051 66.12266 
L 375.297688 65.53114 
L 381.923284 65.041075 
L 388.548881 64.653216 
L 395.174478 64.36785 
L 398.487276 64.263541 
" style="fill:none;stroke:#ff0000;stroke-linecap:square;stroke-width:1.5;"/>
   </g>
   <g id="line2d_27">
    <path clip-path="url(#p7fd1746321)" d="M 73.832724 278.962323 
L 77.145522 247.889939 
L 80.458321 224.587825 
L 83.771119 205.903384 
L 87.083917 190.447967 
L 90.396716 177.467404 
L 93.709554 166.474888 
L 97.022352 157.110555 
L 100.33515 149.089915 
L 103.647949 142.181106 
L 106.960747 136.193639 
L 110.273545 130.972198 
L 113.586344 126.390849 
L 116.899142 122.347327 
L 120.21194 118.758516 
L 123.524738 115.557035 
L 126.837537 112.688241 
L 130.150375 110.107685 
L 133.463173 107.779144 
L 136.775971 105.673137 
L 140.08877 103.765069 
L 143.401568 102.034617 
L 146.714366 100.464911 
L 150.027165 99.041775 
L 153.339963 97.753344 
L 156.652761 96.58959 
L 159.96556 95.542076 
L 163.278358 94.603595 
L 166.591156 93.768186 
L 169.903955 93.030958 
L 173.216753 92.387876 
L 176.529551 91.835633 
L 179.842389 91.371449 
L 183.155187 90.992917 
L 186.467986 90.69763 
L 189.780784 90.483269 
L 193.093582 90.347044 
L 196.406381 90.285493 
L 199.719179 90.293939 
L 203.031977 90.366145 
L 209.657574 90.667721 
L 219.596008 91.339006 
L 226.221605 91.778897 
L 232.847202 92.089336 
L 236.16 92.162072 
L 239.472798 92.162116 
L 242.785597 92.078699 
L 246.098395 91.904776 
L 249.411193 91.637858 
L 252.723992 91.279992 
L 256.03679 90.836768 
L 259.349588 90.316397 
L 262.662387 89.728376 
L 269.288023 88.389711 
L 275.913619 86.897872 
L 285.852014 84.513018 
L 302.416045 80.511286 
L 312.35444 78.240391 
L 318.980037 76.812105 
L 325.605634 75.462718 
L 332.23123 74.198712 
L 338.856827 73.025496 
L 345.482424 71.948141 
L 352.10806 70.971372 
L 358.733656 70.099127 
L 365.359253 69.334362 
L 371.984889 68.679643 
L 378.610486 68.137048 
L 385.236083 67.707814 
L 391.861679 67.392965 
L 398.487276 67.192887 
" style="fill:none;stroke:#0000ff;stroke-linecap:square;stroke-width:1.5;"/>
   </g>
   <g id="line2d_28">
    <path clip-path="url(#p7fd1746321)" d="M 73.832724 284.802448 
L 77.145522 253.771243 
L 80.458321 230.530526 
L 83.771119 211.923738 
L 87.083917 196.562123 
L 90.396716 183.684203 
L 93.709554 172.794538 
L 97.022352 163.527683 
L 100.33515 155.595692 
L 103.647949 148.765801 
L 106.960747 142.848677 
L 110.273545 137.68963 
L 113.586344 133.163377 
L 116.899142 129.168333 
L 120.21194 125.621947 
L 123.524738 122.457529 
L 126.837537 119.621199 
L 130.150375 117.068273 
L 133.463173 114.762804 
L 136.775971 112.675428 
L 140.08877 110.781691 
L 143.401568 109.060759 
L 146.714366 107.495362 
L 150.027165 106.071214 
L 153.339963 104.776809 
L 156.652761 103.602966 
L 159.96556 102.542551 
L 163.278358 101.590165 
L 166.591156 100.741368 
L 169.903955 99.992644 
L 173.216753 99.341157 
L 176.529551 98.784714 
L 179.842389 98.321797 
L 183.155187 97.951496 
L 186.467986 97.673349 
L 189.780784 97.487311 
L 193.093582 97.393534 
L 196.406381 97.392311 
L 199.719179 97.483767 
L 203.031977 97.667483 
L 206.344776 97.941893 
L 209.657574 98.303052 
L 212.970412 98.743179 
L 219.596008 99.799133 
L 226.221605 100.913815 
L 229.534403 101.406875 
L 232.847202 101.811158 
L 236.16 102.10028 
L 239.472798 102.257607 
L 242.785597 102.276437 
L 246.098395 102.158364 
L 249.411193 101.911201 
L 252.723992 101.546515 
L 256.03679 101.077859 
L 259.349588 100.519474 
L 262.662387 99.885317 
L 269.288023 98.441242 
L 275.913619 96.836883 
L 285.852014 94.28142 
L 302.416045 89.997892 
L 312.35444 87.557882 
L 318.980037 86.017036 
L 325.605634 84.556228 
L 332.23123 83.183553 
L 338.856827 81.906539 
L 345.482424 80.732536 
L 352.10806 79.66904 
L 358.733656 78.723914 
L 365.359253 77.903946 
L 371.984889 77.214683 
L 378.610486 76.662034 
L 385.236083 76.253262 
L 391.861679 75.997233 
L 398.487276 75.904906 
" style="fill:none;stroke:#00ffff;stroke-linecap:square;stroke-width:1.5;"/>
   </g>
   <g id="patch_3">
    <path d="M 57.6 307.584 
L 57.6 41.472 
" style="fill:none;stroke:#000000;stroke-linecap:square;stroke-linejoin:miter;stroke-width:0.8;"/>
   </g>
   <g id="patch_4">
    <path d="M 414.72 307.584 
L 414.72 41.472 
" style="fill:none;stroke:#000000;stroke-linecap:square;stroke-linejoin:miter;stroke-width:0.8;"/>
   </g>
   <g id="patch_5">
    <path d="M 57.6 307.584 
L 414.72 307.584 
" style="fill:none;stroke:#000000;stroke-linecap:square;stroke-linejoin:miter;stroke-width:0.8;"/>
   </g>
   <g id="patch_6">
    <path d="M 57.6 41.472 
L 414.72 41.472 
" style="fill:none;stroke:#000000;stroke-linecap:square;stroke-linejoin:miter;stroke-width:0.8;"/>
   </g>
   <g id="legend_1">
    <g id="patch_7">
     <path d="M 282.559063 302.584 
L 407.72 302.584 
Q 409.72 302.584 409.72 300.584 
L 409.72 257.549625 
Q 409.72 255.549625 407.72 255.549625 
L 282.559063 255.549625 
Q 280.559063 255.549625 280.559063 257.549625 
L 280.559063 300.584 
Q 280.559063 302.584 282.559063 302.584 
z
" style="fill:#ffffff;opacity:0.8;stroke:#cccccc;stroke-linejoin:miter;"/>
    </g>
    <g id="line2d_29">
     <path d="M 284.559063 263.648062 
L 304.559063 263.648062 
" style="fill:none;stroke:#ff0000;stroke-linecap:square;stroke-width:1.5;"/>
    </g>
    <g id="line2d_30"/>
    <g id="text_10">
     <!-- No denoising -->
     <defs>
      <path d="M 9.8125 72.90625 
L 23.09375 72.90625 
L 55.421875 11.921875 
L 55.421875 72.90625 
L 64.984375 72.90625 
L 64.984375 0 
L 51.703125 0 
L 19.390625 60.984375 
L 19.390625 0 
L 9.8125 0 
z
" id="DejaVuSans-78"/>
      <path d="M 45.40625 27.984375 
Q 45.40625 37.75 41.375 43.109375 
Q 37.359375 48.484375 30.078125 48.484375 
Q 22.859375 48.484375 18.828125 43.109375 
Q 14.796875 37.75 14.796875 27.984375 
Q 14.796875 18.265625 18.828125 12.890625 
Q 22.859375 7.515625 30.078125 7.515625 
Q 37.359375 7.515625 41.375 12.890625 
Q 45.40625 18.265625 45.40625 27.984375 
z
M 54.390625 6.78125 
Q 54.390625 -7.171875 48.1875 -13.984375 
Q 42 -20.796875 29.203125 -20.796875 
Q 24.46875 -20.796875 20.265625 -20.09375 
Q 16.0625 -19.390625 12.109375 -17.921875 
L 12.109375 -9.1875 
Q 16.0625 -11.328125 19.921875 -12.34375 
Q 23.78125 -13.375 27.78125 -13.375 
Q 36.625 -13.375 41.015625 -8.765625 
Q 45.40625 -4.15625 45.40625 5.171875 
L 45.40625 9.625 
Q 42.625 4.78125 38.28125 2.390625 
Q 33.9375 0 27.875 0 
Q 17.828125 0 11.671875 7.65625 
Q 5.515625 15.328125 5.515625 27.984375 
Q 5.515625 40.671875 11.671875 48.328125 
Q 17.828125 56 27.875 56 
Q 33.9375 56 38.28125 53.609375 
Q 42.625 51.21875 45.40625 46.390625 
L 45.40625 54.6875 
L 54.390625 54.6875 
z
" id="DejaVuSans-103"/>
     </defs>
     <g transform="translate(312.559063 267.148062)scale(0.1 -0.1)">
      <use xlink:href="#DejaVuSans-78"/>
      <use x="74.804688" xlink:href="#DejaVuSans-111"/>
      <use x="135.986328" xlink:href="#DejaVuSans-32"/>
      <use x="167.773438" xlink:href="#DejaVuSans-100"/>
      <use x="231.25" xlink:href="#DejaVuSans-101"/>
      <use x="292.773438" xlink:href="#DejaVuSans-110"/>
      <use x="356.152344" xlink:href="#DejaVuSans-111"/>
      <use x="417.333984" xlink:href="#DejaVuSans-105"/>
      <use x="445.117188" xlink:href="#DejaVuSans-115"/>
      <use x="497.216797" xlink:href="#DejaVuSans-105"/>
      <use x="525" xlink:href="#DejaVuSans-110"/>
      <use x="588.378906" xlink:href="#DejaVuSans-103"/>
     </g>
    </g>
    <g id="line2d_31">
     <path d="M 284.559063 278.326188 
L 304.559063 278.326188 
" style="fill:none;stroke:#0000ff;stroke-linecap:square;stroke-width:1.5;"/>
    </g>
    <g id="line2d_32"/>
    <g id="text_11">
     <!-- With denoising -->
     <defs>
      <path d="M 3.328125 72.90625 
L 13.28125 72.90625 
L 28.609375 11.28125 
L 43.890625 72.90625 
L 54.984375 72.90625 
L 70.3125 11.28125 
L 85.59375 72.90625 
L 95.609375 72.90625 
L 77.296875 0 
L 64.890625 0 
L 49.515625 63.28125 
L 33.984375 0 
L 21.578125 0 
z
" id="DejaVuSans-87"/>
      <path d="M 54.890625 33.015625 
L 54.890625 0 
L 45.90625 0 
L 45.90625 32.71875 
Q 45.90625 40.484375 42.875 44.328125 
Q 39.84375 48.1875 33.796875 48.1875 
Q 26.515625 48.1875 22.3125 43.546875 
Q 18.109375 38.921875 18.109375 30.90625 
L 18.109375 0 
L 9.078125 0 
L 9.078125 75.984375 
L 18.109375 75.984375 
L 18.109375 46.1875 
Q 21.34375 51.125 25.703125 53.5625 
Q 30.078125 56 35.796875 56 
Q 45.21875 56 50.046875 50.171875 
Q 54.890625 44.34375 54.890625 33.015625 
z
" id="DejaVuSans-104"/>
     </defs>
     <g transform="translate(312.559063 281.826188)scale(0.1 -0.1)">
      <use xlink:href="#DejaVuSans-87"/>
      <use x="98.845703" xlink:href="#DejaVuSans-105"/>
      <use x="126.628906" xlink:href="#DejaVuSans-116"/>
      <use x="165.837891" xlink:href="#DejaVuSans-104"/>
      <use x="229.216797" xlink:href="#DejaVuSans-32"/>
      <use x="261.003906" xlink:href="#DejaVuSans-100"/>
      <use x="324.480469" xlink:href="#DejaVuSans-101"/>
      <use x="386.003906" xlink:href="#DejaVuSans-110"/>
      <use x="449.382812" xlink:href="#DejaVuSans-111"/>
      <use x="510.564453" xlink:href="#DejaVuSans-105"/>
      <use x="538.347656" xlink:href="#DejaVuSans-115"/>
      <use x="590.447266" xlink:href="#DejaVuSans-105"/>
      <use x="618.230469" xlink:href="#DejaVuSans-110"/>
      <use x="681.609375" xlink:href="#DejaVuSans-103"/>
     </g>
    </g>
    <g id="line2d_33">
     <path d="M 284.559063 293.004312 
L 304.559063 293.004312 
" style="fill:none;stroke:#00ffff;stroke-linecap:square;stroke-width:1.5;"/>
    </g>
    <g id="line2d_34"/>
    <g id="text_12">
     <!-- With big denoising -->
     <defs>
      <path d="M 48.6875 27.296875 
Q 48.6875 37.203125 44.609375 42.84375 
Q 40.53125 48.484375 33.40625 48.484375 
Q 26.265625 48.484375 22.1875 42.84375 
Q 18.109375 37.203125 18.109375 27.296875 
Q 18.109375 17.390625 22.1875 11.75 
Q 26.265625 6.109375 33.40625 6.109375 
Q 40.53125 6.109375 44.609375 11.75 
Q 48.6875 17.390625 48.6875 27.296875 
z
M 18.109375 46.390625 
Q 20.953125 51.265625 25.265625 53.625 
Q 29.59375 56 35.59375 56 
Q 45.5625 56 51.78125 48.09375 
Q 58.015625 40.1875 58.015625 27.296875 
Q 58.015625 14.40625 51.78125 6.484375 
Q 45.5625 -1.421875 35.59375 -1.421875 
Q 29.59375 -1.421875 25.265625 0.953125 
Q 20.953125 3.328125 18.109375 8.203125 
L 18.109375 0 
L 9.078125 0 
L 9.078125 75.984375 
L 18.109375 75.984375 
z
" id="DejaVuSans-98"/>
     </defs>
     <g transform="translate(312.559063 296.504312)scale(0.1 -0.1)">
      <use xlink:href="#DejaVuSans-87"/>
      <use x="98.845703" xlink:href="#DejaVuSans-105"/>
      <use x="126.628906" xlink:href="#DejaVuSans-116"/>
      <use x="165.837891" xlink:href="#DejaVuSans-104"/>
      <use x="229.216797" xlink:href="#DejaVuSans-32"/>
      <use x="261.003906" xlink:href="#DejaVuSans-98"/>
      <use x="324.480469" xlink:href="#DejaVuSans-105"/>
      <use x="352.263672" xlink:href="#DejaVuSans-103"/>
      <use x="415.740234" xlink:href="#DejaVuSans-32"/>
      <use x="447.527344" xlink:href="#DejaVuSans-100"/>
      <use x="511.003906" xlink:href="#DejaVuSans-101"/>
      <use x="572.527344" xlink:href="#DejaVuSans-110"/>
      <use x="635.90625" xlink:href="#DejaVuSans-111"/>
      <use x="697.087891" xlink:href="#DejaVuSans-105"/>
      <use x="724.871094" xlink:href="#DejaVuSans-115"/>
      <use x="776.970703" xlink:href="#DejaVuSans-105"/>
      <use x="804.753906" xlink:href="#DejaVuSans-110"/>
      <use x="868.132812" xlink:href="#DejaVuSans-103"/>
     </g>
    </g>
   </g>
  </g>
 </g>
 <defs>
  <clipPath id="p7fd1746321">
   <rect height="266.112" width="357.12" x="57.6" y="41.472"/>
  </clipPath>
 </defs>
</svg>
