<?xml version="1.0" encoding="utf-8" standalone="no"?>
<!DOCTYPE svg PUBLIC "-//W3C//DTD SVG 1.1//EN"
  "http://www.w3.org/Graphics/SVG/1.1/DTD/svg11.dtd">
<!-- Created with matplotlib (https://matplotlib.org/) -->
<svg height="345.6pt" version="1.1" viewBox="0 0 460.8 345.6" width="460.8pt" xmlns="http://www.w3.org/2000/svg" xmlns:xlink="http://www.w3.org/1999/xlink">
 <defs>
  <style type="text/css">
*{stroke-linecap:butt;stroke-linejoin:round;white-space:pre;}
  </style>
 </defs>
 <g id="figure_1">
  <g id="patch_1">
   <path d="M 0 345.6 
L 460.8 345.6 
L 460.8 0 
L 0 0 
z
" style="fill:#ffffff;"/>
  </g>
  <g id="axes_1">
   <g id="patch_2">
    <path d="M 57.6 307.584 
L 414.72 307.584 
L 414.72 41.472 
L 57.6 41.472 
z
" style="fill:#ffffff;"/>
   </g>
   <g id="PolyCollection_1">
    <path clip-path="url(#p9b94d30ea4)" d="M 73.832727 253.991134 
L 73.832727 284.772211 
L 77.145529 250.524274 
L 80.45833 224.985213 
L 83.771132 204.548036 
L 87.083933 187.619384 
L 90.396735 173.338177 
L 93.709536 161.157432 
L 97.022338 150.685137 
L 100.335139 141.619812 
L 103.647941 133.72288 
L 106.960742 126.803053 
L 110.273544 120.705326 
L 113.586345 115.3034 
L 116.899147 110.494122 
L 120.211948 106.192712 
L 123.52475 102.329235 
L 126.837551 98.845988 
L 130.150353 95.695151 
L 133.463154 92.836898 
L 136.775955 90.237905 
L 140.088757 87.870111 
L 143.401558 85.709808 
L 146.71436 83.736931 
L 150.027161 81.934425 
L 153.339963 80.287703 
L 156.652764 78.784262 
L 159.965566 77.413361 
L 163.278367 76.165799 
L 166.591169 75.033724 
L 169.90397 74.010471 
L 173.216772 73.090444 
L 176.529573 72.26899 
L 179.842375 71.542337 
L 183.155176 70.907507 
L 186.467978 70.362243 
L 189.780779 69.904957 
L 193.093581 69.534708 
L 196.406382 69.251174 
L 199.719184 69.054612 
L 203.031985 68.945774 
L 206.344787 68.925798 
L 209.657588 68.996044 
L 212.97039 69.157877 
L 216.283191 69.41235 
L 219.595993 69.759729 
L 222.908794 70.198823 
L 226.221596 70.726025 
L 229.534397 71.334192 
L 232.847199 72.011267 
L 236.16 72.739046 
L 239.472801 73.492726 
L 242.785603 74.242047 
L 246.098404 74.954419 
L 249.411206 75.599462 
L 252.724007 76.153314 
L 256.036809 76.601039 
L 259.34961 76.936657 
L 262.662412 77.161475 
L 265.975213 77.281798 
L 269.288015 77.306829 
L 272.600816 77.247069 
L 275.913618 77.113245 
L 279.226419 76.915659 
L 282.539221 76.663842 
L 285.852022 76.366397 
L 289.164824 76.030968 
L 292.477625 75.664275 
L 295.790427 75.272181 
L 299.103228 74.859786 
L 302.41603 74.431512 
L 305.728831 73.991199 
L 309.041633 73.542179 
L 312.354434 73.087355 
L 315.667236 72.629266 
L 318.980037 72.170147 
L 322.292839 71.711969 
L 325.60564 71.256492 
L 328.918442 70.805289 
L 332.231243 70.359782 
L 335.544045 69.921263 
L 338.856846 69.490917 
L 342.169647 69.069844 
L 345.482449 68.659071 
L 348.79525 68.259567 
L 352.108052 67.87226 
L 355.420853 67.49805 
L 358.733655 67.137825 
L 362.046456 66.792471 
L 365.359258 66.462877 
L 368.672059 66.149936 
L 371.984861 65.854553 
L 375.297662 65.577638 
L 378.610464 65.320122 
L 381.923265 65.08297 
L 385.236067 64.867182 
L 388.548868 64.673799 
L 391.86167 64.503914 
L 395.174471 64.358661 
L 398.487273 64.239204 
L 398.487273 53.568 
L 398.487273 53.568 
L 395.174471 53.771243 
L 391.86167 53.992381 
L 388.548868 54.230631 
L 385.236067 54.485278 
L 381.923265 54.755662 
L 378.610464 55.041167 
L 375.297662 55.341212 
L 371.984861 55.655237 
L 368.672059 55.982707 
L 365.359258 56.323097 
L 362.046456 56.675891 
L 358.733655 57.040573 
L 355.420853 57.416627 
L 352.108052 57.803523 
L 348.79525 58.200718 
L 345.482449 58.607644 
L 342.169647 59.023704 
L 338.856846 59.44826 
L 335.544045 59.880627 
L 332.231243 60.320055 
L 328.918442 60.765721 
L 325.60564 61.216706 
L 322.292839 61.671983 
L 318.980037 62.130395 
L 315.667236 62.590623 
L 312.354434 63.051164 
L 309.041633 63.510289 
L 305.728831 63.966003 
L 302.41603 64.41599 
L 299.103228 64.857562 
L 295.790427 65.287584 
L 292.477625 65.702407 
L 289.164824 66.097778 
L 285.852022 66.468753 
L 282.539221 66.809602 
L 279.226419 67.11372 
L 275.913618 67.373568 
L 272.600816 67.580649 
L 269.288015 67.725576 
L 265.975213 67.798302 
L 262.662412 67.788581 
L 259.34961 67.68678 
L 256.036809 67.485152 
L 252.724007 67.179578 
L 249.411206 66.771624 
L 246.098404 66.270311 
L 242.785603 65.692731 
L 239.472801 65.062763 
L 236.16 64.407994 
L 232.847199 63.755912 
L 229.534397 63.130745 
L 226.221596 62.551762 
L 222.908794 62.033008 
L 219.595993 61.583923 
L 216.283191 61.210328 
L 212.97039 60.915447 
L 209.657588 60.700767 
L 206.344787 60.566709 
L 203.031985 60.513101 
L 199.719184 60.539505 
L 196.406382 60.645441 
L 193.093581 60.830539 
L 189.780779 61.094652 
L 186.467978 61.437954 
L 183.155176 61.861018 
L 179.842375 62.364898 
L 176.529573 62.951206 
L 173.216772 63.622166 
L 169.90397 64.380684 
L 166.591169 65.230429 
L 163.278367 66.175927 
L 159.965566 67.222668 
L 156.652764 68.377222 
L 153.339963 69.64739 
L 150.027161 71.042387 
L 146.71436 72.573068 
L 143.401558 74.252208 
L 140.088757 76.094852 
L 136.775955 78.118739 
L 133.463154 80.344825 
L 130.150353 82.797908 
L 126.837551 85.507445 
L 123.52475 88.508621 
L 120.211948 91.843676 
L 116.899147 95.563628 
L 113.586345 99.730444 
L 110.273544 104.419938 
L 106.960742 109.725511 
L 103.647941 115.762985 
L 100.335139 122.676887 
L 97.022338 130.648816 
L 93.709536 139.908898 
L 90.396735 150.753202 
L 87.083933 163.575344 
L 83.771132 178.933763 
L 80.45833 197.710165 
L 77.145529 221.52046 
L 73.832727 253.991134 
z
" style="fill:#ff0000;fill-opacity:0.4;"/>
   </g>
   <g id="PolyCollection_2">
    <path clip-path="url(#p9b94d30ea4)" d="M 73.832727 254.021878 
L 73.832727 286.958453 
L 77.145529 252.646117 
L 80.45833 227.058005 
L 83.771132 206.585371 
L 87.083933 189.631815 
L 90.396735 175.33275 
L 93.709536 163.139666 
L 97.022338 152.659159 
L 100.335139 143.589084 
L 103.647941 135.690804 
L 106.960742 128.772383 
L 110.273544 122.678043 
L 113.586345 117.280936 
L 116.899147 112.477518 
L 120.211948 108.182773 
L 123.52475 104.326791 
L 126.837551 100.851861 
L 130.150353 97.709972 
L 133.463154 94.861041 
L 136.775955 92.271467 
L 140.088757 89.912946 
L 143.401558 87.761577 
L 146.71436 85.797086 
L 150.027161 84.00228 
L 153.339963 82.36261 
L 156.652764 80.865711 
L 159.965566 79.500993 
L 163.278367 78.25937 
L 166.591169 77.133079 
L 169.90397 76.11555 
L 173.216772 75.201309 
L 176.529573 74.385882 
L 179.842375 73.665681 
L 183.155176 73.037912 
L 186.467978 72.500496 
L 189.780779 72.052034 
L 193.093581 71.691782 
L 196.406382 71.419623 
L 199.719184 71.23596 
L 203.031985 71.141612 
L 206.344787 71.137696 
L 209.657588 71.225486 
L 212.97039 71.406211 
L 216.283191 71.680683 
L 219.595993 72.048834 
L 222.908794 72.509014 
L 226.221596 73.056954 
L 229.534397 73.684461 
L 232.847199 74.377844 
L 236.16 75.116601 
L 239.472801 75.873177 
L 242.785603 76.61473 
L 246.098404 77.30711 
L 249.411206 77.92004 
L 252.724007 78.431346 
L 256.036809 78.828715 
L 259.34961 79.108936 
L 262.662412 79.275701 
L 265.975213 79.337123 
L 269.288015 79.303644 
L 272.600816 79.186546 
L 275.913618 78.997013 
L 279.226419 78.745586 
L 282.539221 78.441892 
L 285.852022 78.094545 
L 289.164824 77.711144 
L 292.477625 77.298337 
L 295.790427 76.861909 
L 299.103228 76.406871 
L 302.41603 75.937563 
L 305.728831 75.457736 
L 309.041633 74.970638 
L 312.354434 74.479089 
L 315.667236 73.985546 
L 318.980037 73.492163 
L 322.292839 73.000835 
L 325.60564 72.513239 
L 328.918442 72.030869 
L 332.231243 71.555069 
L 335.544045 71.087064 
L 338.856846 70.627977 
L 342.169647 70.178853 
L 345.482449 69.740665 
L 348.79525 69.314337 
L 352.108052 68.900747 
L 355.420853 68.500743 
L 358.733655 68.115149 
L 362.046456 67.744784 
L 365.359258 67.390465 
L 368.672059 67.053017 
L 371.984861 66.733271 
L 375.297662 66.432076 
L 378.610464 66.150307 
L 381.923265 65.888876 
L 385.236067 65.648739 
L 388.548868 65.430905 
L 391.86167 65.236442 
L 395.174471 65.066472 
L 398.487273 64.922151 
L 398.487273 54.298951 
L 398.487273 54.298951 
L 395.174471 54.505785 
L 391.86167 54.730543 
L 388.548868 54.972452 
L 385.236067 55.23081 
L 381.923265 55.504972 
L 378.610464 55.79434 
L 375.297662 56.098348 
L 371.984861 56.416457 
L 368.672059 56.748142 
L 365.359258 57.092887 
L 362.046456 57.45018 
L 358.733655 57.819509 
L 355.420853 58.200356 
L 352.108052 58.592192 
L 348.79525 58.994471 
L 345.482449 59.406623 
L 342.169647 59.828048 
L 338.856846 60.258109 
L 335.544045 60.696119 
L 332.231243 61.141333 
L 328.918442 61.592934 
L 325.60564 62.050015 
L 322.292839 62.511557 
L 318.980037 62.976413 
L 315.667236 63.443272 
L 312.354434 63.91064 
L 309.041633 64.376799 
L 305.728831 64.839766 
L 302.41603 65.297245 
L 299.103228 65.746569 
L 295.790427 66.184636 
L 292.477625 66.607832 
L 289.164824 67.011953 
L 285.852022 67.392111 
L 282.539221 67.742643 
L 279.226419 68.057021 
L 275.913618 68.327787 
L 272.600816 68.54652 
L 269.288015 68.703887 
L 265.975213 68.78983 
L 262.662412 68.793987 
L 259.34961 68.706413 
L 256.036809 68.518756 
L 252.724007 68.225898 
L 249.411206 67.827972 
L 246.098404 67.332273 
L 242.785603 66.75425 
L 239.472801 66.116724 
L 236.16 65.447153 
L 232.847199 64.773818 
L 229.534397 64.122341 
L 226.221596 63.51357 
L 222.908794 62.962985 
L 219.595993 62.481178 
L 216.283191 62.074838 
L 212.97039 61.747823 
L 209.657588 61.502049 
L 206.344787 61.338192 
L 203.031985 61.256202 
L 199.719184 61.255669 
L 196.406382 61.336078 
L 193.093581 61.496992 
L 189.780779 61.738183 
L 186.467978 62.059722 
L 183.155176 62.462066 
L 179.842375 62.946152 
L 176.529573 63.513476 
L 173.216772 64.166156 
L 169.90397 64.907003 
L 166.591169 65.739595 
L 163.278367 66.668376 
L 159.965566 67.698754 
L 156.652764 68.837224 
L 153.339963 70.091514 
L 150.027161 71.470767 
L 146.71436 72.985767 
L 143.401558 74.649231 
L 140.088757 76.47615 
L 136.775955 78.484222 
L 133.463154 80.694363 
L 130.150353 83.131351 
L 126.837551 85.824632 
L 123.52475 88.809371 
L 120.211948 92.127793 
L 116.899147 95.830882 
L 113.586345 99.980584 
L 110.273544 104.652666 
L 106.960742 109.940477 
L 103.647941 115.95983 
L 100.335139 122.855286 
L 97.022338 130.808496 
L 93.709536 140.049662 
L 90.396735 150.87497 
L 87.083933 163.678186 
L 83.771132 179.01784 
L 80.45833 197.775861 
L 77.145529 221.568418 
L 73.832727 254.021878 
z
" style="fill:#0000ff;fill-opacity:0.4;"/>
   </g>
   <g id="PolyCollection_3">
    <path clip-path="url(#p9b94d30ea4)" d="M 73.832727 286.905781 
L 73.832727 295.488 
L 77.145529 261.067853 
L 80.45833 235.379292 
L 83.771132 214.82054 
L 87.083933 197.793178 
L 90.396735 183.431023 
L 93.709536 171.185134 
L 97.022338 160.663969 
L 100.335139 151.56641 
L 103.647941 143.652532 
L 106.960742 136.72842 
L 110.273544 130.636787 
L 113.586345 125.24959 
L 116.899147 120.462323 
L 120.211948 116.189128 
L 123.52475 112.359529 
L 126.837551 108.915524 
L 130.150353 105.80891 
L 133.463154 102.999342 
L 136.775955 100.45297 
L 140.088757 98.141444 
L 143.401558 96.040841 
L 146.71436 94.130887 
L 150.027161 92.394367 
L 153.339963 90.816627 
L 156.652764 89.385181 
L 159.965566 88.089418 
L 163.278367 86.920375 
L 166.591169 85.870559 
L 169.90397 84.933786 
L 173.216772 84.104991 
L 176.529573 83.380071 
L 179.842375 82.755806 
L 183.155176 82.229803 
L 186.467978 81.80041 
L 189.780779 81.466673 
L 193.093581 81.228313 
L 196.406382 81.085659 
L 199.719184 81.039612 
L 203.031985 81.091555 
L 206.344787 81.243152 
L 209.657588 81.49606 
L 212.97039 81.851537 
L 216.283191 82.309832 
L 219.595993 82.869365 
L 222.908794 83.525385 
L 226.221596 84.267952 
L 229.534397 85.079526 
L 232.847199 85.932858 
L 236.16 86.79079 
L 239.472801 87.609621 
L 242.785603 88.346223 
L 246.098404 88.966083 
L 249.411206 89.448222 
L 252.724007 89.785255 
L 256.036809 89.980253 
L 259.34961 90.042887 
L 262.662412 89.986253 
L 265.975213 89.824708 
L 269.288015 89.572538 
L 272.600816 89.243209 
L 275.913618 88.848997 
L 279.226419 88.400852 
L 282.539221 87.908399 
L 285.852022 87.380012 
L 289.164824 86.822931 
L 292.477625 86.243387 
L 295.790427 85.646731 
L 299.103228 85.037551 
L 302.41603 84.419783 
L 305.728831 83.796808 
L 309.041633 83.17153 
L 312.354434 82.54646 
L 315.667236 81.923769 
L 318.980037 81.305356 
L 322.292839 80.692885 
L 325.60564 80.087825 
L 328.918442 79.491491 
L 332.231243 78.905065 
L 335.544045 78.329626 
L 338.856846 77.766166 
L 342.169647 77.215609 
L 345.482449 76.678822 
L 348.79525 76.156634 
L 352.108052 75.649837 
L 355.420853 75.159208 
L 358.733655 74.685511 
L 362.046456 74.22951 
L 365.359258 73.791982 
L 368.672059 73.373719 
L 371.984861 72.975545 
L 375.297662 72.598319 
L 378.610464 72.242941 
L 381.923265 71.910364 
L 385.236067 71.601602 
L 388.548868 71.317742 
L 391.86167 71.059957 
L 395.174471 70.829521 
L 398.487273 70.627816 
L 398.487273 65.470103 
L 398.487273 65.470103 
L 395.174471 65.696822 
L 391.86167 65.948152 
L 388.548868 66.223006 
L 385.236067 66.520374 
L 381.923265 66.839309 
L 378.610464 67.178916 
L 375.297662 67.538347 
L 371.984861 67.916788 
L 368.672059 68.313461 
L 365.359258 68.727612 
L 362.046456 69.158505 
L 358.733655 69.605418 
L 355.420853 70.067634 
L 352.108052 70.544431 
L 348.79525 71.035078 
L 345.482449 71.538823 
L 342.169647 72.054887 
L 338.856846 72.582449 
L 335.544045 73.120636 
L 332.231243 73.668513 
L 328.918442 74.225059 
L 325.60564 74.789153 
L 322.292839 75.359545 
L 318.980037 75.934832 
L 315.667236 76.513425 
L 312.354434 77.093505 
L 309.041633 77.672983 
L 305.728831 78.249441 
L 302.41603 78.820071 
L 299.103228 79.381593 
L 295.790427 79.930166 
L 292.477625 80.461285 
L 289.164824 80.969657 
L 285.852022 81.449062 
L 282.539221 81.8922 
L 279.226419 82.290524 
L 275.913618 82.634081 
L 272.600816 82.91137 
L 269.288015 83.109278 
L 265.975213 83.213161 
L 262.662412 83.207203 
L 259.34961 83.075244 
L 256.036809 82.802401 
L 252.724007 82.377863 
L 249.411206 81.799102 
L 246.098404 81.076957 
L 242.785603 80.239408 
L 239.472801 79.330461 
L 236.16 78.402323 
L 232.847199 77.504131 
L 229.534397 76.673639 
L 226.221596 75.935011 
L 222.908794 75.301003 
L 219.595993 74.776593 
L 216.283191 74.362168 
L 212.97039 74.055699 
L 209.657588 73.854098 
L 206.344787 73.753978 
L 203.031985 73.752073 
L 199.719184 73.845499 
L 196.406382 74.031891 
L 193.093581 74.309497 
L 189.780779 74.677195 
L 186.467978 75.13451 
L 183.155176 75.681617 
L 179.842375 76.319355 
L 176.529573 77.049244 
L 173.216772 77.873517 
L 169.90397 78.795182 
L 166.591169 79.818084 
L 163.278367 80.946992 
L 159.965566 82.187709 
L 156.652764 83.547223 
L 153.339963 85.033859 
L 150.027161 86.65748 
L 146.71436 88.429714 
L 143.401558 90.364287 
L 140.088757 92.477419 
L 136.775955 94.788308 
L 133.463154 97.319695 
L 130.150353 100.098648 
L 126.837551 103.157489 
L 123.52475 106.534862 
L 120.211948 110.277233 
L 116.899147 114.441051 
L 113.586345 119.095288 
L 110.273544 124.324383 
L 106.960742 130.2321 
L 103.647941 136.946894 
L 100.335139 144.627953 
L 97.022338 153.473242 
L 93.709536 163.729979 
L 90.396735 175.711052 
L 87.083933 189.824146 
L 83.771132 206.634077 
L 80.45833 227.017269 
L 77.145529 252.574671 
L 73.832727 286.905781 
z
" style="fill:#00ffff;fill-opacity:0.4;"/>
   </g>
   <g id="matplotlib.axis_1">
    <g id="xtick_1">
     <g id="line2d_1">
      <path clip-path="url(#p9b94d30ea4)" d="M 70.519926 307.584 
L 70.519926 41.472 
" style="fill:none;stroke:#b0b0b0;stroke-linecap:square;stroke-width:0.8;"/>
     </g>
     <g id="line2d_2">
      <defs>
       <path d="M 0 0 
L 0 3.5 
" id="m732e19c470" style="stroke:#000000;stroke-width:0.8;"/>
      </defs>
      <g>
       <use style="stroke:#000000;stroke-width:0.8;" x="70.519926" xlink:href="#m732e19c470" y="307.584"/>
      </g>
     </g>
     <g id="text_1">
      <!-- 0.0 -->
      <defs>
       <path d="M 31.78125 66.40625 
Q 24.171875 66.40625 20.328125 58.90625 
Q 16.5 51.421875 16.5 36.375 
Q 16.5 21.390625 20.328125 13.890625 
Q 24.171875 6.390625 31.78125 6.390625 
Q 39.453125 6.390625 43.28125 13.890625 
Q 47.125 21.390625 47.125 36.375 
Q 47.125 51.421875 43.28125 58.90625 
Q 39.453125 66.40625 31.78125 66.40625 
z
M 31.78125 74.21875 
Q 44.046875 74.21875 50.515625 64.515625 
Q 56.984375 54.828125 56.984375 36.375 
Q 56.984375 17.96875 50.515625 8.265625 
Q 44.046875 -1.421875 31.78125 -1.421875 
Q 19.53125 -1.421875 13.0625 8.265625 
Q 6.59375 17.96875 6.59375 36.375 
Q 6.59375 54.828125 13.0625 64.515625 
Q 19.53125 74.21875 31.78125 74.21875 
z
" id="DejaVuSans-48"/>
       <path d="M 10.6875 12.40625 
L 21 12.40625 
L 21 0 
L 10.6875 0 
z
" id="DejaVuSans-46"/>
      </defs>
      <g transform="translate(62.568363 322.182437)scale(0.1 -0.1)">
       <use xlink:href="#DejaVuSans-48"/>
       <use x="63.623047" xlink:href="#DejaVuSans-46"/>
       <use x="95.410156" xlink:href="#DejaVuSans-48"/>
      </g>
     </g>
    </g>
    <g id="xtick_2">
     <g id="line2d_3">
      <path clip-path="url(#p9b94d30ea4)" d="M 136.775955 307.584 
L 136.775955 41.472 
" style="fill:none;stroke:#b0b0b0;stroke-linecap:square;stroke-width:0.8;"/>
     </g>
     <g id="line2d_4">
      <g>
       <use style="stroke:#000000;stroke-width:0.8;" x="136.775955" xlink:href="#m732e19c470" y="307.584"/>
      </g>
     </g>
     <g id="text_2">
      <!-- 0.2 -->
      <defs>
       <path d="M 19.1875 8.296875 
L 53.609375 8.296875 
L 53.609375 0 
L 7.328125 0 
L 7.328125 8.296875 
Q 12.9375 14.109375 22.625 23.890625 
Q 32.328125 33.6875 34.8125 36.53125 
Q 39.546875 41.84375 41.421875 45.53125 
Q 43.3125 49.21875 43.3125 52.78125 
Q 43.3125 58.59375 39.234375 62.25 
Q 35.15625 65.921875 28.609375 65.921875 
Q 23.96875 65.921875 18.8125 64.3125 
Q 13.671875 62.703125 7.8125 59.421875 
L 7.8125 69.390625 
Q 13.765625 71.78125 18.9375 73 
Q 24.125 74.21875 28.421875 74.21875 
Q 39.75 74.21875 46.484375 68.546875 
Q 53.21875 62.890625 53.21875 53.421875 
Q 53.21875 48.921875 51.53125 44.890625 
Q 49.859375 40.875 45.40625 35.40625 
Q 44.1875 33.984375 37.640625 27.21875 
Q 31.109375 20.453125 19.1875 8.296875 
z
" id="DejaVuSans-50"/>
      </defs>
      <g transform="translate(128.824393 322.182437)scale(0.1 -0.1)">
       <use xlink:href="#DejaVuSans-48"/>
       <use x="63.623047" xlink:href="#DejaVuSans-46"/>
       <use x="95.410156" xlink:href="#DejaVuSans-50"/>
      </g>
     </g>
    </g>
    <g id="xtick_3">
     <g id="line2d_5">
      <path clip-path="url(#p9b94d30ea4)" d="M 203.031985 307.584 
L 203.031985 41.472 
" style="fill:none;stroke:#b0b0b0;stroke-linecap:square;stroke-width:0.8;"/>
     </g>
     <g id="line2d_6">
      <g>
       <use style="stroke:#000000;stroke-width:0.8;" x="203.031985" xlink:href="#m732e19c470" y="307.584"/>
      </g>
     </g>
     <g id="text_3">
      <!-- 0.4 -->
      <defs>
       <path d="M 37.796875 64.3125 
L 12.890625 25.390625 
L 37.796875 25.390625 
z
M 35.203125 72.90625 
L 47.609375 72.90625 
L 47.609375 25.390625 
L 58.015625 25.390625 
L 58.015625 17.1875 
L 47.609375 17.1875 
L 47.609375 0 
L 37.796875 0 
L 37.796875 17.1875 
L 4.890625 17.1875 
L 4.890625 26.703125 
z
" id="DejaVuSans-52"/>
      </defs>
      <g transform="translate(195.080423 322.182437)scale(0.1 -0.1)">
       <use xlink:href="#DejaVuSans-48"/>
       <use x="63.623047" xlink:href="#DejaVuSans-46"/>
       <use x="95.410156" xlink:href="#DejaVuSans-52"/>
      </g>
     </g>
    </g>
    <g id="xtick_4">
     <g id="line2d_7">
      <path clip-path="url(#p9b94d30ea4)" d="M 269.288015 307.584 
L 269.288015 41.472 
" style="fill:none;stroke:#b0b0b0;stroke-linecap:square;stroke-width:0.8;"/>
     </g>
     <g id="line2d_8">
      <g>
       <use style="stroke:#000000;stroke-width:0.8;" x="269.288015" xlink:href="#m732e19c470" y="307.584"/>
      </g>
     </g>
     <g id="text_4">
      <!-- 0.6 -->
      <defs>
       <path d="M 33.015625 40.375 
Q 26.375 40.375 22.484375 35.828125 
Q 18.609375 31.296875 18.609375 23.390625 
Q 18.609375 15.53125 22.484375 10.953125 
Q 26.375 6.390625 33.015625 6.390625 
Q 39.65625 6.390625 43.53125 10.953125 
Q 47.40625 15.53125 47.40625 23.390625 
Q 47.40625 31.296875 43.53125 35.828125 
Q 39.65625 40.375 33.015625 40.375 
z
M 52.59375 71.296875 
L 52.59375 62.3125 
Q 48.875 64.0625 45.09375 64.984375 
Q 41.3125 65.921875 37.59375 65.921875 
Q 27.828125 65.921875 22.671875 59.328125 
Q 17.53125 52.734375 16.796875 39.40625 
Q 19.671875 43.65625 24.015625 45.921875 
Q 28.375 48.1875 33.59375 48.1875 
Q 44.578125 48.1875 50.953125 41.515625 
Q 57.328125 34.859375 57.328125 23.390625 
Q 57.328125 12.15625 50.6875 5.359375 
Q 44.046875 -1.421875 33.015625 -1.421875 
Q 20.359375 -1.421875 13.671875 8.265625 
Q 6.984375 17.96875 6.984375 36.375 
Q 6.984375 53.65625 15.1875 63.9375 
Q 23.390625 74.21875 37.203125 74.21875 
Q 40.921875 74.21875 44.703125 73.484375 
Q 48.484375 72.75 52.59375 71.296875 
z
" id="DejaVuSans-54"/>
      </defs>
      <g transform="translate(261.336452 322.182437)scale(0.1 -0.1)">
       <use xlink:href="#DejaVuSans-48"/>
       <use x="63.623047" xlink:href="#DejaVuSans-46"/>
       <use x="95.410156" xlink:href="#DejaVuSans-54"/>
      </g>
     </g>
    </g>
    <g id="xtick_5">
     <g id="line2d_9">
      <path clip-path="url(#p9b94d30ea4)" d="M 335.544045 307.584 
L 335.544045 41.472 
" style="fill:none;stroke:#b0b0b0;stroke-linecap:square;stroke-width:0.8;"/>
     </g>
     <g id="line2d_10">
      <g>
       <use style="stroke:#000000;stroke-width:0.8;" x="335.544045" xlink:href="#m732e19c470" y="307.584"/>
      </g>
     </g>
     <g id="text_5">
      <!-- 0.8 -->
      <defs>
       <path d="M 31.78125 34.625 
Q 24.75 34.625 20.71875 30.859375 
Q 16.703125 27.09375 16.703125 20.515625 
Q 16.703125 13.921875 20.71875 10.15625 
Q 24.75 6.390625 31.78125 6.390625 
Q 38.8125 6.390625 42.859375 10.171875 
Q 46.921875 13.96875 46.921875 20.515625 
Q 46.921875 27.09375 42.890625 30.859375 
Q 38.875 34.625 31.78125 34.625 
z
M 21.921875 38.8125 
Q 15.578125 40.375 12.03125 44.71875 
Q 8.5 49.078125 8.5 55.328125 
Q 8.5 64.0625 14.71875 69.140625 
Q 20.953125 74.21875 31.78125 74.21875 
Q 42.671875 74.21875 48.875 69.140625 
Q 55.078125 64.0625 55.078125 55.328125 
Q 55.078125 49.078125 51.53125 44.71875 
Q 48 40.375 41.703125 38.8125 
Q 48.828125 37.15625 52.796875 32.3125 
Q 56.78125 27.484375 56.78125 20.515625 
Q 56.78125 9.90625 50.3125 4.234375 
Q 43.84375 -1.421875 31.78125 -1.421875 
Q 19.734375 -1.421875 13.25 4.234375 
Q 6.78125 9.90625 6.78125 20.515625 
Q 6.78125 27.484375 10.78125 32.3125 
Q 14.796875 37.15625 21.921875 38.8125 
z
M 18.3125 54.390625 
Q 18.3125 48.734375 21.84375 45.5625 
Q 25.390625 42.390625 31.78125 42.390625 
Q 38.140625 42.390625 41.71875 45.5625 
Q 45.3125 48.734375 45.3125 54.390625 
Q 45.3125 60.0625 41.71875 63.234375 
Q 38.140625 66.40625 31.78125 66.40625 
Q 25.390625 66.40625 21.84375 63.234375 
Q 18.3125 60.0625 18.3125 54.390625 
z
" id="DejaVuSans-56"/>
      </defs>
      <g transform="translate(327.592482 322.182437)scale(0.1 -0.1)">
       <use xlink:href="#DejaVuSans-48"/>
       <use x="63.623047" xlink:href="#DejaVuSans-46"/>
       <use x="95.410156" xlink:href="#DejaVuSans-56"/>
      </g>
     </g>
    </g>
    <g id="xtick_6">
     <g id="line2d_11">
      <path clip-path="url(#p9b94d30ea4)" d="M 401.800074 307.584 
L 401.800074 41.472 
" style="fill:none;stroke:#b0b0b0;stroke-linecap:square;stroke-width:0.8;"/>
     </g>
     <g id="line2d_12">
      <g>
       <use style="stroke:#000000;stroke-width:0.8;" x="401.800074" xlink:href="#m732e19c470" y="307.584"/>
      </g>
     </g>
     <g id="text_6">
      <!-- 1.0 -->
      <defs>
       <path d="M 12.40625 8.296875 
L 28.515625 8.296875 
L 28.515625 63.921875 
L 10.984375 60.40625 
L 10.984375 69.390625 
L 28.421875 72.90625 
L 38.28125 72.90625 
L 38.28125 8.296875 
L 54.390625 8.296875 
L 54.390625 0 
L 12.40625 0 
z
" id="DejaVuSans-49"/>
      </defs>
      <g transform="translate(393.848512 322.182437)scale(0.1 -0.1)">
       <use xlink:href="#DejaVuSans-49"/>
       <use x="63.623047" xlink:href="#DejaVuSans-46"/>
       <use x="95.410156" xlink:href="#DejaVuSans-48"/>
      </g>
     </g>
    </g>
    <g id="text_7">
     <!-- $\mathrm{Time \ (seconds)}$ -->
     <defs>
      <path d="M -0.296875 72.90625 
L 61.375 72.90625 
L 61.375 64.59375 
L 35.5 64.59375 
L 35.5 0 
L 25.59375 0 
L 25.59375 64.59375 
L -0.296875 64.59375 
z
" id="DejaVuSans-84"/>
      <path d="M 9.421875 54.6875 
L 18.40625 54.6875 
L 18.40625 0 
L 9.421875 0 
z
M 9.421875 75.984375 
L 18.40625 75.984375 
L 18.40625 64.59375 
L 9.421875 64.59375 
z
" id="DejaVuSans-105"/>
      <path d="M 52 44.1875 
Q 55.375 50.25 60.0625 53.125 
Q 64.75 56 71.09375 56 
Q 79.640625 56 84.28125 50.015625 
Q 88.921875 44.046875 88.921875 33.015625 
L 88.921875 0 
L 79.890625 0 
L 79.890625 32.71875 
Q 79.890625 40.578125 77.09375 44.375 
Q 74.3125 48.1875 68.609375 48.1875 
Q 61.625 48.1875 57.5625 43.546875 
Q 53.515625 38.921875 53.515625 30.90625 
L 53.515625 0 
L 44.484375 0 
L 44.484375 32.71875 
Q 44.484375 40.625 41.703125 44.40625 
Q 38.921875 48.1875 33.109375 48.1875 
Q 26.21875 48.1875 22.15625 43.53125 
Q 18.109375 38.875 18.109375 30.90625 
L 18.109375 0 
L 9.078125 0 
L 9.078125 54.6875 
L 18.109375 54.6875 
L 18.109375 46.1875 
Q 21.1875 51.21875 25.484375 53.609375 
Q 29.78125 56 35.6875 56 
Q 41.65625 56 45.828125 52.96875 
Q 50 49.953125 52 44.1875 
z
" id="DejaVuSans-109"/>
      <path d="M 56.203125 29.59375 
L 56.203125 25.203125 
L 14.890625 25.203125 
Q 15.484375 15.921875 20.484375 11.0625 
Q 25.484375 6.203125 34.421875 6.203125 
Q 39.59375 6.203125 44.453125 7.46875 
Q 49.3125 8.734375 54.109375 11.28125 
L 54.109375 2.78125 
Q 49.265625 0.734375 44.1875 -0.34375 
Q 39.109375 -1.421875 33.890625 -1.421875 
Q 20.796875 -1.421875 13.15625 6.1875 
Q 5.515625 13.8125 5.515625 26.8125 
Q 5.515625 40.234375 12.765625 48.109375 
Q 20.015625 56 32.328125 56 
Q 43.359375 56 49.78125 48.890625 
Q 56.203125 41.796875 56.203125 29.59375 
z
M 47.21875 32.234375 
Q 47.125 39.59375 43.09375 43.984375 
Q 39.0625 48.390625 32.421875 48.390625 
Q 24.90625 48.390625 20.390625 44.140625 
Q 15.875 39.890625 15.1875 32.171875 
z
" id="DejaVuSans-101"/>
      <path d="M 31 75.875 
Q 24.46875 64.65625 21.28125 53.65625 
Q 18.109375 42.671875 18.109375 31.390625 
Q 18.109375 20.125 21.3125 9.0625 
Q 24.515625 -2 31 -13.1875 
L 23.1875 -13.1875 
Q 15.875 -1.703125 12.234375 9.375 
Q 8.59375 20.453125 8.59375 31.390625 
Q 8.59375 42.28125 12.203125 53.3125 
Q 15.828125 64.359375 23.1875 75.875 
z
" id="DejaVuSans-40"/>
      <path d="M 44.28125 53.078125 
L 44.28125 44.578125 
Q 40.484375 46.53125 36.375 47.5 
Q 32.28125 48.484375 27.875 48.484375 
Q 21.1875 48.484375 17.84375 46.4375 
Q 14.5 44.390625 14.5 40.28125 
Q 14.5 37.15625 16.890625 35.375 
Q 19.28125 33.59375 26.515625 31.984375 
L 29.59375 31.296875 
Q 39.15625 29.25 43.1875 25.515625 
Q 47.21875 21.78125 47.21875 15.09375 
Q 47.21875 7.46875 41.1875 3.015625 
Q 35.15625 -1.421875 24.609375 -1.421875 
Q 20.21875 -1.421875 15.453125 -0.5625 
Q 10.6875 0.296875 5.421875 2 
L 5.421875 11.28125 
Q 10.40625 8.6875 15.234375 7.390625 
Q 20.0625 6.109375 24.8125 6.109375 
Q 31.15625 6.109375 34.5625 8.28125 
Q 37.984375 10.453125 37.984375 14.40625 
Q 37.984375 18.0625 35.515625 20.015625 
Q 33.0625 21.96875 24.703125 23.78125 
L 21.578125 24.515625 
Q 13.234375 26.265625 9.515625 29.90625 
Q 5.8125 33.546875 5.8125 39.890625 
Q 5.8125 47.609375 11.28125 51.796875 
Q 16.75 56 26.8125 56 
Q 31.78125 56 36.171875 55.265625 
Q 40.578125 54.546875 44.28125 53.078125 
z
" id="DejaVuSans-115"/>
      <path d="M 48.78125 52.59375 
L 48.78125 44.1875 
Q 44.96875 46.296875 41.140625 47.34375 
Q 37.3125 48.390625 33.40625 48.390625 
Q 24.65625 48.390625 19.8125 42.84375 
Q 14.984375 37.3125 14.984375 27.296875 
Q 14.984375 17.28125 19.8125 11.734375 
Q 24.65625 6.203125 33.40625 6.203125 
Q 37.3125 6.203125 41.140625 7.25 
Q 44.96875 8.296875 48.78125 10.40625 
L 48.78125 2.09375 
Q 45.015625 0.34375 40.984375 -0.53125 
Q 36.96875 -1.421875 32.421875 -1.421875 
Q 20.0625 -1.421875 12.78125 6.34375 
Q 5.515625 14.109375 5.515625 27.296875 
Q 5.515625 40.671875 12.859375 48.328125 
Q 20.21875 56 33.015625 56 
Q 37.15625 56 41.109375 55.140625 
Q 45.0625 54.296875 48.78125 52.59375 
z
" id="DejaVuSans-99"/>
      <path d="M 30.609375 48.390625 
Q 23.390625 48.390625 19.1875 42.75 
Q 14.984375 37.109375 14.984375 27.296875 
Q 14.984375 17.484375 19.15625 11.84375 
Q 23.34375 6.203125 30.609375 6.203125 
Q 37.796875 6.203125 41.984375 11.859375 
Q 46.1875 17.53125 46.1875 27.296875 
Q 46.1875 37.015625 41.984375 42.703125 
Q 37.796875 48.390625 30.609375 48.390625 
z
M 30.609375 56 
Q 42.328125 56 49.015625 48.375 
Q 55.71875 40.765625 55.71875 27.296875 
Q 55.71875 13.875 49.015625 6.21875 
Q 42.328125 -1.421875 30.609375 -1.421875 
Q 18.84375 -1.421875 12.171875 6.21875 
Q 5.515625 13.875 5.515625 27.296875 
Q 5.515625 40.765625 12.171875 48.375 
Q 18.84375 56 30.609375 56 
z
" id="DejaVuSans-111"/>
      <path d="M 54.890625 33.015625 
L 54.890625 0 
L 45.90625 0 
L 45.90625 32.71875 
Q 45.90625 40.484375 42.875 44.328125 
Q 39.84375 48.1875 33.796875 48.1875 
Q 26.515625 48.1875 22.3125 43.546875 
Q 18.109375 38.921875 18.109375 30.90625 
L 18.109375 0 
L 9.078125 0 
L 9.078125 54.6875 
L 18.109375 54.6875 
L 18.109375 46.1875 
Q 21.34375 51.125 25.703125 53.5625 
Q 30.078125 56 35.796875 56 
Q 45.21875 56 50.046875 50.171875 
Q 54.890625 44.34375 54.890625 33.015625 
z
" id="DejaVuSans-110"/>
      <path d="M 45.40625 46.390625 
L 45.40625 75.984375 
L 54.390625 75.984375 
L 54.390625 0 
L 45.40625 0 
L 45.40625 8.203125 
Q 42.578125 3.328125 38.25 0.953125 
Q 33.9375 -1.421875 27.875 -1.421875 
Q 17.96875 -1.421875 11.734375 6.484375 
Q 5.515625 14.40625 5.515625 27.296875 
Q 5.515625 40.1875 11.734375 48.09375 
Q 17.96875 56 27.875 56 
Q 33.9375 56 38.25 53.625 
Q 42.578125 51.265625 45.40625 46.390625 
z
M 14.796875 27.296875 
Q 14.796875 17.390625 18.875 11.75 
Q 22.953125 6.109375 30.078125 6.109375 
Q 37.203125 6.109375 41.296875 11.75 
Q 45.40625 17.390625 45.40625 27.296875 
Q 45.40625 37.203125 41.296875 42.84375 
Q 37.203125 48.484375 30.078125 48.484375 
Q 22.953125 48.484375 18.875 42.84375 
Q 14.796875 37.203125 14.796875 27.296875 
z
" id="DejaVuSans-100"/>
      <path d="M 8.015625 75.875 
L 15.828125 75.875 
Q 23.140625 64.359375 26.78125 53.3125 
Q 30.421875 42.28125 30.421875 31.390625 
Q 30.421875 20.453125 26.78125 9.375 
Q 23.140625 -1.703125 15.828125 -13.1875 
L 8.015625 -13.1875 
Q 14.5 -2 17.703125 9.0625 
Q 20.90625 20.125 20.90625 31.390625 
Q 20.90625 42.671875 17.703125 53.65625 
Q 14.5 64.65625 8.015625 75.875 
z
" id="DejaVuSans-41"/>
     </defs>
     <g transform="translate(197.76 335.860562)scale(0.1 -0.1)">
      <use transform="translate(0 0.015625)" xlink:href="#DejaVuSans-84"/>
      <use transform="translate(61.083984 0.015625)" xlink:href="#DejaVuSans-105"/>
      <use transform="translate(88.867188 0.015625)" xlink:href="#DejaVuSans-109"/>
      <use transform="translate(186.279297 0.015625)" xlink:href="#DejaVuSans-101"/>
      <use transform="translate(280.273113 0.015625)" xlink:href="#DejaVuSans-40"/>
      <use transform="translate(319.286785 0.015625)" xlink:href="#DejaVuSans-115"/>
      <use transform="translate(371.386394 0.015625)" xlink:href="#DejaVuSans-101"/>
      <use transform="translate(432.909832 0.015625)" xlink:href="#DejaVuSans-99"/>
      <use transform="translate(487.8903 0.015625)" xlink:href="#DejaVuSans-111"/>
      <use transform="translate(549.071941 0.015625)" xlink:href="#DejaVuSans-110"/>
      <use transform="translate(612.450847 0.015625)" xlink:href="#DejaVuSans-100"/>
      <use transform="translate(675.92741 0.015625)" xlink:href="#DejaVuSans-115"/>
      <use transform="translate(728.027019 0.015625)" xlink:href="#DejaVuSans-41"/>
     </g>
    </g>
   </g>
   <g id="matplotlib.axis_2">
    <g id="ytick_1">
     <g id="line2d_13">
      <path clip-path="url(#p9b94d30ea4)" d="M 57.6 205.166943 
L 414.72 205.166943 
" style="fill:none;stroke:#b0b0b0;stroke-linecap:square;stroke-width:0.8;"/>
     </g>
     <g id="line2d_14">
      <defs>
       <path d="M 0 0 
L -3.5 0 
" id="m06b6cafbbc" style="stroke:#000000;stroke-width:0.8;"/>
      </defs>
      <g>
       <use style="stroke:#000000;stroke-width:0.8;" x="57.6" xlink:href="#m06b6cafbbc" y="205.166943"/>
      </g>
     </g>
     <g id="text_8">
      <!-- $\mathdefault{10^{-1}}$ -->
      <defs>
       <path d="M 10.59375 35.5 
L 73.1875 35.5 
L 73.1875 27.203125 
L 10.59375 27.203125 
z
" id="DejaVuSans-8722"/>
      </defs>
      <g transform="translate(27.1 208.966162)scale(0.1 -0.1)">
       <use transform="translate(0 0.684375)" xlink:href="#DejaVuSans-49"/>
       <use transform="translate(63.623047 0.684375)" xlink:href="#DejaVuSans-48"/>
       <use transform="translate(128.203125 38.965625)scale(0.7)" xlink:href="#DejaVuSans-8722"/>
       <use transform="translate(186.855469 38.965625)scale(0.7)" xlink:href="#DejaVuSans-49"/>
      </g>
     </g>
    </g>
    <g id="ytick_2">
     <g id="line2d_15">
      <defs>
       <path d="M 0 0 
L -2 0 
" id="ma2787e16ec" style="stroke:#000000;stroke-width:0.6;"/>
      </defs>
      <g>
       <use style="stroke:#000000;stroke-width:0.6;" x="57.6" xlink:href="#ma2787e16ec" y="284.958715"/>
      </g>
     </g>
    </g>
    <g id="ytick_3">
     <g id="line2d_16">
      <g>
       <use style="stroke:#000000;stroke-width:0.6;" x="57.6" xlink:href="#ma2787e16ec" y="265.527089"/>
      </g>
     </g>
    </g>
    <g id="ytick_4">
     <g id="line2d_17">
      <g>
       <use style="stroke:#000000;stroke-width:0.6;" x="57.6" xlink:href="#ma2787e16ec" y="249.650294"/>
      </g>
     </g>
    </g>
    <g id="ytick_5">
     <g id="line2d_18">
      <g>
       <use style="stroke:#000000;stroke-width:0.6;" x="57.6" xlink:href="#ma2787e16ec" y="236.226655"/>
      </g>
     </g>
    </g>
    <g id="ytick_6">
     <g id="line2d_19">
      <g>
       <use style="stroke:#000000;stroke-width:0.6;" x="57.6" xlink:href="#ma2787e16ec" y="224.59857"/>
      </g>
     </g>
    </g>
    <g id="ytick_7">
     <g id="line2d_20">
      <g>
       <use style="stroke:#000000;stroke-width:0.6;" x="57.6" xlink:href="#ma2787e16ec" y="214.341872"/>
      </g>
     </g>
    </g>
    <g id="ytick_8">
     <g id="line2d_21">
      <g>
       <use style="stroke:#000000;stroke-width:0.6;" x="57.6" xlink:href="#ma2787e16ec" y="144.806798"/>
      </g>
     </g>
    </g>
    <g id="ytick_9">
     <g id="line2d_22">
      <g>
       <use style="stroke:#000000;stroke-width:0.6;" x="57.6" xlink:href="#ma2787e16ec" y="109.498376"/>
      </g>
     </g>
    </g>
    <g id="ytick_10">
     <g id="line2d_23">
      <g>
       <use style="stroke:#000000;stroke-width:0.6;" x="57.6" xlink:href="#ma2787e16ec" y="84.446652"/>
      </g>
     </g>
    </g>
    <g id="ytick_11">
     <g id="line2d_24">
      <g>
       <use style="stroke:#000000;stroke-width:0.6;" x="57.6" xlink:href="#ma2787e16ec" y="65.015025"/>
      </g>
     </g>
    </g>
    <g id="ytick_12">
     <g id="line2d_25">
      <g>
       <use style="stroke:#000000;stroke-width:0.6;" x="57.6" xlink:href="#ma2787e16ec" y="49.13823"/>
      </g>
     </g>
    </g>
    <g id="text_9">
     <!-- $\mathrm{Relative \ error}$ ($N_{\mathrm{train}}=1$) -->
     <defs>
      <path d="M 44.390625 34.1875 
Q 47.5625 33.109375 50.5625 29.59375 
Q 53.5625 26.078125 56.59375 19.921875 
L 66.609375 0 
L 56 0 
L 46.6875 18.703125 
Q 43.0625 26.03125 39.671875 28.421875 
Q 36.28125 30.8125 30.421875 30.8125 
L 19.671875 30.8125 
L 19.671875 0 
L 9.8125 0 
L 9.8125 72.90625 
L 32.078125 72.90625 
Q 44.578125 72.90625 50.734375 67.671875 
Q 56.890625 62.453125 56.890625 51.90625 
Q 56.890625 45.015625 53.6875 40.46875 
Q 50.484375 35.9375 44.390625 34.1875 
z
M 19.671875 64.796875 
L 19.671875 38.921875 
L 32.078125 38.921875 
Q 39.203125 38.921875 42.84375 42.21875 
Q 46.484375 45.515625 46.484375 51.90625 
Q 46.484375 58.296875 42.84375 61.546875 
Q 39.203125 64.796875 32.078125 64.796875 
z
" id="DejaVuSans-82"/>
      <path d="M 9.421875 75.984375 
L 18.40625 75.984375 
L 18.40625 0 
L 9.421875 0 
z
" id="DejaVuSans-108"/>
      <path d="M 34.28125 27.484375 
Q 23.390625 27.484375 19.1875 25 
Q 14.984375 22.515625 14.984375 16.5 
Q 14.984375 11.71875 18.140625 8.90625 
Q 21.296875 6.109375 26.703125 6.109375 
Q 34.1875 6.109375 38.703125 11.40625 
Q 43.21875 16.703125 43.21875 25.484375 
L 43.21875 27.484375 
z
M 52.203125 31.203125 
L 52.203125 0 
L 43.21875 0 
L 43.21875 8.296875 
Q 40.140625 3.328125 35.546875 0.953125 
Q 30.953125 -1.421875 24.3125 -1.421875 
Q 15.921875 -1.421875 10.953125 3.296875 
Q 6 8.015625 6 15.921875 
Q 6 25.140625 12.171875 29.828125 
Q 18.359375 34.515625 30.609375 34.515625 
L 43.21875 34.515625 
L 43.21875 35.40625 
Q 43.21875 41.609375 39.140625 45 
Q 35.0625 48.390625 27.6875 48.390625 
Q 23 48.390625 18.546875 47.265625 
Q 14.109375 46.140625 10.015625 43.890625 
L 10.015625 52.203125 
Q 14.9375 54.109375 19.578125 55.046875 
Q 24.21875 56 28.609375 56 
Q 40.484375 56 46.34375 49.84375 
Q 52.203125 43.703125 52.203125 31.203125 
z
" id="DejaVuSans-97"/>
      <path d="M 18.3125 70.21875 
L 18.3125 54.6875 
L 36.8125 54.6875 
L 36.8125 47.703125 
L 18.3125 47.703125 
L 18.3125 18.015625 
Q 18.3125 11.328125 20.140625 9.421875 
Q 21.96875 7.515625 27.59375 7.515625 
L 36.8125 7.515625 
L 36.8125 0 
L 27.59375 0 
Q 17.1875 0 13.234375 3.875 
Q 9.28125 7.765625 9.28125 18.015625 
L 9.28125 47.703125 
L 2.6875 47.703125 
L 2.6875 54.6875 
L 9.28125 54.6875 
L 9.28125 70.21875 
z
" id="DejaVuSans-116"/>
      <path d="M 2.984375 54.6875 
L 12.5 54.6875 
L 29.59375 8.796875 
L 46.6875 54.6875 
L 56.203125 54.6875 
L 35.6875 0 
L 23.484375 0 
z
" id="DejaVuSans-118"/>
      <path d="M 41.109375 46.296875 
Q 39.59375 47.171875 37.8125 47.578125 
Q 36.03125 48 33.890625 48 
Q 26.265625 48 22.1875 43.046875 
Q 18.109375 38.09375 18.109375 28.8125 
L 18.109375 0 
L 9.078125 0 
L 9.078125 54.6875 
L 18.109375 54.6875 
L 18.109375 46.1875 
Q 20.953125 51.171875 25.484375 53.578125 
Q 30.03125 56 36.53125 56 
Q 37.453125 56 38.578125 55.875 
Q 39.703125 55.765625 41.0625 55.515625 
z
" id="DejaVuSans-114"/>
      <path id="DejaVuSans-32"/>
      <path d="M 16.890625 72.90625 
L 30.171875 72.90625 
L 50.296875 10.40625 
L 62.5 72.90625 
L 72.125 72.90625 
L 57.90625 0 
L 44.578125 0 
L 24.515625 62.890625 
L 12.3125 0 
L 2.6875 0 
z
" id="DejaVuSans-Oblique-78"/>
      <path d="M 10.59375 45.40625 
L 73.1875 45.40625 
L 73.1875 37.203125 
L 10.59375 37.203125 
z
M 10.59375 25.484375 
L 73.1875 25.484375 
L 73.1875 17.1875 
L 10.59375 17.1875 
z
" id="DejaVuSans-61"/>
     </defs>
     <g transform="translate(21.020312 235.678)rotate(-90)scale(0.1 -0.1)">
      <use transform="translate(0 0.015625)" xlink:href="#DejaVuSans-82"/>
      <use transform="translate(69.482422 0.015625)" xlink:href="#DejaVuSans-101"/>
      <use transform="translate(131.005859 0.015625)" xlink:href="#DejaVuSans-108"/>
      <use transform="translate(158.789062 0.015625)" xlink:href="#DejaVuSans-97"/>
      <use transform="translate(220.068359 0.015625)" xlink:href="#DejaVuSans-116"/>
      <use transform="translate(259.277344 0.015625)" xlink:href="#DejaVuSans-105"/>
      <use transform="translate(287.060547 0.015625)" xlink:href="#DejaVuSans-118"/>
      <use transform="translate(346.240234 0.015625)" xlink:href="#DejaVuSans-101"/>
      <use transform="translate(440.23405 0.015625)" xlink:href="#DejaVuSans-101"/>
      <use transform="translate(501.757488 0.015625)" xlink:href="#DejaVuSans-114"/>
      <use transform="translate(542.870769 0.015625)" xlink:href="#DejaVuSans-114"/>
      <use transform="translate(583.98405 0.015625)" xlink:href="#DejaVuSans-111"/>
      <use transform="translate(645.165691 0.015625)" xlink:href="#DejaVuSans-114"/>
      <use transform="translate(686.278972 0.015625)" xlink:href="#DejaVuSans-32"/>
      <use transform="translate(718.066082 0.015625)" xlink:href="#DejaVuSans-40"/>
      <use transform="translate(757.079753 0.015625)" xlink:href="#DejaVuSans-Oblique-78"/>
      <use transform="translate(831.884441 -16.390625)scale(0.7)" xlink:href="#DejaVuSans-116"/>
      <use transform="translate(859.33073 -16.390625)scale(0.7)" xlink:href="#DejaVuSans-114"/>
      <use transform="translate(888.110027 -16.390625)scale(0.7)" xlink:href="#DejaVuSans-97"/>
      <use transform="translate(931.005535 -16.390625)scale(0.7)" xlink:href="#DejaVuSans-105"/>
      <use transform="translate(950.453777 -16.390625)scale(0.7)" xlink:href="#DejaVuSans-110"/>
      <use transform="translate(1017.035808 0.015625)" xlink:href="#DejaVuSans-61"/>
      <use transform="translate(1120.307292 0.015625)" xlink:href="#DejaVuSans-49"/>
      <use transform="translate(1183.930339 0.015625)" xlink:href="#DejaVuSans-41"/>
     </g>
    </g>
   </g>
   <g id="line2d_26">
    <path clip-path="url(#p9b94d30ea4)" d="M 73.832724 268.028653 
L 77.145522 234.820383 
L 80.458321 210.28417 
L 83.771119 190.802495 
L 87.083917 174.770154 
L 90.396716 161.315544 
L 93.709554 149.886657 
L 97.022352 140.091965 
L 100.33515 131.634258 
L 103.647949 124.280747 
L 106.960747 117.846326 
L 110.273545 112.182484 
L 113.586344 107.169261 
L 116.899142 102.709261 
L 120.21194 98.72298 
L 123.524738 95.145045 
L 126.837537 91.921575 
L 130.150375 89.007979 
L 133.463173 86.367044 
L 136.775971 83.967666 
L 140.08877 81.78361 
L 143.401568 79.792693 
L 146.714366 77.976216 
L 150.027165 76.318214 
L 153.339963 74.805134 
L 156.652761 73.425367 
L 159.96556 72.169031 
L 163.278358 71.02769 
L 166.591156 69.994198 
L 169.903955 69.062537 
L 173.216753 68.227681 
L 176.529551 67.485519 
L 179.842389 66.832777 
L 183.155187 66.266854 
L 186.467986 65.785829 
L 189.780784 65.388421 
L 193.093582 65.073905 
L 196.406381 64.842044 
L 199.719179 64.693035 
L 203.031977 64.627405 
L 206.344776 64.645999 
L 209.657574 64.749669 
L 212.970412 64.939164 
L 216.28321 65.214817 
L 219.596008 65.575917 
L 222.908807 66.02022 
L 226.221605 66.543025 
L 232.847202 67.785808 
L 246.098395 70.504167 
L 249.411193 71.073729 
L 252.723992 71.550899 
L 256.03679 71.92386 
L 259.349588 72.188964 
L 262.662387 72.348991 
L 265.975185 72.410995 
L 269.288023 72.384487 
L 272.600821 72.279793 
L 275.913619 72.107311 
L 282.539216 71.597389 
L 289.164852 70.92283 
L 295.790449 70.136878 
L 305.728844 68.834405 
L 342.169625 63.901997 
L 352.10806 62.692459 
L 362.046455 61.587362 
L 371.984889 60.605643 
L 381.923284 59.766312 
L 388.548881 59.295761 
L 395.174478 58.904138 
L 398.487276 58.740231 
" style="fill:none;stroke:#ff0000;stroke-linecap:square;stroke-width:1.5;"/>
   </g>
   <g id="line2d_27">
    <path clip-path="url(#p9b94d30ea4)" d="M 73.832724 268.942174 
L 77.145522 235.728188 
L 80.458321 211.191887 
L 83.771119 191.715252 
L 87.083917 175.691655 
L 90.396716 162.248021 
L 93.709554 150.831588 
L 97.022352 141.050279 
L 100.33515 132.606555 
L 103.647949 125.26767 
L 106.960747 118.848357 
L 110.273545 113.199794 
L 113.586344 108.201835 
L 116.899142 103.757022 
L 120.21194 99.785794 
L 123.524738 96.222903 
L 126.837537 93.014484 
L 130.150375 90.115927 
L 133.463173 87.489925 
L 136.775971 85.105253 
L 140.08877 82.935635 
L 143.401568 80.958842 
L 146.714366 79.156041 
L 150.027165 77.511304 
L 153.339963 76.011107 
L 156.652761 74.643958 
L 159.96556 73.400074 
L 163.278358 72.271166 
L 166.591156 71.250127 
L 169.903955 70.331065 
L 173.216753 69.50904 
L 176.529551 68.780099 
L 179.842389 68.141077 
L 183.155187 67.589542 
L 186.467986 67.123725 
L 189.780784 66.742497 
L 193.093582 66.445288 
L 196.406381 66.231976 
L 199.719179 66.102927 
L 203.031977 66.058706 
L 206.344776 66.100178 
L 209.657574 66.228129 
L 212.970412 66.443182 
L 216.28321 66.745388 
L 219.596008 67.13367 
L 222.908807 67.605251 
L 226.221605 68.154582 
L 232.847202 69.443503 
L 242.785597 71.544996 
L 246.098395 72.176943 
L 249.411193 72.7279 
L 252.723992 73.179192 
L 256.03679 73.521238 
L 259.349588 73.75243 
L 262.662387 73.877252 
L 265.975185 73.903879 
L 269.288023 73.84259 
L 272.600821 73.704121 
L 275.913619 73.499104 
L 282.539216 72.928043 
L 289.164852 72.197328 
L 295.790449 71.359726 
L 305.728844 69.987026 
L 338.856827 65.288769 
L 348.795222 64.001624 
L 358.733656 62.815273 
L 368.672051 61.748252 
L 378.610486 60.818477 
L 388.548881 60.044789 
L 395.174478 59.626153 
L 398.487276 59.448671 
" style="fill:none;stroke:#0000ff;stroke-linecap:square;stroke-width:1.5;"/>
   </g>
   <g id="line2d_28">
    <path clip-path="url(#p9b94d30ea4)" d="M 73.832724 291.091201 
L 77.145522 256.717756 
L 80.458321 231.097955 
L 83.771119 210.631148 
L 87.083917 193.71755 
L 90.396716 179.485524 
L 93.709554 167.377792 
L 97.022352 156.994421 
L 100.33515 148.028086 
L 103.647949 140.235189 
L 106.960747 133.419707 
L 110.273545 127.423382 
L 113.586344 122.118087 
L 116.899142 117.399649 
L 120.21194 113.183033 
L 123.524738 109.398514 
L 126.837537 105.988933 
L 130.150375 102.906989 
L 133.463173 100.11322 
L 136.775971 97.574585 
L 140.08877 95.263392 
L 143.401568 93.156324 
L 146.714366 91.23365 
L 150.027165 89.478675 
L 153.339963 87.877251 
L 156.652761 86.417282 
L 159.96556 85.088571 
L 163.278358 83.882477 
L 166.591156 82.791742 
L 169.903955 81.810408 
L 173.216753 80.933532 
L 176.529551 80.157141 
L 179.842389 79.478127 
L 183.155187 78.89418 
L 186.467986 78.403694 
L 189.780784 78.005784 
L 193.093582 77.700208 
L 196.406381 77.487378 
L 199.719179 77.368294 
L 203.031977 77.344508 
L 206.344776 77.41808 
L 209.657574 77.591284 
L 212.970412 77.866405 
L 216.28321 78.245362 
L 219.596008 78.729013 
L 222.908807 79.316137 
L 226.221605 80.001843 
L 229.534403 80.775196 
L 236.16 82.495581 
L 242.785597 84.198525 
L 246.098395 84.932199 
L 249.411193 85.539713 
L 252.723992 86.002808 
L 256.03679 86.317393 
L 259.349588 86.489398 
L 262.662387 86.530775 
L 265.975185 86.456201 
L 269.288023 86.280968 
L 272.600821 86.019758 
L 275.913619 85.686098 
L 282.539216 84.848343 
L 289.164852 83.847127 
L 299.103247 82.163671 
L 338.856827 75.135739 
L 348.795222 73.558217 
L 358.733656 72.108438 
L 368.672051 70.806828 
L 375.297688 70.031583 
L 381.923284 69.337919 
L 388.548881 68.733133 
L 395.174478 68.22536 
L 398.487276 68.010786 
" style="fill:none;stroke:#00ffff;stroke-linecap:square;stroke-width:1.5;"/>
   </g>
   <g id="patch_3">
    <path d="M 57.6 307.584 
L 57.6 41.472 
" style="fill:none;stroke:#000000;stroke-linecap:square;stroke-linejoin:miter;stroke-width:0.8;"/>
   </g>
   <g id="patch_4">
    <path d="M 414.72 307.584 
L 414.72 41.472 
" style="fill:none;stroke:#000000;stroke-linecap:square;stroke-linejoin:miter;stroke-width:0.8;"/>
   </g>
   <g id="patch_5">
    <path d="M 57.6 307.584 
L 414.72 307.584 
" style="fill:none;stroke:#000000;stroke-linecap:square;stroke-linejoin:miter;stroke-width:0.8;"/>
   </g>
   <g id="patch_6">
    <path d="M 57.6 41.472 
L 414.72 41.472 
" style="fill:none;stroke:#000000;stroke-linecap:square;stroke-linejoin:miter;stroke-width:0.8;"/>
   </g>
   <g id="legend_1">
    <g id="patch_7">
     <path d="M 282.559063 302.584 
L 407.72 302.584 
Q 409.72 302.584 409.72 300.584 
L 409.72 257.549625 
Q 409.72 255.549625 407.72 255.549625 
L 282.559063 255.549625 
Q 280.559063 255.549625 280.559063 257.549625 
L 280.559063 300.584 
Q 280.559063 302.584 282.559063 302.584 
z
" style="fill:#ffffff;opacity:0.8;stroke:#cccccc;stroke-linejoin:miter;"/>
    </g>
    <g id="line2d_29">
     <path d="M 284.559063 263.648062 
L 304.559063 263.648062 
" style="fill:none;stroke:#ff0000;stroke-linecap:square;stroke-width:1.5;"/>
    </g>
    <g id="line2d_30"/>
    <g id="text_10">
     <!-- No denoising -->
     <defs>
      <path d="M 9.8125 72.90625 
L 23.09375 72.90625 
L 55.421875 11.921875 
L 55.421875 72.90625 
L 64.984375 72.90625 
L 64.984375 0 
L 51.703125 0 
L 19.390625 60.984375 
L 19.390625 0 
L 9.8125 0 
z
" id="DejaVuSans-78"/>
      <path d="M 45.40625 27.984375 
Q 45.40625 37.75 41.375 43.109375 
Q 37.359375 48.484375 30.078125 48.484375 
Q 22.859375 48.484375 18.828125 43.109375 
Q 14.796875 37.75 14.796875 27.984375 
Q 14.796875 18.265625 18.828125 12.890625 
Q 22.859375 7.515625 30.078125 7.515625 
Q 37.359375 7.515625 41.375 12.890625 
Q 45.40625 18.265625 45.40625 27.984375 
z
M 54.390625 6.78125 
Q 54.390625 -7.171875 48.1875 -13.984375 
Q 42 -20.796875 29.203125 -20.796875 
Q 24.46875 -20.796875 20.265625 -20.09375 
Q 16.0625 -19.390625 12.109375 -17.921875 
L 12.109375 -9.1875 
Q 16.0625 -11.328125 19.921875 -12.34375 
Q 23.78125 -13.375 27.78125 -13.375 
Q 36.625 -13.375 41.015625 -8.765625 
Q 45.40625 -4.15625 45.40625 5.171875 
L 45.40625 9.625 
Q 42.625 4.78125 38.28125 2.390625 
Q 33.9375 0 27.875 0 
Q 17.828125 0 11.671875 7.65625 
Q 5.515625 15.328125 5.515625 27.984375 
Q 5.515625 40.671875 11.671875 48.328125 
Q 17.828125 56 27.875 56 
Q 33.9375 56 38.28125 53.609375 
Q 42.625 51.21875 45.40625 46.390625 
L 45.40625 54.6875 
L 54.390625 54.6875 
z
" id="DejaVuSans-103"/>
     </defs>
     <g transform="translate(312.559063 267.148062)scale(0.1 -0.1)">
      <use xlink:href="#DejaVuSans-78"/>
      <use x="74.804688" xlink:href="#DejaVuSans-111"/>
      <use x="135.986328" xlink:href="#DejaVuSans-32"/>
      <use x="167.773438" xlink:href="#DejaVuSans-100"/>
      <use x="231.25" xlink:href="#DejaVuSans-101"/>
      <use x="292.773438" xlink:href="#DejaVuSans-110"/>
      <use x="356.152344" xlink:href="#DejaVuSans-111"/>
      <use x="417.333984" xlink:href="#DejaVuSans-105"/>
      <use x="445.117188" xlink:href="#DejaVuSans-115"/>
      <use x="497.216797" xlink:href="#DejaVuSans-105"/>
      <use x="525" xlink:href="#DejaVuSans-110"/>
      <use x="588.378906" xlink:href="#DejaVuSans-103"/>
     </g>
    </g>
    <g id="line2d_31">
     <path d="M 284.559063 278.326188 
L 304.559063 278.326188 
" style="fill:none;stroke:#0000ff;stroke-linecap:square;stroke-width:1.5;"/>
    </g>
    <g id="line2d_32"/>
    <g id="text_11">
     <!-- With denoising -->
     <defs>
      <path d="M 3.328125 72.90625 
L 13.28125 72.90625 
L 28.609375 11.28125 
L 43.890625 72.90625 
L 54.984375 72.90625 
L 70.3125 11.28125 
L 85.59375 72.90625 
L 95.609375 72.90625 
L 77.296875 0 
L 64.890625 0 
L 49.515625 63.28125 
L 33.984375 0 
L 21.578125 0 
z
" id="DejaVuSans-87"/>
      <path d="M 54.890625 33.015625 
L 54.890625 0 
L 45.90625 0 
L 45.90625 32.71875 
Q 45.90625 40.484375 42.875 44.328125 
Q 39.84375 48.1875 33.796875 48.1875 
Q 26.515625 48.1875 22.3125 43.546875 
Q 18.109375 38.921875 18.109375 30.90625 
L 18.109375 0 
L 9.078125 0 
L 9.078125 75.984375 
L 18.109375 75.984375 
L 18.109375 46.1875 
Q 21.34375 51.125 25.703125 53.5625 
Q 30.078125 56 35.796875 56 
Q 45.21875 56 50.046875 50.171875 
Q 54.890625 44.34375 54.890625 33.015625 
z
" id="DejaVuSans-104"/>
     </defs>
     <g transform="translate(312.559063 281.826188)scale(0.1 -0.1)">
      <use xlink:href="#DejaVuSans-87"/>
      <use x="98.845703" xlink:href="#DejaVuSans-105"/>
      <use x="126.628906" xlink:href="#DejaVuSans-116"/>
      <use x="165.837891" xlink:href="#DejaVuSans-104"/>
      <use x="229.216797" xlink:href="#DejaVuSans-32"/>
      <use x="261.003906" xlink:href="#DejaVuSans-100"/>
      <use x="324.480469" xlink:href="#DejaVuSans-101"/>
      <use x="386.003906" xlink:href="#DejaVuSans-110"/>
      <use x="449.382812" xlink:href="#DejaVuSans-111"/>
      <use x="510.564453" xlink:href="#DejaVuSans-105"/>
      <use x="538.347656" xlink:href="#DejaVuSans-115"/>
      <use x="590.447266" xlink:href="#DejaVuSans-105"/>
      <use x="618.230469" xlink:href="#DejaVuSans-110"/>
      <use x="681.609375" xlink:href="#DejaVuSans-103"/>
     </g>
    </g>
    <g id="line2d_33">
     <path d="M 284.559063 293.004312 
L 304.559063 293.004312 
" style="fill:none;stroke:#00ffff;stroke-linecap:square;stroke-width:1.5;"/>
    </g>
    <g id="line2d_34"/>
    <g id="text_12">
     <!-- With big denoising -->
     <defs>
      <path d="M 48.6875 27.296875 
Q 48.6875 37.203125 44.609375 42.84375 
Q 40.53125 48.484375 33.40625 48.484375 
Q 26.265625 48.484375 22.1875 42.84375 
Q 18.109375 37.203125 18.109375 27.296875 
Q 18.109375 17.390625 22.1875 11.75 
Q 26.265625 6.109375 33.40625 6.109375 
Q 40.53125 6.109375 44.609375 11.75 
Q 48.6875 17.390625 48.6875 27.296875 
z
M 18.109375 46.390625 
Q 20.953125 51.265625 25.265625 53.625 
Q 29.59375 56 35.59375 56 
Q 45.5625 56 51.78125 48.09375 
Q 58.015625 40.1875 58.015625 27.296875 
Q 58.015625 14.40625 51.78125 6.484375 
Q 45.5625 -1.421875 35.59375 -1.421875 
Q 29.59375 -1.421875 25.265625 0.953125 
Q 20.953125 3.328125 18.109375 8.203125 
L 18.109375 0 
L 9.078125 0 
L 9.078125 75.984375 
L 18.109375 75.984375 
z
" id="DejaVuSans-98"/>
     </defs>
     <g transform="translate(312.559063 296.504312)scale(0.1 -0.1)">
      <use xlink:href="#DejaVuSans-87"/>
      <use x="98.845703" xlink:href="#DejaVuSans-105"/>
      <use x="126.628906" xlink:href="#DejaVuSans-116"/>
      <use x="165.837891" xlink:href="#DejaVuSans-104"/>
      <use x="229.216797" xlink:href="#DejaVuSans-32"/>
      <use x="261.003906" xlink:href="#DejaVuSans-98"/>
      <use x="324.480469" xlink:href="#DejaVuSans-105"/>
      <use x="352.263672" xlink:href="#DejaVuSans-103"/>
      <use x="415.740234" xlink:href="#DejaVuSans-32"/>
      <use x="447.527344" xlink:href="#DejaVuSans-100"/>
      <use x="511.003906" xlink:href="#DejaVuSans-101"/>
      <use x="572.527344" xlink:href="#DejaVuSans-110"/>
      <use x="635.90625" xlink:href="#DejaVuSans-111"/>
      <use x="697.087891" xlink:href="#DejaVuSans-105"/>
      <use x="724.871094" xlink:href="#DejaVuSans-115"/>
      <use x="776.970703" xlink:href="#DejaVuSans-105"/>
      <use x="804.753906" xlink:href="#DejaVuSans-110"/>
      <use x="868.132812" xlink:href="#DejaVuSans-103"/>
     </g>
    </g>
   </g>
  </g>
 </g>
 <defs>
  <clipPath id="p9b94d30ea4">
   <rect height="266.112" width="357.12" x="57.6" y="41.472"/>
  </clipPath>
 </defs>
</svg>
