<?xml version="1.0" encoding="utf-8" standalone="no"?>
<!DOCTYPE svg PUBLIC "-//W3C//DTD SVG 1.1//EN"
  "http://www.w3.org/Graphics/SVG/1.1/DTD/svg11.dtd">
<!-- Created with matplotlib (https://matplotlib.org/) -->
<svg height="345.6pt" version="1.1" viewBox="0 0 460.8 345.6" width="460.8pt" xmlns="http://www.w3.org/2000/svg" xmlns:xlink="http://www.w3.org/1999/xlink">
 <defs>
  <style type="text/css">
*{stroke-linecap:butt;stroke-linejoin:round;white-space:pre;}
  </style>
 </defs>
 <g id="figure_1">
  <g id="patch_1">
   <path d="M 0 345.6 
L 460.8 345.6 
L 460.8 0 
L 0 0 
z
" style="fill:#ffffff;"/>
  </g>
  <g id="axes_1">
   <g id="patch_2">
    <path d="M 57.6 307.584 
L 414.72 307.584 
L 414.72 41.472 
L 57.6 41.472 
z
" style="fill:#ffffff;"/>
   </g>
   <g id="PolyCollection_1">
    <path clip-path="url(#pb6c909440c)" d="M 73.832727 247.886496 
L 73.832727 265.088155 
L 77.145529 235.548936 
L 80.45833 213.320833 
L 83.771132 195.408115 
L 87.083933 180.501626 
L 90.396735 167.901553 
L 93.709536 157.157675 
L 97.022338 147.936377 
L 100.335139 139.970903 
L 103.647941 133.043069 
L 106.960742 126.974583 
L 110.273544 121.621292 
L 113.586345 116.867395 
L 116.899147 112.619466 
L 120.211948 108.802097 
L 123.52475 105.354919 
L 126.837551 102.229619 
L 130.150353 99.386873 
L 133.463154 96.794266 
L 136.775955 94.424641 
L 140.088757 92.255317 
L 143.401558 90.267318 
L 146.71436 88.444694 
L 150.027161 86.774106 
L 153.339963 85.244417 
L 156.652764 83.846217 
L 159.965566 82.571529 
L 163.278367 81.413532 
L 166.591169 80.36638 
L 169.90397 79.425103 
L 173.216772 78.585491 
L 176.529573 77.84403 
L 179.842375 77.197754 
L 183.155176 76.64407 
L 186.467978 76.180726 
L 189.780779 75.805934 
L 193.093581 75.51845 
L 196.406382 75.317454 
L 199.719184 75.202434 
L 203.031985 75.173006 
L 206.344787 75.228695 
L 209.657588 75.368545 
L 212.97039 75.590518 
L 216.283191 75.890656 
L 219.595993 76.261968 
L 222.908794 76.693054 
L 226.221596 77.166742 
L 229.534397 77.659506 
L 232.847199 78.14252 
L 236.16 78.584714 
L 239.472801 78.957307 
L 242.785603 79.238127 
L 246.098404 79.413963 
L 249.411206 79.480431 
L 252.724007 79.440159 
L 256.036809 79.300451 
L 259.34961 79.071247 
L 262.662412 78.76361 
L 265.975213 78.388731 
L 269.288015 77.957317 
L 272.600816 77.479261 
L 275.913618 76.963489 
L 279.226419 76.417912 
L 282.539221 75.849455 
L 285.852022 75.264141 
L 289.164824 74.667158 
L 292.477625 74.062953 
L 295.790427 73.455316 
L 299.103228 72.847471 
L 302.41603 72.242157 
L 305.728831 71.641708 
L 309.041633 71.048133 
L 312.354434 70.463176 
L 315.667236 69.888361 
L 318.980037 69.325017 
L 322.292839 68.774309 
L 325.60564 68.237262 
L 328.918442 67.714806 
L 332.231243 67.207817 
L 335.544045 66.71712 
L 338.856846 66.243517 
L 342.169647 65.787793 
L 345.482449 65.350713 
L 348.79525 64.933022 
L 352.108052 64.53544 
L 355.420853 64.158643 
L 358.733655 63.803273 
L 362.046456 63.469957 
L 365.359258 63.15933 
L 368.672059 62.872042 
L 371.984861 62.608773 
L 375.297662 62.37025 
L 378.610464 62.157276 
L 381.923265 61.970741 
L 385.236067 61.811617 
L 388.548868 61.680974 
L 391.86167 61.579988 
L 395.174471 61.509965 
L 398.487273 61.472337 
L 398.487273 53.568 
L 398.487273 53.568 
L 395.174471 53.713746 
L 391.86167 53.885531 
L 388.548868 54.082631 
L 385.236067 54.304327 
L 381.923265 54.549913 
L 378.610464 54.818691 
L 375.297662 55.109987 
L 371.984861 55.423154 
L 368.672059 55.757569 
L 365.359258 56.112628 
L 362.046456 56.487728 
L 358.733655 56.882261 
L 355.420853 57.295606 
L 352.108052 57.727133 
L 348.79525 58.176193 
L 345.482449 58.642116 
L 342.169647 59.124227 
L 338.856846 59.621846 
L 335.544045 60.134294 
L 332.231243 60.660864 
L 328.918442 61.200808 
L 325.60564 61.753314 
L 322.292839 62.317486 
L 318.980037 62.89232 
L 315.667236 63.47667 
L 312.354434 64.069222 
L 309.041633 64.668469 
L 305.728831 65.272683 
L 302.41603 65.879875 
L 299.103228 66.487731 
L 295.790427 67.093549 
L 292.477625 67.694161 
L 289.164824 68.285847 
L 285.852022 68.864244 
L 282.539221 69.424235 
L 279.226419 69.959849 
L 275.913618 70.464172 
L 272.600816 70.92927 
L 269.288015 71.346167 
L 265.975213 71.704905 
L 262.662412 71.994762 
L 259.34961 72.204694 
L 256.036809 72.324112 
L 252.724007 72.344127 
L 249.411206 72.259289 
L 246.098404 72.06971 
L 242.785603 71.783086 
L 239.472801 71.415734 
L 236.16 70.991658 
L 232.847199 70.539398 
L 229.534397 70.087607 
L 226.221596 69.661165 
L 222.908794 69.279124 
L 219.595993 68.954556 
L 216.283191 68.69556 
L 212.97039 68.506647 
L 209.657588 68.389964 
L 206.344787 68.346248 
L 203.031985 68.375473 
L 199.719184 68.477299 
L 196.406382 68.651342 
L 193.093581 68.897337 
L 189.780779 69.215244 
L 186.467978 69.605344 
L 183.155176 70.068336 
L 179.842375 70.60542 
L 176.529573 71.218263 
L 173.216772 71.908956 
L 169.90397 72.680038 
L 166.591169 73.534463 
L 163.278367 74.475646 
L 159.965566 75.507561 
L 156.652764 76.634934 
L 153.339963 77.863403 
L 150.027161 79.199714 
L 146.71436 80.652229 
L 143.401558 82.231094 
L 140.088757 83.948639 
L 136.775955 85.819844 
L 133.463154 87.863408 
L 130.150353 90.102418 
L 126.837551 92.565158 
L 123.52475 95.286331 
L 120.211948 98.307986 
L 116.899147 101.68107 
L 113.586345 105.467857 
L 110.273544 109.74519 
L 106.960742 114.60813 
L 103.647941 120.174361 
L 100.335139 126.589314 
L 97.022338 134.031572 
L 93.709536 142.72018 
L 90.396735 152.925652 
L 87.083933 164.991739 
L 83.771132 179.386822 
L 80.45833 196.835043 
L 77.145529 218.663469 
L 73.832727 247.886496 
z
" style="fill:#ff0000;fill-opacity:0.4;"/>
   </g>
   <g id="PolyCollection_2">
    <path clip-path="url(#pb6c909440c)" d="M 73.832727 249.756572 
L 73.832727 271.532945 
L 77.145529 241.978192 
L 80.45833 219.730208 
L 83.771132 201.800033 
L 87.083933 186.881967 
L 90.396735 174.276339 
L 93.709536 163.531875 
L 97.022338 154.31297 
L 100.335139 146.35126 
L 103.647941 139.42605 
L 106.960742 133.357824 
L 110.273544 128.00151 
L 113.586345 123.240243 
L 116.899147 118.980155 
L 120.211948 115.145465 
L 123.52475 111.676017 
L 126.837551 108.523818 
L 130.150353 105.649992 
L 133.463154 103.022358 
L 136.775955 100.614427 
L 140.088757 98.404016 
L 143.401558 96.372573 
L 146.71436 94.504708 
L 150.027161 92.787636 
L 153.339963 91.210624 
L 156.652764 89.764605 
L 159.965566 88.441932 
L 163.278367 87.236163 
L 166.591169 86.14177 
L 169.90397 85.154033 
L 173.216772 84.26902 
L 176.529573 83.483471 
L 179.842375 82.794512 
L 183.155176 82.199492 
L 186.467978 81.696172 
L 189.780779 81.282842 
L 193.093581 80.958266 
L 196.406382 80.721586 
L 199.719184 80.57223 
L 203.031985 80.509746 
L 206.344787 80.533496 
L 209.657588 80.642181 
L 212.97039 80.833192 
L 216.283191 81.101701 
L 219.595993 81.43943 
L 222.908794 81.8334 
L 226.221596 82.264859 
L 229.534397 82.708961 
L 232.847199 83.136216 
L 236.16 83.515916 
L 239.472801 83.820703 
L 242.785603 84.030482 
L 246.098404 84.134176 
L 249.411206 84.129138 
L 252.724007 84.01915 
L 256.036809 83.812182 
L 259.34961 83.518505 
L 262.662412 83.14933 
L 265.975213 82.715884 
L 269.288015 82.228842 
L 272.600816 81.69802 
L 275.913618 81.132246 
L 279.226419 80.539333 
L 282.539221 79.926117 
L 285.852022 79.29851 
L 289.164824 78.661576 
L 292.477625 78.01962 
L 295.790427 77.376292 
L 299.103228 76.734666 
L 302.41603 76.097332 
L 305.728831 75.466486 
L 309.041633 74.844012 
L 312.354434 74.231535 
L 315.667236 73.630462 
L 318.980037 73.042015 
L 322.292839 72.467269 
L 325.60564 71.907192 
L 328.918442 71.362669 
L 332.231243 70.834518 
L 335.544045 70.323522 
L 338.856846 69.830441 
L 342.169647 69.356008 
L 345.482449 68.900925 
L 348.79525 68.465864 
L 352.108052 68.051468 
L 355.420853 67.658345 
L 358.733655 67.287078 
L 362.046456 66.938242 
L 365.359258 66.6124 
L 368.672059 66.310122 
L 371.984861 66.032015 
L 375.297662 65.778744 
L 378.610464 65.55106 
L 381.923265 65.349825 
L 385.236067 65.176011 
L 388.548868 65.030689 
L 391.86167 64.915027 
L 395.174471 64.830307 
L 398.487273 64.777938 
L 398.487273 55.481842 
L 398.487273 55.481842 
L 395.174471 55.64515 
L 391.86167 55.835023 
L 388.548868 56.050735 
L 385.236067 56.291574 
L 381.923265 56.55684 
L 378.610464 56.845849 
L 375.297662 57.15794 
L 371.984861 57.492473 
L 368.672059 57.848821 
L 365.359258 58.226361 
L 362.046456 58.624472 
L 358.733655 59.042534 
L 355.420853 59.479924 
L 352.108052 59.936016 
L 348.79525 60.410183 
L 345.482449 60.901794 
L 342.169647 61.410224 
L 338.856846 61.934849 
L 335.544045 62.475032 
L 332.231243 63.030096 
L 328.918442 63.599306 
L 325.60564 64.181861 
L 322.292839 64.776869 
L 318.980037 65.383335 
L 315.667236 66.000118 
L 312.354434 66.625908 
L 309.041633 67.259199 
L 305.728831 67.898267 
L 302.41603 68.541139 
L 299.103228 69.185545 
L 295.790427 69.828832 
L 292.477625 70.467885 
L 289.164824 71.099033 
L 285.852022 71.717955 
L 282.539221 72.31958 
L 279.226419 72.897979 
L 275.913618 73.446272 
L 272.600816 73.956548 
L 269.288015 74.419832 
L 265.975213 74.826122 
L 262.662412 75.164543 
L 259.34961 75.423698 
L 256.036809 75.592336 
L 252.724007 75.660451 
L 249.411206 75.620915 
L 246.098404 75.471597 
L 242.785603 75.217632 
L 239.472801 74.872992 
L 236.16 74.460312 
L 232.847199 74.008239 
L 229.534397 73.546953 
L 226.221596 73.103705 
L 222.908794 72.700043 
L 219.595993 72.351164 
L 216.283191 72.066735 
L 212.97039 71.852286 
L 209.657588 71.710566 
L 206.344787 71.642612 
L 203.031985 71.648523 
L 199.719184 71.727939 
L 196.406382 71.880345 
L 193.093581 72.105284 
L 189.780779 72.402524 
L 186.467978 72.772207 
L 183.155176 73.214927 
L 179.842375 73.731762 
L 176.529573 74.324238 
L 173.216772 74.994272 
L 169.90397 75.744156 
L 166.591169 76.576621 
L 163.278367 77.494947 
L 159.965566 78.50291 
L 156.652764 79.605006 
L 153.339963 80.806702 
L 150.027161 82.114822 
L 146.71436 83.5377 
L 143.401558 85.085303 
L 140.088757 86.769743 
L 136.775955 88.605723 
L 133.463154 90.611353 
L 130.150353 92.809431 
L 126.837551 95.228252 
L 123.52475 97.902816 
L 120.211948 100.875385 
L 116.899147 104.197474 
L 113.586345 107.932339 
L 110.273544 112.15717 
L 106.960742 116.967456 
L 103.647941 122.481482 
L 100.335139 128.844885 
L 97.022338 136.236347 
L 93.709536 144.874034 
L 90.396735 155.027393 
L 87.083933 167.039511 
L 83.771132 181.379228 
L 80.45833 198.774115 
L 77.145529 220.559193 
L 73.832727 249.756572 
z
" style="fill:#0000ff;fill-opacity:0.4;"/>
   </g>
   <g id="PolyCollection_3">
    <path clip-path="url(#pb6c909440c)" d="M 73.832727 263.167345 
L 73.832727 295.488 
L 77.145529 265.800626 
L 80.45833 243.468805 
L 83.771132 225.50355 
L 87.083933 210.605444 
L 90.396735 198.067707 
L 93.709536 187.425131 
L 97.022338 178.330007 
L 100.335139 170.50446 
L 103.647941 163.719684 
L 106.960742 157.789067 
L 110.273544 152.561509 
L 113.586345 147.916126 
L 116.899147 143.757709 
L 120.211948 140.011463 
L 123.52475 136.617696 
L 126.837551 133.52691 
L 130.150353 130.695395 
L 133.463154 128.087359 
L 136.775955 125.674824 
L 140.088757 123.436311 
L 143.401558 121.355557 
L 146.71436 119.419857 
L 150.027161 117.618556 
L 153.339963 115.942637 
L 156.652764 114.384683 
L 159.965566 112.938545 
L 163.278367 111.599006 
L 166.591169 110.361693 
L 169.90397 109.222593 
L 173.216772 108.17801 
L 176.529573 107.224755 
L 179.842375 106.360152 
L 183.155176 105.582133 
L 186.467978 104.889392 
L 189.780779 104.281148 
L 193.093581 103.756972 
L 196.406382 103.316721 
L 199.719184 102.960377 
L 203.031985 102.687813 
L 206.344787 102.498534 
L 209.657588 102.391388 
L 212.97039 102.364054 
L 216.283191 102.412314 
L 219.595993 102.529056 
L 222.908794 102.702886 
L 226.221596 102.916975 
L 229.534397 103.148758 
L 232.847199 103.371301 
L 236.16 103.556492 
L 239.472801 103.67913 
L 242.785603 103.720187 
L 246.098404 103.66827 
L 249.411206 103.519332 
L 252.724007 103.275245 
L 256.036809 102.942087 
L 259.34961 102.528579 
L 262.662412 102.044762 
L 265.975213 101.50101 
L 269.288015 100.9074 
L 272.600816 100.273377 
L 275.913618 99.607543 
L 279.226419 98.917528 
L 282.539221 98.209964 
L 285.852022 97.490543 
L 289.164824 96.764094 
L 292.477625 96.034689 
L 295.790427 95.305754 
L 299.103228 94.580149 
L 302.41603 93.860242 
L 305.728831 93.148023 
L 309.041633 92.445197 
L 312.354434 91.753259 
L 315.667236 91.07355 
L 318.980037 90.407283 
L 322.292839 89.755578 
L 325.60564 89.119448 
L 328.918442 88.499777 
L 332.231243 87.897304 
L 335.544045 87.312622 
L 338.856846 86.74623 
L 342.169647 86.198552 
L 345.482449 85.669965 
L 348.79525 85.160813 
L 352.108052 84.671428 
L 355.420853 84.202177 
L 358.733655 83.753502 
L 362.046456 83.325914 
L 365.359258 82.920002 
L 368.672059 82.536413 
L 371.984861 82.175833 
L 375.297662 81.838996 
L 378.610464 81.5267 
L 381.923265 81.239791 
L 385.236067 80.979153 
L 388.548868 80.745717 
L 391.86167 80.54047 
L 395.174471 80.364388 
L 398.487273 80.218393 
L 398.487273 65.634888 
L 398.487273 65.634888 
L 395.174471 65.8061 
L 391.86167 66.011605 
L 388.548868 66.250166 
L 385.236067 66.52061 
L 381.923265 66.821819 
L 378.610464 67.15273 
L 375.297662 67.51233 
L 371.984861 67.899647 
L 368.672059 68.313753 
L 365.359258 68.753751 
L 362.046456 69.218767 
L 358.733655 69.707963 
L 355.420853 70.220534 
L 352.108052 70.755716 
L 348.79525 71.312781 
L 345.482449 71.891024 
L 342.169647 72.489746 
L 338.856846 73.108214 
L 335.544045 73.745656 
L 332.231243 74.401256 
L 328.918442 75.074163 
L 325.60564 75.763465 
L 322.292839 76.468177 
L 318.980037 77.187229 
L 315.667236 77.919441 
L 312.354434 78.663497 
L 309.041633 79.417914 
L 305.728831 80.18102 
L 302.41603 80.950903 
L 299.103228 81.725351 
L 295.790427 82.501784 
L 292.477625 83.277167 
L 289.164824 84.047921 
L 285.852022 84.809813 
L 282.539221 85.557849 
L 279.226419 86.28616 
L 275.913618 86.987887 
L 272.600816 87.655058 
L 269.288015 88.278483 
L 265.975213 88.847676 
L 262.662412 89.350848 
L 259.34961 89.775018 
L 256.036809 90.10639 
L 252.724007 90.331078 
L 249.411206 90.436361 
L 246.098404 90.412647 
L 242.785603 90.256214 
L 239.472801 89.972417 
L 236.16 89.578249 
L 232.847199 89.102502 
L 229.534397 88.58212 
L 226.221596 88.055656 
L 222.908794 87.556882 
L 219.595993 87.111194 
L 216.283191 86.735261 
L 212.97039 86.438616 
L 209.657588 86.225824 
L 206.344787 86.098397 
L 203.031985 86.056119 
L 199.719184 86.097919 
L 196.406382 86.222426 
L 193.093581 86.428303 
L 189.780779 86.714475 
L 186.467978 87.080144 
L 183.155176 87.524755 
L 179.842375 88.048009 
L 176.529573 88.649901 
L 173.216772 89.330836 
L 169.90397 90.091642 
L 166.591169 90.933604 
L 163.278367 91.858619 
L 159.965566 92.869282 
L 156.652764 93.969098 
L 153.339963 95.162751 
L 150.027161 96.456128 
L 146.71436 97.856502 
L 143.401558 99.373073 
L 140.088757 101.017179 
L 136.775955 102.802609 
L 133.463154 104.746828 
L 130.150353 106.872462 
L 126.837551 109.207916 
L 123.52475 111.788241 
L 120.211948 114.657276 
L 116.899147 117.868932 
L 113.586345 121.489464 
L 110.273544 125.600241 
L 106.960742 130.300917 
L 103.647941 135.71368 
L 100.335139 141.98835 
L 97.022338 149.307911 
L 93.709536 157.896398 
L 90.396735 168.029822 
L 87.083933 180.05684 
L 83.771132 194.449297 
L 80.45833 211.933807 
L 77.145529 233.838909 
L 73.832727 263.167345 
z
" style="fill:#00ffff;fill-opacity:0.4;"/>
   </g>
   <g id="matplotlib.axis_1">
    <g id="xtick_1">
     <g id="line2d_1">
      <path clip-path="url(#pb6c909440c)" d="M 70.519926 307.584 
L 70.519926 41.472 
" style="fill:none;stroke:#b0b0b0;stroke-linecap:square;stroke-width:0.8;"/>
     </g>
     <g id="line2d_2">
      <defs>
       <path d="M 0 0 
L 0 3.5 
" id="mfb7a6df9bb" style="stroke:#000000;stroke-width:0.8;"/>
      </defs>
      <g>
       <use style="stroke:#000000;stroke-width:0.8;" x="70.519926" xlink:href="#mfb7a6df9bb" y="307.584"/>
      </g>
     </g>
     <g id="text_1">
      <!-- 0.0 -->
      <defs>
       <path d="M 31.78125 66.40625 
Q 24.171875 66.40625 20.328125 58.90625 
Q 16.5 51.421875 16.5 36.375 
Q 16.5 21.390625 20.328125 13.890625 
Q 24.171875 6.390625 31.78125 6.390625 
Q 39.453125 6.390625 43.28125 13.890625 
Q 47.125 21.390625 47.125 36.375 
Q 47.125 51.421875 43.28125 58.90625 
Q 39.453125 66.40625 31.78125 66.40625 
z
M 31.78125 74.21875 
Q 44.046875 74.21875 50.515625 64.515625 
Q 56.984375 54.828125 56.984375 36.375 
Q 56.984375 17.96875 50.515625 8.265625 
Q 44.046875 -1.421875 31.78125 -1.421875 
Q 19.53125 -1.421875 13.0625 8.265625 
Q 6.59375 17.96875 6.59375 36.375 
Q 6.59375 54.828125 13.0625 64.515625 
Q 19.53125 74.21875 31.78125 74.21875 
z
" id="DejaVuSans-48"/>
       <path d="M 10.6875 12.40625 
L 21 12.40625 
L 21 0 
L 10.6875 0 
z
" id="DejaVuSans-46"/>
      </defs>
      <g transform="translate(62.568363 322.182437)scale(0.1 -0.1)">
       <use xlink:href="#DejaVuSans-48"/>
       <use x="63.623047" xlink:href="#DejaVuSans-46"/>
       <use x="95.410156" xlink:href="#DejaVuSans-48"/>
      </g>
     </g>
    </g>
    <g id="xtick_2">
     <g id="line2d_3">
      <path clip-path="url(#pb6c909440c)" d="M 136.775955 307.584 
L 136.775955 41.472 
" style="fill:none;stroke:#b0b0b0;stroke-linecap:square;stroke-width:0.8;"/>
     </g>
     <g id="line2d_4">
      <g>
       <use style="stroke:#000000;stroke-width:0.8;" x="136.775955" xlink:href="#mfb7a6df9bb" y="307.584"/>
      </g>
     </g>
     <g id="text_2">
      <!-- 0.2 -->
      <defs>
       <path d="M 19.1875 8.296875 
L 53.609375 8.296875 
L 53.609375 0 
L 7.328125 0 
L 7.328125 8.296875 
Q 12.9375 14.109375 22.625 23.890625 
Q 32.328125 33.6875 34.8125 36.53125 
Q 39.546875 41.84375 41.421875 45.53125 
Q 43.3125 49.21875 43.3125 52.78125 
Q 43.3125 58.59375 39.234375 62.25 
Q 35.15625 65.921875 28.609375 65.921875 
Q 23.96875 65.921875 18.8125 64.3125 
Q 13.671875 62.703125 7.8125 59.421875 
L 7.8125 69.390625 
Q 13.765625 71.78125 18.9375 73 
Q 24.125 74.21875 28.421875 74.21875 
Q 39.75 74.21875 46.484375 68.546875 
Q 53.21875 62.890625 53.21875 53.421875 
Q 53.21875 48.921875 51.53125 44.890625 
Q 49.859375 40.875 45.40625 35.40625 
Q 44.1875 33.984375 37.640625 27.21875 
Q 31.109375 20.453125 19.1875 8.296875 
z
" id="DejaVuSans-50"/>
      </defs>
      <g transform="translate(128.824393 322.182437)scale(0.1 -0.1)">
       <use xlink:href="#DejaVuSans-48"/>
       <use x="63.623047" xlink:href="#DejaVuSans-46"/>
       <use x="95.410156" xlink:href="#DejaVuSans-50"/>
      </g>
     </g>
    </g>
    <g id="xtick_3">
     <g id="line2d_5">
      <path clip-path="url(#pb6c909440c)" d="M 203.031985 307.584 
L 203.031985 41.472 
" style="fill:none;stroke:#b0b0b0;stroke-linecap:square;stroke-width:0.8;"/>
     </g>
     <g id="line2d_6">
      <g>
       <use style="stroke:#000000;stroke-width:0.8;" x="203.031985" xlink:href="#mfb7a6df9bb" y="307.584"/>
      </g>
     </g>
     <g id="text_3">
      <!-- 0.4 -->
      <defs>
       <path d="M 37.796875 64.3125 
L 12.890625 25.390625 
L 37.796875 25.390625 
z
M 35.203125 72.90625 
L 47.609375 72.90625 
L 47.609375 25.390625 
L 58.015625 25.390625 
L 58.015625 17.1875 
L 47.609375 17.1875 
L 47.609375 0 
L 37.796875 0 
L 37.796875 17.1875 
L 4.890625 17.1875 
L 4.890625 26.703125 
z
" id="DejaVuSans-52"/>
      </defs>
      <g transform="translate(195.080423 322.182437)scale(0.1 -0.1)">
       <use xlink:href="#DejaVuSans-48"/>
       <use x="63.623047" xlink:href="#DejaVuSans-46"/>
       <use x="95.410156" xlink:href="#DejaVuSans-52"/>
      </g>
     </g>
    </g>
    <g id="xtick_4">
     <g id="line2d_7">
      <path clip-path="url(#pb6c909440c)" d="M 269.288015 307.584 
L 269.288015 41.472 
" style="fill:none;stroke:#b0b0b0;stroke-linecap:square;stroke-width:0.8;"/>
     </g>
     <g id="line2d_8">
      <g>
       <use style="stroke:#000000;stroke-width:0.8;" x="269.288015" xlink:href="#mfb7a6df9bb" y="307.584"/>
      </g>
     </g>
     <g id="text_4">
      <!-- 0.6 -->
      <defs>
       <path d="M 33.015625 40.375 
Q 26.375 40.375 22.484375 35.828125 
Q 18.609375 31.296875 18.609375 23.390625 
Q 18.609375 15.53125 22.484375 10.953125 
Q 26.375 6.390625 33.015625 6.390625 
Q 39.65625 6.390625 43.53125 10.953125 
Q 47.40625 15.53125 47.40625 23.390625 
Q 47.40625 31.296875 43.53125 35.828125 
Q 39.65625 40.375 33.015625 40.375 
z
M 52.59375 71.296875 
L 52.59375 62.3125 
Q 48.875 64.0625 45.09375 64.984375 
Q 41.3125 65.921875 37.59375 65.921875 
Q 27.828125 65.921875 22.671875 59.328125 
Q 17.53125 52.734375 16.796875 39.40625 
Q 19.671875 43.65625 24.015625 45.921875 
Q 28.375 48.1875 33.59375 48.1875 
Q 44.578125 48.1875 50.953125 41.515625 
Q 57.328125 34.859375 57.328125 23.390625 
Q 57.328125 12.15625 50.6875 5.359375 
Q 44.046875 -1.421875 33.015625 -1.421875 
Q 20.359375 -1.421875 13.671875 8.265625 
Q 6.984375 17.96875 6.984375 36.375 
Q 6.984375 53.65625 15.1875 63.9375 
Q 23.390625 74.21875 37.203125 74.21875 
Q 40.921875 74.21875 44.703125 73.484375 
Q 48.484375 72.75 52.59375 71.296875 
z
" id="DejaVuSans-54"/>
      </defs>
      <g transform="translate(261.336452 322.182437)scale(0.1 -0.1)">
       <use xlink:href="#DejaVuSans-48"/>
       <use x="63.623047" xlink:href="#DejaVuSans-46"/>
       <use x="95.410156" xlink:href="#DejaVuSans-54"/>
      </g>
     </g>
    </g>
    <g id="xtick_5">
     <g id="line2d_9">
      <path clip-path="url(#pb6c909440c)" d="M 335.544045 307.584 
L 335.544045 41.472 
" style="fill:none;stroke:#b0b0b0;stroke-linecap:square;stroke-width:0.8;"/>
     </g>
     <g id="line2d_10">
      <g>
       <use style="stroke:#000000;stroke-width:0.8;" x="335.544045" xlink:href="#mfb7a6df9bb" y="307.584"/>
      </g>
     </g>
     <g id="text_5">
      <!-- 0.8 -->
      <defs>
       <path d="M 31.78125 34.625 
Q 24.75 34.625 20.71875 30.859375 
Q 16.703125 27.09375 16.703125 20.515625 
Q 16.703125 13.921875 20.71875 10.15625 
Q 24.75 6.390625 31.78125 6.390625 
Q 38.8125 6.390625 42.859375 10.171875 
Q 46.921875 13.96875 46.921875 20.515625 
Q 46.921875 27.09375 42.890625 30.859375 
Q 38.875 34.625 31.78125 34.625 
z
M 21.921875 38.8125 
Q 15.578125 40.375 12.03125 44.71875 
Q 8.5 49.078125 8.5 55.328125 
Q 8.5 64.0625 14.71875 69.140625 
Q 20.953125 74.21875 31.78125 74.21875 
Q 42.671875 74.21875 48.875 69.140625 
Q 55.078125 64.0625 55.078125 55.328125 
Q 55.078125 49.078125 51.53125 44.71875 
Q 48 40.375 41.703125 38.8125 
Q 48.828125 37.15625 52.796875 32.3125 
Q 56.78125 27.484375 56.78125 20.515625 
Q 56.78125 9.90625 50.3125 4.234375 
Q 43.84375 -1.421875 31.78125 -1.421875 
Q 19.734375 -1.421875 13.25 4.234375 
Q 6.78125 9.90625 6.78125 20.515625 
Q 6.78125 27.484375 10.78125 32.3125 
Q 14.796875 37.15625 21.921875 38.8125 
z
M 18.3125 54.390625 
Q 18.3125 48.734375 21.84375 45.5625 
Q 25.390625 42.390625 31.78125 42.390625 
Q 38.140625 42.390625 41.71875 45.5625 
Q 45.3125 48.734375 45.3125 54.390625 
Q 45.3125 60.0625 41.71875 63.234375 
Q 38.140625 66.40625 31.78125 66.40625 
Q 25.390625 66.40625 21.84375 63.234375 
Q 18.3125 60.0625 18.3125 54.390625 
z
" id="DejaVuSans-56"/>
      </defs>
      <g transform="translate(327.592482 322.182437)scale(0.1 -0.1)">
       <use xlink:href="#DejaVuSans-48"/>
       <use x="63.623047" xlink:href="#DejaVuSans-46"/>
       <use x="95.410156" xlink:href="#DejaVuSans-56"/>
      </g>
     </g>
    </g>
    <g id="xtick_6">
     <g id="line2d_11">
      <path clip-path="url(#pb6c909440c)" d="M 401.800074 307.584 
L 401.800074 41.472 
" style="fill:none;stroke:#b0b0b0;stroke-linecap:square;stroke-width:0.8;"/>
     </g>
     <g id="line2d_12">
      <g>
       <use style="stroke:#000000;stroke-width:0.8;" x="401.800074" xlink:href="#mfb7a6df9bb" y="307.584"/>
      </g>
     </g>
     <g id="text_6">
      <!-- 1.0 -->
      <defs>
       <path d="M 12.40625 8.296875 
L 28.515625 8.296875 
L 28.515625 63.921875 
L 10.984375 60.40625 
L 10.984375 69.390625 
L 28.421875 72.90625 
L 38.28125 72.90625 
L 38.28125 8.296875 
L 54.390625 8.296875 
L 54.390625 0 
L 12.40625 0 
z
" id="DejaVuSans-49"/>
      </defs>
      <g transform="translate(393.848512 322.182437)scale(0.1 -0.1)">
       <use xlink:href="#DejaVuSans-49"/>
       <use x="63.623047" xlink:href="#DejaVuSans-46"/>
       <use x="95.410156" xlink:href="#DejaVuSans-48"/>
      </g>
     </g>
    </g>
    <g id="text_7">
     <!-- $\mathrm{Time \ (seconds)}$ -->
     <defs>
      <path d="M -0.296875 72.90625 
L 61.375 72.90625 
L 61.375 64.59375 
L 35.5 64.59375 
L 35.5 0 
L 25.59375 0 
L 25.59375 64.59375 
L -0.296875 64.59375 
z
" id="DejaVuSans-84"/>
      <path d="M 9.421875 54.6875 
L 18.40625 54.6875 
L 18.40625 0 
L 9.421875 0 
z
M 9.421875 75.984375 
L 18.40625 75.984375 
L 18.40625 64.59375 
L 9.421875 64.59375 
z
" id="DejaVuSans-105"/>
      <path d="M 52 44.1875 
Q 55.375 50.25 60.0625 53.125 
Q 64.75 56 71.09375 56 
Q 79.640625 56 84.28125 50.015625 
Q 88.921875 44.046875 88.921875 33.015625 
L 88.921875 0 
L 79.890625 0 
L 79.890625 32.71875 
Q 79.890625 40.578125 77.09375 44.375 
Q 74.3125 48.1875 68.609375 48.1875 
Q 61.625 48.1875 57.5625 43.546875 
Q 53.515625 38.921875 53.515625 30.90625 
L 53.515625 0 
L 44.484375 0 
L 44.484375 32.71875 
Q 44.484375 40.625 41.703125 44.40625 
Q 38.921875 48.1875 33.109375 48.1875 
Q 26.21875 48.1875 22.15625 43.53125 
Q 18.109375 38.875 18.109375 30.90625 
L 18.109375 0 
L 9.078125 0 
L 9.078125 54.6875 
L 18.109375 54.6875 
L 18.109375 46.1875 
Q 21.1875 51.21875 25.484375 53.609375 
Q 29.78125 56 35.6875 56 
Q 41.65625 56 45.828125 52.96875 
Q 50 49.953125 52 44.1875 
z
" id="DejaVuSans-109"/>
      <path d="M 56.203125 29.59375 
L 56.203125 25.203125 
L 14.890625 25.203125 
Q 15.484375 15.921875 20.484375 11.0625 
Q 25.484375 6.203125 34.421875 6.203125 
Q 39.59375 6.203125 44.453125 7.46875 
Q 49.3125 8.734375 54.109375 11.28125 
L 54.109375 2.78125 
Q 49.265625 0.734375 44.1875 -0.34375 
Q 39.109375 -1.421875 33.890625 -1.421875 
Q 20.796875 -1.421875 13.15625 6.1875 
Q 5.515625 13.8125 5.515625 26.8125 
Q 5.515625 40.234375 12.765625 48.109375 
Q 20.015625 56 32.328125 56 
Q 43.359375 56 49.78125 48.890625 
Q 56.203125 41.796875 56.203125 29.59375 
z
M 47.21875 32.234375 
Q 47.125 39.59375 43.09375 43.984375 
Q 39.0625 48.390625 32.421875 48.390625 
Q 24.90625 48.390625 20.390625 44.140625 
Q 15.875 39.890625 15.1875 32.171875 
z
" id="DejaVuSans-101"/>
      <path d="M 31 75.875 
Q 24.46875 64.65625 21.28125 53.65625 
Q 18.109375 42.671875 18.109375 31.390625 
Q 18.109375 20.125 21.3125 9.0625 
Q 24.515625 -2 31 -13.1875 
L 23.1875 -13.1875 
Q 15.875 -1.703125 12.234375 9.375 
Q 8.59375 20.453125 8.59375 31.390625 
Q 8.59375 42.28125 12.203125 53.3125 
Q 15.828125 64.359375 23.1875 75.875 
z
" id="DejaVuSans-40"/>
      <path d="M 44.28125 53.078125 
L 44.28125 44.578125 
Q 40.484375 46.53125 36.375 47.5 
Q 32.28125 48.484375 27.875 48.484375 
Q 21.1875 48.484375 17.84375 46.4375 
Q 14.5 44.390625 14.5 40.28125 
Q 14.5 37.15625 16.890625 35.375 
Q 19.28125 33.59375 26.515625 31.984375 
L 29.59375 31.296875 
Q 39.15625 29.25 43.1875 25.515625 
Q 47.21875 21.78125 47.21875 15.09375 
Q 47.21875 7.46875 41.1875 3.015625 
Q 35.15625 -1.421875 24.609375 -1.421875 
Q 20.21875 -1.421875 15.453125 -0.5625 
Q 10.6875 0.296875 5.421875 2 
L 5.421875 11.28125 
Q 10.40625 8.6875 15.234375 7.390625 
Q 20.0625 6.109375 24.8125 6.109375 
Q 31.15625 6.109375 34.5625 8.28125 
Q 37.984375 10.453125 37.984375 14.40625 
Q 37.984375 18.0625 35.515625 20.015625 
Q 33.0625 21.96875 24.703125 23.78125 
L 21.578125 24.515625 
Q 13.234375 26.265625 9.515625 29.90625 
Q 5.8125 33.546875 5.8125 39.890625 
Q 5.8125 47.609375 11.28125 51.796875 
Q 16.75 56 26.8125 56 
Q 31.78125 56 36.171875 55.265625 
Q 40.578125 54.546875 44.28125 53.078125 
z
" id="DejaVuSans-115"/>
      <path d="M 48.78125 52.59375 
L 48.78125 44.1875 
Q 44.96875 46.296875 41.140625 47.34375 
Q 37.3125 48.390625 33.40625 48.390625 
Q 24.65625 48.390625 19.8125 42.84375 
Q 14.984375 37.3125 14.984375 27.296875 
Q 14.984375 17.28125 19.8125 11.734375 
Q 24.65625 6.203125 33.40625 6.203125 
Q 37.3125 6.203125 41.140625 7.25 
Q 44.96875 8.296875 48.78125 10.40625 
L 48.78125 2.09375 
Q 45.015625 0.34375 40.984375 -0.53125 
Q 36.96875 -1.421875 32.421875 -1.421875 
Q 20.0625 -1.421875 12.78125 6.34375 
Q 5.515625 14.109375 5.515625 27.296875 
Q 5.515625 40.671875 12.859375 48.328125 
Q 20.21875 56 33.015625 56 
Q 37.15625 56 41.109375 55.140625 
Q 45.0625 54.296875 48.78125 52.59375 
z
" id="DejaVuSans-99"/>
      <path d="M 30.609375 48.390625 
Q 23.390625 48.390625 19.1875 42.75 
Q 14.984375 37.109375 14.984375 27.296875 
Q 14.984375 17.484375 19.15625 11.84375 
Q 23.34375 6.203125 30.609375 6.203125 
Q 37.796875 6.203125 41.984375 11.859375 
Q 46.1875 17.53125 46.1875 27.296875 
Q 46.1875 37.015625 41.984375 42.703125 
Q 37.796875 48.390625 30.609375 48.390625 
z
M 30.609375 56 
Q 42.328125 56 49.015625 48.375 
Q 55.71875 40.765625 55.71875 27.296875 
Q 55.71875 13.875 49.015625 6.21875 
Q 42.328125 -1.421875 30.609375 -1.421875 
Q 18.84375 -1.421875 12.171875 6.21875 
Q 5.515625 13.875 5.515625 27.296875 
Q 5.515625 40.765625 12.171875 48.375 
Q 18.84375 56 30.609375 56 
z
" id="DejaVuSans-111"/>
      <path d="M 54.890625 33.015625 
L 54.890625 0 
L 45.90625 0 
L 45.90625 32.71875 
Q 45.90625 40.484375 42.875 44.328125 
Q 39.84375 48.1875 33.796875 48.1875 
Q 26.515625 48.1875 22.3125 43.546875 
Q 18.109375 38.921875 18.109375 30.90625 
L 18.109375 0 
L 9.078125 0 
L 9.078125 54.6875 
L 18.109375 54.6875 
L 18.109375 46.1875 
Q 21.34375 51.125 25.703125 53.5625 
Q 30.078125 56 35.796875 56 
Q 45.21875 56 50.046875 50.171875 
Q 54.890625 44.34375 54.890625 33.015625 
z
" id="DejaVuSans-110"/>
      <path d="M 45.40625 46.390625 
L 45.40625 75.984375 
L 54.390625 75.984375 
L 54.390625 0 
L 45.40625 0 
L 45.40625 8.203125 
Q 42.578125 3.328125 38.25 0.953125 
Q 33.9375 -1.421875 27.875 -1.421875 
Q 17.96875 -1.421875 11.734375 6.484375 
Q 5.515625 14.40625 5.515625 27.296875 
Q 5.515625 40.1875 11.734375 48.09375 
Q 17.96875 56 27.875 56 
Q 33.9375 56 38.25 53.625 
Q 42.578125 51.265625 45.40625 46.390625 
z
M 14.796875 27.296875 
Q 14.796875 17.390625 18.875 11.75 
Q 22.953125 6.109375 30.078125 6.109375 
Q 37.203125 6.109375 41.296875 11.75 
Q 45.40625 17.390625 45.40625 27.296875 
Q 45.40625 37.203125 41.296875 42.84375 
Q 37.203125 48.484375 30.078125 48.484375 
Q 22.953125 48.484375 18.875 42.84375 
Q 14.796875 37.203125 14.796875 27.296875 
z
" id="DejaVuSans-100"/>
      <path d="M 8.015625 75.875 
L 15.828125 75.875 
Q 23.140625 64.359375 26.78125 53.3125 
Q 30.421875 42.28125 30.421875 31.390625 
Q 30.421875 20.453125 26.78125 9.375 
Q 23.140625 -1.703125 15.828125 -13.1875 
L 8.015625 -13.1875 
Q 14.5 -2 17.703125 9.0625 
Q 20.90625 20.125 20.90625 31.390625 
Q 20.90625 42.671875 17.703125 53.65625 
Q 14.5 64.65625 8.015625 75.875 
z
" id="DejaVuSans-41"/>
     </defs>
     <g transform="translate(197.76 335.860562)scale(0.1 -0.1)">
      <use transform="translate(0 0.015625)" xlink:href="#DejaVuSans-84"/>
      <use transform="translate(61.083984 0.015625)" xlink:href="#DejaVuSans-105"/>
      <use transform="translate(88.867188 0.015625)" xlink:href="#DejaVuSans-109"/>
      <use transform="translate(186.279297 0.015625)" xlink:href="#DejaVuSans-101"/>
      <use transform="translate(280.273113 0.015625)" xlink:href="#DejaVuSans-40"/>
      <use transform="translate(319.286785 0.015625)" xlink:href="#DejaVuSans-115"/>
      <use transform="translate(371.386394 0.015625)" xlink:href="#DejaVuSans-101"/>
      <use transform="translate(432.909832 0.015625)" xlink:href="#DejaVuSans-99"/>
      <use transform="translate(487.8903 0.015625)" xlink:href="#DejaVuSans-111"/>
      <use transform="translate(549.071941 0.015625)" xlink:href="#DejaVuSans-110"/>
      <use transform="translate(612.450847 0.015625)" xlink:href="#DejaVuSans-100"/>
      <use transform="translate(675.92741 0.015625)" xlink:href="#DejaVuSans-115"/>
      <use transform="translate(728.027019 0.015625)" xlink:href="#DejaVuSans-41"/>
     </g>
    </g>
   </g>
   <g id="matplotlib.axis_2">
    <g id="ytick_1">
     <g id="line2d_13">
      <path clip-path="url(#pb6c909440c)" d="M 57.6 152.967804 
L 414.72 152.967804 
" style="fill:none;stroke:#b0b0b0;stroke-linecap:square;stroke-width:0.8;"/>
     </g>
     <g id="line2d_14">
      <defs>
       <path d="M 0 0 
L -3.5 0 
" id="m9f881255d0" style="stroke:#000000;stroke-width:0.8;"/>
      </defs>
      <g>
       <use style="stroke:#000000;stroke-width:0.8;" x="57.6" xlink:href="#m9f881255d0" y="152.967804"/>
      </g>
     </g>
     <g id="text_8">
      <!-- $\mathdefault{10^{-1}}$ -->
      <defs>
       <path d="M 10.59375 35.5 
L 73.1875 35.5 
L 73.1875 27.203125 
L 10.59375 27.203125 
z
" id="DejaVuSans-8722"/>
      </defs>
      <g transform="translate(27.1 156.767023)scale(0.1 -0.1)">
       <use transform="translate(0 0.684375)" xlink:href="#DejaVuSans-49"/>
       <use transform="translate(63.623047 0.684375)" xlink:href="#DejaVuSans-48"/>
       <use transform="translate(128.203125 38.965625)scale(0.7)" xlink:href="#DejaVuSans-8722"/>
       <use transform="translate(186.855469 38.965625)scale(0.7)" xlink:href="#DejaVuSans-49"/>
      </g>
     </g>
    </g>
    <g id="ytick_2">
     <g id="line2d_15">
      <defs>
       <path d="M 0 0 
L -2 0 
" id="m40967a18a7" style="stroke:#000000;stroke-width:0.6;"/>
      </defs>
      <g>
       <use style="stroke:#000000;stroke-width:0.6;" x="57.6" xlink:href="#m40967a18a7" y="270.83037"/>
      </g>
     </g>
    </g>
    <g id="ytick_3">
     <g id="line2d_16">
      <g>
       <use style="stroke:#000000;stroke-width:0.6;" x="57.6" xlink:href="#m40967a18a7" y="241.137297"/>
      </g>
     </g>
    </g>
    <g id="ytick_4">
     <g id="line2d_17">
      <g>
       <use style="stroke:#000000;stroke-width:0.6;" x="57.6" xlink:href="#m40967a18a7" y="220.069726"/>
      </g>
     </g>
    </g>
    <g id="ytick_5">
     <g id="line2d_18">
      <g>
       <use style="stroke:#000000;stroke-width:0.6;" x="57.6" xlink:href="#m40967a18a7" y="203.728448"/>
      </g>
     </g>
    </g>
    <g id="ytick_6">
     <g id="line2d_19">
      <g>
       <use style="stroke:#000000;stroke-width:0.6;" x="57.6" xlink:href="#m40967a18a7" y="190.376652"/>
      </g>
     </g>
    </g>
    <g id="ytick_7">
     <g id="line2d_20">
      <g>
       <use style="stroke:#000000;stroke-width:0.6;" x="57.6" xlink:href="#m40967a18a7" y="179.08787"/>
      </g>
     </g>
    </g>
    <g id="ytick_8">
     <g id="line2d_21">
      <g>
       <use style="stroke:#000000;stroke-width:0.6;" x="57.6" xlink:href="#m40967a18a7" y="169.309082"/>
      </g>
     </g>
    </g>
    <g id="ytick_9">
     <g id="line2d_22">
      <g>
       <use style="stroke:#000000;stroke-width:0.6;" x="57.6" xlink:href="#m40967a18a7" y="160.683579"/>
      </g>
     </g>
    </g>
    <g id="ytick_10">
     <g id="line2d_23">
      <g>
       <use style="stroke:#000000;stroke-width:0.6;" x="57.6" xlink:href="#m40967a18a7" y="102.207159"/>
      </g>
     </g>
    </g>
    <g id="ytick_11">
     <g id="line2d_24">
      <g>
       <use style="stroke:#000000;stroke-width:0.6;" x="57.6" xlink:href="#m40967a18a7" y="72.514086"/>
      </g>
     </g>
    </g>
    <g id="ytick_12">
     <g id="line2d_25">
      <g>
       <use style="stroke:#000000;stroke-width:0.6;" x="57.6" xlink:href="#m40967a18a7" y="51.446515"/>
      </g>
     </g>
    </g>
    <g id="text_9">
     <!-- $\mathrm{Relative \ error}$ ($N_{\mathrm{train}}=100$) -->
     <defs>
      <path d="M 44.390625 34.1875 
Q 47.5625 33.109375 50.5625 29.59375 
Q 53.5625 26.078125 56.59375 19.921875 
L 66.609375 0 
L 56 0 
L 46.6875 18.703125 
Q 43.0625 26.03125 39.671875 28.421875 
Q 36.28125 30.8125 30.421875 30.8125 
L 19.671875 30.8125 
L 19.671875 0 
L 9.8125 0 
L 9.8125 72.90625 
L 32.078125 72.90625 
Q 44.578125 72.90625 50.734375 67.671875 
Q 56.890625 62.453125 56.890625 51.90625 
Q 56.890625 45.015625 53.6875 40.46875 
Q 50.484375 35.9375 44.390625 34.1875 
z
M 19.671875 64.796875 
L 19.671875 38.921875 
L 32.078125 38.921875 
Q 39.203125 38.921875 42.84375 42.21875 
Q 46.484375 45.515625 46.484375 51.90625 
Q 46.484375 58.296875 42.84375 61.546875 
Q 39.203125 64.796875 32.078125 64.796875 
z
" id="DejaVuSans-82"/>
      <path d="M 9.421875 75.984375 
L 18.40625 75.984375 
L 18.40625 0 
L 9.421875 0 
z
" id="DejaVuSans-108"/>
      <path d="M 34.28125 27.484375 
Q 23.390625 27.484375 19.1875 25 
Q 14.984375 22.515625 14.984375 16.5 
Q 14.984375 11.71875 18.140625 8.90625 
Q 21.296875 6.109375 26.703125 6.109375 
Q 34.1875 6.109375 38.703125 11.40625 
Q 43.21875 16.703125 43.21875 25.484375 
L 43.21875 27.484375 
z
M 52.203125 31.203125 
L 52.203125 0 
L 43.21875 0 
L 43.21875 8.296875 
Q 40.140625 3.328125 35.546875 0.953125 
Q 30.953125 -1.421875 24.3125 -1.421875 
Q 15.921875 -1.421875 10.953125 3.296875 
Q 6 8.015625 6 15.921875 
Q 6 25.140625 12.171875 29.828125 
Q 18.359375 34.515625 30.609375 34.515625 
L 43.21875 34.515625 
L 43.21875 35.40625 
Q 43.21875 41.609375 39.140625 45 
Q 35.0625 48.390625 27.6875 48.390625 
Q 23 48.390625 18.546875 47.265625 
Q 14.109375 46.140625 10.015625 43.890625 
L 10.015625 52.203125 
Q 14.9375 54.109375 19.578125 55.046875 
Q 24.21875 56 28.609375 56 
Q 40.484375 56 46.34375 49.84375 
Q 52.203125 43.703125 52.203125 31.203125 
z
" id="DejaVuSans-97"/>
      <path d="M 18.3125 70.21875 
L 18.3125 54.6875 
L 36.8125 54.6875 
L 36.8125 47.703125 
L 18.3125 47.703125 
L 18.3125 18.015625 
Q 18.3125 11.328125 20.140625 9.421875 
Q 21.96875 7.515625 27.59375 7.515625 
L 36.8125 7.515625 
L 36.8125 0 
L 27.59375 0 
Q 17.1875 0 13.234375 3.875 
Q 9.28125 7.765625 9.28125 18.015625 
L 9.28125 47.703125 
L 2.6875 47.703125 
L 2.6875 54.6875 
L 9.28125 54.6875 
L 9.28125 70.21875 
z
" id="DejaVuSans-116"/>
      <path d="M 2.984375 54.6875 
L 12.5 54.6875 
L 29.59375 8.796875 
L 46.6875 54.6875 
L 56.203125 54.6875 
L 35.6875 0 
L 23.484375 0 
z
" id="DejaVuSans-118"/>
      <path d="M 41.109375 46.296875 
Q 39.59375 47.171875 37.8125 47.578125 
Q 36.03125 48 33.890625 48 
Q 26.265625 48 22.1875 43.046875 
Q 18.109375 38.09375 18.109375 28.8125 
L 18.109375 0 
L 9.078125 0 
L 9.078125 54.6875 
L 18.109375 54.6875 
L 18.109375 46.1875 
Q 20.953125 51.171875 25.484375 53.578125 
Q 30.03125 56 36.53125 56 
Q 37.453125 56 38.578125 55.875 
Q 39.703125 55.765625 41.0625 55.515625 
z
" id="DejaVuSans-114"/>
      <path id="DejaVuSans-32"/>
      <path d="M 16.890625 72.90625 
L 30.171875 72.90625 
L 50.296875 10.40625 
L 62.5 72.90625 
L 72.125 72.90625 
L 57.90625 0 
L 44.578125 0 
L 24.515625 62.890625 
L 12.3125 0 
L 2.6875 0 
z
" id="DejaVuSans-Oblique-78"/>
      <path d="M 10.59375 45.40625 
L 73.1875 45.40625 
L 73.1875 37.203125 
L 10.59375 37.203125 
z
M 10.59375 25.484375 
L 73.1875 25.484375 
L 73.1875 17.1875 
L 10.59375 17.1875 
z
" id="DejaVuSans-61"/>
     </defs>
     <g transform="translate(21.020312 242.078)rotate(-90)scale(0.1 -0.1)">
      <use transform="translate(0 0.015625)" xlink:href="#DejaVuSans-82"/>
      <use transform="translate(69.482422 0.015625)" xlink:href="#DejaVuSans-101"/>
      <use transform="translate(131.005859 0.015625)" xlink:href="#DejaVuSans-108"/>
      <use transform="translate(158.789062 0.015625)" xlink:href="#DejaVuSans-97"/>
      <use transform="translate(220.068359 0.015625)" xlink:href="#DejaVuSans-116"/>
      <use transform="translate(259.277344 0.015625)" xlink:href="#DejaVuSans-105"/>
      <use transform="translate(287.060547 0.015625)" xlink:href="#DejaVuSans-118"/>
      <use transform="translate(346.240234 0.015625)" xlink:href="#DejaVuSans-101"/>
      <use transform="translate(440.23405 0.015625)" xlink:href="#DejaVuSans-101"/>
      <use transform="translate(501.757488 0.015625)" xlink:href="#DejaVuSans-114"/>
      <use transform="translate(542.870769 0.015625)" xlink:href="#DejaVuSans-114"/>
      <use transform="translate(583.98405 0.015625)" xlink:href="#DejaVuSans-111"/>
      <use transform="translate(645.165691 0.015625)" xlink:href="#DejaVuSans-114"/>
      <use transform="translate(686.278972 0.015625)" xlink:href="#DejaVuSans-32"/>
      <use transform="translate(718.066082 0.015625)" xlink:href="#DejaVuSans-40"/>
      <use transform="translate(757.079753 0.015625)" xlink:href="#DejaVuSans-Oblique-78"/>
      <use transform="translate(831.884441 -16.390625)scale(0.7)" xlink:href="#DejaVuSans-116"/>
      <use transform="translate(859.33073 -16.390625)scale(0.7)" xlink:href="#DejaVuSans-114"/>
      <use transform="translate(888.110027 -16.390625)scale(0.7)" xlink:href="#DejaVuSans-97"/>
      <use transform="translate(931.005535 -16.390625)scale(0.7)" xlink:href="#DejaVuSans-105"/>
      <use transform="translate(950.453777 -16.390625)scale(0.7)" xlink:href="#DejaVuSans-110"/>
      <use transform="translate(1017.035808 0.015625)" xlink:href="#DejaVuSans-61"/>
      <use transform="translate(1120.307292 0.015625)" xlink:href="#DejaVuSans-49"/>
      <use transform="translate(1183.930339 0.015625)" xlink:href="#DejaVuSans-48"/>
      <use transform="translate(1247.553386 0.015625)" xlink:href="#DejaVuSans-48"/>
      <use transform="translate(1311.176433 0.015625)" xlink:href="#DejaVuSans-41"/>
     </g>
    </g>
   </g>
   <g id="line2d_26">
    <path clip-path="url(#pb6c909440c)" d="M 73.832724 255.98341 
L 77.145522 226.620617 
L 80.458321 204.61501 
L 83.771119 186.960205 
L 87.083917 172.336841 
L 90.396716 160.031457 
L 93.709554 149.583723 
L 97.022352 140.654458 
L 100.33515 132.974895 
L 103.647949 126.32642 
L 106.960747 120.530629 
L 110.273545 115.442776 
L 113.586344 110.946035 
L 116.899142 106.946229 
L 120.21194 103.367228 
L 123.524738 100.147716 
L 126.837537 97.238075 
L 130.150375 94.597608 
L 133.463173 92.19279 
L 136.775971 89.995939 
L 140.08877 87.984271 
L 143.401568 86.139036 
L 146.714366 84.444869 
L 150.027165 82.889034 
L 153.339963 81.460967 
L 156.652761 80.151855 
L 159.96556 78.954413 
L 163.278358 77.86246 
L 166.591156 76.870776 
L 169.903955 75.974933 
L 173.216753 75.171163 
L 176.529551 74.456234 
L 179.842389 73.82744 
L 183.155187 73.282429 
L 186.467986 72.81927 
L 189.780784 72.436479 
L 193.093582 72.13309 
L 196.406381 71.908574 
L 199.719179 71.762694 
L 203.031977 71.695398 
L 206.344776 71.706651 
L 209.657574 71.796163 
L 212.970412 71.962967 
L 216.28321 72.204788 
L 219.596008 72.517168 
L 222.908807 72.892301 
L 229.534403 73.775738 
L 236.16 74.689812 
L 239.472798 75.089465 
L 242.785597 75.415771 
L 246.098395 75.649814 
L 249.411193 75.7809 
L 252.723992 75.806227 
L 256.03679 75.729237 
L 259.349588 75.557509 
L 262.662387 75.301016 
L 265.975185 74.970586 
L 269.288023 74.577162 
L 275.913619 73.641762 
L 282.539216 72.566416 
L 292.477651 70.809347 
L 315.667239 66.612365 
L 325.605634 64.923557 
L 335.544029 63.351768 
L 342.169625 62.380245 
L 348.795222 61.476722 
L 355.420858 60.646755 
L 362.046455 59.895662 
L 368.672051 59.228458 
L 375.297688 58.650179 
L 381.923284 58.166376 
L 388.548881 57.783301 
L 395.174478 57.508154 
L 398.487276 57.413578 
" style="fill:none;stroke:#ff0000;stroke-linecap:square;stroke-width:1.5;"/>
   </g>
   <g id="line2d_27">
    <path clip-path="url(#pb6c909440c)" d="M 73.832724 259.838285 
L 77.145522 230.488377 
L 80.458321 208.505102 
L 83.771119 190.88013 
L 87.083917 176.290734 
L 90.396716 164.021233 
L 93.709554 153.610344 
L 97.022352 144.71833 
L 100.33515 137.0762 
L 103.647949 130.464774 
L 106.960747 124.705039 
L 110.273545 119.651675 
L 113.586344 115.187041 
L 116.899142 111.216445 
L 120.21194 107.663387 
L 123.524738 104.466094 
L 126.837537 101.574722 
L 130.150375 98.948644 
L 133.463173 96.554239 
L 136.775971 94.364187 
L 140.08877 92.356092 
L 143.401568 90.511704 
L 146.714366 88.816105 
L 150.027165 87.256959 
L 153.339963 85.824069 
L 156.652761 84.508771 
L 159.96556 83.303927 
L 163.278358 82.203712 
L 166.591156 81.203147 
L 169.903955 80.298056 
L 173.216753 79.484913 
L 176.529551 78.760755 
L 179.842389 78.123041 
L 183.155187 77.569504 
L 186.467986 77.098347 
L 189.780784 76.708154 
L 193.093582 76.398072 
L 196.406381 76.167631 
L 199.719179 76.01665 
L 203.031977 75.945186 
L 206.344776 75.953207 
L 209.657574 76.040303 
L 212.970412 76.205135 
L 216.28321 76.444966 
L 219.596008 76.754414 
L 226.221605 77.54112 
L 236.16 78.848235 
L 239.472798 79.210266 
L 242.785597 79.491563 
L 246.098395 79.67489 
L 249.411193 79.751535 
L 252.723992 79.720599 
L 256.03679 79.587003 
L 259.349588 79.359318 
L 262.662387 79.048169 
L 265.975185 78.66481 
L 269.288023 78.220308 
L 275.913619 77.18846 
L 282.539216 76.024144 
L 292.477651 74.14647 
L 312.35444 70.330029 
L 322.292835 68.521155 
L 332.23123 66.828396 
L 342.169625 65.275415 
L 348.795222 64.327309 
L 355.420858 63.455026 
L 362.046455 62.663432 
L 368.672051 61.957347 
L 375.297688 61.341561 
L 381.923284 60.821438 
L 388.548881 60.403142 
L 395.174478 60.093822 
L 398.487276 59.982483 
" style="fill:none;stroke:#0000ff;stroke-linecap:square;stroke-width:1.5;"/>
   </g>
   <g id="line2d_28">
    <path clip-path="url(#pb6c909440c)" d="M 73.832724 277.558885 
L 77.145522 248.089751 
L 80.458321 226.016827 
L 83.771119 208.342526 
L 87.083917 193.749651 
L 90.396716 181.519346 
L 93.709554 171.182417 
L 97.022352 162.39058 
L 100.33515 154.867092 
L 103.647949 148.385977 
L 106.960747 142.762758 
L 110.273545 137.847049 
L 113.586344 133.517159 
L 116.899142 129.675207 
L 120.21194 126.24256 
L 123.524738 123.155661 
L 126.837537 120.362525 
L 130.150375 117.819445 
L 133.463173 115.49112 
L 136.775971 113.349366 
L 140.08877 111.37215 
L 143.401568 109.542556 
L 146.714366 107.847361 
L 150.027165 106.275548 
L 153.339963 104.818112 
L 156.652761 103.467753 
L 159.96556 102.218552 
L 163.278358 101.065668 
L 166.591156 100.005259 
L 169.903955 99.034177 
L 173.216753 98.149777 
L 176.529551 97.349976 
L 179.842389 96.633182 
L 183.155187 95.998277 
L 186.467986 95.444723 
L 189.780784 94.972337 
L 193.093582 94.581283 
L 196.406381 94.271925 
L 199.719179 94.044877 
L 203.031977 93.900832 
L 206.344776 93.840323 
L 209.657574 93.86346 
L 212.970412 93.969274 
L 216.28321 94.155094 
L 219.596008 94.415123 
L 226.221605 95.109974 
L 232.847202 95.889928 
L 236.16 96.234369 
L 239.472798 96.505555 
L 242.785597 96.679214 
L 246.098395 96.740946 
L 249.411193 96.686065 
L 252.723992 96.517534 
L 256.03679 96.243371 
L 259.349588 95.874508 
L 262.662387 95.42309 
L 265.975185 94.901401 
L 272.600821 93.692778 
L 279.226418 92.32984 
L 289.164852 90.130342 
L 312.35444 84.916301 
L 322.292835 82.810937 
L 332.23123 80.838823 
L 338.856827 79.610203 
L 345.482424 78.456899 
L 352.10806 77.383543 
L 358.733656 76.394513 
L 365.359253 75.494872 
L 371.984889 74.690412 
L 378.610486 73.987605 
L 385.236083 73.393626 
L 391.861679 72.91632 
L 398.487276 72.564225 
" style="fill:none;stroke:#00ffff;stroke-linecap:square;stroke-width:1.5;"/>
   </g>
   <g id="patch_3">
    <path d="M 57.6 307.584 
L 57.6 41.472 
" style="fill:none;stroke:#000000;stroke-linecap:square;stroke-linejoin:miter;stroke-width:0.8;"/>
   </g>
   <g id="patch_4">
    <path d="M 414.72 307.584 
L 414.72 41.472 
" style="fill:none;stroke:#000000;stroke-linecap:square;stroke-linejoin:miter;stroke-width:0.8;"/>
   </g>
   <g id="patch_5">
    <path d="M 57.6 307.584 
L 414.72 307.584 
" style="fill:none;stroke:#000000;stroke-linecap:square;stroke-linejoin:miter;stroke-width:0.8;"/>
   </g>
   <g id="patch_6">
    <path d="M 57.6 41.472 
L 414.72 41.472 
" style="fill:none;stroke:#000000;stroke-linecap:square;stroke-linejoin:miter;stroke-width:0.8;"/>
   </g>
   <g id="legend_1">
    <g id="patch_7">
     <path d="M 282.559063 302.584 
L 407.72 302.584 
Q 409.72 302.584 409.72 300.584 
L 409.72 257.549625 
Q 409.72 255.549625 407.72 255.549625 
L 282.559063 255.549625 
Q 280.559063 255.549625 280.559063 257.549625 
L 280.559063 300.584 
Q 280.559063 302.584 282.559063 302.584 
z
" style="fill:#ffffff;opacity:0.8;stroke:#cccccc;stroke-linejoin:miter;"/>
    </g>
    <g id="line2d_29">
     <path d="M 284.559063 263.648062 
L 304.559063 263.648062 
" style="fill:none;stroke:#ff0000;stroke-linecap:square;stroke-width:1.5;"/>
    </g>
    <g id="line2d_30"/>
    <g id="text_10">
     <!-- No denoising -->
     <defs>
      <path d="M 9.8125 72.90625 
L 23.09375 72.90625 
L 55.421875 11.921875 
L 55.421875 72.90625 
L 64.984375 72.90625 
L 64.984375 0 
L 51.703125 0 
L 19.390625 60.984375 
L 19.390625 0 
L 9.8125 0 
z
" id="DejaVuSans-78"/>
      <path d="M 45.40625 27.984375 
Q 45.40625 37.75 41.375 43.109375 
Q 37.359375 48.484375 30.078125 48.484375 
Q 22.859375 48.484375 18.828125 43.109375 
Q 14.796875 37.75 14.796875 27.984375 
Q 14.796875 18.265625 18.828125 12.890625 
Q 22.859375 7.515625 30.078125 7.515625 
Q 37.359375 7.515625 41.375 12.890625 
Q 45.40625 18.265625 45.40625 27.984375 
z
M 54.390625 6.78125 
Q 54.390625 -7.171875 48.1875 -13.984375 
Q 42 -20.796875 29.203125 -20.796875 
Q 24.46875 -20.796875 20.265625 -20.09375 
Q 16.0625 -19.390625 12.109375 -17.921875 
L 12.109375 -9.1875 
Q 16.0625 -11.328125 19.921875 -12.34375 
Q 23.78125 -13.375 27.78125 -13.375 
Q 36.625 -13.375 41.015625 -8.765625 
Q 45.40625 -4.15625 45.40625 5.171875 
L 45.40625 9.625 
Q 42.625 4.78125 38.28125 2.390625 
Q 33.9375 0 27.875 0 
Q 17.828125 0 11.671875 7.65625 
Q 5.515625 15.328125 5.515625 27.984375 
Q 5.515625 40.671875 11.671875 48.328125 
Q 17.828125 56 27.875 56 
Q 33.9375 56 38.28125 53.609375 
Q 42.625 51.21875 45.40625 46.390625 
L 45.40625 54.6875 
L 54.390625 54.6875 
z
" id="DejaVuSans-103"/>
     </defs>
     <g transform="translate(312.559063 267.148062)scale(0.1 -0.1)">
      <use xlink:href="#DejaVuSans-78"/>
      <use x="74.804688" xlink:href="#DejaVuSans-111"/>
      <use x="135.986328" xlink:href="#DejaVuSans-32"/>
      <use x="167.773438" xlink:href="#DejaVuSans-100"/>
      <use x="231.25" xlink:href="#DejaVuSans-101"/>
      <use x="292.773438" xlink:href="#DejaVuSans-110"/>
      <use x="356.152344" xlink:href="#DejaVuSans-111"/>
      <use x="417.333984" xlink:href="#DejaVuSans-105"/>
      <use x="445.117188" xlink:href="#DejaVuSans-115"/>
      <use x="497.216797" xlink:href="#DejaVuSans-105"/>
      <use x="525" xlink:href="#DejaVuSans-110"/>
      <use x="588.378906" xlink:href="#DejaVuSans-103"/>
     </g>
    </g>
    <g id="line2d_31">
     <path d="M 284.559063 278.326188 
L 304.559063 278.326188 
" style="fill:none;stroke:#0000ff;stroke-linecap:square;stroke-width:1.5;"/>
    </g>
    <g id="line2d_32"/>
    <g id="text_11">
     <!-- With denoising -->
     <defs>
      <path d="M 3.328125 72.90625 
L 13.28125 72.90625 
L 28.609375 11.28125 
L 43.890625 72.90625 
L 54.984375 72.90625 
L 70.3125 11.28125 
L 85.59375 72.90625 
L 95.609375 72.90625 
L 77.296875 0 
L 64.890625 0 
L 49.515625 63.28125 
L 33.984375 0 
L 21.578125 0 
z
" id="DejaVuSans-87"/>
      <path d="M 54.890625 33.015625 
L 54.890625 0 
L 45.90625 0 
L 45.90625 32.71875 
Q 45.90625 40.484375 42.875 44.328125 
Q 39.84375 48.1875 33.796875 48.1875 
Q 26.515625 48.1875 22.3125 43.546875 
Q 18.109375 38.921875 18.109375 30.90625 
L 18.109375 0 
L 9.078125 0 
L 9.078125 75.984375 
L 18.109375 75.984375 
L 18.109375 46.1875 
Q 21.34375 51.125 25.703125 53.5625 
Q 30.078125 56 35.796875 56 
Q 45.21875 56 50.046875 50.171875 
Q 54.890625 44.34375 54.890625 33.015625 
z
" id="DejaVuSans-104"/>
     </defs>
     <g transform="translate(312.559063 281.826188)scale(0.1 -0.1)">
      <use xlink:href="#DejaVuSans-87"/>
      <use x="98.845703" xlink:href="#DejaVuSans-105"/>
      <use x="126.628906" xlink:href="#DejaVuSans-116"/>
      <use x="165.837891" xlink:href="#DejaVuSans-104"/>
      <use x="229.216797" xlink:href="#DejaVuSans-32"/>
      <use x="261.003906" xlink:href="#DejaVuSans-100"/>
      <use x="324.480469" xlink:href="#DejaVuSans-101"/>
      <use x="386.003906" xlink:href="#DejaVuSans-110"/>
      <use x="449.382812" xlink:href="#DejaVuSans-111"/>
      <use x="510.564453" xlink:href="#DejaVuSans-105"/>
      <use x="538.347656" xlink:href="#DejaVuSans-115"/>
      <use x="590.447266" xlink:href="#DejaVuSans-105"/>
      <use x="618.230469" xlink:href="#DejaVuSans-110"/>
      <use x="681.609375" xlink:href="#DejaVuSans-103"/>
     </g>
    </g>
    <g id="line2d_33">
     <path d="M 284.559063 293.004312 
L 304.559063 293.004312 
" style="fill:none;stroke:#00ffff;stroke-linecap:square;stroke-width:1.5;"/>
    </g>
    <g id="line2d_34"/>
    <g id="text_12">
     <!-- With big denoising -->
     <defs>
      <path d="M 48.6875 27.296875 
Q 48.6875 37.203125 44.609375 42.84375 
Q 40.53125 48.484375 33.40625 48.484375 
Q 26.265625 48.484375 22.1875 42.84375 
Q 18.109375 37.203125 18.109375 27.296875 
Q 18.109375 17.390625 22.1875 11.75 
Q 26.265625 6.109375 33.40625 6.109375 
Q 40.53125 6.109375 44.609375 11.75 
Q 48.6875 17.390625 48.6875 27.296875 
z
M 18.109375 46.390625 
Q 20.953125 51.265625 25.265625 53.625 
Q 29.59375 56 35.59375 56 
Q 45.5625 56 51.78125 48.09375 
Q 58.015625 40.1875 58.015625 27.296875 
Q 58.015625 14.40625 51.78125 6.484375 
Q 45.5625 -1.421875 35.59375 -1.421875 
Q 29.59375 -1.421875 25.265625 0.953125 
Q 20.953125 3.328125 18.109375 8.203125 
L 18.109375 0 
L 9.078125 0 
L 9.078125 75.984375 
L 18.109375 75.984375 
z
" id="DejaVuSans-98"/>
     </defs>
     <g transform="translate(312.559063 296.504312)scale(0.1 -0.1)">
      <use xlink:href="#DejaVuSans-87"/>
      <use x="98.845703" xlink:href="#DejaVuSans-105"/>
      <use x="126.628906" xlink:href="#DejaVuSans-116"/>
      <use x="165.837891" xlink:href="#DejaVuSans-104"/>
      <use x="229.216797" xlink:href="#DejaVuSans-32"/>
      <use x="261.003906" xlink:href="#DejaVuSans-98"/>
      <use x="324.480469" xlink:href="#DejaVuSans-105"/>
      <use x="352.263672" xlink:href="#DejaVuSans-103"/>
      <use x="415.740234" xlink:href="#DejaVuSans-32"/>
      <use x="447.527344" xlink:href="#DejaVuSans-100"/>
      <use x="511.003906" xlink:href="#DejaVuSans-101"/>
      <use x="572.527344" xlink:href="#DejaVuSans-110"/>
      <use x="635.90625" xlink:href="#DejaVuSans-111"/>
      <use x="697.087891" xlink:href="#DejaVuSans-105"/>
      <use x="724.871094" xlink:href="#DejaVuSans-115"/>
      <use x="776.970703" xlink:href="#DejaVuSans-105"/>
      <use x="804.753906" xlink:href="#DejaVuSans-110"/>
      <use x="868.132812" xlink:href="#DejaVuSans-103"/>
     </g>
    </g>
   </g>
  </g>
 </g>
 <defs>
  <clipPath id="pb6c909440c">
   <rect height="266.112" width="357.12" x="57.6" y="41.472"/>
  </clipPath>
 </defs>
</svg>
