<?xml version="1.0" encoding="utf-8" standalone="no"?>
<!DOCTYPE svg PUBLIC "-//W3C//DTD SVG 1.1//EN"
  "http://www.w3.org/Graphics/SVG/1.1/DTD/svg11.dtd">
<!-- Created with matplotlib (https://matplotlib.org/) -->
<svg height="345.6pt" version="1.1" viewBox="0 0 460.8 345.6" width="460.8pt" xmlns="http://www.w3.org/2000/svg" xmlns:xlink="http://www.w3.org/1999/xlink">
 <defs>
  <style type="text/css">
*{stroke-linecap:butt;stroke-linejoin:round;white-space:pre;}
  </style>
 </defs>
 <g id="figure_1">
  <g id="patch_1">
   <path d="M 0 345.6 
L 460.8 345.6 
L 460.8 0 
L 0 0 
z
" style="fill:#ffffff;"/>
  </g>
  <g id="axes_1">
   <g id="patch_2">
    <path d="M 57.6 307.584 
L 414.72 307.584 
L 414.72 41.472 
L 57.6 41.472 
z
" style="fill:#ffffff;"/>
   </g>
   <g id="PolyCollection_1">
    <path clip-path="url(#p17fe51cc0c)" d="M 73.832727 270.796273 
L 73.832727 282.217012 
L 77.145529 248.947543 
L 80.45833 224.035493 
L 83.771132 204.052562 
L 87.083933 187.491779 
L 90.396735 173.53792 
L 93.709536 161.668959 
L 97.022338 151.504976 
L 100.335139 142.750109 
L 103.647941 135.165659 
L 106.960742 128.557122 
L 110.273544 122.766176 
L 113.586345 117.665135 
L 116.899147 113.150179 
L 120.211948 109.135616 
L 123.52475 105.550376 
L 126.837551 102.336412 
L 130.150353 99.445984 
L 133.463154 96.839733 
L 136.775955 94.485222 
L 140.088757 92.355426 
L 143.401558 90.427664 
L 146.71436 88.682411 
L 150.027161 87.103034 
L 153.339963 85.67528 
L 156.652764 84.387058 
L 159.965566 83.228307 
L 163.278367 82.190589 
L 166.591169 81.26684 
L 169.90397 80.451398 
L 173.216772 79.739803 
L 176.529573 79.128239 
L 179.842375 78.613072 
L 183.155176 78.190948 
L 186.467978 77.859177 
L 189.780779 77.615755 
L 193.093581 77.459294 
L 196.406382 77.38885 
L 199.719184 77.403758 
L 203.031985 77.503381 
L 206.344787 77.686769 
L 209.657588 77.952183 
L 212.97039 78.296385 
L 216.283191 78.713645 
L 219.595993 79.194525 
L 222.908794 79.724558 
L 226.221596 80.283067 
L 229.534397 80.842974 
L 232.847199 81.372449 
L 236.16 81.838591 
L 239.472801 82.212406 
L 242.785603 82.472968 
L 246.098404 82.609103 
L 249.411206 82.618583 
L 252.724007 82.506 
L 256.036809 82.280421 
L 259.34961 81.953429 
L 262.662412 81.537669 
L 265.975213 81.045839 
L 269.288015 80.490075 
L 272.600816 79.881591 
L 275.913618 79.230511 
L 279.226419 78.54582 
L 282.539221 77.835412 
L 285.852022 77.10617 
L 289.164824 76.364066 
L 292.477625 75.614282 
L 295.790427 74.861296 
L 299.103228 74.108959 
L 302.41603 73.360567 
L 305.728831 72.618941 
L 309.041633 71.8865 
L 312.354434 71.16533 
L 315.667236 70.457242 
L 318.980037 69.763834 
L 322.292839 69.086567 
L 325.60564 68.426774 
L 328.918442 67.785684 
L 332.231243 67.164447 
L 335.544045 66.564175 
L 338.856846 65.985963 
L 342.169647 65.430895 
L 345.482449 64.900044 
L 348.79525 64.394491 
L 352.108052 63.915319 
L 355.420853 63.463573 
L 358.733655 63.040213 
L 362.046456 62.646031 
L 365.359258 62.281624 
L 368.672059 61.947474 
L 371.984861 61.644065 
L 375.297662 61.371958 
L 378.610464 61.131791 
L 381.923265 60.924284 
L 385.236067 60.750236 
L 388.548868 60.610584 
L 391.86167 60.506398 
L 395.174471 60.438881 
L 398.487273 60.40936 
L 398.487273 53.568 
L 398.487273 53.568 
L 395.174471 53.595501 
L 391.86167 53.657477 
L 388.548868 53.75286 
L 385.236067 53.880639 
L 381.923265 54.039881 
L 378.610464 54.229744 
L 375.297662 54.449469 
L 371.984861 54.698359 
L 368.672059 54.975769 
L 365.359258 55.281113 
L 362.046456 55.613835 
L 358.733655 55.973359 
L 355.420853 56.359027 
L 352.108052 56.770051 
L 348.79525 57.205501 
L 345.482449 57.664345 
L 342.169647 58.145516 
L 338.856846 58.647939 
L 335.544045 59.170529 
L 332.231243 59.712175 
L 328.918442 60.271732 
L 325.60564 60.848004 
L 322.292839 61.439712 
L 318.980037 62.045474 
L 315.667236 62.66379 
L 312.354434 63.293016 
L 309.041633 63.931316 
L 305.728831 64.576587 
L 302.41603 65.226403 
L 299.103228 65.877963 
L 295.790427 66.528012 
L 292.477625 67.172764 
L 289.164824 67.807812 
L 285.852022 68.42802 
L 282.539221 69.027407 
L 279.226419 69.599005 
L 275.913618 70.134722 
L 272.600816 70.62524 
L 269.288015 71.059941 
L 265.975213 71.426904 
L 262.662412 71.713007 
L 259.34961 71.904239 
L 256.036809 71.986367 
L 252.724007 71.946137 
L 249.411206 71.77319 
L 246.098404 71.462774 
L 242.785603 71.018983 
L 239.472801 70.457506 
L 236.16 69.806168 
L 232.847199 69.101878 
L 229.534397 68.384524 
L 226.221596 67.690437 
L 222.908794 67.048246 
L 219.595993 66.477866 
L 216.283191 65.991658 
L 212.97039 65.596464 
L 209.657588 65.295568 
L 206.344787 65.090118 
L 203.031985 64.980134 
L 199.719184 64.965126 
L 196.406382 65.044503 
L 193.093581 65.217814 
L 189.780779 65.484857 
L 186.467978 65.84579 
L 183.155176 66.301165 
L 179.842375 66.851876 
L 176.529573 67.49919 
L 173.216772 68.244812 
L 169.90397 69.091021 
L 166.591169 70.040794 
L 163.278367 71.098013 
L 159.965566 72.267596 
L 156.652764 73.555557 
L 153.339963 74.969162 
L 150.027161 76.517252 
L 146.71436 78.210469 
L 143.401558 80.061482 
L 140.088757 82.085354 
L 136.775955 84.299772 
L 133.463154 86.725557 
L 130.150353 89.387644 
L 126.837551 92.316555 
L 123.52475 95.549315 
L 120.211948 99.131401 
L 116.899147 103.11908 
L 113.586345 107.581296 
L 110.273544 112.60283 
L 106.960742 118.28917 
L 103.647941 124.770922 
L 100.335139 132.208718 
L 97.022338 140.800648 
L 93.709536 150.794085 
L 90.396735 162.4978 
L 87.083933 176.305924 
L 83.771132 192.753912 
L 80.45833 212.667565 
L 77.145529 237.550138 
L 73.832727 270.796273 
z
" style="fill:#ff0000;fill-opacity:0.4;"/>
   </g>
   <g id="PolyCollection_2">
    <path clip-path="url(#p17fe51cc0c)" d="M 73.832727 274.611827 
L 73.832727 286.360447 
L 77.145529 253.03612 
L 80.45833 228.082531 
L 83.771132 208.073029 
L 87.083933 191.499209 
L 90.396735 177.542745 
L 93.709536 165.679146 
L 97.022338 155.526565 
L 100.335139 146.787642 
L 103.647941 139.221552 
L 106.960742 132.632744 
L 110.273544 126.862282 
L 113.586345 121.781605 
L 116.899147 117.285852 
L 120.211948 113.288596 
L 123.52475 109.719231 
L 126.837551 106.520024 
L 130.150353 103.643546 
L 133.463154 101.051794 
L 136.775955 98.713046 
L 140.088757 96.60069 
L 143.401558 94.692058 
L 146.71436 92.967502 
L 150.027161 91.409962 
L 153.339963 90.004718 
L 156.652764 88.739422 
L 159.965566 87.603956 
L 163.278367 86.589851 
L 166.591169 85.69003 
L 169.90397 84.898877 
L 173.216772 84.211982 
L 176.529573 83.625543 
L 179.842375 83.135919 
L 183.155176 82.73988 
L 186.467978 82.434931 
L 189.780779 82.21935 
L 193.093581 82.09204 
L 196.406382 82.052329 
L 199.719184 82.099733 
L 203.031985 82.233734 
L 206.344787 82.453401 
L 209.657588 82.756821 
L 212.97039 83.140262 
L 216.283191 83.596998 
L 219.595993 84.115775 
L 222.908794 84.679234 
L 226.221596 85.262831 
L 229.534397 85.835311 
L 232.847199 86.361601 
L 236.16 86.807756 
L 239.472801 87.14621 
L 242.785603 87.359151 
L 246.098404 87.439009 
L 249.411206 87.38675 
L 252.724007 87.209411 
L 256.036809 86.917798 
L 259.34961 86.524666 
L 262.662412 86.043398 
L 265.975213 85.487141 
L 269.288015 84.868295 
L 272.600816 84.198221 
L 275.913618 83.487106 
L 279.226419 82.74396 
L 282.539221 81.97666 
L 285.852022 81.192053 
L 289.164824 80.39604 
L 292.477625 79.5937 
L 295.790427 78.789404 
L 299.103228 77.986914 
L 302.41603 77.189455 
L 305.728831 76.399786 
L 309.041633 75.620285 
L 312.354434 74.853021 
L 315.667236 74.099799 
L 318.980037 73.362214 
L 322.292839 72.641693 
L 325.60564 71.939523 
L 328.918442 71.256883 
L 332.231243 70.594881 
L 335.544045 69.954574 
L 338.856846 69.336994 
L 342.169647 68.743165 
L 345.482449 68.17412 
L 348.79525 67.630916 
L 352.108052 67.114634 
L 355.420853 66.626359 
L 358.733655 66.167092 
L 362.046456 65.737639 
L 365.359258 65.338577 
L 368.672059 64.970383 
L 371.984861 64.633555 
L 375.297662 64.328656 
L 378.610464 64.056322 
L 381.923265 63.81726 
L 385.236067 63.612258 
L 388.548868 63.442227 
L 391.86167 63.308207 
L 395.174471 63.211389 
L 398.487273 63.153118 
L 398.487273 55.633593 
L 398.487273 55.633593 
L 395.174471 55.672168 
L 391.86167 55.748077 
L 388.548868 55.860111 
L 385.236067 56.007147 
L 381.923265 56.188158 
L 378.610464 56.402229 
L 375.297662 56.648535 
L 371.984861 56.926326 
L 368.672059 57.234914 
L 365.359258 57.573665 
L 362.046456 57.941964 
L 358.733655 58.339117 
L 355.420853 58.764257 
L 352.108052 59.216341 
L 348.79525 59.694246 
L 345.482449 60.19686 
L 342.169647 60.723097 
L 338.856846 61.271888 
L 335.544045 61.842175 
L 332.231243 62.432893 
L 328.918442 63.042952 
L 325.60564 63.671216 
L 322.292839 64.316495 
L 318.980037 64.97752 
L 315.667236 65.652912 
L 312.354434 66.341125 
L 309.041633 67.040413 
L 305.728831 67.748797 
L 302.41603 68.46401 
L 299.103228 69.183434 
L 295.790427 69.904024 
L 292.477625 70.622221 
L 289.164824 71.333858 
L 285.852022 72.034051 
L 282.539221 72.717067 
L 279.226419 73.376189 
L 275.913618 74.003579 
L 272.600816 74.590143 
L 269.288015 75.125406 
L 265.975213 75.597417 
L 262.662412 75.992749 
L 259.34961 76.296692 
L 256.036809 76.493695 
L 252.724007 76.568236 
L 249.411206 76.506317 
L 246.098404 76.297797 
L 242.785603 75.939646 
L 239.472801 75.439637 
L 236.16 74.819089 
L 232.847199 74.112529 
L 229.534397 73.362889 
L 226.221596 72.613749 
L 222.908794 71.902335 
L 219.595993 71.256101 
L 216.283191 70.6929 
L 212.97039 70.223104 
L 209.657588 69.851994 
L 206.344787 69.5817 
L 203.031985 69.412519 
L 199.719184 69.343827 
L 196.406382 69.374695 
L 193.093581 69.504221 
L 189.780779 69.731759 
L 186.467978 70.057069 
L 183.155176 70.480349 
L 179.842375 71.002127 
L 176.529573 71.623346 
L 173.216772 72.345455 
L 169.90397 73.170398 
L 166.591169 74.100741 
L 163.278367 75.139947 
L 159.965566 76.292612 
L 156.652764 77.564584 
L 153.339963 78.963004 
L 150.027161 80.496446 
L 146.71436 82.175322 
L 143.401558 84.012264 
L 140.088757 86.022276 
L 136.775955 88.222933 
L 133.463154 90.634923 
L 130.150353 93.283188 
L 126.837551 96.197523 
L 123.52475 99.41444 
L 120.211948 102.979501 
L 116.899147 106.949109 
L 113.586345 111.392648 
L 110.273544 116.395423 
L 106.960742 122.062843 
L 103.647941 128.525679 
L 100.335139 135.94509 
L 97.022338 144.520445 
L 93.709536 154.501078 
L 90.396735 166.197926 
L 87.083933 180.006448 
L 83.771132 196.464048 
L 80.45833 216.398362 
L 77.145529 241.31528 
L 73.832727 274.611827 
z
" style="fill:#0000ff;fill-opacity:0.4;"/>
   </g>
   <g id="PolyCollection_3">
    <path clip-path="url(#p17fe51cc0c)" d="M 73.832727 284.187629 
L 73.832727 295.488 
L 77.145529 262.124607 
L 80.45833 237.149176 
L 83.771132 217.133834 
L 87.083933 200.571842 
L 90.396735 186.646435 
L 93.709536 174.832209 
L 97.022338 164.744485 
L 100.335139 156.082546 
L 103.647941 148.601936 
L 106.960742 142.103392 
L 110.273544 136.424444 
L 113.586345 131.434855 
L 116.899147 127.031158 
L 120.211948 123.129001 
L 123.52475 119.659111 
L 126.837551 116.563787 
L 130.150353 113.795646 
L 133.463154 111.31562 
L 136.775955 109.091186 
L 140.088757 107.094546 
L 143.401558 105.302274 
L 146.71436 103.694478 
L 150.027161 102.254045 
L 153.339963 100.965984 
L 156.652764 99.817718 
L 159.965566 98.799162 
L 163.278367 97.902292 
L 166.591169 97.120734 
L 169.90397 96.449523 
L 173.216772 95.884585 
L 176.529573 95.421817 
L 179.842375 95.057337 
L 183.155176 94.788093 
L 186.467978 94.611913 
L 189.780779 94.52739 
L 193.093581 94.533652 
L 196.406382 94.630144 
L 199.719184 94.816442 
L 203.031985 95.091785 
L 206.344787 95.454436 
L 209.657588 95.900658 
L 212.97039 96.423402 
L 216.283191 97.010598 
L 219.595993 97.643195 
L 222.908794 98.293855 
L 226.221596 98.927483 
L 229.534397 99.504576 
L 232.847199 99.987187 
L 236.16 100.345065 
L 239.472801 100.55927 
L 242.785603 100.62236 
L 246.098404 100.536269 
L 249.411206 100.309472 
L 252.724007 99.954434 
L 256.036809 99.485635 
L 259.34961 98.918188 
L 262.662412 98.266917 
L 265.975213 97.545808 
L 269.288015 96.767702 
L 272.600816 95.944142 
L 275.913618 95.085334 
L 279.226419 94.200172 
L 282.539221 93.29633 
L 285.852022 92.380388 
L 289.164824 91.457968 
L 292.477625 90.533842 
L 295.790427 89.612058 
L 299.103228 88.69606 
L 302.41603 87.788804 
L 305.728831 86.892855 
L 309.041633 86.01043 
L 312.354434 85.143449 
L 315.667236 84.29362 
L 318.980037 83.462479 
L 322.292839 82.651412 
L 325.60564 81.861668 
L 328.918442 81.094387 
L 332.231243 80.350623 
L 335.544045 79.631386 
L 338.856846 78.937668 
L 342.169647 78.270469 
L 345.482449 77.630798 
L 348.79525 77.019703 
L 352.108052 76.43827 
L 355.420853 75.887569 
L 358.733655 75.368525 
L 362.046456 74.881842 
L 365.359258 74.428085 
L 368.672059 74.007777 
L 371.984861 73.621422 
L 375.297662 73.269481 
L 378.610464 72.95242 
L 381.923265 72.670782 
L 385.236067 72.425192 
L 388.548868 72.216374 
L 391.86167 72.045158 
L 395.174471 71.912488 
L 398.487273 71.819407 
L 398.487273 61.699236 
L 398.487273 61.699236 
L 395.174471 61.782165 
L 391.86167 61.903828 
L 388.548868 62.063029 
L 385.236067 62.258668 
L 381.923265 62.489783 
L 378.610464 62.755536 
L 375.297662 63.055184 
L 371.984861 63.388042 
L 368.672059 63.753471 
L 365.359258 64.150871 
L 362.046456 64.579655 
L 358.733655 65.039165 
L 355.420853 65.528594 
L 352.108052 66.04698 
L 348.79525 66.593294 
L 345.482449 67.166518 
L 342.169647 67.765655 
L 338.856846 68.389724 
L 335.544045 69.037757 
L 332.231243 69.708795 
L 328.918442 70.401871 
L 325.60564 71.115984 
L 322.292839 71.850076 
L 318.980037 72.603017 
L 315.667236 73.373584 
L 312.354434 74.160423 
L 309.041633 74.962011 
L 305.728831 75.776629 
L 302.41603 76.602312 
L 299.103228 77.436789 
L 295.790427 78.277407 
L 292.477625 79.121035 
L 289.164824 79.963963 
L 285.852022 80.801798 
L 282.539221 81.629336 
L 279.226419 82.440438 
L 275.913618 83.227886 
L 272.600816 83.98325 
L 269.288015 84.696747 
L 265.975213 85.357102 
L 262.662412 85.951481 
L 259.34961 86.465553 
L 256.036809 86.883717 
L 252.724007 87.189562 
L 249.411206 87.366748 
L 246.098404 87.400479 
L 242.785603 87.279845 
L 239.472801 87.001083 
L 236.16 86.571361 
L 232.847199 86.011712 
L 229.534397 85.356976 
L 226.221596 84.651224 
L 222.908794 83.939951 
L 219.595993 83.262679 
L 216.283191 82.649026 
L 212.97039 82.118542 
L 209.657588 81.682728 
L 206.344787 81.347507 
L 203.031985 81.115286 
L 199.719184 80.986464 
L 196.406382 80.960483 
L 193.093581 81.036379 
L 189.780779 81.213075 
L 186.467978 81.489733 
L 183.155176 81.865917 
L 179.842375 82.341514 
L 176.529573 82.916744 
L 173.216772 83.592285 
L 169.90397 84.36941 
L 166.591169 85.250127 
L 163.278367 86.237233 
L 159.965566 87.334423 
L 156.652764 88.546616 
L 153.339963 89.880246 
L 150.027161 91.343526 
L 146.71436 92.946507 
L 143.401558 94.701326 
L 140.088757 96.622616 
L 136.775955 98.727934 
L 133.463154 101.038406 
L 130.150353 103.579752 
L 126.837551 106.383411 
L 123.52475 109.488286 
L 120.211948 112.942371 
L 116.899147 116.803666 
L 113.586345 121.142808 
L 110.273544 126.04595 
L 106.960742 131.62007 
L 103.647941 137.998802 
L 100.335139 145.346798 
L 97.022338 153.867001 
L 93.709536 163.81198 
L 90.396735 175.494368 
L 87.083933 189.311607 
L 83.771132 205.801824 
L 80.45833 225.78963 
L 77.145529 250.779874 
L 73.832727 284.187629 
z
" style="fill:#00ffff;fill-opacity:0.4;"/>
   </g>
   <g id="matplotlib.axis_1">
    <g id="xtick_1">
     <g id="line2d_1">
      <path clip-path="url(#p17fe51cc0c)" d="M 70.519926 307.584 
L 70.519926 41.472 
" style="fill:none;stroke:#b0b0b0;stroke-linecap:square;stroke-width:0.8;"/>
     </g>
     <g id="line2d_2">
      <defs>
       <path d="M 0 0 
L 0 3.5 
" id="md6ebc90273" style="stroke:#000000;stroke-width:0.8;"/>
      </defs>
      <g>
       <use style="stroke:#000000;stroke-width:0.8;" x="70.519926" xlink:href="#md6ebc90273" y="307.584"/>
      </g>
     </g>
     <g id="text_1">
      <!-- 0.0 -->
      <defs>
       <path d="M 31.78125 66.40625 
Q 24.171875 66.40625 20.328125 58.90625 
Q 16.5 51.421875 16.5 36.375 
Q 16.5 21.390625 20.328125 13.890625 
Q 24.171875 6.390625 31.78125 6.390625 
Q 39.453125 6.390625 43.28125 13.890625 
Q 47.125 21.390625 47.125 36.375 
Q 47.125 51.421875 43.28125 58.90625 
Q 39.453125 66.40625 31.78125 66.40625 
z
M 31.78125 74.21875 
Q 44.046875 74.21875 50.515625 64.515625 
Q 56.984375 54.828125 56.984375 36.375 
Q 56.984375 17.96875 50.515625 8.265625 
Q 44.046875 -1.421875 31.78125 -1.421875 
Q 19.53125 -1.421875 13.0625 8.265625 
Q 6.59375 17.96875 6.59375 36.375 
Q 6.59375 54.828125 13.0625 64.515625 
Q 19.53125 74.21875 31.78125 74.21875 
z
" id="DejaVuSans-48"/>
       <path d="M 10.6875 12.40625 
L 21 12.40625 
L 21 0 
L 10.6875 0 
z
" id="DejaVuSans-46"/>
      </defs>
      <g transform="translate(62.568363 322.182437)scale(0.1 -0.1)">
       <use xlink:href="#DejaVuSans-48"/>
       <use x="63.623047" xlink:href="#DejaVuSans-46"/>
       <use x="95.410156" xlink:href="#DejaVuSans-48"/>
      </g>
     </g>
    </g>
    <g id="xtick_2">
     <g id="line2d_3">
      <path clip-path="url(#p17fe51cc0c)" d="M 136.775955 307.584 
L 136.775955 41.472 
" style="fill:none;stroke:#b0b0b0;stroke-linecap:square;stroke-width:0.8;"/>
     </g>
     <g id="line2d_4">
      <g>
       <use style="stroke:#000000;stroke-width:0.8;" x="136.775955" xlink:href="#md6ebc90273" y="307.584"/>
      </g>
     </g>
     <g id="text_2">
      <!-- 0.2 -->
      <defs>
       <path d="M 19.1875 8.296875 
L 53.609375 8.296875 
L 53.609375 0 
L 7.328125 0 
L 7.328125 8.296875 
Q 12.9375 14.109375 22.625 23.890625 
Q 32.328125 33.6875 34.8125 36.53125 
Q 39.546875 41.84375 41.421875 45.53125 
Q 43.3125 49.21875 43.3125 52.78125 
Q 43.3125 58.59375 39.234375 62.25 
Q 35.15625 65.921875 28.609375 65.921875 
Q 23.96875 65.921875 18.8125 64.3125 
Q 13.671875 62.703125 7.8125 59.421875 
L 7.8125 69.390625 
Q 13.765625 71.78125 18.9375 73 
Q 24.125 74.21875 28.421875 74.21875 
Q 39.75 74.21875 46.484375 68.546875 
Q 53.21875 62.890625 53.21875 53.421875 
Q 53.21875 48.921875 51.53125 44.890625 
Q 49.859375 40.875 45.40625 35.40625 
Q 44.1875 33.984375 37.640625 27.21875 
Q 31.109375 20.453125 19.1875 8.296875 
z
" id="DejaVuSans-50"/>
      </defs>
      <g transform="translate(128.824393 322.182437)scale(0.1 -0.1)">
       <use xlink:href="#DejaVuSans-48"/>
       <use x="63.623047" xlink:href="#DejaVuSans-46"/>
       <use x="95.410156" xlink:href="#DejaVuSans-50"/>
      </g>
     </g>
    </g>
    <g id="xtick_3">
     <g id="line2d_5">
      <path clip-path="url(#p17fe51cc0c)" d="M 203.031985 307.584 
L 203.031985 41.472 
" style="fill:none;stroke:#b0b0b0;stroke-linecap:square;stroke-width:0.8;"/>
     </g>
     <g id="line2d_6">
      <g>
       <use style="stroke:#000000;stroke-width:0.8;" x="203.031985" xlink:href="#md6ebc90273" y="307.584"/>
      </g>
     </g>
     <g id="text_3">
      <!-- 0.4 -->
      <defs>
       <path d="M 37.796875 64.3125 
L 12.890625 25.390625 
L 37.796875 25.390625 
z
M 35.203125 72.90625 
L 47.609375 72.90625 
L 47.609375 25.390625 
L 58.015625 25.390625 
L 58.015625 17.1875 
L 47.609375 17.1875 
L 47.609375 0 
L 37.796875 0 
L 37.796875 17.1875 
L 4.890625 17.1875 
L 4.890625 26.703125 
z
" id="DejaVuSans-52"/>
      </defs>
      <g transform="translate(195.080423 322.182437)scale(0.1 -0.1)">
       <use xlink:href="#DejaVuSans-48"/>
       <use x="63.623047" xlink:href="#DejaVuSans-46"/>
       <use x="95.410156" xlink:href="#DejaVuSans-52"/>
      </g>
     </g>
    </g>
    <g id="xtick_4">
     <g id="line2d_7">
      <path clip-path="url(#p17fe51cc0c)" d="M 269.288015 307.584 
L 269.288015 41.472 
" style="fill:none;stroke:#b0b0b0;stroke-linecap:square;stroke-width:0.8;"/>
     </g>
     <g id="line2d_8">
      <g>
       <use style="stroke:#000000;stroke-width:0.8;" x="269.288015" xlink:href="#md6ebc90273" y="307.584"/>
      </g>
     </g>
     <g id="text_4">
      <!-- 0.6 -->
      <defs>
       <path d="M 33.015625 40.375 
Q 26.375 40.375 22.484375 35.828125 
Q 18.609375 31.296875 18.609375 23.390625 
Q 18.609375 15.53125 22.484375 10.953125 
Q 26.375 6.390625 33.015625 6.390625 
Q 39.65625 6.390625 43.53125 10.953125 
Q 47.40625 15.53125 47.40625 23.390625 
Q 47.40625 31.296875 43.53125 35.828125 
Q 39.65625 40.375 33.015625 40.375 
z
M 52.59375 71.296875 
L 52.59375 62.3125 
Q 48.875 64.0625 45.09375 64.984375 
Q 41.3125 65.921875 37.59375 65.921875 
Q 27.828125 65.921875 22.671875 59.328125 
Q 17.53125 52.734375 16.796875 39.40625 
Q 19.671875 43.65625 24.015625 45.921875 
Q 28.375 48.1875 33.59375 48.1875 
Q 44.578125 48.1875 50.953125 41.515625 
Q 57.328125 34.859375 57.328125 23.390625 
Q 57.328125 12.15625 50.6875 5.359375 
Q 44.046875 -1.421875 33.015625 -1.421875 
Q 20.359375 -1.421875 13.671875 8.265625 
Q 6.984375 17.96875 6.984375 36.375 
Q 6.984375 53.65625 15.1875 63.9375 
Q 23.390625 74.21875 37.203125 74.21875 
Q 40.921875 74.21875 44.703125 73.484375 
Q 48.484375 72.75 52.59375 71.296875 
z
" id="DejaVuSans-54"/>
      </defs>
      <g transform="translate(261.336452 322.182437)scale(0.1 -0.1)">
       <use xlink:href="#DejaVuSans-48"/>
       <use x="63.623047" xlink:href="#DejaVuSans-46"/>
       <use x="95.410156" xlink:href="#DejaVuSans-54"/>
      </g>
     </g>
    </g>
    <g id="xtick_5">
     <g id="line2d_9">
      <path clip-path="url(#p17fe51cc0c)" d="M 335.544045 307.584 
L 335.544045 41.472 
" style="fill:none;stroke:#b0b0b0;stroke-linecap:square;stroke-width:0.8;"/>
     </g>
     <g id="line2d_10">
      <g>
       <use style="stroke:#000000;stroke-width:0.8;" x="335.544045" xlink:href="#md6ebc90273" y="307.584"/>
      </g>
     </g>
     <g id="text_5">
      <!-- 0.8 -->
      <defs>
       <path d="M 31.78125 34.625 
Q 24.75 34.625 20.71875 30.859375 
Q 16.703125 27.09375 16.703125 20.515625 
Q 16.703125 13.921875 20.71875 10.15625 
Q 24.75 6.390625 31.78125 6.390625 
Q 38.8125 6.390625 42.859375 10.171875 
Q 46.921875 13.96875 46.921875 20.515625 
Q 46.921875 27.09375 42.890625 30.859375 
Q 38.875 34.625 31.78125 34.625 
z
M 21.921875 38.8125 
Q 15.578125 40.375 12.03125 44.71875 
Q 8.5 49.078125 8.5 55.328125 
Q 8.5 64.0625 14.71875 69.140625 
Q 20.953125 74.21875 31.78125 74.21875 
Q 42.671875 74.21875 48.875 69.140625 
Q 55.078125 64.0625 55.078125 55.328125 
Q 55.078125 49.078125 51.53125 44.71875 
Q 48 40.375 41.703125 38.8125 
Q 48.828125 37.15625 52.796875 32.3125 
Q 56.78125 27.484375 56.78125 20.515625 
Q 56.78125 9.90625 50.3125 4.234375 
Q 43.84375 -1.421875 31.78125 -1.421875 
Q 19.734375 -1.421875 13.25 4.234375 
Q 6.78125 9.90625 6.78125 20.515625 
Q 6.78125 27.484375 10.78125 32.3125 
Q 14.796875 37.15625 21.921875 38.8125 
z
M 18.3125 54.390625 
Q 18.3125 48.734375 21.84375 45.5625 
Q 25.390625 42.390625 31.78125 42.390625 
Q 38.140625 42.390625 41.71875 45.5625 
Q 45.3125 48.734375 45.3125 54.390625 
Q 45.3125 60.0625 41.71875 63.234375 
Q 38.140625 66.40625 31.78125 66.40625 
Q 25.390625 66.40625 21.84375 63.234375 
Q 18.3125 60.0625 18.3125 54.390625 
z
" id="DejaVuSans-56"/>
      </defs>
      <g transform="translate(327.592482 322.182437)scale(0.1 -0.1)">
       <use xlink:href="#DejaVuSans-48"/>
       <use x="63.623047" xlink:href="#DejaVuSans-46"/>
       <use x="95.410156" xlink:href="#DejaVuSans-56"/>
      </g>
     </g>
    </g>
    <g id="xtick_6">
     <g id="line2d_11">
      <path clip-path="url(#p17fe51cc0c)" d="M 401.800074 307.584 
L 401.800074 41.472 
" style="fill:none;stroke:#b0b0b0;stroke-linecap:square;stroke-width:0.8;"/>
     </g>
     <g id="line2d_12">
      <g>
       <use style="stroke:#000000;stroke-width:0.8;" x="401.800074" xlink:href="#md6ebc90273" y="307.584"/>
      </g>
     </g>
     <g id="text_6">
      <!-- 1.0 -->
      <defs>
       <path d="M 12.40625 8.296875 
L 28.515625 8.296875 
L 28.515625 63.921875 
L 10.984375 60.40625 
L 10.984375 69.390625 
L 28.421875 72.90625 
L 38.28125 72.90625 
L 38.28125 8.296875 
L 54.390625 8.296875 
L 54.390625 0 
L 12.40625 0 
z
" id="DejaVuSans-49"/>
      </defs>
      <g transform="translate(393.848512 322.182437)scale(0.1 -0.1)">
       <use xlink:href="#DejaVuSans-49"/>
       <use x="63.623047" xlink:href="#DejaVuSans-46"/>
       <use x="95.410156" xlink:href="#DejaVuSans-48"/>
      </g>
     </g>
    </g>
    <g id="text_7">
     <!-- $\mathrm{Time \ (seconds)}$ -->
     <defs>
      <path d="M -0.296875 72.90625 
L 61.375 72.90625 
L 61.375 64.59375 
L 35.5 64.59375 
L 35.5 0 
L 25.59375 0 
L 25.59375 64.59375 
L -0.296875 64.59375 
z
" id="DejaVuSans-84"/>
      <path d="M 9.421875 54.6875 
L 18.40625 54.6875 
L 18.40625 0 
L 9.421875 0 
z
M 9.421875 75.984375 
L 18.40625 75.984375 
L 18.40625 64.59375 
L 9.421875 64.59375 
z
" id="DejaVuSans-105"/>
      <path d="M 52 44.1875 
Q 55.375 50.25 60.0625 53.125 
Q 64.75 56 71.09375 56 
Q 79.640625 56 84.28125 50.015625 
Q 88.921875 44.046875 88.921875 33.015625 
L 88.921875 0 
L 79.890625 0 
L 79.890625 32.71875 
Q 79.890625 40.578125 77.09375 44.375 
Q 74.3125 48.1875 68.609375 48.1875 
Q 61.625 48.1875 57.5625 43.546875 
Q 53.515625 38.921875 53.515625 30.90625 
L 53.515625 0 
L 44.484375 0 
L 44.484375 32.71875 
Q 44.484375 40.625 41.703125 44.40625 
Q 38.921875 48.1875 33.109375 48.1875 
Q 26.21875 48.1875 22.15625 43.53125 
Q 18.109375 38.875 18.109375 30.90625 
L 18.109375 0 
L 9.078125 0 
L 9.078125 54.6875 
L 18.109375 54.6875 
L 18.109375 46.1875 
Q 21.1875 51.21875 25.484375 53.609375 
Q 29.78125 56 35.6875 56 
Q 41.65625 56 45.828125 52.96875 
Q 50 49.953125 52 44.1875 
z
" id="DejaVuSans-109"/>
      <path d="M 56.203125 29.59375 
L 56.203125 25.203125 
L 14.890625 25.203125 
Q 15.484375 15.921875 20.484375 11.0625 
Q 25.484375 6.203125 34.421875 6.203125 
Q 39.59375 6.203125 44.453125 7.46875 
Q 49.3125 8.734375 54.109375 11.28125 
L 54.109375 2.78125 
Q 49.265625 0.734375 44.1875 -0.34375 
Q 39.109375 -1.421875 33.890625 -1.421875 
Q 20.796875 -1.421875 13.15625 6.1875 
Q 5.515625 13.8125 5.515625 26.8125 
Q 5.515625 40.234375 12.765625 48.109375 
Q 20.015625 56 32.328125 56 
Q 43.359375 56 49.78125 48.890625 
Q 56.203125 41.796875 56.203125 29.59375 
z
M 47.21875 32.234375 
Q 47.125 39.59375 43.09375 43.984375 
Q 39.0625 48.390625 32.421875 48.390625 
Q 24.90625 48.390625 20.390625 44.140625 
Q 15.875 39.890625 15.1875 32.171875 
z
" id="DejaVuSans-101"/>
      <path d="M 31 75.875 
Q 24.46875 64.65625 21.28125 53.65625 
Q 18.109375 42.671875 18.109375 31.390625 
Q 18.109375 20.125 21.3125 9.0625 
Q 24.515625 -2 31 -13.1875 
L 23.1875 -13.1875 
Q 15.875 -1.703125 12.234375 9.375 
Q 8.59375 20.453125 8.59375 31.390625 
Q 8.59375 42.28125 12.203125 53.3125 
Q 15.828125 64.359375 23.1875 75.875 
z
" id="DejaVuSans-40"/>
      <path d="M 44.28125 53.078125 
L 44.28125 44.578125 
Q 40.484375 46.53125 36.375 47.5 
Q 32.28125 48.484375 27.875 48.484375 
Q 21.1875 48.484375 17.84375 46.4375 
Q 14.5 44.390625 14.5 40.28125 
Q 14.5 37.15625 16.890625 35.375 
Q 19.28125 33.59375 26.515625 31.984375 
L 29.59375 31.296875 
Q 39.15625 29.25 43.1875 25.515625 
Q 47.21875 21.78125 47.21875 15.09375 
Q 47.21875 7.46875 41.1875 3.015625 
Q 35.15625 -1.421875 24.609375 -1.421875 
Q 20.21875 -1.421875 15.453125 -0.5625 
Q 10.6875 0.296875 5.421875 2 
L 5.421875 11.28125 
Q 10.40625 8.6875 15.234375 7.390625 
Q 20.0625 6.109375 24.8125 6.109375 
Q 31.15625 6.109375 34.5625 8.28125 
Q 37.984375 10.453125 37.984375 14.40625 
Q 37.984375 18.0625 35.515625 20.015625 
Q 33.0625 21.96875 24.703125 23.78125 
L 21.578125 24.515625 
Q 13.234375 26.265625 9.515625 29.90625 
Q 5.8125 33.546875 5.8125 39.890625 
Q 5.8125 47.609375 11.28125 51.796875 
Q 16.75 56 26.8125 56 
Q 31.78125 56 36.171875 55.265625 
Q 40.578125 54.546875 44.28125 53.078125 
z
" id="DejaVuSans-115"/>
      <path d="M 48.78125 52.59375 
L 48.78125 44.1875 
Q 44.96875 46.296875 41.140625 47.34375 
Q 37.3125 48.390625 33.40625 48.390625 
Q 24.65625 48.390625 19.8125 42.84375 
Q 14.984375 37.3125 14.984375 27.296875 
Q 14.984375 17.28125 19.8125 11.734375 
Q 24.65625 6.203125 33.40625 6.203125 
Q 37.3125 6.203125 41.140625 7.25 
Q 44.96875 8.296875 48.78125 10.40625 
L 48.78125 2.09375 
Q 45.015625 0.34375 40.984375 -0.53125 
Q 36.96875 -1.421875 32.421875 -1.421875 
Q 20.0625 -1.421875 12.78125 6.34375 
Q 5.515625 14.109375 5.515625 27.296875 
Q 5.515625 40.671875 12.859375 48.328125 
Q 20.21875 56 33.015625 56 
Q 37.15625 56 41.109375 55.140625 
Q 45.0625 54.296875 48.78125 52.59375 
z
" id="DejaVuSans-99"/>
      <path d="M 30.609375 48.390625 
Q 23.390625 48.390625 19.1875 42.75 
Q 14.984375 37.109375 14.984375 27.296875 
Q 14.984375 17.484375 19.15625 11.84375 
Q 23.34375 6.203125 30.609375 6.203125 
Q 37.796875 6.203125 41.984375 11.859375 
Q 46.1875 17.53125 46.1875 27.296875 
Q 46.1875 37.015625 41.984375 42.703125 
Q 37.796875 48.390625 30.609375 48.390625 
z
M 30.609375 56 
Q 42.328125 56 49.015625 48.375 
Q 55.71875 40.765625 55.71875 27.296875 
Q 55.71875 13.875 49.015625 6.21875 
Q 42.328125 -1.421875 30.609375 -1.421875 
Q 18.84375 -1.421875 12.171875 6.21875 
Q 5.515625 13.875 5.515625 27.296875 
Q 5.515625 40.765625 12.171875 48.375 
Q 18.84375 56 30.609375 56 
z
" id="DejaVuSans-111"/>
      <path d="M 54.890625 33.015625 
L 54.890625 0 
L 45.90625 0 
L 45.90625 32.71875 
Q 45.90625 40.484375 42.875 44.328125 
Q 39.84375 48.1875 33.796875 48.1875 
Q 26.515625 48.1875 22.3125 43.546875 
Q 18.109375 38.921875 18.109375 30.90625 
L 18.109375 0 
L 9.078125 0 
L 9.078125 54.6875 
L 18.109375 54.6875 
L 18.109375 46.1875 
Q 21.34375 51.125 25.703125 53.5625 
Q 30.078125 56 35.796875 56 
Q 45.21875 56 50.046875 50.171875 
Q 54.890625 44.34375 54.890625 33.015625 
z
" id="DejaVuSans-110"/>
      <path d="M 45.40625 46.390625 
L 45.40625 75.984375 
L 54.390625 75.984375 
L 54.390625 0 
L 45.40625 0 
L 45.40625 8.203125 
Q 42.578125 3.328125 38.25 0.953125 
Q 33.9375 -1.421875 27.875 -1.421875 
Q 17.96875 -1.421875 11.734375 6.484375 
Q 5.515625 14.40625 5.515625 27.296875 
Q 5.515625 40.1875 11.734375 48.09375 
Q 17.96875 56 27.875 56 
Q 33.9375 56 38.25 53.625 
Q 42.578125 51.265625 45.40625 46.390625 
z
M 14.796875 27.296875 
Q 14.796875 17.390625 18.875 11.75 
Q 22.953125 6.109375 30.078125 6.109375 
Q 37.203125 6.109375 41.296875 11.75 
Q 45.40625 17.390625 45.40625 27.296875 
Q 45.40625 37.203125 41.296875 42.84375 
Q 37.203125 48.484375 30.078125 48.484375 
Q 22.953125 48.484375 18.875 42.84375 
Q 14.796875 37.203125 14.796875 27.296875 
z
" id="DejaVuSans-100"/>
      <path d="M 8.015625 75.875 
L 15.828125 75.875 
Q 23.140625 64.359375 26.78125 53.3125 
Q 30.421875 42.28125 30.421875 31.390625 
Q 30.421875 20.453125 26.78125 9.375 
Q 23.140625 -1.703125 15.828125 -13.1875 
L 8.015625 -13.1875 
Q 14.5 -2 17.703125 9.0625 
Q 20.90625 20.125 20.90625 31.390625 
Q 20.90625 42.671875 17.703125 53.65625 
Q 14.5 64.65625 8.015625 75.875 
z
" id="DejaVuSans-41"/>
     </defs>
     <g transform="translate(197.76 335.860562)scale(0.1 -0.1)">
      <use transform="translate(0 0.015625)" xlink:href="#DejaVuSans-84"/>
      <use transform="translate(61.083984 0.015625)" xlink:href="#DejaVuSans-105"/>
      <use transform="translate(88.867188 0.015625)" xlink:href="#DejaVuSans-109"/>
      <use transform="translate(186.279297 0.015625)" xlink:href="#DejaVuSans-101"/>
      <use transform="translate(280.273113 0.015625)" xlink:href="#DejaVuSans-40"/>
      <use transform="translate(319.286785 0.015625)" xlink:href="#DejaVuSans-115"/>
      <use transform="translate(371.386394 0.015625)" xlink:href="#DejaVuSans-101"/>
      <use transform="translate(432.909832 0.015625)" xlink:href="#DejaVuSans-99"/>
      <use transform="translate(487.8903 0.015625)" xlink:href="#DejaVuSans-111"/>
      <use transform="translate(549.071941 0.015625)" xlink:href="#DejaVuSans-110"/>
      <use transform="translate(612.450847 0.015625)" xlink:href="#DejaVuSans-100"/>
      <use transform="translate(675.92741 0.015625)" xlink:href="#DejaVuSans-115"/>
      <use transform="translate(728.027019 0.015625)" xlink:href="#DejaVuSans-41"/>
     </g>
    </g>
   </g>
   <g id="matplotlib.axis_2">
    <g id="ytick_1">
     <g id="line2d_13">
      <path clip-path="url(#p17fe51cc0c)" d="M 57.6 161.565841 
L 414.72 161.565841 
" style="fill:none;stroke:#b0b0b0;stroke-linecap:square;stroke-width:0.8;"/>
     </g>
     <g id="line2d_14">
      <defs>
       <path d="M 0 0 
L -3.5 0 
" id="m535dd7e19b" style="stroke:#000000;stroke-width:0.8;"/>
      </defs>
      <g>
       <use style="stroke:#000000;stroke-width:0.8;" x="57.6" xlink:href="#m535dd7e19b" y="161.565841"/>
      </g>
     </g>
     <g id="text_8">
      <!-- $\mathdefault{10^{-1}}$ -->
      <defs>
       <path d="M 10.59375 35.5 
L 73.1875 35.5 
L 73.1875 27.203125 
L 10.59375 27.203125 
z
" id="DejaVuSans-8722"/>
      </defs>
      <g transform="translate(27.1 165.36506)scale(0.1 -0.1)">
       <use transform="translate(0 0.684375)" xlink:href="#DejaVuSans-49"/>
       <use transform="translate(63.623047 0.684375)" xlink:href="#DejaVuSans-48"/>
       <use transform="translate(128.203125 38.965625)scale(0.7)" xlink:href="#DejaVuSans-8722"/>
       <use transform="translate(186.855469 38.965625)scale(0.7)" xlink:href="#DejaVuSans-49"/>
      </g>
     </g>
    </g>
    <g id="ytick_2">
     <g id="line2d_15">
      <defs>
       <path d="M 0 0 
L -2 0 
" id="mc7ffdf5206" style="stroke:#000000;stroke-width:0.6;"/>
      </defs>
      <g>
       <use style="stroke:#000000;stroke-width:0.6;" x="57.6" xlink:href="#mc7ffdf5206" y="295.129496"/>
      </g>
     </g>
    </g>
    <g id="ytick_3">
     <g id="line2d_16">
      <g>
       <use style="stroke:#000000;stroke-width:0.6;" x="57.6" xlink:href="#mc7ffdf5206" y="261.480853"/>
      </g>
     </g>
    </g>
    <g id="ytick_4">
     <g id="line2d_17">
      <g>
       <use style="stroke:#000000;stroke-width:0.6;" x="57.6" xlink:href="#mc7ffdf5206" y="237.60676"/>
      </g>
     </g>
    </g>
    <g id="ytick_5">
     <g id="line2d_18">
      <g>
       <use style="stroke:#000000;stroke-width:0.6;" x="57.6" xlink:href="#mc7ffdf5206" y="219.088576"/>
      </g>
     </g>
    </g>
    <g id="ytick_6">
     <g id="line2d_19">
      <g>
       <use style="stroke:#000000;stroke-width:0.6;" x="57.6" xlink:href="#mc7ffdf5206" y="203.958118"/>
      </g>
     </g>
    </g>
    <g id="ytick_7">
     <g id="line2d_20">
      <g>
       <use style="stroke:#000000;stroke-width:0.6;" x="57.6" xlink:href="#mc7ffdf5206" y="191.165497"/>
      </g>
     </g>
    </g>
    <g id="ytick_8">
     <g id="line2d_21">
      <g>
       <use style="stroke:#000000;stroke-width:0.6;" x="57.6" xlink:href="#mc7ffdf5206" y="180.084025"/>
      </g>
     </g>
    </g>
    <g id="ytick_9">
     <g id="line2d_22">
      <g>
       <use style="stroke:#000000;stroke-width:0.6;" x="57.6" xlink:href="#mc7ffdf5206" y="170.309475"/>
      </g>
     </g>
    </g>
    <g id="ytick_10">
     <g id="line2d_23">
      <g>
       <use style="stroke:#000000;stroke-width:0.6;" x="57.6" xlink:href="#mc7ffdf5206" y="104.043106"/>
      </g>
     </g>
    </g>
    <g id="ytick_11">
     <g id="line2d_24">
      <g>
       <use style="stroke:#000000;stroke-width:0.6;" x="57.6" xlink:href="#mc7ffdf5206" y="70.394463"/>
      </g>
     </g>
    </g>
    <g id="ytick_12">
     <g id="line2d_25">
      <g>
       <use style="stroke:#000000;stroke-width:0.6;" x="57.6" xlink:href="#mc7ffdf5206" y="46.520371"/>
      </g>
     </g>
    </g>
    <g id="text_9">
     <!-- $\mathrm{Relative \ error}$ ($N_{\mathrm{train}}=5$) -->
     <defs>
      <path d="M 44.390625 34.1875 
Q 47.5625 33.109375 50.5625 29.59375 
Q 53.5625 26.078125 56.59375 19.921875 
L 66.609375 0 
L 56 0 
L 46.6875 18.703125 
Q 43.0625 26.03125 39.671875 28.421875 
Q 36.28125 30.8125 30.421875 30.8125 
L 19.671875 30.8125 
L 19.671875 0 
L 9.8125 0 
L 9.8125 72.90625 
L 32.078125 72.90625 
Q 44.578125 72.90625 50.734375 67.671875 
Q 56.890625 62.453125 56.890625 51.90625 
Q 56.890625 45.015625 53.6875 40.46875 
Q 50.484375 35.9375 44.390625 34.1875 
z
M 19.671875 64.796875 
L 19.671875 38.921875 
L 32.078125 38.921875 
Q 39.203125 38.921875 42.84375 42.21875 
Q 46.484375 45.515625 46.484375 51.90625 
Q 46.484375 58.296875 42.84375 61.546875 
Q 39.203125 64.796875 32.078125 64.796875 
z
" id="DejaVuSans-82"/>
      <path d="M 9.421875 75.984375 
L 18.40625 75.984375 
L 18.40625 0 
L 9.421875 0 
z
" id="DejaVuSans-108"/>
      <path d="M 34.28125 27.484375 
Q 23.390625 27.484375 19.1875 25 
Q 14.984375 22.515625 14.984375 16.5 
Q 14.984375 11.71875 18.140625 8.90625 
Q 21.296875 6.109375 26.703125 6.109375 
Q 34.1875 6.109375 38.703125 11.40625 
Q 43.21875 16.703125 43.21875 25.484375 
L 43.21875 27.484375 
z
M 52.203125 31.203125 
L 52.203125 0 
L 43.21875 0 
L 43.21875 8.296875 
Q 40.140625 3.328125 35.546875 0.953125 
Q 30.953125 -1.421875 24.3125 -1.421875 
Q 15.921875 -1.421875 10.953125 3.296875 
Q 6 8.015625 6 15.921875 
Q 6 25.140625 12.171875 29.828125 
Q 18.359375 34.515625 30.609375 34.515625 
L 43.21875 34.515625 
L 43.21875 35.40625 
Q 43.21875 41.609375 39.140625 45 
Q 35.0625 48.390625 27.6875 48.390625 
Q 23 48.390625 18.546875 47.265625 
Q 14.109375 46.140625 10.015625 43.890625 
L 10.015625 52.203125 
Q 14.9375 54.109375 19.578125 55.046875 
Q 24.21875 56 28.609375 56 
Q 40.484375 56 46.34375 49.84375 
Q 52.203125 43.703125 52.203125 31.203125 
z
" id="DejaVuSans-97"/>
      <path d="M 18.3125 70.21875 
L 18.3125 54.6875 
L 36.8125 54.6875 
L 36.8125 47.703125 
L 18.3125 47.703125 
L 18.3125 18.015625 
Q 18.3125 11.328125 20.140625 9.421875 
Q 21.96875 7.515625 27.59375 7.515625 
L 36.8125 7.515625 
L 36.8125 0 
L 27.59375 0 
Q 17.1875 0 13.234375 3.875 
Q 9.28125 7.765625 9.28125 18.015625 
L 9.28125 47.703125 
L 2.6875 47.703125 
L 2.6875 54.6875 
L 9.28125 54.6875 
L 9.28125 70.21875 
z
" id="DejaVuSans-116"/>
      <path d="M 2.984375 54.6875 
L 12.5 54.6875 
L 29.59375 8.796875 
L 46.6875 54.6875 
L 56.203125 54.6875 
L 35.6875 0 
L 23.484375 0 
z
" id="DejaVuSans-118"/>
      <path d="M 41.109375 46.296875 
Q 39.59375 47.171875 37.8125 47.578125 
Q 36.03125 48 33.890625 48 
Q 26.265625 48 22.1875 43.046875 
Q 18.109375 38.09375 18.109375 28.8125 
L 18.109375 0 
L 9.078125 0 
L 9.078125 54.6875 
L 18.109375 54.6875 
L 18.109375 46.1875 
Q 20.953125 51.171875 25.484375 53.578125 
Q 30.03125 56 36.53125 56 
Q 37.453125 56 38.578125 55.875 
Q 39.703125 55.765625 41.0625 55.515625 
z
" id="DejaVuSans-114"/>
      <path id="DejaVuSans-32"/>
      <path d="M 16.890625 72.90625 
L 30.171875 72.90625 
L 50.296875 10.40625 
L 62.5 72.90625 
L 72.125 72.90625 
L 57.90625 0 
L 44.578125 0 
L 24.515625 62.890625 
L 12.3125 0 
L 2.6875 0 
z
" id="DejaVuSans-Oblique-78"/>
      <path d="M 10.59375 45.40625 
L 73.1875 45.40625 
L 73.1875 37.203125 
L 10.59375 37.203125 
z
M 10.59375 25.484375 
L 73.1875 25.484375 
L 73.1875 17.1875 
L 10.59375 17.1875 
z
" id="DejaVuSans-61"/>
      <path d="M 10.796875 72.90625 
L 49.515625 72.90625 
L 49.515625 64.59375 
L 19.828125 64.59375 
L 19.828125 46.734375 
Q 21.96875 47.46875 24.109375 47.828125 
Q 26.265625 48.1875 28.421875 48.1875 
Q 40.625 48.1875 47.75 41.5 
Q 54.890625 34.8125 54.890625 23.390625 
Q 54.890625 11.625 47.5625 5.09375 
Q 40.234375 -1.421875 26.90625 -1.421875 
Q 22.3125 -1.421875 17.546875 -0.640625 
Q 12.796875 0.140625 7.71875 1.703125 
L 7.71875 11.625 
Q 12.109375 9.234375 16.796875 8.0625 
Q 21.484375 6.890625 26.703125 6.890625 
Q 35.15625 6.890625 40.078125 11.328125 
Q 45.015625 15.765625 45.015625 23.390625 
Q 45.015625 31 40.078125 35.4375 
Q 35.15625 39.890625 26.703125 39.890625 
Q 22.75 39.890625 18.8125 39.015625 
Q 14.890625 38.140625 10.796875 36.28125 
z
" id="DejaVuSans-53"/>
     </defs>
     <g transform="translate(21.020312 235.678)rotate(-90)scale(0.1 -0.1)">
      <use transform="translate(0 0.015625)" xlink:href="#DejaVuSans-82"/>
      <use transform="translate(69.482422 0.015625)" xlink:href="#DejaVuSans-101"/>
      <use transform="translate(131.005859 0.015625)" xlink:href="#DejaVuSans-108"/>
      <use transform="translate(158.789062 0.015625)" xlink:href="#DejaVuSans-97"/>
      <use transform="translate(220.068359 0.015625)" xlink:href="#DejaVuSans-116"/>
      <use transform="translate(259.277344 0.015625)" xlink:href="#DejaVuSans-105"/>
      <use transform="translate(287.060547 0.015625)" xlink:href="#DejaVuSans-118"/>
      <use transform="translate(346.240234 0.015625)" xlink:href="#DejaVuSans-101"/>
      <use transform="translate(440.23405 0.015625)" xlink:href="#DejaVuSans-101"/>
      <use transform="translate(501.757488 0.015625)" xlink:href="#DejaVuSans-114"/>
      <use transform="translate(542.870769 0.015625)" xlink:href="#DejaVuSans-114"/>
      <use transform="translate(583.98405 0.015625)" xlink:href="#DejaVuSans-111"/>
      <use transform="translate(645.165691 0.015625)" xlink:href="#DejaVuSans-114"/>
      <use transform="translate(686.278972 0.015625)" xlink:href="#DejaVuSans-32"/>
      <use transform="translate(718.066082 0.015625)" xlink:href="#DejaVuSans-40"/>
      <use transform="translate(757.079753 0.015625)" xlink:href="#DejaVuSans-Oblique-78"/>
      <use transform="translate(831.884441 -16.390625)scale(0.7)" xlink:href="#DejaVuSans-116"/>
      <use transform="translate(859.33073 -16.390625)scale(0.7)" xlink:href="#DejaVuSans-114"/>
      <use transform="translate(888.110027 -16.390625)scale(0.7)" xlink:href="#DejaVuSans-97"/>
      <use transform="translate(931.005535 -16.390625)scale(0.7)" xlink:href="#DejaVuSans-105"/>
      <use transform="translate(950.453777 -16.390625)scale(0.7)" xlink:href="#DejaVuSans-110"/>
      <use transform="translate(1017.035808 0.015625)" xlink:href="#DejaVuSans-61"/>
      <use transform="translate(1120.307292 0.015625)" xlink:href="#DejaVuSans-53"/>
      <use transform="translate(1183.930339 0.015625)" xlink:href="#DejaVuSans-41"/>
     </g>
    </g>
   </g>
   <g id="line2d_26">
    <path clip-path="url(#p17fe51cc0c)" d="M 73.832724 276.31032 
L 77.145522 243.053333 
L 80.458321 218.157026 
L 83.771119 198.211103 
L 87.083917 181.710529 
L 90.396716 167.834424 
L 93.709554 156.053529 
L 97.022352 145.980354 
L 100.33515 137.31216 
L 103.647949 129.805658 
L 106.960747 123.264449 
L 110.273545 117.529016 
L 113.586344 112.470149 
L 116.899142 107.983158 
L 120.21194 103.982848 
L 123.524738 100.399282 
L 126.837537 97.17535 
L 130.150375 94.264523 
L 133.463173 91.628642 
L 136.775971 89.236319 
L 140.08877 87.061625 
L 143.401568 85.082819 
L 146.714366 83.281361 
L 150.027165 81.641456 
L 153.339963 80.149693 
L 156.652761 78.794715 
L 159.96556 77.56714 
L 163.278358 76.459109 
L 166.591156 75.464129 
L 169.903955 74.576973 
L 173.216753 73.793434 
L 176.529551 73.110193 
L 179.842389 72.524305 
L 183.155187 72.033303 
L 186.467986 71.6353 
L 189.780784 71.328851 
L 193.093582 71.113042 
L 196.406381 70.987369 
L 199.719179 70.951623 
L 203.031977 71.005746 
L 206.344776 71.149664 
L 209.657574 71.382812 
L 212.970412 71.703731 
L 216.28321 72.109107 
L 219.596008 72.592872 
L 226.221605 73.748141 
L 236.16 75.604497 
L 239.472798 76.127005 
L 242.785597 76.54854 
L 246.098395 76.848952 
L 249.411193 77.018843 
L 252.723992 77.058221 
L 256.03679 76.97387 
L 259.349588 76.776805 
L 262.662387 76.480043 
L 265.975185 76.097073 
L 269.288023 75.641146 
L 275.913619 74.558065 
L 282.539216 73.314612 
L 292.477651 71.286232 
L 315.667239 66.469073 
L 325.605634 64.550896 
L 335.544029 62.785028 
L 342.169625 61.708297 
L 348.795222 60.722186 
L 355.420858 59.835291 
L 362.046455 59.055467 
L 368.672051 58.388443 
L 375.297688 57.838551 
L 381.923284 57.410714 
L 388.548881 57.110893 
L 395.174478 56.946678 
L 398.487276 56.918205 
" style="fill:none;stroke:#ff0000;stroke-linecap:square;stroke-width:1.5;"/>
   </g>
   <g id="line2d_27">
    <path clip-path="url(#p17fe51cc0c)" d="M 73.832724 280.278401 
L 77.145522 246.968935 
L 80.458321 222.034994 
L 83.771119 202.065701 
L 87.083917 185.554032 
L 90.396716 171.676625 
L 93.709554 159.902041 
L 97.022352 149.841167 
L 100.33515 141.189419 
L 103.647949 133.701416 
L 106.960747 127.179618 
L 110.273545 121.463935 
L 113.586344 116.424661 
L 116.899142 111.956641 
L 120.21194 107.974068 
L 123.524738 104.406996 
L 126.837537 101.198376 
L 130.150375 98.301788 
L 133.463173 95.680027 
L 136.775971 93.302351 
L 140.08877 91.143038 
L 143.401568 89.180463 
L 146.714366 87.396096 
L 150.027165 85.773938 
L 153.339963 84.300374 
L 156.652761 82.964046 
L 159.96556 81.755719 
L 163.278358 80.667576 
L 166.591156 79.693244 
L 169.903955 78.827625 
L 173.216753 78.066802 
L 176.529551 77.407661 
L 179.842389 76.847446 
L 183.155187 76.383933 
L 186.467986 76.015431 
L 189.780784 75.740874 
L 193.093582 75.559687 
L 196.406381 75.471674 
L 199.719179 75.476933 
L 203.031977 75.575771 
L 206.344776 75.768232 
L 209.657574 76.053815 
L 212.970412 76.430635 
L 216.28321 76.894392 
L 219.596008 77.437109 
L 226.221605 78.697537 
L 232.847202 80.011259 
L 236.16 80.597124 
L 239.472798 81.086667 
L 242.785597 81.453141 
L 246.098395 81.68157 
L 249.411193 81.76836 
L 252.723992 81.718386 
L 256.03679 81.542191 
L 259.349588 81.253214 
L 262.662387 80.866031 
L 265.975185 80.395042 
L 269.288023 79.853966 
L 275.913619 78.609948 
L 282.539216 77.21779 
L 292.477651 74.986793 
L 312.35444 70.488 
L 322.292835 68.374744 
L 332.23123 66.413585 
L 338.856827 65.206512 
L 345.482424 64.089692 
L 352.10806 63.071568 
L 358.733656 62.160832 
L 365.359253 61.365334 
L 371.984889 60.690517 
L 378.610486 60.141063 
L 385.236083 59.722626 
L 391.861679 59.442075 
L 398.487276 59.308228 
" style="fill:none;stroke:#0000ff;stroke-linecap:square;stroke-width:1.5;"/>
   </g>
   <g id="line2d_28">
    <path clip-path="url(#p17fe51cc0c)" d="M 73.832724 289.645626 
L 77.145522 256.258545 
L 80.458321 231.275199 
L 83.771119 211.274542 
L 87.083917 194.750887 
L 90.396716 180.883215 
L 93.709554 169.139308 
L 97.022352 159.127639 
L 100.33515 150.541173 
L 103.647949 143.131145 
L 106.960747 136.696295 
L 110.273545 131.073052 
L 113.586344 126.129379 
L 116.899142 121.759952 
L 120.21194 117.87948 
L 123.524738 114.417984 
L 126.837537 111.317591 
L 130.150375 108.53059 
L 133.463173 106.018037 
L 136.775971 103.7479 
L 140.08877 101.693529 
L 143.401568 99.832648 
L 146.714366 98.146617 
L 150.027165 96.619605 
L 153.339963 95.238159 
L 156.652761 93.990971 
L 159.96556 92.868976 
L 163.278358 91.864958 
L 166.591156 90.973378 
L 169.903955 90.189859 
L 173.216753 89.51104 
L 176.529551 88.933948 
L 179.842389 88.456128 
L 183.155187 88.075739 
L 186.467986 87.791725 
L 189.780784 87.603501 
L 193.093582 87.510924 
L 196.406381 87.514161 
L 199.719179 87.613706 
L 203.031977 87.809656 
L 206.344776 88.101594 
L 209.657574 88.487567 
L 212.970412 88.963149 
L 216.28321 89.51951 
L 222.908807 90.806953 
L 229.534403 92.129652 
L 232.847202 92.705602 
L 236.16 93.17278 
L 239.472798 93.503607 
L 242.785597 93.683245 
L 246.098395 93.708757 
L 249.411193 93.586045 
L 252.723992 93.326796 
L 256.03679 92.945697 
L 259.349588 92.458516 
L 262.662387 91.880945 
L 265.975185 91.227864 
L 272.600821 89.748399 
L 279.226418 88.112162 
L 289.164852 85.512141 
L 305.728844 81.148771 
L 315.667239 78.654113 
L 325.605634 76.315031 
L 332.23123 74.859252 
L 338.856827 73.496229 
L 345.482424 72.233827 
L 352.10806 71.080076 
L 358.733656 70.043231 
L 365.359253 69.130488 
L 371.984889 68.347087 
L 378.610486 67.69747 
L 385.236083 67.186349 
L 391.861679 66.819695 
L 398.487276 66.605156 
" style="fill:none;stroke:#00ffff;stroke-linecap:square;stroke-width:1.5;"/>
   </g>
   <g id="patch_3">
    <path d="M 57.6 307.584 
L 57.6 41.472 
" style="fill:none;stroke:#000000;stroke-linecap:square;stroke-linejoin:miter;stroke-width:0.8;"/>
   </g>
   <g id="patch_4">
    <path d="M 414.72 307.584 
L 414.72 41.472 
" style="fill:none;stroke:#000000;stroke-linecap:square;stroke-linejoin:miter;stroke-width:0.8;"/>
   </g>
   <g id="patch_5">
    <path d="M 57.6 307.584 
L 414.72 307.584 
" style="fill:none;stroke:#000000;stroke-linecap:square;stroke-linejoin:miter;stroke-width:0.8;"/>
   </g>
   <g id="patch_6">
    <path d="M 57.6 41.472 
L 414.72 41.472 
" style="fill:none;stroke:#000000;stroke-linecap:square;stroke-linejoin:miter;stroke-width:0.8;"/>
   </g>
   <g id="legend_1">
    <g id="patch_7">
     <path d="M 282.559063 302.584 
L 407.72 302.584 
Q 409.72 302.584 409.72 300.584 
L 409.72 257.549625 
Q 409.72 255.549625 407.72 255.549625 
L 282.559063 255.549625 
Q 280.559063 255.549625 280.559063 257.549625 
L 280.559063 300.584 
Q 280.559063 302.584 282.559063 302.584 
z
" style="fill:#ffffff;opacity:0.8;stroke:#cccccc;stroke-linejoin:miter;"/>
    </g>
    <g id="line2d_29">
     <path d="M 284.559063 263.648062 
L 304.559063 263.648062 
" style="fill:none;stroke:#ff0000;stroke-linecap:square;stroke-width:1.5;"/>
    </g>
    <g id="line2d_30"/>
    <g id="text_10">
     <!-- No denoising -->
     <defs>
      <path d="M 9.8125 72.90625 
L 23.09375 72.90625 
L 55.421875 11.921875 
L 55.421875 72.90625 
L 64.984375 72.90625 
L 64.984375 0 
L 51.703125 0 
L 19.390625 60.984375 
L 19.390625 0 
L 9.8125 0 
z
" id="DejaVuSans-78"/>
      <path d="M 45.40625 27.984375 
Q 45.40625 37.75 41.375 43.109375 
Q 37.359375 48.484375 30.078125 48.484375 
Q 22.859375 48.484375 18.828125 43.109375 
Q 14.796875 37.75 14.796875 27.984375 
Q 14.796875 18.265625 18.828125 12.890625 
Q 22.859375 7.515625 30.078125 7.515625 
Q 37.359375 7.515625 41.375 12.890625 
Q 45.40625 18.265625 45.40625 27.984375 
z
M 54.390625 6.78125 
Q 54.390625 -7.171875 48.1875 -13.984375 
Q 42 -20.796875 29.203125 -20.796875 
Q 24.46875 -20.796875 20.265625 -20.09375 
Q 16.0625 -19.390625 12.109375 -17.921875 
L 12.109375 -9.1875 
Q 16.0625 -11.328125 19.921875 -12.34375 
Q 23.78125 -13.375 27.78125 -13.375 
Q 36.625 -13.375 41.015625 -8.765625 
Q 45.40625 -4.15625 45.40625 5.171875 
L 45.40625 9.625 
Q 42.625 4.78125 38.28125 2.390625 
Q 33.9375 0 27.875 0 
Q 17.828125 0 11.671875 7.65625 
Q 5.515625 15.328125 5.515625 27.984375 
Q 5.515625 40.671875 11.671875 48.328125 
Q 17.828125 56 27.875 56 
Q 33.9375 56 38.28125 53.609375 
Q 42.625 51.21875 45.40625 46.390625 
L 45.40625 54.6875 
L 54.390625 54.6875 
z
" id="DejaVuSans-103"/>
     </defs>
     <g transform="translate(312.559063 267.148062)scale(0.1 -0.1)">
      <use xlink:href="#DejaVuSans-78"/>
      <use x="74.804688" xlink:href="#DejaVuSans-111"/>
      <use x="135.986328" xlink:href="#DejaVuSans-32"/>
      <use x="167.773438" xlink:href="#DejaVuSans-100"/>
      <use x="231.25" xlink:href="#DejaVuSans-101"/>
      <use x="292.773438" xlink:href="#DejaVuSans-110"/>
      <use x="356.152344" xlink:href="#DejaVuSans-111"/>
      <use x="417.333984" xlink:href="#DejaVuSans-105"/>
      <use x="445.117188" xlink:href="#DejaVuSans-115"/>
      <use x="497.216797" xlink:href="#DejaVuSans-105"/>
      <use x="525" xlink:href="#DejaVuSans-110"/>
      <use x="588.378906" xlink:href="#DejaVuSans-103"/>
     </g>
    </g>
    <g id="line2d_31">
     <path d="M 284.559063 278.326188 
L 304.559063 278.326188 
" style="fill:none;stroke:#0000ff;stroke-linecap:square;stroke-width:1.5;"/>
    </g>
    <g id="line2d_32"/>
    <g id="text_11">
     <!-- With denoising -->
     <defs>
      <path d="M 3.328125 72.90625 
L 13.28125 72.90625 
L 28.609375 11.28125 
L 43.890625 72.90625 
L 54.984375 72.90625 
L 70.3125 11.28125 
L 85.59375 72.90625 
L 95.609375 72.90625 
L 77.296875 0 
L 64.890625 0 
L 49.515625 63.28125 
L 33.984375 0 
L 21.578125 0 
z
" id="DejaVuSans-87"/>
      <path d="M 54.890625 33.015625 
L 54.890625 0 
L 45.90625 0 
L 45.90625 32.71875 
Q 45.90625 40.484375 42.875 44.328125 
Q 39.84375 48.1875 33.796875 48.1875 
Q 26.515625 48.1875 22.3125 43.546875 
Q 18.109375 38.921875 18.109375 30.90625 
L 18.109375 0 
L 9.078125 0 
L 9.078125 75.984375 
L 18.109375 75.984375 
L 18.109375 46.1875 
Q 21.34375 51.125 25.703125 53.5625 
Q 30.078125 56 35.796875 56 
Q 45.21875 56 50.046875 50.171875 
Q 54.890625 44.34375 54.890625 33.015625 
z
" id="DejaVuSans-104"/>
     </defs>
     <g transform="translate(312.559063 281.826188)scale(0.1 -0.1)">
      <use xlink:href="#DejaVuSans-87"/>
      <use x="98.845703" xlink:href="#DejaVuSans-105"/>
      <use x="126.628906" xlink:href="#DejaVuSans-116"/>
      <use x="165.837891" xlink:href="#DejaVuSans-104"/>
      <use x="229.216797" xlink:href="#DejaVuSans-32"/>
      <use x="261.003906" xlink:href="#DejaVuSans-100"/>
      <use x="324.480469" xlink:href="#DejaVuSans-101"/>
      <use x="386.003906" xlink:href="#DejaVuSans-110"/>
      <use x="449.382812" xlink:href="#DejaVuSans-111"/>
      <use x="510.564453" xlink:href="#DejaVuSans-105"/>
      <use x="538.347656" xlink:href="#DejaVuSans-115"/>
      <use x="590.447266" xlink:href="#DejaVuSans-105"/>
      <use x="618.230469" xlink:href="#DejaVuSans-110"/>
      <use x="681.609375" xlink:href="#DejaVuSans-103"/>
     </g>
    </g>
    <g id="line2d_33">
     <path d="M 284.559063 293.004312 
L 304.559063 293.004312 
" style="fill:none;stroke:#00ffff;stroke-linecap:square;stroke-width:1.5;"/>
    </g>
    <g id="line2d_34"/>
    <g id="text_12">
     <!-- With big denoising -->
     <defs>
      <path d="M 48.6875 27.296875 
Q 48.6875 37.203125 44.609375 42.84375 
Q 40.53125 48.484375 33.40625 48.484375 
Q 26.265625 48.484375 22.1875 42.84375 
Q 18.109375 37.203125 18.109375 27.296875 
Q 18.109375 17.390625 22.1875 11.75 
Q 26.265625 6.109375 33.40625 6.109375 
Q 40.53125 6.109375 44.609375 11.75 
Q 48.6875 17.390625 48.6875 27.296875 
z
M 18.109375 46.390625 
Q 20.953125 51.265625 25.265625 53.625 
Q 29.59375 56 35.59375 56 
Q 45.5625 56 51.78125 48.09375 
Q 58.015625 40.1875 58.015625 27.296875 
Q 58.015625 14.40625 51.78125 6.484375 
Q 45.5625 -1.421875 35.59375 -1.421875 
Q 29.59375 -1.421875 25.265625 0.953125 
Q 20.953125 3.328125 18.109375 8.203125 
L 18.109375 0 
L 9.078125 0 
L 9.078125 75.984375 
L 18.109375 75.984375 
z
" id="DejaVuSans-98"/>
     </defs>
     <g transform="translate(312.559063 296.504312)scale(0.1 -0.1)">
      <use xlink:href="#DejaVuSans-87"/>
      <use x="98.845703" xlink:href="#DejaVuSans-105"/>
      <use x="126.628906" xlink:href="#DejaVuSans-116"/>
      <use x="165.837891" xlink:href="#DejaVuSans-104"/>
      <use x="229.216797" xlink:href="#DejaVuSans-32"/>
      <use x="261.003906" xlink:href="#DejaVuSans-98"/>
      <use x="324.480469" xlink:href="#DejaVuSans-105"/>
      <use x="352.263672" xlink:href="#DejaVuSans-103"/>
      <use x="415.740234" xlink:href="#DejaVuSans-32"/>
      <use x="447.527344" xlink:href="#DejaVuSans-100"/>
      <use x="511.003906" xlink:href="#DejaVuSans-101"/>
      <use x="572.527344" xlink:href="#DejaVuSans-110"/>
      <use x="635.90625" xlink:href="#DejaVuSans-111"/>
      <use x="697.087891" xlink:href="#DejaVuSans-105"/>
      <use x="724.871094" xlink:href="#DejaVuSans-115"/>
      <use x="776.970703" xlink:href="#DejaVuSans-105"/>
      <use x="804.753906" xlink:href="#DejaVuSans-110"/>
      <use x="868.132812" xlink:href="#DejaVuSans-103"/>
     </g>
    </g>
   </g>
  </g>
 </g>
 <defs>
  <clipPath id="p17fe51cc0c">
   <rect height="266.112" width="357.12" x="57.6" y="41.472"/>
  </clipPath>
 </defs>
</svg>
