<?xml version="1.0" encoding="utf-8" standalone="no"?>
<!DOCTYPE svg PUBLIC "-//W3C//DTD SVG 1.1//EN"
  "http://www.w3.org/Graphics/SVG/1.1/DTD/svg11.dtd">
<!-- Created with matplotlib (https://matplotlib.org/) -->
<svg height="345.6pt" version="1.1" viewBox="0 0 460.8 345.6" width="460.8pt" xmlns="http://www.w3.org/2000/svg" xmlns:xlink="http://www.w3.org/1999/xlink">
 <defs>
  <style type="text/css">
*{stroke-linecap:butt;stroke-linejoin:round;white-space:pre;}
  </style>
 </defs>
 <g id="figure_1">
  <g id="patch_1">
   <path d="M 0 345.6 
L 460.8 345.6 
L 460.8 0 
L 0 0 
z
" style="fill:#ffffff;"/>
  </g>
  <g id="axes_1">
   <g id="patch_2">
    <path d="M 57.6 307.584 
L 414.72 307.584 
L 414.72 41.472 
L 57.6 41.472 
z
" style="fill:#ffffff;"/>
   </g>
   <g id="PolyCollection_1">
    <path clip-path="url(#pe44309818c)" d="M 73.832727 280.155191 
L 73.832727 291.128739 
L 77.145529 255.350624 
L 80.45833 228.769833 
L 83.771132 207.562329 
L 87.083933 190.03299 
L 90.396735 175.267177 
L 93.709536 162.691687 
L 97.022338 151.901208 
L 100.335139 142.585594 
L 103.647941 134.498137 
L 106.960742 127.438948 
L 110.273544 121.24487 
L 113.586345 115.782705 
L 116.899147 110.943495 
L 120.211948 106.637639 
L 123.52475 102.791094 
L 126.837551 99.342453 
L 130.150353 96.240794 
L 133.463154 93.443716 
L 136.775955 90.915726 
L 140.088757 88.627013 
L 143.401558 86.552504 
L 146.71436 84.671044 
L 150.027161 82.964814 
L 153.339963 81.418889 
L 156.652764 80.020701 
L 159.965566 78.759609 
L 163.278367 77.626576 
L 166.591169 76.613899 
L 169.90397 75.715023 
L 173.216772 74.924417 
L 176.529573 74.237343 
L 179.842375 73.6497 
L 183.155176 73.158005 
L 186.467978 72.759392 
L 189.780779 72.451604 
L 193.093581 72.232912 
L 196.406382 72.102056 
L 199.719184 72.058115 
L 203.031985 72.10035 
L 206.344787 72.227981 
L 209.657588 72.439839 
L 212.97039 72.733929 
L 216.283191 73.106844 
L 219.595993 73.552951 
L 222.908794 74.06342 
L 226.221596 74.625245 
L 229.534397 75.220462 
L 232.847199 75.826117 
L 236.16 76.415564 
L 239.472801 76.961123 
L 242.785603 77.43751 
L 246.098404 77.82489 
L 249.411206 78.110594 
L 252.724007 78.289185 
L 256.036809 78.361345 
L 259.34961 78.332257 
L 262.662412 78.210007 
L 265.975213 78.004249 
L 269.288015 77.725215 
L 272.600816 77.383031 
L 275.913618 76.987297 
L 279.226419 76.546857 
L 282.539221 76.069692 
L 285.852022 75.562902 
L 289.164824 75.032735 
L 292.477625 74.484656 
L 295.790427 73.92343 
L 299.103228 73.353194 
L 302.41603 72.777544 
L 305.728831 72.1996 
L 309.041633 71.62208 
L 312.354434 71.04736 
L 315.667236 70.477521 
L 318.980037 69.914403 
L 322.292839 69.359645 
L 325.60564 68.814726 
L 328.918442 68.280991 
L 332.231243 67.759687 
L 335.544045 67.251983 
L 338.856846 66.758985 
L 342.169647 66.281752 
L 345.482449 65.821311 
L 348.79525 65.37866 
L 352.108052 64.954778 
L 355.420853 64.550623 
L 358.733655 64.167131 
L 362.046456 63.805208 
L 365.359258 63.465725 
L 368.672059 63.149511 
L 371.984861 62.857353 
L 375.297662 62.589993 
L 378.610464 62.34812 
L 381.923265 62.132384 
L 385.236067 61.94342 
L 388.548868 61.781889 
L 391.86167 61.648514 
L 395.174471 61.544133 
L 398.487273 61.469731 
L 398.487273 53.568 
L 398.487273 53.568 
L 395.174471 53.763382 
L 391.86167 53.981397 
L 388.548868 54.221813 
L 385.236067 54.484372 
L 381.923265 54.768768 
L 378.610464 55.074632 
L 375.297662 55.401519 
L 371.984861 55.748907 
L 368.672059 56.116219 
L 365.359258 56.502834 
L 362.046456 56.908107 
L 358.733655 57.331372 
L 355.420853 57.771954 
L 352.108052 58.229159 
L 348.79525 58.702277 
L 345.482449 59.190585 
L 342.169647 59.693343 
L 338.856846 60.209791 
L 335.544045 60.739139 
L 332.231243 61.280553 
L 328.918442 61.833135 
L 325.60564 62.395911 
L 322.292839 62.967804 
L 318.980037 63.547612 
L 315.667236 64.133978 
L 312.354434 64.725352 
L 309.041633 65.319955 
L 305.728831 65.915727 
L 302.41603 66.510274 
L 299.103228 67.100804 
L 295.790427 67.684053 
L 292.477625 68.256204 
L 289.164824 68.812784 
L 285.852022 69.348567 
L 282.539221 69.857456 
L 279.226419 70.332376 
L 275.913618 70.765187 
L 272.600816 71.146624 
L 269.288015 71.466331 
L 265.975213 71.71302 
L 262.662412 71.87485 
L 259.34961 71.940112 
L 256.036809 71.898352 
L 252.724007 71.741978 
L 249.411206 71.468299 
L 246.098404 71.081648 
L 242.785603 70.594888 
L 239.472801 70.029383 
L 236.16 69.412903 
L 232.847199 68.775858 
L 229.534397 68.147224 
L 226.221596 67.551504 
L 222.908794 67.007403 
L 219.595993 66.528003 
L 216.283191 66.121764 
L 212.97039 65.793751 
L 209.657588 65.546715 
L 206.344787 65.381968 
L 203.031985 65.30003 
L 199.719184 65.30104 
L 196.406382 65.385073 
L 193.093581 65.552345 
L 189.780779 65.803358 
L 186.467978 66.139012 
L 183.155176 66.560688 
L 179.842375 67.070302 
L 176.529573 67.670361 
L 173.216772 68.363956 
L 169.90397 69.154751 
L 166.591169 70.047088 
L 163.278367 71.046209 
L 159.965566 72.158354 
L 156.652764 73.390877 
L 153.339963 74.752471 
L 150.027161 76.253427 
L 146.71436 77.905959 
L 143.401558 79.724581 
L 140.088757 81.726532 
L 136.775955 83.93222 
L 133.463154 86.365772 
L 130.150353 89.055801 
L 126.837551 92.036425 
L 123.52475 95.348553 
L 120.211948 99.041444 
L 116.899147 103.174499 
L 113.586345 107.819671 
L 110.273544 113.064673 
L 106.960742 119.017109 
L 103.647941 125.809566 
L 100.335139 133.605954 
L 97.022338 142.609914 
L 93.709536 153.076521 
L 90.396735 165.329428 
L 87.083933 179.792325 
L 83.771132 197.058051 
L 80.45833 218.055056 
L 77.145529 244.4818 
L 73.832727 280.155191 
z
" style="fill:#ff0000;fill-opacity:0.4;"/>
   </g>
   <g id="PolyCollection_2">
    <path clip-path="url(#pe44309818c)" d="M 73.832727 280.318124 
L 73.832727 291.259553 
L 77.145529 255.579594 
L 80.45833 229.088752 
L 83.771132 207.966661 
L 87.083933 190.519065 
L 90.396735 175.830725 
L 93.709536 163.326935 
L 97.022338 152.601509 
L 100.335139 143.344613 
L 103.647941 135.310157 
L 106.960742 128.299081 
L 110.273544 122.14924 
L 113.586345 116.728303 
L 116.899147 111.928037 
L 120.211948 107.659402 
L 123.52475 103.84878 
L 126.837551 100.435211 
L 130.150353 97.367977 
L 133.463154 94.604835 
L 136.775955 92.110558 
L 140.088757 89.855672 
L 143.401558 87.815368 
L 146.71436 85.968732 
L 150.027161 84.298139 
L 153.339963 82.788822 
L 156.652764 81.428481 
L 159.965566 80.206839 
L 163.278367 79.115291 
L 166.591169 78.146572 
L 169.90397 77.294581 
L 173.216772 76.554257 
L 176.529573 75.921451 
L 179.842375 75.39268 
L 183.155176 74.96503 
L 186.467978 74.636147 
L 189.780779 74.404204 
L 193.093581 74.267944 
L 196.406382 74.22653 
L 199.719184 74.27937 
L 203.031985 74.425938 
L 206.344787 74.665503 
L 209.657588 74.996674 
L 212.97039 75.416763 
L 216.283191 75.920852 
L 219.595993 76.500599 
L 222.908794 77.14289 
L 226.221596 77.828683 
L 229.534397 78.532518 
L 232.847199 79.223521 
L 236.16 79.86845 
L 239.472801 80.436189 
L 242.785603 80.902049 
L 246.098404 81.250239 
L 249.411206 81.474033 
L 252.724007 81.574255 
L 256.036809 81.55715 
L 259.34961 81.432354 
L 262.662412 81.211248 
L 265.975213 80.905792 
L 269.288015 80.527752 
L 272.600816 80.088229 
L 275.913618 79.597404 
L 279.226419 79.064428 
L 282.539221 78.497408 
L 285.852022 77.903451 
L 289.164824 77.288737 
L 292.477625 76.658619 
L 295.790427 76.017715 
L 299.103228 75.37001 
L 302.41603 74.718934 
L 305.728831 74.067451 
L 309.041633 73.418123 
L 312.354434 72.773179 
L 315.667236 72.134566 
L 318.980037 71.503996 
L 322.292839 70.882985 
L 325.60564 70.27289 
L 328.918442 69.674938 
L 332.231243 69.090257 
L 335.544045 68.519897 
L 338.856846 67.964848 
L 342.169647 67.426057 
L 345.482449 66.904448 
L 348.79525 66.400928 
L 352.108052 65.916405 
L 355.420853 65.451791 
L 358.733655 65.008006 
L 362.046456 64.585982 
L 365.359258 64.186666 
L 368.672059 63.811027 
L 371.984861 63.460052 
L 375.297662 63.134763 
L 378.610464 62.836196 
L 381.923265 62.565395 
L 385.236067 62.323424 
L 388.548868 62.11136 
L 391.86167 61.930294 
L 395.174471 61.781338 
L 398.487273 61.665647 
L 398.487273 54.452128 
L 398.487273 54.452128 
L 395.174471 54.673143 
L 391.86167 54.920038 
L 388.548868 55.191999 
L 385.236067 55.488195 
L 381.923265 55.807795 
L 378.610464 56.149979 
L 375.297662 56.513945 
L 371.984861 56.898916 
L 368.672059 57.304137 
L 365.359258 57.728881 
L 362.046456 58.172446 
L 358.733655 58.634149 
L 355.420853 59.113317 
L 352.108052 59.609285 
L 348.79525 60.121392 
L 345.482449 60.648972 
L 342.169647 61.19135 
L 338.856846 61.74783 
L 335.544045 62.317681 
L 332.231243 62.900134 
L 328.918442 63.494356 
L 325.60564 64.099437 
L 322.292839 64.714376 
L 318.980037 65.33805 
L 315.667236 65.969188 
L 312.354434 66.606335 
L 309.041633 67.247815 
L 305.728831 67.891684 
L 302.41603 68.535679 
L 299.103228 69.177146 
L 295.790427 69.812971 
L 292.477625 70.439494 
L 289.164824 71.052406 
L 285.852022 71.64664 
L 282.539221 72.216252 
L 279.226419 72.754291 
L 275.913618 73.252683 
L 272.600816 73.702133 
L 269.288015 74.092083 
L 265.975213 74.410764 
L 262.662412 74.645422 
L 259.34961 74.78279 
L 256.036809 74.809949 
L 252.724007 74.715692 
L 249.411206 74.492472 
L 246.098404 74.138842 
L 242.785603 73.661883 
L 239.472801 73.078715 
L 236.16 72.415964 
L 232.847199 71.706681 
L 229.534397 70.985504 
L 226.221596 70.28389 
L 222.908794 69.627087 
L 219.595993 69.033362 
L 216.283191 68.514815 
L 212.97039 68.078769 
L 209.657588 67.729208 
L 206.344787 67.467997 
L 203.031985 67.295771 
L 199.719184 67.212546 
L 196.406382 67.218139 
L 193.093581 67.312448 
L 189.780779 67.495624 
L 186.467978 67.768189 
L 183.155176 68.131157 
L 179.842375 68.586097 
L 176.529573 69.1351 
L 173.216772 69.780788 
L 169.90397 70.526383 
L 166.591169 71.375882 
L 163.278367 72.334219 
L 159.965566 73.407319 
L 156.652764 74.602238 
L 153.339963 75.92741 
L 150.027161 77.392956 
L 146.71436 79.010983 
L 143.401558 80.79592 
L 140.088757 82.764843 
L 136.775955 84.937968 
L 133.463154 87.339246 
L 130.150353 89.99715 
L 126.837551 92.945736 
L 123.52475 96.225818 
L 120.211948 99.886396 
L 116.899147 103.9866 
L 113.586345 108.598049 
L 110.273544 113.808007 
L 106.960742 119.723473 
L 103.647941 126.476318 
L 100.335139 134.229771 
L 97.022338 143.187048 
L 93.709536 153.603031 
L 90.396735 165.801643 
L 87.083933 180.207368 
L 83.771132 197.413956 
L 80.45833 218.350349 
L 77.145529 244.713872 
L 73.832727 280.318124 
z
" style="fill:#0000ff;fill-opacity:0.4;"/>
   </g>
   <g id="PolyCollection_3">
    <path clip-path="url(#pe44309818c)" d="M 73.832727 285.952217 
L 73.832727 295.488 
L 77.145529 259.602294 
L 80.45833 232.938857 
L 83.771132 211.681108 
L 87.083933 194.135722 
L 90.396735 179.385141 
L 93.709536 166.849721 
L 97.022338 156.117898 
L 100.335139 146.87535 
L 103.647941 138.872133 
L 106.960742 131.906103 
L 110.273544 125.813123 
L 113.586345 120.459473 
L 116.899147 115.735816 
L 120.211948 111.55211 
L 123.52475 107.833982 
L 126.837551 104.520033 
L 130.150353 101.559324 
L 133.463154 98.909469 
L 136.775955 96.53516 
L 140.088757 94.406842 
L 143.401558 92.499672 
L 146.71436 90.792757 
L 150.027161 89.26845 
L 153.339963 87.911837 
L 156.652764 86.710467 
L 159.965566 85.654085 
L 163.278367 84.734275 
L 166.591169 83.944194 
L 169.90397 83.278446 
L 173.216772 82.732933 
L 176.529573 82.304818 
L 179.842375 81.992451 
L 183.155176 81.795158 
L 186.467978 81.713035 
L 189.780779 81.746752 
L 193.093581 81.897482 
L 196.406382 82.166653 
L 199.719184 82.555671 
L 203.031985 83.06551 
L 206.344787 83.6957 
L 209.657588 84.442701 
L 212.97039 85.297803 
L 216.283191 86.244288 
L 219.595993 87.254333 
L 222.908794 88.287568 
L 226.221596 89.29337 
L 229.534397 90.217776 
L 232.847199 91.01305 
L 236.16 91.645429 
L 239.472801 92.097838 
L 242.785603 92.36795 
L 246.098404 92.464102 
L 249.411206 92.401121 
L 252.724007 92.197001 
L 256.036809 91.870568 
L 259.34961 91.440046 
L 262.662412 90.922291 
L 265.975213 90.332474 
L 269.288015 89.684008 
L 272.600816 88.98861 
L 275.913618 88.256421 
L 279.226419 87.496158 
L 282.539221 86.715275 
L 285.852022 85.920117 
L 289.164824 85.116066 
L 292.477625 84.307689 
L 295.790427 83.498851 
L 299.103228 82.692829 
L 302.41603 81.892405 
L 305.728831 81.099944 
L 309.041633 80.317467 
L 312.354434 79.546707 
L 315.667236 78.789163 
L 318.980037 78.046144 
L 322.292839 77.3188 
L 325.60564 76.608152 
L 328.918442 75.915119 
L 332.231243 75.240538 
L 335.544045 74.585182 
L 338.856846 73.949783 
L 342.169647 73.335043 
L 345.482449 72.741646 
L 348.79525 72.170271 
L 352.108052 71.621582 
L 355.420853 71.096228 
L 358.733655 70.594823 
L 362.046456 70.117938 
L 365.359258 69.666088 
L 368.672059 69.239729 
L 371.984861 68.839252 
L 375.297662 68.464985 
L 378.610464 68.117207 
L 381.923265 67.796171 
L 385.236067 67.50212 
L 388.548868 67.235305 
L 391.86167 66.995989 
L 395.174471 66.784458 
L 398.487273 66.60102 
L 398.487273 60.142487 
L 398.487273 60.142487 
L 395.174471 60.437661 
L 391.86167 60.75642 
L 388.548868 61.097602 
L 385.236067 61.46016 
L 381.923265 61.843152 
L 378.610464 62.24573 
L 375.297662 62.667127 
L 371.984861 63.106638 
L 368.672059 63.563599 
L 365.359258 64.037366 
L 362.046456 64.527303 
L 358.733655 65.032771 
L 355.420853 65.55312 
L 352.108052 66.08768 
L 348.79525 66.635754 
L 345.482449 67.196613 
L 342.169647 67.769501 
L 338.856846 68.353629 
L 335.544045 68.948161 
L 332.231243 69.552204 
L 328.918442 70.164791 
L 325.60564 70.784858 
L 322.292839 71.411218 
L 318.980037 72.042531 
L 315.667236 72.677275 
L 312.354434 73.313706 
L 309.041633 73.949821 
L 305.728831 74.583303 
L 302.41603 75.211465 
L 299.103228 75.831179 
L 295.790427 76.438794 
L 292.477625 77.030048 
L 289.164824 77.599969 
L 285.852022 78.142771 
L 282.539221 78.651754 
L 279.226419 79.119201 
L 275.913618 79.536326 
L 272.600816 79.893277 
L 269.288015 80.179249 
L 265.975213 80.382754 
L 262.662412 80.492157 
L 259.34961 80.496563 
L 256.036809 80.387157 
L 252.724007 80.159003 
L 249.411206 79.81306 
L 246.098404 79.357857 
L 242.785603 78.810046 
L 239.472801 78.193135 
L 236.16 77.534571 
L 232.847199 76.862225 
L 229.534397 76.201545 
L 226.221596 75.573926 
L 222.908794 74.996032 
L 219.595993 74.479676 
L 216.283191 74.032256 
L 212.97039 73.657754 
L 209.657588 73.357929 
L 206.344787 73.133342 
L 203.031985 72.984065 
L 199.719184 72.910141 
L 196.406382 72.911896 
L 193.093581 72.990117 
L 189.780779 73.146047 
L 186.467978 73.381367 
L 183.155176 73.69822 
L 179.842375 74.099126 
L 176.529573 74.587003 
L 173.216772 75.165406 
L 169.90397 75.838796 
L 166.591169 76.612601 
L 163.278367 77.49321 
L 159.965566 78.487983 
L 156.652764 79.605331 
L 153.339963 80.854887 
L 150.027161 82.247686 
L 146.71436 83.796522 
L 143.401558 85.516224 
L 140.088757 87.424123 
L 136.775955 89.540637 
L 133.463154 91.889959 
L 130.150353 94.500915 
L 126.837551 97.407953 
L 123.52475 100.65237 
L 120.211948 104.283891 
L 116.899147 108.362627 
L 113.586345 112.961331 
L 110.273544 118.168524 
L 106.960742 124.092788 
L 103.647941 130.868198 
L 100.335139 138.661226 
L 97.022338 147.67894 
L 93.709536 158.179938 
L 90.396735 170.49196 
L 87.083933 185.042336 
L 83.771132 202.423863 
L 80.45833 223.557864 
L 77.145529 250.131924 
L 73.832727 285.952217 
z
" style="fill:#00ffff;fill-opacity:0.4;"/>
   </g>
   <g id="matplotlib.axis_1">
    <g id="xtick_1">
     <g id="line2d_1">
      <path clip-path="url(#pe44309818c)" d="M 70.519926 307.584 
L 70.519926 41.472 
" style="fill:none;stroke:#b0b0b0;stroke-linecap:square;stroke-width:0.8;"/>
     </g>
     <g id="line2d_2">
      <defs>
       <path d="M 0 0 
L 0 3.5 
" id="mb33d1724e6" style="stroke:#000000;stroke-width:0.8;"/>
      </defs>
      <g>
       <use style="stroke:#000000;stroke-width:0.8;" x="70.519926" xlink:href="#mb33d1724e6" y="307.584"/>
      </g>
     </g>
     <g id="text_1">
      <!-- 0.0 -->
      <defs>
       <path d="M 31.78125 66.40625 
Q 24.171875 66.40625 20.328125 58.90625 
Q 16.5 51.421875 16.5 36.375 
Q 16.5 21.390625 20.328125 13.890625 
Q 24.171875 6.390625 31.78125 6.390625 
Q 39.453125 6.390625 43.28125 13.890625 
Q 47.125 21.390625 47.125 36.375 
Q 47.125 51.421875 43.28125 58.90625 
Q 39.453125 66.40625 31.78125 66.40625 
z
M 31.78125 74.21875 
Q 44.046875 74.21875 50.515625 64.515625 
Q 56.984375 54.828125 56.984375 36.375 
Q 56.984375 17.96875 50.515625 8.265625 
Q 44.046875 -1.421875 31.78125 -1.421875 
Q 19.53125 -1.421875 13.0625 8.265625 
Q 6.59375 17.96875 6.59375 36.375 
Q 6.59375 54.828125 13.0625 64.515625 
Q 19.53125 74.21875 31.78125 74.21875 
z
" id="DejaVuSans-48"/>
       <path d="M 10.6875 12.40625 
L 21 12.40625 
L 21 0 
L 10.6875 0 
z
" id="DejaVuSans-46"/>
      </defs>
      <g transform="translate(62.568363 322.182437)scale(0.1 -0.1)">
       <use xlink:href="#DejaVuSans-48"/>
       <use x="63.623047" xlink:href="#DejaVuSans-46"/>
       <use x="95.410156" xlink:href="#DejaVuSans-48"/>
      </g>
     </g>
    </g>
    <g id="xtick_2">
     <g id="line2d_3">
      <path clip-path="url(#pe44309818c)" d="M 136.775955 307.584 
L 136.775955 41.472 
" style="fill:none;stroke:#b0b0b0;stroke-linecap:square;stroke-width:0.8;"/>
     </g>
     <g id="line2d_4">
      <g>
       <use style="stroke:#000000;stroke-width:0.8;" x="136.775955" xlink:href="#mb33d1724e6" y="307.584"/>
      </g>
     </g>
     <g id="text_2">
      <!-- 0.2 -->
      <defs>
       <path d="M 19.1875 8.296875 
L 53.609375 8.296875 
L 53.609375 0 
L 7.328125 0 
L 7.328125 8.296875 
Q 12.9375 14.109375 22.625 23.890625 
Q 32.328125 33.6875 34.8125 36.53125 
Q 39.546875 41.84375 41.421875 45.53125 
Q 43.3125 49.21875 43.3125 52.78125 
Q 43.3125 58.59375 39.234375 62.25 
Q 35.15625 65.921875 28.609375 65.921875 
Q 23.96875 65.921875 18.8125 64.3125 
Q 13.671875 62.703125 7.8125 59.421875 
L 7.8125 69.390625 
Q 13.765625 71.78125 18.9375 73 
Q 24.125 74.21875 28.421875 74.21875 
Q 39.75 74.21875 46.484375 68.546875 
Q 53.21875 62.890625 53.21875 53.421875 
Q 53.21875 48.921875 51.53125 44.890625 
Q 49.859375 40.875 45.40625 35.40625 
Q 44.1875 33.984375 37.640625 27.21875 
Q 31.109375 20.453125 19.1875 8.296875 
z
" id="DejaVuSans-50"/>
      </defs>
      <g transform="translate(128.824393 322.182437)scale(0.1 -0.1)">
       <use xlink:href="#DejaVuSans-48"/>
       <use x="63.623047" xlink:href="#DejaVuSans-46"/>
       <use x="95.410156" xlink:href="#DejaVuSans-50"/>
      </g>
     </g>
    </g>
    <g id="xtick_3">
     <g id="line2d_5">
      <path clip-path="url(#pe44309818c)" d="M 203.031985 307.584 
L 203.031985 41.472 
" style="fill:none;stroke:#b0b0b0;stroke-linecap:square;stroke-width:0.8;"/>
     </g>
     <g id="line2d_6">
      <g>
       <use style="stroke:#000000;stroke-width:0.8;" x="203.031985" xlink:href="#mb33d1724e6" y="307.584"/>
      </g>
     </g>
     <g id="text_3">
      <!-- 0.4 -->
      <defs>
       <path d="M 37.796875 64.3125 
L 12.890625 25.390625 
L 37.796875 25.390625 
z
M 35.203125 72.90625 
L 47.609375 72.90625 
L 47.609375 25.390625 
L 58.015625 25.390625 
L 58.015625 17.1875 
L 47.609375 17.1875 
L 47.609375 0 
L 37.796875 0 
L 37.796875 17.1875 
L 4.890625 17.1875 
L 4.890625 26.703125 
z
" id="DejaVuSans-52"/>
      </defs>
      <g transform="translate(195.080423 322.182437)scale(0.1 -0.1)">
       <use xlink:href="#DejaVuSans-48"/>
       <use x="63.623047" xlink:href="#DejaVuSans-46"/>
       <use x="95.410156" xlink:href="#DejaVuSans-52"/>
      </g>
     </g>
    </g>
    <g id="xtick_4">
     <g id="line2d_7">
      <path clip-path="url(#pe44309818c)" d="M 269.288015 307.584 
L 269.288015 41.472 
" style="fill:none;stroke:#b0b0b0;stroke-linecap:square;stroke-width:0.8;"/>
     </g>
     <g id="line2d_8">
      <g>
       <use style="stroke:#000000;stroke-width:0.8;" x="269.288015" xlink:href="#mb33d1724e6" y="307.584"/>
      </g>
     </g>
     <g id="text_4">
      <!-- 0.6 -->
      <defs>
       <path d="M 33.015625 40.375 
Q 26.375 40.375 22.484375 35.828125 
Q 18.609375 31.296875 18.609375 23.390625 
Q 18.609375 15.53125 22.484375 10.953125 
Q 26.375 6.390625 33.015625 6.390625 
Q 39.65625 6.390625 43.53125 10.953125 
Q 47.40625 15.53125 47.40625 23.390625 
Q 47.40625 31.296875 43.53125 35.828125 
Q 39.65625 40.375 33.015625 40.375 
z
M 52.59375 71.296875 
L 52.59375 62.3125 
Q 48.875 64.0625 45.09375 64.984375 
Q 41.3125 65.921875 37.59375 65.921875 
Q 27.828125 65.921875 22.671875 59.328125 
Q 17.53125 52.734375 16.796875 39.40625 
Q 19.671875 43.65625 24.015625 45.921875 
Q 28.375 48.1875 33.59375 48.1875 
Q 44.578125 48.1875 50.953125 41.515625 
Q 57.328125 34.859375 57.328125 23.390625 
Q 57.328125 12.15625 50.6875 5.359375 
Q 44.046875 -1.421875 33.015625 -1.421875 
Q 20.359375 -1.421875 13.671875 8.265625 
Q 6.984375 17.96875 6.984375 36.375 
Q 6.984375 53.65625 15.1875 63.9375 
Q 23.390625 74.21875 37.203125 74.21875 
Q 40.921875 74.21875 44.703125 73.484375 
Q 48.484375 72.75 52.59375 71.296875 
z
" id="DejaVuSans-54"/>
      </defs>
      <g transform="translate(261.336452 322.182437)scale(0.1 -0.1)">
       <use xlink:href="#DejaVuSans-48"/>
       <use x="63.623047" xlink:href="#DejaVuSans-46"/>
       <use x="95.410156" xlink:href="#DejaVuSans-54"/>
      </g>
     </g>
    </g>
    <g id="xtick_5">
     <g id="line2d_9">
      <path clip-path="url(#pe44309818c)" d="M 335.544045 307.584 
L 335.544045 41.472 
" style="fill:none;stroke:#b0b0b0;stroke-linecap:square;stroke-width:0.8;"/>
     </g>
     <g id="line2d_10">
      <g>
       <use style="stroke:#000000;stroke-width:0.8;" x="335.544045" xlink:href="#mb33d1724e6" y="307.584"/>
      </g>
     </g>
     <g id="text_5">
      <!-- 0.8 -->
      <defs>
       <path d="M 31.78125 34.625 
Q 24.75 34.625 20.71875 30.859375 
Q 16.703125 27.09375 16.703125 20.515625 
Q 16.703125 13.921875 20.71875 10.15625 
Q 24.75 6.390625 31.78125 6.390625 
Q 38.8125 6.390625 42.859375 10.171875 
Q 46.921875 13.96875 46.921875 20.515625 
Q 46.921875 27.09375 42.890625 30.859375 
Q 38.875 34.625 31.78125 34.625 
z
M 21.921875 38.8125 
Q 15.578125 40.375 12.03125 44.71875 
Q 8.5 49.078125 8.5 55.328125 
Q 8.5 64.0625 14.71875 69.140625 
Q 20.953125 74.21875 31.78125 74.21875 
Q 42.671875 74.21875 48.875 69.140625 
Q 55.078125 64.0625 55.078125 55.328125 
Q 55.078125 49.078125 51.53125 44.71875 
Q 48 40.375 41.703125 38.8125 
Q 48.828125 37.15625 52.796875 32.3125 
Q 56.78125 27.484375 56.78125 20.515625 
Q 56.78125 9.90625 50.3125 4.234375 
Q 43.84375 -1.421875 31.78125 -1.421875 
Q 19.734375 -1.421875 13.25 4.234375 
Q 6.78125 9.90625 6.78125 20.515625 
Q 6.78125 27.484375 10.78125 32.3125 
Q 14.796875 37.15625 21.921875 38.8125 
z
M 18.3125 54.390625 
Q 18.3125 48.734375 21.84375 45.5625 
Q 25.390625 42.390625 31.78125 42.390625 
Q 38.140625 42.390625 41.71875 45.5625 
Q 45.3125 48.734375 45.3125 54.390625 
Q 45.3125 60.0625 41.71875 63.234375 
Q 38.140625 66.40625 31.78125 66.40625 
Q 25.390625 66.40625 21.84375 63.234375 
Q 18.3125 60.0625 18.3125 54.390625 
z
" id="DejaVuSans-56"/>
      </defs>
      <g transform="translate(327.592482 322.182437)scale(0.1 -0.1)">
       <use xlink:href="#DejaVuSans-48"/>
       <use x="63.623047" xlink:href="#DejaVuSans-46"/>
       <use x="95.410156" xlink:href="#DejaVuSans-56"/>
      </g>
     </g>
    </g>
    <g id="xtick_6">
     <g id="line2d_11">
      <path clip-path="url(#pe44309818c)" d="M 401.800074 307.584 
L 401.800074 41.472 
" style="fill:none;stroke:#b0b0b0;stroke-linecap:square;stroke-width:0.8;"/>
     </g>
     <g id="line2d_12">
      <g>
       <use style="stroke:#000000;stroke-width:0.8;" x="401.800074" xlink:href="#mb33d1724e6" y="307.584"/>
      </g>
     </g>
     <g id="text_6">
      <!-- 1.0 -->
      <defs>
       <path d="M 12.40625 8.296875 
L 28.515625 8.296875 
L 28.515625 63.921875 
L 10.984375 60.40625 
L 10.984375 69.390625 
L 28.421875 72.90625 
L 38.28125 72.90625 
L 38.28125 8.296875 
L 54.390625 8.296875 
L 54.390625 0 
L 12.40625 0 
z
" id="DejaVuSans-49"/>
      </defs>
      <g transform="translate(393.848512 322.182437)scale(0.1 -0.1)">
       <use xlink:href="#DejaVuSans-49"/>
       <use x="63.623047" xlink:href="#DejaVuSans-46"/>
       <use x="95.410156" xlink:href="#DejaVuSans-48"/>
      </g>
     </g>
    </g>
    <g id="text_7">
     <!-- $\mathrm{Time \ (seconds)}$ -->
     <defs>
      <path d="M -0.296875 72.90625 
L 61.375 72.90625 
L 61.375 64.59375 
L 35.5 64.59375 
L 35.5 0 
L 25.59375 0 
L 25.59375 64.59375 
L -0.296875 64.59375 
z
" id="DejaVuSans-84"/>
      <path d="M 9.421875 54.6875 
L 18.40625 54.6875 
L 18.40625 0 
L 9.421875 0 
z
M 9.421875 75.984375 
L 18.40625 75.984375 
L 18.40625 64.59375 
L 9.421875 64.59375 
z
" id="DejaVuSans-105"/>
      <path d="M 52 44.1875 
Q 55.375 50.25 60.0625 53.125 
Q 64.75 56 71.09375 56 
Q 79.640625 56 84.28125 50.015625 
Q 88.921875 44.046875 88.921875 33.015625 
L 88.921875 0 
L 79.890625 0 
L 79.890625 32.71875 
Q 79.890625 40.578125 77.09375 44.375 
Q 74.3125 48.1875 68.609375 48.1875 
Q 61.625 48.1875 57.5625 43.546875 
Q 53.515625 38.921875 53.515625 30.90625 
L 53.515625 0 
L 44.484375 0 
L 44.484375 32.71875 
Q 44.484375 40.625 41.703125 44.40625 
Q 38.921875 48.1875 33.109375 48.1875 
Q 26.21875 48.1875 22.15625 43.53125 
Q 18.109375 38.875 18.109375 30.90625 
L 18.109375 0 
L 9.078125 0 
L 9.078125 54.6875 
L 18.109375 54.6875 
L 18.109375 46.1875 
Q 21.1875 51.21875 25.484375 53.609375 
Q 29.78125 56 35.6875 56 
Q 41.65625 56 45.828125 52.96875 
Q 50 49.953125 52 44.1875 
z
" id="DejaVuSans-109"/>
      <path d="M 56.203125 29.59375 
L 56.203125 25.203125 
L 14.890625 25.203125 
Q 15.484375 15.921875 20.484375 11.0625 
Q 25.484375 6.203125 34.421875 6.203125 
Q 39.59375 6.203125 44.453125 7.46875 
Q 49.3125 8.734375 54.109375 11.28125 
L 54.109375 2.78125 
Q 49.265625 0.734375 44.1875 -0.34375 
Q 39.109375 -1.421875 33.890625 -1.421875 
Q 20.796875 -1.421875 13.15625 6.1875 
Q 5.515625 13.8125 5.515625 26.8125 
Q 5.515625 40.234375 12.765625 48.109375 
Q 20.015625 56 32.328125 56 
Q 43.359375 56 49.78125 48.890625 
Q 56.203125 41.796875 56.203125 29.59375 
z
M 47.21875 32.234375 
Q 47.125 39.59375 43.09375 43.984375 
Q 39.0625 48.390625 32.421875 48.390625 
Q 24.90625 48.390625 20.390625 44.140625 
Q 15.875 39.890625 15.1875 32.171875 
z
" id="DejaVuSans-101"/>
      <path d="M 31 75.875 
Q 24.46875 64.65625 21.28125 53.65625 
Q 18.109375 42.671875 18.109375 31.390625 
Q 18.109375 20.125 21.3125 9.0625 
Q 24.515625 -2 31 -13.1875 
L 23.1875 -13.1875 
Q 15.875 -1.703125 12.234375 9.375 
Q 8.59375 20.453125 8.59375 31.390625 
Q 8.59375 42.28125 12.203125 53.3125 
Q 15.828125 64.359375 23.1875 75.875 
z
" id="DejaVuSans-40"/>
      <path d="M 44.28125 53.078125 
L 44.28125 44.578125 
Q 40.484375 46.53125 36.375 47.5 
Q 32.28125 48.484375 27.875 48.484375 
Q 21.1875 48.484375 17.84375 46.4375 
Q 14.5 44.390625 14.5 40.28125 
Q 14.5 37.15625 16.890625 35.375 
Q 19.28125 33.59375 26.515625 31.984375 
L 29.59375 31.296875 
Q 39.15625 29.25 43.1875 25.515625 
Q 47.21875 21.78125 47.21875 15.09375 
Q 47.21875 7.46875 41.1875 3.015625 
Q 35.15625 -1.421875 24.609375 -1.421875 
Q 20.21875 -1.421875 15.453125 -0.5625 
Q 10.6875 0.296875 5.421875 2 
L 5.421875 11.28125 
Q 10.40625 8.6875 15.234375 7.390625 
Q 20.0625 6.109375 24.8125 6.109375 
Q 31.15625 6.109375 34.5625 8.28125 
Q 37.984375 10.453125 37.984375 14.40625 
Q 37.984375 18.0625 35.515625 20.015625 
Q 33.0625 21.96875 24.703125 23.78125 
L 21.578125 24.515625 
Q 13.234375 26.265625 9.515625 29.90625 
Q 5.8125 33.546875 5.8125 39.890625 
Q 5.8125 47.609375 11.28125 51.796875 
Q 16.75 56 26.8125 56 
Q 31.78125 56 36.171875 55.265625 
Q 40.578125 54.546875 44.28125 53.078125 
z
" id="DejaVuSans-115"/>
      <path d="M 48.78125 52.59375 
L 48.78125 44.1875 
Q 44.96875 46.296875 41.140625 47.34375 
Q 37.3125 48.390625 33.40625 48.390625 
Q 24.65625 48.390625 19.8125 42.84375 
Q 14.984375 37.3125 14.984375 27.296875 
Q 14.984375 17.28125 19.8125 11.734375 
Q 24.65625 6.203125 33.40625 6.203125 
Q 37.3125 6.203125 41.140625 7.25 
Q 44.96875 8.296875 48.78125 10.40625 
L 48.78125 2.09375 
Q 45.015625 0.34375 40.984375 -0.53125 
Q 36.96875 -1.421875 32.421875 -1.421875 
Q 20.0625 -1.421875 12.78125 6.34375 
Q 5.515625 14.109375 5.515625 27.296875 
Q 5.515625 40.671875 12.859375 48.328125 
Q 20.21875 56 33.015625 56 
Q 37.15625 56 41.109375 55.140625 
Q 45.0625 54.296875 48.78125 52.59375 
z
" id="DejaVuSans-99"/>
      <path d="M 30.609375 48.390625 
Q 23.390625 48.390625 19.1875 42.75 
Q 14.984375 37.109375 14.984375 27.296875 
Q 14.984375 17.484375 19.15625 11.84375 
Q 23.34375 6.203125 30.609375 6.203125 
Q 37.796875 6.203125 41.984375 11.859375 
Q 46.1875 17.53125 46.1875 27.296875 
Q 46.1875 37.015625 41.984375 42.703125 
Q 37.796875 48.390625 30.609375 48.390625 
z
M 30.609375 56 
Q 42.328125 56 49.015625 48.375 
Q 55.71875 40.765625 55.71875 27.296875 
Q 55.71875 13.875 49.015625 6.21875 
Q 42.328125 -1.421875 30.609375 -1.421875 
Q 18.84375 -1.421875 12.171875 6.21875 
Q 5.515625 13.875 5.515625 27.296875 
Q 5.515625 40.765625 12.171875 48.375 
Q 18.84375 56 30.609375 56 
z
" id="DejaVuSans-111"/>
      <path d="M 54.890625 33.015625 
L 54.890625 0 
L 45.90625 0 
L 45.90625 32.71875 
Q 45.90625 40.484375 42.875 44.328125 
Q 39.84375 48.1875 33.796875 48.1875 
Q 26.515625 48.1875 22.3125 43.546875 
Q 18.109375 38.921875 18.109375 30.90625 
L 18.109375 0 
L 9.078125 0 
L 9.078125 54.6875 
L 18.109375 54.6875 
L 18.109375 46.1875 
Q 21.34375 51.125 25.703125 53.5625 
Q 30.078125 56 35.796875 56 
Q 45.21875 56 50.046875 50.171875 
Q 54.890625 44.34375 54.890625 33.015625 
z
" id="DejaVuSans-110"/>
      <path d="M 45.40625 46.390625 
L 45.40625 75.984375 
L 54.390625 75.984375 
L 54.390625 0 
L 45.40625 0 
L 45.40625 8.203125 
Q 42.578125 3.328125 38.25 0.953125 
Q 33.9375 -1.421875 27.875 -1.421875 
Q 17.96875 -1.421875 11.734375 6.484375 
Q 5.515625 14.40625 5.515625 27.296875 
Q 5.515625 40.1875 11.734375 48.09375 
Q 17.96875 56 27.875 56 
Q 33.9375 56 38.25 53.625 
Q 42.578125 51.265625 45.40625 46.390625 
z
M 14.796875 27.296875 
Q 14.796875 17.390625 18.875 11.75 
Q 22.953125 6.109375 30.078125 6.109375 
Q 37.203125 6.109375 41.296875 11.75 
Q 45.40625 17.390625 45.40625 27.296875 
Q 45.40625 37.203125 41.296875 42.84375 
Q 37.203125 48.484375 30.078125 48.484375 
Q 22.953125 48.484375 18.875 42.84375 
Q 14.796875 37.203125 14.796875 27.296875 
z
" id="DejaVuSans-100"/>
      <path d="M 8.015625 75.875 
L 15.828125 75.875 
Q 23.140625 64.359375 26.78125 53.3125 
Q 30.421875 42.28125 30.421875 31.390625 
Q 30.421875 20.453125 26.78125 9.375 
Q 23.140625 -1.703125 15.828125 -13.1875 
L 8.015625 -13.1875 
Q 14.5 -2 17.703125 9.0625 
Q 20.90625 20.125 20.90625 31.390625 
Q 20.90625 42.671875 17.703125 53.65625 
Q 14.5 64.65625 8.015625 75.875 
z
" id="DejaVuSans-41"/>
     </defs>
     <g transform="translate(197.76 335.860562)scale(0.1 -0.1)">
      <use transform="translate(0 0.015625)" xlink:href="#DejaVuSans-84"/>
      <use transform="translate(61.083984 0.015625)" xlink:href="#DejaVuSans-105"/>
      <use transform="translate(88.867188 0.015625)" xlink:href="#DejaVuSans-109"/>
      <use transform="translate(186.279297 0.015625)" xlink:href="#DejaVuSans-101"/>
      <use transform="translate(280.273113 0.015625)" xlink:href="#DejaVuSans-40"/>
      <use transform="translate(319.286785 0.015625)" xlink:href="#DejaVuSans-115"/>
      <use transform="translate(371.386394 0.015625)" xlink:href="#DejaVuSans-101"/>
      <use transform="translate(432.909832 0.015625)" xlink:href="#DejaVuSans-99"/>
      <use transform="translate(487.8903 0.015625)" xlink:href="#DejaVuSans-111"/>
      <use transform="translate(549.071941 0.015625)" xlink:href="#DejaVuSans-110"/>
      <use transform="translate(612.450847 0.015625)" xlink:href="#DejaVuSans-100"/>
      <use transform="translate(675.92741 0.015625)" xlink:href="#DejaVuSans-115"/>
      <use transform="translate(728.027019 0.015625)" xlink:href="#DejaVuSans-41"/>
     </g>
    </g>
   </g>
   <g id="matplotlib.axis_2">
    <g id="ytick_1">
     <g id="line2d_13">
      <path clip-path="url(#pe44309818c)" d="M 57.6 204.08203 
L 414.72 204.08203 
" style="fill:none;stroke:#b0b0b0;stroke-linecap:square;stroke-width:0.8;"/>
     </g>
     <g id="line2d_14">
      <defs>
       <path d="M 0 0 
L -3.5 0 
" id="mc3f313e2f5" style="stroke:#000000;stroke-width:0.8;"/>
      </defs>
      <g>
       <use style="stroke:#000000;stroke-width:0.8;" x="57.6" xlink:href="#mc3f313e2f5" y="204.08203"/>
      </g>
     </g>
     <g id="text_8">
      <!-- $\mathdefault{10^{-1}}$ -->
      <defs>
       <path d="M 10.59375 35.5 
L 73.1875 35.5 
L 73.1875 27.203125 
L 10.59375 27.203125 
z
" id="DejaVuSans-8722"/>
      </defs>
      <g transform="translate(27.1 207.881249)scale(0.1 -0.1)">
       <use transform="translate(0 0.684375)" xlink:href="#DejaVuSans-49"/>
       <use transform="translate(63.623047 0.684375)" xlink:href="#DejaVuSans-48"/>
       <use transform="translate(128.203125 38.965625)scale(0.7)" xlink:href="#DejaVuSans-8722"/>
       <use transform="translate(186.855469 38.965625)scale(0.7)" xlink:href="#DejaVuSans-49"/>
      </g>
     </g>
    </g>
    <g id="ytick_2">
     <g id="line2d_15">
      <defs>
       <path d="M 0 0 
L -2 0 
" id="ma13a75c46a" style="stroke:#000000;stroke-width:0.6;"/>
      </defs>
      <g>
       <use style="stroke:#000000;stroke-width:0.6;" x="57.6" xlink:href="#ma13a75c46a" y="288.35398"/>
      </g>
     </g>
    </g>
    <g id="ytick_3">
     <g id="line2d_16">
      <g>
       <use style="stroke:#000000;stroke-width:0.6;" x="57.6" xlink:href="#ma13a75c46a" y="267.8313"/>
      </g>
     </g>
    </g>
    <g id="ytick_4">
     <g id="line2d_17">
      <g>
       <use style="stroke:#000000;stroke-width:0.6;" x="57.6" xlink:href="#ma13a75c46a" y="251.063048"/>
      </g>
     </g>
    </g>
    <g id="ytick_5">
     <g id="line2d_18">
      <g>
       <use style="stroke:#000000;stroke-width:0.6;" x="57.6" xlink:href="#ma13a75c46a" y="236.885694"/>
      </g>
     </g>
    </g>
    <g id="ytick_6">
     <g id="line2d_19">
      <g>
       <use style="stroke:#000000;stroke-width:0.6;" x="57.6" xlink:href="#ma13a75c46a" y="224.604711"/>
      </g>
     </g>
    </g>
    <g id="ytick_7">
     <g id="line2d_20">
      <g>
       <use style="stroke:#000000;stroke-width:0.6;" x="57.6" xlink:href="#ma13a75c46a" y="213.772116"/>
      </g>
     </g>
    </g>
    <g id="ytick_8">
     <g id="line2d_21">
      <g>
       <use style="stroke:#000000;stroke-width:0.6;" x="57.6" xlink:href="#ma13a75c46a" y="140.332761"/>
      </g>
     </g>
    </g>
    <g id="ytick_9">
     <g id="line2d_22">
      <g>
       <use style="stroke:#000000;stroke-width:0.6;" x="57.6" xlink:href="#ma13a75c46a" y="103.041829"/>
      </g>
     </g>
    </g>
    <g id="ytick_10">
     <g id="line2d_23">
      <g>
       <use style="stroke:#000000;stroke-width:0.6;" x="57.6" xlink:href="#ma13a75c46a" y="76.583492"/>
      </g>
     </g>
    </g>
    <g id="ytick_11">
     <g id="line2d_24">
      <g>
       <use style="stroke:#000000;stroke-width:0.6;" x="57.6" xlink:href="#ma13a75c46a" y="56.060811"/>
      </g>
     </g>
    </g>
    <g id="text_9">
     <!-- $\mathrm{Relative \ error}$ ($N_{\mathrm{train}}=20$) -->
     <defs>
      <path d="M 44.390625 34.1875 
Q 47.5625 33.109375 50.5625 29.59375 
Q 53.5625 26.078125 56.59375 19.921875 
L 66.609375 0 
L 56 0 
L 46.6875 18.703125 
Q 43.0625 26.03125 39.671875 28.421875 
Q 36.28125 30.8125 30.421875 30.8125 
L 19.671875 30.8125 
L 19.671875 0 
L 9.8125 0 
L 9.8125 72.90625 
L 32.078125 72.90625 
Q 44.578125 72.90625 50.734375 67.671875 
Q 56.890625 62.453125 56.890625 51.90625 
Q 56.890625 45.015625 53.6875 40.46875 
Q 50.484375 35.9375 44.390625 34.1875 
z
M 19.671875 64.796875 
L 19.671875 38.921875 
L 32.078125 38.921875 
Q 39.203125 38.921875 42.84375 42.21875 
Q 46.484375 45.515625 46.484375 51.90625 
Q 46.484375 58.296875 42.84375 61.546875 
Q 39.203125 64.796875 32.078125 64.796875 
z
" id="DejaVuSans-82"/>
      <path d="M 9.421875 75.984375 
L 18.40625 75.984375 
L 18.40625 0 
L 9.421875 0 
z
" id="DejaVuSans-108"/>
      <path d="M 34.28125 27.484375 
Q 23.390625 27.484375 19.1875 25 
Q 14.984375 22.515625 14.984375 16.5 
Q 14.984375 11.71875 18.140625 8.90625 
Q 21.296875 6.109375 26.703125 6.109375 
Q 34.1875 6.109375 38.703125 11.40625 
Q 43.21875 16.703125 43.21875 25.484375 
L 43.21875 27.484375 
z
M 52.203125 31.203125 
L 52.203125 0 
L 43.21875 0 
L 43.21875 8.296875 
Q 40.140625 3.328125 35.546875 0.953125 
Q 30.953125 -1.421875 24.3125 -1.421875 
Q 15.921875 -1.421875 10.953125 3.296875 
Q 6 8.015625 6 15.921875 
Q 6 25.140625 12.171875 29.828125 
Q 18.359375 34.515625 30.609375 34.515625 
L 43.21875 34.515625 
L 43.21875 35.40625 
Q 43.21875 41.609375 39.140625 45 
Q 35.0625 48.390625 27.6875 48.390625 
Q 23 48.390625 18.546875 47.265625 
Q 14.109375 46.140625 10.015625 43.890625 
L 10.015625 52.203125 
Q 14.9375 54.109375 19.578125 55.046875 
Q 24.21875 56 28.609375 56 
Q 40.484375 56 46.34375 49.84375 
Q 52.203125 43.703125 52.203125 31.203125 
z
" id="DejaVuSans-97"/>
      <path d="M 18.3125 70.21875 
L 18.3125 54.6875 
L 36.8125 54.6875 
L 36.8125 47.703125 
L 18.3125 47.703125 
L 18.3125 18.015625 
Q 18.3125 11.328125 20.140625 9.421875 
Q 21.96875 7.515625 27.59375 7.515625 
L 36.8125 7.515625 
L 36.8125 0 
L 27.59375 0 
Q 17.1875 0 13.234375 3.875 
Q 9.28125 7.765625 9.28125 18.015625 
L 9.28125 47.703125 
L 2.6875 47.703125 
L 2.6875 54.6875 
L 9.28125 54.6875 
L 9.28125 70.21875 
z
" id="DejaVuSans-116"/>
      <path d="M 2.984375 54.6875 
L 12.5 54.6875 
L 29.59375 8.796875 
L 46.6875 54.6875 
L 56.203125 54.6875 
L 35.6875 0 
L 23.484375 0 
z
" id="DejaVuSans-118"/>
      <path d="M 41.109375 46.296875 
Q 39.59375 47.171875 37.8125 47.578125 
Q 36.03125 48 33.890625 48 
Q 26.265625 48 22.1875 43.046875 
Q 18.109375 38.09375 18.109375 28.8125 
L 18.109375 0 
L 9.078125 0 
L 9.078125 54.6875 
L 18.109375 54.6875 
L 18.109375 46.1875 
Q 20.953125 51.171875 25.484375 53.578125 
Q 30.03125 56 36.53125 56 
Q 37.453125 56 38.578125 55.875 
Q 39.703125 55.765625 41.0625 55.515625 
z
" id="DejaVuSans-114"/>
      <path id="DejaVuSans-32"/>
      <path d="M 16.890625 72.90625 
L 30.171875 72.90625 
L 50.296875 10.40625 
L 62.5 72.90625 
L 72.125 72.90625 
L 57.90625 0 
L 44.578125 0 
L 24.515625 62.890625 
L 12.3125 0 
L 2.6875 0 
z
" id="DejaVuSans-Oblique-78"/>
      <path d="M 10.59375 45.40625 
L 73.1875 45.40625 
L 73.1875 37.203125 
L 10.59375 37.203125 
z
M 10.59375 25.484375 
L 73.1875 25.484375 
L 73.1875 17.1875 
L 10.59375 17.1875 
z
" id="DejaVuSans-61"/>
     </defs>
     <g transform="translate(21.020312 238.878)rotate(-90)scale(0.1 -0.1)">
      <use transform="translate(0 0.015625)" xlink:href="#DejaVuSans-82"/>
      <use transform="translate(69.482422 0.015625)" xlink:href="#DejaVuSans-101"/>
      <use transform="translate(131.005859 0.015625)" xlink:href="#DejaVuSans-108"/>
      <use transform="translate(158.789062 0.015625)" xlink:href="#DejaVuSans-97"/>
      <use transform="translate(220.068359 0.015625)" xlink:href="#DejaVuSans-116"/>
      <use transform="translate(259.277344 0.015625)" xlink:href="#DejaVuSans-105"/>
      <use transform="translate(287.060547 0.015625)" xlink:href="#DejaVuSans-118"/>
      <use transform="translate(346.240234 0.015625)" xlink:href="#DejaVuSans-101"/>
      <use transform="translate(440.23405 0.015625)" xlink:href="#DejaVuSans-101"/>
      <use transform="translate(501.757488 0.015625)" xlink:href="#DejaVuSans-114"/>
      <use transform="translate(542.870769 0.015625)" xlink:href="#DejaVuSans-114"/>
      <use transform="translate(583.98405 0.015625)" xlink:href="#DejaVuSans-111"/>
      <use transform="translate(645.165691 0.015625)" xlink:href="#DejaVuSans-114"/>
      <use transform="translate(686.278972 0.015625)" xlink:href="#DejaVuSans-32"/>
      <use transform="translate(718.066082 0.015625)" xlink:href="#DejaVuSans-40"/>
      <use transform="translate(757.079753 0.015625)" xlink:href="#DejaVuSans-Oblique-78"/>
      <use transform="translate(831.884441 -16.390625)scale(0.7)" xlink:href="#DejaVuSans-116"/>
      <use transform="translate(859.33073 -16.390625)scale(0.7)" xlink:href="#DejaVuSans-114"/>
      <use transform="translate(888.110027 -16.390625)scale(0.7)" xlink:href="#DejaVuSans-97"/>
      <use transform="translate(931.005535 -16.390625)scale(0.7)" xlink:href="#DejaVuSans-105"/>
      <use transform="translate(950.453777 -16.390625)scale(0.7)" xlink:href="#DejaVuSans-110"/>
      <use transform="translate(1017.035808 0.015625)" xlink:href="#DejaVuSans-61"/>
      <use transform="translate(1120.307292 0.015625)" xlink:href="#DejaVuSans-50"/>
      <use transform="translate(1183.930339 0.015625)" xlink:href="#DejaVuSans-48"/>
      <use transform="translate(1247.553386 0.015625)" xlink:href="#DejaVuSans-41"/>
     </g>
    </g>
   </g>
   <g id="line2d_25">
    <path clip-path="url(#pe44309818c)" d="M 73.832724 285.478404 
L 77.145522 249.755757 
L 80.458321 223.256498 
L 83.771119 202.160303 
L 87.083917 184.770203 
L 90.396716 170.164153 
L 93.709554 157.7585 
L 97.022352 147.138276 
L 100.33515 137.986225 
L 103.647949 130.051291 
L 106.960747 123.131658 
L 110.273545 117.063845 
L 113.586344 111.71503 
L 116.899142 106.977 
L 120.21194 102.761134 
L 123.524738 98.994581 
L 126.837537 95.616896 
L 130.150375 92.57816 
L 133.463173 89.836672 
L 136.775971 87.357716 
L 140.08877 85.112073 
L 143.401568 83.075176 
L 146.714366 81.226308 
L 150.027165 79.547921 
L 153.339963 78.025292 
L 156.652761 76.646053 
L 159.96556 75.399783 
L 163.278358 74.277544 
L 166.591156 73.271885 
L 169.903955 72.376392 
L 173.216753 71.585716 
L 176.529551 70.895242 
L 179.842389 70.301176 
L 183.155187 69.800188 
L 186.467986 69.389656 
L 189.780784 69.067431 
L 193.093582 68.831994 
L 196.406381 68.682263 
L 199.719179 68.617535 
L 203.031977 68.637357 
L 206.344776 68.741291 
L 209.657574 68.928708 
L 212.970412 69.198401 
L 216.28321 69.548016 
L 219.596008 69.973419 
L 226.221605 71.020381 
L 242.785597 73.952592 
L 246.098395 74.391474 
L 249.411193 74.72948 
L 252.723992 74.95734 
L 256.03679 75.073087 
L 259.349588 75.080664 
L 262.662387 74.98789 
L 265.975185 74.80486 
L 269.288023 74.54254 
L 275.913619 73.823635 
L 282.539216 72.911132 
L 289.164852 71.870181 
L 299.103247 70.173867 
L 325.605634 65.549333 
L 335.544029 63.937919 
L 345.482424 62.446215 
L 355.420858 61.098839 
L 365.359253 59.918383 
L 371.984889 59.23447 
L 378.610486 58.639497 
L 385.236083 58.138309 
L 391.861679 57.735095 
L 398.487276 57.434022 
" style="fill:none;stroke:#ff0000;stroke-linecap:square;stroke-width:1.5;"/>
   </g>
   <g id="line2d_26">
    <path clip-path="url(#pe44309818c)" d="M 73.832724 285.626236 
L 77.145522 249.986368 
L 80.458321 223.562919 
L 83.771119 202.539053 
L 87.083917 185.218757 
L 90.396716 170.679555 
L 93.709554 158.336536 
L 97.022352 147.773871 
L 100.33515 138.674334 
L 103.647949 130.787209 
L 106.960747 123.911352 
L 110.273545 117.884111 
L 113.586344 112.573368 
L 116.899142 107.871636 
L 120.21194 103.690808 
L 123.524738 99.958333 
L 126.837537 96.614277 
L 130.150375 93.608758 
L 133.463173 90.900324 
L 136.775971 88.454361 
L 140.08877 86.241937 
L 143.401568 84.238696 
L 146.714366 82.424083 
L 150.027165 80.780762 
L 153.339963 79.294128 
L 156.652761 77.952054 
L 159.96556 76.744257 
L 163.278358 75.662284 
L 166.591156 74.698936 
L 169.903955 73.84823 
L 173.216753 73.105167 
L 176.529551 72.465709 
L 179.842389 71.926425 
L 183.155187 71.484639 
L 186.467986 71.138074 
L 189.780784 70.885066 
L 193.093582 70.724459 
L 196.406381 70.655594 
L 199.719179 70.678108 
L 203.031977 70.791762 
L 206.344776 70.99635 
L 209.657574 71.291182 
L 212.970412 71.674606 
L 216.28321 72.143305 
L 219.596008 72.691222 
L 226.221605 73.978946 
L 236.16 76.066756 
L 239.472798 76.683898 
L 242.785597 77.210738 
L 246.098395 77.625814 
L 249.411193 77.917014 
L 252.723992 78.081057 
L 256.03679 78.121699 
L 259.349588 78.047479 
L 262.662387 77.869757 
L 265.975185 77.600951 
L 269.288023 77.253626 
L 275.913619 76.370355 
L 282.539216 75.30322 
L 289.164852 74.11772 
L 302.416045 71.575366 
L 322.292835 67.746961 
L 332.23123 65.943131 
L 342.169625 64.255879 
L 352.10806 62.708788 
L 362.046455 61.323318 
L 368.672051 60.500052 
L 375.297688 59.764795 
L 381.923284 59.124527 
L 388.548881 58.586607 
L 395.174478 58.158581 
L 398.487276 57.988178 
" style="fill:none;stroke:#0000ff;stroke-linecap:square;stroke-width:1.5;"/>
   </g>
   <g id="line2d_27">
    <path clip-path="url(#pe44309818c)" d="M 73.832724 290.596581 
L 77.145522 254.745255 
L 80.458321 228.128809 
L 83.771119 206.936056 
L 87.083917 189.476682 
L 90.396716 174.831092 
L 93.709554 162.412715 
L 97.022352 151.801661 
L 100.33515 142.676627 
L 103.647949 134.783119 
L 106.960747 127.916498 
L 110.273545 121.911418 
L 113.586344 116.634019 
L 116.899142 111.975365 
L 120.21194 107.846237 
L 123.524738 104.173089 
L 126.837537 100.895277 
L 130.150375 97.96241 
L 133.463173 95.332768 
L 136.775971 92.971424 
L 140.08877 90.849224 
L 143.401568 88.941662 
L 146.714366 87.228133 
L 150.027165 85.691092 
L 153.339963 84.315694 
L 156.652761 83.089318 
L 159.96556 82.001256 
L 163.278358 81.042501 
L 166.591156 80.205373 
L 169.903955 79.483417 
L 173.216753 78.871352 
L 176.529551 78.364964 
L 179.842389 77.961145 
L 183.155187 77.657596 
L 186.467986 77.452889 
L 189.780784 77.345897 
L 193.093582 77.336024 
L 196.406381 77.42292 
L 199.719179 77.606501 
L 203.031977 77.88672 
L 206.344776 78.26297 
L 209.657574 78.733415 
L 212.970412 79.293754 
L 216.28321 79.935733 
L 222.908807 81.401884 
L 229.534403 82.942893 
L 232.847202 83.66576 
L 236.16 84.31963 
L 239.472798 84.882971 
L 242.785597 85.339402 
L 246.098395 85.677732 
L 249.411193 85.891892 
L 252.723992 85.981178 
L 256.03679 85.949747 
L 259.349588 85.805624 
L 262.662387 85.559438 
L 265.975185 85.223123 
L 269.288023 84.808906 
L 275.913619 83.793069 
L 282.539216 82.595166 
L 292.477651 80.596897 
L 328.918432 72.995019 
L 338.856827 71.109145 
L 348.795222 69.361379 
L 358.733656 67.771751 
L 368.672051 66.357879 
L 375.297688 65.520377 
L 381.923284 64.771507 
L 388.548881 64.115264 
L 395.174478 63.556319 
L 398.487276 63.315078 
" style="fill:none;stroke:#00ffff;stroke-linecap:square;stroke-width:1.5;"/>
   </g>
   <g id="patch_3">
    <path d="M 57.6 307.584 
L 57.6 41.472 
" style="fill:none;stroke:#000000;stroke-linecap:square;stroke-linejoin:miter;stroke-width:0.8;"/>
   </g>
   <g id="patch_4">
    <path d="M 414.72 307.584 
L 414.72 41.472 
" style="fill:none;stroke:#000000;stroke-linecap:square;stroke-linejoin:miter;stroke-width:0.8;"/>
   </g>
   <g id="patch_5">
    <path d="M 57.6 307.584 
L 414.72 307.584 
" style="fill:none;stroke:#000000;stroke-linecap:square;stroke-linejoin:miter;stroke-width:0.8;"/>
   </g>
   <g id="patch_6">
    <path d="M 57.6 41.472 
L 414.72 41.472 
" style="fill:none;stroke:#000000;stroke-linecap:square;stroke-linejoin:miter;stroke-width:0.8;"/>
   </g>
   <g id="legend_1">
    <g id="patch_7">
     <path d="M 282.559063 302.584 
L 407.72 302.584 
Q 409.72 302.584 409.72 300.584 
L 409.72 257.549625 
Q 409.72 255.549625 407.72 255.549625 
L 282.559063 255.549625 
Q 280.559063 255.549625 280.559063 257.549625 
L 280.559063 300.584 
Q 280.559063 302.584 282.559063 302.584 
z
" style="fill:#ffffff;opacity:0.8;stroke:#cccccc;stroke-linejoin:miter;"/>
    </g>
    <g id="line2d_28">
     <path d="M 284.559063 263.648062 
L 304.559063 263.648062 
" style="fill:none;stroke:#ff0000;stroke-linecap:square;stroke-width:1.5;"/>
    </g>
    <g id="line2d_29"/>
    <g id="text_10">
     <!-- No denoising -->
     <defs>
      <path d="M 9.8125 72.90625 
L 23.09375 72.90625 
L 55.421875 11.921875 
L 55.421875 72.90625 
L 64.984375 72.90625 
L 64.984375 0 
L 51.703125 0 
L 19.390625 60.984375 
L 19.390625 0 
L 9.8125 0 
z
" id="DejaVuSans-78"/>
      <path d="M 45.40625 27.984375 
Q 45.40625 37.75 41.375 43.109375 
Q 37.359375 48.484375 30.078125 48.484375 
Q 22.859375 48.484375 18.828125 43.109375 
Q 14.796875 37.75 14.796875 27.984375 
Q 14.796875 18.265625 18.828125 12.890625 
Q 22.859375 7.515625 30.078125 7.515625 
Q 37.359375 7.515625 41.375 12.890625 
Q 45.40625 18.265625 45.40625 27.984375 
z
M 54.390625 6.78125 
Q 54.390625 -7.171875 48.1875 -13.984375 
Q 42 -20.796875 29.203125 -20.796875 
Q 24.46875 -20.796875 20.265625 -20.09375 
Q 16.0625 -19.390625 12.109375 -17.921875 
L 12.109375 -9.1875 
Q 16.0625 -11.328125 19.921875 -12.34375 
Q 23.78125 -13.375 27.78125 -13.375 
Q 36.625 -13.375 41.015625 -8.765625 
Q 45.40625 -4.15625 45.40625 5.171875 
L 45.40625 9.625 
Q 42.625 4.78125 38.28125 2.390625 
Q 33.9375 0 27.875 0 
Q 17.828125 0 11.671875 7.65625 
Q 5.515625 15.328125 5.515625 27.984375 
Q 5.515625 40.671875 11.671875 48.328125 
Q 17.828125 56 27.875 56 
Q 33.9375 56 38.28125 53.609375 
Q 42.625 51.21875 45.40625 46.390625 
L 45.40625 54.6875 
L 54.390625 54.6875 
z
" id="DejaVuSans-103"/>
     </defs>
     <g transform="translate(312.559063 267.148062)scale(0.1 -0.1)">
      <use xlink:href="#DejaVuSans-78"/>
      <use x="74.804688" xlink:href="#DejaVuSans-111"/>
      <use x="135.986328" xlink:href="#DejaVuSans-32"/>
      <use x="167.773438" xlink:href="#DejaVuSans-100"/>
      <use x="231.25" xlink:href="#DejaVuSans-101"/>
      <use x="292.773438" xlink:href="#DejaVuSans-110"/>
      <use x="356.152344" xlink:href="#DejaVuSans-111"/>
      <use x="417.333984" xlink:href="#DejaVuSans-105"/>
      <use x="445.117188" xlink:href="#DejaVuSans-115"/>
      <use x="497.216797" xlink:href="#DejaVuSans-105"/>
      <use x="525" xlink:href="#DejaVuSans-110"/>
      <use x="588.378906" xlink:href="#DejaVuSans-103"/>
     </g>
    </g>
    <g id="line2d_30">
     <path d="M 284.559063 278.326188 
L 304.559063 278.326188 
" style="fill:none;stroke:#0000ff;stroke-linecap:square;stroke-width:1.5;"/>
    </g>
    <g id="line2d_31"/>
    <g id="text_11">
     <!-- With denoising -->
     <defs>
      <path d="M 3.328125 72.90625 
L 13.28125 72.90625 
L 28.609375 11.28125 
L 43.890625 72.90625 
L 54.984375 72.90625 
L 70.3125 11.28125 
L 85.59375 72.90625 
L 95.609375 72.90625 
L 77.296875 0 
L 64.890625 0 
L 49.515625 63.28125 
L 33.984375 0 
L 21.578125 0 
z
" id="DejaVuSans-87"/>
      <path d="M 54.890625 33.015625 
L 54.890625 0 
L 45.90625 0 
L 45.90625 32.71875 
Q 45.90625 40.484375 42.875 44.328125 
Q 39.84375 48.1875 33.796875 48.1875 
Q 26.515625 48.1875 22.3125 43.546875 
Q 18.109375 38.921875 18.109375 30.90625 
L 18.109375 0 
L 9.078125 0 
L 9.078125 75.984375 
L 18.109375 75.984375 
L 18.109375 46.1875 
Q 21.34375 51.125 25.703125 53.5625 
Q 30.078125 56 35.796875 56 
Q 45.21875 56 50.046875 50.171875 
Q 54.890625 44.34375 54.890625 33.015625 
z
" id="DejaVuSans-104"/>
     </defs>
     <g transform="translate(312.559063 281.826188)scale(0.1 -0.1)">
      <use xlink:href="#DejaVuSans-87"/>
      <use x="98.845703" xlink:href="#DejaVuSans-105"/>
      <use x="126.628906" xlink:href="#DejaVuSans-116"/>
      <use x="165.837891" xlink:href="#DejaVuSans-104"/>
      <use x="229.216797" xlink:href="#DejaVuSans-32"/>
      <use x="261.003906" xlink:href="#DejaVuSans-100"/>
      <use x="324.480469" xlink:href="#DejaVuSans-101"/>
      <use x="386.003906" xlink:href="#DejaVuSans-110"/>
      <use x="449.382812" xlink:href="#DejaVuSans-111"/>
      <use x="510.564453" xlink:href="#DejaVuSans-105"/>
      <use x="538.347656" xlink:href="#DejaVuSans-115"/>
      <use x="590.447266" xlink:href="#DejaVuSans-105"/>
      <use x="618.230469" xlink:href="#DejaVuSans-110"/>
      <use x="681.609375" xlink:href="#DejaVuSans-103"/>
     </g>
    </g>
    <g id="line2d_32">
     <path d="M 284.559063 293.004312 
L 304.559063 293.004312 
" style="fill:none;stroke:#00ffff;stroke-linecap:square;stroke-width:1.5;"/>
    </g>
    <g id="line2d_33"/>
    <g id="text_12">
     <!-- With big denoising -->
     <defs>
      <path d="M 48.6875 27.296875 
Q 48.6875 37.203125 44.609375 42.84375 
Q 40.53125 48.484375 33.40625 48.484375 
Q 26.265625 48.484375 22.1875 42.84375 
Q 18.109375 37.203125 18.109375 27.296875 
Q 18.109375 17.390625 22.1875 11.75 
Q 26.265625 6.109375 33.40625 6.109375 
Q 40.53125 6.109375 44.609375 11.75 
Q 48.6875 17.390625 48.6875 27.296875 
z
M 18.109375 46.390625 
Q 20.953125 51.265625 25.265625 53.625 
Q 29.59375 56 35.59375 56 
Q 45.5625 56 51.78125 48.09375 
Q 58.015625 40.1875 58.015625 27.296875 
Q 58.015625 14.40625 51.78125 6.484375 
Q 45.5625 -1.421875 35.59375 -1.421875 
Q 29.59375 -1.421875 25.265625 0.953125 
Q 20.953125 3.328125 18.109375 8.203125 
L 18.109375 0 
L 9.078125 0 
L 9.078125 75.984375 
L 18.109375 75.984375 
z
" id="DejaVuSans-98"/>
     </defs>
     <g transform="translate(312.559063 296.504312)scale(0.1 -0.1)">
      <use xlink:href="#DejaVuSans-87"/>
      <use x="98.845703" xlink:href="#DejaVuSans-105"/>
      <use x="126.628906" xlink:href="#DejaVuSans-116"/>
      <use x="165.837891" xlink:href="#DejaVuSans-104"/>
      <use x="229.216797" xlink:href="#DejaVuSans-32"/>
      <use x="261.003906" xlink:href="#DejaVuSans-98"/>
      <use x="324.480469" xlink:href="#DejaVuSans-105"/>
      <use x="352.263672" xlink:href="#DejaVuSans-103"/>
      <use x="415.740234" xlink:href="#DejaVuSans-32"/>
      <use x="447.527344" xlink:href="#DejaVuSans-100"/>
      <use x="511.003906" xlink:href="#DejaVuSans-101"/>
      <use x="572.527344" xlink:href="#DejaVuSans-110"/>
      <use x="635.90625" xlink:href="#DejaVuSans-111"/>
      <use x="697.087891" xlink:href="#DejaVuSans-105"/>
      <use x="724.871094" xlink:href="#DejaVuSans-115"/>
      <use x="776.970703" xlink:href="#DejaVuSans-105"/>
      <use x="804.753906" xlink:href="#DejaVuSans-110"/>
      <use x="868.132812" xlink:href="#DejaVuSans-103"/>
     </g>
    </g>
   </g>
  </g>
 </g>
 <defs>
  <clipPath id="pe44309818c">
   <rect height="266.112" width="357.12" x="57.6" y="41.472"/>
  </clipPath>
 </defs>
</svg>
