<?xml version="1.0" encoding="utf-8" standalone="no"?>
<!DOCTYPE svg PUBLIC "-//W3C//DTD SVG 1.1//EN"
  "http://www.w3.org/Graphics/SVG/1.1/DTD/svg11.dtd">
<!-- Created with matplotlib (https://matplotlib.org/) -->
<svg height="345.6pt" version="1.1" viewBox="0 0 460.8 345.6" width="460.8pt" xmlns="http://www.w3.org/2000/svg" xmlns:xlink="http://www.w3.org/1999/xlink">
 <defs>
  <style type="text/css">
*{stroke-linecap:butt;stroke-linejoin:round;white-space:pre;}
  </style>
 </defs>
 <g id="figure_1">
  <g id="patch_1">
   <path d="M 0 345.6 
L 460.8 345.6 
L 460.8 0 
L 0 0 
z
" style="fill:#ffffff;"/>
  </g>
  <g id="axes_1">
   <g id="patch_2">
    <path d="M 57.6 307.584 
L 414.72 307.584 
L 414.72 41.472 
L 57.6 41.472 
z
" style="fill:#ffffff;"/>
   </g>
   <g id="PolyCollection_1">
    <path clip-path="url(#pd024556d49)" d="M 73.832727 270.129935 
L 73.832727 280.405694 
L 77.145529 246.516413 
L 80.45833 221.359525 
L 83.771132 201.302808 
L 87.083933 184.734802 
L 90.396735 170.78693 
L 93.709536 158.914898 
L 97.022338 148.732607 
L 100.335139 139.944653 
L 103.647941 132.316829 
L 106.960742 125.660004 
L 110.273544 119.820282 
L 113.586345 114.672182 
L 116.899147 110.113075 
L 120.211948 106.058545 
L 123.52475 102.438898 
L 126.837551 99.196428 
L 130.150353 96.283157 
L 133.463154 93.659053 
L 136.775955 91.290609 
L 140.088757 89.149671 
L 143.401558 87.212452 
L 146.71436 85.458842 
L 150.027161 83.871951 
L 153.339963 82.437613 
L 156.652764 81.143879 
L 159.965566 79.980694 
L 163.278367 78.939614 
L 166.591169 78.013537 
L 169.90397 77.196419 
L 173.216772 76.483107 
L 176.529573 75.869192 
L 179.842375 75.350932 
L 183.155176 74.925215 
L 186.467978 74.589475 
L 189.780779 74.341759 
L 193.093581 74.180749 
L 196.406382 74.105773 
L 199.719184 74.116727 
L 203.031985 74.214 
L 206.344787 74.398398 
L 209.657588 74.671053 
L 212.97039 75.033242 
L 216.283191 75.486061 
L 219.595993 76.02992 
L 222.908794 76.663771 
L 226.221596 77.383974 
L 229.534397 78.182713 
L 232.847199 79.046067 
L 236.16 79.952298 
L 239.472801 80.871421 
L 242.785603 81.76731 
L 246.098404 82.602684 
L 249.411206 83.345338 
L 252.724007 83.972878 
L 256.036809 84.474217 
L 259.34961 84.848163 
L 262.662412 85.100597 
L 265.975213 85.241629 
L 269.288015 85.283365 
L 272.600816 85.238408 
L 275.913618 85.118954 
L 279.226419 84.936314 
L 282.539221 84.700704 
L 285.852022 84.421203 
L 289.164824 84.105793 
L 292.477625 83.761438 
L 295.790427 83.394205 
L 299.103228 83.009371 
L 302.41603 82.611529 
L 305.728831 82.204675 
L 309.041633 81.792299 
L 312.354434 81.377467 
L 315.667236 80.962895 
L 318.980037 80.550999 
L 322.292839 80.143956 
L 325.60564 79.743746 
L 328.918442 79.352202 
L 332.231243 78.971044 
L 335.544045 78.601903 
L 338.856846 78.246354 
L 342.169647 77.905928 
L 345.482449 77.58212 
L 348.79525 77.276412 
L 352.108052 76.990272 
L 355.420853 76.725153 
L 358.733655 76.482505 
L 362.046456 76.263789 
L 365.359258 76.07046 
L 368.672059 75.903982 
L 371.984861 75.765823 
L 375.297662 75.657449 
L 378.610464 75.580333 
L 381.923265 75.535989 
L 385.236067 75.526029 
L 388.548868 75.55222 
L 391.86167 75.616532 
L 395.174471 75.72119 
L 398.487273 75.868718 
L 398.487273 53.568 
L 398.487273 53.568 
L 395.174471 53.789664 
L 391.86167 54.028182 
L 388.548868 54.283428 
L 385.236067 54.555257 
L 381.923265 54.843497 
L 378.610464 55.14793 
L 375.297662 55.46828 
L 371.984861 55.804229 
L 368.672059 56.155429 
L 365.359258 56.521505 
L 362.046456 56.902069 
L 358.733655 57.296713 
L 355.420853 57.70501 
L 352.108052 58.126516 
L 348.79525 58.560765 
L 345.482449 59.007268 
L 342.169647 59.465513 
L 338.856846 59.934948 
L 335.544045 60.41498 
L 332.231243 60.904962 
L 328.918442 61.404179 
L 325.60564 61.911831 
L 322.292839 62.427016 
L 318.980037 62.948713 
L 315.667236 63.475756 
L 312.354434 64.00681 
L 309.041633 64.540334 
L 305.728831 65.074543 
L 302.41603 65.60736 
L 299.103228 66.136361 
L 295.790427 66.658714 
L 292.477625 67.171106 
L 289.164824 67.669675 
L 285.852022 68.149927 
L 282.539221 68.606664 
L 279.226419 69.033918 
L 275.913618 69.424909 
L 272.600816 69.772052 
L 269.288015 70.067042 
L 265.975213 70.301065 
L 262.662412 70.465196 
L 259.34961 70.551047 
L 256.036809 70.551721 
L 252.724007 70.463095 
L 249.411206 70.285319 
L 246.098404 70.024197 
L 242.785603 69.691834 
L 239.472801 69.305962 
L 236.16 68.887866 
L 232.847199 68.459601 
L 229.534397 68.041525 
L 226.221596 67.650785 
L 222.908794 67.300754 
L 219.595993 67.001216 
L 216.283191 66.758965 
L 212.97039 66.578515 
L 209.657588 66.46276 
L 206.344787 66.413531 
L 203.031985 66.432038 
L 199.719184 66.519189 
L 196.406382 66.675829 
L 193.093581 66.90293 
L 189.780779 67.201749 
L 186.467978 67.573954 
L 183.155176 68.021689 
L 179.842375 68.547585 
L 176.529573 69.154756 
L 173.216772 69.846825 
L 169.90397 70.627974 
L 166.591169 71.502983 
L 163.278367 72.477306 
L 159.965566 73.557218 
L 156.652764 74.749961 
L 153.339963 76.063978 
L 150.027161 77.509206 
L 146.71436 79.097306 
L 143.401558 80.842005 
L 140.088757 82.759503 
L 136.775955 84.868878 
L 133.463154 87.192646 
L 130.150353 89.757566 
L 126.837551 92.595516 
L 123.52475 95.744616 
L 120.211948 99.250685 
L 116.899147 103.169074 
L 113.586345 107.566923 
L 110.273544 112.526053 
L 106.960742 118.14709 
L 103.647941 124.554406 
L 100.335139 131.9022 
L 97.022338 140.382831 
L 93.709536 150.238127 
L 90.396735 161.775561 
L 87.083933 175.397514 
L 83.771132 191.667215 
L 80.45833 211.467903 
L 77.145529 236.413441 
L 73.832727 270.129935 
z
" style="fill:#ff0000;fill-opacity:0.4;"/>
   </g>
   <g id="PolyCollection_2">
    <path clip-path="url(#pd024556d49)" d="M 73.832727 271.484049 
L 73.832727 281.690541 
L 77.145529 247.855861 
L 80.45833 222.75051 
L 83.771132 202.741967 
L 87.083933 186.21946 
L 90.396735 172.313385 
L 93.709536 160.479282 
L 97.022338 150.331835 
L 100.335139 141.575778 
L 103.647941 133.977073 
L 106.960742 127.347292 
L 110.273544 121.533363 
L 113.586345 116.410396 
L 116.899147 111.876074 
L 120.211948 107.846324 
L 123.52475 104.25179 
L 126.837551 101.03502 
L 130.150353 98.148336 
L 133.463154 95.551963 
L 136.775955 93.212553 
L 140.088757 91.102037 
L 143.401558 89.196716 
L 146.71436 87.476546 
L 150.027161 85.92468 
L 153.339963 84.52705 
L 156.652764 83.27187 
L 159.965566 82.149272 
L 163.278367 81.150996 
L 166.591169 80.270189 
L 169.90397 79.501224 
L 173.216772 78.839386 
L 176.529573 78.280684 
L 179.842375 77.821836 
L 183.155176 77.460264 
L 186.467978 77.193928 
L 189.780779 77.021443 
L 193.093581 76.942087 
L 196.406382 76.955778 
L 199.719184 77.063077 
L 203.031985 77.265105 
L 206.344787 77.563418 
L 209.657588 77.959854 
L 212.97039 78.456235 
L 216.283191 79.053867 
L 219.595993 79.752695 
L 222.908794 80.549945 
L 226.221596 81.438176 
L 229.534397 82.40274 
L 232.847199 83.419253 
L 236.16 84.452491 
L 239.472801 85.458777 
L 242.785603 86.392594 
L 246.098404 87.215099 
L 249.411206 87.900327 
L 252.724007 88.436671 
L 256.036809 88.824484 
L 259.34961 89.072186 
L 262.662412 89.192663 
L 265.975213 89.200666 
L 269.288015 89.111162 
L 272.600816 88.938399 
L 275.913618 88.695438 
L 279.226419 88.393979 
L 282.539221 88.044337 
L 285.852022 87.655521 
L 289.164824 87.235353 
L 292.477625 86.790593 
L 295.790427 86.327083 
L 299.103228 85.84987 
L 302.41603 85.363318 
L 305.728831 84.871218 
L 309.041633 84.376875 
L 312.354434 83.883193 
L 315.667236 83.392735 
L 318.980037 82.907781 
L 322.292839 82.430381 
L 325.60564 81.962401 
L 328.918442 81.50557 
L 332.231243 81.061513 
L 335.544045 80.631778 
L 338.856846 80.217866 
L 342.169647 79.821252 
L 345.482449 79.443406 
L 348.79525 79.085805 
L 352.108052 78.749954 
L 355.420853 78.43739 
L 358.733655 78.149679 
L 362.046456 77.888425 
L 365.359258 77.655274 
L 368.672059 77.451934 
L 371.984861 77.280159 
L 375.297662 77.141718 
L 378.610464 77.03842 
L 381.923265 76.972119 
L 385.236067 76.944708 
L 388.548868 76.958153 
L 391.86167 77.014566 
L 395.174471 77.116293 
L 398.487273 77.265964 
L 398.487273 55.870211 
L 398.487273 55.870211 
L 395.174471 56.107234 
L 391.86167 56.362907 
L 388.548868 56.636958 
L 385.236067 56.929082 
L 381.923265 57.238935 
L 378.610464 57.566151 
L 375.297662 57.910355 
L 371.984861 58.271168 
L 368.672059 58.648207 
L 365.359258 59.041081 
L 362.046456 59.449388 
L 358.733655 59.872711 
L 355.420853 60.310617 
L 352.108052 60.762655 
L 348.79525 61.228352 
L 345.482449 61.707217 
L 342.169647 62.19873 
L 338.856846 62.70234 
L 335.544045 63.217455 
L 332.231243 63.743427 
L 328.918442 64.279545 
L 325.60564 64.825015 
L 322.292839 65.378948 
L 318.980037 65.940333 
L 315.667236 66.508018 
L 312.354434 67.080677 
L 309.041633 67.656775 
L 305.728831 68.234527 
L 302.41603 68.811848 
L 299.103228 69.386303 
L 295.790427 69.955035 
L 292.477625 70.514697 
L 289.164824 71.061367 
L 285.852022 71.590463 
L 282.539221 72.096653 
L 279.226419 72.57377 
L 275.913618 73.014743 
L 272.600816 73.411556 
L 269.288015 73.75528 
L 265.975213 74.036201 
L 262.662412 74.244121 
L 259.34961 74.368885 
L 256.036809 74.401232 
L 252.724007 74.334024 
L 249.411206 74.163868 
L 246.098404 73.892931 
L 242.785603 73.530469 
L 239.472801 73.093235 
L 236.16 72.604068 
L 232.847199 72.088788 
L 229.534397 71.572597 
L 226.221596 71.077409 
L 222.908794 70.620622 
L 219.595993 70.215066 
L 216.283191 69.869604 
L 212.97039 69.590018 
L 209.657588 69.379865 
L 206.344787 69.241229 
L 203.031985 69.17534 
L 199.719184 69.182995 
L 196.406382 69.264858 
L 193.093581 69.421712 
L 189.780779 69.654638 
L 186.467978 69.965112 
L 183.155176 70.355005 
L 179.842375 70.826645 
L 176.529573 71.382832 
L 173.216772 72.026883 
L 169.90397 72.762693 
L 166.591169 73.594761 
L 163.278367 74.528256 
L 159.965566 75.569201 
L 156.652764 76.724651 
L 153.339963 78.002898 
L 150.027161 79.413726 
L 146.71436 80.968712 
L 143.401558 82.681573 
L 140.088757 84.568511 
L 136.775955 86.648592 
L 133.463154 88.944344 
L 130.150353 91.482485 
L 126.837551 94.294809 
L 123.52475 97.419371 
L 120.211948 100.901941 
L 116.899147 104.797807 
L 113.586345 109.174036 
L 110.273544 114.112393 
L 106.960742 119.713265 
L 103.647941 126.100605 
L 100.335139 133.428345 
L 97.022338 141.888808 
L 93.709536 151.723839 
L 90.396735 163.240397 
L 87.083933 176.840482 
L 83.771132 193.08781 
L 80.45833 212.865768 
L 77.145529 237.788961 
L 73.832727 271.484049 
z
" style="fill:#0000ff;fill-opacity:0.4;"/>
   </g>
   <g id="PolyCollection_3">
    <path clip-path="url(#pd024556d49)" d="M 73.832727 280.910531 
L 73.832727 295.488 
L 77.145529 261.226447 
L 80.45833 235.723958 
L 83.771132 215.368874 
L 87.083933 198.569436 
L 90.396735 184.46311 
L 93.709536 172.502275 
L 97.022338 162.294961 
L 100.335139 153.536459 
L 103.647941 145.982645 
L 106.960742 139.435972 
L 110.273544 133.734378 
L 113.586345 128.744918 
L 116.899147 124.358614 
L 120.211948 120.485903 
L 123.52475 117.052745 
L 126.837551 113.997659 
L 130.150353 111.269422 
L 133.463154 108.824734 
L 136.775955 106.626936 
L 140.088757 104.644958 
L 143.401558 102.852453 
L 146.71436 101.227082 
L 150.027161 99.750096 
L 153.339963 98.405529 
L 156.652764 97.1797 
L 159.965566 96.061316 
L 163.278367 95.041529 
L 166.591169 94.113669 
L 169.90397 93.272767 
L 173.216772 92.515185 
L 176.529573 91.838372 
L 179.842375 91.240652 
L 183.155176 90.721081 
L 186.467978 90.279414 
L 189.780779 89.916086 
L 193.093581 89.63218 
L 196.406382 89.429374 
L 199.719184 89.309877 
L 203.031985 89.276324 
L 206.344787 89.331595 
L 209.657588 89.478434 
L 212.97039 89.718726 
L 216.283191 90.052481 
L 219.595993 90.476459 
L 222.908794 90.982608 
L 226.221596 91.556879 
L 229.534397 92.17925 
L 232.847199 92.825734 
L 236.16 93.472099 
L 239.472801 94.097569 
L 242.785603 94.686479 
L 246.098404 95.227398 
L 249.411206 95.710922 
L 252.724007 96.128043 
L 256.036809 96.470234 
L 259.34961 96.730775 
L 262.662412 96.906148 
L 265.975213 96.996558 
L 269.288015 97.00555 
L 272.600816 96.9391 
L 275.913618 96.80462 
L 279.226419 96.610122 
L 282.539221 96.363616 
L 285.852022 96.072735 
L 289.164824 95.744539 
L 292.477625 95.385435 
L 295.790427 95.001171 
L 299.103228 94.596867 
L 302.41603 94.177066 
L 305.728831 93.745796 
L 309.041633 93.30662 
L 312.354434 92.862707 
L 315.667236 92.416891 
L 318.980037 91.971728 
L 322.292839 91.529549 
L 325.60564 91.0925 
L 328.918442 90.662583 
L 332.231243 90.241686 
L 335.544045 89.831603 
L 338.856846 89.434042 
L 342.169647 89.050634 
L 345.482449 88.682948 
L 348.79525 88.33252 
L 352.108052 88.000866 
L 355.420853 87.689485 
L 358.733655 87.399849 
L 362.046456 87.133389 
L 365.359258 86.891467 
L 368.672059 86.67534 
L 371.984861 86.48615 
L 375.297662 86.324966 
L 378.610464 86.192815 
L 381.923265 86.090763 
L 385.236067 86.019954 
L 388.548868 85.98164 
L 391.86167 85.977195 
L 395.174471 86.008126 
L 398.487273 86.076083 
L 398.487273 64.636838 
L 398.487273 64.636838 
L 395.174471 64.912761 
L 391.86167 65.213588 
L 388.548868 65.538527 
L 385.236067 65.886849 
L 381.923265 66.257876 
L 378.610464 66.650965 
L 375.297662 67.065493 
L 371.984861 67.50086 
L 368.672059 67.956474 
L 365.359258 68.43175 
L 362.046456 68.926104 
L 358.733655 69.43896 
L 355.420853 69.969751 
L 352.108052 70.517912 
L 348.79525 71.082884 
L 345.482449 71.6641 
L 342.169647 72.260981 
L 338.856846 72.872929 
L 335.544045 73.499317 
L 332.231243 74.139476 
L 328.918442 74.792682 
L 325.60564 75.458137 
L 322.292839 76.134954 
L 318.980037 76.822128 
L 315.667236 77.518505 
L 312.354434 78.222749 
L 309.041633 78.9333 
L 305.728831 79.648324 
L 302.41603 80.365658 
L 299.103228 81.082739 
L 295.790427 81.796515 
L 292.477625 82.503354 
L 289.164824 83.19891 
L 285.852022 83.877992 
L 282.539221 84.534386 
L 279.226419 85.160664 
L 275.913618 85.747971 
L 272.600816 86.285799 
L 269.288015 86.761809 
L 265.975213 87.161769 
L 262.662412 87.46977 
L 259.34961 87.668988 
L 256.036809 87.743339 
L 252.724007 87.680243 
L 249.411206 87.474167 
L 246.098404 87.129641 
L 242.785603 86.661948 
L 239.472801 86.094792 
L 236.16 85.456215 
L 232.847199 84.774861 
L 229.534397 84.077626 
L 226.221596 83.38841 
L 222.908794 82.727428 
L 219.595993 82.11088 
L 216.283191 81.551107 
L 212.97039 81.057094 
L 209.657588 80.635118 
L 206.344787 80.289392 
L 203.031985 80.02266 
L 199.719184 79.83675 
L 196.406382 79.733057 
L 193.093581 79.712781 
L 189.780779 79.777064 
L 186.467978 79.927163 
L 183.155176 80.164631 
L 179.842375 80.491408 
L 176.529573 80.909863 
L 173.216772 81.422886 
L 169.90397 82.033949 
L 166.591169 82.747126 
L 163.278367 83.567202 
L 159.965566 84.49986 
L 156.652764 85.551919 
L 153.339963 86.731578 
L 150.027161 88.048652 
L 146.71436 89.514893 
L 143.401558 91.144275 
L 140.088757 92.953274 
L 136.775955 94.96127 
L 133.463154 97.191163 
L 130.150353 99.670154 
L 126.837551 102.430641 
L 123.52475 105.511407 
L 120.211948 108.959198 
L 116.899147 112.830762 
L 113.586345 117.195106 
L 110.273544 122.13631 
L 106.960742 127.757529 
L 103.647941 134.185668 
L 100.335139 141.577371 
L 97.022338 150.12721 
L 93.709536 160.078356 
L 90.396735 171.737757 
L 87.083933 185.505421 
L 83.771132 201.939936 
L 80.45833 221.914841 
L 77.145529 247.03322 
L 73.832727 280.910531 
z
" style="fill:#00ffff;fill-opacity:0.4;"/>
   </g>
   <g id="matplotlib.axis_1">
    <g id="xtick_1">
     <g id="line2d_1">
      <path clip-path="url(#pd024556d49)" d="M 70.519926 307.584 
L 70.519926 41.472 
" style="fill:none;stroke:#b0b0b0;stroke-linecap:square;stroke-width:0.8;"/>
     </g>
     <g id="line2d_2">
      <defs>
       <path d="M 0 0 
L 0 3.5 
" id="m6552adaa78" style="stroke:#000000;stroke-width:0.8;"/>
      </defs>
      <g>
       <use style="stroke:#000000;stroke-width:0.8;" x="70.519926" xlink:href="#m6552adaa78" y="307.584"/>
      </g>
     </g>
     <g id="text_1">
      <!-- 0.0 -->
      <defs>
       <path d="M 31.78125 66.40625 
Q 24.171875 66.40625 20.328125 58.90625 
Q 16.5 51.421875 16.5 36.375 
Q 16.5 21.390625 20.328125 13.890625 
Q 24.171875 6.390625 31.78125 6.390625 
Q 39.453125 6.390625 43.28125 13.890625 
Q 47.125 21.390625 47.125 36.375 
Q 47.125 51.421875 43.28125 58.90625 
Q 39.453125 66.40625 31.78125 66.40625 
z
M 31.78125 74.21875 
Q 44.046875 74.21875 50.515625 64.515625 
Q 56.984375 54.828125 56.984375 36.375 
Q 56.984375 17.96875 50.515625 8.265625 
Q 44.046875 -1.421875 31.78125 -1.421875 
Q 19.53125 -1.421875 13.0625 8.265625 
Q 6.59375 17.96875 6.59375 36.375 
Q 6.59375 54.828125 13.0625 64.515625 
Q 19.53125 74.21875 31.78125 74.21875 
z
" id="DejaVuSans-48"/>
       <path d="M 10.6875 12.40625 
L 21 12.40625 
L 21 0 
L 10.6875 0 
z
" id="DejaVuSans-46"/>
      </defs>
      <g transform="translate(62.568363 322.182437)scale(0.1 -0.1)">
       <use xlink:href="#DejaVuSans-48"/>
       <use x="63.623047" xlink:href="#DejaVuSans-46"/>
       <use x="95.410156" xlink:href="#DejaVuSans-48"/>
      </g>
     </g>
    </g>
    <g id="xtick_2">
     <g id="line2d_3">
      <path clip-path="url(#pd024556d49)" d="M 136.775955 307.584 
L 136.775955 41.472 
" style="fill:none;stroke:#b0b0b0;stroke-linecap:square;stroke-width:0.8;"/>
     </g>
     <g id="line2d_4">
      <g>
       <use style="stroke:#000000;stroke-width:0.8;" x="136.775955" xlink:href="#m6552adaa78" y="307.584"/>
      </g>
     </g>
     <g id="text_2">
      <!-- 0.2 -->
      <defs>
       <path d="M 19.1875 8.296875 
L 53.609375 8.296875 
L 53.609375 0 
L 7.328125 0 
L 7.328125 8.296875 
Q 12.9375 14.109375 22.625 23.890625 
Q 32.328125 33.6875 34.8125 36.53125 
Q 39.546875 41.84375 41.421875 45.53125 
Q 43.3125 49.21875 43.3125 52.78125 
Q 43.3125 58.59375 39.234375 62.25 
Q 35.15625 65.921875 28.609375 65.921875 
Q 23.96875 65.921875 18.8125 64.3125 
Q 13.671875 62.703125 7.8125 59.421875 
L 7.8125 69.390625 
Q 13.765625 71.78125 18.9375 73 
Q 24.125 74.21875 28.421875 74.21875 
Q 39.75 74.21875 46.484375 68.546875 
Q 53.21875 62.890625 53.21875 53.421875 
Q 53.21875 48.921875 51.53125 44.890625 
Q 49.859375 40.875 45.40625 35.40625 
Q 44.1875 33.984375 37.640625 27.21875 
Q 31.109375 20.453125 19.1875 8.296875 
z
" id="DejaVuSans-50"/>
      </defs>
      <g transform="translate(128.824393 322.182437)scale(0.1 -0.1)">
       <use xlink:href="#DejaVuSans-48"/>
       <use x="63.623047" xlink:href="#DejaVuSans-46"/>
       <use x="95.410156" xlink:href="#DejaVuSans-50"/>
      </g>
     </g>
    </g>
    <g id="xtick_3">
     <g id="line2d_5">
      <path clip-path="url(#pd024556d49)" d="M 203.031985 307.584 
L 203.031985 41.472 
" style="fill:none;stroke:#b0b0b0;stroke-linecap:square;stroke-width:0.8;"/>
     </g>
     <g id="line2d_6">
      <g>
       <use style="stroke:#000000;stroke-width:0.8;" x="203.031985" xlink:href="#m6552adaa78" y="307.584"/>
      </g>
     </g>
     <g id="text_3">
      <!-- 0.4 -->
      <defs>
       <path d="M 37.796875 64.3125 
L 12.890625 25.390625 
L 37.796875 25.390625 
z
M 35.203125 72.90625 
L 47.609375 72.90625 
L 47.609375 25.390625 
L 58.015625 25.390625 
L 58.015625 17.1875 
L 47.609375 17.1875 
L 47.609375 0 
L 37.796875 0 
L 37.796875 17.1875 
L 4.890625 17.1875 
L 4.890625 26.703125 
z
" id="DejaVuSans-52"/>
      </defs>
      <g transform="translate(195.080423 322.182437)scale(0.1 -0.1)">
       <use xlink:href="#DejaVuSans-48"/>
       <use x="63.623047" xlink:href="#DejaVuSans-46"/>
       <use x="95.410156" xlink:href="#DejaVuSans-52"/>
      </g>
     </g>
    </g>
    <g id="xtick_4">
     <g id="line2d_7">
      <path clip-path="url(#pd024556d49)" d="M 269.288015 307.584 
L 269.288015 41.472 
" style="fill:none;stroke:#b0b0b0;stroke-linecap:square;stroke-width:0.8;"/>
     </g>
     <g id="line2d_8">
      <g>
       <use style="stroke:#000000;stroke-width:0.8;" x="269.288015" xlink:href="#m6552adaa78" y="307.584"/>
      </g>
     </g>
     <g id="text_4">
      <!-- 0.6 -->
      <defs>
       <path d="M 33.015625 40.375 
Q 26.375 40.375 22.484375 35.828125 
Q 18.609375 31.296875 18.609375 23.390625 
Q 18.609375 15.53125 22.484375 10.953125 
Q 26.375 6.390625 33.015625 6.390625 
Q 39.65625 6.390625 43.53125 10.953125 
Q 47.40625 15.53125 47.40625 23.390625 
Q 47.40625 31.296875 43.53125 35.828125 
Q 39.65625 40.375 33.015625 40.375 
z
M 52.59375 71.296875 
L 52.59375 62.3125 
Q 48.875 64.0625 45.09375 64.984375 
Q 41.3125 65.921875 37.59375 65.921875 
Q 27.828125 65.921875 22.671875 59.328125 
Q 17.53125 52.734375 16.796875 39.40625 
Q 19.671875 43.65625 24.015625 45.921875 
Q 28.375 48.1875 33.59375 48.1875 
Q 44.578125 48.1875 50.953125 41.515625 
Q 57.328125 34.859375 57.328125 23.390625 
Q 57.328125 12.15625 50.6875 5.359375 
Q 44.046875 -1.421875 33.015625 -1.421875 
Q 20.359375 -1.421875 13.671875 8.265625 
Q 6.984375 17.96875 6.984375 36.375 
Q 6.984375 53.65625 15.1875 63.9375 
Q 23.390625 74.21875 37.203125 74.21875 
Q 40.921875 74.21875 44.703125 73.484375 
Q 48.484375 72.75 52.59375 71.296875 
z
" id="DejaVuSans-54"/>
      </defs>
      <g transform="translate(261.336452 322.182437)scale(0.1 -0.1)">
       <use xlink:href="#DejaVuSans-48"/>
       <use x="63.623047" xlink:href="#DejaVuSans-46"/>
       <use x="95.410156" xlink:href="#DejaVuSans-54"/>
      </g>
     </g>
    </g>
    <g id="xtick_5">
     <g id="line2d_9">
      <path clip-path="url(#pd024556d49)" d="M 335.544045 307.584 
L 335.544045 41.472 
" style="fill:none;stroke:#b0b0b0;stroke-linecap:square;stroke-width:0.8;"/>
     </g>
     <g id="line2d_10">
      <g>
       <use style="stroke:#000000;stroke-width:0.8;" x="335.544045" xlink:href="#m6552adaa78" y="307.584"/>
      </g>
     </g>
     <g id="text_5">
      <!-- 0.8 -->
      <defs>
       <path d="M 31.78125 34.625 
Q 24.75 34.625 20.71875 30.859375 
Q 16.703125 27.09375 16.703125 20.515625 
Q 16.703125 13.921875 20.71875 10.15625 
Q 24.75 6.390625 31.78125 6.390625 
Q 38.8125 6.390625 42.859375 10.171875 
Q 46.921875 13.96875 46.921875 20.515625 
Q 46.921875 27.09375 42.890625 30.859375 
Q 38.875 34.625 31.78125 34.625 
z
M 21.921875 38.8125 
Q 15.578125 40.375 12.03125 44.71875 
Q 8.5 49.078125 8.5 55.328125 
Q 8.5 64.0625 14.71875 69.140625 
Q 20.953125 74.21875 31.78125 74.21875 
Q 42.671875 74.21875 48.875 69.140625 
Q 55.078125 64.0625 55.078125 55.328125 
Q 55.078125 49.078125 51.53125 44.71875 
Q 48 40.375 41.703125 38.8125 
Q 48.828125 37.15625 52.796875 32.3125 
Q 56.78125 27.484375 56.78125 20.515625 
Q 56.78125 9.90625 50.3125 4.234375 
Q 43.84375 -1.421875 31.78125 -1.421875 
Q 19.734375 -1.421875 13.25 4.234375 
Q 6.78125 9.90625 6.78125 20.515625 
Q 6.78125 27.484375 10.78125 32.3125 
Q 14.796875 37.15625 21.921875 38.8125 
z
M 18.3125 54.390625 
Q 18.3125 48.734375 21.84375 45.5625 
Q 25.390625 42.390625 31.78125 42.390625 
Q 38.140625 42.390625 41.71875 45.5625 
Q 45.3125 48.734375 45.3125 54.390625 
Q 45.3125 60.0625 41.71875 63.234375 
Q 38.140625 66.40625 31.78125 66.40625 
Q 25.390625 66.40625 21.84375 63.234375 
Q 18.3125 60.0625 18.3125 54.390625 
z
" id="DejaVuSans-56"/>
      </defs>
      <g transform="translate(327.592482 322.182437)scale(0.1 -0.1)">
       <use xlink:href="#DejaVuSans-48"/>
       <use x="63.623047" xlink:href="#DejaVuSans-46"/>
       <use x="95.410156" xlink:href="#DejaVuSans-56"/>
      </g>
     </g>
    </g>
    <g id="xtick_6">
     <g id="line2d_11">
      <path clip-path="url(#pd024556d49)" d="M 401.800074 307.584 
L 401.800074 41.472 
" style="fill:none;stroke:#b0b0b0;stroke-linecap:square;stroke-width:0.8;"/>
     </g>
     <g id="line2d_12">
      <g>
       <use style="stroke:#000000;stroke-width:0.8;" x="401.800074" xlink:href="#m6552adaa78" y="307.584"/>
      </g>
     </g>
     <g id="text_6">
      <!-- 1.0 -->
      <defs>
       <path d="M 12.40625 8.296875 
L 28.515625 8.296875 
L 28.515625 63.921875 
L 10.984375 60.40625 
L 10.984375 69.390625 
L 28.421875 72.90625 
L 38.28125 72.90625 
L 38.28125 8.296875 
L 54.390625 8.296875 
L 54.390625 0 
L 12.40625 0 
z
" id="DejaVuSans-49"/>
      </defs>
      <g transform="translate(393.848512 322.182437)scale(0.1 -0.1)">
       <use xlink:href="#DejaVuSans-49"/>
       <use x="63.623047" xlink:href="#DejaVuSans-46"/>
       <use x="95.410156" xlink:href="#DejaVuSans-48"/>
      </g>
     </g>
    </g>
    <g id="text_7">
     <!-- $\mathrm{Time \ (seconds)}$ -->
     <defs>
      <path d="M -0.296875 72.90625 
L 61.375 72.90625 
L 61.375 64.59375 
L 35.5 64.59375 
L 35.5 0 
L 25.59375 0 
L 25.59375 64.59375 
L -0.296875 64.59375 
z
" id="DejaVuSans-84"/>
      <path d="M 9.421875 54.6875 
L 18.40625 54.6875 
L 18.40625 0 
L 9.421875 0 
z
M 9.421875 75.984375 
L 18.40625 75.984375 
L 18.40625 64.59375 
L 9.421875 64.59375 
z
" id="DejaVuSans-105"/>
      <path d="M 52 44.1875 
Q 55.375 50.25 60.0625 53.125 
Q 64.75 56 71.09375 56 
Q 79.640625 56 84.28125 50.015625 
Q 88.921875 44.046875 88.921875 33.015625 
L 88.921875 0 
L 79.890625 0 
L 79.890625 32.71875 
Q 79.890625 40.578125 77.09375 44.375 
Q 74.3125 48.1875 68.609375 48.1875 
Q 61.625 48.1875 57.5625 43.546875 
Q 53.515625 38.921875 53.515625 30.90625 
L 53.515625 0 
L 44.484375 0 
L 44.484375 32.71875 
Q 44.484375 40.625 41.703125 44.40625 
Q 38.921875 48.1875 33.109375 48.1875 
Q 26.21875 48.1875 22.15625 43.53125 
Q 18.109375 38.875 18.109375 30.90625 
L 18.109375 0 
L 9.078125 0 
L 9.078125 54.6875 
L 18.109375 54.6875 
L 18.109375 46.1875 
Q 21.1875 51.21875 25.484375 53.609375 
Q 29.78125 56 35.6875 56 
Q 41.65625 56 45.828125 52.96875 
Q 50 49.953125 52 44.1875 
z
" id="DejaVuSans-109"/>
      <path d="M 56.203125 29.59375 
L 56.203125 25.203125 
L 14.890625 25.203125 
Q 15.484375 15.921875 20.484375 11.0625 
Q 25.484375 6.203125 34.421875 6.203125 
Q 39.59375 6.203125 44.453125 7.46875 
Q 49.3125 8.734375 54.109375 11.28125 
L 54.109375 2.78125 
Q 49.265625 0.734375 44.1875 -0.34375 
Q 39.109375 -1.421875 33.890625 -1.421875 
Q 20.796875 -1.421875 13.15625 6.1875 
Q 5.515625 13.8125 5.515625 26.8125 
Q 5.515625 40.234375 12.765625 48.109375 
Q 20.015625 56 32.328125 56 
Q 43.359375 56 49.78125 48.890625 
Q 56.203125 41.796875 56.203125 29.59375 
z
M 47.21875 32.234375 
Q 47.125 39.59375 43.09375 43.984375 
Q 39.0625 48.390625 32.421875 48.390625 
Q 24.90625 48.390625 20.390625 44.140625 
Q 15.875 39.890625 15.1875 32.171875 
z
" id="DejaVuSans-101"/>
      <path d="M 31 75.875 
Q 24.46875 64.65625 21.28125 53.65625 
Q 18.109375 42.671875 18.109375 31.390625 
Q 18.109375 20.125 21.3125 9.0625 
Q 24.515625 -2 31 -13.1875 
L 23.1875 -13.1875 
Q 15.875 -1.703125 12.234375 9.375 
Q 8.59375 20.453125 8.59375 31.390625 
Q 8.59375 42.28125 12.203125 53.3125 
Q 15.828125 64.359375 23.1875 75.875 
z
" id="DejaVuSans-40"/>
      <path d="M 44.28125 53.078125 
L 44.28125 44.578125 
Q 40.484375 46.53125 36.375 47.5 
Q 32.28125 48.484375 27.875 48.484375 
Q 21.1875 48.484375 17.84375 46.4375 
Q 14.5 44.390625 14.5 40.28125 
Q 14.5 37.15625 16.890625 35.375 
Q 19.28125 33.59375 26.515625 31.984375 
L 29.59375 31.296875 
Q 39.15625 29.25 43.1875 25.515625 
Q 47.21875 21.78125 47.21875 15.09375 
Q 47.21875 7.46875 41.1875 3.015625 
Q 35.15625 -1.421875 24.609375 -1.421875 
Q 20.21875 -1.421875 15.453125 -0.5625 
Q 10.6875 0.296875 5.421875 2 
L 5.421875 11.28125 
Q 10.40625 8.6875 15.234375 7.390625 
Q 20.0625 6.109375 24.8125 6.109375 
Q 31.15625 6.109375 34.5625 8.28125 
Q 37.984375 10.453125 37.984375 14.40625 
Q 37.984375 18.0625 35.515625 20.015625 
Q 33.0625 21.96875 24.703125 23.78125 
L 21.578125 24.515625 
Q 13.234375 26.265625 9.515625 29.90625 
Q 5.8125 33.546875 5.8125 39.890625 
Q 5.8125 47.609375 11.28125 51.796875 
Q 16.75 56 26.8125 56 
Q 31.78125 56 36.171875 55.265625 
Q 40.578125 54.546875 44.28125 53.078125 
z
" id="DejaVuSans-115"/>
      <path d="M 48.78125 52.59375 
L 48.78125 44.1875 
Q 44.96875 46.296875 41.140625 47.34375 
Q 37.3125 48.390625 33.40625 48.390625 
Q 24.65625 48.390625 19.8125 42.84375 
Q 14.984375 37.3125 14.984375 27.296875 
Q 14.984375 17.28125 19.8125 11.734375 
Q 24.65625 6.203125 33.40625 6.203125 
Q 37.3125 6.203125 41.140625 7.25 
Q 44.96875 8.296875 48.78125 10.40625 
L 48.78125 2.09375 
Q 45.015625 0.34375 40.984375 -0.53125 
Q 36.96875 -1.421875 32.421875 -1.421875 
Q 20.0625 -1.421875 12.78125 6.34375 
Q 5.515625 14.109375 5.515625 27.296875 
Q 5.515625 40.671875 12.859375 48.328125 
Q 20.21875 56 33.015625 56 
Q 37.15625 56 41.109375 55.140625 
Q 45.0625 54.296875 48.78125 52.59375 
z
" id="DejaVuSans-99"/>
      <path d="M 30.609375 48.390625 
Q 23.390625 48.390625 19.1875 42.75 
Q 14.984375 37.109375 14.984375 27.296875 
Q 14.984375 17.484375 19.15625 11.84375 
Q 23.34375 6.203125 30.609375 6.203125 
Q 37.796875 6.203125 41.984375 11.859375 
Q 46.1875 17.53125 46.1875 27.296875 
Q 46.1875 37.015625 41.984375 42.703125 
Q 37.796875 48.390625 30.609375 48.390625 
z
M 30.609375 56 
Q 42.328125 56 49.015625 48.375 
Q 55.71875 40.765625 55.71875 27.296875 
Q 55.71875 13.875 49.015625 6.21875 
Q 42.328125 -1.421875 30.609375 -1.421875 
Q 18.84375 -1.421875 12.171875 6.21875 
Q 5.515625 13.875 5.515625 27.296875 
Q 5.515625 40.765625 12.171875 48.375 
Q 18.84375 56 30.609375 56 
z
" id="DejaVuSans-111"/>
      <path d="M 54.890625 33.015625 
L 54.890625 0 
L 45.90625 0 
L 45.90625 32.71875 
Q 45.90625 40.484375 42.875 44.328125 
Q 39.84375 48.1875 33.796875 48.1875 
Q 26.515625 48.1875 22.3125 43.546875 
Q 18.109375 38.921875 18.109375 30.90625 
L 18.109375 0 
L 9.078125 0 
L 9.078125 54.6875 
L 18.109375 54.6875 
L 18.109375 46.1875 
Q 21.34375 51.125 25.703125 53.5625 
Q 30.078125 56 35.796875 56 
Q 45.21875 56 50.046875 50.171875 
Q 54.890625 44.34375 54.890625 33.015625 
z
" id="DejaVuSans-110"/>
      <path d="M 45.40625 46.390625 
L 45.40625 75.984375 
L 54.390625 75.984375 
L 54.390625 0 
L 45.40625 0 
L 45.40625 8.203125 
Q 42.578125 3.328125 38.25 0.953125 
Q 33.9375 -1.421875 27.875 -1.421875 
Q 17.96875 -1.421875 11.734375 6.484375 
Q 5.515625 14.40625 5.515625 27.296875 
Q 5.515625 40.1875 11.734375 48.09375 
Q 17.96875 56 27.875 56 
Q 33.9375 56 38.25 53.625 
Q 42.578125 51.265625 45.40625 46.390625 
z
M 14.796875 27.296875 
Q 14.796875 17.390625 18.875 11.75 
Q 22.953125 6.109375 30.078125 6.109375 
Q 37.203125 6.109375 41.296875 11.75 
Q 45.40625 17.390625 45.40625 27.296875 
Q 45.40625 37.203125 41.296875 42.84375 
Q 37.203125 48.484375 30.078125 48.484375 
Q 22.953125 48.484375 18.875 42.84375 
Q 14.796875 37.203125 14.796875 27.296875 
z
" id="DejaVuSans-100"/>
      <path d="M 8.015625 75.875 
L 15.828125 75.875 
Q 23.140625 64.359375 26.78125 53.3125 
Q 30.421875 42.28125 30.421875 31.390625 
Q 30.421875 20.453125 26.78125 9.375 
Q 23.140625 -1.703125 15.828125 -13.1875 
L 8.015625 -13.1875 
Q 14.5 -2 17.703125 9.0625 
Q 20.90625 20.125 20.90625 31.390625 
Q 20.90625 42.671875 17.703125 53.65625 
Q 14.5 64.65625 8.015625 75.875 
z
" id="DejaVuSans-41"/>
     </defs>
     <g transform="translate(197.76 335.860562)scale(0.1 -0.1)">
      <use transform="translate(0 0.015625)" xlink:href="#DejaVuSans-84"/>
      <use transform="translate(61.083984 0.015625)" xlink:href="#DejaVuSans-105"/>
      <use transform="translate(88.867188 0.015625)" xlink:href="#DejaVuSans-109"/>
      <use transform="translate(186.279297 0.015625)" xlink:href="#DejaVuSans-101"/>
      <use transform="translate(280.273113 0.015625)" xlink:href="#DejaVuSans-40"/>
      <use transform="translate(319.286785 0.015625)" xlink:href="#DejaVuSans-115"/>
      <use transform="translate(371.386394 0.015625)" xlink:href="#DejaVuSans-101"/>
      <use transform="translate(432.909832 0.015625)" xlink:href="#DejaVuSans-99"/>
      <use transform="translate(487.8903 0.015625)" xlink:href="#DejaVuSans-111"/>
      <use transform="translate(549.071941 0.015625)" xlink:href="#DejaVuSans-110"/>
      <use transform="translate(612.450847 0.015625)" xlink:href="#DejaVuSans-100"/>
      <use transform="translate(675.92741 0.015625)" xlink:href="#DejaVuSans-115"/>
      <use transform="translate(728.027019 0.015625)" xlink:href="#DejaVuSans-41"/>
     </g>
    </g>
   </g>
   <g id="matplotlib.axis_2">
    <g id="ytick_1">
     <g id="line2d_13">
      <path clip-path="url(#pd024556d49)" d="M 57.6 202.046472 
L 414.72 202.046472 
" style="fill:none;stroke:#b0b0b0;stroke-linecap:square;stroke-width:0.8;"/>
     </g>
     <g id="line2d_14">
      <defs>
       <path d="M 0 0 
L -3.5 0 
" id="ma52285cd2e" style="stroke:#000000;stroke-width:0.8;"/>
      </defs>
      <g>
       <use style="stroke:#000000;stroke-width:0.8;" x="57.6" xlink:href="#ma52285cd2e" y="202.046472"/>
      </g>
     </g>
     <g id="text_8">
      <!-- $\mathdefault{10^{-1}}$ -->
      <defs>
       <path d="M 10.59375 35.5 
L 73.1875 35.5 
L 73.1875 27.203125 
L 10.59375 27.203125 
z
" id="DejaVuSans-8722"/>
      </defs>
      <g transform="translate(27.1 205.845691)scale(0.1 -0.1)">
       <use transform="translate(0 0.684375)" xlink:href="#DejaVuSans-49"/>
       <use transform="translate(63.623047 0.684375)" xlink:href="#DejaVuSans-48"/>
       <use transform="translate(128.203125 38.965625)scale(0.7)" xlink:href="#DejaVuSans-8722"/>
       <use transform="translate(186.855469 38.965625)scale(0.7)" xlink:href="#DejaVuSans-49"/>
      </g>
     </g>
    </g>
    <g id="ytick_2">
     <g id="line2d_15">
      <defs>
       <path d="M 0 0 
L -2 0 
" id="me2fa66a7e1" style="stroke:#000000;stroke-width:0.6;"/>
      </defs>
      <g>
       <use style="stroke:#000000;stroke-width:0.6;" x="57.6" xlink:href="#me2fa66a7e1" y="307.207638"/>
      </g>
     </g>
    </g>
    <g id="ytick_3">
     <g id="line2d_16">
      <g>
       <use style="stroke:#000000;stroke-width:0.6;" x="57.6" xlink:href="#me2fa66a7e1" y="282.080009"/>
      </g>
     </g>
    </g>
    <g id="ytick_4">
     <g id="line2d_17">
      <g>
       <use style="stroke:#000000;stroke-width:0.6;" x="57.6" xlink:href="#me2fa66a7e1" y="262.589506"/>
      </g>
     </g>
    </g>
    <g id="ytick_5">
     <g id="line2d_18">
      <g>
       <use style="stroke:#000000;stroke-width:0.6;" x="57.6" xlink:href="#me2fa66a7e1" y="246.664605"/>
      </g>
     </g>
    </g>
    <g id="ytick_6">
     <g id="line2d_19">
      <g>
       <use style="stroke:#000000;stroke-width:0.6;" x="57.6" xlink:href="#me2fa66a7e1" y="233.200293"/>
      </g>
     </g>
    </g>
    <g id="ytick_7">
     <g id="line2d_20">
      <g>
       <use style="stroke:#000000;stroke-width:0.6;" x="57.6" xlink:href="#me2fa66a7e1" y="221.536976"/>
      </g>
     </g>
    </g>
    <g id="ytick_8">
     <g id="line2d_21">
      <g>
       <use style="stroke:#000000;stroke-width:0.6;" x="57.6" xlink:href="#me2fa66a7e1" y="211.249201"/>
      </g>
     </g>
    </g>
    <g id="ytick_9">
     <g id="line2d_22">
      <g>
       <use style="stroke:#000000;stroke-width:0.6;" x="57.6" xlink:href="#me2fa66a7e1" y="141.503439"/>
      </g>
     </g>
    </g>
    <g id="ytick_10">
     <g id="line2d_23">
      <g>
       <use style="stroke:#000000;stroke-width:0.6;" x="57.6" xlink:href="#me2fa66a7e1" y="106.088035"/>
      </g>
     </g>
    </g>
    <g id="ytick_11">
     <g id="line2d_24">
      <g>
       <use style="stroke:#000000;stroke-width:0.6;" x="57.6" xlink:href="#me2fa66a7e1" y="80.960406"/>
      </g>
     </g>
    </g>
    <g id="ytick_12">
     <g id="line2d_25">
      <g>
       <use style="stroke:#000000;stroke-width:0.6;" x="57.6" xlink:href="#me2fa66a7e1" y="61.469903"/>
      </g>
     </g>
    </g>
    <g id="ytick_13">
     <g id="line2d_26">
      <g>
       <use style="stroke:#000000;stroke-width:0.6;" x="57.6" xlink:href="#me2fa66a7e1" y="45.545002"/>
      </g>
     </g>
    </g>
    <g id="text_9">
     <!-- $\mathrm{Relative \ error}$ ($N_{\mathrm{train}}=100$) -->
     <defs>
      <path d="M 44.390625 34.1875 
Q 47.5625 33.109375 50.5625 29.59375 
Q 53.5625 26.078125 56.59375 19.921875 
L 66.609375 0 
L 56 0 
L 46.6875 18.703125 
Q 43.0625 26.03125 39.671875 28.421875 
Q 36.28125 30.8125 30.421875 30.8125 
L 19.671875 30.8125 
L 19.671875 0 
L 9.8125 0 
L 9.8125 72.90625 
L 32.078125 72.90625 
Q 44.578125 72.90625 50.734375 67.671875 
Q 56.890625 62.453125 56.890625 51.90625 
Q 56.890625 45.015625 53.6875 40.46875 
Q 50.484375 35.9375 44.390625 34.1875 
z
M 19.671875 64.796875 
L 19.671875 38.921875 
L 32.078125 38.921875 
Q 39.203125 38.921875 42.84375 42.21875 
Q 46.484375 45.515625 46.484375 51.90625 
Q 46.484375 58.296875 42.84375 61.546875 
Q 39.203125 64.796875 32.078125 64.796875 
z
" id="DejaVuSans-82"/>
      <path d="M 9.421875 75.984375 
L 18.40625 75.984375 
L 18.40625 0 
L 9.421875 0 
z
" id="DejaVuSans-108"/>
      <path d="M 34.28125 27.484375 
Q 23.390625 27.484375 19.1875 25 
Q 14.984375 22.515625 14.984375 16.5 
Q 14.984375 11.71875 18.140625 8.90625 
Q 21.296875 6.109375 26.703125 6.109375 
Q 34.1875 6.109375 38.703125 11.40625 
Q 43.21875 16.703125 43.21875 25.484375 
L 43.21875 27.484375 
z
M 52.203125 31.203125 
L 52.203125 0 
L 43.21875 0 
L 43.21875 8.296875 
Q 40.140625 3.328125 35.546875 0.953125 
Q 30.953125 -1.421875 24.3125 -1.421875 
Q 15.921875 -1.421875 10.953125 3.296875 
Q 6 8.015625 6 15.921875 
Q 6 25.140625 12.171875 29.828125 
Q 18.359375 34.515625 30.609375 34.515625 
L 43.21875 34.515625 
L 43.21875 35.40625 
Q 43.21875 41.609375 39.140625 45 
Q 35.0625 48.390625 27.6875 48.390625 
Q 23 48.390625 18.546875 47.265625 
Q 14.109375 46.140625 10.015625 43.890625 
L 10.015625 52.203125 
Q 14.9375 54.109375 19.578125 55.046875 
Q 24.21875 56 28.609375 56 
Q 40.484375 56 46.34375 49.84375 
Q 52.203125 43.703125 52.203125 31.203125 
z
" id="DejaVuSans-97"/>
      <path d="M 18.3125 70.21875 
L 18.3125 54.6875 
L 36.8125 54.6875 
L 36.8125 47.703125 
L 18.3125 47.703125 
L 18.3125 18.015625 
Q 18.3125 11.328125 20.140625 9.421875 
Q 21.96875 7.515625 27.59375 7.515625 
L 36.8125 7.515625 
L 36.8125 0 
L 27.59375 0 
Q 17.1875 0 13.234375 3.875 
Q 9.28125 7.765625 9.28125 18.015625 
L 9.28125 47.703125 
L 2.6875 47.703125 
L 2.6875 54.6875 
L 9.28125 54.6875 
L 9.28125 70.21875 
z
" id="DejaVuSans-116"/>
      <path d="M 2.984375 54.6875 
L 12.5 54.6875 
L 29.59375 8.796875 
L 46.6875 54.6875 
L 56.203125 54.6875 
L 35.6875 0 
L 23.484375 0 
z
" id="DejaVuSans-118"/>
      <path d="M 41.109375 46.296875 
Q 39.59375 47.171875 37.8125 47.578125 
Q 36.03125 48 33.890625 48 
Q 26.265625 48 22.1875 43.046875 
Q 18.109375 38.09375 18.109375 28.8125 
L 18.109375 0 
L 9.078125 0 
L 9.078125 54.6875 
L 18.109375 54.6875 
L 18.109375 46.1875 
Q 20.953125 51.171875 25.484375 53.578125 
Q 30.03125 56 36.53125 56 
Q 37.453125 56 38.578125 55.875 
Q 39.703125 55.765625 41.0625 55.515625 
z
" id="DejaVuSans-114"/>
      <path id="DejaVuSans-32"/>
      <path d="M 16.890625 72.90625 
L 30.171875 72.90625 
L 50.296875 10.40625 
L 62.5 72.90625 
L 72.125 72.90625 
L 57.90625 0 
L 44.578125 0 
L 24.515625 62.890625 
L 12.3125 0 
L 2.6875 0 
z
" id="DejaVuSans-Oblique-78"/>
      <path d="M 10.59375 45.40625 
L 73.1875 45.40625 
L 73.1875 37.203125 
L 10.59375 37.203125 
z
M 10.59375 25.484375 
L 73.1875 25.484375 
L 73.1875 17.1875 
L 10.59375 17.1875 
z
" id="DejaVuSans-61"/>
     </defs>
     <g transform="translate(21.020312 242.078)rotate(-90)scale(0.1 -0.1)">
      <use transform="translate(0 0.015625)" xlink:href="#DejaVuSans-82"/>
      <use transform="translate(69.482422 0.015625)" xlink:href="#DejaVuSans-101"/>
      <use transform="translate(131.005859 0.015625)" xlink:href="#DejaVuSans-108"/>
      <use transform="translate(158.789062 0.015625)" xlink:href="#DejaVuSans-97"/>
      <use transform="translate(220.068359 0.015625)" xlink:href="#DejaVuSans-116"/>
      <use transform="translate(259.277344 0.015625)" xlink:href="#DejaVuSans-105"/>
      <use transform="translate(287.060547 0.015625)" xlink:href="#DejaVuSans-118"/>
      <use transform="translate(346.240234 0.015625)" xlink:href="#DejaVuSans-101"/>
      <use transform="translate(440.23405 0.015625)" xlink:href="#DejaVuSans-101"/>
      <use transform="translate(501.757488 0.015625)" xlink:href="#DejaVuSans-114"/>
      <use transform="translate(542.870769 0.015625)" xlink:href="#DejaVuSans-114"/>
      <use transform="translate(583.98405 0.015625)" xlink:href="#DejaVuSans-111"/>
      <use transform="translate(645.165691 0.015625)" xlink:href="#DejaVuSans-114"/>
      <use transform="translate(686.278972 0.015625)" xlink:href="#DejaVuSans-32"/>
      <use transform="translate(718.066082 0.015625)" xlink:href="#DejaVuSans-40"/>
      <use transform="translate(757.079753 0.015625)" xlink:href="#DejaVuSans-Oblique-78"/>
      <use transform="translate(831.884441 -16.390625)scale(0.7)" xlink:href="#DejaVuSans-116"/>
      <use transform="translate(859.33073 -16.390625)scale(0.7)" xlink:href="#DejaVuSans-114"/>
      <use transform="translate(888.110027 -16.390625)scale(0.7)" xlink:href="#DejaVuSans-97"/>
      <use transform="translate(931.005535 -16.390625)scale(0.7)" xlink:href="#DejaVuSans-105"/>
      <use transform="translate(950.453777 -16.390625)scale(0.7)" xlink:href="#DejaVuSans-110"/>
      <use transform="translate(1017.035808 0.015625)" xlink:href="#DejaVuSans-61"/>
      <use transform="translate(1120.307292 0.015625)" xlink:href="#DejaVuSans-49"/>
      <use transform="translate(1183.930339 0.015625)" xlink:href="#DejaVuSans-48"/>
      <use transform="translate(1247.553386 0.015625)" xlink:href="#DejaVuSans-48"/>
      <use transform="translate(1311.176433 0.015625)" xlink:href="#DejaVuSans-41"/>
     </g>
    </g>
   </g>
   <g id="line2d_27">
    <path clip-path="url(#pd024556d49)" d="M 73.832724 275.116786 
L 77.145522 241.318937 
L 80.458321 216.273764 
L 83.771119 196.352215 
L 87.083917 179.941467 
L 90.396716 166.165099 
L 93.709554 154.468803 
L 97.022352 144.45798 
L 100.33515 135.83089 
L 103.647949 128.349415 
L 106.960747 121.822805 
L 110.273545 116.097041 
L 113.586344 111.047312 
L 116.899142 106.572078 
L 120.21194 102.588289 
L 123.524738 99.027643 
L 126.837537 95.833623 
L 130.150375 92.959416 
L 133.463173 90.366031 
L 136.775971 88.020736 
L 140.08877 85.896161 
L 143.401568 83.969174 
L 146.714366 82.220171 
L 150.027165 80.632648 
L 153.339963 79.192664 
L 156.652761 77.888431 
L 159.96556 76.70992 
L 163.278358 75.6487 
L 166.591156 74.697605 
L 169.903955 73.850456 
L 173.216753 73.101947 
L 176.529551 72.447472 
L 179.842389 71.883041 
L 183.155187 71.405262 
L 186.467986 71.011297 
L 189.780784 70.698807 
L 193.093582 70.466054 
L 196.406381 70.311822 
L 199.719179 70.235364 
L 203.031977 70.236371 
L 206.344776 70.314743 
L 209.657574 70.470515 
L 212.970412 70.703627 
L 216.28321 71.013556 
L 219.596008 71.398956 
L 222.908807 71.856862 
L 229.534403 72.965023 
L 246.098395 76.087213 
L 249.411193 76.571466 
L 252.723992 76.957036 
L 256.03679 77.235873 
L 259.349588 77.407389 
L 262.662387 77.476723 
L 265.975185 77.45227 
L 269.288023 77.34426 
L 272.600821 77.163346 
L 279.226418 76.623709 
L 285.852014 75.90723 
L 292.477651 75.07296 
L 302.416045 73.696299 
L 328.918432 69.917999 
L 338.856827 68.611657 
L 348.795222 67.418259 
L 358.733656 66.363875 
L 365.359253 65.7502 
L 371.984889 65.216034 
L 378.610486 64.768027 
L 385.236083 64.412785 
L 391.861679 64.157064 
L 398.487276 64.008565 
" style="fill:none;stroke:#ff0000;stroke-linecap:square;stroke-width:1.5;"/>
   </g>
   <g id="line2d_28">
    <path clip-path="url(#pd024556d49)" d="M 73.832724 276.438308 
L 77.145522 242.677457 
L 80.458321 217.66839 
L 83.771119 197.781576 
L 87.083917 181.404151 
L 90.396716 167.659142 
L 93.709554 155.991885 
L 97.022352 146.008345 
L 100.33515 137.4071 
L 103.647949 129.950078 
L 106.960747 123.446918 
L 110.273545 117.744098 
L 113.586344 112.717291 
L 116.899142 108.265259 
L 120.21194 104.305137 
L 123.524738 100.768806 
L 126.837537 97.599909 
L 130.150375 94.751836 
L 133.463173 92.185684 
L 136.775971 89.868921 
L 140.08877 87.774202 
L 143.401568 85.878397 
L 146.714366 84.16203 
L 150.027165 82.608546 
L 153.339963 81.204075 
L 156.652761 79.93693 
L 159.96556 78.797285 
L 163.278358 77.776876 
L 166.591156 76.868712 
L 169.903955 76.066979 
L 173.216753 75.366728 
L 176.529551 74.76368 
L 179.842389 74.254225 
L 183.155187 73.8354 
L 186.467986 73.50476 
L 189.780784 73.260403 
L 193.093582 73.10099 
L 196.406381 73.025706 
L 199.719179 73.034192 
L 203.031977 73.126592 
L 206.344776 73.303244 
L 209.657574 73.564552 
L 212.970412 73.910683 
L 216.28321 74.34109 
L 219.596008 74.853754 
L 222.908807 75.444265 
L 229.534403 76.819922 
L 239.472798 79.057371 
L 242.785597 79.724985 
L 246.098395 80.300277 
L 249.411193 80.762352 
L 252.723992 81.101026 
L 256.03679 81.315484 
L 259.349588 81.411505 
L 262.662387 81.398992 
L 265.975185 81.289763 
L 269.288023 81.096183 
L 272.600821 80.830419 
L 279.226418 80.126194 
L 285.852014 79.254163 
L 295.790449 77.758028 
L 332.23123 71.973955 
L 342.169625 70.566319 
L 352.10806 69.294093 
L 358.733656 68.534002 
L 365.359253 67.853272 
L 371.984889 67.259571 
L 378.610486 66.760765 
L 385.236083 66.364811 
L 391.861679 66.079793 
L 398.487276 65.914575 
" style="fill:none;stroke:#0000ff;stroke-linecap:square;stroke-width:1.5;"/>
   </g>
   <g id="line2d_29">
    <path clip-path="url(#pd024556d49)" d="M 73.832724 287.895494 
L 77.145522 253.841856 
L 80.458321 228.546781 
L 83.771119 208.396574 
L 87.083917 191.793426 
L 90.396716 177.868888 
L 93.709554 166.0696 
L 97.022352 155.999367 
L 100.33515 147.352401 
L 103.647949 139.885144 
L 106.960747 133.40171 
L 110.273545 127.742984 
L 113.586344 122.779253 
L 116.899142 118.404645 
L 120.21194 114.532561 
L 123.524738 111.091598 
L 126.837537 108.022824 
L 130.150375 105.277386 
L 133.463173 102.814424 
L 136.775971 100.599487 
L 140.08877 98.603641 
L 143.401568 96.802323 
L 146.714366 95.174831 
L 150.027165 93.703559 
L 153.339963 92.373651 
L 156.652761 91.17246 
L 159.96556 90.089422 
L 163.278358 89.116078 
L 166.591156 88.245626 
L 169.903955 87.472708 
L 173.216753 86.793059 
L 176.529551 86.203316 
L 179.842389 85.700788 
L 183.155187 85.283473 
L 186.467986 84.950024 
L 189.780784 84.69953 
L 193.093582 84.53175 
L 196.406381 84.446738 
L 199.719179 84.444963 
L 203.031977 84.527004 
L 206.344776 84.693539 
L 209.657574 84.944895 
L 212.970412 85.280602 
L 216.28321 85.698391 
L 219.596008 86.193552 
L 226.221605 87.377194 
L 239.472798 90.004552 
L 242.785597 90.582096 
L 246.098395 91.084711 
L 249.411193 91.49548 
L 252.723992 91.802051 
L 256.03679 91.99784 
L 259.349588 92.082424 
L 262.662387 92.060578 
L 265.975185 91.940823 
L 269.288023 91.733602 
L 272.600821 91.450118 
L 279.226418 90.697921 
L 285.852014 89.762712 
L 292.477651 88.707128 
L 302.416045 86.998668 
L 328.918432 82.367691 
L 338.856827 80.76156 
L 348.795222 79.282573 
L 358.733656 77.958557 
L 365.359253 77.174855 
L 371.984889 76.478684 
L 378.610486 75.876519 
L 385.236083 75.37459 
L 391.861679 74.97984 
L 398.487276 74.700313 
" style="fill:none;stroke:#00ffff;stroke-linecap:square;stroke-width:1.5;"/>
   </g>
   <g id="patch_3">
    <path d="M 57.6 307.584 
L 57.6 41.472 
" style="fill:none;stroke:#000000;stroke-linecap:square;stroke-linejoin:miter;stroke-width:0.8;"/>
   </g>
   <g id="patch_4">
    <path d="M 414.72 307.584 
L 414.72 41.472 
" style="fill:none;stroke:#000000;stroke-linecap:square;stroke-linejoin:miter;stroke-width:0.8;"/>
   </g>
   <g id="patch_5">
    <path d="M 57.6 307.584 
L 414.72 307.584 
" style="fill:none;stroke:#000000;stroke-linecap:square;stroke-linejoin:miter;stroke-width:0.8;"/>
   </g>
   <g id="patch_6">
    <path d="M 57.6 41.472 
L 414.72 41.472 
" style="fill:none;stroke:#000000;stroke-linecap:square;stroke-linejoin:miter;stroke-width:0.8;"/>
   </g>
   <g id="legend_1">
    <g id="patch_7">
     <path d="M 282.559063 302.584 
L 407.72 302.584 
Q 409.72 302.584 409.72 300.584 
L 409.72 257.549625 
Q 409.72 255.549625 407.72 255.549625 
L 282.559063 255.549625 
Q 280.559063 255.549625 280.559063 257.549625 
L 280.559063 300.584 
Q 280.559063 302.584 282.559063 302.584 
z
" style="fill:#ffffff;opacity:0.8;stroke:#cccccc;stroke-linejoin:miter;"/>
    </g>
    <g id="line2d_30">
     <path d="M 284.559063 263.648062 
L 304.559063 263.648062 
" style="fill:none;stroke:#ff0000;stroke-linecap:square;stroke-width:1.5;"/>
    </g>
    <g id="line2d_31"/>
    <g id="text_10">
     <!-- No denoising -->
     <defs>
      <path d="M 9.8125 72.90625 
L 23.09375 72.90625 
L 55.421875 11.921875 
L 55.421875 72.90625 
L 64.984375 72.90625 
L 64.984375 0 
L 51.703125 0 
L 19.390625 60.984375 
L 19.390625 0 
L 9.8125 0 
z
" id="DejaVuSans-78"/>
      <path d="M 45.40625 27.984375 
Q 45.40625 37.75 41.375 43.109375 
Q 37.359375 48.484375 30.078125 48.484375 
Q 22.859375 48.484375 18.828125 43.109375 
Q 14.796875 37.75 14.796875 27.984375 
Q 14.796875 18.265625 18.828125 12.890625 
Q 22.859375 7.515625 30.078125 7.515625 
Q 37.359375 7.515625 41.375 12.890625 
Q 45.40625 18.265625 45.40625 27.984375 
z
M 54.390625 6.78125 
Q 54.390625 -7.171875 48.1875 -13.984375 
Q 42 -20.796875 29.203125 -20.796875 
Q 24.46875 -20.796875 20.265625 -20.09375 
Q 16.0625 -19.390625 12.109375 -17.921875 
L 12.109375 -9.1875 
Q 16.0625 -11.328125 19.921875 -12.34375 
Q 23.78125 -13.375 27.78125 -13.375 
Q 36.625 -13.375 41.015625 -8.765625 
Q 45.40625 -4.15625 45.40625 5.171875 
L 45.40625 9.625 
Q 42.625 4.78125 38.28125 2.390625 
Q 33.9375 0 27.875 0 
Q 17.828125 0 11.671875 7.65625 
Q 5.515625 15.328125 5.515625 27.984375 
Q 5.515625 40.671875 11.671875 48.328125 
Q 17.828125 56 27.875 56 
Q 33.9375 56 38.28125 53.609375 
Q 42.625 51.21875 45.40625 46.390625 
L 45.40625 54.6875 
L 54.390625 54.6875 
z
" id="DejaVuSans-103"/>
     </defs>
     <g transform="translate(312.559063 267.148062)scale(0.1 -0.1)">
      <use xlink:href="#DejaVuSans-78"/>
      <use x="74.804688" xlink:href="#DejaVuSans-111"/>
      <use x="135.986328" xlink:href="#DejaVuSans-32"/>
      <use x="167.773438" xlink:href="#DejaVuSans-100"/>
      <use x="231.25" xlink:href="#DejaVuSans-101"/>
      <use x="292.773438" xlink:href="#DejaVuSans-110"/>
      <use x="356.152344" xlink:href="#DejaVuSans-111"/>
      <use x="417.333984" xlink:href="#DejaVuSans-105"/>
      <use x="445.117188" xlink:href="#DejaVuSans-115"/>
      <use x="497.216797" xlink:href="#DejaVuSans-105"/>
      <use x="525" xlink:href="#DejaVuSans-110"/>
      <use x="588.378906" xlink:href="#DejaVuSans-103"/>
     </g>
    </g>
    <g id="line2d_32">
     <path d="M 284.559063 278.326188 
L 304.559063 278.326188 
" style="fill:none;stroke:#0000ff;stroke-linecap:square;stroke-width:1.5;"/>
    </g>
    <g id="line2d_33"/>
    <g id="text_11">
     <!-- With denoising -->
     <defs>
      <path d="M 3.328125 72.90625 
L 13.28125 72.90625 
L 28.609375 11.28125 
L 43.890625 72.90625 
L 54.984375 72.90625 
L 70.3125 11.28125 
L 85.59375 72.90625 
L 95.609375 72.90625 
L 77.296875 0 
L 64.890625 0 
L 49.515625 63.28125 
L 33.984375 0 
L 21.578125 0 
z
" id="DejaVuSans-87"/>
      <path d="M 54.890625 33.015625 
L 54.890625 0 
L 45.90625 0 
L 45.90625 32.71875 
Q 45.90625 40.484375 42.875 44.328125 
Q 39.84375 48.1875 33.796875 48.1875 
Q 26.515625 48.1875 22.3125 43.546875 
Q 18.109375 38.921875 18.109375 30.90625 
L 18.109375 0 
L 9.078125 0 
L 9.078125 75.984375 
L 18.109375 75.984375 
L 18.109375 46.1875 
Q 21.34375 51.125 25.703125 53.5625 
Q 30.078125 56 35.796875 56 
Q 45.21875 56 50.046875 50.171875 
Q 54.890625 44.34375 54.890625 33.015625 
z
" id="DejaVuSans-104"/>
     </defs>
     <g transform="translate(312.559063 281.826188)scale(0.1 -0.1)">
      <use xlink:href="#DejaVuSans-87"/>
      <use x="98.845703" xlink:href="#DejaVuSans-105"/>
      <use x="126.628906" xlink:href="#DejaVuSans-116"/>
      <use x="165.837891" xlink:href="#DejaVuSans-104"/>
      <use x="229.216797" xlink:href="#DejaVuSans-32"/>
      <use x="261.003906" xlink:href="#DejaVuSans-100"/>
      <use x="324.480469" xlink:href="#DejaVuSans-101"/>
      <use x="386.003906" xlink:href="#DejaVuSans-110"/>
      <use x="449.382812" xlink:href="#DejaVuSans-111"/>
      <use x="510.564453" xlink:href="#DejaVuSans-105"/>
      <use x="538.347656" xlink:href="#DejaVuSans-115"/>
      <use x="590.447266" xlink:href="#DejaVuSans-105"/>
      <use x="618.230469" xlink:href="#DejaVuSans-110"/>
      <use x="681.609375" xlink:href="#DejaVuSans-103"/>
     </g>
    </g>
    <g id="line2d_34">
     <path d="M 284.559063 293.004312 
L 304.559063 293.004312 
" style="fill:none;stroke:#00ffff;stroke-linecap:square;stroke-width:1.5;"/>
    </g>
    <g id="line2d_35"/>
    <g id="text_12">
     <!-- With big denoising -->
     <defs>
      <path d="M 48.6875 27.296875 
Q 48.6875 37.203125 44.609375 42.84375 
Q 40.53125 48.484375 33.40625 48.484375 
Q 26.265625 48.484375 22.1875 42.84375 
Q 18.109375 37.203125 18.109375 27.296875 
Q 18.109375 17.390625 22.1875 11.75 
Q 26.265625 6.109375 33.40625 6.109375 
Q 40.53125 6.109375 44.609375 11.75 
Q 48.6875 17.390625 48.6875 27.296875 
z
M 18.109375 46.390625 
Q 20.953125 51.265625 25.265625 53.625 
Q 29.59375 56 35.59375 56 
Q 45.5625 56 51.78125 48.09375 
Q 58.015625 40.1875 58.015625 27.296875 
Q 58.015625 14.40625 51.78125 6.484375 
Q 45.5625 -1.421875 35.59375 -1.421875 
Q 29.59375 -1.421875 25.265625 0.953125 
Q 20.953125 3.328125 18.109375 8.203125 
L 18.109375 0 
L 9.078125 0 
L 9.078125 75.984375 
L 18.109375 75.984375 
z
" id="DejaVuSans-98"/>
     </defs>
     <g transform="translate(312.559063 296.504312)scale(0.1 -0.1)">
      <use xlink:href="#DejaVuSans-87"/>
      <use x="98.845703" xlink:href="#DejaVuSans-105"/>
      <use x="126.628906" xlink:href="#DejaVuSans-116"/>
      <use x="165.837891" xlink:href="#DejaVuSans-104"/>
      <use x="229.216797" xlink:href="#DejaVuSans-32"/>
      <use x="261.003906" xlink:href="#DejaVuSans-98"/>
      <use x="324.480469" xlink:href="#DejaVuSans-105"/>
      <use x="352.263672" xlink:href="#DejaVuSans-103"/>
      <use x="415.740234" xlink:href="#DejaVuSans-32"/>
      <use x="447.527344" xlink:href="#DejaVuSans-100"/>
      <use x="511.003906" xlink:href="#DejaVuSans-101"/>
      <use x="572.527344" xlink:href="#DejaVuSans-110"/>
      <use x="635.90625" xlink:href="#DejaVuSans-111"/>
      <use x="697.087891" xlink:href="#DejaVuSans-105"/>
      <use x="724.871094" xlink:href="#DejaVuSans-115"/>
      <use x="776.970703" xlink:href="#DejaVuSans-105"/>
      <use x="804.753906" xlink:href="#DejaVuSans-110"/>
      <use x="868.132812" xlink:href="#DejaVuSans-103"/>
     </g>
    </g>
   </g>
  </g>
 </g>
 <defs>
  <clipPath id="pd024556d49">
   <rect height="266.112" width="357.12" x="57.6" y="41.472"/>
  </clipPath>
 </defs>
</svg>
