<?xml version="1.0" encoding="utf-8" standalone="no"?>
<!DOCTYPE svg PUBLIC "-//W3C//DTD SVG 1.1//EN"
  "http://www.w3.org/Graphics/SVG/1.1/DTD/svg11.dtd">
<!-- Created with matplotlib (https://matplotlib.org/) -->
<svg height="345.6pt" version="1.1" viewBox="0 0 460.8 345.6" width="460.8pt" xmlns="http://www.w3.org/2000/svg" xmlns:xlink="http://www.w3.org/1999/xlink">
 <defs>
  <style type="text/css">
*{stroke-linecap:butt;stroke-linejoin:round;white-space:pre;}
  </style>
 </defs>
 <g id="figure_1">
  <g id="patch_1">
   <path d="M 0 345.6 
L 460.8 345.6 
L 460.8 0 
L 0 0 
z
" style="fill:#ffffff;"/>
  </g>
  <g id="axes_1">
   <g id="patch_2">
    <path d="M 57.6 307.584 
L 414.72 307.584 
L 414.72 41.472 
L 57.6 41.472 
z
" style="fill:#ffffff;"/>
   </g>
   <g id="PolyCollection_1">
    <path clip-path="url(#padb253bf9d)" d="M 73.832727 264.758883 
L 73.832727 274.951163 
L 77.145529 241.807727 
L 80.45833 217.229165 
L 83.771132 197.641211 
L 87.083933 181.462356 
L 90.396735 167.840883 
L 93.709536 156.242386 
L 97.022338 146.288714 
L 100.335139 137.691192 
L 103.647941 130.221102 
L 106.960742 123.693896 
L 110.273544 117.95962 
L 113.586345 112.896146 
L 116.899147 108.403657 
L 120.211948 104.400178 
L 123.52475 100.818172 
L 126.837551 97.601715 
L 130.150353 94.704249 
L 133.463154 92.086837 
L 136.775955 89.716866 
L 140.088757 87.56692 
L 143.401558 85.613833 
L 146.71436 83.837933 
L 150.027161 82.222499 
L 153.339963 80.753332 
L 156.652764 79.418369 
L 159.965566 78.207363 
L 163.278367 77.111532 
L 166.591169 76.123278 
L 169.90397 75.23607 
L 173.216772 74.444288 
L 176.529573 73.743052 
L 179.842375 73.128054 
L 183.155176 72.595624 
L 186.467978 72.142774 
L 189.780779 71.767163 
L 193.093581 71.467033 
L 196.406382 71.241129 
L 199.719184 71.088596 
L 203.031985 71.008815 
L 206.344787 71.001204 
L 209.657588 71.064989 
L 212.97039 71.198952 
L 216.283191 71.401051 
L 219.595993 71.667934 
L 222.908794 71.994318 
L 226.221596 72.37233 
L 229.534397 72.790915 
L 232.847199 73.235514 
L 236.16 73.688351 
L 239.472801 74.129491 
L 242.785603 74.538675 
L 246.098404 74.897486 
L 249.411206 75.191233 
L 252.724007 75.410038 
L 256.036809 75.548998 
L 259.34961 75.607627 
L 262.662412 75.588902 
L 265.975213 75.498212 
L 269.288015 75.342407 
L 272.600816 75.129019 
L 275.913618 74.865703 
L 279.226419 74.55985 
L 282.539221 74.218368 
L 285.852022 73.847563 
L 289.164824 73.453091 
L 292.477625 73.039975 
L 295.790427 72.612638 
L 299.103228 72.174951 
L 302.41603 71.730283 
L 305.728831 71.281559 
L 309.041633 70.831319 
L 312.354434 70.381768 
L 315.667236 69.934817 
L 318.980037 69.492123 
L 322.292839 69.055135 
L 325.60564 68.62513 
L 328.918442 68.203251 
L 332.231243 67.790529 
L 335.544045 67.387908 
L 338.856846 66.996257 
L 342.169647 66.61638 
L 345.482449 66.249017 
L 348.79525 65.894836 
L 352.108052 65.554435 
L 355.420853 65.228331 
L 358.733655 64.916942 
L 362.046456 64.620537 
L 365.359258 64.33927 
L 368.672059 64.073215 
L 371.984861 63.822426 
L 375.297662 63.586953 
L 378.610464 63.366863 
L 381.923265 63.162251 
L 385.236067 62.973241 
L 388.548868 62.799986 
L 391.86167 62.642672 
L 395.174471 62.50152 
L 398.487273 62.376795 
L 398.487273 53.568 
L 398.487273 53.568 
L 395.174471 53.717319 
L 391.86167 53.888715 
L 388.548868 54.081598 
L 385.236067 54.295372 
L 381.923265 54.529426 
L 378.610464 54.783135 
L 375.297662 55.055857 
L 371.984861 55.346945 
L 368.672059 55.655753 
L 365.359258 55.98163 
L 362.046456 56.323918 
L 358.733655 56.681952 
L 355.420853 57.055058 
L 352.108052 57.442561 
L 348.79525 57.843784 
L 345.482449 58.258049 
L 342.169647 58.684666 
L 338.856846 59.122936 
L 335.544045 59.572138 
L 332.231243 60.031522 
L 328.918442 60.500289 
L 325.60564 60.977575 
L 322.292839 61.462431 
L 318.980037 61.953802 
L 315.667236 62.450496 
L 312.354434 62.951159 
L 309.041633 63.454236 
L 305.728831 63.957935 
L 302.41603 64.460177 
L 299.103228 64.958539 
L 295.790427 65.45019 
L 292.477625 65.931818 
L 289.164824 66.399553 
L 285.852022 66.848885 
L 282.539221 67.274572 
L 279.226419 67.67057 
L 275.913618 68.029976 
L 272.600816 68.345024 
L 269.288015 68.607167 
L 265.975213 68.807303 
L 262.662412 68.936207 
L 259.34961 68.985255 
L 256.036809 68.947494 
L 252.724007 68.819044 
L 249.411206 68.600642 
L 246.098404 68.298956 
L 242.785603 67.927078 
L 239.472801 67.503732 
L 236.16 67.051165 
L 232.847199 66.592355 
L 229.534397 66.148467 
L 226.221596 65.73724 
L 222.908794 65.372388 
L 219.595993 65.063791 
L 216.283191 64.818135 
L 212.97039 64.639667 
L 209.657588 64.530923 
L 206.344787 64.493321 
L 203.031985 64.52765 
L 199.719184 64.634385 
L 196.406382 64.813915 
L 193.093581 65.066699 
L 189.780779 65.39341 
L 186.467978 65.795051 
L 183.155176 66.273023 
L 179.842375 66.829137 
L 176.529573 67.465699 
L 173.216772 68.185575 
L 169.90397 68.992213 
L 166.591169 69.889716 
L 163.278367 70.882978 
L 159.965566 71.977828 
L 156.652764 73.181154 
L 153.339963 74.501091 
L 150.027161 75.947287 
L 146.71436 77.53116 
L 143.401558 79.266177 
L 140.088757 81.168198 
L 136.775955 83.255895 
L 133.463154 85.551332 
L 130.150353 88.08073 
L 126.837551 90.875357 
L 123.52475 93.972604 
L 120.211948 97.417351 
L 116.899147 101.263773 
L 113.586345 105.577603 
L 110.273544 110.439065 
L 106.960742 115.946707 
L 103.647941 122.222293 
L 100.335139 129.416834 
L 97.022338 137.718577 
L 93.709536 147.364043 
L 90.396735 158.65424 
L 87.083933 171.983886 
L 83.771132 187.905978 
L 80.45833 207.287251 
L 77.145529 231.714605 
L 73.832727 264.758883 
z
" style="fill:#ff0000;fill-opacity:0.4;"/>
   </g>
   <g id="PolyCollection_2">
    <path clip-path="url(#padb253bf9d)" d="M 73.832727 265.149954 
L 73.832727 275.829686 
L 77.145529 242.742057 
L 80.45833 218.220919 
L 83.771132 198.693238 
L 87.083933 182.577079 
L 90.396735 169.019277 
L 93.709536 157.484001 
L 97.022338 147.592135 
L 100.335139 139.0545 
L 103.647941 131.642177 
L 106.960742 125.170676 
L 110.273544 119.490306 
L 113.586345 114.479238 
L 116.899147 110.037882 
L 120.211948 106.084426 
L 123.52475 102.551539 
L 126.837551 99.38352 
L 130.150353 96.53405 
L 133.463154 93.964446 
L 136.775955 91.64231 
L 140.088757 89.54042 
L 143.401558 87.635769 
L 146.71436 85.908797 
L 150.027161 84.342878 
L 153.339963 82.923911 
L 156.652764 81.639986 
L 159.965566 80.481014 
L 163.278367 79.438352 
L 166.591169 78.504513 
L 169.90397 77.673105 
L 173.216772 76.938668 
L 176.529573 76.296423 
L 179.842375 75.742214 
L 183.155176 75.272603 
L 186.467978 74.884937 
L 189.780779 74.577291 
L 193.093581 74.348349 
L 196.406382 74.197284 
L 199.719184 74.123639 
L 203.031985 74.127177 
L 206.344787 74.207683 
L 209.657588 74.364667 
L 212.97039 74.596977 
L 216.283191 74.902337 
L 219.595993 75.276716 
L 222.908794 75.71353 
L 226.221596 76.202757 
L 229.534397 76.730227 
L 232.847199 77.277428 
L 236.16 77.822256 
L 239.472801 78.340784 
L 242.785603 78.809876 
L 246.098404 79.209882 
L 249.411206 79.526554 
L 252.724007 79.751748 
L 256.036809 79.883025 
L 259.34961 79.92257 
L 262.662412 79.87588 
L 265.975213 79.750532 
L 269.288015 79.55516 
L 272.600816 79.298701 
L 275.913618 78.989886 
L 279.226419 78.636922 
L 282.539221 78.247325 
L 285.852022 77.827852 
L 289.164824 77.384504 
L 292.477625 76.922552 
L 295.790427 76.446606 
L 299.103228 75.960674 
L 302.41603 75.46824 
L 305.728831 74.972328 
L 309.041633 74.475556 
L 312.354434 73.9802 
L 315.667236 73.488242 
L 318.980037 73.001416 
L 322.292839 72.52124 
L 325.60564 72.049053 
L 328.918442 71.586042 
L 332.231243 71.133273 
L 335.544045 70.69172 
L 338.856846 70.262284 
L 342.169647 69.845805 
L 345.482449 69.443075 
L 348.79525 69.054829 
L 352.108052 68.681742 
L 355.420853 68.324434 
L 358.733655 67.983459 
L 362.046456 67.659308 
L 365.359258 67.352361 
L 368.672059 67.062873 
L 371.984861 66.791015 
L 375.297662 66.536909 
L 378.610464 66.300654 
L 381.923265 66.082354 
L 385.236067 65.882134 
L 388.548868 65.700153 
L 391.86167 65.53661 
L 395.174471 65.39175 
L 398.487273 65.265864 
L 398.487273 55.54852 
L 398.487273 55.54852 
L 395.174471 55.721119 
L 391.86167 55.917822 
L 388.548868 56.137715 
L 385.236067 56.379911 
L 381.923265 56.643548 
L 378.610464 56.927788 
L 375.297662 57.231819 
L 371.984861 57.554852 
L 368.672059 57.896119 
L 365.359258 58.254865 
L 362.046456 58.630355 
L 358.733655 59.021869 
L 355.420853 59.428709 
L 352.108052 59.850192 
L 348.79525 60.285644 
L 345.482449 60.734396 
L 342.169647 61.195781 
L 338.856846 61.669125 
L 335.544045 62.153736 
L 332.231243 62.64889 
L 328.918442 63.153814 
L 325.60564 63.667673 
L 322.292839 64.189547 
L 318.980037 64.718409 
L 315.667236 65.253099 
L 312.354434 65.792289 
L 309.041633 66.334456 
L 305.728831 66.877827 
L 302.41603 67.420343 
L 299.103228 67.959596 
L 295.790427 68.492765 
L 292.477625 69.016546 
L 289.164824 69.527059 
L 285.852022 70.01976 
L 282.539221 70.489341 
L 279.226419 70.929634 
L 275.913618 71.333522 
L 272.600816 71.69289 
L 269.288015 71.998639 
L 265.975213 72.240811 
L 262.662412 72.408912 
L 259.34961 72.492492 
L 256.036809 72.482119 
L 252.724007 72.370782 
L 249.411206 72.155676 
L 246.098404 71.84007 
L 242.785603 71.434645 
L 239.472801 70.957558 
L 236.16 70.432757 
L 232.847199 69.886875 
L 229.534397 69.345766 
L 226.221596 68.831885 
L 222.908794 68.362935 
L 219.595993 67.951727 
L 216.283191 67.60684 
L 212.97039 67.333641 
L 209.657588 67.135249 
L 206.344787 67.013299 
L 203.031985 66.968514 
L 199.719184 67.001138 
L 196.406382 67.111284 
L 193.093581 67.299144 
L 189.780779 67.565092 
L 186.467978 67.909766 
L 183.155176 68.334141 
L 179.842375 68.839625 
L 176.529573 69.428156 
L 173.216772 70.102264 
L 169.90397 70.865108 
L 166.591169 71.720508 
L 163.278367 72.673079 
L 159.965566 73.728434 
L 156.652764 74.893305 
L 153.339963 76.175698 
L 150.027161 77.585115 
L 146.71436 79.132818 
L 143.401558 80.832099 
L 140.088757 82.698604 
L 136.775955 84.750781 
L 133.463154 87.010467 
L 130.150353 89.503621 
L 126.837551 92.261231 
L 123.52475 95.320374 
L 120.211948 98.72562 
L 116.899147 102.53081 
L 113.586345 106.801284 
L 110.273544 111.616764 
L 106.960742 117.075166 
L 103.647941 123.297621 
L 100.335139 130.434598 
L 97.022338 138.673837 
L 93.709536 148.251501 
L 90.396735 159.468514 
L 87.083933 172.720161 
L 83.771132 188.560269 
L 80.45833 207.856532 
L 77.145529 232.196473 
L 73.832727 265.149954 
z
" style="fill:#0000ff;fill-opacity:0.4;"/>
   </g>
   <g id="PolyCollection_3">
    <path clip-path="url(#padb253bf9d)" d="M 73.832727 278.063484 
L 73.832727 295.488 
L 77.145529 261.368351 
L 80.45833 235.896091 
L 83.771132 215.513679 
L 87.083933 198.648943 
L 90.396735 184.449729 
L 93.709536 172.375419 
L 97.022338 162.037678 
L 100.335139 153.136997 
L 103.647941 145.433519 
L 106.960742 138.731449 
L 110.273544 132.870767 
L 113.586345 127.720523 
L 116.899147 123.172952 
L 120.211948 119.139446 
L 123.52475 115.547343 
L 126.837551 112.33675 
L 130.150353 109.457991 
L 133.463154 106.869832 
L 136.775955 104.537879 
L 140.088757 102.432922 
L 143.401558 100.529638 
L 146.71436 98.806169 
L 150.027161 97.243705 
L 153.339963 95.82622 
L 156.652764 94.540472 
L 159.965566 93.375631 
L 163.278367 92.323159 
L 166.591169 91.376508 
L 169.90397 90.530609 
L 173.216772 89.781437 
L 176.529573 89.125955 
L 179.842375 88.562237 
L 183.155176 88.089484 
L 186.467978 87.707888 
L 189.780779 87.418467 
L 193.093581 87.222982 
L 196.406382 87.123816 
L 199.719184 87.123755 
L 203.031985 87.225645 
L 206.344787 87.431952 
L 209.657588 87.744104 
L 212.97039 88.161519 
L 216.283191 88.680213 
L 219.595993 89.291098 
L 222.908794 89.978138 
L 226.221596 90.71675 
L 229.534397 91.473664 
L 232.847199 92.209539 
L 236.16 92.884262 
L 239.472801 93.463219 
L 242.785603 93.921959 
L 246.098404 94.247799 
L 249.411206 94.438626 
L 252.724007 94.500237 
L 256.036809 94.443404 
L 259.34961 94.281396 
L 262.662412 94.028226 
L 265.975213 93.697563 
L 269.288015 93.302132 
L 272.600816 92.853442 
L 275.913618 92.36172 
L 279.226419 91.835944 
L 282.539221 91.283925 
L 285.852022 90.712417 
L 289.164824 90.127241 
L 292.477625 89.533396 
L 295.790427 88.935167 
L 299.103228 88.336238 
L 302.41603 87.739765 
L 305.728831 87.148463 
L 309.041633 86.56467 
L 312.354434 85.990405 
L 315.667236 85.427419 
L 318.980037 84.877242 
L 322.292839 84.341208 
L 325.60564 83.820494 
L 328.918442 83.316149 
L 332.231243 82.829119 
L 335.544045 82.360277 
L 338.856846 81.910448 
L 342.169647 81.480428 
L 345.482449 81.071001 
L 348.79525 80.682946 
L 352.108052 80.31702 
L 355.420853 79.973934 
L 358.733655 79.654338 
L 362.046456 79.358815 
L 365.359258 79.087879 
L 368.672059 78.841992 
L 371.984861 78.621602 
L 375.297662 78.427168 
L 378.610464 78.259183 
L 381.923265 78.118191 
L 385.236067 78.004801 
L 388.548868 77.919688 
L 391.86167 77.863611 
L 395.174471 77.837415 
L 398.487273 77.842043 
L 398.487273 70.543258 
L 398.487273 70.543258 
L 395.174471 70.67498 
L 391.86167 70.831971 
L 388.548868 71.013594 
L 385.236067 71.219202 
L 381.923265 71.448135 
L 378.610464 71.699708 
L 375.297662 71.973218 
L 371.984861 72.26794 
L 368.672059 72.583141 
L 365.359258 72.918063 
L 362.046456 73.27191 
L 358.733655 73.643839 
L 355.420853 74.032945 
L 352.108052 74.43826 
L 348.79525 74.858758 
L 345.482449 75.293375 
L 342.169647 75.741016 
L 338.856846 76.200566 
L 335.544045 76.670886 
L 332.231243 77.1508 
L 328.918442 77.639084 
L 325.60564 78.134446 
L 322.292839 78.635511 
L 318.980037 79.140795 
L 315.667236 79.648674 
L 312.354434 80.157359 
L 309.041633 80.664848 
L 305.728831 81.168887 
L 302.41603 81.666921 
L 299.103228 82.156033 
L 295.790427 82.632872 
L 292.477625 83.093589 
L 289.164824 83.533756 
L 285.852022 83.948301 
L 282.539221 84.331441 
L 279.226419 84.676646 
L 275.913618 84.976647 
L 272.600816 85.223525 
L 269.288015 85.408917 
L 265.975213 85.524404 
L 262.662412 85.562137 
L 259.34961 85.515732 
L 256.036809 85.38143 
L 252.724007 85.159353 
L 249.411206 84.854556 
L 246.098404 84.477477 
L 242.785603 84.043448 
L 239.472801 83.571325 
L 236.16 83.081553 
L 232.847199 82.594133 
L 229.534397 82.126856 
L 226.221596 81.694075 
L 222.908794 81.306232 
L 219.595993 80.970181 
L 216.283191 80.689969 
L 212.97039 80.467771 
L 209.657588 80.304694 
L 206.344787 80.201353 
L 203.031985 80.15824 
L 199.719184 80.175969 
L 196.406382 80.255428 
L 193.093581 80.397855 
L 189.780779 80.604878 
L 186.467978 80.878551 
L 183.155176 81.221348 
L 179.842375 81.636135 
L 176.529573 82.126173 
L 173.216772 82.695307 
L 169.90397 83.348166 
L 166.591169 84.09013 
L 163.278367 84.927126 
L 159.965566 85.865746 
L 156.652764 86.913548 
L 153.339963 88.079406 
L 150.027161 89.373713 
L 146.71436 90.808687 
L 143.401558 92.398727 
L 140.088757 94.160594 
L 136.775955 96.113922 
L 133.463154 98.281723 
L 130.150353 100.691013 
L 126.837551 103.373849 
L 123.52475 106.36865 
L 120.211948 109.721692 
L 116.899147 113.488908 
L 113.586345 117.738429 
L 110.273544 122.55337 
L 106.960742 128.03547 
L 103.647941 134.310016 
L 100.335139 141.531651 
L 97.022338 149.891579 
L 93.709536 159.627829 
L 90.396735 171.04133 
L 87.083933 184.524499 
L 83.771132 200.624744 
L 80.45833 220.199329 
L 77.145529 244.824818 
L 73.832727 278.063484 
z
" style="fill:#00ffff;fill-opacity:0.4;"/>
   </g>
   <g id="matplotlib.axis_1">
    <g id="xtick_1">
     <g id="line2d_1">
      <path clip-path="url(#padb253bf9d)" d="M 70.519926 307.584 
L 70.519926 41.472 
" style="fill:none;stroke:#b0b0b0;stroke-linecap:square;stroke-width:0.8;"/>
     </g>
     <g id="line2d_2">
      <defs>
       <path d="M 0 0 
L 0 3.5 
" id="m466533e80a" style="stroke:#000000;stroke-width:0.8;"/>
      </defs>
      <g>
       <use style="stroke:#000000;stroke-width:0.8;" x="70.519926" xlink:href="#m466533e80a" y="307.584"/>
      </g>
     </g>
     <g id="text_1">
      <!-- 0.0 -->
      <defs>
       <path d="M 31.78125 66.40625 
Q 24.171875 66.40625 20.328125 58.90625 
Q 16.5 51.421875 16.5 36.375 
Q 16.5 21.390625 20.328125 13.890625 
Q 24.171875 6.390625 31.78125 6.390625 
Q 39.453125 6.390625 43.28125 13.890625 
Q 47.125 21.390625 47.125 36.375 
Q 47.125 51.421875 43.28125 58.90625 
Q 39.453125 66.40625 31.78125 66.40625 
z
M 31.78125 74.21875 
Q 44.046875 74.21875 50.515625 64.515625 
Q 56.984375 54.828125 56.984375 36.375 
Q 56.984375 17.96875 50.515625 8.265625 
Q 44.046875 -1.421875 31.78125 -1.421875 
Q 19.53125 -1.421875 13.0625 8.265625 
Q 6.59375 17.96875 6.59375 36.375 
Q 6.59375 54.828125 13.0625 64.515625 
Q 19.53125 74.21875 31.78125 74.21875 
z
" id="DejaVuSans-48"/>
       <path d="M 10.6875 12.40625 
L 21 12.40625 
L 21 0 
L 10.6875 0 
z
" id="DejaVuSans-46"/>
      </defs>
      <g transform="translate(62.568363 322.182437)scale(0.1 -0.1)">
       <use xlink:href="#DejaVuSans-48"/>
       <use x="63.623047" xlink:href="#DejaVuSans-46"/>
       <use x="95.410156" xlink:href="#DejaVuSans-48"/>
      </g>
     </g>
    </g>
    <g id="xtick_2">
     <g id="line2d_3">
      <path clip-path="url(#padb253bf9d)" d="M 136.775955 307.584 
L 136.775955 41.472 
" style="fill:none;stroke:#b0b0b0;stroke-linecap:square;stroke-width:0.8;"/>
     </g>
     <g id="line2d_4">
      <g>
       <use style="stroke:#000000;stroke-width:0.8;" x="136.775955" xlink:href="#m466533e80a" y="307.584"/>
      </g>
     </g>
     <g id="text_2">
      <!-- 0.2 -->
      <defs>
       <path d="M 19.1875 8.296875 
L 53.609375 8.296875 
L 53.609375 0 
L 7.328125 0 
L 7.328125 8.296875 
Q 12.9375 14.109375 22.625 23.890625 
Q 32.328125 33.6875 34.8125 36.53125 
Q 39.546875 41.84375 41.421875 45.53125 
Q 43.3125 49.21875 43.3125 52.78125 
Q 43.3125 58.59375 39.234375 62.25 
Q 35.15625 65.921875 28.609375 65.921875 
Q 23.96875 65.921875 18.8125 64.3125 
Q 13.671875 62.703125 7.8125 59.421875 
L 7.8125 69.390625 
Q 13.765625 71.78125 18.9375 73 
Q 24.125 74.21875 28.421875 74.21875 
Q 39.75 74.21875 46.484375 68.546875 
Q 53.21875 62.890625 53.21875 53.421875 
Q 53.21875 48.921875 51.53125 44.890625 
Q 49.859375 40.875 45.40625 35.40625 
Q 44.1875 33.984375 37.640625 27.21875 
Q 31.109375 20.453125 19.1875 8.296875 
z
" id="DejaVuSans-50"/>
      </defs>
      <g transform="translate(128.824393 322.182437)scale(0.1 -0.1)">
       <use xlink:href="#DejaVuSans-48"/>
       <use x="63.623047" xlink:href="#DejaVuSans-46"/>
       <use x="95.410156" xlink:href="#DejaVuSans-50"/>
      </g>
     </g>
    </g>
    <g id="xtick_3">
     <g id="line2d_5">
      <path clip-path="url(#padb253bf9d)" d="M 203.031985 307.584 
L 203.031985 41.472 
" style="fill:none;stroke:#b0b0b0;stroke-linecap:square;stroke-width:0.8;"/>
     </g>
     <g id="line2d_6">
      <g>
       <use style="stroke:#000000;stroke-width:0.8;" x="203.031985" xlink:href="#m466533e80a" y="307.584"/>
      </g>
     </g>
     <g id="text_3">
      <!-- 0.4 -->
      <defs>
       <path d="M 37.796875 64.3125 
L 12.890625 25.390625 
L 37.796875 25.390625 
z
M 35.203125 72.90625 
L 47.609375 72.90625 
L 47.609375 25.390625 
L 58.015625 25.390625 
L 58.015625 17.1875 
L 47.609375 17.1875 
L 47.609375 0 
L 37.796875 0 
L 37.796875 17.1875 
L 4.890625 17.1875 
L 4.890625 26.703125 
z
" id="DejaVuSans-52"/>
      </defs>
      <g transform="translate(195.080423 322.182437)scale(0.1 -0.1)">
       <use xlink:href="#DejaVuSans-48"/>
       <use x="63.623047" xlink:href="#DejaVuSans-46"/>
       <use x="95.410156" xlink:href="#DejaVuSans-52"/>
      </g>
     </g>
    </g>
    <g id="xtick_4">
     <g id="line2d_7">
      <path clip-path="url(#padb253bf9d)" d="M 269.288015 307.584 
L 269.288015 41.472 
" style="fill:none;stroke:#b0b0b0;stroke-linecap:square;stroke-width:0.8;"/>
     </g>
     <g id="line2d_8">
      <g>
       <use style="stroke:#000000;stroke-width:0.8;" x="269.288015" xlink:href="#m466533e80a" y="307.584"/>
      </g>
     </g>
     <g id="text_4">
      <!-- 0.6 -->
      <defs>
       <path d="M 33.015625 40.375 
Q 26.375 40.375 22.484375 35.828125 
Q 18.609375 31.296875 18.609375 23.390625 
Q 18.609375 15.53125 22.484375 10.953125 
Q 26.375 6.390625 33.015625 6.390625 
Q 39.65625 6.390625 43.53125 10.953125 
Q 47.40625 15.53125 47.40625 23.390625 
Q 47.40625 31.296875 43.53125 35.828125 
Q 39.65625 40.375 33.015625 40.375 
z
M 52.59375 71.296875 
L 52.59375 62.3125 
Q 48.875 64.0625 45.09375 64.984375 
Q 41.3125 65.921875 37.59375 65.921875 
Q 27.828125 65.921875 22.671875 59.328125 
Q 17.53125 52.734375 16.796875 39.40625 
Q 19.671875 43.65625 24.015625 45.921875 
Q 28.375 48.1875 33.59375 48.1875 
Q 44.578125 48.1875 50.953125 41.515625 
Q 57.328125 34.859375 57.328125 23.390625 
Q 57.328125 12.15625 50.6875 5.359375 
Q 44.046875 -1.421875 33.015625 -1.421875 
Q 20.359375 -1.421875 13.671875 8.265625 
Q 6.984375 17.96875 6.984375 36.375 
Q 6.984375 53.65625 15.1875 63.9375 
Q 23.390625 74.21875 37.203125 74.21875 
Q 40.921875 74.21875 44.703125 73.484375 
Q 48.484375 72.75 52.59375 71.296875 
z
" id="DejaVuSans-54"/>
      </defs>
      <g transform="translate(261.336452 322.182437)scale(0.1 -0.1)">
       <use xlink:href="#DejaVuSans-48"/>
       <use x="63.623047" xlink:href="#DejaVuSans-46"/>
       <use x="95.410156" xlink:href="#DejaVuSans-54"/>
      </g>
     </g>
    </g>
    <g id="xtick_5">
     <g id="line2d_9">
      <path clip-path="url(#padb253bf9d)" d="M 335.544045 307.584 
L 335.544045 41.472 
" style="fill:none;stroke:#b0b0b0;stroke-linecap:square;stroke-width:0.8;"/>
     </g>
     <g id="line2d_10">
      <g>
       <use style="stroke:#000000;stroke-width:0.8;" x="335.544045" xlink:href="#m466533e80a" y="307.584"/>
      </g>
     </g>
     <g id="text_5">
      <!-- 0.8 -->
      <defs>
       <path d="M 31.78125 34.625 
Q 24.75 34.625 20.71875 30.859375 
Q 16.703125 27.09375 16.703125 20.515625 
Q 16.703125 13.921875 20.71875 10.15625 
Q 24.75 6.390625 31.78125 6.390625 
Q 38.8125 6.390625 42.859375 10.171875 
Q 46.921875 13.96875 46.921875 20.515625 
Q 46.921875 27.09375 42.890625 30.859375 
Q 38.875 34.625 31.78125 34.625 
z
M 21.921875 38.8125 
Q 15.578125 40.375 12.03125 44.71875 
Q 8.5 49.078125 8.5 55.328125 
Q 8.5 64.0625 14.71875 69.140625 
Q 20.953125 74.21875 31.78125 74.21875 
Q 42.671875 74.21875 48.875 69.140625 
Q 55.078125 64.0625 55.078125 55.328125 
Q 55.078125 49.078125 51.53125 44.71875 
Q 48 40.375 41.703125 38.8125 
Q 48.828125 37.15625 52.796875 32.3125 
Q 56.78125 27.484375 56.78125 20.515625 
Q 56.78125 9.90625 50.3125 4.234375 
Q 43.84375 -1.421875 31.78125 -1.421875 
Q 19.734375 -1.421875 13.25 4.234375 
Q 6.78125 9.90625 6.78125 20.515625 
Q 6.78125 27.484375 10.78125 32.3125 
Q 14.796875 37.15625 21.921875 38.8125 
z
M 18.3125 54.390625 
Q 18.3125 48.734375 21.84375 45.5625 
Q 25.390625 42.390625 31.78125 42.390625 
Q 38.140625 42.390625 41.71875 45.5625 
Q 45.3125 48.734375 45.3125 54.390625 
Q 45.3125 60.0625 41.71875 63.234375 
Q 38.140625 66.40625 31.78125 66.40625 
Q 25.390625 66.40625 21.84375 63.234375 
Q 18.3125 60.0625 18.3125 54.390625 
z
" id="DejaVuSans-56"/>
      </defs>
      <g transform="translate(327.592482 322.182437)scale(0.1 -0.1)">
       <use xlink:href="#DejaVuSans-48"/>
       <use x="63.623047" xlink:href="#DejaVuSans-46"/>
       <use x="95.410156" xlink:href="#DejaVuSans-56"/>
      </g>
     </g>
    </g>
    <g id="xtick_6">
     <g id="line2d_11">
      <path clip-path="url(#padb253bf9d)" d="M 401.800074 307.584 
L 401.800074 41.472 
" style="fill:none;stroke:#b0b0b0;stroke-linecap:square;stroke-width:0.8;"/>
     </g>
     <g id="line2d_12">
      <g>
       <use style="stroke:#000000;stroke-width:0.8;" x="401.800074" xlink:href="#m466533e80a" y="307.584"/>
      </g>
     </g>
     <g id="text_6">
      <!-- 1.0 -->
      <defs>
       <path d="M 12.40625 8.296875 
L 28.515625 8.296875 
L 28.515625 63.921875 
L 10.984375 60.40625 
L 10.984375 69.390625 
L 28.421875 72.90625 
L 38.28125 72.90625 
L 38.28125 8.296875 
L 54.390625 8.296875 
L 54.390625 0 
L 12.40625 0 
z
" id="DejaVuSans-49"/>
      </defs>
      <g transform="translate(393.848512 322.182437)scale(0.1 -0.1)">
       <use xlink:href="#DejaVuSans-49"/>
       <use x="63.623047" xlink:href="#DejaVuSans-46"/>
       <use x="95.410156" xlink:href="#DejaVuSans-48"/>
      </g>
     </g>
    </g>
    <g id="text_7">
     <!-- $\mathrm{Time \ (seconds)}$ -->
     <defs>
      <path d="M -0.296875 72.90625 
L 61.375 72.90625 
L 61.375 64.59375 
L 35.5 64.59375 
L 35.5 0 
L 25.59375 0 
L 25.59375 64.59375 
L -0.296875 64.59375 
z
" id="DejaVuSans-84"/>
      <path d="M 9.421875 54.6875 
L 18.40625 54.6875 
L 18.40625 0 
L 9.421875 0 
z
M 9.421875 75.984375 
L 18.40625 75.984375 
L 18.40625 64.59375 
L 9.421875 64.59375 
z
" id="DejaVuSans-105"/>
      <path d="M 52 44.1875 
Q 55.375 50.25 60.0625 53.125 
Q 64.75 56 71.09375 56 
Q 79.640625 56 84.28125 50.015625 
Q 88.921875 44.046875 88.921875 33.015625 
L 88.921875 0 
L 79.890625 0 
L 79.890625 32.71875 
Q 79.890625 40.578125 77.09375 44.375 
Q 74.3125 48.1875 68.609375 48.1875 
Q 61.625 48.1875 57.5625 43.546875 
Q 53.515625 38.921875 53.515625 30.90625 
L 53.515625 0 
L 44.484375 0 
L 44.484375 32.71875 
Q 44.484375 40.625 41.703125 44.40625 
Q 38.921875 48.1875 33.109375 48.1875 
Q 26.21875 48.1875 22.15625 43.53125 
Q 18.109375 38.875 18.109375 30.90625 
L 18.109375 0 
L 9.078125 0 
L 9.078125 54.6875 
L 18.109375 54.6875 
L 18.109375 46.1875 
Q 21.1875 51.21875 25.484375 53.609375 
Q 29.78125 56 35.6875 56 
Q 41.65625 56 45.828125 52.96875 
Q 50 49.953125 52 44.1875 
z
" id="DejaVuSans-109"/>
      <path d="M 56.203125 29.59375 
L 56.203125 25.203125 
L 14.890625 25.203125 
Q 15.484375 15.921875 20.484375 11.0625 
Q 25.484375 6.203125 34.421875 6.203125 
Q 39.59375 6.203125 44.453125 7.46875 
Q 49.3125 8.734375 54.109375 11.28125 
L 54.109375 2.78125 
Q 49.265625 0.734375 44.1875 -0.34375 
Q 39.109375 -1.421875 33.890625 -1.421875 
Q 20.796875 -1.421875 13.15625 6.1875 
Q 5.515625 13.8125 5.515625 26.8125 
Q 5.515625 40.234375 12.765625 48.109375 
Q 20.015625 56 32.328125 56 
Q 43.359375 56 49.78125 48.890625 
Q 56.203125 41.796875 56.203125 29.59375 
z
M 47.21875 32.234375 
Q 47.125 39.59375 43.09375 43.984375 
Q 39.0625 48.390625 32.421875 48.390625 
Q 24.90625 48.390625 20.390625 44.140625 
Q 15.875 39.890625 15.1875 32.171875 
z
" id="DejaVuSans-101"/>
      <path d="M 31 75.875 
Q 24.46875 64.65625 21.28125 53.65625 
Q 18.109375 42.671875 18.109375 31.390625 
Q 18.109375 20.125 21.3125 9.0625 
Q 24.515625 -2 31 -13.1875 
L 23.1875 -13.1875 
Q 15.875 -1.703125 12.234375 9.375 
Q 8.59375 20.453125 8.59375 31.390625 
Q 8.59375 42.28125 12.203125 53.3125 
Q 15.828125 64.359375 23.1875 75.875 
z
" id="DejaVuSans-40"/>
      <path d="M 44.28125 53.078125 
L 44.28125 44.578125 
Q 40.484375 46.53125 36.375 47.5 
Q 32.28125 48.484375 27.875 48.484375 
Q 21.1875 48.484375 17.84375 46.4375 
Q 14.5 44.390625 14.5 40.28125 
Q 14.5 37.15625 16.890625 35.375 
Q 19.28125 33.59375 26.515625 31.984375 
L 29.59375 31.296875 
Q 39.15625 29.25 43.1875 25.515625 
Q 47.21875 21.78125 47.21875 15.09375 
Q 47.21875 7.46875 41.1875 3.015625 
Q 35.15625 -1.421875 24.609375 -1.421875 
Q 20.21875 -1.421875 15.453125 -0.5625 
Q 10.6875 0.296875 5.421875 2 
L 5.421875 11.28125 
Q 10.40625 8.6875 15.234375 7.390625 
Q 20.0625 6.109375 24.8125 6.109375 
Q 31.15625 6.109375 34.5625 8.28125 
Q 37.984375 10.453125 37.984375 14.40625 
Q 37.984375 18.0625 35.515625 20.015625 
Q 33.0625 21.96875 24.703125 23.78125 
L 21.578125 24.515625 
Q 13.234375 26.265625 9.515625 29.90625 
Q 5.8125 33.546875 5.8125 39.890625 
Q 5.8125 47.609375 11.28125 51.796875 
Q 16.75 56 26.8125 56 
Q 31.78125 56 36.171875 55.265625 
Q 40.578125 54.546875 44.28125 53.078125 
z
" id="DejaVuSans-115"/>
      <path d="M 48.78125 52.59375 
L 48.78125 44.1875 
Q 44.96875 46.296875 41.140625 47.34375 
Q 37.3125 48.390625 33.40625 48.390625 
Q 24.65625 48.390625 19.8125 42.84375 
Q 14.984375 37.3125 14.984375 27.296875 
Q 14.984375 17.28125 19.8125 11.734375 
Q 24.65625 6.203125 33.40625 6.203125 
Q 37.3125 6.203125 41.140625 7.25 
Q 44.96875 8.296875 48.78125 10.40625 
L 48.78125 2.09375 
Q 45.015625 0.34375 40.984375 -0.53125 
Q 36.96875 -1.421875 32.421875 -1.421875 
Q 20.0625 -1.421875 12.78125 6.34375 
Q 5.515625 14.109375 5.515625 27.296875 
Q 5.515625 40.671875 12.859375 48.328125 
Q 20.21875 56 33.015625 56 
Q 37.15625 56 41.109375 55.140625 
Q 45.0625 54.296875 48.78125 52.59375 
z
" id="DejaVuSans-99"/>
      <path d="M 30.609375 48.390625 
Q 23.390625 48.390625 19.1875 42.75 
Q 14.984375 37.109375 14.984375 27.296875 
Q 14.984375 17.484375 19.15625 11.84375 
Q 23.34375 6.203125 30.609375 6.203125 
Q 37.796875 6.203125 41.984375 11.859375 
Q 46.1875 17.53125 46.1875 27.296875 
Q 46.1875 37.015625 41.984375 42.703125 
Q 37.796875 48.390625 30.609375 48.390625 
z
M 30.609375 56 
Q 42.328125 56 49.015625 48.375 
Q 55.71875 40.765625 55.71875 27.296875 
Q 55.71875 13.875 49.015625 6.21875 
Q 42.328125 -1.421875 30.609375 -1.421875 
Q 18.84375 -1.421875 12.171875 6.21875 
Q 5.515625 13.875 5.515625 27.296875 
Q 5.515625 40.765625 12.171875 48.375 
Q 18.84375 56 30.609375 56 
z
" id="DejaVuSans-111"/>
      <path d="M 54.890625 33.015625 
L 54.890625 0 
L 45.90625 0 
L 45.90625 32.71875 
Q 45.90625 40.484375 42.875 44.328125 
Q 39.84375 48.1875 33.796875 48.1875 
Q 26.515625 48.1875 22.3125 43.546875 
Q 18.109375 38.921875 18.109375 30.90625 
L 18.109375 0 
L 9.078125 0 
L 9.078125 54.6875 
L 18.109375 54.6875 
L 18.109375 46.1875 
Q 21.34375 51.125 25.703125 53.5625 
Q 30.078125 56 35.796875 56 
Q 45.21875 56 50.046875 50.171875 
Q 54.890625 44.34375 54.890625 33.015625 
z
" id="DejaVuSans-110"/>
      <path d="M 45.40625 46.390625 
L 45.40625 75.984375 
L 54.390625 75.984375 
L 54.390625 0 
L 45.40625 0 
L 45.40625 8.203125 
Q 42.578125 3.328125 38.25 0.953125 
Q 33.9375 -1.421875 27.875 -1.421875 
Q 17.96875 -1.421875 11.734375 6.484375 
Q 5.515625 14.40625 5.515625 27.296875 
Q 5.515625 40.1875 11.734375 48.09375 
Q 17.96875 56 27.875 56 
Q 33.9375 56 38.25 53.625 
Q 42.578125 51.265625 45.40625 46.390625 
z
M 14.796875 27.296875 
Q 14.796875 17.390625 18.875 11.75 
Q 22.953125 6.109375 30.078125 6.109375 
Q 37.203125 6.109375 41.296875 11.75 
Q 45.40625 17.390625 45.40625 27.296875 
Q 45.40625 37.203125 41.296875 42.84375 
Q 37.203125 48.484375 30.078125 48.484375 
Q 22.953125 48.484375 18.875 42.84375 
Q 14.796875 37.203125 14.796875 27.296875 
z
" id="DejaVuSans-100"/>
      <path d="M 8.015625 75.875 
L 15.828125 75.875 
Q 23.140625 64.359375 26.78125 53.3125 
Q 30.421875 42.28125 30.421875 31.390625 
Q 30.421875 20.453125 26.78125 9.375 
Q 23.140625 -1.703125 15.828125 -13.1875 
L 8.015625 -13.1875 
Q 14.5 -2 17.703125 9.0625 
Q 20.90625 20.125 20.90625 31.390625 
Q 20.90625 42.671875 17.703125 53.65625 
Q 14.5 64.65625 8.015625 75.875 
z
" id="DejaVuSans-41"/>
     </defs>
     <g transform="translate(197.76 335.860562)scale(0.1 -0.1)">
      <use transform="translate(0 0.015625)" xlink:href="#DejaVuSans-84"/>
      <use transform="translate(61.083984 0.015625)" xlink:href="#DejaVuSans-105"/>
      <use transform="translate(88.867188 0.015625)" xlink:href="#DejaVuSans-109"/>
      <use transform="translate(186.279297 0.015625)" xlink:href="#DejaVuSans-101"/>
      <use transform="translate(280.273113 0.015625)" xlink:href="#DejaVuSans-40"/>
      <use transform="translate(319.286785 0.015625)" xlink:href="#DejaVuSans-115"/>
      <use transform="translate(371.386394 0.015625)" xlink:href="#DejaVuSans-101"/>
      <use transform="translate(432.909832 0.015625)" xlink:href="#DejaVuSans-99"/>
      <use transform="translate(487.8903 0.015625)" xlink:href="#DejaVuSans-111"/>
      <use transform="translate(549.071941 0.015625)" xlink:href="#DejaVuSans-110"/>
      <use transform="translate(612.450847 0.015625)" xlink:href="#DejaVuSans-100"/>
      <use transform="translate(675.92741 0.015625)" xlink:href="#DejaVuSans-115"/>
      <use transform="translate(728.027019 0.015625)" xlink:href="#DejaVuSans-41"/>
     </g>
    </g>
   </g>
   <g id="matplotlib.axis_2">
    <g id="ytick_1">
     <g id="line2d_13">
      <path clip-path="url(#padb253bf9d)" d="M 57.6 201.153228 
L 414.72 201.153228 
" style="fill:none;stroke:#b0b0b0;stroke-linecap:square;stroke-width:0.8;"/>
     </g>
     <g id="line2d_14">
      <defs>
       <path d="M 0 0 
L -3.5 0 
" id="m61c84e7741" style="stroke:#000000;stroke-width:0.8;"/>
      </defs>
      <g>
       <use style="stroke:#000000;stroke-width:0.8;" x="57.6" xlink:href="#m61c84e7741" y="201.153228"/>
      </g>
     </g>
     <g id="text_8">
      <!-- $\mathdefault{10^{-1}}$ -->
      <defs>
       <path d="M 10.59375 35.5 
L 73.1875 35.5 
L 73.1875 27.203125 
L 10.59375 27.203125 
z
" id="DejaVuSans-8722"/>
      </defs>
      <g transform="translate(27.1 204.952447)scale(0.1 -0.1)">
       <use transform="translate(0 0.684375)" xlink:href="#DejaVuSans-49"/>
       <use transform="translate(63.623047 0.684375)" xlink:href="#DejaVuSans-48"/>
       <use transform="translate(128.203125 38.965625)scale(0.7)" xlink:href="#DejaVuSans-8722"/>
       <use transform="translate(186.855469 38.965625)scale(0.7)" xlink:href="#DejaVuSans-49"/>
      </g>
     </g>
    </g>
    <g id="ytick_2">
     <g id="line2d_15">
      <defs>
       <path d="M 0 0 
L -2 0 
" id="m02a864f742" style="stroke:#000000;stroke-width:0.6;"/>
      </defs>
      <g>
       <use style="stroke:#000000;stroke-width:0.6;" x="57.6" xlink:href="#m02a864f742" y="304.726326"/>
      </g>
     </g>
    </g>
    <g id="ytick_3">
     <g id="line2d_16">
      <g>
       <use style="stroke:#000000;stroke-width:0.6;" x="57.6" xlink:href="#m02a864f742" y="279.978156"/>
      </g>
     </g>
    </g>
    <g id="ytick_4">
     <g id="line2d_17">
      <g>
       <use style="stroke:#000000;stroke-width:0.6;" x="57.6" xlink:href="#m02a864f742" y="260.781984"/>
      </g>
     </g>
    </g>
    <g id="ytick_5">
     <g id="line2d_18">
      <g>
       <use style="stroke:#000000;stroke-width:0.6;" x="57.6" xlink:href="#m02a864f742" y="245.09757"/>
      </g>
     </g>
    </g>
    <g id="ytick_6">
     <g id="line2d_19">
      <g>
       <use style="stroke:#000000;stroke-width:0.6;" x="57.6" xlink:href="#m02a864f742" y="231.836586"/>
      </g>
     </g>
    </g>
    <g id="ytick_7">
     <g id="line2d_20">
      <g>
       <use style="stroke:#000000;stroke-width:0.6;" x="57.6" xlink:href="#m02a864f742" y="220.3494"/>
      </g>
     </g>
    </g>
    <g id="ytick_8">
     <g id="line2d_21">
      <g>
       <use style="stroke:#000000;stroke-width:0.6;" x="57.6" xlink:href="#m02a864f742" y="210.216983"/>
      </g>
     </g>
    </g>
    <g id="ytick_9">
     <g id="line2d_22">
      <g>
       <use style="stroke:#000000;stroke-width:0.6;" x="57.6" xlink:href="#m02a864f742" y="141.524471"/>
      </g>
     </g>
    </g>
    <g id="ytick_10">
     <g id="line2d_23">
      <g>
       <use style="stroke:#000000;stroke-width:0.6;" x="57.6" xlink:href="#m02a864f742" y="106.643885"/>
      </g>
     </g>
    </g>
    <g id="ytick_11">
     <g id="line2d_24">
      <g>
       <use style="stroke:#000000;stroke-width:0.6;" x="57.6" xlink:href="#m02a864f742" y="81.895715"/>
      </g>
     </g>
    </g>
    <g id="ytick_12">
     <g id="line2d_25">
      <g>
       <use style="stroke:#000000;stroke-width:0.6;" x="57.6" xlink:href="#m02a864f742" y="62.699543"/>
      </g>
     </g>
    </g>
    <g id="ytick_13">
     <g id="line2d_26">
      <g>
       <use style="stroke:#000000;stroke-width:0.6;" x="57.6" xlink:href="#m02a864f742" y="47.015128"/>
      </g>
     </g>
    </g>
    <g id="text_9">
     <!-- $\mathrm{Relative \ error}$ ($N_{\mathrm{train}}=1$) -->
     <defs>
      <path d="M 44.390625 34.1875 
Q 47.5625 33.109375 50.5625 29.59375 
Q 53.5625 26.078125 56.59375 19.921875 
L 66.609375 0 
L 56 0 
L 46.6875 18.703125 
Q 43.0625 26.03125 39.671875 28.421875 
Q 36.28125 30.8125 30.421875 30.8125 
L 19.671875 30.8125 
L 19.671875 0 
L 9.8125 0 
L 9.8125 72.90625 
L 32.078125 72.90625 
Q 44.578125 72.90625 50.734375 67.671875 
Q 56.890625 62.453125 56.890625 51.90625 
Q 56.890625 45.015625 53.6875 40.46875 
Q 50.484375 35.9375 44.390625 34.1875 
z
M 19.671875 64.796875 
L 19.671875 38.921875 
L 32.078125 38.921875 
Q 39.203125 38.921875 42.84375 42.21875 
Q 46.484375 45.515625 46.484375 51.90625 
Q 46.484375 58.296875 42.84375 61.546875 
Q 39.203125 64.796875 32.078125 64.796875 
z
" id="DejaVuSans-82"/>
      <path d="M 9.421875 75.984375 
L 18.40625 75.984375 
L 18.40625 0 
L 9.421875 0 
z
" id="DejaVuSans-108"/>
      <path d="M 34.28125 27.484375 
Q 23.390625 27.484375 19.1875 25 
Q 14.984375 22.515625 14.984375 16.5 
Q 14.984375 11.71875 18.140625 8.90625 
Q 21.296875 6.109375 26.703125 6.109375 
Q 34.1875 6.109375 38.703125 11.40625 
Q 43.21875 16.703125 43.21875 25.484375 
L 43.21875 27.484375 
z
M 52.203125 31.203125 
L 52.203125 0 
L 43.21875 0 
L 43.21875 8.296875 
Q 40.140625 3.328125 35.546875 0.953125 
Q 30.953125 -1.421875 24.3125 -1.421875 
Q 15.921875 -1.421875 10.953125 3.296875 
Q 6 8.015625 6 15.921875 
Q 6 25.140625 12.171875 29.828125 
Q 18.359375 34.515625 30.609375 34.515625 
L 43.21875 34.515625 
L 43.21875 35.40625 
Q 43.21875 41.609375 39.140625 45 
Q 35.0625 48.390625 27.6875 48.390625 
Q 23 48.390625 18.546875 47.265625 
Q 14.109375 46.140625 10.015625 43.890625 
L 10.015625 52.203125 
Q 14.9375 54.109375 19.578125 55.046875 
Q 24.21875 56 28.609375 56 
Q 40.484375 56 46.34375 49.84375 
Q 52.203125 43.703125 52.203125 31.203125 
z
" id="DejaVuSans-97"/>
      <path d="M 18.3125 70.21875 
L 18.3125 54.6875 
L 36.8125 54.6875 
L 36.8125 47.703125 
L 18.3125 47.703125 
L 18.3125 18.015625 
Q 18.3125 11.328125 20.140625 9.421875 
Q 21.96875 7.515625 27.59375 7.515625 
L 36.8125 7.515625 
L 36.8125 0 
L 27.59375 0 
Q 17.1875 0 13.234375 3.875 
Q 9.28125 7.765625 9.28125 18.015625 
L 9.28125 47.703125 
L 2.6875 47.703125 
L 2.6875 54.6875 
L 9.28125 54.6875 
L 9.28125 70.21875 
z
" id="DejaVuSans-116"/>
      <path d="M 2.984375 54.6875 
L 12.5 54.6875 
L 29.59375 8.796875 
L 46.6875 54.6875 
L 56.203125 54.6875 
L 35.6875 0 
L 23.484375 0 
z
" id="DejaVuSans-118"/>
      <path d="M 41.109375 46.296875 
Q 39.59375 47.171875 37.8125 47.578125 
Q 36.03125 48 33.890625 48 
Q 26.265625 48 22.1875 43.046875 
Q 18.109375 38.09375 18.109375 28.8125 
L 18.109375 0 
L 9.078125 0 
L 9.078125 54.6875 
L 18.109375 54.6875 
L 18.109375 46.1875 
Q 20.953125 51.171875 25.484375 53.578125 
Q 30.03125 56 36.53125 56 
Q 37.453125 56 38.578125 55.875 
Q 39.703125 55.765625 41.0625 55.515625 
z
" id="DejaVuSans-114"/>
      <path id="DejaVuSans-32"/>
      <path d="M 16.890625 72.90625 
L 30.171875 72.90625 
L 50.296875 10.40625 
L 62.5 72.90625 
L 72.125 72.90625 
L 57.90625 0 
L 44.578125 0 
L 24.515625 62.890625 
L 12.3125 0 
L 2.6875 0 
z
" id="DejaVuSans-Oblique-78"/>
      <path d="M 10.59375 45.40625 
L 73.1875 45.40625 
L 73.1875 37.203125 
L 10.59375 37.203125 
z
M 10.59375 25.484375 
L 73.1875 25.484375 
L 73.1875 17.1875 
L 10.59375 17.1875 
z
" id="DejaVuSans-61"/>
     </defs>
     <g transform="translate(21.020312 235.678)rotate(-90)scale(0.1 -0.1)">
      <use transform="translate(0 0.015625)" xlink:href="#DejaVuSans-82"/>
      <use transform="translate(69.482422 0.015625)" xlink:href="#DejaVuSans-101"/>
      <use transform="translate(131.005859 0.015625)" xlink:href="#DejaVuSans-108"/>
      <use transform="translate(158.789062 0.015625)" xlink:href="#DejaVuSans-97"/>
      <use transform="translate(220.068359 0.015625)" xlink:href="#DejaVuSans-116"/>
      <use transform="translate(259.277344 0.015625)" xlink:href="#DejaVuSans-105"/>
      <use transform="translate(287.060547 0.015625)" xlink:href="#DejaVuSans-118"/>
      <use transform="translate(346.240234 0.015625)" xlink:href="#DejaVuSans-101"/>
      <use transform="translate(440.23405 0.015625)" xlink:href="#DejaVuSans-101"/>
      <use transform="translate(501.757488 0.015625)" xlink:href="#DejaVuSans-114"/>
      <use transform="translate(542.870769 0.015625)" xlink:href="#DejaVuSans-114"/>
      <use transform="translate(583.98405 0.015625)" xlink:href="#DejaVuSans-111"/>
      <use transform="translate(645.165691 0.015625)" xlink:href="#DejaVuSans-114"/>
      <use transform="translate(686.278972 0.015625)" xlink:href="#DejaVuSans-32"/>
      <use transform="translate(718.066082 0.015625)" xlink:href="#DejaVuSans-40"/>
      <use transform="translate(757.079753 0.015625)" xlink:href="#DejaVuSans-Oblique-78"/>
      <use transform="translate(831.884441 -16.390625)scale(0.7)" xlink:href="#DejaVuSans-116"/>
      <use transform="translate(859.33073 -16.390625)scale(0.7)" xlink:href="#DejaVuSans-114"/>
      <use transform="translate(888.110027 -16.390625)scale(0.7)" xlink:href="#DejaVuSans-97"/>
      <use transform="translate(931.005535 -16.390625)scale(0.7)" xlink:href="#DejaVuSans-105"/>
      <use transform="translate(950.453777 -16.390625)scale(0.7)" xlink:href="#DejaVuSans-110"/>
      <use transform="translate(1017.035808 0.015625)" xlink:href="#DejaVuSans-61"/>
      <use transform="translate(1120.307292 0.015625)" xlink:href="#DejaVuSans-49"/>
      <use transform="translate(1183.930339 0.015625)" xlink:href="#DejaVuSans-41"/>
     </g>
    </g>
   </g>
   <g id="line2d_27">
    <path clip-path="url(#padb253bf9d)" d="M 73.832724 269.704169 
L 77.145522 236.613222 
L 80.458321 212.114671 
L 83.771119 192.63597 
L 87.083917 176.592647 
L 90.396716 163.12498 
L 93.709554 151.688719 
L 97.022352 141.896959 
L 100.33515 133.454555 
L 103.647949 126.128775 
L 106.960747 119.733128 
L 110.273545 114.117182 
L 113.586344 109.159084 
L 116.899142 104.75967 
L 120.21194 100.837929 
L 123.524738 97.327323 
L 126.837537 94.1728 
L 130.150375 91.328773 
L 133.463173 88.757052 
L 136.775971 86.425739 
L 140.08877 84.308076 
L 143.401568 82.38147 
L 146.714366 80.626768 
L 150.027165 79.027678 
L 153.339963 77.570433 
L 156.652761 76.243245 
L 159.96556 75.03623 
L 163.278358 73.940905 
L 166.591156 72.950046 
L 169.903955 72.057515 
L 173.216753 71.258014 
L 176.529551 70.547136 
L 179.842389 69.920961 
L 183.155187 69.376253 
L 186.467986 68.910385 
L 189.780784 68.521287 
L 193.093582 68.20737 
L 196.406381 67.967509 
L 199.719179 67.800984 
L 203.031977 67.707219 
L 206.344776 67.685726 
L 209.657574 67.735931 
L 212.970412 67.856808 
L 216.28321 68.046634 
L 219.596008 68.302509 
L 226.221605 68.990834 
L 232.847202 69.849811 
L 242.785597 71.169368 
L 246.098395 71.534978 
L 249.411193 71.832836 
L 252.723992 72.051421 
L 256.03679 72.184928 
L 259.349588 72.232725 
L 262.662387 72.198269 
L 265.975185 72.087717 
L 269.288023 71.908893 
L 275.913619 71.379954 
L 282.539216 70.67642 
L 289.164852 69.854063 
L 299.103247 68.491105 
L 328.918432 64.265581 
L 338.856827 62.969547 
L 348.795222 61.775168 
L 358.733656 60.70095 
L 368.672051 59.761569 
L 378.610486 58.967997 
L 388.548881 58.33039 
L 395.174478 57.997348 
L 398.487276 57.859708 
" style="fill:none;stroke:#ff0000;stroke-linecap:square;stroke-width:1.5;"/>
   </g>
   <g id="line2d_28">
    <path clip-path="url(#padb253bf9d)" d="M 73.832724 270.324212 
L 77.145522 237.307786 
L 80.458321 212.882741 
L 83.771119 193.477639 
L 87.083917 177.507516 
L 90.396716 164.111428 
L 93.709554 152.743949 
L 97.022352 143.017458 
L 100.33515 134.636637 
L 103.647949 127.368759 
L 106.960747 121.027741 
L 110.273545 115.463494 
L 113.586344 110.55465 
L 116.899142 106.202482 
L 120.21194 102.326366 
L 123.524738 98.859986 
L 126.837537 95.748703 
L 130.150375 92.947039 
L 133.463173 90.417203 
L 136.775971 88.127544 
L 140.08877 86.051515 
L 143.401568 84.166681 
L 146.714366 82.454105 
L 150.027165 80.897659 
L 153.339963 79.483651 
L 156.652761 78.200529 
L 159.96556 77.038493 
L 163.278358 75.989215 
L 166.591156 75.045652 
L 169.903955 74.201785 
L 173.216753 73.452587 
L 176.529551 72.793774 
L 179.842389 72.221698 
L 183.155187 71.733446 
L 186.467986 71.326682 
L 189.780784 70.999759 
L 193.093582 70.751556 
L 196.406381 70.581352 
L 199.719179 70.488696 
L 203.031977 70.473395 
L 206.344776 70.535306 
L 209.657574 70.674034 
L 212.970412 70.888682 
L 216.28321 71.177279 
L 219.596008 71.536273 
L 226.221605 72.438393 
L 242.785597 75.043243 
L 246.098395 75.446065 
L 249.411193 75.762201 
L 252.723992 75.98213 
L 256.03679 76.103007 
L 259.349588 76.127332 
L 262.662387 76.061402 
L 265.975185 75.913746 
L 269.288023 75.693956 
L 275.913619 75.076566 
L 282.539216 74.280917 
L 289.164852 73.366115 
L 299.103247 71.867145 
L 328.918432 67.266666 
L 338.856827 65.858466 
L 348.795222 64.558555 
L 358.733656 63.386014 
L 368.672051 62.357467 
L 378.610486 61.486637 
L 385.236083 60.999892 
L 391.861679 60.592846 
L 398.487276 60.270055 
" style="fill:none;stroke:#0000ff;stroke-linecap:square;stroke-width:1.5;"/>
   </g>
   <g id="line2d_29">
    <path clip-path="url(#padb253bf9d)" d="M 73.832724 286.335327 
L 77.145522 252.699528 
L 80.458321 227.690195 
L 83.771119 207.747492 
L 87.083917 191.297171 
L 90.396716 177.484566 
L 93.709554 165.765729 
L 97.022352 155.750441 
L 100.33515 147.138775 
L 103.647949 139.692096 
L 106.960747 133.217341 
L 110.273545 127.557477 
L 113.586344 122.584757 
L 116.899142 118.194739 
L 120.21194 114.301769 
L 123.524738 110.835645 
L 126.837537 107.73862 
L 130.150375 104.962884 
L 133.463173 102.46866 
L 136.775971 100.22283 
L 140.08877 98.19735 
L 143.401568 96.368151 
L 146.714366 94.714535 
L 150.027165 93.218729 
L 153.339963 91.865647 
L 156.652761 90.64252 
L 159.96556 89.538766 
L 163.278358 88.54569 
L 166.591156 87.656199 
L 169.903955 86.864449 
L 173.216753 86.165446 
L 176.529551 85.554881 
L 179.842389 85.029512 
L 183.155187 84.586903 
L 186.467986 84.225475 
L 189.780784 83.944245 
L 193.093582 83.742753 
L 196.406381 83.621095 
L 199.719179 83.57975 
L 203.031977 83.619395 
L 206.344776 83.740697 
L 209.657574 83.944009 
L 212.970412 84.228663 
L 216.28321 84.592359 
L 219.596008 85.030077 
L 226.221605 86.087167 
L 239.472798 88.375176 
L 242.785597 88.840975 
L 246.098395 89.224001 
L 249.411193 89.513195 
L 252.723992 89.703091 
L 256.03679 89.793156 
L 259.349588 89.786967 
L 262.662387 89.691077 
L 265.975185 89.513951 
L 269.288023 89.265021 
L 275.913619 88.589964 
L 282.539216 87.737477 
L 289.164852 86.767352 
L 299.103247 85.190645 
L 322.292835 81.441071 
L 332.23123 79.943119 
L 342.169625 78.562874 
L 352.10806 77.327427 
L 358.733656 76.596596 
L 365.359253 75.947659 
L 371.984889 75.386133 
L 378.610486 74.916936 
L 385.236083 74.545126 
L 391.861679 74.275977 
L 398.487276 74.115266 
" style="fill:none;stroke:#00ffff;stroke-linecap:square;stroke-width:1.5;"/>
   </g>
   <g id="patch_3">
    <path d="M 57.6 307.584 
L 57.6 41.472 
" style="fill:none;stroke:#000000;stroke-linecap:square;stroke-linejoin:miter;stroke-width:0.8;"/>
   </g>
   <g id="patch_4">
    <path d="M 414.72 307.584 
L 414.72 41.472 
" style="fill:none;stroke:#000000;stroke-linecap:square;stroke-linejoin:miter;stroke-width:0.8;"/>
   </g>
   <g id="patch_5">
    <path d="M 57.6 307.584 
L 414.72 307.584 
" style="fill:none;stroke:#000000;stroke-linecap:square;stroke-linejoin:miter;stroke-width:0.8;"/>
   </g>
   <g id="patch_6">
    <path d="M 57.6 41.472 
L 414.72 41.472 
" style="fill:none;stroke:#000000;stroke-linecap:square;stroke-linejoin:miter;stroke-width:0.8;"/>
   </g>
   <g id="legend_1">
    <g id="patch_7">
     <path d="M 282.559063 302.584 
L 407.72 302.584 
Q 409.72 302.584 409.72 300.584 
L 409.72 257.549625 
Q 409.72 255.549625 407.72 255.549625 
L 282.559063 255.549625 
Q 280.559063 255.549625 280.559063 257.549625 
L 280.559063 300.584 
Q 280.559063 302.584 282.559063 302.584 
z
" style="fill:#ffffff;opacity:0.8;stroke:#cccccc;stroke-linejoin:miter;"/>
    </g>
    <g id="line2d_30">
     <path d="M 284.559063 263.648062 
L 304.559063 263.648062 
" style="fill:none;stroke:#ff0000;stroke-linecap:square;stroke-width:1.5;"/>
    </g>
    <g id="line2d_31"/>
    <g id="text_10">
     <!-- No denoising -->
     <defs>
      <path d="M 9.8125 72.90625 
L 23.09375 72.90625 
L 55.421875 11.921875 
L 55.421875 72.90625 
L 64.984375 72.90625 
L 64.984375 0 
L 51.703125 0 
L 19.390625 60.984375 
L 19.390625 0 
L 9.8125 0 
z
" id="DejaVuSans-78"/>
      <path d="M 45.40625 27.984375 
Q 45.40625 37.75 41.375 43.109375 
Q 37.359375 48.484375 30.078125 48.484375 
Q 22.859375 48.484375 18.828125 43.109375 
Q 14.796875 37.75 14.796875 27.984375 
Q 14.796875 18.265625 18.828125 12.890625 
Q 22.859375 7.515625 30.078125 7.515625 
Q 37.359375 7.515625 41.375 12.890625 
Q 45.40625 18.265625 45.40625 27.984375 
z
M 54.390625 6.78125 
Q 54.390625 -7.171875 48.1875 -13.984375 
Q 42 -20.796875 29.203125 -20.796875 
Q 24.46875 -20.796875 20.265625 -20.09375 
Q 16.0625 -19.390625 12.109375 -17.921875 
L 12.109375 -9.1875 
Q 16.0625 -11.328125 19.921875 -12.34375 
Q 23.78125 -13.375 27.78125 -13.375 
Q 36.625 -13.375 41.015625 -8.765625 
Q 45.40625 -4.15625 45.40625 5.171875 
L 45.40625 9.625 
Q 42.625 4.78125 38.28125 2.390625 
Q 33.9375 0 27.875 0 
Q 17.828125 0 11.671875 7.65625 
Q 5.515625 15.328125 5.515625 27.984375 
Q 5.515625 40.671875 11.671875 48.328125 
Q 17.828125 56 27.875 56 
Q 33.9375 56 38.28125 53.609375 
Q 42.625 51.21875 45.40625 46.390625 
L 45.40625 54.6875 
L 54.390625 54.6875 
z
" id="DejaVuSans-103"/>
     </defs>
     <g transform="translate(312.559063 267.148062)scale(0.1 -0.1)">
      <use xlink:href="#DejaVuSans-78"/>
      <use x="74.804688" xlink:href="#DejaVuSans-111"/>
      <use x="135.986328" xlink:href="#DejaVuSans-32"/>
      <use x="167.773438" xlink:href="#DejaVuSans-100"/>
      <use x="231.25" xlink:href="#DejaVuSans-101"/>
      <use x="292.773438" xlink:href="#DejaVuSans-110"/>
      <use x="356.152344" xlink:href="#DejaVuSans-111"/>
      <use x="417.333984" xlink:href="#DejaVuSans-105"/>
      <use x="445.117188" xlink:href="#DejaVuSans-115"/>
      <use x="497.216797" xlink:href="#DejaVuSans-105"/>
      <use x="525" xlink:href="#DejaVuSans-110"/>
      <use x="588.378906" xlink:href="#DejaVuSans-103"/>
     </g>
    </g>
    <g id="line2d_32">
     <path d="M 284.559063 278.326188 
L 304.559063 278.326188 
" style="fill:none;stroke:#0000ff;stroke-linecap:square;stroke-width:1.5;"/>
    </g>
    <g id="line2d_33"/>
    <g id="text_11">
     <!-- With denoising -->
     <defs>
      <path d="M 3.328125 72.90625 
L 13.28125 72.90625 
L 28.609375 11.28125 
L 43.890625 72.90625 
L 54.984375 72.90625 
L 70.3125 11.28125 
L 85.59375 72.90625 
L 95.609375 72.90625 
L 77.296875 0 
L 64.890625 0 
L 49.515625 63.28125 
L 33.984375 0 
L 21.578125 0 
z
" id="DejaVuSans-87"/>
      <path d="M 54.890625 33.015625 
L 54.890625 0 
L 45.90625 0 
L 45.90625 32.71875 
Q 45.90625 40.484375 42.875 44.328125 
Q 39.84375 48.1875 33.796875 48.1875 
Q 26.515625 48.1875 22.3125 43.546875 
Q 18.109375 38.921875 18.109375 30.90625 
L 18.109375 0 
L 9.078125 0 
L 9.078125 75.984375 
L 18.109375 75.984375 
L 18.109375 46.1875 
Q 21.34375 51.125 25.703125 53.5625 
Q 30.078125 56 35.796875 56 
Q 45.21875 56 50.046875 50.171875 
Q 54.890625 44.34375 54.890625 33.015625 
z
" id="DejaVuSans-104"/>
     </defs>
     <g transform="translate(312.559063 281.826188)scale(0.1 -0.1)">
      <use xlink:href="#DejaVuSans-87"/>
      <use x="98.845703" xlink:href="#DejaVuSans-105"/>
      <use x="126.628906" xlink:href="#DejaVuSans-116"/>
      <use x="165.837891" xlink:href="#DejaVuSans-104"/>
      <use x="229.216797" xlink:href="#DejaVuSans-32"/>
      <use x="261.003906" xlink:href="#DejaVuSans-100"/>
      <use x="324.480469" xlink:href="#DejaVuSans-101"/>
      <use x="386.003906" xlink:href="#DejaVuSans-110"/>
      <use x="449.382812" xlink:href="#DejaVuSans-111"/>
      <use x="510.564453" xlink:href="#DejaVuSans-105"/>
      <use x="538.347656" xlink:href="#DejaVuSans-115"/>
      <use x="590.447266" xlink:href="#DejaVuSans-105"/>
      <use x="618.230469" xlink:href="#DejaVuSans-110"/>
      <use x="681.609375" xlink:href="#DejaVuSans-103"/>
     </g>
    </g>
    <g id="line2d_34">
     <path d="M 284.559063 293.004312 
L 304.559063 293.004312 
" style="fill:none;stroke:#00ffff;stroke-linecap:square;stroke-width:1.5;"/>
    </g>
    <g id="line2d_35"/>
    <g id="text_12">
     <!-- With big denoising -->
     <defs>
      <path d="M 48.6875 27.296875 
Q 48.6875 37.203125 44.609375 42.84375 
Q 40.53125 48.484375 33.40625 48.484375 
Q 26.265625 48.484375 22.1875 42.84375 
Q 18.109375 37.203125 18.109375 27.296875 
Q 18.109375 17.390625 22.1875 11.75 
Q 26.265625 6.109375 33.40625 6.109375 
Q 40.53125 6.109375 44.609375 11.75 
Q 48.6875 17.390625 48.6875 27.296875 
z
M 18.109375 46.390625 
Q 20.953125 51.265625 25.265625 53.625 
Q 29.59375 56 35.59375 56 
Q 45.5625 56 51.78125 48.09375 
Q 58.015625 40.1875 58.015625 27.296875 
Q 58.015625 14.40625 51.78125 6.484375 
Q 45.5625 -1.421875 35.59375 -1.421875 
Q 29.59375 -1.421875 25.265625 0.953125 
Q 20.953125 3.328125 18.109375 8.203125 
L 18.109375 0 
L 9.078125 0 
L 9.078125 75.984375 
L 18.109375 75.984375 
z
" id="DejaVuSans-98"/>
     </defs>
     <g transform="translate(312.559063 296.504312)scale(0.1 -0.1)">
      <use xlink:href="#DejaVuSans-87"/>
      <use x="98.845703" xlink:href="#DejaVuSans-105"/>
      <use x="126.628906" xlink:href="#DejaVuSans-116"/>
      <use x="165.837891" xlink:href="#DejaVuSans-104"/>
      <use x="229.216797" xlink:href="#DejaVuSans-32"/>
      <use x="261.003906" xlink:href="#DejaVuSans-98"/>
      <use x="324.480469" xlink:href="#DejaVuSans-105"/>
      <use x="352.263672" xlink:href="#DejaVuSans-103"/>
      <use x="415.740234" xlink:href="#DejaVuSans-32"/>
      <use x="447.527344" xlink:href="#DejaVuSans-100"/>
      <use x="511.003906" xlink:href="#DejaVuSans-101"/>
      <use x="572.527344" xlink:href="#DejaVuSans-110"/>
      <use x="635.90625" xlink:href="#DejaVuSans-111"/>
      <use x="697.087891" xlink:href="#DejaVuSans-105"/>
      <use x="724.871094" xlink:href="#DejaVuSans-115"/>
      <use x="776.970703" xlink:href="#DejaVuSans-105"/>
      <use x="804.753906" xlink:href="#DejaVuSans-110"/>
      <use x="868.132812" xlink:href="#DejaVuSans-103"/>
     </g>
    </g>
   </g>
  </g>
 </g>
 <defs>
  <clipPath id="padb253bf9d">
   <rect height="266.112" width="357.12" x="57.6" y="41.472"/>
  </clipPath>
 </defs>
</svg>
