<?xml version="1.0" encoding="utf-8" standalone="no"?>
<!DOCTYPE svg PUBLIC "-//W3C//DTD SVG 1.1//EN"
  "http://www.w3.org/Graphics/SVG/1.1/DTD/svg11.dtd">
<!-- Created with matplotlib (https://matplotlib.org/) -->
<svg height="345.6pt" version="1.1" viewBox="0 0 460.8 345.6" width="460.8pt" xmlns="http://www.w3.org/2000/svg" xmlns:xlink="http://www.w3.org/1999/xlink">
 <defs>
  <style type="text/css">
*{stroke-linecap:butt;stroke-linejoin:round;white-space:pre;}
  </style>
 </defs>
 <g id="figure_1">
  <g id="patch_1">
   <path d="M 0 345.6 
L 460.8 345.6 
L 460.8 0 
L 0 0 
z
" style="fill:#ffffff;"/>
  </g>
  <g id="axes_1">
   <g id="patch_2">
    <path d="M 57.6 307.584 
L 414.72 307.584 
L 414.72 41.472 
L 57.6 41.472 
z
" style="fill:#ffffff;"/>
   </g>
   <g id="PolyCollection_1">
    <path clip-path="url(#pb325921d8f)" d="M 73.832727 273.329679 
L 73.832727 284.520586 
L 77.145529 249.308123 
L 80.45833 223.146294 
L 83.771132 202.274656 
L 87.083933 185.030653 
L 90.396735 170.516768 
L 93.709536 158.166871 
L 97.022338 147.579083 
L 100.335139 138.44585 
L 103.647941 130.522226 
L 106.960742 123.609829 
L 110.273544 117.547359 
L 113.586345 112.203378 
L 116.899147 107.470306 
L 120.211948 103.259663 
L 123.52475 99.498392 
L 126.837551 96.125954 
L 130.150353 93.091902 
L 133.463154 90.354108 
L 136.775955 87.87724 
L 140.088757 85.631493 
L 143.401558 83.591692 
L 146.71436 81.736537 
L 150.027161 80.047876 
L 153.339963 78.510151 
L 156.652764 77.110039 
L 159.965566 75.836132 
L 163.278367 74.678603 
L 166.591169 73.629085 
L 169.90397 72.680699 
L 173.216772 71.82798 
L 176.529573 71.066674 
L 179.842375 70.393574 
L 183.155176 69.806375 
L 186.467978 69.303621 
L 189.780779 68.884631 
L 193.093581 68.549379 
L 196.406382 68.298375 
L 199.719184 68.132572 
L 203.031985 68.053248 
L 206.344787 68.061821 
L 209.657588 68.159569 
L 212.97039 68.347188 
L 216.283191 68.624147 
L 219.595993 68.98774 
L 222.908794 69.431939 
L 226.221596 69.946052 
L 229.534397 70.513567 
L 232.847199 71.111676 
L 236.16 71.71224 
L 239.472801 72.284564 
L 242.785603 72.799485 
L 246.098404 73.233416 
L 249.411206 73.570892 
L 252.724007 73.805117 
L 256.036809 73.936863 
L 259.34961 73.972569 
L 262.662412 73.922285 
L 265.975213 73.797906 
L 269.288015 73.611834 
L 272.600816 73.376068 
L 275.913618 73.101638 
L 279.226419 72.798297 
L 282.539221 72.474356 
L 285.852022 72.13665 
L 289.164824 71.79057 
L 292.477625 71.44017 
L 295.790427 71.088319 
L 299.103228 70.736908 
L 302.41603 70.38708 
L 305.728831 70.039445 
L 309.041633 69.694253 
L 312.354434 69.351536 
L 315.667236 69.011214 
L 318.980037 68.673192 
L 322.292839 68.337377 
L 325.60564 68.003689 
L 328.918442 67.67209 
L 332.231243 67.342647 
L 335.544045 67.015567 
L 338.856846 66.691219 
L 342.169647 66.370109 
L 345.482449 66.052863 
L 348.79525 65.740197 
L 352.108052 65.432897 
L 355.420853 65.131789 
L 358.733655 64.837727 
L 362.046456 64.551572 
L 365.359258 64.274178 
L 368.672059 64.006384 
L 371.984861 63.749009 
L 375.297662 63.502851 
L 378.610464 63.268679 
L 381.923265 63.047239 
L 385.236067 62.839264 
L 388.548868 62.645469 
L 391.86167 62.466583 
L 395.174471 62.303365 
L 398.487273 62.156627 
L 398.487273 53.568 
L 398.487273 53.568 
L 395.174471 53.699321 
L 391.86167 53.856479 
L 388.548868 54.038785 
L 385.236067 54.24555 
L 381.923265 54.476057 
L 378.610464 54.729543 
L 375.297662 55.005185 
L 371.984861 55.302103 
L 368.672059 55.61936 
L 365.359258 55.95597 
L 362.046456 56.310902 
L 358.733655 56.683088 
L 355.420853 57.071425 
L 352.108052 57.474765 
L 348.79525 57.891914 
L 345.482449 58.321619 
L 342.169647 58.762554 
L 338.856846 59.213301 
L 335.544045 59.672334 
L 332.231243 60.137998 
L 328.918442 60.608477 
L 325.60564 61.081764 
L 322.292839 61.555607 
L 318.980037 62.027468 
L 315.667236 62.494476 
L 312.354434 62.953369 
L 309.041633 63.400447 
L 305.728831 63.831544 
L 302.41603 64.242024 
L 299.103228 64.626797 
L 295.790427 64.98036 
L 292.477625 65.296877 
L 289.164824 65.570305 
L 285.852022 65.794543 
L 282.539221 65.963609 
L 279.226419 66.071853 
L 275.913618 66.114235 
L 272.600816 66.086694 
L 269.288015 65.986629 
L 265.975213 65.813505 
L 262.662412 65.569486 
L 259.34961 65.259946 
L 256.036809 64.893695 
L 252.724007 64.482696 
L 249.411206 64.041274 
L 246.098404 63.584956 
L 242.785603 63.129187 
L 239.472801 62.688218 
L 236.16 62.274375 
L 232.847199 61.897669 
L 229.534397 61.565672 
L 226.221596 61.283713 
L 222.908794 61.055337 
L 219.595993 60.882856 
L 216.283191 60.767825 
L 212.97039 60.711379 
L 209.657588 60.714483 
L 206.344787 60.778098 
L 203.031985 60.903279 
L 199.719184 61.091213 
L 196.406382 61.343259 
L 193.093581 61.660936 
L 189.780779 62.04594 
L 186.467978 62.500188 
L 183.155176 63.025841 
L 179.842375 63.625383 
L 176.529573 64.301721 
L 173.216772 65.058268 
L 169.90397 65.899078 
L 166.591169 66.828999 
L 163.278367 67.853828 
L 159.965566 68.980481 
L 156.652764 70.217078 
L 153.339963 71.573012 
L 150.027161 73.059184 
L 146.71436 74.688316 
L 143.401558 76.475183 
L 140.088757 78.437049 
L 136.775955 80.594246 
L 133.463154 82.97088 
L 130.150353 85.59557 
L 126.837551 88.502368 
L 123.52475 91.731968 
L 120.211948 95.333149 
L 116.899147 99.364723 
L 113.586345 103.897936 
L 110.273544 109.019682 
L 106.960742 114.836557 
L 103.647941 121.480206 
L 100.335139 129.113841 
L 97.022338 137.940244 
L 93.709536 148.213142 
L 90.396735 160.254191 
L 87.083933 174.483084 
L 83.771132 191.483715 
L 80.45833 212.166666 
L 77.145529 238.197707 
L 73.832727 273.329679 
z
" style="fill:#ff0000;fill-opacity:0.4;"/>
   </g>
   <g id="PolyCollection_2">
    <path clip-path="url(#pb325921d8f)" d="M 73.832727 274.431567 
L 73.832727 285.724133 
L 77.145529 250.550559 
L 80.45833 224.430359 
L 83.771132 203.600673 
L 87.083933 186.398204 
L 90.396735 171.924546 
L 93.709536 159.613351 
L 97.022338 149.063349 
L 100.335139 139.967329 
L 103.647941 132.080634 
L 106.960742 125.205137 
L 110.273544 119.17954 
L 113.586345 113.872274 
L 116.899147 109.175667 
L 120.211948 105.00126 
L 123.52475 101.276051 
L 126.837551 97.939533 
L 130.150353 94.941292 
L 133.463154 92.239286 
L 136.775955 89.798345 
L 140.088757 87.588847 
L 143.401558 85.585754 
L 146.71436 83.767891 
L 150.027161 82.117311 
L 153.339963 80.61864 
L 156.652764 79.258695 
L 159.965566 78.026184 
L 163.278367 76.911344 
L 166.591169 75.905825 
L 169.90397 75.002774 
L 173.216772 74.196767 
L 176.529573 73.483586 
L 179.842375 72.860128 
L 183.155176 72.324233 
L 186.467978 71.874569 
L 189.780779 71.510631 
L 193.093581 71.232617 
L 196.406382 71.041293 
L 199.719184 70.93789 
L 203.031985 70.923963 
L 206.344787 71.001179 
L 209.657588 71.170951 
L 212.97039 71.43387 
L 216.283191 71.7889 
L 219.595993 72.232298 
L 222.908794 72.756177 
L 226.221596 73.34697 
L 229.534397 73.984287 
L 232.847199 74.640945 
L 236.16 75.284943 
L 239.472801 75.883386 
L 242.785603 76.407257 
L 246.098404 76.835278 
L 249.411206 77.155637 
L 252.724007 77.365548 
L 256.036809 77.469452 
L 259.34961 77.476736 
L 262.662412 77.399589 
L 265.975213 77.25128 
L 269.288015 77.044915 
L 272.600816 76.792633 
L 275.913618 76.505155 
L 279.226419 76.191579 
L 282.539221 75.859346 
L 285.852022 75.514342 
L 289.164824 75.161062 
L 292.477625 74.80283 
L 295.790427 74.442047 
L 299.103228 74.080407 
L 302.41603 73.719069 
L 305.728831 73.35882 
L 309.041633 73.000199 
L 312.354434 72.643596 
L 315.667236 72.289304 
L 318.980037 71.937569 
L 322.292839 71.588624 
L 325.60564 71.2427 
L 328.918442 70.900007 
L 332.231243 70.560742 
L 335.544045 70.225122 
L 338.856846 69.893442 
L 342.169647 69.566112 
L 345.482449 69.243664 
L 348.79525 68.926726 
L 352.108052 68.616011 
L 355.420853 68.312287 
L 358.733655 68.016353 
L 362.046456 67.729028 
L 365.359258 67.451135 
L 368.672059 67.183489 
L 371.984861 66.926893 
L 375.297662 66.68213 
L 378.610464 66.449964 
L 381.923265 66.231134 
L 385.236067 66.026376 
L 388.548868 65.836423 
L 391.86167 65.662016 
L 395.174471 65.503925 
L 398.487273 65.362967 
L 398.487273 55.454408 
L 398.487273 55.454408 
L 395.174471 55.601519 
L 391.86167 55.775603 
L 388.548868 55.975886 
L 385.236067 56.201606 
L 381.923265 56.451978 
L 378.610464 56.72619 
L 375.297662 57.02339 
L 371.984861 57.342689 
L 368.672059 57.683153 
L 365.359258 58.04381 
L 362.046456 58.423661 
L 358.733655 58.82168 
L 355.420853 59.236816 
L 352.108052 59.667994 
L 348.79525 60.114109 
L 345.482449 60.574019 
L 342.169647 61.046538 
L 338.856846 61.53042 
L 335.544045 62.024342 
L 332.231243 62.52688 
L 328.918442 63.036474 
L 325.60564 63.55139 
L 322.292839 64.069685 
L 318.980037 64.589159 
L 315.667236 65.107306 
L 312.354434 65.62125 
L 309.041633 66.127688 
L 305.728831 66.622839 
L 302.41603 67.102378 
L 299.103228 67.561378 
L 295.790427 67.994284 
L 292.477625 68.394909 
L 289.164824 68.756475 
L 285.852022 69.071716 
L 282.539221 69.33304 
L 279.226419 69.532775 
L 275.913618 69.663484 
L 272.600816 69.718384 
L 269.288015 69.691902 
L 265.975213 69.580354 
L 262.662412 69.382752 
L 259.34961 69.101617 
L 256.036809 68.743594 
L 252.724007 68.319606 
L 249.411206 67.84432 
L 246.098404 67.334937 
L 242.785603 66.809624 
L 239.472801 66.286011 
L 236.16 65.780045 
L 232.847199 65.305237 
L 229.534397 64.872288 
L 226.221596 64.489102 
L 222.908794 64.161148 
L 219.595993 63.892037 
L 216.283191 63.684118 
L 212.97039 63.538979 
L 209.657588 63.457824 
L 206.344787 63.441721 
L 203.031985 63.491684 
L 199.719184 63.608767 
L 196.406382 63.794123 
L 193.093581 64.049039 
L 189.780779 64.374954 
L 186.467978 64.7735 
L 183.155176 65.246581 
L 179.842375 65.796445 
L 176.529573 66.425779 
L 173.216772 67.137791 
L 169.90397 67.936356 
L 166.591169 68.826143 
L 163.278367 69.812795 
L 159.965566 70.903081 
L 156.652764 72.104962 
L 153.339963 73.427652 
L 150.027161 74.88183 
L 146.71436 76.480005 
L 143.401558 78.236733 
L 140.088757 80.169126 
L 136.775955 82.297398 
L 133.463154 84.645478 
L 130.150353 87.241769 
L 126.837551 90.120213 
L 123.52475 93.321464 
L 120.211948 96.894259 
L 116.899147 100.897336 
L 113.586345 105.401901 
L 110.273544 110.494811 
L 106.960742 116.282657 
L 103.647941 122.896958 
L 100.335139 130.500562 
L 97.022338 139.295847 
L 93.709536 149.536127 
L 90.396735 161.542574 
L 87.083933 175.734861 
L 83.771132 192.697388 
L 80.45833 213.341559 
L 77.145529 239.334145 
L 73.832727 274.431567 
z
" style="fill:#0000ff;fill-opacity:0.4;"/>
   </g>
   <g id="PolyCollection_3">
    <path clip-path="url(#pb325921d8f)" d="M 73.832727 283.628154 
L 73.832727 295.488 
L 77.145529 259.900966 
L 80.45833 233.406438 
L 83.771132 212.256128 
L 87.083933 194.789985 
L 90.396735 180.110928 
L 93.709536 167.651489 
L 97.022338 157.005258 
L 100.335139 147.858552 
L 103.647941 139.959898 
L 106.960742 133.104505 
L 110.273544 127.125204 
L 113.586345 121.885406 
L 116.899147 117.273015 
L 120.211948 113.195624 
L 123.52475 109.57711 
L 126.837551 106.35468 
L 130.150353 103.476151 
L 133.463154 100.897773 
L 136.775955 98.582259 
L 140.088757 96.497721 
L 143.401558 94.617039 
L 146.71436 92.91716 
L 150.027161 91.378653 
L 153.339963 89.984909 
L 156.652764 88.721742 
L 159.965566 87.577262 
L 163.278367 86.541642 
L 166.591169 85.606711 
L 169.90397 84.765821 
L 173.216772 84.013905 
L 176.529573 83.34717 
L 179.842375 82.762807 
L 183.155176 82.258842 
L 186.467978 81.833997 
L 189.780779 81.487632 
L 193.093581 81.219635 
L 196.406382 81.030286 
L 199.719184 80.920181 
L 203.031985 80.890315 
L 206.344787 80.941984 
L 209.657588 81.076625 
L 212.97039 81.295682 
L 216.283191 81.600358 
L 219.595993 81.991114 
L 222.908794 82.466965 
L 226.221596 83.024526 
L 229.534397 83.656682 
L 232.847199 84.351216 
L 236.16 85.089751 
L 239.472801 85.847641 
L 242.785603 86.595581 
L 246.098404 87.302997 
L 249.411206 87.942289 
L 252.724007 88.49241 
L 256.036809 88.940644 
L 259.34961 89.282465 
L 262.662412 89.520064 
L 265.975213 89.660314 
L 269.288015 89.712793 
L 272.600816 89.688203 
L 275.913618 89.597327 
L 279.226419 89.450369 
L 282.539221 89.256623 
L 285.852022 89.024332 
L 289.164824 88.760676 
L 292.477625 88.471838 
L 295.790427 88.163108 
L 299.103228 87.838982 
L 302.41603 87.503256 
L 305.728831 87.159103 
L 309.041633 86.809165 
L 312.354434 86.455609 
L 315.667236 86.100177 
L 318.980037 85.744243 
L 322.292839 85.388901 
L 325.60564 85.035043 
L 328.918442 84.68345 
L 332.231243 84.334875 
L 335.544045 83.99007 
L 338.856846 83.649783 
L 342.169647 83.314746 
L 345.482449 82.985625 
L 348.79525 82.663041 
L 352.108052 82.347609 
L 355.420853 82.039981 
L 358.733655 81.740869 
L 362.046456 81.451038 
L 365.359258 81.171297 
L 368.672059 80.90248 
L 371.984861 80.645433 
L 375.297662 80.401014 
L 378.610464 80.17008 
L 381.923265 79.953487 
L 385.236067 79.752094 
L 388.548868 79.566763 
L 391.86167 79.398373 
L 395.174471 79.247834 
L 398.487273 79.116098 
L 398.487273 71.245534 
L 398.487273 71.245534 
L 395.174471 71.438202 
L 391.86167 71.643678 
L 388.548868 71.861489 
L 385.236067 72.091143 
L 381.923265 72.332131 
L 378.610464 72.583908 
L 375.297662 72.845871 
L 371.984861 73.11735 
L 368.672059 73.397608 
L 365.359258 73.685843 
L 362.046456 73.981192 
L 358.733655 74.282733 
L 355.420853 74.589478 
L 352.108052 74.900369 
L 348.79525 75.214273 
L 345.482449 75.529963 
L 342.169647 75.846112 
L 338.856846 76.161275 
L 335.544045 76.47389 
L 332.231243 76.782276 
L 328.918442 77.084647 
L 325.60564 77.379118 
L 322.292839 77.663707 
L 318.980037 77.936309 
L 315.667236 78.194681 
L 312.354434 78.43639 
L 309.041633 78.658759 
L 305.728831 78.858773 
L 302.41603 79.032987 
L 299.103228 79.17748 
L 295.790427 79.287847 
L 292.477625 79.359231 
L 289.164824 79.386392 
L 285.852022 79.363837 
L 282.539221 79.286001 
L 279.226419 79.147541 
L 275.913618 78.943755 
L 272.600816 78.67122 
L 269.288015 78.328652 
L 265.975213 77.91787 
L 262.662412 77.444688 
L 259.34961 76.919366 
L 256.036809 76.356316 
L 252.724007 75.773023 
L 249.411206 75.18836 
L 246.098404 74.620723 
L 242.785603 74.086374 
L 239.472801 73.598297 
L 236.16 73.165735 
L 232.847199 72.794369 
L 229.534397 72.486963 
L 226.221596 72.244169 
L 222.908794 72.065288 
L 219.595993 71.948878 
L 216.283191 71.893259 
L 212.97039 71.89687 
L 209.657588 71.958493 
L 206.344787 72.077289 
L 203.031985 72.252811 
L 199.719184 72.484982 
L 196.406382 72.774073 
L 193.093581 73.120743 
L 189.780779 73.52598 
L 186.467978 73.990953 
L 183.155176 74.517039 
L 179.842375 75.106003 
L 176.529573 75.760154 
L 173.216772 76.482509 
L 169.90397 77.276898 
L 166.591169 78.148109 
L 163.278367 79.102201 
L 159.965566 80.146642 
L 156.652764 81.290265 
L 153.339963 82.543529 
L 150.027161 83.918811 
L 146.71436 85.430475 
L 143.401558 87.094926 
L 140.088757 88.931314 
L 136.775955 90.962033 
L 133.463154 93.21312 
L 130.150353 95.715023 
L 126.837551 98.503394 
L 123.52475 101.620278 
L 120.211948 105.11592 
L 116.899147 109.05087 
L 113.586345 113.498738 
L 110.273544 118.549074 
L 106.960742 124.311378 
L 103.647941 130.920575 
L 100.335139 138.54314 
L 97.022338 147.385087 
L 93.709536 157.702688 
L 90.396735 169.818944 
L 87.083933 184.152379 
L 83.771132 201.2837 
L 80.45833 222.119882 
L 77.145529 248.32176 
L 73.832727 283.628154 
z
" style="fill:#00ffff;fill-opacity:0.4;"/>
   </g>
   <g id="matplotlib.axis_1">
    <g id="xtick_1">
     <g id="line2d_1">
      <path clip-path="url(#pb325921d8f)" d="M 70.519926 307.584 
L 70.519926 41.472 
" style="fill:none;stroke:#b0b0b0;stroke-linecap:square;stroke-width:0.8;"/>
     </g>
     <g id="line2d_2">
      <defs>
       <path d="M 0 0 
L 0 3.5 
" id="m828ca1121a" style="stroke:#000000;stroke-width:0.8;"/>
      </defs>
      <g>
       <use style="stroke:#000000;stroke-width:0.8;" x="70.519926" xlink:href="#m828ca1121a" y="307.584"/>
      </g>
     </g>
     <g id="text_1">
      <!-- 0.0 -->
      <defs>
       <path d="M 31.78125 66.40625 
Q 24.171875 66.40625 20.328125 58.90625 
Q 16.5 51.421875 16.5 36.375 
Q 16.5 21.390625 20.328125 13.890625 
Q 24.171875 6.390625 31.78125 6.390625 
Q 39.453125 6.390625 43.28125 13.890625 
Q 47.125 21.390625 47.125 36.375 
Q 47.125 51.421875 43.28125 58.90625 
Q 39.453125 66.40625 31.78125 66.40625 
z
M 31.78125 74.21875 
Q 44.046875 74.21875 50.515625 64.515625 
Q 56.984375 54.828125 56.984375 36.375 
Q 56.984375 17.96875 50.515625 8.265625 
Q 44.046875 -1.421875 31.78125 -1.421875 
Q 19.53125 -1.421875 13.0625 8.265625 
Q 6.59375 17.96875 6.59375 36.375 
Q 6.59375 54.828125 13.0625 64.515625 
Q 19.53125 74.21875 31.78125 74.21875 
z
" id="DejaVuSans-48"/>
       <path d="M 10.6875 12.40625 
L 21 12.40625 
L 21 0 
L 10.6875 0 
z
" id="DejaVuSans-46"/>
      </defs>
      <g transform="translate(62.568363 322.182437)scale(0.1 -0.1)">
       <use xlink:href="#DejaVuSans-48"/>
       <use x="63.623047" xlink:href="#DejaVuSans-46"/>
       <use x="95.410156" xlink:href="#DejaVuSans-48"/>
      </g>
     </g>
    </g>
    <g id="xtick_2">
     <g id="line2d_3">
      <path clip-path="url(#pb325921d8f)" d="M 136.775955 307.584 
L 136.775955 41.472 
" style="fill:none;stroke:#b0b0b0;stroke-linecap:square;stroke-width:0.8;"/>
     </g>
     <g id="line2d_4">
      <g>
       <use style="stroke:#000000;stroke-width:0.8;" x="136.775955" xlink:href="#m828ca1121a" y="307.584"/>
      </g>
     </g>
     <g id="text_2">
      <!-- 0.2 -->
      <defs>
       <path d="M 19.1875 8.296875 
L 53.609375 8.296875 
L 53.609375 0 
L 7.328125 0 
L 7.328125 8.296875 
Q 12.9375 14.109375 22.625 23.890625 
Q 32.328125 33.6875 34.8125 36.53125 
Q 39.546875 41.84375 41.421875 45.53125 
Q 43.3125 49.21875 43.3125 52.78125 
Q 43.3125 58.59375 39.234375 62.25 
Q 35.15625 65.921875 28.609375 65.921875 
Q 23.96875 65.921875 18.8125 64.3125 
Q 13.671875 62.703125 7.8125 59.421875 
L 7.8125 69.390625 
Q 13.765625 71.78125 18.9375 73 
Q 24.125 74.21875 28.421875 74.21875 
Q 39.75 74.21875 46.484375 68.546875 
Q 53.21875 62.890625 53.21875 53.421875 
Q 53.21875 48.921875 51.53125 44.890625 
Q 49.859375 40.875 45.40625 35.40625 
Q 44.1875 33.984375 37.640625 27.21875 
Q 31.109375 20.453125 19.1875 8.296875 
z
" id="DejaVuSans-50"/>
      </defs>
      <g transform="translate(128.824393 322.182437)scale(0.1 -0.1)">
       <use xlink:href="#DejaVuSans-48"/>
       <use x="63.623047" xlink:href="#DejaVuSans-46"/>
       <use x="95.410156" xlink:href="#DejaVuSans-50"/>
      </g>
     </g>
    </g>
    <g id="xtick_3">
     <g id="line2d_5">
      <path clip-path="url(#pb325921d8f)" d="M 203.031985 307.584 
L 203.031985 41.472 
" style="fill:none;stroke:#b0b0b0;stroke-linecap:square;stroke-width:0.8;"/>
     </g>
     <g id="line2d_6">
      <g>
       <use style="stroke:#000000;stroke-width:0.8;" x="203.031985" xlink:href="#m828ca1121a" y="307.584"/>
      </g>
     </g>
     <g id="text_3">
      <!-- 0.4 -->
      <defs>
       <path d="M 37.796875 64.3125 
L 12.890625 25.390625 
L 37.796875 25.390625 
z
M 35.203125 72.90625 
L 47.609375 72.90625 
L 47.609375 25.390625 
L 58.015625 25.390625 
L 58.015625 17.1875 
L 47.609375 17.1875 
L 47.609375 0 
L 37.796875 0 
L 37.796875 17.1875 
L 4.890625 17.1875 
L 4.890625 26.703125 
z
" id="DejaVuSans-52"/>
      </defs>
      <g transform="translate(195.080423 322.182437)scale(0.1 -0.1)">
       <use xlink:href="#DejaVuSans-48"/>
       <use x="63.623047" xlink:href="#DejaVuSans-46"/>
       <use x="95.410156" xlink:href="#DejaVuSans-52"/>
      </g>
     </g>
    </g>
    <g id="xtick_4">
     <g id="line2d_7">
      <path clip-path="url(#pb325921d8f)" d="M 269.288015 307.584 
L 269.288015 41.472 
" style="fill:none;stroke:#b0b0b0;stroke-linecap:square;stroke-width:0.8;"/>
     </g>
     <g id="line2d_8">
      <g>
       <use style="stroke:#000000;stroke-width:0.8;" x="269.288015" xlink:href="#m828ca1121a" y="307.584"/>
      </g>
     </g>
     <g id="text_4">
      <!-- 0.6 -->
      <defs>
       <path d="M 33.015625 40.375 
Q 26.375 40.375 22.484375 35.828125 
Q 18.609375 31.296875 18.609375 23.390625 
Q 18.609375 15.53125 22.484375 10.953125 
Q 26.375 6.390625 33.015625 6.390625 
Q 39.65625 6.390625 43.53125 10.953125 
Q 47.40625 15.53125 47.40625 23.390625 
Q 47.40625 31.296875 43.53125 35.828125 
Q 39.65625 40.375 33.015625 40.375 
z
M 52.59375 71.296875 
L 52.59375 62.3125 
Q 48.875 64.0625 45.09375 64.984375 
Q 41.3125 65.921875 37.59375 65.921875 
Q 27.828125 65.921875 22.671875 59.328125 
Q 17.53125 52.734375 16.796875 39.40625 
Q 19.671875 43.65625 24.015625 45.921875 
Q 28.375 48.1875 33.59375 48.1875 
Q 44.578125 48.1875 50.953125 41.515625 
Q 57.328125 34.859375 57.328125 23.390625 
Q 57.328125 12.15625 50.6875 5.359375 
Q 44.046875 -1.421875 33.015625 -1.421875 
Q 20.359375 -1.421875 13.671875 8.265625 
Q 6.984375 17.96875 6.984375 36.375 
Q 6.984375 53.65625 15.1875 63.9375 
Q 23.390625 74.21875 37.203125 74.21875 
Q 40.921875 74.21875 44.703125 73.484375 
Q 48.484375 72.75 52.59375 71.296875 
z
" id="DejaVuSans-54"/>
      </defs>
      <g transform="translate(261.336452 322.182437)scale(0.1 -0.1)">
       <use xlink:href="#DejaVuSans-48"/>
       <use x="63.623047" xlink:href="#DejaVuSans-46"/>
       <use x="95.410156" xlink:href="#DejaVuSans-54"/>
      </g>
     </g>
    </g>
    <g id="xtick_5">
     <g id="line2d_9">
      <path clip-path="url(#pb325921d8f)" d="M 335.544045 307.584 
L 335.544045 41.472 
" style="fill:none;stroke:#b0b0b0;stroke-linecap:square;stroke-width:0.8;"/>
     </g>
     <g id="line2d_10">
      <g>
       <use style="stroke:#000000;stroke-width:0.8;" x="335.544045" xlink:href="#m828ca1121a" y="307.584"/>
      </g>
     </g>
     <g id="text_5">
      <!-- 0.8 -->
      <defs>
       <path d="M 31.78125 34.625 
Q 24.75 34.625 20.71875 30.859375 
Q 16.703125 27.09375 16.703125 20.515625 
Q 16.703125 13.921875 20.71875 10.15625 
Q 24.75 6.390625 31.78125 6.390625 
Q 38.8125 6.390625 42.859375 10.171875 
Q 46.921875 13.96875 46.921875 20.515625 
Q 46.921875 27.09375 42.890625 30.859375 
Q 38.875 34.625 31.78125 34.625 
z
M 21.921875 38.8125 
Q 15.578125 40.375 12.03125 44.71875 
Q 8.5 49.078125 8.5 55.328125 
Q 8.5 64.0625 14.71875 69.140625 
Q 20.953125 74.21875 31.78125 74.21875 
Q 42.671875 74.21875 48.875 69.140625 
Q 55.078125 64.0625 55.078125 55.328125 
Q 55.078125 49.078125 51.53125 44.71875 
Q 48 40.375 41.703125 38.8125 
Q 48.828125 37.15625 52.796875 32.3125 
Q 56.78125 27.484375 56.78125 20.515625 
Q 56.78125 9.90625 50.3125 4.234375 
Q 43.84375 -1.421875 31.78125 -1.421875 
Q 19.734375 -1.421875 13.25 4.234375 
Q 6.78125 9.90625 6.78125 20.515625 
Q 6.78125 27.484375 10.78125 32.3125 
Q 14.796875 37.15625 21.921875 38.8125 
z
M 18.3125 54.390625 
Q 18.3125 48.734375 21.84375 45.5625 
Q 25.390625 42.390625 31.78125 42.390625 
Q 38.140625 42.390625 41.71875 45.5625 
Q 45.3125 48.734375 45.3125 54.390625 
Q 45.3125 60.0625 41.71875 63.234375 
Q 38.140625 66.40625 31.78125 66.40625 
Q 25.390625 66.40625 21.84375 63.234375 
Q 18.3125 60.0625 18.3125 54.390625 
z
" id="DejaVuSans-56"/>
      </defs>
      <g transform="translate(327.592482 322.182437)scale(0.1 -0.1)">
       <use xlink:href="#DejaVuSans-48"/>
       <use x="63.623047" xlink:href="#DejaVuSans-46"/>
       <use x="95.410156" xlink:href="#DejaVuSans-56"/>
      </g>
     </g>
    </g>
    <g id="xtick_6">
     <g id="line2d_11">
      <path clip-path="url(#pb325921d8f)" d="M 401.800074 307.584 
L 401.800074 41.472 
" style="fill:none;stroke:#b0b0b0;stroke-linecap:square;stroke-width:0.8;"/>
     </g>
     <g id="line2d_12">
      <g>
       <use style="stroke:#000000;stroke-width:0.8;" x="401.800074" xlink:href="#m828ca1121a" y="307.584"/>
      </g>
     </g>
     <g id="text_6">
      <!-- 1.0 -->
      <defs>
       <path d="M 12.40625 8.296875 
L 28.515625 8.296875 
L 28.515625 63.921875 
L 10.984375 60.40625 
L 10.984375 69.390625 
L 28.421875 72.90625 
L 38.28125 72.90625 
L 38.28125 8.296875 
L 54.390625 8.296875 
L 54.390625 0 
L 12.40625 0 
z
" id="DejaVuSans-49"/>
      </defs>
      <g transform="translate(393.848512 322.182437)scale(0.1 -0.1)">
       <use xlink:href="#DejaVuSans-49"/>
       <use x="63.623047" xlink:href="#DejaVuSans-46"/>
       <use x="95.410156" xlink:href="#DejaVuSans-48"/>
      </g>
     </g>
    </g>
    <g id="text_7">
     <!-- $\mathrm{Time \ (seconds)}$ -->
     <defs>
      <path d="M -0.296875 72.90625 
L 61.375 72.90625 
L 61.375 64.59375 
L 35.5 64.59375 
L 35.5 0 
L 25.59375 0 
L 25.59375 64.59375 
L -0.296875 64.59375 
z
" id="DejaVuSans-84"/>
      <path d="M 9.421875 54.6875 
L 18.40625 54.6875 
L 18.40625 0 
L 9.421875 0 
z
M 9.421875 75.984375 
L 18.40625 75.984375 
L 18.40625 64.59375 
L 9.421875 64.59375 
z
" id="DejaVuSans-105"/>
      <path d="M 52 44.1875 
Q 55.375 50.25 60.0625 53.125 
Q 64.75 56 71.09375 56 
Q 79.640625 56 84.28125 50.015625 
Q 88.921875 44.046875 88.921875 33.015625 
L 88.921875 0 
L 79.890625 0 
L 79.890625 32.71875 
Q 79.890625 40.578125 77.09375 44.375 
Q 74.3125 48.1875 68.609375 48.1875 
Q 61.625 48.1875 57.5625 43.546875 
Q 53.515625 38.921875 53.515625 30.90625 
L 53.515625 0 
L 44.484375 0 
L 44.484375 32.71875 
Q 44.484375 40.625 41.703125 44.40625 
Q 38.921875 48.1875 33.109375 48.1875 
Q 26.21875 48.1875 22.15625 43.53125 
Q 18.109375 38.875 18.109375 30.90625 
L 18.109375 0 
L 9.078125 0 
L 9.078125 54.6875 
L 18.109375 54.6875 
L 18.109375 46.1875 
Q 21.1875 51.21875 25.484375 53.609375 
Q 29.78125 56 35.6875 56 
Q 41.65625 56 45.828125 52.96875 
Q 50 49.953125 52 44.1875 
z
" id="DejaVuSans-109"/>
      <path d="M 56.203125 29.59375 
L 56.203125 25.203125 
L 14.890625 25.203125 
Q 15.484375 15.921875 20.484375 11.0625 
Q 25.484375 6.203125 34.421875 6.203125 
Q 39.59375 6.203125 44.453125 7.46875 
Q 49.3125 8.734375 54.109375 11.28125 
L 54.109375 2.78125 
Q 49.265625 0.734375 44.1875 -0.34375 
Q 39.109375 -1.421875 33.890625 -1.421875 
Q 20.796875 -1.421875 13.15625 6.1875 
Q 5.515625 13.8125 5.515625 26.8125 
Q 5.515625 40.234375 12.765625 48.109375 
Q 20.015625 56 32.328125 56 
Q 43.359375 56 49.78125 48.890625 
Q 56.203125 41.796875 56.203125 29.59375 
z
M 47.21875 32.234375 
Q 47.125 39.59375 43.09375 43.984375 
Q 39.0625 48.390625 32.421875 48.390625 
Q 24.90625 48.390625 20.390625 44.140625 
Q 15.875 39.890625 15.1875 32.171875 
z
" id="DejaVuSans-101"/>
      <path d="M 31 75.875 
Q 24.46875 64.65625 21.28125 53.65625 
Q 18.109375 42.671875 18.109375 31.390625 
Q 18.109375 20.125 21.3125 9.0625 
Q 24.515625 -2 31 -13.1875 
L 23.1875 -13.1875 
Q 15.875 -1.703125 12.234375 9.375 
Q 8.59375 20.453125 8.59375 31.390625 
Q 8.59375 42.28125 12.203125 53.3125 
Q 15.828125 64.359375 23.1875 75.875 
z
" id="DejaVuSans-40"/>
      <path d="M 44.28125 53.078125 
L 44.28125 44.578125 
Q 40.484375 46.53125 36.375 47.5 
Q 32.28125 48.484375 27.875 48.484375 
Q 21.1875 48.484375 17.84375 46.4375 
Q 14.5 44.390625 14.5 40.28125 
Q 14.5 37.15625 16.890625 35.375 
Q 19.28125 33.59375 26.515625 31.984375 
L 29.59375 31.296875 
Q 39.15625 29.25 43.1875 25.515625 
Q 47.21875 21.78125 47.21875 15.09375 
Q 47.21875 7.46875 41.1875 3.015625 
Q 35.15625 -1.421875 24.609375 -1.421875 
Q 20.21875 -1.421875 15.453125 -0.5625 
Q 10.6875 0.296875 5.421875 2 
L 5.421875 11.28125 
Q 10.40625 8.6875 15.234375 7.390625 
Q 20.0625 6.109375 24.8125 6.109375 
Q 31.15625 6.109375 34.5625 8.28125 
Q 37.984375 10.453125 37.984375 14.40625 
Q 37.984375 18.0625 35.515625 20.015625 
Q 33.0625 21.96875 24.703125 23.78125 
L 21.578125 24.515625 
Q 13.234375 26.265625 9.515625 29.90625 
Q 5.8125 33.546875 5.8125 39.890625 
Q 5.8125 47.609375 11.28125 51.796875 
Q 16.75 56 26.8125 56 
Q 31.78125 56 36.171875 55.265625 
Q 40.578125 54.546875 44.28125 53.078125 
z
" id="DejaVuSans-115"/>
      <path d="M 48.78125 52.59375 
L 48.78125 44.1875 
Q 44.96875 46.296875 41.140625 47.34375 
Q 37.3125 48.390625 33.40625 48.390625 
Q 24.65625 48.390625 19.8125 42.84375 
Q 14.984375 37.3125 14.984375 27.296875 
Q 14.984375 17.28125 19.8125 11.734375 
Q 24.65625 6.203125 33.40625 6.203125 
Q 37.3125 6.203125 41.140625 7.25 
Q 44.96875 8.296875 48.78125 10.40625 
L 48.78125 2.09375 
Q 45.015625 0.34375 40.984375 -0.53125 
Q 36.96875 -1.421875 32.421875 -1.421875 
Q 20.0625 -1.421875 12.78125 6.34375 
Q 5.515625 14.109375 5.515625 27.296875 
Q 5.515625 40.671875 12.859375 48.328125 
Q 20.21875 56 33.015625 56 
Q 37.15625 56 41.109375 55.140625 
Q 45.0625 54.296875 48.78125 52.59375 
z
" id="DejaVuSans-99"/>
      <path d="M 30.609375 48.390625 
Q 23.390625 48.390625 19.1875 42.75 
Q 14.984375 37.109375 14.984375 27.296875 
Q 14.984375 17.484375 19.15625 11.84375 
Q 23.34375 6.203125 30.609375 6.203125 
Q 37.796875 6.203125 41.984375 11.859375 
Q 46.1875 17.53125 46.1875 27.296875 
Q 46.1875 37.015625 41.984375 42.703125 
Q 37.796875 48.390625 30.609375 48.390625 
z
M 30.609375 56 
Q 42.328125 56 49.015625 48.375 
Q 55.71875 40.765625 55.71875 27.296875 
Q 55.71875 13.875 49.015625 6.21875 
Q 42.328125 -1.421875 30.609375 -1.421875 
Q 18.84375 -1.421875 12.171875 6.21875 
Q 5.515625 13.875 5.515625 27.296875 
Q 5.515625 40.765625 12.171875 48.375 
Q 18.84375 56 30.609375 56 
z
" id="DejaVuSans-111"/>
      <path d="M 54.890625 33.015625 
L 54.890625 0 
L 45.90625 0 
L 45.90625 32.71875 
Q 45.90625 40.484375 42.875 44.328125 
Q 39.84375 48.1875 33.796875 48.1875 
Q 26.515625 48.1875 22.3125 43.546875 
Q 18.109375 38.921875 18.109375 30.90625 
L 18.109375 0 
L 9.078125 0 
L 9.078125 54.6875 
L 18.109375 54.6875 
L 18.109375 46.1875 
Q 21.34375 51.125 25.703125 53.5625 
Q 30.078125 56 35.796875 56 
Q 45.21875 56 50.046875 50.171875 
Q 54.890625 44.34375 54.890625 33.015625 
z
" id="DejaVuSans-110"/>
      <path d="M 45.40625 46.390625 
L 45.40625 75.984375 
L 54.390625 75.984375 
L 54.390625 0 
L 45.40625 0 
L 45.40625 8.203125 
Q 42.578125 3.328125 38.25 0.953125 
Q 33.9375 -1.421875 27.875 -1.421875 
Q 17.96875 -1.421875 11.734375 6.484375 
Q 5.515625 14.40625 5.515625 27.296875 
Q 5.515625 40.1875 11.734375 48.09375 
Q 17.96875 56 27.875 56 
Q 33.9375 56 38.25 53.625 
Q 42.578125 51.265625 45.40625 46.390625 
z
M 14.796875 27.296875 
Q 14.796875 17.390625 18.875 11.75 
Q 22.953125 6.109375 30.078125 6.109375 
Q 37.203125 6.109375 41.296875 11.75 
Q 45.40625 17.390625 45.40625 27.296875 
Q 45.40625 37.203125 41.296875 42.84375 
Q 37.203125 48.484375 30.078125 48.484375 
Q 22.953125 48.484375 18.875 42.84375 
Q 14.796875 37.203125 14.796875 27.296875 
z
" id="DejaVuSans-100"/>
      <path d="M 8.015625 75.875 
L 15.828125 75.875 
Q 23.140625 64.359375 26.78125 53.3125 
Q 30.421875 42.28125 30.421875 31.390625 
Q 30.421875 20.453125 26.78125 9.375 
Q 23.140625 -1.703125 15.828125 -13.1875 
L 8.015625 -13.1875 
Q 14.5 -2 17.703125 9.0625 
Q 20.90625 20.125 20.90625 31.390625 
Q 20.90625 42.671875 17.703125 53.65625 
Q 14.5 64.65625 8.015625 75.875 
z
" id="DejaVuSans-41"/>
     </defs>
     <g transform="translate(197.76 335.860562)scale(0.1 -0.1)">
      <use transform="translate(0 0.015625)" xlink:href="#DejaVuSans-84"/>
      <use transform="translate(61.083984 0.015625)" xlink:href="#DejaVuSans-105"/>
      <use transform="translate(88.867188 0.015625)" xlink:href="#DejaVuSans-109"/>
      <use transform="translate(186.279297 0.015625)" xlink:href="#DejaVuSans-101"/>
      <use transform="translate(280.273113 0.015625)" xlink:href="#DejaVuSans-40"/>
      <use transform="translate(319.286785 0.015625)" xlink:href="#DejaVuSans-115"/>
      <use transform="translate(371.386394 0.015625)" xlink:href="#DejaVuSans-101"/>
      <use transform="translate(432.909832 0.015625)" xlink:href="#DejaVuSans-99"/>
      <use transform="translate(487.8903 0.015625)" xlink:href="#DejaVuSans-111"/>
      <use transform="translate(549.071941 0.015625)" xlink:href="#DejaVuSans-110"/>
      <use transform="translate(612.450847 0.015625)" xlink:href="#DejaVuSans-100"/>
      <use transform="translate(675.92741 0.015625)" xlink:href="#DejaVuSans-115"/>
      <use transform="translate(728.027019 0.015625)" xlink:href="#DejaVuSans-41"/>
     </g>
    </g>
   </g>
   <g id="matplotlib.axis_2">
    <g id="ytick_1">
     <g id="line2d_13">
      <path clip-path="url(#pb325921d8f)" d="M 57.6 199.373628 
L 414.72 199.373628 
" style="fill:none;stroke:#b0b0b0;stroke-linecap:square;stroke-width:0.8;"/>
     </g>
     <g id="line2d_14">
      <defs>
       <path d="M 0 0 
L -3.5 0 
" id="m20cde50997" style="stroke:#000000;stroke-width:0.8;"/>
      </defs>
      <g>
       <use style="stroke:#000000;stroke-width:0.8;" x="57.6" xlink:href="#m20cde50997" y="199.373628"/>
      </g>
     </g>
     <g id="text_8">
      <!-- $\mathdefault{10^{-1}}$ -->
      <defs>
       <path d="M 10.59375 35.5 
L 73.1875 35.5 
L 73.1875 27.203125 
L 10.59375 27.203125 
z
" id="DejaVuSans-8722"/>
      </defs>
      <g transform="translate(27.1 203.172847)scale(0.1 -0.1)">
       <use transform="translate(0 0.684375)" xlink:href="#DejaVuSans-49"/>
       <use transform="translate(63.623047 0.684375)" xlink:href="#DejaVuSans-48"/>
       <use transform="translate(128.203125 38.965625)scale(0.7)" xlink:href="#DejaVuSans-8722"/>
       <use transform="translate(186.855469 38.965625)scale(0.7)" xlink:href="#DejaVuSans-49"/>
      </g>
     </g>
    </g>
    <g id="ytick_2">
     <g id="line2d_15">
      <defs>
       <path d="M 0 0 
L -2 0 
" id="m93558140d1" style="stroke:#000000;stroke-width:0.6;"/>
      </defs>
      <g>
       <use style="stroke:#000000;stroke-width:0.6;" x="57.6" xlink:href="#m93558140d1" y="282.301884"/>
      </g>
     </g>
    </g>
    <g id="ytick_3">
     <g id="line2d_16">
      <g>
       <use style="stroke:#000000;stroke-width:0.6;" x="57.6" xlink:href="#m93558140d1" y="262.106432"/>
      </g>
     </g>
    </g>
    <g id="ytick_4">
     <g id="line2d_17">
      <g>
       <use style="stroke:#000000;stroke-width:0.6;" x="57.6" xlink:href="#m93558140d1" y="245.605546"/>
      </g>
     </g>
    </g>
    <g id="ytick_5">
     <g id="line2d_18">
      <g>
       <use style="stroke:#000000;stroke-width:0.6;" x="57.6" xlink:href="#m93558140d1" y="231.654246"/>
      </g>
     </g>
    </g>
    <g id="ytick_6">
     <g id="line2d_19">
      <g>
       <use style="stroke:#000000;stroke-width:0.6;" x="57.6" xlink:href="#m93558140d1" y="219.56908"/>
      </g>
     </g>
    </g>
    <g id="ytick_7">
     <g id="line2d_20">
      <g>
       <use style="stroke:#000000;stroke-width:0.6;" x="57.6" xlink:href="#m93558140d1" y="208.909208"/>
      </g>
     </g>
    </g>
    <g id="ytick_8">
     <g id="line2d_21">
      <g>
       <use style="stroke:#000000;stroke-width:0.6;" x="57.6" xlink:href="#m93558140d1" y="136.640824"/>
      </g>
     </g>
    </g>
    <g id="ytick_9">
     <g id="line2d_22">
      <g>
       <use style="stroke:#000000;stroke-width:0.6;" x="57.6" xlink:href="#m93558140d1" y="99.944487"/>
      </g>
     </g>
    </g>
    <g id="ytick_10">
     <g id="line2d_23">
      <g>
       <use style="stroke:#000000;stroke-width:0.6;" x="57.6" xlink:href="#m93558140d1" y="73.908021"/>
      </g>
     </g>
    </g>
    <g id="ytick_11">
     <g id="line2d_24">
      <g>
       <use style="stroke:#000000;stroke-width:0.6;" x="57.6" xlink:href="#m93558140d1" y="53.712569"/>
      </g>
     </g>
    </g>
    <g id="text_9">
     <!-- $\mathrm{Relative \ error}$ ($N_{\mathrm{train}}=5$) -->
     <defs>
      <path d="M 44.390625 34.1875 
Q 47.5625 33.109375 50.5625 29.59375 
Q 53.5625 26.078125 56.59375 19.921875 
L 66.609375 0 
L 56 0 
L 46.6875 18.703125 
Q 43.0625 26.03125 39.671875 28.421875 
Q 36.28125 30.8125 30.421875 30.8125 
L 19.671875 30.8125 
L 19.671875 0 
L 9.8125 0 
L 9.8125 72.90625 
L 32.078125 72.90625 
Q 44.578125 72.90625 50.734375 67.671875 
Q 56.890625 62.453125 56.890625 51.90625 
Q 56.890625 45.015625 53.6875 40.46875 
Q 50.484375 35.9375 44.390625 34.1875 
z
M 19.671875 64.796875 
L 19.671875 38.921875 
L 32.078125 38.921875 
Q 39.203125 38.921875 42.84375 42.21875 
Q 46.484375 45.515625 46.484375 51.90625 
Q 46.484375 58.296875 42.84375 61.546875 
Q 39.203125 64.796875 32.078125 64.796875 
z
" id="DejaVuSans-82"/>
      <path d="M 9.421875 75.984375 
L 18.40625 75.984375 
L 18.40625 0 
L 9.421875 0 
z
" id="DejaVuSans-108"/>
      <path d="M 34.28125 27.484375 
Q 23.390625 27.484375 19.1875 25 
Q 14.984375 22.515625 14.984375 16.5 
Q 14.984375 11.71875 18.140625 8.90625 
Q 21.296875 6.109375 26.703125 6.109375 
Q 34.1875 6.109375 38.703125 11.40625 
Q 43.21875 16.703125 43.21875 25.484375 
L 43.21875 27.484375 
z
M 52.203125 31.203125 
L 52.203125 0 
L 43.21875 0 
L 43.21875 8.296875 
Q 40.140625 3.328125 35.546875 0.953125 
Q 30.953125 -1.421875 24.3125 -1.421875 
Q 15.921875 -1.421875 10.953125 3.296875 
Q 6 8.015625 6 15.921875 
Q 6 25.140625 12.171875 29.828125 
Q 18.359375 34.515625 30.609375 34.515625 
L 43.21875 34.515625 
L 43.21875 35.40625 
Q 43.21875 41.609375 39.140625 45 
Q 35.0625 48.390625 27.6875 48.390625 
Q 23 48.390625 18.546875 47.265625 
Q 14.109375 46.140625 10.015625 43.890625 
L 10.015625 52.203125 
Q 14.9375 54.109375 19.578125 55.046875 
Q 24.21875 56 28.609375 56 
Q 40.484375 56 46.34375 49.84375 
Q 52.203125 43.703125 52.203125 31.203125 
z
" id="DejaVuSans-97"/>
      <path d="M 18.3125 70.21875 
L 18.3125 54.6875 
L 36.8125 54.6875 
L 36.8125 47.703125 
L 18.3125 47.703125 
L 18.3125 18.015625 
Q 18.3125 11.328125 20.140625 9.421875 
Q 21.96875 7.515625 27.59375 7.515625 
L 36.8125 7.515625 
L 36.8125 0 
L 27.59375 0 
Q 17.1875 0 13.234375 3.875 
Q 9.28125 7.765625 9.28125 18.015625 
L 9.28125 47.703125 
L 2.6875 47.703125 
L 2.6875 54.6875 
L 9.28125 54.6875 
L 9.28125 70.21875 
z
" id="DejaVuSans-116"/>
      <path d="M 2.984375 54.6875 
L 12.5 54.6875 
L 29.59375 8.796875 
L 46.6875 54.6875 
L 56.203125 54.6875 
L 35.6875 0 
L 23.484375 0 
z
" id="DejaVuSans-118"/>
      <path d="M 41.109375 46.296875 
Q 39.59375 47.171875 37.8125 47.578125 
Q 36.03125 48 33.890625 48 
Q 26.265625 48 22.1875 43.046875 
Q 18.109375 38.09375 18.109375 28.8125 
L 18.109375 0 
L 9.078125 0 
L 9.078125 54.6875 
L 18.109375 54.6875 
L 18.109375 46.1875 
Q 20.953125 51.171875 25.484375 53.578125 
Q 30.03125 56 36.53125 56 
Q 37.453125 56 38.578125 55.875 
Q 39.703125 55.765625 41.0625 55.515625 
z
" id="DejaVuSans-114"/>
      <path id="DejaVuSans-32"/>
      <path d="M 16.890625 72.90625 
L 30.171875 72.90625 
L 50.296875 10.40625 
L 62.5 72.90625 
L 72.125 72.90625 
L 57.90625 0 
L 44.578125 0 
L 24.515625 62.890625 
L 12.3125 0 
L 2.6875 0 
z
" id="DejaVuSans-Oblique-78"/>
      <path d="M 10.59375 45.40625 
L 73.1875 45.40625 
L 73.1875 37.203125 
L 10.59375 37.203125 
z
M 10.59375 25.484375 
L 73.1875 25.484375 
L 73.1875 17.1875 
L 10.59375 17.1875 
z
" id="DejaVuSans-61"/>
      <path d="M 10.796875 72.90625 
L 49.515625 72.90625 
L 49.515625 64.59375 
L 19.828125 64.59375 
L 19.828125 46.734375 
Q 21.96875 47.46875 24.109375 47.828125 
Q 26.265625 48.1875 28.421875 48.1875 
Q 40.625 48.1875 47.75 41.5 
Q 54.890625 34.8125 54.890625 23.390625 
Q 54.890625 11.625 47.5625 5.09375 
Q 40.234375 -1.421875 26.90625 -1.421875 
Q 22.3125 -1.421875 17.546875 -0.640625 
Q 12.796875 0.140625 7.71875 1.703125 
L 7.71875 11.625 
Q 12.109375 9.234375 16.796875 8.0625 
Q 21.484375 6.890625 26.703125 6.890625 
Q 35.15625 6.890625 40.078125 11.328125 
Q 45.015625 15.765625 45.015625 23.390625 
Q 45.015625 31 40.078125 35.4375 
Q 35.15625 39.890625 26.703125 39.890625 
Q 22.75 39.890625 18.8125 39.015625 
Q 14.890625 38.140625 10.796875 36.28125 
z
" id="DejaVuSans-53"/>
     </defs>
     <g transform="translate(21.020312 235.678)rotate(-90)scale(0.1 -0.1)">
      <use transform="translate(0 0.015625)" xlink:href="#DejaVuSans-82"/>
      <use transform="translate(69.482422 0.015625)" xlink:href="#DejaVuSans-101"/>
      <use transform="translate(131.005859 0.015625)" xlink:href="#DejaVuSans-108"/>
      <use transform="translate(158.789062 0.015625)" xlink:href="#DejaVuSans-97"/>
      <use transform="translate(220.068359 0.015625)" xlink:href="#DejaVuSans-116"/>
      <use transform="translate(259.277344 0.015625)" xlink:href="#DejaVuSans-105"/>
      <use transform="translate(287.060547 0.015625)" xlink:href="#DejaVuSans-118"/>
      <use transform="translate(346.240234 0.015625)" xlink:href="#DejaVuSans-101"/>
      <use transform="translate(440.23405 0.015625)" xlink:href="#DejaVuSans-101"/>
      <use transform="translate(501.757488 0.015625)" xlink:href="#DejaVuSans-114"/>
      <use transform="translate(542.870769 0.015625)" xlink:href="#DejaVuSans-114"/>
      <use transform="translate(583.98405 0.015625)" xlink:href="#DejaVuSans-111"/>
      <use transform="translate(645.165691 0.015625)" xlink:href="#DejaVuSans-114"/>
      <use transform="translate(686.278972 0.015625)" xlink:href="#DejaVuSans-32"/>
      <use transform="translate(718.066082 0.015625)" xlink:href="#DejaVuSans-40"/>
      <use transform="translate(757.079753 0.015625)" xlink:href="#DejaVuSans-Oblique-78"/>
      <use transform="translate(831.884441 -16.390625)scale(0.7)" xlink:href="#DejaVuSans-116"/>
      <use transform="translate(859.33073 -16.390625)scale(0.7)" xlink:href="#DejaVuSans-114"/>
      <use transform="translate(888.110027 -16.390625)scale(0.7)" xlink:href="#DejaVuSans-97"/>
      <use transform="translate(931.005535 -16.390625)scale(0.7)" xlink:href="#DejaVuSans-105"/>
      <use transform="translate(950.453777 -16.390625)scale(0.7)" xlink:href="#DejaVuSans-110"/>
      <use transform="translate(1017.035808 0.015625)" xlink:href="#DejaVuSans-61"/>
      <use transform="translate(1120.307292 0.015625)" xlink:href="#DejaVuSans-53"/>
      <use transform="translate(1183.930339 0.015625)" xlink:href="#DejaVuSans-41"/>
     </g>
    </g>
   </g>
   <g id="line2d_25">
    <path clip-path="url(#pb325921d8f)" d="M 73.832724 278.752272 
L 77.145522 243.582545 
L 80.458321 217.490082 
L 83.771119 196.718464 
L 87.083917 179.603308 
L 90.396716 165.240104 
L 93.709554 153.053227 
L 97.022352 142.631403 
L 100.33515 133.65962 
L 103.647949 125.888343 
L 106.960747 119.116928 
L 110.273545 113.183122 
L 113.586344 107.955422 
L 116.899142 103.326819 
L 120.21194 99.209654 
L 123.524738 95.531893 
L 126.837537 92.233907 
L 130.150375 89.266146 
L 133.463173 86.587208 
L 136.775971 84.162509 
L 140.08877 81.962804 
L 143.401568 79.963507 
L 146.714366 78.143846 
L 150.027165 76.486081 
L 153.339963 74.975137 
L 156.652761 73.597944 
L 159.96556 72.34342 
L 163.278358 71.201914 
L 166.591156 70.165185 
L 169.903955 69.226387 
L 173.216753 68.379853 
L 176.529551 67.621013 
L 179.842389 66.946222 
L 183.155187 66.35261 
L 186.467986 65.837996 
L 189.780784 65.400716 
L 193.093582 65.039632 
L 196.406381 64.754017 
L 199.719179 64.543432 
L 203.031977 64.407688 
L 206.344776 64.3467 
L 209.657574 64.360491 
L 212.970412 64.448781 
L 216.28321 64.610753 
L 219.596008 64.844595 
L 222.908807 65.146752 
L 229.534403 65.929091 
L 239.472798 67.359276 
L 246.098395 68.280682 
L 252.723992 69.023922 
L 256.03679 69.30238 
L 259.349588 69.511456 
L 262.662387 69.649554 
L 265.975185 69.717694 
L 269.288023 69.718963 
L 275.913619 69.54052 
L 282.539216 69.160453 
L 289.164852 68.627011 
L 295.790449 67.98282 
L 305.728844 66.882276 
L 322.292835 64.882976 
L 342.169625 62.486423 
L 355.420858 61.011898 
L 365.359253 60.01954 
L 375.297688 59.154324 
L 385.236083 58.440448 
L 391.861679 58.059195 
L 398.487276 57.760484 
" style="fill:none;stroke:#ff0000;stroke-linecap:square;stroke-width:1.5;"/>
   </g>
   <g id="line2d_26">
    <path clip-path="url(#pb325921d8f)" d="M 73.832724 279.901833 
L 77.145522 244.7687 
L 80.458321 218.716234 
L 83.771119 197.984934 
L 87.083917 180.909574 
L 90.396716 166.58478 
L 93.709554 154.434568 
L 97.022352 144.047898 
L 100.33515 135.110223 
L 103.647949 127.37236 
L 106.960747 120.633982 
L 110.273545 114.733046 
L 113.586344 109.538033 
L 116.899142 104.941884 
L 120.21194 100.857003 
L 123.524738 97.211394 
L 126.837537 93.945453 
L 130.150375 91.009664 
L 133.463173 88.362753 
L 136.775971 85.970172 
L 140.08877 83.80296 
L 143.401568 81.836683 
L 146.714366 80.050606 
L 150.027165 78.427297 
L 153.339963 76.951751 
L 156.652761 75.611155 
L 159.96556 74.394565 
L 163.278358 73.292504 
L 166.591156 72.296768 
L 169.903955 71.400625 
L 173.216753 70.598489 
L 176.529551 69.885902 
L 179.842389 69.259376 
L 183.155187 68.716248 
L 186.467986 68.254402 
L 189.780784 67.872494 
L 193.093582 67.569589 
L 196.406381 67.345189 
L 199.719179 67.199164 
L 203.031977 67.131567 
L 206.344776 67.142548 
L 209.657574 67.23223 
L 212.970412 67.400363 
L 216.28321 67.645807 
L 219.596008 67.966129 
L 222.908807 68.356677 
L 229.534403 69.31366 
L 246.098395 71.960498 
L 249.411193 72.38029 
L 252.723992 72.729627 
L 256.03679 73.001401 
L 259.349588 73.192339 
L 262.662387 73.302443 
L 265.975185 73.334586 
L 269.288023 73.293749 
L 272.600821 73.186405 
L 279.226418 72.800946 
L 285.852014 72.235708 
L 292.477651 71.542177 
L 302.416045 70.350258 
L 318.980037 68.188816 
L 338.856827 65.615382 
L 352.10806 64.031477 
L 362.046455 62.956792 
L 371.984889 62.00798 
L 381.923284 61.209545 
L 388.548881 60.771945 
L 395.174478 60.417338 
L 398.487276 60.273156 
" style="fill:none;stroke:#0000ff;stroke-linecap:square;stroke-width:1.5;"/>
   </g>
   <g id="line2d_27">
    <path clip-path="url(#pb325921d8f)" d="M 73.832724 289.363961 
L 77.145522 253.926309 
L 80.458321 227.587334 
L 83.771119 206.603738 
L 87.083917 189.314982 
L 90.396716 174.818724 
L 93.709554 162.540442 
L 97.022352 152.067428 
L 100.33515 143.081058 
L 103.647949 135.327417 
L 106.960747 128.601193 
L 110.273545 122.735606 
L 113.586344 117.59495 
L 116.899142 113.068604 
L 120.21194 109.065629 
L 123.524738 105.511273 
L 126.837537 102.343925 
L 130.150375 99.512429 
L 133.463173 96.973899 
L 136.775971 94.691966 
L 140.08877 92.635462 
L 143.401568 90.77786 
L 146.714366 89.096426 
L 150.027165 87.571892 
L 153.339963 86.187768 
L 156.652761 84.929766 
L 159.96556 83.785721 
L 163.278358 82.745517 
L 166.591156 81.800609 
L 169.903955 80.943939 
L 173.216753 80.169896 
L 176.529551 79.474183 
L 179.842389 78.853444 
L 183.155187 78.305169 
L 186.467986 77.827551 
L 189.780784 77.419289 
L 193.093582 77.079642 
L 196.406381 76.808067 
L 199.719179 76.604353 
L 203.031977 76.468564 
L 206.344776 76.401145 
L 209.657574 76.402787 
L 212.970412 76.474329 
L 216.28321 76.616726 
L 219.596008 76.830768 
L 222.908807 77.116781 
L 226.221605 77.473941 
L 229.534403 77.899615 
L 236.16 78.931498 
L 246.098395 80.739888 
L 252.723992 81.90947 
L 256.03679 82.429919 
L 259.349588 82.889978 
L 262.662387 83.281122 
L 265.975185 83.598784 
L 269.288023 83.841843 
L 272.600821 84.012189 
L 275.913619 84.113864 
L 282.539216 84.134065 
L 289.164852 83.952217 
L 295.790449 83.616746 
L 302.416045 83.169083 
L 312.35444 82.357208 
L 325.605634 81.126161 
L 362.046455 77.639069 
L 375.297688 76.544635 
L 385.236083 75.8406 
L 395.174478 75.258813 
L 398.487276 75.095275 
" style="fill:none;stroke:#00ffff;stroke-linecap:square;stroke-width:1.5;"/>
   </g>
   <g id="patch_3">
    <path d="M 57.6 307.584 
L 57.6 41.472 
" style="fill:none;stroke:#000000;stroke-linecap:square;stroke-linejoin:miter;stroke-width:0.8;"/>
   </g>
   <g id="patch_4">
    <path d="M 414.72 307.584 
L 414.72 41.472 
" style="fill:none;stroke:#000000;stroke-linecap:square;stroke-linejoin:miter;stroke-width:0.8;"/>
   </g>
   <g id="patch_5">
    <path d="M 57.6 307.584 
L 414.72 307.584 
" style="fill:none;stroke:#000000;stroke-linecap:square;stroke-linejoin:miter;stroke-width:0.8;"/>
   </g>
   <g id="patch_6">
    <path d="M 57.6 41.472 
L 414.72 41.472 
" style="fill:none;stroke:#000000;stroke-linecap:square;stroke-linejoin:miter;stroke-width:0.8;"/>
   </g>
   <g id="legend_1">
    <g id="patch_7">
     <path d="M 282.559063 302.584 
L 407.72 302.584 
Q 409.72 302.584 409.72 300.584 
L 409.72 257.549625 
Q 409.72 255.549625 407.72 255.549625 
L 282.559063 255.549625 
Q 280.559063 255.549625 280.559063 257.549625 
L 280.559063 300.584 
Q 280.559063 302.584 282.559063 302.584 
z
" style="fill:#ffffff;opacity:0.8;stroke:#cccccc;stroke-linejoin:miter;"/>
    </g>
    <g id="line2d_28">
     <path d="M 284.559063 263.648062 
L 304.559063 263.648062 
" style="fill:none;stroke:#ff0000;stroke-linecap:square;stroke-width:1.5;"/>
    </g>
    <g id="line2d_29"/>
    <g id="text_10">
     <!-- No denoising -->
     <defs>
      <path d="M 9.8125 72.90625 
L 23.09375 72.90625 
L 55.421875 11.921875 
L 55.421875 72.90625 
L 64.984375 72.90625 
L 64.984375 0 
L 51.703125 0 
L 19.390625 60.984375 
L 19.390625 0 
L 9.8125 0 
z
" id="DejaVuSans-78"/>
      <path d="M 45.40625 27.984375 
Q 45.40625 37.75 41.375 43.109375 
Q 37.359375 48.484375 30.078125 48.484375 
Q 22.859375 48.484375 18.828125 43.109375 
Q 14.796875 37.75 14.796875 27.984375 
Q 14.796875 18.265625 18.828125 12.890625 
Q 22.859375 7.515625 30.078125 7.515625 
Q 37.359375 7.515625 41.375 12.890625 
Q 45.40625 18.265625 45.40625 27.984375 
z
M 54.390625 6.78125 
Q 54.390625 -7.171875 48.1875 -13.984375 
Q 42 -20.796875 29.203125 -20.796875 
Q 24.46875 -20.796875 20.265625 -20.09375 
Q 16.0625 -19.390625 12.109375 -17.921875 
L 12.109375 -9.1875 
Q 16.0625 -11.328125 19.921875 -12.34375 
Q 23.78125 -13.375 27.78125 -13.375 
Q 36.625 -13.375 41.015625 -8.765625 
Q 45.40625 -4.15625 45.40625 5.171875 
L 45.40625 9.625 
Q 42.625 4.78125 38.28125 2.390625 
Q 33.9375 0 27.875 0 
Q 17.828125 0 11.671875 7.65625 
Q 5.515625 15.328125 5.515625 27.984375 
Q 5.515625 40.671875 11.671875 48.328125 
Q 17.828125 56 27.875 56 
Q 33.9375 56 38.28125 53.609375 
Q 42.625 51.21875 45.40625 46.390625 
L 45.40625 54.6875 
L 54.390625 54.6875 
z
" id="DejaVuSans-103"/>
     </defs>
     <g transform="translate(312.559063 267.148062)scale(0.1 -0.1)">
      <use xlink:href="#DejaVuSans-78"/>
      <use x="74.804688" xlink:href="#DejaVuSans-111"/>
      <use x="135.986328" xlink:href="#DejaVuSans-32"/>
      <use x="167.773438" xlink:href="#DejaVuSans-100"/>
      <use x="231.25" xlink:href="#DejaVuSans-101"/>
      <use x="292.773438" xlink:href="#DejaVuSans-110"/>
      <use x="356.152344" xlink:href="#DejaVuSans-111"/>
      <use x="417.333984" xlink:href="#DejaVuSans-105"/>
      <use x="445.117188" xlink:href="#DejaVuSans-115"/>
      <use x="497.216797" xlink:href="#DejaVuSans-105"/>
      <use x="525" xlink:href="#DejaVuSans-110"/>
      <use x="588.378906" xlink:href="#DejaVuSans-103"/>
     </g>
    </g>
    <g id="line2d_30">
     <path d="M 284.559063 278.326188 
L 304.559063 278.326188 
" style="fill:none;stroke:#0000ff;stroke-linecap:square;stroke-width:1.5;"/>
    </g>
    <g id="line2d_31"/>
    <g id="text_11">
     <!-- With denoising -->
     <defs>
      <path d="M 3.328125 72.90625 
L 13.28125 72.90625 
L 28.609375 11.28125 
L 43.890625 72.90625 
L 54.984375 72.90625 
L 70.3125 11.28125 
L 85.59375 72.90625 
L 95.609375 72.90625 
L 77.296875 0 
L 64.890625 0 
L 49.515625 63.28125 
L 33.984375 0 
L 21.578125 0 
z
" id="DejaVuSans-87"/>
      <path d="M 54.890625 33.015625 
L 54.890625 0 
L 45.90625 0 
L 45.90625 32.71875 
Q 45.90625 40.484375 42.875 44.328125 
Q 39.84375 48.1875 33.796875 48.1875 
Q 26.515625 48.1875 22.3125 43.546875 
Q 18.109375 38.921875 18.109375 30.90625 
L 18.109375 0 
L 9.078125 0 
L 9.078125 75.984375 
L 18.109375 75.984375 
L 18.109375 46.1875 
Q 21.34375 51.125 25.703125 53.5625 
Q 30.078125 56 35.796875 56 
Q 45.21875 56 50.046875 50.171875 
Q 54.890625 44.34375 54.890625 33.015625 
z
" id="DejaVuSans-104"/>
     </defs>
     <g transform="translate(312.559063 281.826188)scale(0.1 -0.1)">
      <use xlink:href="#DejaVuSans-87"/>
      <use x="98.845703" xlink:href="#DejaVuSans-105"/>
      <use x="126.628906" xlink:href="#DejaVuSans-116"/>
      <use x="165.837891" xlink:href="#DejaVuSans-104"/>
      <use x="229.216797" xlink:href="#DejaVuSans-32"/>
      <use x="261.003906" xlink:href="#DejaVuSans-100"/>
      <use x="324.480469" xlink:href="#DejaVuSans-101"/>
      <use x="386.003906" xlink:href="#DejaVuSans-110"/>
      <use x="449.382812" xlink:href="#DejaVuSans-111"/>
      <use x="510.564453" xlink:href="#DejaVuSans-105"/>
      <use x="538.347656" xlink:href="#DejaVuSans-115"/>
      <use x="590.447266" xlink:href="#DejaVuSans-105"/>
      <use x="618.230469" xlink:href="#DejaVuSans-110"/>
      <use x="681.609375" xlink:href="#DejaVuSans-103"/>
     </g>
    </g>
    <g id="line2d_32">
     <path d="M 284.559063 293.004312 
L 304.559063 293.004312 
" style="fill:none;stroke:#00ffff;stroke-linecap:square;stroke-width:1.5;"/>
    </g>
    <g id="line2d_33"/>
    <g id="text_12">
     <!-- With big denoising -->
     <defs>
      <path d="M 48.6875 27.296875 
Q 48.6875 37.203125 44.609375 42.84375 
Q 40.53125 48.484375 33.40625 48.484375 
Q 26.265625 48.484375 22.1875 42.84375 
Q 18.109375 37.203125 18.109375 27.296875 
Q 18.109375 17.390625 22.1875 11.75 
Q 26.265625 6.109375 33.40625 6.109375 
Q 40.53125 6.109375 44.609375 11.75 
Q 48.6875 17.390625 48.6875 27.296875 
z
M 18.109375 46.390625 
Q 20.953125 51.265625 25.265625 53.625 
Q 29.59375 56 35.59375 56 
Q 45.5625 56 51.78125 48.09375 
Q 58.015625 40.1875 58.015625 27.296875 
Q 58.015625 14.40625 51.78125 6.484375 
Q 45.5625 -1.421875 35.59375 -1.421875 
Q 29.59375 -1.421875 25.265625 0.953125 
Q 20.953125 3.328125 18.109375 8.203125 
L 18.109375 0 
L 9.078125 0 
L 9.078125 75.984375 
L 18.109375 75.984375 
z
" id="DejaVuSans-98"/>
     </defs>
     <g transform="translate(312.559063 296.504312)scale(0.1 -0.1)">
      <use xlink:href="#DejaVuSans-87"/>
      <use x="98.845703" xlink:href="#DejaVuSans-105"/>
      <use x="126.628906" xlink:href="#DejaVuSans-116"/>
      <use x="165.837891" xlink:href="#DejaVuSans-104"/>
      <use x="229.216797" xlink:href="#DejaVuSans-32"/>
      <use x="261.003906" xlink:href="#DejaVuSans-98"/>
      <use x="324.480469" xlink:href="#DejaVuSans-105"/>
      <use x="352.263672" xlink:href="#DejaVuSans-103"/>
      <use x="415.740234" xlink:href="#DejaVuSans-32"/>
      <use x="447.527344" xlink:href="#DejaVuSans-100"/>
      <use x="511.003906" xlink:href="#DejaVuSans-101"/>
      <use x="572.527344" xlink:href="#DejaVuSans-110"/>
      <use x="635.90625" xlink:href="#DejaVuSans-111"/>
      <use x="697.087891" xlink:href="#DejaVuSans-105"/>
      <use x="724.871094" xlink:href="#DejaVuSans-115"/>
      <use x="776.970703" xlink:href="#DejaVuSans-105"/>
      <use x="804.753906" xlink:href="#DejaVuSans-110"/>
      <use x="868.132812" xlink:href="#DejaVuSans-103"/>
     </g>
    </g>
   </g>
  </g>
 </g>
 <defs>
  <clipPath id="pb325921d8f">
   <rect height="266.112" width="357.12" x="57.6" y="41.472"/>
  </clipPath>
 </defs>
</svg>
