<?xml version="1.0" encoding="utf-8" standalone="no"?>
<!DOCTYPE svg PUBLIC "-//W3C//DTD SVG 1.1//EN"
  "http://www.w3.org/Graphics/SVG/1.1/DTD/svg11.dtd">
<!-- Created with matplotlib (https://matplotlib.org/) -->
<svg height="345.6pt" version="1.1" viewBox="0 0 460.8 345.6" width="460.8pt" xmlns="http://www.w3.org/2000/svg" xmlns:xlink="http://www.w3.org/1999/xlink">
 <defs>
  <style type="text/css">
*{stroke-linecap:butt;stroke-linejoin:round;white-space:pre;}
  </style>
 </defs>
 <g id="figure_1">
  <g id="patch_1">
   <path d="M 0 345.6 
L 460.8 345.6 
L 460.8 0 
L 0 0 
z
" style="fill:#ffffff;"/>
  </g>
  <g id="axes_1">
   <g id="patch_2">
    <path d="M 57.6 307.584 
L 414.72 307.584 
L 414.72 41.472 
L 57.6 41.472 
z
" style="fill:#ffffff;"/>
   </g>
   <g id="PolyCollection_1">
    <path clip-path="url(#pb9a521e971)" d="M 73.832727 272.308834 
L 73.832727 282.399108 
L 77.145529 248.015543 
L 80.45833 222.460731 
L 83.771132 202.060776 
L 87.083933 185.189464 
L 90.396735 170.969576 
L 93.709536 158.851216 
L 97.022338 148.445651 
L 100.335139 139.455039 
L 103.647941 131.641945 
L 106.960742 124.814295 
L 110.273544 118.81589 
L 113.586345 113.519124 
L 116.899147 108.819459 
L 120.211948 104.631004 
L 123.52475 100.88293 
L 126.837551 97.516519 
L 130.150353 94.482872 
L 133.463154 91.741073 
L 136.775955 89.256788 
L 140.088757 87.001225 
L 143.401558 84.950095 
L 146.71436 83.082821 
L 150.027161 81.381979 
L 153.339963 79.83285 
L 156.652764 78.42299 
L 159.965566 77.141849 
L 163.278367 75.980431 
L 166.591169 74.931053 
L 169.90397 73.987106 
L 173.216772 73.142849 
L 176.529573 72.393329 
L 179.842375 71.734294 
L 183.155176 71.162111 
L 186.467978 70.673733 
L 189.780779 70.26671 
L 193.093581 69.939201 
L 196.406382 69.68985 
L 199.719184 69.517631 
L 203.031985 69.421765 
L 206.344787 69.401525 
L 209.657588 69.456005 
L 212.97039 69.58383 
L 216.283191 69.782786 
L 219.595993 70.049302 
L 222.908794 70.377789 
L 226.221596 70.759892 
L 229.534397 71.18382 
L 232.847199 71.633963 
L 236.16 72.091081 
L 239.472801 72.533376 
L 242.785603 72.938571 
L 246.098404 73.286535 
L 249.411206 73.561557 
L 252.724007 73.753631 
L 256.036809 73.85854 
L 259.34961 73.877024 
L 262.662412 73.813506 
L 265.975213 73.674789 
L 269.288015 73.468944 
L 272.600816 73.204489 
L 275.913618 72.889826 
L 279.226419 72.532902 
L 282.539221 72.141012 
L 285.852022 71.720732 
L 289.164824 71.277906 
L 292.477625 70.81768 
L 295.790427 70.344555 
L 299.103228 69.862457 
L 302.41603 69.374796 
L 305.728831 68.884534 
L 309.041633 68.394242 
L 312.354434 67.906158 
L 315.667236 67.422234 
L 318.980037 66.944179 
L 322.292839 66.473491 
L 325.60564 66.011483 
L 328.918442 65.559325 
L 332.231243 65.118064 
L 335.544045 64.688638 
L 338.856846 64.271879 
L 342.169647 63.868521 
L 345.482449 63.479213 
L 348.79525 63.104539 
L 352.108052 62.745018 
L 355.420853 62.401099 
L 358.733655 62.07318 
L 362.046456 61.761624 
L 365.359258 61.466782 
L 368.672059 61.188997 
L 371.984861 60.928597 
L 375.297662 60.685896 
L 378.610464 60.461186 
L 381.923265 60.254753 
L 385.236067 60.066899 
L 388.548868 59.897955 
L 391.86167 59.748306 
L 395.174471 59.618417 
L 398.487273 59.508843 
L 398.487273 53.568 
L 398.487273 53.568 
L 395.174471 53.705095 
L 391.86167 53.86063 
L 388.548868 54.034236 
L 385.236067 54.225558 
L 381.923265 54.434239 
L 378.610464 54.659911 
L 375.297662 54.902192 
L 371.984861 55.160683 
L 368.672059 55.434982 
L 365.359258 55.724682 
L 362.046456 56.029378 
L 358.733655 56.348662 
L 355.420853 56.682121 
L 352.108052 57.029319 
L 348.79525 57.389795 
L 345.482449 57.763035 
L 342.169647 58.148469 
L 338.856846 58.54546 
L 335.544045 58.953313 
L 332.231243 59.371263 
L 328.918442 59.798463 
L 325.60564 60.233979 
L 322.292839 60.676778 
L 318.980037 61.125705 
L 315.667236 61.579462 
L 312.354434 62.036574 
L 309.041633 62.495347 
L 305.728831 62.953828 
L 302.41603 63.40976 
L 299.103228 63.860527 
L 295.790427 64.303094 
L 292.477625 64.733944 
L 289.164824 65.149002 
L 285.852022 65.543568 
L 282.539221 65.912254 
L 279.226419 66.248938 
L 275.913618 66.546757 
L 272.600816 66.798177 
L 269.288015 66.995162 
L 265.975213 67.1295 
L 262.662412 67.193357 
L 259.34961 67.180078 
L 256.036809 67.085271 
L 252.724007 66.908078 
L 249.411206 66.652379 
L 246.098404 66.327557 
L 242.785603 65.948361 
L 239.472801 65.533655 
L 236.16 65.104258 
L 232.847199 64.680524 
L 229.534397 64.28038 
L 226.221596 63.918309 
L 222.908794 63.605201 
L 219.595993 63.348766 
L 216.283191 63.154176 
L 212.97039 63.024726 
L 209.657588 62.962424 
L 206.344787 62.968452 
L 203.031985 63.043533 
L 199.719184 63.188179 
L 196.406382 63.402918 
L 193.093581 63.688462 
L 189.780779 64.045855 
L 186.467978 64.476563 
L 183.155176 64.982562 
L 179.842375 65.566368 
L 176.529573 66.231007 
L 173.216772 66.980071 
L 169.90397 67.817824 
L 166.591169 68.749228 
L 163.278367 69.779982 
L 159.965566 70.916652 
L 156.652764 72.166822 
L 153.339963 73.539305 
L 150.027161 75.044422 
L 146.71436 76.694294 
L 143.401558 78.503164 
L 140.088757 80.487761 
L 136.775955 82.667741 
L 133.463154 85.066357 
L 130.150353 87.711285 
L 126.837551 90.635432 
L 123.52475 93.878036 
L 120.211948 97.486233 
L 116.899147 101.516928 
L 113.586345 106.039153 
L 110.273544 111.13711 
L 106.960742 116.913999 
L 103.647941 123.497061 
L 100.335139 131.044062 
L 97.022338 139.751387 
L 93.709536 149.864675 
L 90.396735 161.695109 
L 87.083933 175.650044 
L 83.771132 192.299183 
L 80.45833 212.533147 
L 77.145529 237.980984 
L 73.832727 272.308834 
z
" style="fill:#ff0000;fill-opacity:0.4;"/>
   </g>
   <g id="PolyCollection_2">
    <path clip-path="url(#pb9a521e971)" d="M 73.832727 272.472995 
L 73.832727 282.811318 
L 77.145529 248.51685 
L 80.45833 223.047555 
L 83.771132 202.731616 
L 87.083933 185.942323 
L 90.396735 171.800974 
L 93.709536 159.756668 
L 97.022338 149.420395 
L 100.335139 140.494621 
L 103.647941 132.742504 
L 106.960742 125.97276 
L 110.273544 120.029854 
L 113.586345 114.786697 
L 116.899147 110.139102 
L 120.211948 106.001406 
L 123.52475 102.302971 
L 126.837551 98.985212 
L 130.150353 95.999359 
L 133.463154 93.304718 
L 136.775955 90.867182 
L 140.088757 88.658147 
L 143.401558 86.65351 
L 146.71436 84.832862 
L 150.027161 83.178925 
L 153.339963 81.677147 
L 156.652764 80.315293 
L 159.965566 79.083055 
L 163.278367 77.971714 
L 166.591169 76.973891 
L 169.90397 76.083305 
L 173.216772 75.29455 
L 176.529573 74.603014 
L 179.842375 74.004793 
L 183.155176 73.496571 
L 186.467978 73.075558 
L 189.780779 72.739516 
L 193.093581 72.486829 
L 196.406382 72.316467 
L 199.719184 72.227752 
L 203.031985 72.220152 
L 206.344787 72.293095 
L 209.657588 72.44567 
L 212.97039 72.676286 
L 216.283191 72.982122 
L 219.595993 73.358371 
L 222.908794 73.797333 
L 226.221596 74.287478 
L 229.534397 74.812731 
L 232.847199 75.35236 
L 236.16 75.88186 
L 239.472801 76.375098 
L 242.785603 76.807449 
L 246.098404 77.158923 
L 249.411206 77.416159 
L 252.724007 77.572845 
L 256.036809 77.62885 
L 259.34961 77.588697 
L 262.662412 77.459946 
L 265.975213 77.25182 
L 269.288015 76.974175 
L 272.600816 76.636798 
L 275.913618 76.248983 
L 279.226419 75.819282 
L 282.539221 75.355398 
L 285.852022 74.864168 
L 289.164824 74.351595 
L 292.477625 73.822911 
L 295.790427 73.282655 
L 299.103228 72.734756 
L 302.41603 72.182613 
L 305.728831 71.62917 
L 309.041633 71.076979 
L 312.354434 70.528258 
L 315.667236 69.984947 
L 318.980037 69.448746 
L 322.292839 68.921156 
L 325.60564 68.403507 
L 328.918442 67.896992 
L 332.231243 67.402686 
L 335.544045 66.921573 
L 338.856846 66.454559 
L 342.169647 66.002485 
L 345.482449 65.566125 
L 348.79525 65.146182 
L 352.108052 64.743298 
L 355.420853 64.358063 
L 358.733655 63.991014 
L 362.046456 63.642628 
L 365.359258 63.313321 
L 368.672059 63.00347 
L 371.984861 62.713441 
L 375.297662 62.443596 
L 378.610464 62.194293 
L 381.923265 61.965898 
L 385.236067 61.75877 
L 388.548868 61.573264 
L 391.86167 61.409751 
L 395.174471 61.268654 
L 398.487273 61.150469 
L 398.487273 55.093709 
L 398.487273 55.093709 
L 395.174471 55.242526 
L 391.86167 55.412103 
L 388.548868 55.601969 
L 385.236067 55.811656 
L 381.923265 56.040702 
L 378.610464 56.288649 
L 375.297662 56.555048 
L 371.984861 56.839466 
L 368.672059 57.141476 
L 365.359258 57.460656 
L 362.046456 57.796575 
L 358.733655 58.148791 
L 355.420853 58.516831 
L 352.108052 58.900172 
L 348.79525 59.298232 
L 345.482449 59.710385 
L 342.169647 60.135962 
L 338.856846 60.574253 
L 335.544045 61.0245 
L 332.231243 61.485904 
L 328.918442 61.957613 
L 325.60564 62.438709 
L 322.292839 62.928181 
L 318.980037 63.424905 
L 315.667236 63.927608 
L 312.354434 64.43484 
L 309.041633 64.944939 
L 305.728831 65.455987 
L 302.41603 65.965765 
L 299.103228 66.471692 
L 295.790427 66.970759 
L 292.477625 67.459452 
L 289.164824 67.933674 
L 285.852022 68.38866 
L 282.539221 68.818893 
L 279.226419 69.218033 
L 275.913618 69.578871 
L 272.600816 69.893338 
L 269.288015 70.152603 
L 265.975213 70.347298 
L 262.662412 70.467952 
L 259.34961 70.50569 
L 256.036809 70.453261 
L 252.724007 70.306396 
L 249.411206 70.06534 
L 246.098404 69.736256 
L 242.785603 69.33193 
L 239.472801 68.871233 
L 236.16 68.377167 
L 232.847199 67.873953 
L 229.534397 67.384174 
L 226.221596 66.926807 
L 222.908794 66.516471 
L 219.595993 66.163617 
L 216.283191 65.875234 
L 212.97039 65.655695 
L 209.657588 65.507553 
L 206.344787 65.432181 
L 203.031985 65.430286 
L 199.719184 65.502264 
L 196.406382 65.648486 
L 193.093581 65.869475 
L 189.780779 66.166021 
L 186.467978 66.539334 
L 183.155176 66.99117 
L 179.842375 67.523825 
L 176.529573 68.140101 
L 173.216772 68.843343 
L 169.90397 69.637504 
L 166.591169 70.527205 
L 163.278367 71.5178 
L 159.965566 72.615506 
L 156.652764 73.827574 
L 153.339963 75.162538 
L 150.027161 76.630479 
L 146.71436 78.243292 
L 143.401558 80.014991 
L 140.088757 81.962047 
L 136.775955 84.103851 
L 133.463154 86.463391 
L 130.150353 89.068042 
L 126.837551 91.950447 
L 123.52475 95.149656 
L 120.211948 98.712571 
L 116.899147 102.695809 
L 113.586345 107.168128 
L 110.273544 112.213377 
L 106.960742 117.934249 
L 103.647941 124.457349 
L 100.335139 131.939726 
L 97.022338 140.57715 
L 93.709536 150.614683 
L 90.396735 162.36302 
L 87.083933 176.229421 
L 83.771132 192.783704 
L 80.45833 212.916919 
L 77.145529 238.258123 
L 73.832727 272.472995 
z
" style="fill:#0000ff;fill-opacity:0.4;"/>
   </g>
   <g id="PolyCollection_3">
    <path clip-path="url(#pb9a521e971)" d="M 73.832727 281.692374 
L 73.832727 295.488 
L 77.145529 260.646966 
L 80.45833 234.670063 
L 83.771132 213.903425 
L 87.083933 196.734976 
L 90.396735 182.287779 
L 93.709536 170.002768 
L 97.022338 159.482539 
L 100.335139 150.420554 
L 103.647941 142.572109 
L 106.960742 135.738511 
L 110.273544 129.758021 
L 113.586345 124.498846 
L 116.899147 119.852733 
L 120.211948 115.730417 
L 123.52475 112.058119 
L 126.837551 108.774897 
L 130.150353 105.830203 
L 133.463154 103.181978 
L 136.775955 100.795014 
L 140.088757 98.63965 
L 143.401558 96.690617 
L 146.71436 94.926247 
L 150.027161 93.328209 
L 153.339963 91.881089 
L 156.652764 90.571999 
L 159.965566 89.390516 
L 163.278367 88.32823 
L 166.591169 87.378064 
L 169.90397 86.533983 
L 173.216772 85.790955 
L 176.529573 85.144976 
L 179.842375 84.593002 
L 183.155176 84.132913 
L 186.467978 83.763428 
L 189.780779 83.484068 
L 193.093581 83.295084 
L 196.406382 83.197278 
L 199.719184 83.191748 
L 203.031985 83.279641 
L 206.344787 83.461794 
L 209.657588 83.73822 
L 212.97039 84.107339 
L 216.283191 84.564817 
L 219.595993 85.102044 
L 222.908794 85.704479 
L 226.221596 86.350462 
L 229.534397 87.011293 
L 232.847199 87.653356 
L 236.16 88.242255 
L 239.472801 88.747776 
L 242.785603 89.147796 
L 246.098404 89.429879 
L 249.411206 89.590543 
L 252.724007 89.633141 
L 256.036809 89.565453 
L 259.34961 89.397689 
L 262.662412 89.141081 
L 265.975213 88.806986 
L 269.288015 88.40635 
L 272.600816 87.949405 
L 275.913618 87.445507 
L 279.226419 86.903078 
L 282.539221 86.329613 
L 285.852022 85.731721 
L 289.164824 85.115185 
L 292.477625 84.485041 
L 295.790427 83.845663 
L 299.103228 83.200845 
L 302.41603 82.553871 
L 305.728831 81.907591 
L 309.041633 81.264485 
L 312.354434 80.626724 
L 315.667236 79.996209 
L 318.980037 79.374621 
L 322.292839 78.763459 
L 325.60564 78.164075 
L 328.918442 77.577708 
L 332.231243 77.005504 
L 335.544045 76.448539 
L 338.856846 75.907833 
L 342.169647 75.384367 
L 345.482449 74.87909 
L 348.79525 74.392936 
L 352.108052 73.926832 
L 355.420853 73.481702 
L 358.733655 73.058476 
L 362.046456 72.658099 
L 365.359258 72.281524 
L 368.672059 71.929716 
L 371.984861 71.603653 
L 375.297662 71.304345 
L 378.610464 71.032844 
L 381.923265 70.790245 
L 385.236067 70.577683 
L 388.548868 70.396307 
L 391.86167 70.247277 
L 395.174471 70.131748 
L 398.487273 70.050877 
L 398.487273 63.392165 
L 398.487273 63.392165 
L 395.174471 63.561522 
L 391.86167 63.75931 
L 388.548868 63.984777 
L 385.236067 64.237137 
L 381.923265 64.51559 
L 378.610464 64.819337 
L 375.297662 65.147592 
L 371.984861 65.49958 
L 368.672059 65.874543 
L 365.359258 66.271727 
L 362.046456 66.690374 
L 358.733655 67.129707 
L 355.420853 67.588934 
L 352.108052 68.067274 
L 348.79525 68.563949 
L 345.482449 69.078183 
L 342.169647 69.6092 
L 338.856846 70.15621 
L 335.544045 70.7184 
L 332.231243 71.294917 
L 328.918442 71.884853 
L 325.60564 72.487235 
L 322.292839 73.101001 
L 318.980037 73.724974 
L 315.667236 74.357833 
L 312.354434 74.998076 
L 309.041633 75.643978 
L 305.728831 76.293537 
L 302.41603 76.944418 
L 299.103228 77.593891 
L 295.790427 78.238743 
L 292.477625 78.875188 
L 289.164824 79.498756 
L 285.852022 80.104172 
L 282.539221 80.685229 
L 279.226419 81.234649 
L 275.913618 81.743966 
L 272.600816 82.203427 
L 269.288015 82.601972 
L 265.975213 82.927346 
L 262.662412 83.166434 
L 259.34961 83.30593 
L 256.036809 83.333491 
L 252.724007 83.239444 
L 249.411206 83.019018 
L 246.098404 82.674695 
L 242.785603 82.21793 
L 239.472801 81.669237 
L 236.16 81.056136 
L 232.847199 80.409426 
L 229.534397 79.759025 
L 226.221596 79.130722 
L 222.908794 78.544518 
L 219.595993 78.014557 
L 216.283191 77.550106 
L 212.97039 77.156831 
L 209.657588 76.837989 
L 206.344787 76.595376 
L 203.031985 76.43001 
L 199.719184 76.342586 
L 196.406382 76.333722 
L 193.093581 76.404103 
L 189.780779 76.554559 
L 186.467978 76.786178 
L 183.155176 77.100486 
L 179.842375 77.499607 
L 176.529573 77.986258 
L 173.216772 78.563702 
L 169.90397 79.235849 
L 166.591169 80.007324 
L 163.278367 80.883504 
L 159.965566 81.870565 
L 156.652764 82.975643 
L 153.339963 84.207206 
L 150.027161 85.575504 
L 146.71436 87.092727 
L 143.401558 88.773239 
L 140.088757 90.633922 
L 136.775955 92.694625 
L 133.463154 94.978692 
L 130.150353 97.513937 
L 126.837551 100.333651 
L 123.52475 103.477714 
L 120.211948 106.994039 
L 116.899147 110.940353 
L 113.586345 115.386621 
L 110.273544 120.418179 
L 106.960742 126.139461 
L 103.647941 132.679003 
L 100.335139 140.195614 
L 97.022338 148.886119 
L 93.709536 158.996967 
L 90.396735 170.840091 
L 87.083933 184.822664 
L 83.771132 201.512852 
L 80.45833 221.798148 
L 77.145529 247.304151 
L 73.832727 281.692374 
z
" style="fill:#00ffff;fill-opacity:0.4;"/>
   </g>
   <g id="matplotlib.axis_1">
    <g id="xtick_1">
     <g id="line2d_1">
      <path clip-path="url(#pb9a521e971)" d="M 70.519926 307.584 
L 70.519926 41.472 
" style="fill:none;stroke:#b0b0b0;stroke-linecap:square;stroke-width:0.8;"/>
     </g>
     <g id="line2d_2">
      <defs>
       <path d="M 0 0 
L 0 3.5 
" id="m5dcf79ae83" style="stroke:#000000;stroke-width:0.8;"/>
      </defs>
      <g>
       <use style="stroke:#000000;stroke-width:0.8;" x="70.519926" xlink:href="#m5dcf79ae83" y="307.584"/>
      </g>
     </g>
     <g id="text_1">
      <!-- 0.0 -->
      <defs>
       <path d="M 31.78125 66.40625 
Q 24.171875 66.40625 20.328125 58.90625 
Q 16.5 51.421875 16.5 36.375 
Q 16.5 21.390625 20.328125 13.890625 
Q 24.171875 6.390625 31.78125 6.390625 
Q 39.453125 6.390625 43.28125 13.890625 
Q 47.125 21.390625 47.125 36.375 
Q 47.125 51.421875 43.28125 58.90625 
Q 39.453125 66.40625 31.78125 66.40625 
z
M 31.78125 74.21875 
Q 44.046875 74.21875 50.515625 64.515625 
Q 56.984375 54.828125 56.984375 36.375 
Q 56.984375 17.96875 50.515625 8.265625 
Q 44.046875 -1.421875 31.78125 -1.421875 
Q 19.53125 -1.421875 13.0625 8.265625 
Q 6.59375 17.96875 6.59375 36.375 
Q 6.59375 54.828125 13.0625 64.515625 
Q 19.53125 74.21875 31.78125 74.21875 
z
" id="DejaVuSans-48"/>
       <path d="M 10.6875 12.40625 
L 21 12.40625 
L 21 0 
L 10.6875 0 
z
" id="DejaVuSans-46"/>
      </defs>
      <g transform="translate(62.568363 322.182437)scale(0.1 -0.1)">
       <use xlink:href="#DejaVuSans-48"/>
       <use x="63.623047" xlink:href="#DejaVuSans-46"/>
       <use x="95.410156" xlink:href="#DejaVuSans-48"/>
      </g>
     </g>
    </g>
    <g id="xtick_2">
     <g id="line2d_3">
      <path clip-path="url(#pb9a521e971)" d="M 136.775955 307.584 
L 136.775955 41.472 
" style="fill:none;stroke:#b0b0b0;stroke-linecap:square;stroke-width:0.8;"/>
     </g>
     <g id="line2d_4">
      <g>
       <use style="stroke:#000000;stroke-width:0.8;" x="136.775955" xlink:href="#m5dcf79ae83" y="307.584"/>
      </g>
     </g>
     <g id="text_2">
      <!-- 0.2 -->
      <defs>
       <path d="M 19.1875 8.296875 
L 53.609375 8.296875 
L 53.609375 0 
L 7.328125 0 
L 7.328125 8.296875 
Q 12.9375 14.109375 22.625 23.890625 
Q 32.328125 33.6875 34.8125 36.53125 
Q 39.546875 41.84375 41.421875 45.53125 
Q 43.3125 49.21875 43.3125 52.78125 
Q 43.3125 58.59375 39.234375 62.25 
Q 35.15625 65.921875 28.609375 65.921875 
Q 23.96875 65.921875 18.8125 64.3125 
Q 13.671875 62.703125 7.8125 59.421875 
L 7.8125 69.390625 
Q 13.765625 71.78125 18.9375 73 
Q 24.125 74.21875 28.421875 74.21875 
Q 39.75 74.21875 46.484375 68.546875 
Q 53.21875 62.890625 53.21875 53.421875 
Q 53.21875 48.921875 51.53125 44.890625 
Q 49.859375 40.875 45.40625 35.40625 
Q 44.1875 33.984375 37.640625 27.21875 
Q 31.109375 20.453125 19.1875 8.296875 
z
" id="DejaVuSans-50"/>
      </defs>
      <g transform="translate(128.824393 322.182437)scale(0.1 -0.1)">
       <use xlink:href="#DejaVuSans-48"/>
       <use x="63.623047" xlink:href="#DejaVuSans-46"/>
       <use x="95.410156" xlink:href="#DejaVuSans-50"/>
      </g>
     </g>
    </g>
    <g id="xtick_3">
     <g id="line2d_5">
      <path clip-path="url(#pb9a521e971)" d="M 203.031985 307.584 
L 203.031985 41.472 
" style="fill:none;stroke:#b0b0b0;stroke-linecap:square;stroke-width:0.8;"/>
     </g>
     <g id="line2d_6">
      <g>
       <use style="stroke:#000000;stroke-width:0.8;" x="203.031985" xlink:href="#m5dcf79ae83" y="307.584"/>
      </g>
     </g>
     <g id="text_3">
      <!-- 0.4 -->
      <defs>
       <path d="M 37.796875 64.3125 
L 12.890625 25.390625 
L 37.796875 25.390625 
z
M 35.203125 72.90625 
L 47.609375 72.90625 
L 47.609375 25.390625 
L 58.015625 25.390625 
L 58.015625 17.1875 
L 47.609375 17.1875 
L 47.609375 0 
L 37.796875 0 
L 37.796875 17.1875 
L 4.890625 17.1875 
L 4.890625 26.703125 
z
" id="DejaVuSans-52"/>
      </defs>
      <g transform="translate(195.080423 322.182437)scale(0.1 -0.1)">
       <use xlink:href="#DejaVuSans-48"/>
       <use x="63.623047" xlink:href="#DejaVuSans-46"/>
       <use x="95.410156" xlink:href="#DejaVuSans-52"/>
      </g>
     </g>
    </g>
    <g id="xtick_4">
     <g id="line2d_7">
      <path clip-path="url(#pb9a521e971)" d="M 269.288015 307.584 
L 269.288015 41.472 
" style="fill:none;stroke:#b0b0b0;stroke-linecap:square;stroke-width:0.8;"/>
     </g>
     <g id="line2d_8">
      <g>
       <use style="stroke:#000000;stroke-width:0.8;" x="269.288015" xlink:href="#m5dcf79ae83" y="307.584"/>
      </g>
     </g>
     <g id="text_4">
      <!-- 0.6 -->
      <defs>
       <path d="M 33.015625 40.375 
Q 26.375 40.375 22.484375 35.828125 
Q 18.609375 31.296875 18.609375 23.390625 
Q 18.609375 15.53125 22.484375 10.953125 
Q 26.375 6.390625 33.015625 6.390625 
Q 39.65625 6.390625 43.53125 10.953125 
Q 47.40625 15.53125 47.40625 23.390625 
Q 47.40625 31.296875 43.53125 35.828125 
Q 39.65625 40.375 33.015625 40.375 
z
M 52.59375 71.296875 
L 52.59375 62.3125 
Q 48.875 64.0625 45.09375 64.984375 
Q 41.3125 65.921875 37.59375 65.921875 
Q 27.828125 65.921875 22.671875 59.328125 
Q 17.53125 52.734375 16.796875 39.40625 
Q 19.671875 43.65625 24.015625 45.921875 
Q 28.375 48.1875 33.59375 48.1875 
Q 44.578125 48.1875 50.953125 41.515625 
Q 57.328125 34.859375 57.328125 23.390625 
Q 57.328125 12.15625 50.6875 5.359375 
Q 44.046875 -1.421875 33.015625 -1.421875 
Q 20.359375 -1.421875 13.671875 8.265625 
Q 6.984375 17.96875 6.984375 36.375 
Q 6.984375 53.65625 15.1875 63.9375 
Q 23.390625 74.21875 37.203125 74.21875 
Q 40.921875 74.21875 44.703125 73.484375 
Q 48.484375 72.75 52.59375 71.296875 
z
" id="DejaVuSans-54"/>
      </defs>
      <g transform="translate(261.336452 322.182437)scale(0.1 -0.1)">
       <use xlink:href="#DejaVuSans-48"/>
       <use x="63.623047" xlink:href="#DejaVuSans-46"/>
       <use x="95.410156" xlink:href="#DejaVuSans-54"/>
      </g>
     </g>
    </g>
    <g id="xtick_5">
     <g id="line2d_9">
      <path clip-path="url(#pb9a521e971)" d="M 335.544045 307.584 
L 335.544045 41.472 
" style="fill:none;stroke:#b0b0b0;stroke-linecap:square;stroke-width:0.8;"/>
     </g>
     <g id="line2d_10">
      <g>
       <use style="stroke:#000000;stroke-width:0.8;" x="335.544045" xlink:href="#m5dcf79ae83" y="307.584"/>
      </g>
     </g>
     <g id="text_5">
      <!-- 0.8 -->
      <defs>
       <path d="M 31.78125 34.625 
Q 24.75 34.625 20.71875 30.859375 
Q 16.703125 27.09375 16.703125 20.515625 
Q 16.703125 13.921875 20.71875 10.15625 
Q 24.75 6.390625 31.78125 6.390625 
Q 38.8125 6.390625 42.859375 10.171875 
Q 46.921875 13.96875 46.921875 20.515625 
Q 46.921875 27.09375 42.890625 30.859375 
Q 38.875 34.625 31.78125 34.625 
z
M 21.921875 38.8125 
Q 15.578125 40.375 12.03125 44.71875 
Q 8.5 49.078125 8.5 55.328125 
Q 8.5 64.0625 14.71875 69.140625 
Q 20.953125 74.21875 31.78125 74.21875 
Q 42.671875 74.21875 48.875 69.140625 
Q 55.078125 64.0625 55.078125 55.328125 
Q 55.078125 49.078125 51.53125 44.71875 
Q 48 40.375 41.703125 38.8125 
Q 48.828125 37.15625 52.796875 32.3125 
Q 56.78125 27.484375 56.78125 20.515625 
Q 56.78125 9.90625 50.3125 4.234375 
Q 43.84375 -1.421875 31.78125 -1.421875 
Q 19.734375 -1.421875 13.25 4.234375 
Q 6.78125 9.90625 6.78125 20.515625 
Q 6.78125 27.484375 10.78125 32.3125 
Q 14.796875 37.15625 21.921875 38.8125 
z
M 18.3125 54.390625 
Q 18.3125 48.734375 21.84375 45.5625 
Q 25.390625 42.390625 31.78125 42.390625 
Q 38.140625 42.390625 41.71875 45.5625 
Q 45.3125 48.734375 45.3125 54.390625 
Q 45.3125 60.0625 41.71875 63.234375 
Q 38.140625 66.40625 31.78125 66.40625 
Q 25.390625 66.40625 21.84375 63.234375 
Q 18.3125 60.0625 18.3125 54.390625 
z
" id="DejaVuSans-56"/>
      </defs>
      <g transform="translate(327.592482 322.182437)scale(0.1 -0.1)">
       <use xlink:href="#DejaVuSans-48"/>
       <use x="63.623047" xlink:href="#DejaVuSans-46"/>
       <use x="95.410156" xlink:href="#DejaVuSans-56"/>
      </g>
     </g>
    </g>
    <g id="xtick_6">
     <g id="line2d_11">
      <path clip-path="url(#pb9a521e971)" d="M 401.800074 307.584 
L 401.800074 41.472 
" style="fill:none;stroke:#b0b0b0;stroke-linecap:square;stroke-width:0.8;"/>
     </g>
     <g id="line2d_12">
      <g>
       <use style="stroke:#000000;stroke-width:0.8;" x="401.800074" xlink:href="#m5dcf79ae83" y="307.584"/>
      </g>
     </g>
     <g id="text_6">
      <!-- 1.0 -->
      <defs>
       <path d="M 12.40625 8.296875 
L 28.515625 8.296875 
L 28.515625 63.921875 
L 10.984375 60.40625 
L 10.984375 69.390625 
L 28.421875 72.90625 
L 38.28125 72.90625 
L 38.28125 8.296875 
L 54.390625 8.296875 
L 54.390625 0 
L 12.40625 0 
z
" id="DejaVuSans-49"/>
      </defs>
      <g transform="translate(393.848512 322.182437)scale(0.1 -0.1)">
       <use xlink:href="#DejaVuSans-49"/>
       <use x="63.623047" xlink:href="#DejaVuSans-46"/>
       <use x="95.410156" xlink:href="#DejaVuSans-48"/>
      </g>
     </g>
    </g>
    <g id="text_7">
     <!-- $\mathrm{Time \ (seconds)}$ -->
     <defs>
      <path d="M -0.296875 72.90625 
L 61.375 72.90625 
L 61.375 64.59375 
L 35.5 64.59375 
L 35.5 0 
L 25.59375 0 
L 25.59375 64.59375 
L -0.296875 64.59375 
z
" id="DejaVuSans-84"/>
      <path d="M 9.421875 54.6875 
L 18.40625 54.6875 
L 18.40625 0 
L 9.421875 0 
z
M 9.421875 75.984375 
L 18.40625 75.984375 
L 18.40625 64.59375 
L 9.421875 64.59375 
z
" id="DejaVuSans-105"/>
      <path d="M 52 44.1875 
Q 55.375 50.25 60.0625 53.125 
Q 64.75 56 71.09375 56 
Q 79.640625 56 84.28125 50.015625 
Q 88.921875 44.046875 88.921875 33.015625 
L 88.921875 0 
L 79.890625 0 
L 79.890625 32.71875 
Q 79.890625 40.578125 77.09375 44.375 
Q 74.3125 48.1875 68.609375 48.1875 
Q 61.625 48.1875 57.5625 43.546875 
Q 53.515625 38.921875 53.515625 30.90625 
L 53.515625 0 
L 44.484375 0 
L 44.484375 32.71875 
Q 44.484375 40.625 41.703125 44.40625 
Q 38.921875 48.1875 33.109375 48.1875 
Q 26.21875 48.1875 22.15625 43.53125 
Q 18.109375 38.875 18.109375 30.90625 
L 18.109375 0 
L 9.078125 0 
L 9.078125 54.6875 
L 18.109375 54.6875 
L 18.109375 46.1875 
Q 21.1875 51.21875 25.484375 53.609375 
Q 29.78125 56 35.6875 56 
Q 41.65625 56 45.828125 52.96875 
Q 50 49.953125 52 44.1875 
z
" id="DejaVuSans-109"/>
      <path d="M 56.203125 29.59375 
L 56.203125 25.203125 
L 14.890625 25.203125 
Q 15.484375 15.921875 20.484375 11.0625 
Q 25.484375 6.203125 34.421875 6.203125 
Q 39.59375 6.203125 44.453125 7.46875 
Q 49.3125 8.734375 54.109375 11.28125 
L 54.109375 2.78125 
Q 49.265625 0.734375 44.1875 -0.34375 
Q 39.109375 -1.421875 33.890625 -1.421875 
Q 20.796875 -1.421875 13.15625 6.1875 
Q 5.515625 13.8125 5.515625 26.8125 
Q 5.515625 40.234375 12.765625 48.109375 
Q 20.015625 56 32.328125 56 
Q 43.359375 56 49.78125 48.890625 
Q 56.203125 41.796875 56.203125 29.59375 
z
M 47.21875 32.234375 
Q 47.125 39.59375 43.09375 43.984375 
Q 39.0625 48.390625 32.421875 48.390625 
Q 24.90625 48.390625 20.390625 44.140625 
Q 15.875 39.890625 15.1875 32.171875 
z
" id="DejaVuSans-101"/>
      <path d="M 31 75.875 
Q 24.46875 64.65625 21.28125 53.65625 
Q 18.109375 42.671875 18.109375 31.390625 
Q 18.109375 20.125 21.3125 9.0625 
Q 24.515625 -2 31 -13.1875 
L 23.1875 -13.1875 
Q 15.875 -1.703125 12.234375 9.375 
Q 8.59375 20.453125 8.59375 31.390625 
Q 8.59375 42.28125 12.203125 53.3125 
Q 15.828125 64.359375 23.1875 75.875 
z
" id="DejaVuSans-40"/>
      <path d="M 44.28125 53.078125 
L 44.28125 44.578125 
Q 40.484375 46.53125 36.375 47.5 
Q 32.28125 48.484375 27.875 48.484375 
Q 21.1875 48.484375 17.84375 46.4375 
Q 14.5 44.390625 14.5 40.28125 
Q 14.5 37.15625 16.890625 35.375 
Q 19.28125 33.59375 26.515625 31.984375 
L 29.59375 31.296875 
Q 39.15625 29.25 43.1875 25.515625 
Q 47.21875 21.78125 47.21875 15.09375 
Q 47.21875 7.46875 41.1875 3.015625 
Q 35.15625 -1.421875 24.609375 -1.421875 
Q 20.21875 -1.421875 15.453125 -0.5625 
Q 10.6875 0.296875 5.421875 2 
L 5.421875 11.28125 
Q 10.40625 8.6875 15.234375 7.390625 
Q 20.0625 6.109375 24.8125 6.109375 
Q 31.15625 6.109375 34.5625 8.28125 
Q 37.984375 10.453125 37.984375 14.40625 
Q 37.984375 18.0625 35.515625 20.015625 
Q 33.0625 21.96875 24.703125 23.78125 
L 21.578125 24.515625 
Q 13.234375 26.265625 9.515625 29.90625 
Q 5.8125 33.546875 5.8125 39.890625 
Q 5.8125 47.609375 11.28125 51.796875 
Q 16.75 56 26.8125 56 
Q 31.78125 56 36.171875 55.265625 
Q 40.578125 54.546875 44.28125 53.078125 
z
" id="DejaVuSans-115"/>
      <path d="M 48.78125 52.59375 
L 48.78125 44.1875 
Q 44.96875 46.296875 41.140625 47.34375 
Q 37.3125 48.390625 33.40625 48.390625 
Q 24.65625 48.390625 19.8125 42.84375 
Q 14.984375 37.3125 14.984375 27.296875 
Q 14.984375 17.28125 19.8125 11.734375 
Q 24.65625 6.203125 33.40625 6.203125 
Q 37.3125 6.203125 41.140625 7.25 
Q 44.96875 8.296875 48.78125 10.40625 
L 48.78125 2.09375 
Q 45.015625 0.34375 40.984375 -0.53125 
Q 36.96875 -1.421875 32.421875 -1.421875 
Q 20.0625 -1.421875 12.78125 6.34375 
Q 5.515625 14.109375 5.515625 27.296875 
Q 5.515625 40.671875 12.859375 48.328125 
Q 20.21875 56 33.015625 56 
Q 37.15625 56 41.109375 55.140625 
Q 45.0625 54.296875 48.78125 52.59375 
z
" id="DejaVuSans-99"/>
      <path d="M 30.609375 48.390625 
Q 23.390625 48.390625 19.1875 42.75 
Q 14.984375 37.109375 14.984375 27.296875 
Q 14.984375 17.484375 19.15625 11.84375 
Q 23.34375 6.203125 30.609375 6.203125 
Q 37.796875 6.203125 41.984375 11.859375 
Q 46.1875 17.53125 46.1875 27.296875 
Q 46.1875 37.015625 41.984375 42.703125 
Q 37.796875 48.390625 30.609375 48.390625 
z
M 30.609375 56 
Q 42.328125 56 49.015625 48.375 
Q 55.71875 40.765625 55.71875 27.296875 
Q 55.71875 13.875 49.015625 6.21875 
Q 42.328125 -1.421875 30.609375 -1.421875 
Q 18.84375 -1.421875 12.171875 6.21875 
Q 5.515625 13.875 5.515625 27.296875 
Q 5.515625 40.765625 12.171875 48.375 
Q 18.84375 56 30.609375 56 
z
" id="DejaVuSans-111"/>
      <path d="M 54.890625 33.015625 
L 54.890625 0 
L 45.90625 0 
L 45.90625 32.71875 
Q 45.90625 40.484375 42.875 44.328125 
Q 39.84375 48.1875 33.796875 48.1875 
Q 26.515625 48.1875 22.3125 43.546875 
Q 18.109375 38.921875 18.109375 30.90625 
L 18.109375 0 
L 9.078125 0 
L 9.078125 54.6875 
L 18.109375 54.6875 
L 18.109375 46.1875 
Q 21.34375 51.125 25.703125 53.5625 
Q 30.078125 56 35.796875 56 
Q 45.21875 56 50.046875 50.171875 
Q 54.890625 44.34375 54.890625 33.015625 
z
" id="DejaVuSans-110"/>
      <path d="M 45.40625 46.390625 
L 45.40625 75.984375 
L 54.390625 75.984375 
L 54.390625 0 
L 45.40625 0 
L 45.40625 8.203125 
Q 42.578125 3.328125 38.25 0.953125 
Q 33.9375 -1.421875 27.875 -1.421875 
Q 17.96875 -1.421875 11.734375 6.484375 
Q 5.515625 14.40625 5.515625 27.296875 
Q 5.515625 40.1875 11.734375 48.09375 
Q 17.96875 56 27.875 56 
Q 33.9375 56 38.25 53.625 
Q 42.578125 51.265625 45.40625 46.390625 
z
M 14.796875 27.296875 
Q 14.796875 17.390625 18.875 11.75 
Q 22.953125 6.109375 30.078125 6.109375 
Q 37.203125 6.109375 41.296875 11.75 
Q 45.40625 17.390625 45.40625 27.296875 
Q 45.40625 37.203125 41.296875 42.84375 
Q 37.203125 48.484375 30.078125 48.484375 
Q 22.953125 48.484375 18.875 42.84375 
Q 14.796875 37.203125 14.796875 27.296875 
z
" id="DejaVuSans-100"/>
      <path d="M 8.015625 75.875 
L 15.828125 75.875 
Q 23.140625 64.359375 26.78125 53.3125 
Q 30.421875 42.28125 30.421875 31.390625 
Q 30.421875 20.453125 26.78125 9.375 
Q 23.140625 -1.703125 15.828125 -13.1875 
L 8.015625 -13.1875 
Q 14.5 -2 17.703125 9.0625 
Q 20.90625 20.125 20.90625 31.390625 
Q 20.90625 42.671875 17.703125 53.65625 
Q 14.5 64.65625 8.015625 75.875 
z
" id="DejaVuSans-41"/>
     </defs>
     <g transform="translate(197.76 335.860562)scale(0.1 -0.1)">
      <use transform="translate(0 0.015625)" xlink:href="#DejaVuSans-84"/>
      <use transform="translate(61.083984 0.015625)" xlink:href="#DejaVuSans-105"/>
      <use transform="translate(88.867188 0.015625)" xlink:href="#DejaVuSans-109"/>
      <use transform="translate(186.279297 0.015625)" xlink:href="#DejaVuSans-101"/>
      <use transform="translate(280.273113 0.015625)" xlink:href="#DejaVuSans-40"/>
      <use transform="translate(319.286785 0.015625)" xlink:href="#DejaVuSans-115"/>
      <use transform="translate(371.386394 0.015625)" xlink:href="#DejaVuSans-101"/>
      <use transform="translate(432.909832 0.015625)" xlink:href="#DejaVuSans-99"/>
      <use transform="translate(487.8903 0.015625)" xlink:href="#DejaVuSans-111"/>
      <use transform="translate(549.071941 0.015625)" xlink:href="#DejaVuSans-110"/>
      <use transform="translate(612.450847 0.015625)" xlink:href="#DejaVuSans-100"/>
      <use transform="translate(675.92741 0.015625)" xlink:href="#DejaVuSans-115"/>
      <use transform="translate(728.027019 0.015625)" xlink:href="#DejaVuSans-41"/>
     </g>
    </g>
   </g>
   <g id="matplotlib.axis_2">
    <g id="ytick_1">
     <g id="line2d_13">
      <path clip-path="url(#pb9a521e971)" d="M 57.6 201.409735 
L 414.72 201.409735 
" style="fill:none;stroke:#b0b0b0;stroke-linecap:square;stroke-width:0.8;"/>
     </g>
     <g id="line2d_14">
      <defs>
       <path d="M 0 0 
L -3.5 0 
" id="m630cb35b29" style="stroke:#000000;stroke-width:0.8;"/>
      </defs>
      <g>
       <use style="stroke:#000000;stroke-width:0.8;" x="57.6" xlink:href="#m630cb35b29" y="201.409735"/>
      </g>
     </g>
     <g id="text_8">
      <!-- $\mathdefault{10^{-1}}$ -->
      <defs>
       <path d="M 10.59375 35.5 
L 73.1875 35.5 
L 73.1875 27.203125 
L 10.59375 27.203125 
z
" id="DejaVuSans-8722"/>
      </defs>
      <g transform="translate(27.1 205.208954)scale(0.1 -0.1)">
       <use transform="translate(0 0.684375)" xlink:href="#DejaVuSans-49"/>
       <use transform="translate(63.623047 0.684375)" xlink:href="#DejaVuSans-48"/>
       <use transform="translate(128.203125 38.965625)scale(0.7)" xlink:href="#DejaVuSans-8722"/>
       <use transform="translate(186.855469 38.965625)scale(0.7)" xlink:href="#DejaVuSans-49"/>
      </g>
     </g>
    </g>
    <g id="ytick_2">
     <g id="line2d_15">
      <defs>
       <path d="M 0 0 
L -2 0 
" id="m05bf0f7a81" style="stroke:#000000;stroke-width:0.6;"/>
      </defs>
      <g>
       <use style="stroke:#000000;stroke-width:0.6;" x="57.6" xlink:href="#m05bf0f7a81" y="282.42241"/>
      </g>
     </g>
    </g>
    <g id="ytick_3">
     <g id="line2d_16">
      <g>
       <use style="stroke:#000000;stroke-width:0.6;" x="57.6" xlink:href="#m05bf0f7a81" y="262.693458"/>
      </g>
     </g>
    </g>
    <g id="ytick_4">
     <g id="line2d_17">
      <g>
       <use style="stroke:#000000;stroke-width:0.6;" x="57.6" xlink:href="#m05bf0f7a81" y="246.57373"/>
      </g>
     </g>
    </g>
    <g id="ytick_5">
     <g id="line2d_18">
      <g>
       <use style="stroke:#000000;stroke-width:0.6;" x="57.6" xlink:href="#m05bf0f7a81" y="232.944695"/>
      </g>
     </g>
    </g>
    <g id="ytick_6">
     <g id="line2d_19">
      <g>
       <use style="stroke:#000000;stroke-width:0.6;" x="57.6" xlink:href="#m05bf0f7a81" y="221.138687"/>
      </g>
     </g>
    </g>
    <g id="ytick_7">
     <g id="line2d_20">
      <g>
       <use style="stroke:#000000;stroke-width:0.6;" x="57.6" xlink:href="#m05bf0f7a81" y="210.72505"/>
      </g>
     </g>
    </g>
    <g id="ytick_8">
     <g id="line2d_21">
      <g>
       <use style="stroke:#000000;stroke-width:0.6;" x="57.6" xlink:href="#m05bf0f7a81" y="140.126012"/>
      </g>
     </g>
    </g>
    <g id="ytick_9">
     <g id="line2d_22">
      <g>
       <use style="stroke:#000000;stroke-width:0.6;" x="57.6" xlink:href="#m05bf0f7a81" y="104.277332"/>
      </g>
     </g>
    </g>
    <g id="ytick_10">
     <g id="line2d_23">
      <g>
       <use style="stroke:#000000;stroke-width:0.6;" x="57.6" xlink:href="#m05bf0f7a81" y="78.842289"/>
      </g>
     </g>
    </g>
    <g id="ytick_11">
     <g id="line2d_24">
      <g>
       <use style="stroke:#000000;stroke-width:0.6;" x="57.6" xlink:href="#m05bf0f7a81" y="59.113337"/>
      </g>
     </g>
    </g>
    <g id="ytick_12">
     <g id="line2d_25">
      <g>
       <use style="stroke:#000000;stroke-width:0.6;" x="57.6" xlink:href="#m05bf0f7a81" y="42.993609"/>
      </g>
     </g>
    </g>
    <g id="text_9">
     <!-- $\mathrm{Relative \ error}$ ($N_{\mathrm{train}}=10$) -->
     <defs>
      <path d="M 44.390625 34.1875 
Q 47.5625 33.109375 50.5625 29.59375 
Q 53.5625 26.078125 56.59375 19.921875 
L 66.609375 0 
L 56 0 
L 46.6875 18.703125 
Q 43.0625 26.03125 39.671875 28.421875 
Q 36.28125 30.8125 30.421875 30.8125 
L 19.671875 30.8125 
L 19.671875 0 
L 9.8125 0 
L 9.8125 72.90625 
L 32.078125 72.90625 
Q 44.578125 72.90625 50.734375 67.671875 
Q 56.890625 62.453125 56.890625 51.90625 
Q 56.890625 45.015625 53.6875 40.46875 
Q 50.484375 35.9375 44.390625 34.1875 
z
M 19.671875 64.796875 
L 19.671875 38.921875 
L 32.078125 38.921875 
Q 39.203125 38.921875 42.84375 42.21875 
Q 46.484375 45.515625 46.484375 51.90625 
Q 46.484375 58.296875 42.84375 61.546875 
Q 39.203125 64.796875 32.078125 64.796875 
z
" id="DejaVuSans-82"/>
      <path d="M 9.421875 75.984375 
L 18.40625 75.984375 
L 18.40625 0 
L 9.421875 0 
z
" id="DejaVuSans-108"/>
      <path d="M 34.28125 27.484375 
Q 23.390625 27.484375 19.1875 25 
Q 14.984375 22.515625 14.984375 16.5 
Q 14.984375 11.71875 18.140625 8.90625 
Q 21.296875 6.109375 26.703125 6.109375 
Q 34.1875 6.109375 38.703125 11.40625 
Q 43.21875 16.703125 43.21875 25.484375 
L 43.21875 27.484375 
z
M 52.203125 31.203125 
L 52.203125 0 
L 43.21875 0 
L 43.21875 8.296875 
Q 40.140625 3.328125 35.546875 0.953125 
Q 30.953125 -1.421875 24.3125 -1.421875 
Q 15.921875 -1.421875 10.953125 3.296875 
Q 6 8.015625 6 15.921875 
Q 6 25.140625 12.171875 29.828125 
Q 18.359375 34.515625 30.609375 34.515625 
L 43.21875 34.515625 
L 43.21875 35.40625 
Q 43.21875 41.609375 39.140625 45 
Q 35.0625 48.390625 27.6875 48.390625 
Q 23 48.390625 18.546875 47.265625 
Q 14.109375 46.140625 10.015625 43.890625 
L 10.015625 52.203125 
Q 14.9375 54.109375 19.578125 55.046875 
Q 24.21875 56 28.609375 56 
Q 40.484375 56 46.34375 49.84375 
Q 52.203125 43.703125 52.203125 31.203125 
z
" id="DejaVuSans-97"/>
      <path d="M 18.3125 70.21875 
L 18.3125 54.6875 
L 36.8125 54.6875 
L 36.8125 47.703125 
L 18.3125 47.703125 
L 18.3125 18.015625 
Q 18.3125 11.328125 20.140625 9.421875 
Q 21.96875 7.515625 27.59375 7.515625 
L 36.8125 7.515625 
L 36.8125 0 
L 27.59375 0 
Q 17.1875 0 13.234375 3.875 
Q 9.28125 7.765625 9.28125 18.015625 
L 9.28125 47.703125 
L 2.6875 47.703125 
L 2.6875 54.6875 
L 9.28125 54.6875 
L 9.28125 70.21875 
z
" id="DejaVuSans-116"/>
      <path d="M 2.984375 54.6875 
L 12.5 54.6875 
L 29.59375 8.796875 
L 46.6875 54.6875 
L 56.203125 54.6875 
L 35.6875 0 
L 23.484375 0 
z
" id="DejaVuSans-118"/>
      <path d="M 41.109375 46.296875 
Q 39.59375 47.171875 37.8125 47.578125 
Q 36.03125 48 33.890625 48 
Q 26.265625 48 22.1875 43.046875 
Q 18.109375 38.09375 18.109375 28.8125 
L 18.109375 0 
L 9.078125 0 
L 9.078125 54.6875 
L 18.109375 54.6875 
L 18.109375 46.1875 
Q 20.953125 51.171875 25.484375 53.578125 
Q 30.03125 56 36.53125 56 
Q 37.453125 56 38.578125 55.875 
Q 39.703125 55.765625 41.0625 55.515625 
z
" id="DejaVuSans-114"/>
      <path id="DejaVuSans-32"/>
      <path d="M 16.890625 72.90625 
L 30.171875 72.90625 
L 50.296875 10.40625 
L 62.5 72.90625 
L 72.125 72.90625 
L 57.90625 0 
L 44.578125 0 
L 24.515625 62.890625 
L 12.3125 0 
L 2.6875 0 
z
" id="DejaVuSans-Oblique-78"/>
      <path d="M 10.59375 45.40625 
L 73.1875 45.40625 
L 73.1875 37.203125 
L 10.59375 37.203125 
z
M 10.59375 25.484375 
L 73.1875 25.484375 
L 73.1875 17.1875 
L 10.59375 17.1875 
z
" id="DejaVuSans-61"/>
     </defs>
     <g transform="translate(21.020312 238.878)rotate(-90)scale(0.1 -0.1)">
      <use transform="translate(0 0.015625)" xlink:href="#DejaVuSans-82"/>
      <use transform="translate(69.482422 0.015625)" xlink:href="#DejaVuSans-101"/>
      <use transform="translate(131.005859 0.015625)" xlink:href="#DejaVuSans-108"/>
      <use transform="translate(158.789062 0.015625)" xlink:href="#DejaVuSans-97"/>
      <use transform="translate(220.068359 0.015625)" xlink:href="#DejaVuSans-116"/>
      <use transform="translate(259.277344 0.015625)" xlink:href="#DejaVuSans-105"/>
      <use transform="translate(287.060547 0.015625)" xlink:href="#DejaVuSans-118"/>
      <use transform="translate(346.240234 0.015625)" xlink:href="#DejaVuSans-101"/>
      <use transform="translate(440.23405 0.015625)" xlink:href="#DejaVuSans-101"/>
      <use transform="translate(501.757488 0.015625)" xlink:href="#DejaVuSans-114"/>
      <use transform="translate(542.870769 0.015625)" xlink:href="#DejaVuSans-114"/>
      <use transform="translate(583.98405 0.015625)" xlink:href="#DejaVuSans-111"/>
      <use transform="translate(645.165691 0.015625)" xlink:href="#DejaVuSans-114"/>
      <use transform="translate(686.278972 0.015625)" xlink:href="#DejaVuSans-32"/>
      <use transform="translate(718.066082 0.015625)" xlink:href="#DejaVuSans-40"/>
      <use transform="translate(757.079753 0.015625)" xlink:href="#DejaVuSans-Oblique-78"/>
      <use transform="translate(831.884441 -16.390625)scale(0.7)" xlink:href="#DejaVuSans-116"/>
      <use transform="translate(859.33073 -16.390625)scale(0.7)" xlink:href="#DejaVuSans-114"/>
      <use transform="translate(888.110027 -16.390625)scale(0.7)" xlink:href="#DejaVuSans-97"/>
      <use transform="translate(931.005535 -16.390625)scale(0.7)" xlink:href="#DejaVuSans-105"/>
      <use transform="translate(950.453777 -16.390625)scale(0.7)" xlink:href="#DejaVuSans-110"/>
      <use transform="translate(1017.035808 0.015625)" xlink:href="#DejaVuSans-61"/>
      <use transform="translate(1120.307292 0.015625)" xlink:href="#DejaVuSans-49"/>
      <use transform="translate(1183.930339 0.015625)" xlink:href="#DejaVuSans-48"/>
      <use transform="translate(1247.553386 0.015625)" xlink:href="#DejaVuSans-41"/>
     </g>
    </g>
   </g>
   <g id="line2d_26">
    <path clip-path="url(#pb9a521e971)" d="M 73.832724 277.210094 
L 77.145522 242.855992 
L 80.458321 217.357682 
L 83.771119 197.04531 
L 87.083917 180.291167 
L 90.396716 166.210793 
L 93.709554 154.243821 
L 97.022352 143.991683 
L 100.33515 135.149571 
L 103.647949 127.475754 
L 106.960747 120.775936 
L 110.273545 114.893173 
L 113.586344 109.700064 
L 116.899142 105.09284 
L 120.21194 100.986458 
L 123.524738 97.311117 
L 126.837537 94.009059 
L 130.150375 91.032265 
L 133.463173 88.340728 
L 136.775971 85.900901 
L 140.08877 83.684519 
L 143.401568 81.667871 
L 146.714366 79.830882 
L 150.027165 78.15644 
L 153.339963 76.630087 
L 156.652761 75.239593 
L 159.96556 73.974466 
L 163.278358 72.825854 
L 166.591156 71.786115 
L 169.903955 70.848666 
L 173.216753 70.007783 
L 176.529551 69.258489 
L 179.842389 68.59656 
L 183.155187 68.01836 
L 186.467986 67.520854 
L 189.780784 67.101587 
L 193.093582 66.758597 
L 196.406381 66.490501 
L 199.719179 66.296279 
L 203.031977 66.175157 
L 206.344776 66.126498 
L 209.657574 66.149629 
L 212.970412 66.243475 
L 216.28321 66.406367 
L 219.596008 66.635584 
L 226.221605 67.272947 
L 232.847202 68.08891 
L 242.785597 69.374396 
L 246.098395 69.738593 
L 249.411193 70.039501 
L 252.723992 70.264619 
L 256.03679 70.407047 
L 259.349588 70.465172 
L 262.662387 70.44149 
L 265.975185 70.341599 
L 269.288023 70.172811 
L 275.913619 69.661417 
L 282.539216 68.971775 
L 289.164852 68.160358 
L 299.103247 66.810561 
L 328.918432 62.631985 
L 338.856827 61.362322 
L 348.795222 60.200992 
L 358.733656 59.164601 
L 368.672051 58.265186 
L 378.610486 57.512979 
L 388.548881 56.917496 
L 398.487276 56.488547 
" style="fill:none;stroke:#ff0000;stroke-linecap:square;stroke-width:1.5;"/>
   </g>
   <g id="line2d_27">
    <path clip-path="url(#pb9a521e971)" d="M 73.832724 277.491126 
L 77.145522 243.238779 
L 80.458321 217.837223 
L 83.771119 197.61781 
L 87.083917 180.952585 
L 90.396716 166.956131 
L 93.709554 155.067577 
L 97.022352 144.888266 
L 100.33515 136.113743 
L 103.647949 128.502904 
L 106.960747 121.862178 
L 110.273545 116.035276 
L 113.586344 110.895371 
L 116.899142 106.339147 
L 120.21194 102.281894 
L 123.524738 98.653978 
L 126.837537 95.397875 
L 130.150375 92.465812 
L 133.463173 89.817907 
L 136.775971 87.420848 
L 140.08877 85.246718 
L 143.401568 83.271952 
L 146.714366 81.476684 
L 150.027165 79.844079 
L 153.339963 78.359859 
L 156.652761 77.011932 
L 159.96556 75.790153 
L 163.278358 74.685879 
L 166.591156 73.691812 
L 169.903955 72.801685 
L 173.216753 72.010115 
L 176.529551 71.312513 
L 179.842389 70.70495 
L 183.155187 70.184045 
L 186.467986 69.747062 
L 189.780784 69.391697 
L 193.093582 69.116276 
L 196.406381 68.919627 
L 199.719179 68.801075 
L 203.031977 68.760059 
L 206.344776 68.796124 
L 209.657574 68.908582 
L 212.970412 69.096327 
L 216.28321 69.357288 
L 219.596008 69.687826 
L 226.221605 70.530556 
L 242.785597 72.990713 
L 246.098395 73.369714 
L 249.411193 73.664385 
L 252.723992 73.864988 
L 256.03679 73.968276 
L 259.349588 73.976287 
L 262.662387 73.894863 
L 265.975185 73.732166 
L 269.288023 73.497615 
L 275.913619 72.851046 
L 282.539216 72.026762 
L 289.164852 71.084412 
L 299.103247 69.547767 
L 325.605634 65.370823 
L 335.544029 63.923874 
L 345.482424 62.58978 
L 355.420858 61.389209 
L 365.359253 60.338574 
L 375.297688 59.450317 
L 381.923284 58.953678 
L 388.548881 58.537229 
L 395.174478 58.204263 
L 398.487276 58.070231 
" style="fill:none;stroke:#0000ff;stroke-linecap:square;stroke-width:1.5;"/>
   </g>
   <g id="line2d_28">
    <path clip-path="url(#pb9a521e971)" d="M 73.832724 288.321392 
L 77.145522 253.724094 
L 80.458321 228.000058 
L 83.771119 207.49126 
L 87.083917 190.578351 
L 90.396716 176.378794 
L 93.709554 164.328731 
L 97.022352 154.025671 
L 100.33515 145.160364 
L 103.647949 137.487247 
L 106.960747 130.808787 
L 110.273545 124.964827 
L 113.586344 119.825403 
L 116.899142 115.284309 
L 120.21194 111.25435 
L 123.524738 107.66386 
L 126.837537 104.453579 
L 130.150375 101.574322 
L 133.463173 98.985245 
L 136.775971 96.652081 
L 140.08877 94.546221 
L 143.401568 92.643339 
L 146.714366 90.922765 
L 150.027165 89.366903 
L 153.339963 87.960925 
L 156.652761 86.692258 
L 159.96556 85.550606 
L 163.278358 84.527542 
L 166.591156 83.615911 
L 169.903955 82.809635 
L 173.216753 82.103489 
L 176.529551 81.493184 
L 179.842389 80.97519 
L 183.155187 80.546803 
L 186.467986 80.206001 
L 189.780784 79.951442 
L 193.093582 79.782487 
L 196.406381 79.698905 
L 199.719179 79.700847 
L 203.031977 79.788505 
L 206.344776 79.961929 
L 209.657574 80.2208 
L 212.970412 80.563795 
L 216.28321 80.987912 
L 219.596008 81.487312 
L 226.221605 82.666913 
L 236.16 84.576224 
L 239.472798 85.137677 
L 242.785597 85.614994 
L 246.098395 85.987782 
L 249.411193 86.243722 
L 252.723992 86.378509 
L 256.03679 86.394579 
L 259.349588 86.299342 
L 262.662387 86.103305 
L 265.975185 85.81829 
L 269.288023 85.456544 
L 275.913619 84.548802 
L 282.539216 83.462388 
L 292.477651 81.635639 
L 325.605634 75.280097 
L 335.544029 73.537049 
L 345.482424 71.931072 
L 355.420858 70.486236 
L 362.046455 69.6239 
L 368.672051 68.850288 
L 375.297688 68.172396 
L 381.923284 67.597273 
L 388.548881 67.132435 
L 395.174478 66.785612 
L 398.487276 66.658854 
" style="fill:none;stroke:#00ffff;stroke-linecap:square;stroke-width:1.5;"/>
   </g>
   <g id="patch_3">
    <path d="M 57.6 307.584 
L 57.6 41.472 
" style="fill:none;stroke:#000000;stroke-linecap:square;stroke-linejoin:miter;stroke-width:0.8;"/>
   </g>
   <g id="patch_4">
    <path d="M 414.72 307.584 
L 414.72 41.472 
" style="fill:none;stroke:#000000;stroke-linecap:square;stroke-linejoin:miter;stroke-width:0.8;"/>
   </g>
   <g id="patch_5">
    <path d="M 57.6 307.584 
L 414.72 307.584 
" style="fill:none;stroke:#000000;stroke-linecap:square;stroke-linejoin:miter;stroke-width:0.8;"/>
   </g>
   <g id="patch_6">
    <path d="M 57.6 41.472 
L 414.72 41.472 
" style="fill:none;stroke:#000000;stroke-linecap:square;stroke-linejoin:miter;stroke-width:0.8;"/>
   </g>
   <g id="legend_1">
    <g id="patch_7">
     <path d="M 282.559063 302.584 
L 407.72 302.584 
Q 409.72 302.584 409.72 300.584 
L 409.72 257.549625 
Q 409.72 255.549625 407.72 255.549625 
L 282.559063 255.549625 
Q 280.559063 255.549625 280.559063 257.549625 
L 280.559063 300.584 
Q 280.559063 302.584 282.559063 302.584 
z
" style="fill:#ffffff;opacity:0.8;stroke:#cccccc;stroke-linejoin:miter;"/>
    </g>
    <g id="line2d_29">
     <path d="M 284.559063 263.648062 
L 304.559063 263.648062 
" style="fill:none;stroke:#ff0000;stroke-linecap:square;stroke-width:1.5;"/>
    </g>
    <g id="line2d_30"/>
    <g id="text_10">
     <!-- No denoising -->
     <defs>
      <path d="M 9.8125 72.90625 
L 23.09375 72.90625 
L 55.421875 11.921875 
L 55.421875 72.90625 
L 64.984375 72.90625 
L 64.984375 0 
L 51.703125 0 
L 19.390625 60.984375 
L 19.390625 0 
L 9.8125 0 
z
" id="DejaVuSans-78"/>
      <path d="M 45.40625 27.984375 
Q 45.40625 37.75 41.375 43.109375 
Q 37.359375 48.484375 30.078125 48.484375 
Q 22.859375 48.484375 18.828125 43.109375 
Q 14.796875 37.75 14.796875 27.984375 
Q 14.796875 18.265625 18.828125 12.890625 
Q 22.859375 7.515625 30.078125 7.515625 
Q 37.359375 7.515625 41.375 12.890625 
Q 45.40625 18.265625 45.40625 27.984375 
z
M 54.390625 6.78125 
Q 54.390625 -7.171875 48.1875 -13.984375 
Q 42 -20.796875 29.203125 -20.796875 
Q 24.46875 -20.796875 20.265625 -20.09375 
Q 16.0625 -19.390625 12.109375 -17.921875 
L 12.109375 -9.1875 
Q 16.0625 -11.328125 19.921875 -12.34375 
Q 23.78125 -13.375 27.78125 -13.375 
Q 36.625 -13.375 41.015625 -8.765625 
Q 45.40625 -4.15625 45.40625 5.171875 
L 45.40625 9.625 
Q 42.625 4.78125 38.28125 2.390625 
Q 33.9375 0 27.875 0 
Q 17.828125 0 11.671875 7.65625 
Q 5.515625 15.328125 5.515625 27.984375 
Q 5.515625 40.671875 11.671875 48.328125 
Q 17.828125 56 27.875 56 
Q 33.9375 56 38.28125 53.609375 
Q 42.625 51.21875 45.40625 46.390625 
L 45.40625 54.6875 
L 54.390625 54.6875 
z
" id="DejaVuSans-103"/>
     </defs>
     <g transform="translate(312.559063 267.148062)scale(0.1 -0.1)">
      <use xlink:href="#DejaVuSans-78"/>
      <use x="74.804688" xlink:href="#DejaVuSans-111"/>
      <use x="135.986328" xlink:href="#DejaVuSans-32"/>
      <use x="167.773438" xlink:href="#DejaVuSans-100"/>
      <use x="231.25" xlink:href="#DejaVuSans-101"/>
      <use x="292.773438" xlink:href="#DejaVuSans-110"/>
      <use x="356.152344" xlink:href="#DejaVuSans-111"/>
      <use x="417.333984" xlink:href="#DejaVuSans-105"/>
      <use x="445.117188" xlink:href="#DejaVuSans-115"/>
      <use x="497.216797" xlink:href="#DejaVuSans-105"/>
      <use x="525" xlink:href="#DejaVuSans-110"/>
      <use x="588.378906" xlink:href="#DejaVuSans-103"/>
     </g>
    </g>
    <g id="line2d_31">
     <path d="M 284.559063 278.326188 
L 304.559063 278.326188 
" style="fill:none;stroke:#0000ff;stroke-linecap:square;stroke-width:1.5;"/>
    </g>
    <g id="line2d_32"/>
    <g id="text_11">
     <!-- With denoising -->
     <defs>
      <path d="M 3.328125 72.90625 
L 13.28125 72.90625 
L 28.609375 11.28125 
L 43.890625 72.90625 
L 54.984375 72.90625 
L 70.3125 11.28125 
L 85.59375 72.90625 
L 95.609375 72.90625 
L 77.296875 0 
L 64.890625 0 
L 49.515625 63.28125 
L 33.984375 0 
L 21.578125 0 
z
" id="DejaVuSans-87"/>
      <path d="M 54.890625 33.015625 
L 54.890625 0 
L 45.90625 0 
L 45.90625 32.71875 
Q 45.90625 40.484375 42.875 44.328125 
Q 39.84375 48.1875 33.796875 48.1875 
Q 26.515625 48.1875 22.3125 43.546875 
Q 18.109375 38.921875 18.109375 30.90625 
L 18.109375 0 
L 9.078125 0 
L 9.078125 75.984375 
L 18.109375 75.984375 
L 18.109375 46.1875 
Q 21.34375 51.125 25.703125 53.5625 
Q 30.078125 56 35.796875 56 
Q 45.21875 56 50.046875 50.171875 
Q 54.890625 44.34375 54.890625 33.015625 
z
" id="DejaVuSans-104"/>
     </defs>
     <g transform="translate(312.559063 281.826188)scale(0.1 -0.1)">
      <use xlink:href="#DejaVuSans-87"/>
      <use x="98.845703" xlink:href="#DejaVuSans-105"/>
      <use x="126.628906" xlink:href="#DejaVuSans-116"/>
      <use x="165.837891" xlink:href="#DejaVuSans-104"/>
      <use x="229.216797" xlink:href="#DejaVuSans-32"/>
      <use x="261.003906" xlink:href="#DejaVuSans-100"/>
      <use x="324.480469" xlink:href="#DejaVuSans-101"/>
      <use x="386.003906" xlink:href="#DejaVuSans-110"/>
      <use x="449.382812" xlink:href="#DejaVuSans-111"/>
      <use x="510.564453" xlink:href="#DejaVuSans-105"/>
      <use x="538.347656" xlink:href="#DejaVuSans-115"/>
      <use x="590.447266" xlink:href="#DejaVuSans-105"/>
      <use x="618.230469" xlink:href="#DejaVuSans-110"/>
      <use x="681.609375" xlink:href="#DejaVuSans-103"/>
     </g>
    </g>
    <g id="line2d_33">
     <path d="M 284.559063 293.004312 
L 304.559063 293.004312 
" style="fill:none;stroke:#00ffff;stroke-linecap:square;stroke-width:1.5;"/>
    </g>
    <g id="line2d_34"/>
    <g id="text_12">
     <!-- With big denoising -->
     <defs>
      <path d="M 48.6875 27.296875 
Q 48.6875 37.203125 44.609375 42.84375 
Q 40.53125 48.484375 33.40625 48.484375 
Q 26.265625 48.484375 22.1875 42.84375 
Q 18.109375 37.203125 18.109375 27.296875 
Q 18.109375 17.390625 22.1875 11.75 
Q 26.265625 6.109375 33.40625 6.109375 
Q 40.53125 6.109375 44.609375 11.75 
Q 48.6875 17.390625 48.6875 27.296875 
z
M 18.109375 46.390625 
Q 20.953125 51.265625 25.265625 53.625 
Q 29.59375 56 35.59375 56 
Q 45.5625 56 51.78125 48.09375 
Q 58.015625 40.1875 58.015625 27.296875 
Q 58.015625 14.40625 51.78125 6.484375 
Q 45.5625 -1.421875 35.59375 -1.421875 
Q 29.59375 -1.421875 25.265625 0.953125 
Q 20.953125 3.328125 18.109375 8.203125 
L 18.109375 0 
L 9.078125 0 
L 9.078125 75.984375 
L 18.109375 75.984375 
z
" id="DejaVuSans-98"/>
     </defs>
     <g transform="translate(312.559063 296.504312)scale(0.1 -0.1)">
      <use xlink:href="#DejaVuSans-87"/>
      <use x="98.845703" xlink:href="#DejaVuSans-105"/>
      <use x="126.628906" xlink:href="#DejaVuSans-116"/>
      <use x="165.837891" xlink:href="#DejaVuSans-104"/>
      <use x="229.216797" xlink:href="#DejaVuSans-32"/>
      <use x="261.003906" xlink:href="#DejaVuSans-98"/>
      <use x="324.480469" xlink:href="#DejaVuSans-105"/>
      <use x="352.263672" xlink:href="#DejaVuSans-103"/>
      <use x="415.740234" xlink:href="#DejaVuSans-32"/>
      <use x="447.527344" xlink:href="#DejaVuSans-100"/>
      <use x="511.003906" xlink:href="#DejaVuSans-101"/>
      <use x="572.527344" xlink:href="#DejaVuSans-110"/>
      <use x="635.90625" xlink:href="#DejaVuSans-111"/>
      <use x="697.087891" xlink:href="#DejaVuSans-105"/>
      <use x="724.871094" xlink:href="#DejaVuSans-115"/>
      <use x="776.970703" xlink:href="#DejaVuSans-105"/>
      <use x="804.753906" xlink:href="#DejaVuSans-110"/>
      <use x="868.132812" xlink:href="#DejaVuSans-103"/>
     </g>
    </g>
   </g>
  </g>
 </g>
 <defs>
  <clipPath id="pb9a521e971">
   <rect height="266.112" width="357.12" x="57.6" y="41.472"/>
  </clipPath>
 </defs>
</svg>
